<svg viewBox="0 0 48 48" fill="none" xmlns="http://www.w3.org/2000/svg"><path fill-rule="evenodd" clip-rule="evenodd" d="M11.423 45.364l-8.787-8.787A8.998 8.998 0 010 30.213V17.786a9 9 0 012.636-6.364l8.787-8.787A9.002 9.002 0 0117.787 0h12.426c2.387 0 4.676.948 6.364 2.635l8.787 8.787A9.004 9.004 0 0148 17.787v12.427a9 9 0 01-2.636 6.364l-8.787 8.787A9 9 0 0130.213 48H17.787a9.002 9.002 0 01-6.364-2.636z" fill="currentColor"/><path d="M25.513 6.004a.94.94 0 01.67-.22 18.125 18.125 0 11-19.267 21.74l-.944 1.307a.925.925 0 01-1.498-1.083l2.284-3.162.015-.016.011-.013a.985.985 0 01.2-.186c.022-.016.044-.031.068-.045a.909.909 0 01.26-.098.25.25 0 00.021-.006c.01-.002.018-.005.028-.006a.127.127 0 01.02-.002l.019-.001a.176.176 0 00.018-.003.139.139 0 01.021-.004h.026l.02.001a.853.853 0 01.271.033c.036.01.072.022.107.037l.004.002.047.02a.92.92 0 01.135.08l3.161 2.285a.924.924 0 01-1.083 1.498L8.725 27.15A16.277 16.277 0 1026.03 7.626a.925.925 0 01-.845-.998.94.94 0 01.328-.624zM22.563 7.356a.917.917 0 00.652.271.896.896 0 00.653-.27.795.795 0 00.204-.297.898.898 0 00.049-.536.775.775 0 00-.05-.172 1.32 1.32 0 00-.085-.16.812.812 0 00-.118-.142.952.952 0 00-1.305 0 .774.774 0 00-.112.142.809.809 0 00-.086.16.858.858 0 00-.074.35c0 .124.026.246.074.358a.862.862 0 00.198.296zM20.825 8.022a.935.935 0 01-.216.03.933.933 0 01-.906-.708.922.922 0 111.116.678h.006z" fill="#965C30"/><path d="M6.793 22.79l-.01-.011-2.274-3.17a.924.924 0 111.502-1.077l.966 1.346a18.121 18.121 0 013.23-6.97.924.924 0 111.475 1.115 16.269 16.269 0 00-2.88 6.17l1.363-.978a.924.924 0 111.077 1.502l-3.17 2.274a.888.888 0 01-.127.064.9.9 0 01-.1.051.917.917 0 01-.307.058h-.003a.874.874 0 01-.086-.004.333.333 0 01-.046-.008.599.599 0 00-.028-.006l-.012-.002c-.022-.004-.045-.008-.067-.014a.882.882 0 01-.13-.047l-.023-.01c-.012-.003-.023-.008-.034-.013a.938.938 0 01-.166-.11l-.017-.017a.924.924 0 01-.133-.143zM13.461 12.036a.92.92 0 01-1.154.094.924.924 0 01-.118-1.435 18.102 18.102 0 011.827-1.52.924.924 0 111.086 1.496 16.4 16.4 0 00-1.641 1.365zM16.968 9.381a.919.919 0 00.413-.098c.342-.171.694-.331 1.045-.477a.975.975 0 00.32-.21.928.928 0 00.182-.27l.009-.014a.062.062 0 00.009-.013.993.993 0 00.067-.351.977.977 0 00-.015-.155c0-.008 0-.016-.002-.023v-.007a.302.302 0 00-.012-.035.518.518 0 01-.009-.027.95.95 0 00-.033-.11c-.006-.014-.014-.028-.022-.042a.506.506 0 01-.015-.026.943.943 0 00-.046-.092 1.325 1.325 0 00-.117-.142l-.03-.024a.917.917 0 00-.329-.192.806.806 0 00-.115-.037H18.24a.915.915 0 00-.32 0h-.01a.895.895 0 00-.186.06l-.008.004c-.391.162-.782.34-1.163.53a.924.924 0 00.415 1.751z" fill="#965C30"/></svg> 
