<svg width="60" height="60" viewBox="0 0 65 65" fill="none" xmlns="http://www.w3.org/2000/svg">
<path fill-rule="evenodd" clip-rule="evenodd" d="M15.24 60.5445L3.52 48.8245C2.40418 47.7101 1.51897 46.3866 0.914982 44.9299C0.310993 43.4731 7.35257e-05 41.9115 0 40.3345V23.7545C0.00280083 20.573 1.26892 17.5228 3.52 15.2745L15.24 3.55452C17.4883 1.30344 20.5385 0.0373162 23.72 0.0345154H40.3C41.877 0.0345889 43.4386 0.345509 44.8954 0.949497C46.3521 1.55349 47.6756 2.4387 48.79 3.55452L60.52 15.2745C62.7674 17.5244 64.0299 20.5744 64.03 23.7545V40.3345C64.0312 41.9108 63.7219 43.472 63.1196 44.9287C62.5174 46.3855 61.634 47.7093 60.52 48.8245L48.79 60.5445C47.6747 61.6585 46.3509 62.5419 44.8942 63.1442C43.4375 63.7464 41.8763 64.0558 40.3 64.0545H23.72C20.5399 64.0544 17.4899 62.7919 15.24 60.5445Z" fill="#FFC930"/>
<path d="M46.98 39.8445L45.57 39.0745L46.77 38.7245C46.8597 38.7039 46.9442 38.6649 47.0182 38.6102C47.0922 38.5554 47.1541 38.486 47.2001 38.4062C47.2461 38.3265 47.2751 38.2381 47.2854 38.1466C47.2957 38.0551 47.2871 37.9625 47.26 37.8745C47.2066 37.7026 47.0907 37.557 46.9352 37.4663C46.7797 37.3756 46.5959 37.3464 46.42 37.3845L43.82 38.0845L41.99 37.0845L44.59 36.3845C44.7677 36.3381 44.9197 36.223 45.0125 36.0645C45.1053 35.9061 45.1314 35.7172 45.085 35.5395C45.0386 35.3618 44.9235 35.2098 44.765 35.117C44.6066 35.0242 44.4177 34.9981 44.24 35.0445L40.3 36.1045L39.18 35.4645L38.97 35.1145C38.4434 34.2024 38.1662 33.1677 38.1662 32.1145C38.1662 31.0613 38.4434 30.0266 38.97 29.1145L39.18 28.7645L40.3 28.1345L44.24 29.1345C44.4159 29.1726 44.5997 29.1435 44.7552 29.0528C44.9107 28.9621 45.0266 28.8164 45.08 28.6445C45.1185 28.4673 45.0897 28.2821 44.9991 28.1249C44.9085 27.9678 44.7627 27.85 44.59 27.7945L41.99 27.0945L43.82 26.0445L46.42 26.7445C46.5959 26.7826 46.7797 26.7535 46.9352 26.6628C47.0907 26.5721 47.2066 26.4264 47.26 26.2545C47.2962 26.0774 47.2664 25.8932 47.1761 25.7366C47.0858 25.5801 46.9414 25.4619 46.77 25.4045L45.57 24.9845L46.98 24.2145C47.1413 24.1113 47.259 23.9523 47.3106 23.7679C47.3622 23.5835 47.3442 23.3865 47.26 23.2145C47.1616 23.0478 47.0027 22.9256 46.8163 22.8735C46.6299 22.8213 46.4306 22.8432 46.26 22.9345L44.85 23.7045L45.2 22.5045C45.2301 22.334 45.195 22.1584 45.1016 22.0126C45.0083 21.8668 44.8635 21.7614 44.6961 21.7174C44.5287 21.6733 44.3508 21.6938 44.1978 21.7748C44.0447 21.8558 43.9277 21.9913 43.87 22.1545L43.16 24.7545L41.34 25.8145L42.04 23.2145C42.0859 23.12 42.1096 23.0162 42.1093 22.9112C42.109 22.8061 42.0847 22.7025 42.0382 22.6082C41.9918 22.514 41.9245 22.4316 41.8413 22.3673C41.7582 22.303 41.6615 22.2586 41.5586 22.2374C41.4557 22.2162 41.3493 22.2187 41.2475 22.2449C41.1457 22.2711 41.0513 22.3201 40.9714 22.3883C40.8914 22.4565 40.8281 22.5421 40.7863 22.6385C40.7445 22.7349 40.7252 22.8396 40.73 22.9445L39.67 26.8445L38.52 27.4745H38.12C37.0661 27.4752 36.0307 27.1983 35.1178 26.6716C34.205 26.145 33.4469 25.3872 32.92 24.4745L32.71 24.1945V22.9445L35.6 20.0645C35.6691 20.0008 35.7242 19.9235 35.7619 19.8375C35.7997 19.7514 35.8191 19.6585 35.8191 19.5645C35.8191 19.4706 35.7997 19.3776 35.7619 19.2916C35.7242 19.2055 35.6691 19.1282 35.6 19.0645C35.5355 18.9967 35.458 18.9428 35.372 18.9059C35.2861 18.869 35.1935 18.85 35.1 18.85C35.0065 18.85 34.9139 18.869 34.828 18.9059C34.742 18.9428 34.6645 18.9967 34.6 19.0645L32.7 20.8945V18.7645L34.6 16.8645C34.6657 16.7989 34.7177 16.7209 34.7533 16.6351C34.7888 16.5493 34.8071 16.4574 34.8071 16.3645C34.8071 16.2717 34.7888 16.1797 34.7533 16.0939C34.7177 16.0081 34.6657 15.9302 34.6 15.8645C34.5343 15.7989 34.4564 15.7468 34.3706 15.7112C34.2848 15.6757 34.1929 15.6574 34.1 15.6574C34.0071 15.6574 33.9152 15.6757 33.8294 15.7112C33.7436 15.7468 33.6657 15.7989 33.6 15.8645L32.68 16.7745V15.1745C32.68 14.9889 32.6063 14.8108 32.475 14.6795C32.3437 14.5483 32.1657 14.4745 31.98 14.4745C31.7943 14.4745 31.6163 14.5483 31.485 14.6795C31.3537 14.8108 31.28 14.9889 31.28 15.1745V16.7945L30.36 15.8845C30.2274 15.7519 30.0475 15.6774 29.86 15.6774C29.6725 15.6774 29.4926 15.7519 29.36 15.8845C29.2274 16.0171 29.1529 16.197 29.1529 16.3845C29.1529 16.5721 29.2274 16.7519 29.36 16.8845L31.26 18.7845V20.8945L29.41 18.9445C29.2774 18.8119 29.0975 18.7374 28.91 18.7374C28.7225 18.7374 28.5426 18.8119 28.41 18.9445C28.2774 19.0771 28.2029 19.257 28.2029 19.4445C28.2029 19.6321 28.2774 19.8119 28.41 19.9445L31.29 22.8245V24.0945L31.08 24.4445C30.5531 25.3572 29.795 26.115 28.8822 26.6416C27.9693 27.1683 26.9339 27.4452 25.88 27.4445H25.52L24.39 26.8145L23.39 22.8745C23.3693 22.7848 23.3304 22.7003 23.2757 22.6263C23.2209 22.5523 23.1515 22.4904 23.0717 22.4444C22.992 22.3984 22.9036 22.3694 22.8121 22.3591C22.7206 22.3488 22.628 22.3574 22.54 22.3845C22.3673 22.44 22.2215 22.5578 22.1309 22.7149C22.0403 22.8721 22.0115 23.0573 22.05 23.2345L22.75 25.8345L20.93 24.7745L20.22 22.1745C20.2034 22.0806 20.1675 21.991 20.1146 21.9117C20.0617 21.8323 19.9929 21.7647 19.9125 21.7133C19.8321 21.6618 19.742 21.6276 19.6477 21.6128C19.5535 21.5979 19.4572 21.6028 19.3649 21.6271C19.2726 21.6514 19.1864 21.6945 19.1116 21.7538C19.0369 21.8132 18.9752 21.8873 18.9306 21.9717C18.886 22.056 18.8593 22.1487 18.8523 22.2438C18.8454 22.339 18.8582 22.4346 18.89 22.5245L19.24 23.7245L17.82 22.9445C17.7373 22.8979 17.6462 22.868 17.5519 22.8566C17.4576 22.8452 17.362 22.8525 17.2705 22.878C17.1791 22.9036 17.0935 22.9469 17.0188 23.0055C16.9441 23.064 16.8816 23.1368 16.835 23.2195C16.7884 23.3023 16.7585 23.3934 16.7471 23.4876C16.7357 23.5819 16.743 23.6775 16.7685 23.769C16.794 23.8604 16.8373 23.946 16.8959 24.0207C16.9545 24.0954 17.0273 24.1579 17.11 24.2045L18.52 24.9745L17.25 25.3245C17.1603 25.3452 17.0758 25.3841 17.0018 25.4389C16.9278 25.4936 16.8659 25.5631 16.8199 25.6428C16.7739 25.7226 16.7449 25.8109 16.7346 25.9024C16.7243 25.9939 16.7329 26.0865 16.76 26.1745C16.7795 26.2639 16.8173 26.3482 16.871 26.4221C16.9248 26.4961 16.9933 26.558 17.0723 26.6041C17.1513 26.6502 17.239 26.6793 17.3298 26.6897C17.4207 26.7001 17.5127 26.6915 17.6 26.6645L20.2 25.9645L22.03 27.0145L19.43 27.7145C19.3403 27.7352 19.2558 27.7741 19.1818 27.8289C19.1078 27.8836 19.0459 27.9531 18.9999 28.0328C18.9539 28.1126 18.9249 28.2009 18.9146 28.2924C18.9043 28.3839 18.9129 28.4765 18.94 28.5645C18.9595 28.6539 18.9973 28.7382 19.051 28.8121C19.1048 28.8861 19.1733 28.948 19.2523 28.9941C19.3313 29.0402 19.419 29.0693 19.5098 29.0797C19.6007 29.0901 19.6927 29.0815 19.78 29.0545L23.72 28.0545L24.84 28.6845L25.05 29.0345C25.5766 29.9466 25.8538 30.9813 25.8538 32.0345C25.8538 33.0877 25.5766 34.1224 25.05 35.0345L24.84 35.3845L23.72 35.9445L19.78 34.9445C19.692 34.9215 19.6004 34.9161 19.5103 34.9286C19.4202 34.941 19.3334 34.971 19.255 35.017C19.1765 35.063 19.1079 35.1239 19.053 35.1964C18.9981 35.2689 18.958 35.3515 18.935 35.4395C18.912 35.5275 18.9066 35.6192 18.919 35.7092C18.9315 35.7993 18.9615 35.8861 19.0075 35.9645C19.0535 36.043 19.1144 36.1116 19.1869 36.1665C19.2594 36.2215 19.342 36.2615 19.43 36.2845L22.03 36.9845L20.2 37.9845L17.6 37.2845C17.4241 37.2464 17.2403 37.2756 17.0848 37.3663C16.9293 37.457 16.8134 37.6026 16.76 37.7745C16.7215 37.9518 16.7503 38.137 16.8409 38.2941C16.9315 38.4512 17.0773 38.569 17.25 38.6245L18.45 39.0445L17.04 39.8145C16.8787 39.9178 16.761 40.0767 16.7094 40.2612C16.6578 40.4456 16.6758 40.6425 16.76 40.8145C16.8632 40.9758 17.0222 41.0935 17.2066 41.1451C17.391 41.1968 17.588 41.1787 17.76 41.0945L19.17 40.3145L18.82 41.5145C18.7819 41.6904 18.8111 41.8743 18.9018 42.0297C18.9925 42.1852 19.1381 42.3011 19.31 42.3545C19.3973 42.3786 19.4886 42.3849 19.5784 42.3732C19.6683 42.3615 19.7549 42.3319 19.8331 42.2863C19.9114 42.2406 19.9797 42.1798 20.0341 42.1074C20.0885 42.035 20.1279 41.9524 20.15 41.8645L20.86 39.2645L22.68 38.2145L21.98 40.8145C21.9419 40.9904 21.9711 41.1743 22.0618 41.3297C22.1525 41.4852 22.2981 41.6011 22.47 41.6545C22.6472 41.693 22.8325 41.6642 22.9896 41.5736C23.1467 41.483 23.2645 41.3372 23.32 41.1645L24.32 37.2245L25.52 36.6145H25.94C26.9939 36.6138 28.0293 36.8908 28.9422 37.4174C29.855 37.944 30.6131 38.7018 31.14 39.6145L31.35 39.9645V41.2345L28.47 44.1145C28.3374 44.2471 28.2629 44.427 28.2629 44.6145C28.2629 44.8021 28.3374 44.9819 28.47 45.1145C28.6026 45.2471 28.7825 45.3216 28.97 45.3216C29.1575 45.3216 29.3374 45.2471 29.47 45.1145L31.37 43.2145V45.3245L29.47 47.2245C29.4009 47.2882 29.3458 47.3655 29.3081 47.4516C29.2703 47.5376 29.2509 47.6306 29.2509 47.7245C29.2509 47.8185 29.2703 47.9114 29.3081 47.9975C29.3458 48.0835 29.4009 48.1608 29.47 48.2245C29.532 48.2964 29.6087 48.3541 29.695 48.3937C29.7813 48.4332 29.8751 48.4537 29.97 48.4537C30.0649 48.4537 30.1587 48.4332 30.245 48.3937C30.3313 48.3541 30.408 48.2964 30.47 48.2245L31.39 47.3145V48.9445C31.39 49.1302 31.4637 49.3082 31.595 49.4395C31.7263 49.5708 31.9043 49.6445 32.09 49.6445C32.2757 49.6445 32.4537 49.5708 32.585 49.4395C32.7163 49.3082 32.79 49.1302 32.79 48.9445V47.2945L33.71 48.2045C33.772 48.2764 33.8487 48.3341 33.935 48.3737C34.0213 48.4132 34.1151 48.4337 34.21 48.4337C34.3049 48.4337 34.3987 48.4132 34.485 48.3737C34.5713 48.3341 34.648 48.2764 34.71 48.2045C34.7791 48.1408 34.8342 48.0635 34.8719 47.9775C34.9097 47.8914 34.9291 47.7985 34.9291 47.7045C34.9291 47.6106 34.9097 47.5176 34.8719 47.4316C34.8342 47.3455 34.7791 47.2682 34.71 47.2045L32.81 45.3045V43.2145L34.71 45.1145C34.7745 45.1823 34.852 45.2363 34.938 45.2731C35.0239 45.31 35.1165 45.329 35.21 45.329C35.3035 45.329 35.3961 45.31 35.482 45.2731C35.568 45.2363 35.6455 45.1823 35.71 45.1145C35.7791 45.0508 35.8342 44.9735 35.8719 44.8875C35.9097 44.8014 35.9291 44.7085 35.9291 44.6145C35.9291 44.5206 35.9097 44.4276 35.8719 44.3416C35.8342 44.2555 35.7791 44.1782 35.71 44.1145L32.82 41.2345V39.9445L33.03 39.5945C33.5569 38.6818 34.315 37.924 35.2278 37.3974C36.1407 36.8708 37.1761 36.5938 38.23 36.5945H38.52L39.64 37.2245L40.7 41.1645C40.7195 41.2539 40.7573 41.3382 40.811 41.4121C40.8648 41.4861 40.9333 41.548 41.0123 41.5941C41.0913 41.6402 41.179 41.6693 41.2698 41.6797C41.3607 41.6901 41.4527 41.6815 41.54 41.6545C41.7119 41.6011 41.8575 41.4852 41.9482 41.3297C42.0389 41.1743 42.0681 40.9904 42.03 40.8145L41.33 38.2145L43.15 39.2645L43.86 41.8645C43.8766 41.9585 43.9125 42.048 43.9654 42.1274C44.0183 42.2068 44.0871 42.2743 44.1675 42.3258C44.2479 42.3772 44.338 42.4114 44.4323 42.4263C44.5265 42.4411 44.6228 42.4362 44.7151 42.4119C44.8074 42.3877 44.8936 42.3445 44.9684 42.2852C45.0431 42.2259 45.1048 42.1517 45.1494 42.0674C45.194 41.983 45.2207 41.8904 45.2277 41.7952C45.2346 41.7 45.2218 41.6045 45.19 41.5145L44.84 40.3145L46.25 41.0945C46.3332 41.1452 46.4259 41.1782 46.5224 41.1915C46.6189 41.2049 46.7171 41.1982 46.8109 41.1719C46.9047 41.1456 46.9921 41.1004 47.0676 41.0389C47.1431 40.9774 47.2052 40.901 47.25 40.8145C47.3269 40.647 47.3419 40.4577 47.2925 40.2801C47.2431 40.1026 47.1324 39.9482 46.98 39.8445V39.8445ZM37.14 34.1545L34.52 32.6045C34.6602 32.1962 34.6602 31.7528 34.52 31.3445L37.12 29.7945C36.7065 31.2194 36.7134 32.7335 37.14 34.1545V34.1545ZM36.44 28.6745L33.84 30.2145C33.5313 29.9372 33.1712 29.7231 32.78 29.5845V26.5845C33.7623 27.6331 35.0377 28.3614 36.44 28.6745V28.6745ZM31.31 26.5645V29.5645C30.9135 29.6916 30.5511 29.907 30.25 30.1945L27.65 28.6545C29.0395 28.3088 30.3062 27.5855 31.31 26.5645V26.5645ZM26.88 29.9445L29.52 31.4845C29.4267 31.8993 29.4267 32.3297 29.52 32.7445L26.92 34.1545C27.3252 32.7784 27.3113 31.3127 26.88 29.9445V29.9445ZM27.58 35.4245L30.18 33.8845C30.4903 34.1596 30.85 34.3734 31.24 34.5145V37.5145C30.2563 36.4657 28.9819 35.7344 27.58 35.4145V35.4245ZM32.71 37.5345V34.5345C33.1086 34.4122 33.4721 34.1962 33.77 33.9045L36.37 35.4445C34.9832 35.7912 33.7176 36.5105 32.71 37.5245V37.5345Z" fill="#965C30"/>
<path d="M10.14 47.9445C10.1298 47.9062 10.109 47.8715 10.08 47.8445V47.8445L10.14 47.9445Z" fill="white"/>
<path d="M15.86 42.8845C16 42.8845 16.23 42.8845 16.27 42.8145H16.2C16.2 42.8145 16.02 42.8145 16.01 42.8145H16.1C16.01 42.7245 15.74 42.8145 15.56 42.8145H15.62H16.73C16.7539 42.8145 16.7768 42.805 16.7936 42.7881C16.8105 42.7713 16.82 42.7484 16.82 42.7245C16.82 42.7006 16.8105 42.6777 16.7936 42.6609C16.7768 42.644 16.7539 42.6345 16.73 42.6345V42.6345C16.7333 42.6113 16.7333 42.5877 16.73 42.5645C16.7627 42.5556 16.7973 42.5556 16.83 42.5645C16.8589 42.5528 16.8911 42.5528 16.92 42.5645C16.9044 42.5267 16.8782 42.4942 16.8444 42.4712C16.8106 42.4481 16.7709 42.4353 16.73 42.4345V42.4345C16.73 42.4345 16.66 42.3845 16.53 42.3545H16.33H16.26H16.43C16.359 42.3285 16.281 42.3285 16.21 42.3545C16.181 42.3438 16.149 42.3438 16.12 42.3545L15.92 42.4245C15.92 42.4245 16.01 42.3645 15.92 42.3445C15.83 42.3245 16.01 42.4145 15.86 42.4345C15.71 42.4545 15.79 42.3745 15.67 42.4345C15.55 42.4945 15.67 42.4345 15.73 42.4345C15.63 42.4345 15.46 42.4345 15.41 42.4345C15.36 42.4345 15.07 42.4345 15.08 42.3745C14.9929 42.4058 14.9022 42.4259 14.81 42.4345C14.98 42.3445 14.46 42.4345 14.51 42.3345C14.38 42.4145 14.06 42.3345 13.84 42.4145H13.89H13.81H13.73C13.73 42.4145 13.67 42.4145 13.61 42.4145H13.42C13.31 42.3045 13.53 42.4145 13.51 42.3145C13.49 42.2145 13.44 42.3145 13.39 42.3145C13.34 42.3145 13.28 42.3145 13.29 42.3145C13.3 42.3145 13.22 42.2545 13.2 42.1745C13.18 42.0945 13.1 42.1745 13 42.1245C12.9 42.0745 13 42.0445 12.86 41.9545C12.72 41.8645 12.94 41.9545 12.94 41.9545C12.94 41.9545 12.84 41.9545 12.79 41.9545C12.74 41.9545 12.79 41.8545 12.71 41.7845C12.6079 41.7337 12.5108 41.6734 12.42 41.6045C12.42 41.6045 12.42 41.6045 12.42 41.6045C12.28 41.5345 12.13 41.2845 11.98 41.1845C11.9774 41.1992 11.9716 41.213 11.9629 41.2252C11.9543 41.2373 11.943 41.2473 11.93 41.2545C11.88 41.1945 11.81 41.1545 11.82 41.1045C11.837 41.1286 11.8617 41.1463 11.89 41.1545L11.75 40.9445C11.75 40.8445 11.84 41.0345 11.87 41.0045C11.749 40.8906 11.6416 40.7631 11.55 40.6245C11.55 40.6245 11.73 40.8645 11.68 40.6945L11.77 40.8745C11.77 40.6945 11.84 40.9745 11.83 40.8045C11.7176 40.6609 11.6141 40.5106 11.52 40.3545C11.46 40.3545 11.52 40.3545 11.43 40.3545C11.3536 40.2723 11.3077 40.1664 11.3 40.0545C11.3036 40.0118 11.2973 39.9689 11.2817 39.929C11.2661 39.8892 11.2416 39.8534 11.21 39.8245C11.14 39.7745 11.07 39.8245 11.01 39.5845H11.1C10.99 39.3445 10.95 39.4845 10.88 39.2245C10.88 39.2245 10.98 39.4045 10.97 39.3645C10.96 39.3245 10.89 39.2645 10.84 39.1445V39.0945C10.73 38.8445 10.58 38.5745 10.47 38.2945C10.47 38.2945 10.53 38.2945 10.47 38.2945C10.3967 38.109 10.3365 37.9185 10.29 37.7245C10.29 37.6245 10.29 37.5245 10.29 37.4345V37.2945V37.2445V37.1045C10.29 37.1045 10.29 37.0445 10.29 37.1045C10.29 36.9545 10.29 37.1045 10.29 37.0245C10.29 36.9445 10.29 36.9145 10.29 36.9645C10.2456 36.6327 10.2456 36.2964 10.29 35.9645V36.0245C10.29 35.8145 10.2 35.7845 10.24 35.5845C10.24 35.3545 10.24 35.1145 10.24 34.8845V34.6745C10.2433 34.6479 10.2433 34.6211 10.24 34.5945C10.2303 34.5617 10.2137 34.5313 10.1912 34.5054C10.1688 34.4796 10.1411 34.4588 10.11 34.4445C10.0788 34.4295 10.0446 34.4216 10.01 34.4216C9.97537 34.4216 9.94118 34.4295 9.91 34.4445C9.84984 34.4721 9.80309 34.5225 9.78 34.5845C9.78 34.5845 9.78 34.5845 9.78 34.6345V34.7045C9.78 34.7045 9.78 34.7045 9.78 34.7745C9.78 34.8445 9.78 35.2245 9.84 35.2545C9.79627 35.4387 9.76619 35.6259 9.75 35.8145C9.75 35.9145 9.81 35.9645 9.82 36.0845H9.72L9.77 36.2545L9.71 36.3345V36.4545C9.71 36.4045 9.71 36.3545 9.71 36.3645C9.72323 36.5138 9.70272 36.6642 9.65 36.8045V37.2245C9.64547 37.1947 9.64547 37.1643 9.65 37.1345C9.65 37.2045 9.65 37.2145 9.65 37.2245V37.3445C9.65 37.4345 9.6 37.5345 9.58 37.6145C9.49 37.9045 9.41 38.2345 9.29 38.6145C9.35 38.5045 9.39 38.5445 9.36 38.6145H9.3C9.3 38.6845 9.35 38.5245 9.3 38.6645C9.25 38.8045 9.22 38.7245 9.23 38.6645V38.8145C9.23 38.8145 9.08 39.0445 9.09 39.1545C8.95 39.4645 8.9 39.6145 8.77 39.8645C8.77 39.8645 8.77 39.9845 8.77 40.0745C8.77 40.1645 8.5 40.4245 8.37 40.6345C8.24 40.8445 8.37 40.6945 8.37 40.7745C8.37 40.8545 8.19 40.9645 8.24 40.8445C8.15 40.9645 8.1 41.0445 8.03 41.1245C7.96 41.2045 7.91 41.3045 7.79 41.4545C7.79 41.4545 7.87 41.4045 7.86 41.4545C7.85 41.5045 7.74 41.5545 7.74 41.5345C7.60201 41.7134 7.42388 41.8572 7.22 41.9545C7.02 42.0745 6.83 42.1445 6.7 42.2445L6.52 42.3645L6.37 42.4245C6.37 42.4245 6.42 42.4245 6.37 42.4245H5.84C5.6935 42.4147 5.5465 42.4147 5.4 42.4245C5.16 42.3045 4.53 42.4245 4.2 42.3545C4.11 42.3545 4.1 42.3545 4.03 42.3545C3.96 42.3545 4.13 42.3545 4.03 42.3545H3.62H3.52C3.46342 42.3931 3.42122 42.4494 3.4 42.5145C3.3854 42.5476 3.37785 42.5833 3.37785 42.6195C3.37785 42.6557 3.3854 42.6914 3.4 42.7245C3.43168 42.7853 3.48531 42.8318 3.55 42.8545H4.03H5.16C5.43 42.8545 5.31 42.7145 5.66 42.7845H5.56C5.69649 42.7746 5.83351 42.7746 5.97 42.7845H6.27H6.35L6.54 42.8345H6.73L6.92 42.8945L7.1 42.9545C7.1 42.9545 7.1 42.9545 7.02 42.9545L7.11 43.0145H7.23C7.2861 43.0258 7.3439 43.0258 7.4 43.0145C7.47 43.0145 7.4 43.0145 7.4 43.0745C7.4 43.1345 7.66 43.1745 7.69 43.2345C7.72 43.2945 7.69 43.2345 7.69 43.2345C7.74069 43.2534 7.78797 43.2804 7.83 43.3145C7.89 43.3145 7.93 43.3745 7.92 43.3145L8.03 43.4045L8.14 43.4845C8.20867 43.5272 8.26955 43.5813 8.32 43.6445C8.38212 43.6757 8.43671 43.7201 8.48 43.7745C8.54 43.8345 8.58 43.8845 8.61 43.8745C8.64 43.8645 8.61 43.9645 8.7 44.0345C8.7562 44.1109 8.82363 44.1783 8.9 44.2345C8.9 44.2345 8.9 44.3345 8.9 44.3145C8.9 44.2945 9.06 44.5245 9.08 44.4845C9.09864 44.5478 9.12553 44.6083 9.16 44.6645L9.27 44.8145C9.33746 44.8879 9.37337 44.9849 9.37 45.0845C9.46876 45.2584 9.55562 45.4388 9.63 45.6245C9.63 45.7145 9.69 45.8145 9.72 45.9045V46.0345V46.1445C9.72 46.1445 9.72 46.1445 9.72 46.0745V46.0245V45.9645C9.72 45.8745 9.72 45.7745 9.64 45.7945C9.56 45.8145 9.69 45.9545 9.72 46.0245C9.75 46.0945 9.72 46.0245 9.72 46.0245V46.1945C9.73612 46.3508 9.73612 46.5083 9.72 46.6645C9.72 46.7545 9.72 46.6045 9.72 46.5745C9.72 46.9445 9.72 47.2845 9.72 47.5745C9.72 47.5745 9.72 47.5745 9.72 47.5045C9.72 47.4345 9.72 47.6545 9.72 47.6545V47.5845C9.72 47.4845 9.82 47.8445 9.84 47.8545C9.86 47.8645 9.84 48.1745 9.7 48.0045C9.7 48.0045 9.7 48.1045 9.7 48.0945C9.7 48.0845 9.7 48.1745 9.7 48.0945C9.7 48.3245 9.76 48.2445 9.7 48.4445C9.7 48.4445 9.7 48.4445 9.7 48.3845C9.72917 48.5129 9.72917 48.6461 9.7 48.7745C9.7 48.9145 9.7 49.0445 9.7 49.1645C9.7 49.2845 9.7 49.3045 9.7 49.3745V49.9445C9.71016 49.9828 9.73096 50.0175 9.76 50.0445C9.76 50.0445 9.7 50.0445 9.76 50.0445C9.77642 50.0774 9.80517 50.1026 9.84 50.1145C9.89144 50.1346 9.94856 50.1346 10 50.1145H10.11C10.1366 50.0832 10.1539 50.0451 10.16 50.0045C10.1647 49.9848 10.1647 49.9642 10.16 49.9445V49.8245V49.9045C10.1505 49.758 10.1505 49.611 10.16 49.4645V49.5845V49.2945V49.4545C10.16 49.2945 10.08 49.4545 10.1 49.2645C10.1 49.2645 10.1 49.2045 10.1 49.1245C10.0943 49.0981 10.0943 49.0709 10.1 49.0445V49.0445C10.0834 48.9553 10.0834 48.8637 10.1 48.7745C10.1 48.7745 10.17 48.7745 10.18 48.7745C10.19 48.7745 10.18 48.4045 10.11 48.3145C10.04 48.2245 10.16 48.3145 10.16 48.3145V48.2545C10.16 48.1745 10.16 48.1645 10.16 48.1745C10.16 47.9545 10.08 48.2445 10.16 47.9845C10.1647 48.0042 10.1647 48.0248 10.16 48.0445C10.16 47.7845 10.16 47.5345 10.16 47.2945C10.22 47.2245 10.16 47.5045 10.23 47.4245C10.3 47.3445 10.23 47.0745 10.23 46.8945C10.23 46.7145 10.23 46.7145 10.23 46.6345V46.3845C10.2338 46.401 10.2338 46.4181 10.23 46.4345C10.23 46.4345 10.23 46.4345 10.23 46.3745V46.2845C10.2685 46.2089 10.2955 46.128 10.31 46.0445C10.31 46.0445 10.31 46.1145 10.31 46.0445C10.352 45.9339 10.3854 45.8202 10.41 45.7045L10.47 45.5045C10.4894 45.4287 10.5162 45.355 10.55 45.2845V45.2845C10.55 45.2245 10.63 45.1445 10.67 45.0745C10.7089 44.9987 10.7523 44.9252 10.8 44.8545C10.8 44.8545 10.8 44.7445 10.8 44.7645C10.8836 44.6946 10.9576 44.6139 11.02 44.5245L11.2 44.2645C11.3057 44.094 11.4495 43.9502 11.62 43.8445C11.62 43.8445 11.55 43.9345 11.62 43.9145L11.74 43.7845L11.86 43.6745C11.81 43.6745 11.81 43.6745 11.74 43.6745C11.7785 43.6115 11.8296 43.557 11.89 43.5145C11.78 43.6245 11.89 43.5145 11.99 43.5145C12.09 43.5145 11.99 43.5145 11.99 43.5145C12.17 43.5145 11.99 43.4445 12.19 43.3445C12.2569 43.28 12.3307 43.223 12.41 43.1745C12.46 43.1745 12.34 43.2445 12.35 43.2745C12.4045 43.2367 12.4548 43.1931 12.5 43.1445C12.5461 43.0978 12.6054 43.0664 12.67 43.0545C12.67 43.0545 12.55 43.1245 12.51 43.1645C12.5939 43.1577 12.6756 43.1339 12.75 43.0945V43.0945H12.86H12.78C12.8354 43.0627 12.8966 43.0423 12.96 43.0345H12.9C12.9524 42.9571 13.0302 42.9005 13.12 42.8745C13.2195 42.8459 13.314 42.8021 13.4 42.7445C13.21 42.8845 13.4 42.7445 13.4 42.8445C13.4 42.9445 13.54 42.8445 13.52 42.8445C13.524 42.8777 13.524 42.9113 13.52 42.9445H13.6C13.6 42.9445 13.7 42.9445 13.68 42.9445C13.82 42.9445 13.68 42.9445 13.68 42.9445C13.89 42.9445 14.19 43.0045 14.51 42.9445C14.83 42.8845 14.82 42.8745 15.03 42.8445H15.1H15.01C15.1325 42.8645 15.2575 42.8645 15.38 42.8445C15.38 42.8445 15.45 42.8445 15.59 42.8445C15.5586 42.8675 15.5251 42.8876 15.49 42.9045L15.86 42.8445C15.86 42.8445 15.9 42.8645 15.86 42.8845ZM10.52 38.3745V38.4645V38.3745ZM10.45 38.1845C10.45 38.1845 10.45 38.1145 10.45 38.0545C10.45 37.9945 10.41 38.1245 10.42 38.1845H10.45ZM11.21 44.2545L11.3 44.1545C11.3 44.1545 11.23 44.1845 11.18 44.2545H11.21ZM14.47 42.8045H14.42H14.52H14.47ZM15.47 42.8045H15.52H15.47Z" fill="white"/>
<path d="M11.45 39.9345H11.46L11.45 39.9045V39.9345Z" fill="white"/>
<g style="mix-blend-mode:multiply" opacity="0.5">
<path d="M1.52 24.8845C1.62772 24.9692 1.74134 25.046 1.86 25.1145C2.01936 25.2265 2.20123 25.3024 2.39293 25.337C2.58464 25.3715 2.78156 25.3639 2.97 25.3145C3.17075 25.2184 3.34759 25.0788 3.48769 24.9058C3.62779 24.7328 3.72764 24.5309 3.78 24.3145C4.46 22.5445 4.37 20.2145 5.99 18.9345C7.29078 17.9984 8.85752 17.5042 10.46 17.5245C13.02 17.4545 12.39 13.5245 16.61 13.6945C20.83 13.8645 22.61 16.4645 32.24 13.6945C41.87 10.9245 42.52 16.2545 44.79 15.5345C47.06 14.8145 48.46 18.6045 50.9 16.7145C53.34 14.8245 55.15 7.94452 45.09 2.08452C44.1577 1.54215 43.0986 1.25582 42.02 1.25452H21.02C19.37 1.25452 17.8 1.25452 16.66 2.47452C13.58 5.60452 10.52 8.10452 7.52 11.2245C5.69162 12.9142 3.9684 14.7142 2.36 16.6145C1.48812 17.7723 0.861984 19.0961 0.52 20.5045C0.21 21.8145 0.43 24.0045 1.52 24.8845Z" fill="#120047"/>
</g>
<path d="M52.76 9.72451C52.744 10.4837 52.5705 11.2313 52.2503 11.9199C51.9301 12.6085 51.4703 13.223 50.9 13.7245C48.46 15.6145 47.11 12.4645 44.79 13.1745C44.6549 13.2211 44.5129 13.2448 44.37 13.2445H44.16C44.0779 13.234 43.9974 13.2139 43.92 13.1845H43.77L43.52 13.0045C43.0904 12.7731 42.6791 12.509 42.29 12.2145C40.62 11.0445 38.13 9.44451 32.71 10.7045C32.34 10.7945 31.97 10.8845 31.57 11.0045L31.02 11.1545C28.9554 11.7604 26.8452 12.1985 24.71 12.4645C21.41 12.8145 19.87 11.7645 17.58 11.4645C17.249 11.4124 16.915 11.3824 16.58 11.3745C12.35 11.2445 12.98 16.3745 10.42 16.4645C8.81926 16.4455 7.25389 16.9357 5.95 17.8645C4.33 19.1545 4.42 20.8645 3.75 22.6245C3.53 23.1845 3.43 24.2245 2.65 24.2645C2.4685 24.2661 2.28844 24.2321 2.12 24.1645C2.01218 24.1118 1.91675 24.0368 1.84 23.9445C1.68 23.7745 1.69 23.4945 1.6 23.2945C1.46463 23.0732 1.29979 22.8714 1.11 22.6945C0.77294 22.2208 0.545188 21.6782 0.443162 21.1058C0.341137 20.5334 0.36738 19.9455 0.52 19.3845C0.860105 17.9754 1.48642 16.6513 2.36 15.4945C3.9684 13.5942 5.69162 11.7942 7.52 10.1045C9.41 8.16451 11.29 6.85451 13.17 4.94451C14.32 3.75451 15.46 2.56451 16.61 1.38451C17.76 0.20451 19.32 0.13451 20.97 0.13451H42.02C42.5261 0.132121 43.0304 0.195997 43.52 0.32451C43.864 0.403474 44.1991 0.5174 44.52 0.66451C44.7254 0.746384 44.9229 0.846799 45.11 0.96451L45.7 1.30451C50.91 4.49451 52.64 7.42451 52.76 9.72451Z" fill="#E0FCFB"/>
<g opacity="0.4">
<path opacity="0.4" d="M1.52 23.1545C0.986155 22.6314 0.615195 21.965 0.451935 21.2356C0.288676 20.5063 0.340102 19.7453 0.600001 19.0445C0.9921 17.6181 1.67281 16.2873 2.6 15.1345C3.54505 14.0145 4.55337 12.9494 5.62 11.9445C6.7 10.9445 7.69 9.84451 8.78 8.85451C9.87 7.86451 11.02 6.94451 12.09 5.94451C13.1594 4.92732 14.1615 3.8417 15.09 2.69451C15.5763 2.13156 16.1305 1.63108 16.74 1.20451C17.3551 0.779058 18.0485 0.479943 18.78 0.324514C20.2405 0.0830554 21.72 -0.0240591 23.2 0.00451437C29.09 0.144514 34.98 0.114514 40.88 0.0845144C41.6182 0.0529358 42.3577 0.0863983 43.09 0.184514C43.8231 0.31181 44.5275 0.569196 45.17 0.944514C46.4563 1.67512 47.6775 2.51487 48.82 3.45451C49.38 3.92451 49.91 4.45451 50.43 4.97451C50.9573 5.49528 51.4175 6.0798 51.8 6.71451C52.591 7.97339 52.9033 9.47461 52.68 10.9445H52.62C52.802 9.48563 52.4465 8.01039 51.62 6.79451C51.2357 6.1854 50.7716 5.63047 50.24 5.14451C49.71 4.63451 49.17 4.14451 48.61 3.68451C47.4578 2.79149 46.2336 1.99544 44.95 1.30451C44.3534 0.960388 43.6996 0.726649 43.02 0.614514C42.6892 0.563327 42.3547 0.539912 42.02 0.544514H40.91C35 0.684514 29.07 0.704514 23.2 0.624514C21.7633 0.603137 20.3276 0.710229 18.91 0.944514C18.2477 1.06206 17.6154 1.31021 17.05 1.67451C16.487 2.06067 15.9732 2.51401 15.52 3.02451C15.03 3.54451 14.52 4.11451 14.07 4.68451C13.5679 5.24489 13.0372 5.77894 12.48 6.28451C11.38 7.28451 10.22 8.21451 9.13 9.17451C8.04 10.1345 7.02 11.1745 5.92 12.1745C4.85791 13.16 3.8561 14.2086 2.92 15.3145C1.9689 16.4047 1.25692 17.6822 0.830001 19.0645C0.560535 19.7348 0.489851 20.4685 0.626404 21.1778C0.762957 21.8872 1.10097 22.5422 1.6 23.0645L1.52 23.1545Z" fill="#01C9C7"/>
</g>
<path opacity="0.3" d="M52.76 9.71451C52.7949 10.4817 52.644 11.246 52.3202 11.9424C51.9963 12.6388 51.5091 13.2468 50.9 13.7145C48.46 15.6045 47.11 12.4545 44.79 13.1645C44.6549 13.2111 44.5129 13.2348 44.37 13.2345H44.16C44.0779 13.224 43.9974 13.2039 43.92 13.1745H43.77L43.52 13.0045C41.68 12.0845 39.39 8.72451 31.57 11.0045L31.02 11.1545C28.4863 11.9631 25.8569 12.4339 23.2 12.5545C20.59 12.5545 19.52 11.7245 17.58 11.4445C17.249 11.3924 16.915 11.3624 16.58 11.3545C12.35 11.2245 12.98 16.3545 10.42 16.4445C8.81926 16.4255 7.2539 16.9157 5.95 17.8445C4.33 19.1345 4.42 20.8445 3.75 22.6045C3.59 23.0045 3.34 24.0545 2.94 24.1945C2.74994 24.244 2.55142 24.2518 2.35808 24.2173C2.16474 24.1827 1.98117 24.1067 1.82 23.9945C1.7 23.9245 1.59 23.2145 1.48 23.1345C1.33426 23.0105 1.20035 22.8733 1.08 22.7245C1.59 23.0045 2.22 22.6245 2.71 20.8445C3.92 16.4345 7.34 15.5945 9.88 15.5745C12.42 15.5545 11.88 11.8645 13.88 9.20451C15.88 6.54451 18.07 10.6345 27.12 7.84451C36.17 5.05451 39.76 6.26451 43.12 8.45451C46.48 10.6445 47.87 10.4545 50.12 7.85451C52.37 5.25451 43.75 0.454509 43.52 0.324509L44.52 0.664509C44.7254 0.746383 44.9229 0.846798 45.11 0.964509L45.7 1.30451C50.91 4.49451 52.64 7.42451 52.76 9.71451Z" fill="#54C6C7"/>
<g style="mix-blend-mode:multiply">
<path fill-rule="evenodd" clip-rule="evenodd" d="M34.44 62.2345L28.21 56.0845C27.017 54.8976 26.3413 53.2874 26.33 51.6045V42.8545C26.325 42.0226 26.4841 41.1978 26.7981 40.4274C27.1121 39.6569 27.5749 38.9559 28.16 38.3645L34.31 32.1445C34.8955 31.5507 35.5928 31.0787 36.3618 30.7561C37.1308 30.4334 37.9561 30.2663 38.79 30.2645L47.52 30.2145C48.352 30.2095 49.1767 30.3686 49.9472 30.6826C50.7176 30.9966 51.4186 31.4594 52.01 32.0445L58.24 38.2045C59.4324 39.3878 60.1082 40.9947 60.12 42.6745V51.4245C60.139 53.1114 59.4881 54.737 58.31 55.9445L52.15 62.1445C50.9668 63.3369 49.3598 64.0128 47.68 64.0245H38.93C37.2557 64.0442 35.6416 63.4007 34.44 62.2345V62.2345Z" fill="#9D9D9C"/>
</g>
<path fill-rule="evenodd" clip-rule="evenodd" d="M36.38 62.2245L30.16 56.0745C29.5675 55.4881 29.0964 54.7905 28.7738 54.0217C28.4512 53.253 28.2834 52.4282 28.28 51.5945L28.23 42.8445C28.2247 42.0116 28.3845 41.186 28.7004 40.4153C29.0162 39.6446 29.4817 38.9441 30.07 38.3545L36.22 32.1345C36.8038 31.5405 37.4992 31.0677 38.2664 30.7434C39.0335 30.419 39.8571 30.2495 40.69 30.2445H49.45C51.1298 30.2366 52.7443 30.8946 53.94 32.0745L60.16 38.2345C60.7527 38.8188 61.2239 39.5146 61.5465 40.2817C61.8692 41.0489 62.0369 41.8723 62.04 42.7045V51.4545C62.0591 53.1268 61.4197 54.7395 60.26 55.9445L54.1 62.1645C52.9168 63.3569 51.3098 64.0328 49.63 64.0445L40.87 64.0945C39.1856 64.0863 37.5723 63.4144 36.38 62.2245V62.2245Z" fill="#C6C6C6" stroke="#C6C6C6" stroke-width="0.2" stroke-miterlimit="10"/>
<path d="M53.09 50.5945L52.34 50.1945L52.97 50.0045C53.0172 49.993 53.0615 49.972 53.1003 49.9428C53.1392 49.9137 53.1717 49.877 53.196 49.835C53.2203 49.7929 53.2358 49.7464 53.2417 49.6982C53.2475 49.65 53.2435 49.6011 53.23 49.5545C53.2 49.464 53.1371 49.388 53.0538 49.3417C52.9704 49.2954 52.8727 49.2821 52.78 49.3045L51.41 49.6745L50.41 49.1245L51.78 48.7445C51.8275 48.7355 51.8726 48.7165 51.9122 48.6887C51.9518 48.6609 51.985 48.625 52.0096 48.5834C52.0342 48.5417 52.0497 48.4953 52.0549 48.4472C52.0602 48.3991 52.0551 48.3505 52.04 48.3045C52.0284 48.2574 52.0075 48.213 51.9783 48.1742C51.9492 48.1354 51.9125 48.1028 51.8705 48.0785C51.8284 48.0542 51.7819 48.0387 51.7337 48.0329C51.6855 48.027 51.6366 48.031 51.59 48.0445L49.52 48.6145L48.92 48.2845L48.81 48.0945C48.5374 47.6144 48.3941 47.0717 48.3941 46.5195C48.3941 45.9674 48.5374 45.4247 48.81 44.9445L48.92 44.7545L49.52 44.4145L51.6 44.9645C51.6885 44.9739 51.7774 44.951 51.8505 44.9001C51.9235 44.8493 51.9757 44.7738 51.9976 44.6875C52.0195 44.6012 52.0095 44.51 51.9695 44.4304C51.9296 44.3509 51.8623 44.2884 51.78 44.2545L50.41 43.9445L51.41 43.3845L52.78 43.7445C52.826 43.7563 52.8738 43.759 52.9208 43.7523C52.9678 43.7456 53.013 43.7298 53.0539 43.7056C53.0947 43.6815 53.1304 43.6495 53.1589 43.6116C53.1874 43.5737 53.2082 43.5305 53.22 43.4845C53.2318 43.4386 53.2345 43.3907 53.2278 43.3437C53.2211 43.2967 53.2053 43.2515 53.1811 43.2107C53.157 43.1698 53.125 43.1341 53.0871 43.1056C53.0492 43.0771 53.006 43.0563 52.96 43.0445L52.33 42.8245L53.07 42.4045C53.1184 42.3831 53.1618 42.3518 53.1974 42.3126C53.2329 42.2735 53.26 42.2273 53.2767 42.1771C53.2934 42.1269 53.2995 42.0738 53.2945 42.0211C53.2894 41.9684 53.2735 41.9174 53.2476 41.8712C53.2217 41.8251 53.1865 41.7848 53.1442 41.7531C53.1019 41.7213 53.0534 41.6988 53.0018 41.6868C52.9503 41.6749 52.8968 41.6739 52.8448 41.6838C52.7929 41.6937 52.7435 41.7144 52.7 41.7445L51.96 42.1545L52.14 41.5245C52.1602 41.4755 52.1697 41.4227 52.1677 41.3697C52.1657 41.3167 52.1524 41.2647 52.1286 41.2173C52.1047 41.1699 52.071 41.1282 52.0297 41.095C51.9883 41.0618 51.9403 41.0378 51.8889 41.0248C51.8375 41.0118 51.7838 41.0099 51.7317 41.0194C51.6795 41.0289 51.63 41.0495 51.5864 41.0799C51.5429 41.1102 51.5064 41.1495 51.4794 41.1952C51.4524 41.2408 51.4356 41.2918 51.43 41.3445L51.07 42.7145L50.07 43.2745L50.43 41.9045C50.4495 41.8107 50.4338 41.7129 50.3859 41.6299C50.3379 41.5469 50.2611 41.4845 50.17 41.4545C50.0751 41.4377 49.9772 41.4558 49.8945 41.5054C49.8119 41.555 49.7499 41.6328 49.72 41.7245L49.18 43.8045L48.59 44.1445H48.36C47.8032 44.1458 47.256 44.0005 46.7732 43.7232C46.2904 43.4458 45.8893 43.0462 45.61 42.5645L45.52 42.3645V41.6945L47.04 40.1645C47.1084 40.0953 47.1468 40.0018 47.1468 39.9045C47.1468 39.8072 47.1084 39.7138 47.04 39.6445C47.0064 39.6094 46.966 39.5815 46.9214 39.5624C46.8767 39.5433 46.8286 39.5335 46.78 39.5335C46.7314 39.5335 46.6833 39.5433 46.6387 39.5624C46.594 39.5815 46.5536 39.6094 46.52 39.6445L45.52 40.6445V39.5045L46.52 38.5045C46.5602 38.4698 46.5925 38.4268 46.6146 38.3785C46.6367 38.3302 46.6481 38.2776 46.6481 38.2245C46.6481 38.1714 46.6367 38.1189 46.6146 38.0705C46.5925 38.0222 46.5602 37.9792 46.52 37.9445C46.4864 37.9094 46.446 37.8815 46.4014 37.8624C46.3567 37.8433 46.3086 37.8335 46.26 37.8335C46.2114 37.8335 46.1633 37.8433 46.1187 37.8624C46.074 37.8815 46.0336 37.9094 46 37.9445L45.52 38.4245V37.5745C45.5229 37.5252 45.5153 37.4758 45.4978 37.4295C45.4802 37.3833 45.4531 37.3414 45.4181 37.3064C45.3831 37.2715 45.3412 37.2443 45.295 37.2267C45.2488 37.2092 45.1994 37.2016 45.15 37.2045C45.1007 37.2016 45.0513 37.2092 45.005 37.2267C44.9588 37.2443 44.9169 37.2715 44.8819 37.3064C44.847 37.3414 44.8198 37.3833 44.8022 37.4295C44.7847 37.4758 44.7771 37.5252 44.78 37.5745V38.4245L44.26 37.9445C44.1908 37.8761 44.0973 37.8378 44 37.8378C43.9027 37.8378 43.8093 37.8761 43.74 37.9445C43.7049 37.9781 43.677 38.0185 43.6579 38.0632C43.6388 38.1078 43.629 38.1559 43.629 38.2045C43.629 38.2531 43.6388 38.3012 43.6579 38.3459C43.677 38.3905 43.7049 38.4309 43.74 38.4645L44.74 39.4645V40.5845L43.74 39.5845C43.7075 39.5438 43.6668 39.5104 43.6205 39.4866C43.5743 39.4627 43.5235 39.4488 43.4715 39.4459C43.4195 39.443 43.3675 39.4511 43.3189 39.4697C43.2702 39.4883 43.226 39.5169 43.1892 39.5537C43.1524 39.5905 43.1238 39.6347 43.1052 39.6834C43.0866 39.732 43.0785 39.784 43.0814 39.836C43.0843 39.888 43.0982 39.9388 43.1221 39.9851C43.1459 40.0313 43.1793 40.072 43.22 40.1045L44.75 41.6245V42.2845L44.64 42.4745C44.3663 42.9588 43.9699 43.3626 43.4907 43.6452C43.0115 43.9278 42.4663 44.0793 41.91 44.0845H41.68L41.09 43.7545L40.56 41.6845C40.5498 41.6366 40.5296 41.5914 40.5008 41.5517C40.472 41.5121 40.4352 41.479 40.3928 41.4545C40.3504 41.43 40.3033 41.4146 40.2546 41.4095C40.2059 41.4043 40.1566 41.4094 40.11 41.4245C40.0184 41.4503 39.9403 41.5105 39.8918 41.5924C39.8434 41.6744 39.8284 41.7718 39.85 41.8645L40.23 43.2445L39.23 42.6845L38.85 41.3145C38.8375 41.2685 38.8161 41.2255 38.787 41.1878C38.7579 41.1501 38.7216 41.1185 38.6803 41.0948C38.639 41.0712 38.5934 41.0559 38.5462 41.0498C38.4989 41.0437 38.451 41.047 38.405 41.0595C38.359 41.072 38.316 41.0934 38.2783 41.1225C38.2406 41.1516 38.209 41.1879 38.1853 41.2292C38.1617 41.2705 38.1464 41.3161 38.1403 41.3633C38.1342 41.4106 38.1375 41.4586 38.15 41.5045L38.34 42.1345L37.6 41.7345C37.5112 41.6854 37.4065 41.6737 37.3089 41.7018C37.2114 41.7299 37.1291 41.7957 37.08 41.8845C37.0309 41.9734 37.0192 42.0781 37.0473 42.1756C37.0754 42.2731 37.1412 42.3554 37.23 42.4045L37.97 42.8045L37.31 42.9945C37.2621 43.0047 37.2169 43.0249 37.1772 43.0537C37.1376 43.0825 37.1045 43.1193 37.08 43.1617C37.0555 43.2041 37.0401 43.2512 37.035 43.2999C37.0298 43.3486 37.0349 43.3979 37.05 43.4445C37.0617 43.4906 37.0823 43.5339 37.1108 43.5719C37.1392 43.6099 37.175 43.642 37.2159 43.6661C37.2568 43.6903 37.302 43.7061 37.3491 43.7127C37.3962 43.7193 37.444 43.7165 37.49 43.7045L38.87 43.3245L39.87 43.8745L38.52 44.2945C38.4739 44.3062 38.4307 44.3268 38.3926 44.3553C38.3546 44.3838 38.3225 44.4195 38.2984 44.4604C38.2742 44.5013 38.2584 44.5466 38.2518 44.5936C38.2452 44.6407 38.248 44.6885 38.26 44.7345C38.2702 44.7824 38.2904 44.8277 38.3192 44.8673C38.348 44.9069 38.3848 44.94 38.4272 44.9645C38.4696 44.9891 38.5167 45.0044 38.5654 45.0095C38.6141 45.0147 38.6634 45.0096 38.71 44.9945L40.79 44.4245L41.38 44.7545L41.52 44.9445C41.7926 45.4247 41.9359 45.9674 41.9359 46.5195C41.9359 47.0717 41.7926 47.6144 41.52 48.0945L41.41 48.2845L40.82 48.6245L38.74 48.0745C38.691 48.0543 38.6382 48.0448 38.5852 48.0468C38.5322 48.0488 38.4802 48.0621 38.4328 48.086C38.3854 48.1098 38.3437 48.1435 38.3105 48.1849C38.2773 48.2262 38.2533 48.2742 38.2403 48.3256C38.2273 48.3771 38.2254 48.4307 38.2349 48.4829C38.2444 48.535 38.265 48.5846 38.2954 48.6281C38.3257 48.6716 38.365 48.7081 38.4107 48.7351C38.4563 48.7621 38.5073 48.7789 38.56 48.7845L39.93 49.1445L38.93 49.7045L37.52 49.3445C37.4275 49.3254 37.3311 49.3414 37.2498 49.3895C37.1684 49.4376 37.1079 49.5142 37.08 49.6045C37.0605 49.6984 37.0762 49.7961 37.1241 49.8791C37.1721 49.9621 37.2489 50.0246 37.34 50.0545L37.97 50.2745L37.23 50.6845C37.1425 50.7349 37.0786 50.818 37.0523 50.9155C37.0261 51.013 37.0396 51.117 37.09 51.2045C37.1404 51.292 37.2235 51.356 37.321 51.3822C37.4185 51.4085 37.5225 51.3949 37.61 51.3445L38.35 50.9345L38.17 51.5645C38.1481 51.6585 38.1628 51.7573 38.211 51.8409C38.2593 51.9245 38.3376 51.9866 38.43 52.0145C38.476 52.0265 38.5239 52.0293 38.5709 52.0227C38.618 52.0161 38.6632 52.0003 38.7041 51.9761C38.7451 51.952 38.7808 51.9199 38.8092 51.8819C38.8377 51.8439 38.8583 51.8006 38.87 51.7545L39.24 50.3745L40.24 49.8145L39.88 51.1845C39.8581 51.2785 39.8728 51.3773 39.921 51.4609C39.9693 51.5445 40.0476 51.6066 40.14 51.6345C40.2324 51.6514 40.3277 51.6344 40.4085 51.5866C40.4894 51.5389 40.5502 51.4636 40.58 51.3745L41.13 49.2845L41.72 48.9445H41.94C42.4989 48.9394 43.049 49.083 43.534 49.3606C44.0191 49.6383 44.4215 50.04 44.7 50.5245L44.81 50.7045V51.3745L43.3 52.9445C43.2593 52.977 43.2259 53.0177 43.2021 53.064C43.1782 53.1102 43.1643 53.161 43.1614 53.213C43.1585 53.265 43.1666 53.317 43.1852 53.3657C43.2038 53.4143 43.2324 53.4585 43.2692 53.4953C43.306 53.5321 43.3502 53.5607 43.3989 53.5793C43.4475 53.5979 43.4995 53.606 43.5515 53.6031C43.6035 53.6002 43.6543 53.5863 43.7005 53.5625C43.7468 53.5386 43.7875 53.5052 43.82 53.4645L44.82 52.4645V53.5745L43.82 54.5745C43.7632 54.6456 43.7347 54.7352 43.7397 54.826C43.7448 54.9169 43.7832 55.0026 43.8475 55.067C43.9119 55.1313 43.9977 55.1697 44.0885 55.1748C44.1794 55.1799 44.2689 55.1513 44.34 55.0945L44.82 54.6045V55.4645C44.8184 55.5139 44.8273 55.5632 44.8461 55.6089C44.8649 55.6546 44.8932 55.6959 44.9291 55.7299C44.965 55.7639 45.0077 55.7899 45.0544 55.8062C45.1011 55.8225 45.1507 55.8288 45.2 55.8245C45.2494 55.8274 45.2988 55.8198 45.345 55.8023C45.3912 55.7847 45.4331 55.7576 45.4681 55.7226C45.5031 55.6877 45.5302 55.6457 45.5478 55.5995C45.5653 55.5533 45.5729 55.5039 45.57 55.4545V54.6045L46.06 55.0845C46.0941 55.118 46.1346 55.1444 46.1789 55.1623C46.2233 55.1802 46.2707 55.1891 46.3185 55.1887C46.3664 55.1882 46.4136 55.1783 46.4576 55.1596C46.5016 55.1409 46.5415 55.1137 46.575 55.0795C46.6085 55.0454 46.6349 55.005 46.6528 54.9606C46.6707 54.9162 46.6796 54.8688 46.6792 54.821C46.6787 54.7732 46.6688 54.7259 46.6501 54.6819C46.6314 54.6379 46.6041 54.598 46.57 54.5645L45.57 53.5645V52.4245L46.57 53.4245C46.6041 53.458 46.6446 53.4844 46.6889 53.5023C46.7333 53.5202 46.7807 53.5291 46.8285 53.5287C46.8764 53.5282 46.9236 53.5183 46.9676 53.4996C47.0116 53.4809 47.0515 53.4537 47.085 53.4195C47.1185 53.3854 47.1449 53.345 47.1628 53.3006C47.1807 53.2562 47.1896 53.2088 47.1892 53.161C47.1887 53.1132 47.1788 53.0659 47.1601 53.0219C47.1414 52.9779 47.1142 52.938 47.08 52.9045L45.52 51.3845V50.7145L45.63 50.5245C45.9125 50.0413 46.3172 49.6409 46.8034 49.3635C47.2896 49.0862 47.8403 48.9417 48.4 48.9445H48.62L49.22 49.2745L49.79 51.3545C49.8002 51.4012 49.8201 51.4451 49.8484 51.4836C49.8767 51.522 49.9127 51.5541 49.9542 51.5777C49.9957 51.6013 50.0417 51.6158 50.0893 51.6205C50.1368 51.6251 50.1847 51.6196 50.23 51.6045C50.3216 51.5787 50.3998 51.5186 50.4482 51.4366C50.4966 51.3547 50.5116 51.2572 50.49 51.1645L50.11 49.7945L51.11 50.3445L51.49 51.7145C51.5198 51.8036 51.5807 51.8789 51.6615 51.9266C51.7423 51.9744 51.8377 51.9914 51.93 51.9745C52.0224 51.9466 52.1007 51.8845 52.149 51.8009C52.1972 51.7173 52.2119 51.6185 52.19 51.5245L52 50.8945L52.75 51.2945C52.7936 51.3206 52.842 51.3374 52.8924 51.344C52.9427 51.3505 52.9938 51.3466 53.0426 51.3326C53.0914 51.3185 53.1368 51.2945 53.1759 51.2622C53.215 51.2298 53.247 51.1898 53.27 51.1445C53.3162 51.0472 53.3233 50.9359 53.2898 50.8336C53.2563 50.7312 53.1848 50.6456 53.09 50.5945V50.5945ZM47.87 47.5945L46.52 46.8145C46.597 46.5978 46.597 46.3612 46.52 46.1445L47.89 45.3145C47.6632 46.0668 47.6562 46.8684 47.87 47.6245V47.5945ZM47.52 44.7245L46.15 45.5545C45.9858 45.4077 45.796 45.2924 45.59 45.2145V43.6245C46.1083 44.1767 46.7808 44.56 47.52 44.7245V44.7245ZM44.8 43.6245V45.2245C44.5889 45.2916 44.3969 45.4082 44.24 45.5645L42.87 44.7545C43.5947 44.5584 44.2518 44.1676 44.77 43.6245H44.8ZM42.47 45.4245L43.85 46.2345C43.8303 46.3436 43.8303 46.4554 43.85 46.5645C43.8402 46.6743 43.8402 46.7847 43.85 46.8945L42.48 47.6445C42.6917 46.9175 42.6778 46.1434 42.44 45.4245H42.47ZM42.86 48.3145L44.23 47.4945C44.3974 47.6343 44.5866 47.7458 44.79 47.8245V49.4145C44.2621 48.8591 43.5791 48.4757 42.83 48.3145H42.86ZM45.52 49.4145V47.8145C45.7275 47.751 45.9163 47.6377 46.07 47.4845L47.45 48.2945C46.7135 48.4772 46.0441 48.8657 45.52 49.4145V49.4145Z" fill="#575756"/>
<g style="mix-blend-mode:multiply">
<g style="mix-blend-mode:multiply" opacity="0.5">
<path d="M63.52 49.1945C63.52 49.5645 63.66 50.0645 63.66 50.4545C63.6781 51.0379 63.6311 51.6215 63.52 52.1945C63.3915 53.2293 62.8641 54.173 62.05 54.8245C61.52 55.1948 61.1209 55.7234 60.91 56.3345C60.68 56.9245 60.48 57.5245 60.26 58.1245C59.9342 59.3867 59.2376 60.5222 58.26 61.3845C57.9824 61.5721 57.6631 61.6889 57.33 61.7245C54.65 62.0145 53.54 63.2745 51.79 64.2545C50.47 64.9845 48.22 64.1745 47.42 63.5445C47.2597 63.4678 47.1279 63.3423 47.0434 63.186C46.959 63.0297 46.9263 62.8506 46.95 62.6745C47.87 63.2845 49.95 63.9445 51.15 63.2545C52.9 62.2545 54.01 61.0145 56.69 60.7245C59.37 60.4345 59.99 54.7945 60.98 54.1645C61.5884 53.7689 62.1146 53.2596 62.53 52.6645C62.5267 52.6413 62.5267 52.6177 62.53 52.5945C62.61 52.4845 62.68 52.3645 62.75 52.2445V52.1545C63.2178 51.3105 63.4816 50.3687 63.52 49.4045C63.52 49.3345 63.52 49.2645 63.52 49.1945Z" fill="#120047"/>
</g>
</g>
<path d="M61.97 46.9445H61.79C60.68 46.5445 60.07 47.8945 59.91 48.3345V48.4045C59.8358 48.8238 59.6616 49.219 59.4022 49.5567C59.1429 49.8944 58.8059 50.1646 58.42 50.3445C56.33 51.2545 53.24 52.9845 52.56 56.3445C52.03 59.0245 48.04 58.5445 46.68 60.1245C46.4766 60.3642 46.3326 60.6485 46.2596 60.9543C46.1866 61.2601 46.1867 61.5788 46.26 61.8845C46.2742 62.0297 46.3247 62.169 46.4068 62.2896C46.489 62.4101 46.6001 62.5081 46.73 62.5745L46.9 62.6945C47.82 63.3045 49.9 63.9645 51.1 63.2745C52.85 62.2745 53.96 61.0345 56.64 60.7445C59.32 60.4545 59.94 54.8145 60.93 54.1845C61.5384 53.7889 62.0646 53.2796 62.48 52.6845C62.4767 52.6613 62.4767 52.6377 62.48 52.6145C62.56 52.5045 62.63 52.3845 62.7 52.2645V52.1745C63.1883 51.3289 63.4693 50.3797 63.52 49.4045C63.5041 48.8936 63.3521 48.3962 63.0796 47.9637C62.8071 47.5312 62.424 47.1794 61.97 46.9445V46.9445Z" fill="#E0FCFB"/>
<g style="mix-blend-mode:multiply" opacity="0.5">
<path d="M57.9 47.8745C57.9 47.8745 58.9 47.7445 58.56 48.8045C58.22 49.8645 56.06 48.2845 57.9 47.8745Z" fill="#120047"/>
</g>
<path d="M57.68 47.1545C57.68 47.1545 58.68 47.0345 58.34 48.0945C58 49.1545 55.84 47.5745 57.68 47.1545Z" fill="white"/>
<path opacity="0.3" d="M61.97 46.9445H61.79C65.23 52.4045 58.74 51.0545 58.42 55.5045C58.08 60.3845 52.01 59.7445 50.18 61.5645C48.35 63.3845 46.18 61.8945 46.64 60.1545C46.4366 60.3942 46.2926 60.6785 46.2196 60.9843C46.1466 61.2901 46.1468 61.6088 46.22 61.9145C46.2342 62.0597 46.2847 62.199 46.3668 62.3196C46.449 62.4402 46.5601 62.5381 46.69 62.6045L46.86 62.7245C47.78 63.3345 49.86 63.9945 51.06 63.3045C52.81 62.3045 53.92 61.0645 56.6 60.7745C59.28 60.4845 59.9 54.8445 60.89 54.2145C61.4984 53.8189 62.0246 53.3096 62.44 52.7145C62.4367 52.6913 62.4367 52.6677 62.44 52.6445C62.52 52.5345 62.59 52.4145 62.66 52.2945V52.2045C63.1669 51.3536 63.4619 50.3933 63.52 49.4045C63.5041 48.8936 63.3521 48.3962 63.0796 47.9637C62.8071 47.5312 62.424 47.1794 61.97 46.9445V46.9445Z" fill="#54C6C7"/>
<rect x="40" width="24" height="24" rx="12" fill="#F05E5E"/>
<path fill-rule="evenodd" clip-rule="evenodd" d="M55.75 10.5H56.5C57.328 10.5 58 11.1712 58 12V18C58 18.8288 57.328 19.5 56.5 19.5H47.5C46.6713 19.5 46 18.8288 46 18V12C46 11.1712 46.6713 10.5 47.5 10.5H48.25V8.25C48.25 6.18225 49.9323 4.5 52 4.5C54.0677 4.5 55.75 6.18225 55.75 8.25V10.5ZM50.5 8.24997C50.5 7.42122 51.1712 6.74997 52 6.74997C52.828 6.74997 53.5 7.42122 53.5 8.24997V10.5H50.5V8.24997ZM53 15.5357C53 16.1277 52.552 16.6071 52 16.6071C51.4475 16.6071 51 16.1277 51 15.5357V14.4643C51 13.8729 51.4475 13.3929 52 13.3929C52.552 13.3929 53 13.8729 53 14.4643V15.5357Z" fill="white"/>
</svg>
