
<?xml version="1.0" encoding="utf-8"?>
<!-- Generator: Adobe Illustrator 25.3.1, SVG Export Plug-In . SVG Version: 6.00 Build 0)  -->
<svg version="1.1" id="Layer_1" xmlns="http://www.w3.org/2000/svg" xmlns:xlink="http://www.w3.org/1999/xlink" x="0px" y="0px"
	 viewBox="0 0 94.13 91.08" style="enable-background:new 0 0 94.13 91.08;" xml:space="preserve">
<style type="text/css">
	.st0{fill-rule:evenodd;clip-rule:evenodd;fill:#D3DDDC;}
	.st1{fill:#575756;}
	.st2{fill:#00A7BE;}
	.st3{fill:#01C9C7;}
	.st4{fill:#FFFFFF;}
	.st5{opacity:0.4;clip-path:url(#SVGID_2_);}
	.st6{fill:none;stroke:#FFFFFF;stroke-width:13.1881;stroke-miterlimit:10;}
	.st7{fill:none;stroke:#FFFFFF;stroke-width:7.1935;stroke-miterlimit:10;}
	.st8{fill:none;stroke:#FFFFFF;stroke-width:2.9973;stroke-miterlimit:10;}
	.st9{opacity:0.3;}
	.st10{fill:#A199DB;}
	.st11{fill:#ABA4DF;}
	.st12{opacity:0.6;}
	.st13{fill:#6C68BA;}
	.st14{opacity:0.5;enable-background:new    ;}
	.st15{opacity:0.3;enable-background:new    ;}
	.st16{opacity:0.4;clip-path:url(#SVGID_6_);}
	.st17{opacity:0.4;}
	.st18{opacity:0.4;clip-path:url(#SVGID_10_);}
	.st19{fill:#E5B428;}
	.st20{fill:#E8BC3F;}
	.st21{opacity:0.5;}
	.st22{fill:#C6910E;}
	.st23{opacity:0.2;}
	.st24{opacity:0.4;clip-path:url(#SVGID_14_);}
	.st25{fill:none;stroke:#00A7BE;stroke-width:0.75;stroke-miterlimit:10;}
	.st26{fill:#C6910E;stroke:#C6910E;stroke-miterlimit:10;}
	.st27{opacity:0.2;clip-path:url(#SVGID_18_);}
	.st28{clip-path:url(#SVGID_20_);}
	.st29{fill:#7C5806;}
	.st30{fill:#FFC800;}
	.st31{clip-path:url(#SVGID_24_);}
	.st32{fill:#FFE9A4;}
	.st33{opacity:0.5;fill:#120047;}
	.st34{fill:#E0FCFB;}
	.st35{opacity:0.3;fill:#54C6C7;}
	.st36{fill:#9D9D9C;stroke:#9D9D9C;stroke-miterlimit:10;}
	.st37{opacity:0.2;clip-path:url(#SVGID_26_);}
	.st38{clip-path:url(#SVGID_28_);}
	.st39{fill:#C6C6C6;stroke:#C6C6C6;stroke-width:0.25;stroke-miterlimit:10;}
	.st40{clip-path:url(#SVGID_32_);}
	.st41{fill:#EDEDED;}
	.st42{fill:#120047;}
	.st43{fill:#14CEC8;}
	.st44{clip-path:url(#SVGID_36_);}
	.st45{fill:#97F7F2;}
	.st46{fill:#F17D8A;}
	.st47{fill:#F28C97;}
	.st48{clip-path:url(#SVGID_40_);}
	.st49{fill:#591DA0;}
	.st50{fill:none;stroke:#5E24A3;stroke-width:0.1871;stroke-miterlimit:10;}
	.st51{opacity:0.4;fill:#F17D8A;stroke:#F17D8A;stroke-width:0.455;stroke-miterlimit:10;}
	.st52{clip-path:url(#SVGID_42_);}
	.st53{clip-path:url(#SVGID_46_);}
	.st54{fill-rule:evenodd;clip-rule:evenodd;fill:#FCC242;}
	.st55{fill:#965C30;}
	.st56{fill:#9D9D9C;stroke:#9D9D9C;stroke-width:0.8666;stroke-miterlimit:10;}
	.st57{opacity:0.2;clip-path:url(#SVGID_48_);}
	.st58{clip-path:url(#SVGID_50_);}
	.st59{fill:#C6C6C6;stroke:#C6C6C6;stroke-width:0.2167;stroke-miterlimit:10;}
	.st60{clip-path:url(#SVGID_54_);}
	.st61{fill:#9D9D9C;}
	.st62{fill:#B2B2B2;}
	.st63{fill:#C6910E;stroke:#C6910E;stroke-width:0.8666;stroke-miterlimit:10;}
	.st64{opacity:0.2;clip-path:url(#SVGID_56_);}
	.st65{clip-path:url(#SVGID_58_);}
	.st66{clip-path:url(#SVGID_62_);}
	.st67{clip-path:url(#SVGID_64_);}
	.st68{clip-path:url(#SVGID_66_);}
	.st69{fill:#FA7581;}
	.st70{fill:#FBC342;}
	.st71{fill:#28C8C4;}
	.st72{fill:#4400B3;}
	.st73{fill-rule:evenodd;clip-rule:evenodd;fill:#FFC800;}
	.st74{fill:#EF8715;}
	.st75{fill-rule:evenodd;clip-rule:evenodd;fill:#F17D8A;}
	.st76{fill-rule:evenodd;clip-rule:evenodd;fill:#01C9C7;}
	.st77{fill:#0B546D;stroke:#0B546D;stroke-width:0.25;stroke-miterlimit:10;}
	.st78{fill:#9D9D9C;stroke:#9D9D9C;stroke-width:0.7501;stroke-miterlimit:10;}
	.st79{opacity:0.2;clip-path:url(#SVGID_68_);}
	.st80{clip-path:url(#SVGID_70_);}
	.st81{fill:#C6C6C6;stroke:#C6C6C6;stroke-width:0.1875;stroke-miterlimit:10;}
	.st82{clip-path:url(#SVGID_74_);}
	.st83{fill:#C6910E;stroke:#C6910E;stroke-width:0.7501;stroke-miterlimit:10;}
	.st84{opacity:0.2;clip-path:url(#SVGID_76_);}
	.st85{clip-path:url(#SVGID_78_);}
	.st86{clip-path:url(#SVGID_82_);}
	.st87{fill:#9D9D9C;stroke:#9D9D9C;stroke-width:0.8199;stroke-miterlimit:10;}
	.st88{opacity:0.2;clip-path:url(#SVGID_84_);}
	.st89{clip-path:url(#SVGID_86_);}
	.st90{fill:#C6C6C6;stroke:#C6C6C6;stroke-width:0.205;stroke-miterlimit:10;}
	.st91{clip-path:url(#SVGID_90_);}
	.st92{fill:#C6910E;stroke:#C6910E;stroke-width:0.8199;stroke-miterlimit:10;}
	.st93{opacity:0.2;clip-path:url(#SVGID_92_);}
	.st94{clip-path:url(#SVGID_94_);}
	.st95{clip-path:url(#SVGID_98_);}
	.st96{fill-rule:evenodd;clip-rule:evenodd;fill:#9D9D9C;}
	.st97{fill-rule:evenodd;clip-rule:evenodd;fill:#C6C6C6;stroke:#C6C6C6;stroke-width:0.205;stroke-miterlimit:10;}
</style>
<g>
	<g>
		<g>
			<g>
				<g>
					<g>
						<defs>
							<circle id="SVGID_45_" cx="-66.33" cy="44.39" r="21.82"/>
						</defs>
						<clipPath id="SVGID_2_">
							<use xlink:href="#SVGID_45_"  style="overflow:visible;"/>
						</clipPath>
						<g style="clip-path:url(#SVGID_2_);">
							<g>
								<g>
									<g>
										<g>
											<g>
												<path class="st49" d="M3.75,54.73c0.19-0.33-0.1,0.09-0.39,0.44L3.75,54.73z"/>
												<path class="st49" d="M3.36,55.18l-0.27,0.31C3.16,55.41,3.26,55.3,3.36,55.18z"/>
												<path class="st49" d="M0.76,58.03c0.59-0.67,1.33-1.42,1.64-1.89C1.77,56.79,0.86,57.82,0.76,58.03z"/>
												<path class="st49" d="M1.71,57.09l0.04-0.11c-0.16,0.21-0.31,0.42-0.47,0.62C1.42,57.44,1.56,57.26,1.71,57.09z"/>
												<path class="st49" d="M2.11,56.7l-0.09,0.07c-0.26,0.31-0.51,0.63-0.79,0.93C1.54,57.39,1.81,57.04,2.11,56.7z"/>
												<path class="st49" d="M-1.4,60.13c0.22-0.2,0.42-0.42,0.64-0.62c0.64-0.54-0.34,0.44,0.09,0.08
													c0.79-0.78,0.2-0.34,1.18-1.33c-0.1,0.06-1.58,1.57-1.48,1.35C-1.84,60.39-0.98,59.69-1.4,60.13z"/>
											</g>
										</g>
									</g>
								</g>
							</g>
							<g>
								<g>
									<g>
										<g>
											<g>
												<path class="st49" d="M0.79,79.39c0.18-0.22-0.09,0.04-0.36,0.25L0.79,79.39z"/>
												<path class="st49" d="M0.44,79.63l-0.25,0.17C0.26,79.77,0.34,79.7,0.44,79.63z"/>
											</g>
										</g>
									</g>
								</g>
							</g>
						</g>
					</g>
				</g>
			</g>
		</g>
	</g>
</g>
<path class="st54" d="M23.4,85.73L6.88,69.2c-3.18-3.17-4.96-7.48-4.96-11.97V33.85c0-4.49,1.78-8.8,4.96-11.97L23.4,5.35
	c3.18-3.17,7.48-4.96,11.97-4.96h23.38c4.49,0,8.8,1.78,11.97,4.96l16.53,16.53c3.17,3.18,4.96,7.48,4.96,11.97v23.38
	c0,4.49-1.78,8.8-4.96,11.97L70.72,85.73c-3.17,3.17-7.48,4.96-11.97,4.96H35.38C30.89,90.69,26.58,88.9,23.4,85.73z"/>
<g>
	<path class="st55" d="M71.05,56.12l-2.25-1.24l1.91-0.56c0.56-0.11,1.01-0.79,0.79-1.35c-0.11-0.56-0.79-0.9-1.35-0.79l-4.17,1.13
		l-2.93-1.69l4.17-1.13c0.56-0.11,1.01-0.79,0.79-1.35c-0.11-0.56-0.79-1.01-1.35-0.79l-6.31,1.69l-1.8-1.01l-0.34-0.56
		c-1.69-2.93-1.69-6.65,0-9.57l0.34-0.56l1.8-1.01L66.66,39c0.56,0.11,1.24-0.23,1.35-0.79c0.11-0.56-0.23-1.24-0.79-1.35
		l-4.17-1.13l2.93-1.69l4.17,1.13c0.56,0.11,1.24-0.23,1.35-0.79s-0.23-1.24-0.79-1.35l-1.91-0.68l2.25-1.24
		c0.56-0.34,0.68-1.01,0.45-1.58c-0.34-0.56-1.01-0.68-1.58-0.45l-2.25,1.24l0.56-1.91c0.11-0.56-0.23-1.24-0.79-1.35
		c-0.56-0.11-1.24,0.23-1.35,0.79l-1.13,4.17l-2.93,1.69l1.13-4.17c0.11-0.56-0.23-1.24-0.79-1.35s-1.24,0.23-1.35,0.79l-1.69,6.31
		l-1.8,1.01h-0.68c-3.38,0-6.65-1.8-8.33-4.84L48.19,31v-2.03l4.62-4.62c0.45-0.45,0.45-1.13,0-1.58c-0.45-0.45-1.13-0.45-1.58,0
		l-3.04,2.93v-3.38l3.04-3.04c0.45-0.45,0.45-1.13,0-1.58c-0.45-0.45-1.13-0.45-1.58,0l-1.46,1.46v-2.59c0-0.68-0.45-1.13-1.13-1.13
		s-1.13,0.45-1.13,1.13v2.59l-1.46-1.46c-0.45-0.45-1.13-0.45-1.58,0s-0.45,1.13,0,1.58l3.04,3.04v3.38l-3.04-3.04
		c-0.45-0.45-1.13-0.45-1.58,0c-0.45,0.45-0.45,1.13,0,1.58l4.62,4.62v2.03l-0.34,0.56c-1.69,2.93-4.84,4.84-8.33,4.84h-0.68
		l-1.8-1.01l-1.58-6.31c-0.11-0.56-0.79-1.01-1.35-0.79c-0.56,0.11-0.9,0.79-0.79,1.35l1.13,4.17l-2.93-1.69l-1.13-4.17
		c-0.11-0.56-0.79-0.9-1.35-0.79c-0.56,0.11-0.9,0.79-0.79,1.35l0.56,1.91l-2.25-1.24c-0.56-0.34-1.24-0.11-1.58,0.45
		s-0.11,1.24,0.45,1.58l2.25,1.24l-2.03,0.56c-0.56,0.11-1.01,0.79-0.79,1.35c0.11,0.56,0.79,1.01,1.35,0.79l4.17-1.13l2.93,1.69
		l-4.17,1.13c-0.56,0.11-1.01,0.79-0.79,1.35c0.11,0.56,0.79,1.01,1.35,0.79l6.31-1.69l1.8,1.01l0.34,0.56
		c1.69,2.93,1.69,6.65,0,9.57l-0.34,0.56l-1.8,1.01l-6.31-1.69c-0.56-0.11-1.24,0.23-1.35,0.79c-0.11,0.56,0.23,1.24,0.79,1.35
		l4.17,1.13l-2.93,1.69l-4.17-1.13c-0.56-0.11-1.24,0.23-1.35,0.79s0.23,1.24,0.79,1.35l1.91,0.68l-2.25,1.24
		c-0.56,0.34-0.68,1.01-0.45,1.58c0.34,0.56,1.01,0.68,1.58,0.45l2.25-1.24l-0.56,1.91c-0.11,0.56,0.23,1.24,0.79,1.35
		c0.68,0.11,1.24-0.23,1.35-0.79l1.13-4.17l2.93-1.69l-1.13,4.17c-0.11,0.56,0.23,1.24,0.79,1.35c0.56,0.11,1.24-0.23,1.35-0.79
		l1.69-6.31l1.8-1.01h0.68c3.38,0,6.65,1.8,8.33,4.84l0.34,0.56v2.03l-4.62,4.62c-0.45,0.45-0.45,1.13,0,1.58
		c0.45,0.45,1.13,0.45,1.58,0l3.04-3.04v3.38l-3.04,3.04c-0.45,0.45-0.45,1.13,0,1.58c0.45,0.45,1.13,0.45,1.58,0l1.46-1.46v2.59
		c0,0.68,0.45,1.13,1.13,1.13c0.68,0,1.13-0.45,1.13-1.13v-2.59l1.46,1.46c0.45,0.45,1.13,0.45,1.58,0c0.45-0.45,0.45-1.13,0-1.58
		l-3.04-3.04v-3.38l3.04,3.04c0.45,0.45,1.13,0.45,1.58,0c0.45-0.45,0.45-1.13,0-1.58l-4.62-4.62v-2.03l0.34-0.56
		c1.69-2.93,4.84-4.84,8.33-4.84h0.68l1.8,1.01l1.69,6.31c0.11,0.56,0.79,1.01,1.35,0.79c0.56-0.11,0.9-0.79,0.79-1.35l-1.13-4.17
		l2.93,1.69l1.13,4.17c0.11,0.56,0.79,0.9,1.35,0.79c0.56-0.11,0.9-0.79,0.79-1.35l-0.56-1.91l2.25,1.24
		c0.56,0.34,1.24,0.11,1.58-0.45C71.73,57.13,71.62,56.46,71.05,56.12z M55.29,47l-4.17-2.48c0.23-0.68,0.23-1.24,0-2.03l4.17-2.48
		C54.61,42.38,54.61,44.86,55.29,47z M54.16,38.21l-4.17,2.48c-0.45-0.45-1.13-0.79-1.69-1.01v-4.84
		C49.77,36.52,51.91,37.65,54.16,38.21z M45.94,34.83v4.84c-0.68,0.23-1.24,0.56-1.69,1.01l-4.17-2.48
		C42.22,37.65,44.36,36.52,45.94,34.83z M38.84,40.24l4.17,2.48c-0.11,0.34-0.11,0.68-0.11,1.01c0,0.34,0,0.68,0.11,1.01L38.84,47
		C39.52,44.86,39.52,42.38,38.84,40.24z M39.97,49.03l4.17-2.48c0.45,0.45,1.13,0.79,1.69,1.01v4.84
		C44.36,50.71,42.22,49.59,39.97,49.03z M48.19,52.4v-4.84c0.68-0.23,1.24-0.56,1.69-1.01l4.17,2.48
		C51.91,49.59,49.77,50.71,48.19,52.4z"/>
</g>
</svg>
