<svg width="24" height="24" viewBox="0 0 24 24" fill="none" xmlns="http://www.w3.org/2000/svg" style="position:absolute;top:-6px;right:-6px;">
    <rect width="24" height="24" rx="12" fill="#F05E5E"/>
    <path d="M8.47121 7.29441C8.73865 7.36607 9.0335 7.3354 9.29181 7.18623C10.3965 6.54843 11.662 6.35119 12.9037 6.56413L12.575 6.75483C12.0584 7.0531 11.8812 7.71435 12.1792 8.23199C12.3283 8.49026 12.5683 8.66431 12.8357 8.73597C13.1032 8.80763 13.398 8.7769 13.6563 8.62779L16.3055 7.09831C16.8234 6.79929 17.0006 6.13798 16.7013 5.62115L15.1718 2.97194C14.8738 2.4543 14.2126 2.27711 13.6946 2.57613C13.178 2.87441 13.0009 3.53566 13.2988 4.05329L13.5374 4.46659C11.713 4.08412 9.83704 4.37417 8.21045 5.31327C7.69254 5.61228 7.51563 6.27251 7.81465 6.79043C7.96376 7.04876 8.20378 7.22275 8.47121 7.29441Z" fill="white"/>
    <path d="M11.0867 17.1747C12.3293 17.3889 13.5937 17.1914 14.6997 16.5528C15.2176 16.2538 15.8779 16.4307 16.1769 16.9487C16.4759 17.4666 16.2987 18.1278 15.7811 18.4258C14.1545 19.3649 12.2799 19.6542 10.4572 19.2733L10.6943 19.684C10.9923 20.2016 10.8151 20.8628 10.2985 21.1611C10.0399 21.3113 9.74532 21.341 9.47788 21.2693C9.21045 21.1976 8.97016 21.0247 8.82132 20.7653L7.29182 18.1161C6.99252 17.5993 7.16971 16.938 7.68763 16.6389L10.3368 15.1095C10.8534 14.8112 11.5147 14.9884 11.814 15.5053C12.1119 16.0229 11.9348 16.6841 11.4182 16.9824L11.0867 17.1747Z" fill="white"/>
</svg>
