<svg viewBox="0 0 48 48" fill="none" xmlns="http://www.w3.org/2000/svg">
<path d="M22.2629 19.782C19.9157 17.406 16.0785 17.406 13.7314 19.782C11.4229 22.1189 11.4229 25.8811 13.7314 28.218C16.0785 30.594 19.9157 30.594 22.2629 28.218L28.2658 22.1413C29.2334 21.1618 30.7724 21.1618 31.74 22.1413C32.7462 23.1599 32.7462 24.8401 31.74 25.8587C30.7724 26.8382 29.2334 26.8382 28.2658 25.8587C27.5954 25.1801 26.4859 25.1581 25.7876 25.8096C25.0894 26.4611 25.0667 27.5394 25.7371 28.218C28.0843 30.594 31.9215 30.594 34.2686 28.218C36.5771 25.8811 36.5771 22.1189 34.2686 19.782C31.9215 17.406 28.0843 17.406 25.7371 19.782L19.7342 25.8587C18.7666 26.8382 17.2276 26.8382 16.26 25.8587C15.2538 24.8401 15.2538 23.1599 16.26 22.1413C17.2276 21.1618 18.7666 21.1618 19.7342 22.1413C20.4046 22.8199 21.5141 22.8419 22.2124 22.1904C22.9106 21.5389 22.9333 20.4606 22.2629 19.782Z" fill="currentColor"/>
</svg>
