<svg width="24" height="24" viewBox="0 0 24 24" fill="none" xmlns="http://www.w3.org/2000/svg" style="position:absolute;top:-6px;right:-6px;">
    <rect width="24" height="24" rx="12" fill="#F05E5E"/>
    <path fill-rule="evenodd" clip-rule="evenodd" d="M15.75 10.5H16.5C17.328 10.5 18 11.1712 18 12V18C18 18.8288 17.328 19.5 16.5 19.5H7.5C6.67125 19.5 6 18.8288 6 18V12C6 11.1712 6.67125 10.5 7.5 10.5H8.25V8.25C8.25 6.18225 9.93225 4.5 12 4.5C14.0677 4.5 15.75 6.18225 15.75 8.25V10.5ZM10.5 8.24997C10.5 7.42122 11.1712 6.74997 12 6.74997C12.828 6.74997 13.5 7.42122 13.5 8.24997V10.5H10.5V8.24997ZM13 15.5357C13 16.1277 12.552 16.6071 12 16.6071C11.4475 16.6071 11 16.1277 11 15.5357V14.4643C11 13.8729 11.4475 13.3929 12 13.3929C12.552 13.3929 13 13.8729 13 14.4643V15.5357Z" fill="white"/>
</svg>
