<svg width="32" height="36" viewBox="0 0 32 36" fill="none" xmlns="http://www.w3.org/2000/svg">
<path d="M30.98 25.8445L29.57 25.0745L30.77 24.7245C30.8597 24.7039 30.9442 24.6649 31.0182 24.6102C31.0922 24.5554 31.1541 24.486 31.2001 24.4062C31.2461 24.3265 31.2751 24.2381 31.2854 24.1466C31.2957 24.0551 31.2871 23.9625 31.26 23.8745C31.2066 23.7026 31.0907 23.557 30.9352 23.4663C30.7797 23.3756 30.5959 23.3464 30.42 23.3845L27.82 24.0845L25.99 23.0845L28.59 22.3845C28.7677 22.3381 28.9197 22.223 29.0125 22.0645C29.1053 21.9061 29.1314 21.7172 29.085 21.5395C29.0386 21.3618 28.9235 21.2098 28.765 21.117C28.6066 21.0242 28.4177 20.9981 28.24 21.0445L24.3 22.1045L23.18 21.4645L22.97 21.1145C22.4434 20.2024 22.1662 19.1677 22.1662 18.1145C22.1662 17.0613 22.4434 16.0266 22.97 15.1145L23.18 14.7645L24.3 14.1345L28.24 15.1345C28.4159 15.1726 28.5997 15.1435 28.7552 15.0528C28.9107 14.9621 29.0266 14.8164 29.08 14.6445C29.1185 14.4673 29.0897 14.2821 28.9991 14.1249C28.9085 13.9678 28.7627 13.85 28.59 13.7945L25.99 13.0945L27.82 12.0445L30.42 12.7445C30.5959 12.7826 30.7797 12.7535 30.9352 12.6628C31.0907 12.5721 31.2066 12.4264 31.26 12.2545C31.2962 12.0774 31.2664 11.8932 31.1761 11.7366C31.0858 11.5801 30.9414 11.4619 30.77 11.4045L29.57 10.9845L30.98 10.2145C31.1413 10.1113 31.259 9.9523 31.3106 9.76789C31.3622 9.58347 31.3442 9.38651 31.26 9.21452C31.1616 9.04784 31.0027 8.92564 30.8163 8.87345C30.6299 8.82127 30.4306 8.84315 30.26 8.93452L28.85 9.70452L29.2 8.50452C29.2301 8.33402 29.195 8.15845 29.1016 8.01263C29.0083 7.86682 28.8635 7.76143 28.6961 7.71737C28.5287 7.67331 28.3508 7.6938 28.1978 7.77478C28.0447 7.85576 27.9277 7.9913 27.87 8.15452L27.16 10.7545L25.34 11.8145L26.04 9.21452C26.0859 9.11999 26.1096 9.01624 26.1093 8.91116C26.109 8.80609 26.0847 8.70247 26.0382 8.60821C25.9918 8.51396 25.9245 8.43155 25.8413 8.36728C25.7582 8.30301 25.6615 8.25858 25.5586 8.23737C25.4557 8.21616 25.3493 8.21873 25.2475 8.24489C25.1457 8.27105 25.0513 8.32011 24.9714 8.38832C24.8914 8.45653 24.8281 8.5421 24.7863 8.63849C24.7445 8.73488 24.7252 8.83955 24.73 8.94452L23.67 12.8445L22.52 13.4745H22.12C21.0661 13.4752 20.0307 13.1983 19.1178 12.6716C18.205 12.145 17.4469 11.3872 16.92 10.4745L16.71 10.1945V8.94452L19.6 6.06452C19.6691 6.00084 19.7242 5.92353 19.7619 5.83747C19.7997 5.75142 19.8191 5.65848 19.8191 5.56452C19.8191 5.47056 19.7997 5.37762 19.7619 5.29156C19.7242 5.2055 19.6691 5.1282 19.6 5.06452C19.5355 4.99674 19.458 4.94278 19.372 4.90591C19.2861 4.86903 19.1935 4.85002 19.1 4.85002C19.0065 4.85002 18.9139 4.86903 18.828 4.90591C18.742 4.94278 18.6645 4.99674 18.6 5.06452L16.7 6.89452V4.76452L18.6 2.86452C18.6657 2.79886 18.7177 2.72091 18.7533 2.63512C18.7888 2.54933 18.8071 2.45738 18.8071 2.36452C18.8071 2.27166 18.7888 2.17971 18.7533 2.09392C18.7177 2.00813 18.6657 1.93018 18.6 1.86452C18.5343 1.79886 18.4564 1.74677 18.3706 1.71124C18.2848 1.6757 18.1929 1.65741 18.1 1.65741C18.0071 1.65741 17.9152 1.6757 17.8294 1.71124C17.7436 1.74677 17.6657 1.79886 17.6 1.86452L16.68 2.77452V1.17452C16.68 0.988866 16.6063 0.810819 16.475 0.679543C16.3437 0.548268 16.1657 0.474518 15.98 0.474518C15.7943 0.474518 15.6163 0.548268 15.485 0.679543C15.3538 0.810819 15.28 0.988866 15.28 1.17452V2.79452L14.36 1.88452C14.2274 1.75191 14.0475 1.67741 13.86 1.67741C13.6725 1.67741 13.4926 1.75191 13.36 1.88452C13.2274 2.01713 13.1529 2.19698 13.1529 2.38452C13.1529 2.57206 13.2274 2.75191 13.36 2.88452L15.26 4.78452V6.89452L13.41 4.94452C13.2774 4.81191 13.0975 4.73741 12.91 4.73741C12.7225 4.73741 12.5426 4.81191 12.41 4.94452C12.2774 5.07713 12.2029 5.25698 12.2029 5.44452C12.2029 5.63205 12.2774 5.81191 12.41 5.94452L15.29 8.82452V10.0945L15.08 10.4445C14.5531 11.3572 13.795 12.115 12.8822 12.6416C11.9693 13.1683 10.9339 13.4452 9.88 13.4445H9.52L8.39 12.8145L7.39 8.87452C7.36934 8.78481 7.33042 8.70032 7.27565 8.62632C7.22089 8.55231 7.15146 8.49039 7.07171 8.44442C6.99195 8.39844 6.90357 8.36939 6.81209 8.35909C6.72061 8.34878 6.62799 8.35744 6.54 8.38452C6.36733 8.44001 6.2215 8.5578 6.13091 8.71493C6.04033 8.87206 6.01149 9.05728 6.05 9.23452L6.75 11.8345L4.93 10.7745L4.22 8.17452C4.20343 8.08055 4.16754 7.99104 4.11461 7.91165C4.06169 7.83226 3.99287 7.76471 3.91251 7.71326C3.83215 7.66182 3.74199 7.6276 3.64773 7.61277C3.55348 7.59794 3.45717 7.60282 3.36489 7.6271C3.27262 7.65139 3.18638 7.69454 3.11163 7.75385C3.03689 7.81316 2.97525 7.88732 2.93062 7.97166C2.88599 8.05599 2.85934 8.14867 2.85235 8.24383C2.84536 8.33899 2.85818 8.43456 2.89 8.52452L3.24 9.72452L1.82 8.94452C1.73727 8.8979 1.64616 8.86803 1.55189 8.85662C1.45761 8.84521 1.36201 8.85248 1.27055 8.87802C1.17908 8.90355 1.09354 8.94686 1.01881 9.00545C0.944078 9.06404 0.88162 9.13678 0.835001 9.21952C0.788382 9.30225 0.758515 9.39336 0.747105 9.48763C0.735695 9.58191 0.742963 9.67751 0.7685 9.76897C0.794036 9.86044 0.837339 9.94598 0.895933 10.0207C0.954528 10.0954 1.02727 10.1579 1.11 10.2045L2.52 10.9745L1.25 11.3245C1.16029 11.3452 1.0758 11.3841 1.0018 11.4389C0.927797 11.4936 0.865876 11.5631 0.819899 11.6428C0.773921 11.7226 0.744873 11.8109 0.734568 11.9024C0.724262 11.9939 0.73292 12.0865 0.76 12.1745C0.779463 12.2639 0.817275 12.3482 0.871039 12.4221C0.924802 12.4961 0.993344 12.558 1.07232 12.6041C1.15129 12.6502 1.23898 12.6793 1.32982 12.6897C1.42065 12.7001 1.51266 12.6915 1.6 12.6645L4.2 11.9645L6.03 13.0145L3.43 13.7145C3.34029 13.7352 3.2558 13.7741 3.1818 13.8289C3.1078 13.8836 3.04588 13.9531 2.9999 14.0328C2.95392 14.1126 2.92487 14.2009 2.91457 14.2924C2.90426 14.3839 2.91292 14.4765 2.94 14.5645C2.95946 14.6539 2.99728 14.7382 3.05104 14.8121C3.1048 14.8861 3.17334 14.948 3.25232 14.9941C3.33129 15.0402 3.41898 15.0693 3.50982 15.0797C3.60065 15.0901 3.69266 15.0815 3.78 15.0545L7.72 14.0545L8.84 14.6845L9.05 15.0345C9.57661 15.9466 9.85385 16.9813 9.85385 18.0345C9.85385 19.0877 9.57661 20.1224 9.05 21.0345L8.84 21.3845L7.72 21.9445L3.78 20.9445C3.69202 20.9215 3.60036 20.9161 3.51028 20.9286C3.4202 20.941 3.33345 20.971 3.25498 21.017C3.17652 21.063 3.10787 21.1239 3.05297 21.1964C2.99807 21.2689 2.95798 21.3515 2.935 21.4395C2.91202 21.5275 2.90659 21.6192 2.91903 21.7092C2.93147 21.7993 2.96153 21.8861 3.0075 21.9645C3.05346 22.043 3.11443 22.1116 3.18692 22.1665C3.25942 22.2215 3.34201 22.2615 3.43 22.2845L6.03 22.9845L4.2 23.9845L1.6 23.2845C1.42408 23.2464 1.24026 23.2756 1.08478 23.3663C0.929292 23.457 0.813421 23.6026 0.76 23.7745C0.721488 23.9518 0.750332 24.137 0.840914 24.2941C0.931496 24.4512 1.07733 24.569 1.25 24.6245L2.45 25.0445L1.04 25.8145C0.878708 25.9178 0.761032 26.0767 0.709397 26.2612C0.657761 26.4456 0.675772 26.6425 0.76 26.8145C0.863244 26.9758 1.02222 27.0935 1.20663 27.1451C1.39104 27.1968 1.58801 27.1787 1.76 27.0945L3.17 26.3145L2.82 27.5145C2.78189 27.6904 2.81106 27.8743 2.90176 28.0297C2.99246 28.1852 3.13811 28.3011 3.31 28.3545C3.39734 28.3786 3.48861 28.3849 3.57844 28.3732C3.66827 28.3615 3.75486 28.3319 3.83311 28.2863C3.91136 28.2406 3.9797 28.1798 4.03412 28.1074C4.08854 28.035 4.12794 27.9524 4.15 27.8645L4.86 25.2645L6.68 24.2145L5.98 26.8145C5.94189 26.9904 5.97106 27.1743 6.06176 27.3297C6.15246 27.4852 6.29811 27.6011 6.47 27.6545C6.64724 27.693 6.83246 27.6642 6.98959 27.5736C7.14672 27.483 7.26451 27.3372 7.32 27.1645L8.32 23.2245L9.52 22.6145H9.94C10.9939 22.6138 12.0293 22.8908 12.9422 23.4174C13.855 23.944 14.6131 24.7018 15.14 25.6145L15.35 25.9645V27.2345L12.47 30.1145C12.3374 30.2471 12.2629 30.427 12.2629 30.6145C12.2629 30.8021 12.3374 30.9819 12.47 31.1145C12.6026 31.2471 12.7825 31.3216 12.97 31.3216C13.1575 31.3216 13.3374 31.2471 13.47 31.1145L15.37 29.2145V31.3245L13.47 33.2245C13.4009 33.2882 13.3458 33.3655 13.3081 33.4516C13.2703 33.5376 13.2509 33.6306 13.2509 33.7245C13.2509 33.8185 13.2703 33.9114 13.3081 33.9975C13.3458 34.0835 13.4009 34.1608 13.47 34.2245C13.532 34.2964 13.6087 34.3541 13.695 34.3937C13.7813 34.4332 13.8751 34.4537 13.97 34.4537C14.0649 34.4537 14.1587 34.4332 14.245 34.3937C14.3313 34.3541 14.408 34.2964 14.47 34.2245L15.39 33.3145V34.9445C15.39 35.1302 15.4637 35.3082 15.595 35.4395C15.7263 35.5708 15.9043 35.6445 16.09 35.6445C16.2757 35.6445 16.4537 35.5708 16.585 35.4395C16.7163 35.3082 16.79 35.1302 16.79 34.9445V33.2945L17.71 34.2045C17.772 34.2764 17.8487 34.3341 17.935 34.3737C18.0213 34.4132 18.1151 34.4337 18.21 34.4337C18.3049 34.4337 18.3987 34.4132 18.485 34.3737C18.5713 34.3341 18.648 34.2764 18.71 34.2045C18.7791 34.1408 18.8342 34.0635 18.8719 33.9775C18.9097 33.8914 18.9291 33.7985 18.9291 33.7045C18.9291 33.6106 18.9097 33.5176 18.8719 33.4316C18.8342 33.3455 18.7791 33.2682 18.71 33.2045L16.81 31.3045V29.2145L18.71 31.1145C18.7745 31.1823 18.852 31.2363 18.938 31.2731C19.0239 31.31 19.1165 31.329 19.21 31.329C19.3035 31.329 19.3961 31.31 19.482 31.2731C19.568 31.2363 19.6455 31.1823 19.71 31.1145C19.7791 31.0508 19.8342 30.9735 19.8719 30.8875C19.9097 30.8014 19.9291 30.7085 19.9291 30.6145C19.9291 30.5206 19.9097 30.4276 19.8719 30.3416C19.8342 30.2555 19.7791 30.1782 19.71 30.1145L16.82 27.2345V25.9445L17.03 25.5945C17.5569 24.6818 18.315 23.924 19.2278 23.3974C20.1407 22.8708 21.1761 22.5938 22.23 22.5945H22.52L23.64 23.2245L24.7 27.1645C24.7195 27.2539 24.7573 27.3382 24.811 27.4121C24.8648 27.4861 24.9333 27.548 25.0123 27.5941C25.0913 27.6402 25.179 27.6693 25.2698 27.6797C25.3607 27.6901 25.4527 27.6815 25.54 27.6545C25.7119 27.6011 25.8575 27.4852 25.9482 27.3297C26.0389 27.1743 26.0681 26.9904 26.03 26.8145L25.33 24.2145L27.15 25.2645L27.86 27.8645C27.8766 27.9585 27.9125 28.048 27.9654 28.1274C28.0183 28.2068 28.0871 28.2743 28.1675 28.3258C28.2479 28.3772 28.338 28.4114 28.4323 28.4263C28.5265 28.4411 28.6228 28.4362 28.7151 28.4119C28.8074 28.3877 28.8936 28.3445 28.9684 28.2852C29.0431 28.2259 29.1048 28.1517 29.1494 28.0674C29.194 27.983 29.2207 27.8904 29.2277 27.7952C29.2346 27.7 29.2218 27.6045 29.19 27.5145L28.84 26.3145L30.25 27.0945C30.3332 27.1452 30.4259 27.1782 30.5224 27.1915C30.6189 27.2049 30.7171 27.1982 30.8109 27.1719C30.9047 27.1456 30.9921 27.1004 31.0676 27.0389C31.1431 26.9774 31.2052 26.901 31.25 26.8145C31.3269 26.647 31.3419 26.4577 31.2925 26.2801C31.2431 26.1026 31.1324 25.9482 30.98 25.8445ZM21.14 20.1545L18.52 18.6045C18.6602 18.1962 18.6602 17.7528 18.52 17.3445L21.12 15.7945C20.7065 17.2194 20.7134 18.7335 21.14 20.1545ZM20.44 14.6745L17.84 16.2145C17.5313 15.9372 17.1712 15.7231 16.78 15.5845V12.5845C17.7623 13.6331 19.0377 14.3614 20.44 14.6745ZM15.31 12.5645V15.5645C14.9135 15.6916 14.5511 15.907 14.25 16.1945L11.65 14.6545C13.0395 14.3088 14.3062 13.5855 15.31 12.5645ZM10.88 15.9445L13.52 17.4845C13.4267 17.8993 13.4267 18.3297 13.52 18.7445L10.92 20.1545C11.3252 18.7784 11.3113 17.3127 10.88 15.9445ZM11.58 21.4245L14.18 19.8845C14.4903 20.1596 14.85 20.3734 15.24 20.5145V23.5145C14.2563 22.4657 12.9819 21.7344 11.58 21.4145V21.4245ZM16.71 23.5345V20.5345C17.1086 20.4122 17.4721 20.1962 17.77 19.9045L20.37 21.4445C18.9832 21.7912 17.7176 22.5105 16.71 23.5245V23.5345Z" fill="#965C30"/>
</svg>
