<svg viewBox="0 0 48 48" fill="none" xmlns="http://www.w3.org/2000/svg">
<path d="M22.7654 12.1394L21.8914 12.1634C21.7278 12.1649 21.5704 12.09 21.4736 11.9497L20.9506 11.2139C20.7059 10.8669 20.1847 10.9588 20.0735 11.3685L19.8337 12.2388C19.7907 12.4038 19.6696 12.5347 19.5142 12.5826L18.6847 12.8589C18.2948 12.9892 18.2208 13.5361 18.5659 13.7832L19.2924 14.2983C19.4279 14.3976 19.5144 14.5534 19.5118 14.725L19.5213 15.6335C19.5251 16.0639 20.0008 16.3085 20.328 16.0455L21.0106 15.494C21.1364 15.3897 21.308 15.3595 21.4683 15.4133L22.2984 15.6981C22.6958 15.8333 23.0591 15.4408 22.9155 15.035L22.6264 14.1758C22.5717 14.0144 22.5921 13.8328 22.6866 13.6998L23.1932 12.9672C23.4329 12.617 23.1764 12.1285 22.7654 12.1394Z" fill="currentColor"/>
<path d="M26.2346 12.1394L27.1086 12.1634C27.2722 12.1649 27.4296 12.09 27.5264 11.9497L28.0494 11.2139C28.2941 10.8669 28.8153 10.9588 28.9265 11.3685L29.1663 12.2388C29.2093 12.4038 29.3304 12.5347 29.4858 12.5826L30.3153 12.8589C30.7052 12.9892 30.7792 13.5361 30.4341 13.7832L29.7076 14.2983C29.5721 14.3976 29.4856 14.5534 29.4882 14.725L29.4787 15.6335C29.4749 16.0639 28.9992 16.3085 28.672 16.0455L27.9894 15.494C27.8636 15.3897 27.692 15.3595 27.5317 15.4133L26.7016 15.6981C26.3042 15.8333 25.9409 15.4408 26.0845 15.035L26.3736 14.1758C26.4283 14.0144 26.4079 13.8328 26.3134 13.6998L25.8068 12.9672C25.5671 12.617 25.8236 12.1285 26.2346 12.1394Z" fill="currentColor"/>
<path d="M36.8229 17.0391L36.1569 16.4639C36.034 16.3581 35.9694 16.1928 35.9823 16.0209L36.0663 15.135C36.1051 14.7119 35.659 14.4276 35.3098 14.6524L34.5663 15.1218C34.424 15.2077 34.2559 15.2209 34.1007 15.1548L33.2989 14.7978C32.9175 14.6259 32.5166 14.9763 32.6136 15.3862L32.8205 16.2523C32.8593 16.4176 32.8205 16.5895 32.7105 16.7151L32.1286 17.3829C31.8506 17.7003 32.051 18.2027 32.4648 18.2292L33.3377 18.2953C33.4994 18.3085 33.6481 18.4011 33.7322 18.5465L34.1718 19.3201C34.3787 19.6837 34.9089 19.6506 35.0641 19.254L35.3939 18.4275C35.4585 18.2688 35.5879 18.1564 35.7495 18.1234L36.603 17.9317C37.0104 17.8391 37.1397 17.3102 36.8229 17.0391Z" fill="currentColor"/>
<path d="M12.1771 17.0391L12.8431 16.4639C12.966 16.3581 13.0306 16.1928 13.0177 16.0209L12.9337 15.135C12.8949 14.7119 13.341 14.4276 13.6902 14.6524L14.4337 15.1218C14.576 15.2077 14.7441 15.2209 14.8993 15.1548L15.7011 14.7978C16.0825 14.6259 16.4834 14.9763 16.3864 15.3862L16.1795 16.2523C16.1407 16.4176 16.1795 16.5895 16.2895 16.7151L16.8714 17.3829C17.1494 17.7003 16.949 18.2027 16.5352 18.2292L15.6623 18.2953C15.5006 18.3085 15.3519 18.4011 15.2678 18.5465L14.8282 19.3201C14.6213 19.6837 14.0911 19.6506 13.9359 19.254L13.6061 18.4275C13.5415 18.2688 13.4121 18.1564 13.2505 18.1234L12.397 17.9317C11.9896 17.8391 11.8603 17.3102 12.1771 17.0391Z" fill="currentColor"/>
<path d="M22.2629 26.4982C19.9157 24.1222 16.0785 24.1222 13.7314 26.4982C11.4229 28.8351 11.4229 32.5973 13.7314 34.9342C16.0785 37.3102 19.9157 37.3102 22.2629 34.9342L28.2658 28.8575C29.2334 27.878 30.7724 27.878 31.74 28.8575C32.7462 29.8761 32.7462 31.5562 31.74 32.5749C30.7724 33.5544 29.2334 33.5544 28.2658 32.5749C27.5954 31.8963 26.4859 31.8743 25.7876 32.5258C25.0894 33.1773 25.0667 34.2556 25.7371 34.9342C28.0843 37.3102 31.9215 37.3102 34.2686 34.9342C36.5771 32.5973 36.5771 28.8351 34.2686 26.4982C31.9215 24.1222 28.0843 24.1222 25.7371 26.4982L19.7342 32.5749C18.7666 33.5544 17.2276 33.5544 16.26 32.5749C15.2538 31.5562 15.2538 29.8761 16.26 28.8575C17.2276 27.878 18.7666 27.878 19.7342 28.8575C20.4046 29.5361 21.5141 29.5581 22.2124 28.9066C22.9106 28.2551 22.9333 27.1768 22.2629 26.4982Z" fill="currentColor"/>
</svg>
