<svg viewBox="0 0 48 48" fill="none" xmlns="http://www.w3.org/2000/svg">
<path d="M22.2629 26.782C19.9157 24.406 16.0785 24.406 13.7314 26.782C11.4229 29.1189 11.4229 32.8811 13.7314 35.218C16.0785 37.594 19.9157 37.594 22.2629 35.218L28.2658 29.1413C29.2334 28.1618 30.7724 28.1618 31.74 29.1413C32.7462 30.1599 32.7462 31.8401 31.74 32.8587C30.7724 33.8382 29.2334 33.8382 28.2658 32.8587C27.5954 32.1801 26.4859 32.1581 25.7876 32.8096C25.0894 33.4611 25.0667 34.5394 25.7371 35.218C28.0843 37.594 31.9215 37.594 34.2686 35.218C36.5771 32.8811 36.5771 29.1189 34.2686 26.782C31.9215 24.406 28.0843 24.406 25.7371 26.782L19.7342 32.8587C18.7666 33.8382 17.2276 33.8382 16.26 32.8587C15.2538 31.8401 15.2538 30.1599 16.26 29.1413C17.2276 28.1618 18.7666 28.1618 19.7342 29.1413C20.4046 29.8199 21.5141 29.8419 22.2124 29.1904C22.9106 28.5389 22.9333 27.4606 22.2629 26.782Z" fill="currentColor"/>
<path d="M26.5718 12.5147L25.707 12.3866C25.5456 12.3597 25.4036 12.2586 25.3326 12.1036L24.9453 11.2881C24.7646 10.904 24.2354 10.904 24.0547 11.2881L23.6674 12.1036C23.5964 12.2586 23.4544 12.3664 23.2931 12.3866L22.4282 12.5147C22.0216 12.5753 21.8538 13.101 22.1506 13.4043L22.7767 14.0378C22.8929 14.1591 22.951 14.3275 22.9187 14.496L22.7703 15.3924C22.6993 15.8169 23.1252 16.1404 23.4931 15.9382L24.2612 15.5137C24.4032 15.4328 24.5775 15.4328 24.7259 15.5137L25.494 15.9382C25.8618 16.1404 26.2878 15.8169 26.2168 15.3924L26.0813 14.496C26.0555 14.3275 26.1071 14.1523 26.2233 14.0378L26.8494 13.4043C27.1462 13.101 26.9784 12.5753 26.5718 12.5147Z" fill="currentColor"/>
</svg>
