<svg viewBox="0 0 48 48" fill="none" xmlns="http://www.w3.org/2000/svg">
<path d="M25.8553 12.5147L24.9904 12.3866C24.829 12.3597 24.687 12.2586 24.616 12.1036L24.2288 11.2881C24.0481 10.904 23.5188 10.904 23.3381 11.2881L22.9508 12.1036C22.8799 12.2586 22.7379 12.3664 22.5765 12.3866L21.7116 12.5147C21.305 12.5753 21.1372 13.101 21.4341 13.4043L22.0602 14.0378C22.1763 14.1591 22.2344 14.3275 22.2022 14.496L22.0537 15.3924C21.9827 15.8169 22.4087 16.1404 22.7766 15.9382L23.5446 15.5137C23.6866 15.4328 23.8609 15.4328 24.0093 15.5137L24.7774 15.9382C25.1453 16.1404 25.5713 15.8169 25.5003 15.3924L25.3647 14.496C25.3389 14.3275 25.3906 14.1523 25.5067 14.0378L26.1328 13.4043C26.4297 13.101 26.2619 12.5753 25.8553 12.5147Z" fill="currentColor"/>
<path d="M17.8229 16.4091L17.1569 15.8339C17.034 15.7281 16.9694 15.5628 16.9823 15.3909L17.0663 14.505C17.1051 14.0819 16.659 13.7976 16.3098 14.0224L15.5663 14.4918C15.424 14.5777 15.2559 14.591 15.1007 14.5248L14.2989 14.1678C13.9175 13.9959 13.5166 14.3463 13.6136 14.7562L13.8205 15.6223C13.8593 15.7876 13.8205 15.9595 13.7105 16.0852L13.1286 16.7529C12.8506 17.0703 13.051 17.5727 13.4648 17.5992L14.3377 17.6653C14.4994 17.6785 14.6481 17.7711 14.7322 17.9165L15.1718 18.6901C15.3787 19.0537 15.9089 19.0207 16.0641 18.624L16.3939 17.7975C16.4585 17.6389 16.5879 17.5265 16.7495 17.4934L17.603 17.3017C18.0104 17.2091 18.1397 16.6802 17.8229 16.4091Z" fill="currentColor"/>
<path d="M34.4406 16.7575L33.8583 16.0885C33.7483 15.9626 33.7095 15.7904 33.7483 15.6248L33.9554 14.757C34.0524 14.3462 33.6448 13.9951 33.2696 14.1674L32.4674 14.5251C32.3186 14.5913 32.1439 14.5781 32.0015 14.492L31.2575 14.0216C30.9082 13.7964 30.4553 14.0879 30.5006 14.5052L30.5847 15.3929C30.6041 15.5585 30.5329 15.7241 30.41 15.8367L29.7437 16.4131C29.4266 16.6847 29.556 17.2146 29.9636 17.3008L30.8176 17.4929C30.9794 17.526 31.1087 17.6452 31.1734 17.7976L31.5034 18.6256C31.6587 19.0165 32.1892 19.0562 32.3962 18.6919L32.8361 17.9168C32.9202 17.7711 33.069 17.6783 33.2308 17.6651L34.1042 17.5989C34.5182 17.579 34.7123 17.0755 34.4406 16.7575Z" fill="currentColor"/>
<path d="M22.2629 26.9248C19.9157 24.5488 16.0785 24.5488 13.7314 26.9248C11.4229 29.2617 11.4229 33.0239 13.7314 35.3608C16.0785 37.7368 19.9157 37.7368 22.2629 35.3608L28.2658 29.2841C29.2334 28.3046 30.7724 28.3046 31.74 29.2841C32.7462 30.3027 32.7462 31.9829 31.74 33.0015C30.7724 33.981 29.2334 33.981 28.2658 33.0015C27.5954 32.3229 26.4859 32.3009 25.7876 32.9524C25.0894 33.6039 25.0667 34.6822 25.7371 35.3608C28.0843 37.7368 31.9215 37.7368 34.2686 35.3608C36.5771 33.0239 36.5771 29.2617 34.2686 26.9248C31.9215 24.5488 28.0843 24.5488 25.7371 26.9248L19.7342 33.0015C18.7666 33.981 17.2276 33.981 16.26 33.0015C15.2538 31.9829 15.2538 30.3027 16.26 29.2841C17.2276 28.3046 18.7666 28.3046 19.7342 29.2841C20.4046 29.9627 21.5141 29.9847 22.2124 29.3332C22.9106 28.6817 22.9333 27.6034 22.2629 26.9248Z" fill="currentColor"/>
</svg>
