<svg viewBox="0 0 24 12" fill="none" xmlns="http://www.w3.org/2000/svg">
<path d="M10.2629 1.78201C7.91574 -0.594003 4.07853 -0.594003 1.73138 1.78201C-0.577126 4.1189 -0.577126 7.8811 1.73138 10.218C4.07853 12.594 7.91574 12.594 10.2629 10.218L16.2658 4.1413C17.2334 3.1618 18.7724 3.1618 19.74 4.1413C20.7462 5.15992 20.7462 6.84008 19.74 7.8587C18.7724 8.8382 17.2334 8.8382 16.2658 7.8587C15.5954 7.18009 14.4859 7.15811 13.7876 7.80961C13.0894 8.46111 13.0667 9.53938 13.7371 10.218C16.0843 12.594 19.9215 12.594 22.2686 10.218C24.5771 7.8811 24.5771 4.1189 22.2686 1.78201C19.9215 -0.594003 16.0843 -0.594003 13.7371 1.78201L7.73425 7.8587C6.76664 8.8382 5.22762 8.8382 4.26002 7.8587C3.25377 6.84008 3.25377 5.15992 4.26002 4.1413C5.22762 3.1618 6.76664 3.1618 7.73425 4.1413C8.40461 4.81991 9.51411 4.84189 10.2124 4.19039C10.9106 3.53889 10.9333 2.46062 10.2629 1.78201Z" fill="#444F4F"/>
</svg>
