<svg version="1.1" xmlns="http://www.w3.org/2000/svg" width="16" height="16" viewBox="0 0 16 16" fill="currentColor">
<title>clock</title>
<path fill-rule="evenodd" clip-rule="evenodd" d="M8.00002 15.3333C12.0401 15.3333 15.3334 12.0401 15.3334 7.99999C15.3334 3.95986 12.0401 0.666656 8.00002 0.666656C3.96052 0.666656 0.666687 3.95986 0.666687 7.99999C0.666687 12.0401 3.95989 15.3333 8.00002 15.3333ZM8.00002 2.13333C11.2325 2.13333 13.8667 4.76747 13.8667 7.99999C13.8667 11.2325 11.2325 13.8667 8.00002 13.8667C4.7675 13.8667 2.13336 11.2325 2.13336 7.99999C2.13336 4.76747 4.7675 2.13333 8.00002 2.13333ZM5.01485 6.22323C5.26974 5.90848 5.73151 5.85994 6.04626 6.11482L7.90414 7.6193L10.414 5.72798C10.7375 5.48424 11.1973 5.54886 11.441 5.87232C11.6848 6.19577 11.6201 6.65557 11.2967 6.89931L8.36835 9.10597C8.26126 9.18666 8.13923 9.23356 8.01504 9.24845C7.8067 9.29205 7.5812 9.24504 7.40289 9.10065L5.12326 7.25464C4.80851 6.99976 4.75997 6.53798 5.01485 6.22323Z" />
</svg>
