<svg width="82" height="56" viewBox="0 0 82 56" fill="none" xmlns="http://www.w3.org/2000/svg">
<g clip-path="url(#clip0)">
<path d="M31.3104 27.4236C29.8432 27.9826 28.7253 27.0044 28.2362 25.607L23.1357 9.74674L25.4414 8.97819C26.8388 8.55897 28.306 9.25766 28.7253 10.655L32.3584 24.4891C32.6379 25.1878 32.7777 26.7948 31.3104 27.4236Z" fill="#ABA6E2"/>
<path d="M24.4631 30.5677C23.2055 31.1965 21.6684 30.7773 21.0395 29.5197L16.498 21.1354L18.5242 20.0873C19.9216 19.3188 21.5985 19.8777 22.2972 21.2052L25.5111 27.1441C26.14 28.3319 25.7208 29.869 24.4631 30.5677Z" fill="#ABA6E2"/>
<path d="M37.6683 26.655C36.4806 26.7947 35.4325 26.0262 35.2229 24.8384L32.1487 3.17902L38.2972 3.6681L39.4849 24.4192C39.5548 25.5371 38.7164 26.5153 37.6683 26.655Z" fill="#ABA6E2"/>
<path d="M65.41 23.8107L60.0903 18.9645L49.4571 30.6368L54.7767 35.4829L65.41 23.8107Z" fill="#ABA6E2"/>
<path d="M48.4981 51.3188L34.4545 53.345C33.8955 53.4148 33.3366 53.4847 32.8475 53.4847C27.258 53.4847 22.3671 49.3624 21.5986 43.703C20.6903 37.4847 25.0222 31.6856 31.3104 30.7773L38.5069 29.7292C40.044 29.5196 41.3016 28.3319 41.5811 26.7947L44.865 6.6026L49.8955 7.44103L46.3322 28.6812C46.5418 28.6812 46.6816 28.6812 46.8912 28.6812C52.4807 28.6812 57.3715 32.8035 58.2099 38.4629C59.0484 44.6812 54.7165 50.4803 48.4981 51.3188Z" fill="#ABA6E2"/>
<path d="M20.8998 30.2882C20.3408 30.2882 19.7819 30.0087 19.4325 29.5196L15.7994 24.0698C15.2404 23.2314 15.5199 22.1834 16.2884 21.6244C17.057 21.0655 18.1749 21.345 18.7339 22.1135L22.367 27.5633C22.926 28.4017 22.6465 29.4498 21.878 30.0087C21.5286 30.2183 21.1793 30.2882 20.8998 30.2882Z" fill="#43029A"/>
<path d="M35.4326 26.0961C34.5942 26.0961 33.8256 25.4673 33.6859 24.6289L30.6815 5.27514C30.5418 4.29697 31.1706 3.45854 32.1487 3.24894C33.1269 3.1092 33.9653 3.73802 34.1749 4.71619L37.1793 24.0699C37.319 25.0481 36.6902 25.8865 35.7121 26.0961C35.6422 26.0262 35.5025 26.0961 35.4326 26.0961Z" fill="#43029A"/>
<path d="M42.3497 22.0437C42.2798 22.0437 42.2798 22.0437 42.2099 22.0437C41.2318 21.9738 40.5331 21.1354 40.603 20.1572L41.5811 8.69871C41.651 7.72055 42.4894 7.02186 43.4676 7.09172C44.4457 7.16159 45.1444 8.00002 45.0746 8.97819L44.0964 20.4367C44.0265 21.345 43.258 22.0437 42.3497 22.0437Z" fill="#43029A"/>
<path d="M31.6596 56C28.795 56 26.0002 55.0917 23.6946 53.345C20.8299 51.179 19.0133 48.1048 18.5243 44.5415C17.4762 37.2751 22.5767 30.4978 29.843 29.4498L37.6684 28.3319C38.6465 28.1921 39.4849 28.8908 39.6247 29.7991C39.7644 30.7773 39.0657 31.6157 38.1574 31.7555L30.3321 32.8734C27.747 33.2227 25.4413 34.6201 23.8343 36.7162C22.2273 38.8122 21.5985 41.3974 21.9478 43.9825C22.2972 46.5677 23.6946 48.8734 25.7906 50.4804C27.8867 52.0873 30.4718 52.7162 33.057 52.3668L45.6334 50.5502C46.6116 50.4105 47.45 51.1092 47.5898 52.0175C47.7295 52.9956 47.0308 53.8341 46.1225 53.9738L33.5461 55.7904C32.9871 55.9301 32.3583 56 31.6596 56Z" fill="#43029A"/>
<path d="M45.9828 54.0437C45.1444 54.0437 44.3758 53.4149 44.2361 52.5764C44.0964 51.5983 44.7951 50.7598 45.7034 50.6201L47.6597 50.3406C53.7383 49.5022 58.0003 43.7729 57.1619 37.6943C56.8125 35.2489 55.6946 33.083 54.0178 31.3363C53.3191 30.6376 53.3191 29.5197 54.0178 28.8908C54.7165 28.1921 55.8344 28.1921 56.4632 28.8908C58.699 31.1266 60.1662 33.9913 60.6553 37.2053C61.7732 45.2402 56.2536 52.6463 48.2186 53.7642L46.2623 54.0437C46.1226 54.0437 46.0527 54.0437 45.9828 54.0437Z" fill="#43029A"/>
<path d="M41.5111 41.6768C40.8823 41.6768 40.2534 41.3275 39.974 40.6987C39.4849 39.7205 39.1355 38.6725 38.9958 37.5546C38.5766 34.8297 39.2753 32.1048 40.8823 29.9389C42.5591 27.7729 44.9347 26.3057 47.6595 25.9563C50.8036 25.5371 54.0875 26.5851 56.3932 28.8908C57.0919 29.5895 57.0919 30.6376 56.3932 31.3362C55.6945 32.0349 54.6464 32.0349 53.9478 31.3362C52.4106 29.7991 50.1748 29.1004 48.1486 29.3799C46.332 29.6594 44.7949 30.5677 43.677 32.0349C42.5591 33.5022 42.1399 35.2489 42.4194 37.0655C42.4892 37.7642 42.7687 38.4629 43.0482 39.1616C43.4674 40 43.1181 41.048 42.2796 41.5371C42.0002 41.607 41.7207 41.6768 41.5111 41.6768Z" fill="#43029A"/>
<path d="M32.3584 6.67249C31.5199 6.67249 30.7514 6.04367 30.6117 5.20524C30.2623 2.68996 32.009 0.384279 34.4544 0.0349345C35.6422 -0.104803 36.83 0.174672 37.8082 0.873362C38.7863 1.57205 39.4151 2.68996 39.5549 3.87773C39.6946 4.8559 38.9959 5.69432 38.0876 5.83406C37.1095 5.9738 36.271 5.27511 36.1313 4.36681C36.0614 4.08734 35.9217 3.80786 35.7121 3.66812C35.5724 3.52838 35.2929 3.45852 35.0134 3.45852C34.4544 3.52838 34.0352 4.08734 34.1051 4.64629C34.2448 5.62445 33.5461 6.46288 32.6379 6.60262C32.568 6.67249 32.4282 6.67249 32.3584 6.67249Z" fill="#43029A"/>
<path d="M17.4064 25.1179C16.8474 25.1179 16.2885 24.8384 15.9391 24.3493C15.3103 23.441 15.1007 22.3231 15.3103 21.2751C15.5199 20.2271 16.1487 19.2489 17.057 18.6899C17.8256 18.2009 18.8037 17.9214 19.712 18.0611C20.6902 18.131 21.3889 19.0393 21.2492 19.9476C21.1793 20.9257 20.271 21.6244 19.3627 21.4847C19.2928 21.4847 19.0832 21.4847 18.9435 21.5546C18.7339 21.6943 18.7339 21.834 18.664 21.9738C18.664 22.0437 18.664 22.2533 18.7339 22.4629C19.2928 23.3013 19.0133 24.3493 18.2448 24.9083C18.1051 24.9782 17.7557 25.1179 17.4064 25.1179Z" fill="#43029A"/>
<path d="M55.0657 26.655L53.319 27.3537L50.8037 30.2882L54.9958 34.3406L57.7906 30.0786L55.0657 26.655Z" fill="#ABA6E2"/>
<path d="M57.0921 34.2009C56.603 34.2009 56.1139 33.9913 55.7645 33.5721C55.1357 32.8734 55.2056 31.7555 55.9742 31.1266L62.3322 25.6769C63.0309 25.048 64.1488 25.1179 64.7776 25.8865C65.4065 26.5852 65.3366 27.7031 64.568 28.3319L58.21 33.7817C57.8606 34.0611 57.4414 34.2009 57.0921 34.2009Z" fill="#43029A"/>
<path d="M48.2186 28.7511C47.45 28.7511 46.7513 28.262 46.5417 27.4935C44.795 21.345 45.9129 16.9432 46.7513 13.3799C47.1007 11.9826 47.3802 10.655 47.5199 9.46727C47.5898 8.4891 48.4282 7.79041 49.4064 7.86028C50.3845 7.93015 51.0832 8.76858 51.0134 9.74674C50.8736 11.214 50.5243 12.6812 50.1749 14.2184C49.3365 17.5022 48.4282 21.2751 49.8954 26.5153C50.1749 27.4236 49.616 28.4018 48.7077 28.6812C48.5679 28.7511 48.3583 28.7511 48.2186 28.7511Z" fill="#43029A"/>
<path d="M63.3801 28.7511C62.891 28.7511 62.4019 28.5415 62.1224 28.1922C61.4936 27.4935 61.4936 26.3756 62.2622 25.7467C63.1704 24.9083 63.3801 23.6507 62.7512 22.6026C62.0525 21.345 60.4456 20.9258 59.2578 21.6245C58.4194 22.1136 57.3713 21.7642 56.8822 20.9258C56.3932 20.0874 56.7425 19.0393 57.5809 18.5502C60.5154 16.9433 64.2185 17.9913 65.8255 20.9258C67.2228 23.3712 66.7338 26.4454 64.6377 28.4018C64.2185 28.6114 63.7993 28.7511 63.3801 28.7511Z" fill="#43029A"/>
<path d="M51.3628 29.6594C50.9436 29.6594 50.5942 29.5196 50.2449 29.2402C49.4763 28.6113 49.4065 27.4934 50.0353 26.7947L56.044 19.5982C56.6729 18.8297 57.7908 18.7598 58.4894 19.3886C59.258 20.0174 59.3279 21.1354 58.6991 21.834L52.6204 29.0305C52.341 29.4498 51.8519 29.6594 51.3628 29.6594Z" fill="#43029A"/>
<path d="M57.3715 22.4629C56.9523 22.4629 56.4632 22.3231 56.1139 21.9738C55.4152 21.2751 55.4152 20.1572 56.1139 19.5284C56.6029 19.0393 57.1619 18.69 57.7208 18.4105C58.5593 17.9913 59.6073 18.3406 60.0265 19.179C60.4457 20.0175 60.0964 21.0655 59.258 21.4847C58.9785 21.6245 58.7689 21.7642 58.5593 21.9738C58.2798 22.3231 57.8606 22.4629 57.3715 22.4629Z" fill="#43029A"/>
<path d="M28.3758 27.214C27.6771 27.214 26.9784 26.7948 26.6989 26.0262L21.8081 12.0524C21.4588 11.1441 21.9479 10.1659 22.8562 9.8166C23.7644 9.46726 24.7426 9.95634 25.092 10.8646L29.9828 24.8384C30.3321 25.7467 29.843 26.7249 28.9348 27.0742C28.795 27.214 28.5854 27.214 28.3758 27.214Z" fill="#43029A"/>
<path d="M23.5549 13.3101C22.8562 13.3101 22.1575 12.8908 21.878 12.1223C21.3191 10.4454 21.878 8.55896 23.2754 7.51092C25.092 6.11354 27.6771 6.53276 29.0046 8.27948C29.5636 9.04804 29.4239 10.1659 28.6553 10.7249C27.8867 11.2838 26.7688 11.1441 26.2099 10.3756C26.0003 10.0961 25.6509 10.0262 25.3715 10.2358C25.1619 10.4454 25.092 10.7249 25.1619 10.9345C25.5112 11.8428 25.0221 12.821 24.1138 13.1703C23.9042 13.31 23.7645 13.3101 23.5549 13.3101Z" fill="#43029A"/>
<path d="M49.2667 11.4935C49.1968 11.4935 49.1269 11.4935 49.0571 11.4935C48.0789 11.4236 47.3802 10.5153 47.52 9.607C47.5898 8.97817 47.1706 8.34935 46.4719 8.20962C46.1226 8.13975 45.7732 8.20962 45.5636 8.41922C45.2841 8.62883 45.0745 8.90831 45.0047 9.25765C44.7951 10.2358 43.8868 10.7948 42.9785 10.655C42.0003 10.4454 41.3715 9.53713 41.5811 8.62883C41.7907 7.37119 42.4894 6.32315 43.5374 5.55459C44.5855 4.8559 45.8431 4.57643 47.1007 4.78603C49.5461 5.20525 51.223 7.51093 50.9435 9.95634C50.9435 10.7948 50.175 11.4935 49.2667 11.4935Z" fill="#43029A"/>
<path d="M12.9349 31.2664C12.5855 31.2664 12.2362 31.1965 11.9567 30.9869C8.60302 28.7511 6.71655 25.1179 6.71655 21.1354C6.71655 20.1572 7.48511 19.3887 8.46328 19.3887C9.44144 19.3887 10.21 20.2271 10.21 21.1354C10.1401 23.9302 11.5375 26.5153 13.8432 28.0524C14.6816 28.6114 14.8912 29.6594 14.3323 30.4978C14.0528 31.0568 13.4938 31.2664 12.9349 31.2664Z" fill="#01C9C7"/>
<path d="M8.25355 36.1572C8.04395 36.1572 7.76447 36.0873 7.55486 36.0175C3.92168 34.3406 1.40639 30.9869 0.847439 27.0742C0.707701 26.0961 1.40639 25.2577 2.31469 25.1179C3.29285 24.9782 4.13128 25.6769 4.27102 26.5852C4.69023 29.3799 6.43696 31.6856 8.95224 32.8734C9.86054 33.2926 10.2099 34.3406 9.79067 35.1791C9.58106 35.8079 8.95224 36.1572 8.25355 36.1572Z" fill="#01C9C7"/>
<path d="M70.3671 30.917C70.0177 30.917 69.5985 30.7773 69.319 30.5677C68.5505 30.0087 68.4107 28.8908 69.0396 28.1223C70.7863 25.8865 71.2055 23.0218 70.2972 20.3668C69.9479 19.4585 70.4369 18.4803 71.3452 18.131C72.2535 17.7816 73.2317 18.2707 73.5811 19.179C74.9086 22.952 74.2099 27.0742 71.7645 30.2183C71.3452 30.7074 70.8562 30.917 70.3671 30.917Z" fill="#01C9C7"/>
<path d="M76.3058 34.0612C75.8167 34.0612 75.3975 33.8516 75.0482 33.5022C74.4194 32.8035 74.4194 31.6856 75.1181 31.0568C77.1443 29.1703 78.0526 26.3756 77.5635 23.6507C77.4237 22.6725 78.0526 21.7642 78.9609 21.6245C79.8692 21.4847 80.8473 22.1136 80.987 23.0219C81.6857 26.9345 80.3582 30.9171 77.4936 33.642C77.1443 33.9214 76.725 34.0612 76.3058 34.0612Z" fill="#01C9C7"/>
</g>
<defs>
<clipPath id="clip0">
<rect width="80.3409" height="56" fill="white" transform="translate(0.82959)"/>
</clipPath>
</defs>
</svg>
