<svg width="57" height="56" viewBox="0 0 57 56" fill="none" xmlns="http://www.w3.org/2000/svg">
<path fill-rule="evenodd" clip-rule="evenodd" d="M55.7223 43.1236V13.5664C55.7223 10.409 53.0447 7.77777 49.7423 7.77777H7.16854C3.95543 7.77777 1.27783 10.409 1.27783 13.5664V43.2113C1.27783 46.3688 3.95543 49 7.16854 48.9123H49.8316C53.0447 48.9123 55.7223 46.3688 55.7223 43.1236ZM50.3671 42.2466C50.7241 41.8957 50.7241 41.3695 50.3671 41.0187L36.5328 27.4241L50.3671 13.7418C50.7241 13.391 50.7241 12.8648 50.3671 12.5139C50.0101 12.1631 49.4746 12.1631 49.1175 12.5139L34.6585 26.8102L31.5347 29.8799C31.4454 29.8799 31.4454 29.9676 31.4454 29.9676C30.8206 30.6693 29.9281 31.0201 28.9463 31.1078C27.786 31.1955 26.6257 30.757 25.7332 29.8799L8.06109 12.5139C7.70407 12.1631 7.16855 12.1631 6.81154 12.5139C6.45453 12.8648 6.45453 13.391 6.81154 13.7418L20.6458 27.4241L6.81154 41.0187C6.45453 41.3695 6.45453 41.8957 6.81154 42.2466C6.99005 42.422 7.25781 42.5097 7.43631 42.5097C7.61482 42.5097 7.88258 42.422 8.06109 42.2466L21.8953 28.652L24.3944 31.1078C25.5547 32.248 27.072 32.8619 28.6786 32.8619H28.9463C30.4636 32.7742 31.8024 32.1603 32.695 31.1078L35.1941 28.652L49.1175 42.2466C49.2961 42.422 49.4746 42.5097 49.7423 42.5097C49.9208 42.5097 50.1886 42.422 50.3671 42.2466Z" fill="#3C0098"/>
</svg>
