<svg width="57" height="56" viewBox="0 0 57 56" fill="none" xmlns="http://www.w3.org/2000/svg">
<g clip-path="url(#clip0)">
<path d="M38.8594 55.9971H3.3777C1.87583 55.9971 0.937156 54.2336 1.87583 52.974C6.25628 47.0538 13.2024 43.2119 21.1498 43.2119C27.1573 43.2119 32.6642 45.4162 36.8569 49.1321C38.1711 50.2658 39.36 51.5884 40.4239 52.974C41.2374 54.2336 40.3613 55.9971 38.8594 55.9971Z" fill="#ABA6E2"/>
<path d="M39.6105 28.6033C39.6105 32.6341 38.2963 36.413 36.1687 39.4361C32.852 44.0967 27.4078 47.1198 21.2751 47.1198C11.1375 47.1198 2.8772 38.8063 2.8772 28.6033C2.8772 18.4004 11.1375 10.0869 21.2751 10.0869C27.4078 10.0869 32.852 13.11 36.1687 17.7706C38.2963 20.8567 39.6105 24.5725 39.6105 28.6033Z" fill="#ABA6E2"/>
<path d="M23.7157 34.0193C23.1525 34.0193 22.5893 33.5784 22.4642 33.0116C22.339 32.3188 22.7771 31.689 23.4654 31.5631L27.7833 30.8073L23.4029 23.3755C23.0274 22.8087 23.2151 21.9899 23.8409 21.675C24.4041 21.2971 25.2176 21.4861 25.5305 22.1159L30.9122 30.9962C31.0999 31.3741 31.1625 31.815 30.9748 32.1929C30.787 32.5707 30.4742 32.8227 30.0361 32.8857L23.9661 33.9563C23.8409 34.0193 23.7783 34.0193 23.7157 34.0193Z" fill="#43029A"/>
<path d="M18.5218 27.9106C17.9586 27.9106 17.3954 27.4697 17.2702 26.9029L16.7696 24.1318C16.6444 23.439 17.0825 22.8092 17.7708 22.6832C18.4592 22.5572 19.085 22.9981 19.2101 23.6909L19.7108 26.4621C19.8359 27.1548 19.3979 27.7847 18.7095 27.9106C18.7095 27.8476 18.5844 27.9106 18.5218 27.9106Z" fill="#43029A"/>
<path d="M31.9761 25.4534C31.4129 25.4534 30.8497 25.0125 30.7246 24.4457L30.2239 21.6745C30.0988 20.9817 30.5368 20.3519 31.2252 20.226C31.9136 20.1 32.5393 20.5409 32.6645 21.2337L33.1651 24.0048C33.2903 24.6976 32.8522 25.3274 32.1639 25.4534C32.1013 25.4534 32.0387 25.4534 31.9761 25.4534Z" fill="#43029A"/>
<path d="M46.6492 20.4194C48.1061 20.4194 49.2856 21.6066 49.2856 23.0729C49.2856 24.5391 48.1061 25.7263 46.6492 25.7263C45.1923 25.7263 44.0127 24.5391 44.0127 23.0729C44.0127 21.6066 45.1923 20.4194 46.6492 20.4194Z" fill="#FF808C"/>
<path d="M47.2437 2.27332C51.2398 2.2754 54.4723 5.61407 54.4723 9.5505C54.4723 13.2328 51.753 16.2278 48.0094 16.8277V17.5983C48.0094 18.2835 47.4155 18.8813 46.7347 18.8813C46.2214 18.8813 45.7972 18.6251 45.6275 18.1961L45.3709 17.6837L44.2658 15.2864C43.585 13.7431 44.2658 11.7749 46.7326 11.6041C48.3488 11.5187 49.1994 10.5752 49.1994 9.54842C49.1994 8.43622 48.3488 7.5802 47.3286 7.5802C46.1387 7.5802 45.1184 8.26335 44.6073 9.37763C43.9285 10.746 42.3971 11.2584 41.0354 10.6606C39.6758 9.97747 39.1667 8.43622 39.7607 7.06576C41.1203 4.15614 44.0113 2.27332 47.2437 2.27332Z" fill="#FF808C"/>
</g>
<defs>
<clipPath id="clip0">
<rect width="56" height="56" fill="white" transform="translate(0.5)"/>
</clipPath>
</defs>
</svg>
