<svg width="26" height="18" viewBox="0 0 26 18" fill="none" xmlns="http://www.w3.org/2000/svg">
<path fill-rule="evenodd" clip-rule="evenodd" d="M7.1886 3.28213C5.67063 4.59079 4.57377 5.53582 2.14116 5.53582C0.958441 5.53582 0 6.52046 0 7.73551V15.3984C0 16.6135 0.958441 17.5987 2.14116 17.5987C6.13204 17.5987 8.244 15.7782 9.94127 14.316C11.4592 13.0079 12.5561 12.0629 14.9887 12.0629C16.1714 12.0629 17.1299 11.0776 17.1299 9.8626V2.19969C17.1299 0.98464 16.1714 0 14.9887 0C10.9978 0 8.88588 1.81987 7.1886 3.28213ZM14.9883 2.19818V9.86109C8.56423 9.86109 8.56423 15.3969 2.14074 15.3969V7.734C8.56423 7.734 8.56423 2.19818 14.9883 2.19818Z" fill="#004854"/>
<path fill-rule="evenodd" clip-rule="evenodd" d="M23.7716 1.18963C19.6183 1.18963 17.4203 2.92799 15.6539 4.32474C15.4363 4.49726 15.2278 4.66061 15.0224 4.81822V7.40368C17.7023 5.84587 19.1217 3.29079 23.7716 3.29079V10.6104C17.086 10.6104 17.086 15.8983 10.4009 15.8983V13.3203H8.17259V15.8983C8.17259 17.0589 9.17006 18 10.4009 18C14.5543 18 16.7523 16.2611 18.5187 14.8643C20.0985 13.6149 21.24 12.7122 23.7716 12.7122C25.0025 12.7122 26 11.7711 26 10.6104V3.29079C26 2.13017 25.0025 1.18963 23.7716 1.18963Z" fill="#004854"/>
</svg>
