<svg viewBox="0 0 87 80" fill="none" xmlns="http://www.w3.org/2000/svg">
<g opacity="0.4">
<path d="M83.7223 30.5421L51.0823 17.4621C48.7423 16.5021 45.6823 17.4621 44.1823 19.5621L15.4423 60.0021C13.9423 62.1021 14.6023 64.5621 16.9423 65.4621L49.5823 78.5421C51.9223 79.5021 54.9823 78.5421 56.4823 76.4421L85.2223 36.0021C86.7223 33.9021 86.0623 31.4421 83.7223 30.5421Z" fill="white"/>
<path d="M51.5021 79.8014C50.7221 79.8014 49.9421 79.6814 49.2221 79.3814L16.5821 66.3014C15.2021 65.7614 14.2421 64.7414 13.8821 63.4814C13.5221 62.1614 13.7621 60.7214 14.6621 59.4614L43.4021 19.0214C45.1421 16.5614 48.6821 15.4814 51.3821 16.6214L84.0221 29.7014C85.4021 30.2414 86.3621 31.2614 86.7221 32.5214C87.0821 33.8414 86.8421 35.2814 85.9421 36.5414L57.2021 76.9814C55.9421 78.7214 53.7221 79.8014 51.5021 79.8014ZM49.1621 18.0014C47.5421 18.0014 45.8621 18.7814 44.9021 20.1014L16.1621 60.4814C15.5621 61.2614 15.3821 62.1614 15.6221 62.9414C15.8621 63.6614 16.4021 64.2614 17.2421 64.6214L49.8821 77.7014C51.8021 78.4814 54.5021 77.6414 55.7021 75.9014L84.4421 35.4614C85.0421 34.6814 85.2221 33.7814 84.9821 33.0014C84.7421 32.2814 84.2021 31.6814 83.3621 31.3214L50.7821 18.3014C50.2421 18.0614 49.7021 18.0014 49.1621 18.0014Z" fill="#C9D6D6"/>
<path d="M82.1034 35.0416L68.8434 54.3016C68.4834 54.8416 67.7634 55.0816 67.1634 54.8416L37.4634 43.6816C36.4434 43.3216 36.2034 41.9416 37.0434 41.2216L57.7434 23.7616C58.1634 23.4016 58.7034 23.3416 59.2434 23.5216L81.5034 32.8816C82.3434 33.2416 82.6434 34.2616 82.1034 35.0416Z" fill="#EEF6F6"/>
<path d="M63.3233 57.3017L28.8833 64.3817C26.4233 64.8617 23.5433 63.4217 22.4633 61.0817L1.28333 16.2017C0.203331 13.8617 1.28333 11.5817 3.74333 11.1017L38.1833 3.96173C40.6433 3.48173 43.5233 4.92173 44.6033 7.26173L65.7833 52.1417C66.8633 54.4817 65.7833 56.7617 63.3233 57.3017Z" fill="white"/>
<path d="M27.8628 65.4015C25.3428 65.4015 22.7628 63.8415 21.6228 61.5015L0.502768 16.6215C-0.157232 15.2415 -0.157232 13.8015 0.442768 12.5415C1.04277 11.3415 2.18277 10.5015 3.62277 10.2015L38.0028 3.12146C40.8828 2.52146 44.1228 4.20146 45.4428 6.90146L66.5628 51.7815C67.2228 53.1615 67.2228 54.6015 66.6228 55.8615C66.0228 57.0615 64.8828 57.9015 63.4428 58.2015L29.0028 65.2815C28.7028 65.3415 28.2828 65.4015 27.8628 65.4015ZM39.1428 4.80146C38.8428 4.80146 38.6028 4.80146 38.3628 4.86146L3.92277 11.9415C3.02277 12.1215 2.36277 12.6015 2.00277 13.3215C1.64277 14.0415 1.64277 14.9415 2.06277 15.8415L23.2428 60.7215C24.1428 62.6415 26.6628 63.9615 28.7028 63.5415L63.1428 56.4615C64.0428 56.2815 64.7028 55.8015 65.0628 55.0815C65.4228 54.3615 65.4228 53.4615 65.0028 52.5615L43.8228 7.68146C42.9828 6.00146 41.0028 4.80146 39.1428 4.80146Z" fill="#C9D6D6"/>
<path d="M40.2234 6.78171L6.14338 13.6217C4.94338 13.8617 4.28338 15.1817 4.82338 16.2617L14.8434 36.8417C15.2034 37.6217 16.0434 38.0417 16.8834 37.8617L52.4034 30.9017C53.6634 30.6617 54.3234 29.2817 53.6634 28.1417L42.2634 7.68171C41.8434 6.96171 41.0634 6.60171 40.2234 6.78171Z" fill="#EEF6F6"/>
<path d="M65.0023 57.6015L37.9423 73.8615L14.9023 64.5015V60.9015L18.9223 55.0215L24.9223 64.2015L41.0623 61.8615L65.0023 57.6015Z" fill="#C9D6D6"/>
<path d="M35.7865 46.4829C36.7691 47.1395 37.8718 47.5964 39.0308 47.827L39.2016 46.9688C39.7197 47.072 40.2504 47.125 40.7866 47.125H42.3398V48H45.4464V47.125H48.5529V48H51.6594V47.125H53.2127C53.7489 47.125 54.2796 47.072 54.7978 46.9689L54.9685 47.8271C56.1277 47.5965 57.2304 47.1396 58.2128 46.4831L57.7267 45.7556C58.166 45.462 58.5788 45.1242 58.9578 44.7451L58.9579 44.745L60.0563 43.6466L60.675 44.2654L62.8719 42.0686L62.2532 41.4499L64.4501 39.2531L65.0688 39.8719L67.2656 37.6751L66.6469 37.0564L67.7453 35.9581C67.7453 35.9581 67.7453 35.958 67.7454 35.958C68.1244 35.5789 68.4622 35.1662 68.7557 34.7268L69.4832 35.2129C70.1397 34.2305 70.5965 33.1278 70.8271 31.9688L69.9689 31.798C70.072 31.2799 70.125 30.7492 70.125 30.213V28.6597H71V25.553H70.125V22.4463H71V19.3396H70.125V17.7863C70.125 17.2501 70.072 16.7195 69.9688 16.2013L70.827 16.0305C70.5964 14.8717 70.1395 13.7691 69.4831 12.7864L68.7555 13.2725C68.462 12.8331 68.1242 12.4203 67.7452 12.041L66.6469 10.9429L67.2656 10.3241L65.0688 8.12737L64.4501 8.74611L62.2532 6.54936L62.8719 5.93062L60.675 3.73387L60.0563 4.35261L58.9579 3.25424L58.9578 3.25417C58.5788 2.87504 58.1661 2.5373 57.7268 2.24381L58.2128 1.51623C57.2304 0.859883 56.1276 0.403256 54.9685 0.172791L54.7978 1.03099C54.2797 0.927969 53.749 0.875 53.2127 0.875H51.6594V0H48.5529V0.875H45.4464V0H42.3398V0.875H40.7866C40.2504 0.875 39.7197 0.927989 39.2015 1.03106L39.0308 0.172867C37.8719 0.403379 36.7691 0.860044 35.7865 1.51643L36.2726 2.24402C35.8333 2.53747 35.4205 2.87515 35.0414 3.25421L35.0413 3.25431L35.7865 46.4829ZM35.7865 46.4829L36.2726 45.7554C35.8333 45.4619 35.4206 45.1241 35.0414 44.745C35.0413 44.745 35.0413 44.745 35.0413 44.7449L33.943 43.6467L33.3243 44.2654M35.7865 46.4829L33.3243 44.2654M33.3243 44.2654L31.1276 42.0686L31.7464 41.4499L29.5497 39.2532L28.931 39.8719L26.7343 37.6751L27.353 37.0564L26.2547 35.958L26.2546 35.9579C25.8754 35.5789 25.5376 35.1662 25.2441 34.7269L24.5165 35.2131C23.86 34.2306 23.4033 33.1279 23.1728 31.9688L24.031 31.7981C23.928 31.28 23.875 30.7493 23.875 30.213V28.6597H23V25.553H23.875V22.4463H23V19.3396H23.875V17.7863C23.875 17.2501 23.928 16.7194 24.0311 16.2012L23.1729 16.0305C23.4034 14.8716 23.8602 13.769 24.5167 12.7863L25.2443 13.2724C25.5378 12.8331 25.8755 12.4204 26.2547 12.0412C26.2547 12.0412 26.2547 12.0412 26.2547 12.0412L27.353 10.9428L26.7343 10.3241L28.9309 8.12737L29.5497 8.74608L31.7464 6.54933L31.1276 5.93062L33.3243 3.73388V44.2654Z" fill="white" stroke="#C9D6D6" stroke-width="1.75" stroke-linejoin="round" stroke-dasharray="4 4"/>
</g>
</svg>
