<svg width="48" height="48" viewBox="0 0 48 48" fill="none" xmlns="http://www.w3.org/2000/svg">
<path fill-rule="evenodd" clip-rule="evenodd" d="M12.4226 46.3637L3.63594 37.5767C1.94795 35.8892 1 33.6002 1 31.213V18.7862C1 16.3997 1.94795 14.1107 3.63594 12.4225L12.4226 3.63547C14.1106 1.94797 16.3998 0.999969 18.7866 0.999969H31.2127C33.6002 0.999969 35.8894 1.94797 37.5766 3.63547L46.3641 12.4225C48.0513 14.1107 49 16.3997 49 18.7862V31.213C49 33.6002 48.0513 35.8892 46.3641 37.5767L37.5766 46.3637C35.8894 48.0512 33.6002 49 31.2127 49H18.7866C16.3998 49 14.1106 48.0512 12.4226 46.3637Z" fill="#FFC930"/>
<path d="M12.0691 46.7173L12.0691 46.7173C13.8508 48.4985 16.2671 49.5 18.7866 49.5H31.2127C33.7328 49.5 36.1492 48.4985 37.9302 46.7172L46.7176 37.9303L46.7176 37.9302C48.4986 36.149 49.5 33.7329 49.5 31.213V18.7862C49.5 16.267 48.4986 13.8509 46.7177 12.069L46.7176 12.0689L37.9302 3.28194C36.1491 1.5006 33.7327 0.499969 31.2127 0.499969H18.7866C16.2672 0.499969 13.8509 1.50063 12.0691 3.28187L12.0691 3.28192L3.28238 12.0689L3.28236 12.0689C1.50062 13.8509 0.5 16.2671 0.5 18.7862V31.213C0.5 33.7328 1.50058 36.149 3.28238 37.9303C3.2824 37.9303 3.28241 37.9303 3.28243 37.9303L12.0691 46.7173Z" stroke="black" stroke-opacity="0.01"/>
</svg>
