<svg viewBox="0 0 80 80" fill="none" xmlns="http://www.w3.org/2000/svg">
<circle cx="40" cy="40" r="40" fill="white"/>
<g clip-path="url(#clip0)">
<path d="M60 61.9C60 62.3 60 62.7 60 63C59.9 64.9 59.7 66.9 57.8 66.9H23.4C21.4 66.9 21.1 64.8 21 62.8C21 62.5 21 62.1 21 61.8C21 51.3 27.6 42.3 37 38.8C37.9 38.5 37.9 37.3 37 37C28.2 33.8 21.8 25.5 21.1 15.7C21.1 14.9 21 13.3 21.9 13.3H59.3C60.2 13.3 60.1 14.9 60 15.8C59.4 25.6 52.9 33.8 44.1 37.1C43.2 37.4 43.2 38.6 44.1 38.9C53.4 42.4 60 51.3 60 61.9Z" fill="#F2F2F2"/>
<path d="M57.7999 67.9H23.3999C20.1999 67.9 20.0999 64.3 20.0999 62.9C20.0999 62.6 20.0999 62.2 20.0999 61.9C20.0999 51.3 26.7999 41.7 36.6999 38C27.2999 34.5 20.7999 25.8 20.0999 15.8C19.9999 14.7 20.0999 13.5 20.6999 12.8C20.9999 12.4 21.3999 12.3 21.8999 12.3H59.2999C59.6999 12.3 60.0999 12.5 60.3999 12.8C61.0999 13.5 60.9999 14.7 60.9999 15.8C60.2999 25.8 53.7999 34.5 44.3999 38C54.2999 41.7 60.9999 51.3 60.9999 61.9C60.9999 62.3 60.9999 62.7 60.9999 63.1C60.8999 64.6 60.7999 67.9 57.7999 67.9ZM22.0999 14.3C22.0999 14.5 21.9999 14.9 22.0999 15.7C22.6999 24.9 28.6999 32.9 37.3999 36.1C38.1999 36.4 38.6999 37.1 38.6999 38C38.6999 38.9 38.1999 39.6 37.3999 39.9C28.1999 43.3 22.0999 52.2 22.0999 61.9C22.0999 62.2 22.0999 62.5 22.0999 62.8C22.1999 65.7 22.8999 65.9 23.4999 65.9H57.8999C58.5999 65.9 58.9999 65.4 59.0999 63C59.0999 62.6 59.0999 62.3 59.0999 61.9C59.0999 52.1 52.9999 43.3 43.7999 39.9C42.9999 39.6 42.4999 38.9 42.4999 38.1C42.4999 37.3 42.9999 36.5 43.7999 36.2C52.3999 32.9 58.3999 24.9 58.9999 15.7C58.9999 15 58.9999 14.6 58.9999 14.3H22.0999Z" fill="#F2F2F2"/>
<path d="M60 61.9C60 62.3 60 62.7 60 63C59.9 64.9 59.7 66.9 57.8 66.9H23.4C21.4 66.9 21.1 64.8 21 62.8C21 62.5 21 62.1 21 61.8C21 51.3 27.6 42.3 37 38.8C37.9 38.5 37.9 37.3 37 37C28.2 33.8 21.8 25.5 21.1 15.7C21.1 14.9 21 13.3 21.9 13.3H59.3C60.2 13.3 60.1 14.9 60 15.8C59.4 25.6 52.9 33.8 44.1 37.1C43.2 37.4 43.2 38.6 44.1 38.9C53.4 42.4 60 51.3 60 61.9Z" fill="white"/>
<path d="M57.7999 67.9H23.3999C20.1999 67.9 20.0999 64.3 20.0999 62.9C20.0999 62.6 20.0999 62.2 20.0999 61.9C20.0999 51.3 26.7999 41.7 36.6999 38C27.2999 34.5 20.7999 25.8 20.0999 15.8C19.9999 14.7 20.0999 13.5 20.6999 12.8C20.9999 12.4 21.3999 12.3 21.8999 12.3H59.2999C59.6999 12.3 60.0999 12.5 60.3999 12.8C61.0999 13.5 60.9999 14.7 60.9999 15.8C60.2999 25.8 53.7999 34.5 44.3999 38C54.2999 41.7 60.9999 51.3 60.9999 61.9C60.9999 62.3 60.9999 62.7 60.9999 63.1C60.8999 64.6 60.7999 67.9 57.7999 67.9ZM22.0999 14.3C22.0999 14.5 21.9999 14.9 22.0999 15.7C22.6999 24.9 28.6999 32.9 37.3999 36.1C38.1999 36.4 38.6999 37.1 38.6999 38C38.6999 38.9 38.1999 39.6 37.3999 39.9C28.1999 43.3 22.0999 52.2 22.0999 61.9C22.0999 62.2 22.0999 62.5 22.0999 62.8C22.1999 65.7 22.8999 65.9 23.4999 65.9H57.8999C58.5999 65.9 58.9999 65.4 59.0999 63C59.0999 62.6 59.0999 62.3 59.0999 61.9C59.0999 52.1 52.9999 43.3 43.7999 39.9C42.9999 39.6 42.4999 38.9 42.4999 38.1C42.4999 37.3 42.9999 36.5 43.7999 36.2C52.3999 32.9 58.3999 24.9 58.9999 15.7C58.9999 15 58.9999 14.6 58.9999 14.3H22.0999Z" fill="white"/>
<path d="M57.1 26.6C56.9 26.6 56.8 26.6 56.6 26.5C56.1 26.2 55.9 25.6 56.2 25.1C57.5 22.6 58.4 19.9 58.8 17.1C58.9 16.6 59.4 16.2 59.9 16.2C60.4 16.3 60.8 16.8 60.8 17.3C60.4 20.3 59.5 23.2 58 25.9C57.8 26.4 57.5 26.6 57.1 26.6Z" fill="#ABA6E2"/>
<path d="M36.1 37.7C36 37.7 35.8 37.7 35.7 37.6C32.5 36.3 22.2 30.9 20.3 17.5C20.2 16.9 20.6 16.4 21.1 16.3C21.6 16.2 22.2 16.6 22.2 17.1C24 29.6 33.6 34.5 36.4 35.7C36.9 35.9 37.1 36.5 36.9 37C36.8 37.4 36.4 37.7 36.1 37.7Z" fill="#ABA6E2"/>
<path d="M21.2 60.6C21.1 60.6 21.1 60.6 21.2 60.6C20.6 60.5 20.2 60.1 20.2 59.5C21.1 50.2 26.9 42.2 35.5 38.4C36 38.2 36.5999 38.4 36.7999 38.9C37 39.4 36.7999 40 36.2999 40.2C28.2999 43.7 22.9 51.1 22.2 59.7C22.1 60.2 21.7 60.6 21.2 60.6Z" fill="#ABA6E2"/>
<path d="M21.1 63.9C20.6 63.9 20.1 63.4 20.1 62.8C20.1 62.3 20.5 61.7 21.1 61.7C21.6 61.7 22.1 62.2 22.1 62.8C22.1 63.4 21.6 63.9 21.1 63.9Z" fill="#ABA6E2"/>
<path d="M57.8 52.7C57.4 52.7 57.1 52.5 56.9 52.1C54.5 46.8 50.2 42.6 44.8 40.2C44.3 40 44.1 39.4 44.3 38.9C44.5 38.4 45.1 38.2 45.6 38.4C51.4 40.9 56.1 45.5 58.7 51.3C58.9 51.8 58.7 52.4 58.2 52.6C58.1 52.7 58 52.7 57.8 52.7Z" fill="#ABA6E2"/>
<path d="M55.7999 28.9C55.5999 28.9 55.4 28.8 55.2 28.7C54.7 28.4 54.6 27.8 54.9 27.3C55.2 26.8 55.7999 26.7 56.2999 27C56.7999 27.3 56.8999 27.9 56.5999 28.4C56.3999 28.7 56.0999 28.9 55.7999 28.9Z" fill="#ABA6E2"/>
<path d="M40.6 34.7C39.8 34.7 39 34.6 38.3 34.3L38.2001 34.2C36.4001 33.5 34.8 32.7 33.3 31.6H48C46.5 32.7 44.8 33.6 43.1 34.2H43C42.2 34.6 41.4001 34.7 40.6 34.7Z" fill="#01C9C7"/>
<path d="M40.6 35.7C39.7 35.7 38.8 35.5 37.9 35.2L37.7 35.1C35.9 34.4 34.1 33.5 32.5 32.4C32.1 32.1 32 31.7 32.1 31.3C32.2 30.9 32.6 30.6 33.1 30.6H48C48.4 30.6 48.8 30.9 49 31.3C49.1 31.7 49 32.2 48.6 32.4C47 33.5 45.3 34.4 43.4 35.1C42.4 35.5 41.5 35.7 40.6 35.7ZM36.8 32.6C37.3 32.8 37.8 33.1 38.4 33.3L38.6 33.4C39.9 33.9 41.4 33.9 42.6 33.4H42.7C43.3 33.2 43.8 33 44.3 32.7H36.8V32.6Z" fill="#01C9C7"/>
<path d="M57.8 67.1L41.6 52.9C41 52.4 40.2 52.4 39.6 52.9L23.4 67.1H57.8Z" fill="#01C9C7"/>
<path d="M57.8 68.1H23.4C23 68.1 22.6 67.8 22.5 67.5C22.4 67.1 22.5 66.7 22.8 66.4L39 52.2C39.9 51.4 41.3 51.4 42.3 52.2L58.6 66.4C58.9 66.7 59 67.1 58.9 67.5C58.8 67.9 58.2 68.1 57.8 68.1ZM26 66.1H55.1L40.9 53.7C40.7 53.5 40.4 53.5 40.3 53.7L26 66.1Z" fill="#01C9C7"/>
<path d="M63.2 12.6C63.2 13.5 62.5 14.2 61.6 14.2H18.6C17.7 14.1 17 13.4 17 12.6C17 11.7 17.7 11 18.6 11H61.7C62.5 11 63.2 11.7 63.2 12.6Z" fill="#3B058E"/>
<path d="M61.7 15.1H18.6C17.2 15.1 16 14 16 12.6C16 11.2 17.2 10 18.6 10H61.7C63.1 10 64.3 11.2 64.3 12.6C64.3 14 63.1 15.1 61.7 15.1ZM18.6 12C18.3 12 18 12.3 18 12.6C18 12.9 18.3 13.2 18.6 13.2H61.7C62 13.2 62.3 12.9 62.3 12.6C62.3 12.3 62 12 61.7 12H18.6Z" fill="#3B058E"/>
<path d="M63.2 67.9C63.2 68.8 62.5 69.5 61.6 69.5H18.6C17.7 69.5 17 68.8 17 67.9C17 67 17.7 66.3 18.6 66.3H61.7C62.5 66.4 63.2 67.1 63.2 67.9Z" fill="#3B058E"/>
<path d="M61.7 70.5H18.6C17.2 70.5 16 69.3 16 67.9C16 66.5 17.2 65.3 18.6 65.3H61.7C63.1 65.3 64.3 66.5 64.3 67.9C64.3 69.3 63.1 70.5 61.7 70.5ZM18.6 67.4C18.3 67.4 18 67.7 18 68C18 68.3 18.3 68.6 18.6 68.6H61.7C62 68.6 62.3 68.3 62.3 68C62.3 67.7 62 67.4 61.7 67.4H18.6Z" fill="#3B058E"/>
<path d="M40.5 39.1C40.4 39.1 40.4 39.1 40.3 39.1C40.2 39.1 40.2 39.1 40.1 39H40L39.9 38.9C39.7 38.7 39.6 38.4 39.6 38.2C39.6 37.9 39.7 37.7 39.9 37.5L40 37.4C40.1 37.4 40.1 37.3 40.2 37.3C40.3 37.3 40.3 37.3 40.4 37.2C40.7 37.1 41.1 37.2 41.3 37.5C41.4 37.6 41.5 37.7 41.5 37.8C41.5 37.9 41.6 38 41.6 38.2C41.6 38.5 41.5 38.7 41.3 38.9C41.1 38.9 41 39 40.9 39C40.8 39.1 40.7 39.1 40.5 39.1Z" fill="#01C9C7"/>
<path d="M39.5 45.1C39.5 44.6 39.9 44.1 40.5 44.1C41 44.1 41.5 44.6 41.5 45.1C41.5 45.6 41 46.1 40.5 46.1C40 46.1 39.5 45.7 39.5 45.1ZM39.5 41.6C39.5 41.1 39.9 40.6 40.5 40.6C41 40.6 41.5 41.1 41.5 41.6C41.5 42.2 41 42.6 40.5 42.6C40 42.6 39.5 42.2 39.5 41.6Z" fill="#01C9C7"/>
<path d="M40.5 49.6C40.4 49.6 40.4 49.6 40.3 49.6C40.2 49.6 40.2 49.6 40.1 49.6C40 49.6 40 49.5 39.9 49.5L39.8 49.4C39.6 49.2 39.5 48.9 39.5 48.7C39.5 48.6 39.5 48.6 39.5 48.5C39.5 48.4 39.5 48.4 39.6 48.3C39.6 48.2 39.7 48.1 39.8 48L39.9 47.9C40 47.9 40 47.8 40.1 47.8C40.2 47.8 40.2 47.7 40.3 47.7C40.5 47.7 40.7 47.7 40.9 47.8C41 47.8 41.1 47.9 41.2 48C41.2 48 41.3 48.1 41.3 48.2C41.3 48.2 41.4 48.3 41.4 48.4C41.4 48.5 41.4 48.5 41.5 48.6C41.5 48.7 41.5 48.7 41.5 48.8C41.5 49.1 41.4 49.3 41.2 49.5C41.1 49.5 40.8 49.6 40.5 49.6Z" fill="#01C9C7"/>
</g>
<defs>
<clipPath id="clip0">
<rect width="48.2" height="60.5" fill="white" transform="translate(16 10)"/>
</clipPath>
</defs>
</svg>
