<svg width="32" height="32" viewBox="0 0 32 32" fill="none" xmlns="http://www.w3.org/2000/svg">
<rect width="32" height="32" rx="16" fill="white"/>
<path fill-rule="evenodd" clip-rule="evenodd" d="M7 16C7 11.0294 11.0294 7 16 7C16.5523 7 17 6.55228 17 6C17 5.44772 16.5523 5 16 5C9.92487 5 5 9.92487 5 16C5 16.5523 5.44772 17 6 17C6.55228 17 7 16.5523 7 16ZM27 16C27 15.4477 26.5523 15 26 15C25.4477 15 25 15.4477 25 16C25 20.9706 20.9706 25 16 25C15.4477 25 15 25.4477 15 26C15 26.5523 15.4477 27 16 27C22.0751 27 27 22.0751 27 16ZM16 11C13.2386 11 11 13.2386 11 16C11 16.5523 10.5523 17 10 17C9.44772 17 9 16.5523 9 16C9 12.134 12.134 9 16 9C16.5523 9 17 9.44772 17 10C17 10.5523 16.5523 11 16 11ZM22 15C22.5523 15 23 15.4477 23 16C23 19.866 19.866 23 16 23C15.4477 23 15 22.5523 15 22C15 21.4477 15.4477 21 16 21C18.7614 21 21 18.7614 21 16C21 15.4477 21.4477 15 22 15ZM15.2929 15.2929C14.9024 15.6834 14.9024 16.3166 15.2929 16.7071C15.6834 17.0977 16.3166 17.0977 16.7071 16.7071C17.0976 16.3166 17.0976 15.6834 16.7071 15.2929C16.3166 14.9024 15.6834 14.9024 15.2929 15.2929ZM13.8787 13.8787C15.0503 12.7071 16.9497 12.7071 18.1213 13.8787C19.2929 15.0503 19.2929 16.9498 18.1213 18.1213C16.9497 19.2929 15.0503 19.2929 13.8787 18.1213C12.7071 16.9498 12.7071 15.0503 13.8787 13.8787Z" fill="currentColor"/>
</svg>
