<svg width="15" height="15" viewBox="0 0 15 15" fill="none" xmlns="http://www.w3.org/2000/svg">
<mask id="path-1-inside-1" fill="white">
<path fill-rule="evenodd" clip-rule="evenodd" d="M9.15262 0.293856C8.57996 -0.278804 7.59968 0.0311935 7.46041 0.82899L7.18898 2.3838L3.17229 6.40049L1.61824 6.67178C0.82044 6.81106 0.510444 7.79133 1.0831 8.36399L3.04487 10.3258L0.196619 13.174C-0.0655398 13.4362 -0.0655398 13.8612 0.196619 14.1234C0.458779 14.3855 0.883823 14.3855 1.14598 14.1234L3.99423 11.2751L5.95568 13.2366C6.52834 13.8092 7.50861 13.4992 7.64789 12.7014L7.91922 11.1472L11.9366 7.12984L13.4901 6.85864C14.2879 6.71936 14.5978 5.73909 14.0252 5.16643L9.15262 0.293856Z"/>
</mask>
<path fill-rule="evenodd" clip-rule="evenodd" d="M9.15262 0.293856C8.57996 -0.278804 7.59968 0.0311935 7.46041 0.82899L7.18898 2.3838L3.17229 6.40049L1.61824 6.67178C0.82044 6.81106 0.510444 7.79133 1.0831 8.36399L3.04487 10.3258L0.196619 13.174C-0.0655398 13.4362 -0.0655398 13.8612 0.196619 14.1234C0.458779 14.3855 0.883823 14.3855 1.14598 14.1234L3.99423 11.2751L5.95568 13.2366C6.52834 13.8092 7.50861 13.4992 7.64789 12.7014L7.91922 11.1472L11.9366 7.12984L13.4901 6.85864C14.2879 6.71936 14.5978 5.73909 14.0252 5.16643L9.15262 0.293856Z" fill="white"/>
<path d="M7.46041 0.82899L8.44551 1.00096V1.00096L7.46041 0.82899ZM9.15262 0.293856L9.85972 -0.413251V-0.413251L9.15262 0.293856ZM7.18898 2.3838L7.89608 3.0909L8.11969 2.86729L8.17408 2.55577L7.18898 2.3838ZM3.17229 6.40049L3.34426 7.38559L3.65578 7.3312L3.8794 7.10759L3.17229 6.40049ZM1.61824 6.67178L1.44626 5.68668H1.44626L1.61824 6.67178ZM1.0831 8.36399L1.79021 7.65688H1.79021L1.0831 8.36399ZM3.04487 10.3258L3.75198 11.0329L4.45908 10.3258L3.75198 9.61865L3.04487 10.3258ZM0.196619 13.174L-0.510487 12.4669L0.196619 13.174ZM0.196619 14.1234L0.903726 13.4163L0.196619 14.1234ZM1.14598 14.1234L1.85309 14.8305L1.14598 14.1234ZM3.99423 11.2751L4.70134 10.568L3.99423 9.86091L3.28712 10.568L3.99423 11.2751ZM5.95568 13.2366L5.24857 13.9437H5.24857L5.95568 13.2366ZM7.64789 12.7014L6.66278 12.5295V12.5295L7.64789 12.7014ZM7.91922 11.1472L7.21211 10.4401L6.9885 10.6637L6.93411 10.9752L7.91922 11.1472ZM11.9366 7.12984L11.7646 6.14474L11.4531 6.19912L11.2295 6.42273L11.9366 7.12984ZM13.4901 6.85864L13.3181 5.87354H13.3181L13.4901 6.85864ZM14.0252 5.16643L13.3181 5.87354L13.3181 5.87354L14.0252 5.16643ZM8.44551 1.00096L8.44551 1.00096L9.85972 -0.413251C8.7144 -1.55857 6.75385 -0.938575 6.4753 0.657017L8.44551 1.00096ZM8.17408 2.55577L8.44551 1.00096L6.4753 0.657017L6.20388 2.21182L8.17408 2.55577ZM3.8794 7.10759L7.89608 3.0909L6.48187 1.67669L2.46518 5.69338L3.8794 7.10759ZM1.79021 7.65688L3.34426 7.38559L3.00032 5.41538L1.44626 5.68668L1.79021 7.65688ZM1.79021 7.65688L1.79021 7.65688L1.44626 5.68668C-0.149329 5.96523 -0.769322 7.92578 0.375997 9.0711L1.79021 7.65688ZM3.75198 9.61865L1.79021 7.65688L0.375996 9.0711L2.33776 11.0329L3.75198 9.61865ZM0.903726 13.8811L3.75198 11.0329L2.33776 9.61865L-0.510487 12.4669L0.903726 13.8811ZM0.903726 13.4163C1.03209 13.5446 1.03209 13.7527 0.903726 13.8811L-0.510487 12.4669C-1.16317 13.1196 -1.16317 14.1778 -0.510487 14.8305L0.903726 13.4163ZM0.438876 13.4163C0.567241 13.2879 0.775361 13.2879 0.903726 13.4163L-0.510487 14.8305C0.142196 15.4832 1.20041 15.4832 1.85309 14.8305L0.438876 13.4163ZM3.28712 10.568L0.438876 13.4163L1.85309 14.8305L4.70134 11.9822L3.28712 10.568ZM6.66278 12.5295L4.70134 10.568L3.28712 11.9822L5.24857 13.9437L6.66278 12.5295ZM6.66278 12.5295L5.24857 13.9437C6.39389 15.089 8.35444 14.469 8.63299 12.8734L6.66278 12.5295ZM6.93411 10.9752L6.66278 12.5295L8.63299 12.8734L8.90432 11.3192L6.93411 10.9752ZM11.2295 6.42273L7.21211 10.4401L8.62632 11.8543L12.6437 7.83694L11.2295 6.42273ZM13.3181 5.87354L11.7646 6.14474L12.1085 8.11494L13.662 7.84374L13.3181 5.87354ZM13.3181 5.87354V5.87354L13.662 7.84374C15.2576 7.56519 15.8776 5.60464 14.7323 4.45932L13.3181 5.87354ZM8.44551 1.00096L13.3181 5.87354L14.7323 4.45932L9.85972 -0.413251L8.44551 1.00096Z" fill="white" mask="url(#path-1-inside-1)"/>
</svg>
