<svg width="100%" height="100%" viewBox="0 0 1100 1100" fill="none" xmlns="http://www.w3.org/2000/svg">
  <g opacity="0.6">
    <mask id="mask0" mask-type="alpha" maskUnits="userSpaceOnUse" x="0" y="0" width="1100" height="1100">
      <circle cx="550" cy="550" r="550" fill="url(#paint0_radial)" />
    </mask>
    <g mask="url(#mask0)" fill="currentColor">
      <path opacity="0.6" d="M550.5 549.85L1090.59 454.55C1083.58 414.959 1072.55 377.119 1057.83 341.381C1084.28 405.674 1098.82 475.922 1098.82 549.85L550.5 549.85Z" />
      <path opacity="0.6" d="M10.4088 645.15C16.8906 682.114 27.0513 717.501 40.19 751.311C15.4891 688.771 2 620.975 2 549.85L550.5 549.85L10.4088 645.15Z" />
      <path opacity="0.6" d="M550.5 549.851L1025.42 275.688C1015.96 259.221 1005.63 243.454 994.765 228.213C1002.47 238.724 1009.66 249.586 1016.66 260.622C1017.71 262.199 1018.59 263.776 1019.64 265.352C1020.52 266.929 1021.57 268.506 1022.44 270.082C1024.02 272.71 1025.6 275.338 1027.17 278.141C1042.24 304.593 1055.2 332.623 1066.07 362.229L550.5 549.851Z" />
      <path opacity="0.6" d="M75.5771 824.013C85.037 840.48 95.3728 856.247 106.234 871.488C98.5261 860.977 91.3436 850.115 84.3362 839.079C84.1611 838.728 83.9859 838.553 83.8107 838.203C83.2851 837.327 82.5844 836.451 82.0589 835.4C81.8837 835.05 81.5333 834.524 81.3581 834.174C80.4822 832.597 79.4311 831.02 78.5552 829.444C76.9785 826.816 75.4019 824.188 73.8252 821.385C58.7594 794.932 45.7958 766.903 34.9344 737.297L550.325 549.675L75.5771 824.013Z" />
      <path opacity="0.6" d="M970.765 197.206L550.5 549.851L903.144 129.585L905.772 131.863C907.174 133.089 908.75 134.491 910.152 135.717C913.48 138.695 916.984 141.673 920.312 144.651C923.29 147.279 926.093 150.082 929.072 152.71C930.298 153.761 931.349 154.987 932.575 156.038C932.75 156.213 932.75 156.213 932.926 156.389C933.977 157.44 935.028 158.491 936.079 159.542C938.356 161.819 940.809 164.097 943.086 166.549C943.962 167.425 945.013 168.476 945.889 169.527C946.765 170.403 947.641 171.279 948.342 172.155C948.867 172.856 949.568 173.381 950.094 174.082C950.619 174.608 951.145 175.133 951.67 175.834C952.896 177.06 953.948 178.287 955.174 179.513C958.677 183.367 962.181 187.221 965.685 191.25C966.561 192.301 967.437 193.177 968.313 194.228C969.013 195.279 969.889 196.33 970.765 197.206Z" />
      <path opacity="0.6" d="M550.5 549.85L197.855 970.116C193.651 966.612 189.446 962.933 185.242 959.254C183.665 957.853 182.089 956.451 180.687 955.05C179.286 953.648 177.709 952.422 176.308 951.021C174.906 949.619 173.505 948.393 171.928 946.991C169.651 944.714 167.198 942.437 164.921 940.159C162.643 937.882 160.191 935.605 157.913 933.152C157.037 932.101 155.986 931.225 155.11 930.174C154.234 929.298 153.359 928.422 152.658 927.546C152.132 926.845 151.431 926.32 150.906 925.619C150.38 925.093 149.855 924.568 149.329 923.867C148.103 922.641 147.052 921.415 145.826 920.188C142.322 916.334 138.818 912.48 135.315 908.451C134.439 907.4 133.563 906.524 132.687 905.473C131.811 904.422 130.935 903.546 130.059 902.495L550.5 549.85Z" />
      <path opacity="0.6" d="M824.837 74.9284L550.5 549.851L738.121 34.4609C743.727 36.5631 749.158 38.6653 754.764 40.7675C755.815 41.1179 756.691 41.6435 757.742 41.9938C759.669 42.8698 761.771 43.5705 763.698 44.4464C767.727 46.1982 771.581 47.7749 775.435 49.5267C775.611 49.5267 775.786 49.7019 775.961 49.7019C777.187 50.2275 778.413 50.753 779.465 51.2786C779.99 51.6289 780.691 51.8041 781.216 52.1545C782.793 52.8552 784.37 53.556 785.946 54.2567C788.049 55.3078 790.326 56.3589 792.428 57.41C793.304 57.7604 794.005 58.2859 794.881 58.6363C795.581 58.9867 796.282 59.337 797.158 59.6874C799.611 60.9137 802.063 62.14 804.341 63.3662C805.917 64.2422 807.319 64.9429 808.895 65.8188C809.771 66.3444 810.822 66.8699 811.698 67.3955C814.677 68.9721 817.655 70.724 820.633 72.3006C821.333 72.651 822.034 73.0013 822.735 73.5269C823.436 74.0524 824.136 74.4028 824.837 74.9284Z" />
      <path opacity="0.6" d="M550.5 549.85L362.878 1065.24C357.272 1063.14 351.842 1061.04 346.236 1058.93C345.185 1058.58 344.309 1058.06 343.258 1057.71C341.331 1056.83 339.228 1056.13 337.301 1055.25C333.272 1053.68 329.418 1051.93 325.564 1050.17C325.389 1050.17 325.214 1050 325.038 1050C323.812 1049.47 322.586 1048.95 321.535 1048.42C321.009 1048.07 320.308 1047.9 319.783 1047.55C318.206 1046.85 316.63 1046.15 315.053 1045.44C312.951 1044.39 310.673 1043.34 308.571 1042.29C308.046 1041.94 307.345 1041.77 306.819 1041.42C306.294 1041.07 305.593 1040.71 305.068 1040.54C302.965 1039.49 300.863 1038.44 298.936 1037.39C298.235 1037.04 297.535 1036.69 296.834 1036.34C295.257 1035.46 293.856 1034.76 292.279 1033.88C291.403 1033.36 290.352 1032.83 289.476 1032.31C287.9 1031.43 286.323 1030.55 284.571 1029.68C283.17 1028.98 281.943 1028.1 280.542 1027.4C279.841 1027.05 279.14 1026.7 278.44 1026.17C277.739 1025.82 277.038 1025.47 276.337 1024.95L550.5 549.85Z" />
      <path opacity="0.6" d="M645.8 9.7594L550.5 549.851L550.5 1.35059C552.777 1.35059 555.23 1.35059 557.507 1.35059C557.857 1.35059 558.208 1.35059 558.558 1.35059C560.66 1.35059 562.762 1.35059 564.865 1.52577C566.792 1.52577 568.719 1.70095 570.821 1.70095C570.996 1.70095 570.996 1.70095 571.171 1.70095C572.222 1.70095 573.274 1.87614 574.325 1.87614C574.675 1.87614 574.85 1.87614 575.201 1.87614C576.602 1.87614 578.179 2.05132 579.58 2.05132C582.733 2.2265 585.712 2.40169 588.865 2.57687C590.266 2.75205 591.843 2.75205 593.244 2.92724C593.42 2.92724 593.595 2.92724 593.77 2.92724H593.945C594.296 2.92724 594.646 2.92724 594.821 2.92724C595.522 2.92724 596.223 3.10242 596.923 3.10242C597.624 3.10242 598.5 3.27761 599.201 3.27761C599.901 3.27761 600.777 3.45279 601.478 3.45279L605.858 3.80316C606.383 3.80316 606.909 3.97834 607.434 3.97834C607.434 3.97834 607.434 3.97834 607.61 3.97834C607.96 3.97834 608.135 3.97834 608.485 3.97834C608.485 3.97834 608.485 3.97834 608.661 3.97834C611.113 4.15352 613.391 4.50389 615.668 4.85426C619.697 5.37981 623.726 5.90536 627.756 6.43091C630.033 6.78128 632.31 7.13165 634.588 7.48201C636.865 7.83238 639.143 8.18275 641.42 8.53311C642.646 9.23385 644.223 9.40903 645.8 9.7594Z" />
      <path opacity="0.6" d="M550.5 549.85L550.5 1098.35C548.222 1098.35 545.77 1098.35 543.492 1098.35C543.142 1098.35 542.792 1098.35 542.441 1098.35C540.339 1098.35 538.237 1098.35 536.135 1098.17C534.208 1098.17 532.281 1098 530.178 1098C530.003 1098 530.003 1098 529.828 1098C528.777 1098 527.726 1098 526.675 1097.82C524.923 1097.82 523.171 1097.65 521.419 1097.65C518.266 1097.47 515.288 1097.3 512.134 1097.12C511.609 1097.12 511.083 1097.12 510.558 1096.95C510.032 1096.95 509.507 1096.95 508.981 1096.77C508.28 1096.77 507.404 1096.6 506.704 1096.6C506.353 1096.6 505.828 1096.6 505.477 1096.6C504.952 1096.6 504.426 1096.6 504.076 1096.42C503.375 1096.42 502.499 1096.25 501.799 1096.25C501.098 1096.25 500.222 1096.07 499.521 1096.07C497.244 1095.9 494.791 1095.55 492.514 1095.37C490.061 1095.02 487.784 1094.85 485.506 1094.5C481.477 1093.97 477.448 1093.44 473.419 1092.92C471.141 1092.57 468.864 1092.22 466.587 1091.87C464.309 1091.52 462.032 1091.17 459.754 1090.82C458.178 1090.47 456.776 1090.29 455.2 1089.94L550.5 549.85Z" />
      <path opacity="0.6" d="M550.5 549.85L362.878 34.4599C364.28 33.9344 365.681 33.4088 367.258 32.8833C367.783 32.7081 368.309 32.5329 368.834 32.3577C369.36 32.1825 369.71 32.0074 370.236 31.8322C371.637 31.3066 373.214 30.7811 374.615 30.2555C376.542 29.5548 378.469 29.0292 380.396 28.3285C382.323 27.6278 384.25 27.1022 386.177 26.5767C401.243 21.8467 416.659 17.6423 432.076 14.3138C433.477 13.9634 434.703 13.7883 436.105 13.4379C438.733 12.9123 441.36 12.3868 443.988 11.8612C447.842 11.1605 451.521 10.4598 455.375 9.75903L550.5 549.85Z" />
      <path opacity="0.6" d="M550.499 549.851L197.855 129.586C198.03 129.41 198.205 129.235 198.555 129.06C198.731 128.885 199.081 128.71 199.256 128.535C199.957 128.009 200.482 127.483 201.183 126.958C201.884 126.432 202.76 125.732 203.461 125.031C203.811 124.856 203.986 124.505 204.337 124.33C205.738 123.279 206.964 122.228 208.366 121.177C208.541 121.002 208.716 120.826 208.891 120.651C209.242 120.301 209.767 119.951 210.293 119.6C211.519 118.724 212.745 117.673 213.972 116.797C215.198 115.921 216.424 114.87 217.65 113.994C219.402 112.593 221.154 111.367 223.081 109.965C233.767 102.082 244.629 94.5489 255.841 87.3664C256.541 87.016 257.242 86.4905 257.768 86.1401C259.344 85.089 261.096 84.0379 262.673 82.9868C264.249 81.9357 266.001 80.8846 267.578 80.0087C270.03 78.6072 272.483 77.0306 274.936 75.6291C275.461 75.2787 275.987 75.1035 276.337 74.7532L550.499 549.851Z" />
      <path opacity="0.6" d="M550.5 549.851L75.5773 275.514C83.9861 261.149 92.7453 247.134 102.205 233.82C103.607 231.893 104.833 229.966 106.234 228.214C106.935 227.338 107.461 226.462 108.161 225.586C110.439 222.608 112.716 219.455 114.994 216.477C119.899 209.995 125.154 203.688 130.41 197.382L550.5 549.851Z" />
      <path opacity="0.6" d="M550.5 549.85L10.4088 454.55C17.4162 414.958 28.4527 377.119 43.1682 341.381V341.206C44.0441 339.104 44.92 336.827 45.9711 334.724C47.1974 331.921 48.4237 328.943 49.65 326.14C50.0003 325.44 50.1755 324.739 50.5259 324.213C51.2266 322.812 51.7522 321.41 52.4529 320.009C56.4821 311.425 60.6865 302.841 65.0661 294.432C66.1172 292.505 67.1683 290.578 68.2194 288.651C69.0953 286.899 70.1465 285.147 71.0224 283.396C71.8983 281.644 72.9494 280.067 74.0005 278.315C58.9347 304.768 45.9711 332.797 35.1097 362.403L550.5 549.85Z" />
      <path opacity="0.6" d="M738.122 1065.24C736.72 1065.77 735.319 1066.29 733.742 1066.82C733.216 1066.99 732.691 1067.17 732.165 1067.34C731.64 1067.52 731.114 1067.69 730.764 1067.87C729.362 1068.39 727.786 1068.92 726.384 1069.45C724.457 1070.15 722.53 1070.67 720.603 1071.37C718.676 1071.9 716.749 1072.6 714.822 1073.12C699.756 1077.85 684.34 1081.88 668.924 1085.39C667.522 1085.74 666.296 1085.91 664.895 1086.26C662.267 1086.79 659.639 1087.31 657.011 1087.84C653.157 1088.54 649.479 1089.24 645.625 1089.94L550.325 549.85L738.122 1065.24Z" />
      <path opacity="0.6" d="M903.144 970.116C902.969 970.291 902.794 970.466 902.444 970.641C901.568 971.517 900.517 972.218 899.641 972.918C898.765 973.619 898.064 974.32 897.188 975.021C895.787 976.247 894.385 977.298 892.808 978.524C892.633 978.699 892.458 978.875 892.283 979.05C891.933 979.4 891.407 979.751 890.881 980.101C889.48 981.152 888.254 982.203 886.852 983.254C886.677 983.429 886.502 983.605 886.327 983.78C885.801 984.13 885.276 984.481 884.925 984.831C884.575 985.181 884.049 985.532 883.699 985.707C883.349 985.882 883.173 986.232 882.823 986.408C880.721 987.984 878.443 989.736 876.166 991.313C875.29 992.013 874.414 992.539 873.538 993.24C860.925 1002.52 847.786 1011.11 834.472 1019.17C832.72 1020.22 831.144 1021.09 829.392 1022.15C827.815 1023.02 826.414 1023.9 824.837 1024.77L550.5 549.85L903.144 970.116Z" />
      <path opacity="0.6" d="M1025.42 824.013C1017.01 838.378 1008.25 852.392 998.794 865.706C997.393 867.633 996.167 869.56 994.765 871.312C993.189 873.414 991.787 875.517 990.21 877.619C990.21 877.619 990.035 877.794 990.035 877.969C988.634 879.721 987.408 881.473 986.006 883.225C981.101 889.706 975.845 896.013 970.59 902.32L550.5 549.85L1025.42 824.013Z" />
      <path opacity="0.6" d="M1090.59 645.15C1084.46 679.836 1075.17 713.121 1063.26 744.829C1062.39 746.932 1061.69 749.034 1060.81 751.136C1059.93 753.414 1059.06 755.691 1058.01 757.968C1057.31 759.72 1056.43 761.647 1055.73 763.399C1055.73 763.574 1055.73 763.574 1055.55 763.749C1054.85 765.326 1054.15 766.903 1053.45 768.479C1052.75 770.231 1052.05 771.808 1051.35 773.56C1051 774.26 1050.82 774.786 1050.47 775.487C1049.77 777.063 1049.07 778.64 1048.37 780.217C1047.85 781.443 1047.15 782.844 1046.62 784.071C1044.87 787.574 1043.29 791.078 1041.54 794.582C1040.66 796.158 1039.96 797.91 1039.09 799.487C1038.21 801.414 1037.16 803.166 1036.11 805.093C1035.06 806.845 1034.18 808.772 1033.13 810.699C1032.08 812.626 1031.03 814.553 1029.98 816.655C1029.1 818.407 1028.05 819.983 1027.17 821.735C1042.24 795.282 1055.2 767.253 1066.07 737.647L550.5 549.85L1090.59 645.15Z" />
    </g>
  </g>
  <defs>
    <radialGradient id="paint0_radial" cx="0" cy="0" r="1" gradientUnits="userSpaceOnUse" gradientTransform="translate(550 550) rotate(90) scale(550)">
      <stop offset="0.607961" />
      <stop offset="0.967358" stop-opacity="0" />
    </radialGradient>
  </defs>
</svg>