<svg viewBox="0 0 46 16" fill="none" xmlns="http://www.w3.org/2000/svg">
    <path
        d="M0.0776367 12.8857H0.241698C0.815914 12.8857 1.21435 12.7685 1.42529 12.5459C1.63622 12.3232 1.74169 11.831 1.74169 11.081V5.87793L2.3745 5.80762V11.081C2.3745 11.9834 2.22216 12.6045 1.92919 12.9443C1.63622 13.2841 1.10888 13.4599 0.370604 13.4599H0.265136L0.0776367 12.8857Z"
        fill="currentColor"></path>
    <path
        d="M7.13206 10.5537C6.89769 10.8935 6.62816 11.1513 6.33519 11.3154C6.0305 11.4795 5.70238 11.5732 5.32738 11.5732C4.70629 11.5732 4.23754 11.3857 3.88598 11.0107C3.54614 10.6357 3.37036 10.1084 3.37036 9.42869V5.87793L3.99145 5.80762V9.124C3.99145 9.76853 4.10864 10.249 4.35473 10.5654C4.60082 10.8818 4.9641 11.0459 5.45629 11.0459C5.9016 11.0459 6.30003 10.8818 6.62816 10.5537C6.95628 10.2256 7.12034 9.81541 7.12034 9.34666V5.87793L7.74143 5.80762V11.4326L7.12034 11.5029V10.5537H7.13206Z"
        fill="currentColor"></path>
    <path
        d="M12.007 9.499C12.4172 9.6865 12.7453 9.94431 12.9679 10.2724C13.1906 10.6006 13.3078 10.9756 13.3078 11.3857C13.3078 11.9951 13.0734 12.499 12.5929 12.9091C12.1125 13.3193 11.5148 13.5185 10.7883 13.5185C10.2726 13.5185 9.79217 13.4013 9.37029 13.1669C8.9367 12.9326 8.58514 12.5927 8.28046 12.1474L8.84295 11.7841C9.07733 12.1474 9.35858 12.4287 9.6867 12.6162C10.0148 12.8037 10.3781 12.8974 10.7765 12.8974C11.3039 12.8974 11.7375 12.7451 12.1125 12.4521C12.4757 12.1591 12.6632 11.7959 12.6632 11.374C12.6632 10.9287 12.4757 10.542 12.1125 10.2256C11.7492 9.90916 11.3039 9.75681 10.7765 9.75681C10.5656 9.75681 10.3429 9.78025 10.1086 9.83884C9.8742 9.89744 9.62811 9.99119 9.37029 10.1084L9.63982 9.40525C9.29998 9.21775 9.04217 8.97166 8.86639 8.67869C8.69061 8.38573 8.59686 8.06932 8.59686 7.71776C8.59686 7.15526 8.81952 6.68652 9.25311 6.31152C9.6867 5.93652 10.2258 5.7373 10.8703 5.7373C10.964 5.7373 11.0695 5.7373 11.1867 5.74902C11.3039 5.76074 11.4211 5.77246 11.55 5.78418C11.5734 5.78418 11.6086 5.7959 11.632 5.7959C11.6554 5.7959 11.7023 5.7959 11.7726 5.7959C11.9718 5.7959 12.1945 5.77246 12.4523 5.7373C12.6984 5.69043 13.05 5.62012 13.4836 5.51465L13.3429 5.94824C13.3078 6.06543 13.2492 6.14746 13.1906 6.19433C13.132 6.24121 13.05 6.25293 12.9445 6.25293C12.8859 6.25293 12.7218 6.22949 12.4406 6.19433C12.382 6.18261 12.3351 6.18261 12.3117 6.18261C12.6164 6.35839 12.8507 6.56933 13.0031 6.83886C13.1554 7.09667 13.2375 7.40136 13.2375 7.7412C13.2375 8.12791 13.132 8.47948 12.9211 8.78416C12.6984 9.07713 12.4054 9.32322 12.007 9.499ZM9.24139 7.72948C9.24139 8.13963 9.40545 8.47948 9.72185 8.76072C10.0383 9.04197 10.4367 9.1826 10.9172 9.1826C11.3976 9.1826 11.7961 9.04197 12.1125 8.76072C12.4289 8.47948 12.5929 8.13963 12.5929 7.71776C12.5929 7.33104 12.4289 7.00292 12.1125 6.73339C11.7843 6.46386 11.3976 6.32324 10.9289 6.32324C10.4601 6.32324 10.0617 6.46386 9.73357 6.73339C9.40545 7.01464 9.24139 7.34276 9.24139 7.72948Z"
        fill="currentColor"></path>
    <path
        d="M17.4799 10.858C17.2807 11.0807 17.058 11.2564 16.8002 11.3736C16.5541 11.4908 16.2729 11.5494 15.9799 11.5494C15.4174 11.5494 14.9369 11.3502 14.5385 10.9518C14.1401 10.5533 13.9409 10.0729 13.9409 9.51035C13.9409 8.94786 14.1401 8.46739 14.5385 8.06896C14.9369 7.67052 15.4174 7.4713 15.9799 7.4713C16.2612 7.4713 16.5307 7.5299 16.7885 7.63537C17.0463 7.74083 17.269 7.90489 17.4682 8.11583V7.41271C17.4682 7.02599 17.3744 6.74474 17.1752 6.55725C16.976 6.36975 16.683 6.28772 16.2729 6.28772C16.0385 6.28772 15.769 6.32287 15.4994 6.39318C15.2182 6.4635 14.9018 6.56896 14.5385 6.72131L14.7846 5.99475C15.0541 5.901 15.3237 5.83069 15.5815 5.78381C15.8393 5.73694 16.0971 5.7135 16.3315 5.7135C16.9408 5.7135 17.3744 5.85412 17.6557 6.13537C17.9369 6.41662 18.0776 6.86193 18.0776 7.4713V11.3971L17.4565 11.5377V10.858H17.4799ZM14.5971 9.51035C14.5971 9.92051 14.7377 10.2604 15.0073 10.5299C15.2885 10.7994 15.6401 10.94 16.0619 10.94C16.4838 10.94 16.8237 10.8111 17.0815 10.5416C17.3393 10.2721 17.4682 9.93223 17.4682 9.49864C17.4682 9.07676 17.3393 8.7252 17.0815 8.46739C16.8237 8.19786 16.4838 8.06896 16.0619 8.06896C15.6283 8.06896 15.2768 8.20958 14.9955 8.47911C14.7377 8.76036 14.5971 9.1002 14.5971 9.51035Z"
        fill="currentColor"></path>
    <path
        d="M19.2485 11.4911V5.86615L19.8696 5.79584V7.00286C20.0922 6.56927 20.3735 6.24115 20.6899 6.03021C21.018 5.80756 21.393 5.70209 21.8149 5.70209H21.9672L21.7094 6.31146C21.0766 6.37005 20.6078 6.6513 20.3149 7.14348C20.0102 7.63567 19.8578 8.36223 19.8578 9.33488V11.4325L19.2485 11.4911Z"
        fill="currentColor"></path>
    <path
        d="M22.7182 11.5379V5.67859H25.437C25.9643 5.67859 26.3745 5.81921 26.6791 6.08874C26.9838 6.35827 27.1362 6.73327 27.1362 7.1903C27.1362 7.47155 27.0776 7.71764 26.9487 7.91686C26.8198 8.12779 26.6206 8.30357 26.3627 8.46764C26.6674 8.60826 26.9018 8.79576 27.0541 9.01841C27.2065 9.25279 27.2885 9.53404 27.2885 9.86216C27.2885 10.3543 27.1127 10.7528 26.7729 11.0575C26.4331 11.3621 25.976 11.5145 25.4018 11.5145H22.7182V11.5379ZM24.5346 9.07701V10.1786H24.8628C25.0385 10.1786 25.1674 10.1317 25.2612 10.0379C25.3549 9.94419 25.4018 9.80357 25.4018 9.62779C25.4018 9.45201 25.3549 9.3231 25.2612 9.21763C25.1674 9.12388 25.0268 9.06529 24.8628 9.06529H24.5346V9.07701ZM24.5463 6.99108V7.97545H24.8276C24.9799 7.97545 25.0971 7.92858 25.1909 7.83483C25.2846 7.74108 25.3315 7.62389 25.3315 7.48327C25.3315 7.33092 25.2846 7.21374 25.2026 7.11999C25.1088 7.02624 24.9917 6.99108 24.8276 6.99108H24.5463Z"
        fill="currentColor"></path>
    <path d="M27.8748 11.6432V5.76044L29.7263 5.63153V11.4792L27.8748 11.6432Z" fill="currentColor"></path>
    <path
        d="M30.5457 11.5379V5.67859H33.7917L34.1433 7.23717H32.4089V7.77623H33.5105V9.29966H32.4089V9.8856H34.2605L33.8972 11.5379H30.5457Z"
        fill="currentColor"></path>
    <path
        d="M38.3153 8.42052C37.4481 7.75255 36.8388 6.79162 36.6044 5.67834H34.8114V11.6314L36.6044 11.5025V8.71348L38.3036 11.526H40.0966V9.26426C39.452 9.11192 38.8427 8.81895 38.3153 8.42052Z"
        fill="currentColor"></path>
    <path
        d="M41.1511 8.97139C43.481 8.97139 45.3698 7.0826 45.3698 4.75266C45.3698 2.42272 43.481 0.533936 41.1511 0.533936C38.8212 0.533936 36.9324 2.42272 36.9324 4.75266C36.9324 7.0826 38.8212 8.97139 41.1511 8.97139Z"
        fill="currentColor"></path>
    <path
        d="M38.6554 5.86548C38.7848 5.86548 38.8898 5.76054 38.8898 5.6311C38.8898 5.50166 38.7848 5.39673 38.6554 5.39673C38.526 5.39673 38.421 5.50166 38.421 5.6311C38.421 5.76054 38.526 5.86548 38.6554 5.86548Z"
        fill="#10083C"></path>
    <path
        d="M41.1283 5.60833C40.9877 5.71379 40.8471 5.78411 40.7182 5.83098C40.5776 5.87786 40.4369 5.90129 40.2963 5.90129C39.9799 5.90129 39.7104 5.79583 39.4995 5.58489C39.2885 5.37395 39.183 5.11614 39.183 4.79974C39.183 4.48333 39.2885 4.22552 39.4995 4.01459C39.7104 3.80365 39.9799 3.69818 40.2963 3.69818C40.4955 3.69818 40.6713 3.74506 40.8237 3.82709C40.976 3.90912 41.0932 4.03802 41.1752 4.20208L39.5229 5.17474C39.6049 5.32708 39.7104 5.44427 39.8393 5.5263C39.9682 5.60833 40.1205 5.6552 40.2963 5.6552C40.4252 5.6552 40.5659 5.63176 40.6948 5.57317C40.8237 5.51458 40.976 5.42083 41.1283 5.30364V5.60833ZM39.4409 4.98724L40.8237 4.16693C40.7651 4.09662 40.6948 4.03802 40.601 4.00287C40.5073 3.96771 40.4135 3.94427 40.2963 3.94427C40.0502 3.94427 39.851 4.0263 39.687 4.19037C39.5229 4.35443 39.4409 4.56536 39.4409 4.79974C39.4409 4.83489 39.4409 4.87005 39.4409 4.90521C39.4291 4.92864 39.4409 4.95208 39.4409 4.98724Z"
        fill="#10083C"></path>
    <path
        d="M41.5157 5.5844L41.6915 5.42034C41.7618 5.50237 41.8556 5.57268 41.9376 5.61956C42.0313 5.66643 42.1251 5.68987 42.2306 5.68987C42.3595 5.68987 42.4649 5.65471 42.547 5.5844C42.629 5.51409 42.6759 5.42034 42.6759 5.30315C42.6759 5.19768 42.6407 5.11565 42.5821 5.05706C42.5235 4.99847 42.4181 4.95159 42.254 4.91644C41.9845 4.84612 41.8087 4.77581 41.7149 4.68206C41.6212 4.58831 41.5743 4.47113 41.5743 4.30706C41.5743 4.143 41.6446 4.00238 41.7735 3.88519C41.9024 3.76801 42.0665 3.70941 42.2657 3.70941C42.3829 3.70941 42.5001 3.73285 42.6056 3.76801C42.711 3.80316 42.8048 3.86175 42.8985 3.94379L42.7462 4.143C42.6641 4.07269 42.5821 4.02582 42.5001 3.99066C42.4181 3.9555 42.336 3.93207 42.254 3.93207C42.1251 3.93207 42.0196 3.96722 41.9376 4.03753C41.8556 4.10785 41.8204 4.18988 41.8204 4.30706C41.8204 4.47113 41.961 4.58831 42.254 4.65863C42.3126 4.67034 42.3595 4.68206 42.3946 4.69378C42.5704 4.74066 42.711 4.82269 42.7931 4.91644C42.8868 5.01019 42.922 5.13909 42.922 5.27971C42.922 5.46721 42.8516 5.63128 42.7227 5.74846C42.5821 5.87737 42.4181 5.93596 42.2071 5.93596C42.0665 5.93596 41.9259 5.91252 41.8087 5.85393C41.7032 5.78362 41.5977 5.70159 41.5157 5.5844Z"
        fill="#10083C"></path>
    <path
        d="M14.3973 13.0847C14.3622 13.0964 14.327 13.1081 14.3036 13.1081C14.2919 13.1081 14.2567 13.0964 14.2216 13.0612C14.1864 13.0261 14.163 13.0026 14.163 12.9909C14.163 12.9792 14.1747 12.9675 14.1864 12.944C14.1981 12.9206 14.2098 12.9089 14.2216 12.9089C14.2567 12.9089 14.2802 12.9089 14.3153 12.9206C14.3622 12.9323 14.3856 12.9557 14.3856 12.9792V13.0847H14.3973ZM14.4676 14.9831C14.4676 15.0065 14.4559 15.03 14.4325 15.0417C14.4091 15.0534 14.3856 15.0651 14.3622 15.0651C14.3387 15.0651 14.3153 15.0534 14.2802 15.03C14.245 15.0065 14.2333 14.9831 14.2216 14.9596C14.1864 14.8659 14.1747 14.7253 14.1747 14.5612V14.1511C14.1747 13.8815 14.2098 13.694 14.2919 13.5768H14.3036C14.3387 13.5768 14.3739 13.5886 14.4091 13.6003C14.4559 13.6237 14.4676 13.6472 14.4676 13.6823C14.4676 13.7175 14.4559 13.7761 14.4325 13.8581C14.4091 13.9401 14.3973 13.9987 14.3973 14.0456C14.3973 14.28 14.3973 14.444 14.4091 14.5495C14.4091 14.5964 14.4208 14.6667 14.4442 14.7604C14.4676 14.8659 14.4676 14.9362 14.4676 14.9831Z"
        fill="currentColor"></path>
    <path
        d="M15.8264 13.7051C15.8264 13.8809 15.7795 14.0332 15.6975 14.1738C15.592 14.3379 15.4631 14.4199 15.2991 14.4199H15.135C15.1116 14.4199 15.0647 14.3965 14.9827 14.3379C14.7952 14.2207 14.7014 13.998 14.7014 13.6934C14.7014 13.5645 14.7717 13.5059 14.9241 13.5059C14.9358 13.5059 14.9475 13.5176 14.9592 13.541C14.9709 13.5644 14.9827 13.5762 14.9827 13.5879C14.9827 13.6113 14.9827 13.6348 14.9709 13.6816C14.9592 13.7168 14.9592 13.7519 14.9592 13.7754C14.9592 13.8691 14.9827 13.9629 15.0295 14.0684C15.0881 14.1973 15.1584 14.2676 15.2288 14.2676C15.2405 14.2676 15.2405 14.2676 15.2405 14.2793L15.2522 14.291C15.2991 14.291 15.3577 14.2441 15.428 14.1504C15.4866 14.0684 15.5334 13.998 15.5452 13.9394C15.5686 13.8457 15.5803 13.7637 15.5803 13.6699C15.5803 13.6465 15.5803 13.623 15.5686 13.5879C15.5569 13.5645 15.5569 13.5293 15.5452 13.5059C15.592 13.4707 15.6155 13.459 15.6389 13.459H15.6506H15.6623V13.4473H15.6741C15.7795 13.4355 15.8264 13.5176 15.8264 13.7051Z"
        fill="currentColor"></path>
    <path
        d="M16.9872 14.7605C16.9872 14.8777 16.9521 14.948 16.8935 14.9949C16.8466 15.03 16.7529 15.0417 16.6357 15.0417C16.6005 15.0417 16.5068 15.03 16.331 14.9949V14.9246C16.3427 14.9246 16.413 14.9246 16.5419 14.9246C16.5654 14.9246 16.6005 14.9128 16.6591 14.9011C16.7177 14.8894 16.7411 14.866 16.7529 14.8542C16.7646 14.8308 16.7646 14.7839 16.7646 14.7253C16.7411 14.6785 16.7294 14.6081 16.7177 14.5027C16.706 14.3972 16.6826 14.3269 16.6591 14.28C16.5888 14.3621 16.5068 14.3972 16.3896 14.3972C16.3076 14.3972 16.2138 14.3621 16.1435 14.2917C16.0615 14.2214 16.0263 14.1394 16.0263 14.0574C16.0263 13.9753 16.0497 13.8816 16.0849 13.7644C16.1318 13.6472 16.1787 13.5652 16.249 13.53C16.2841 13.5066 16.3661 13.4949 16.4951 13.4949C16.5185 13.4949 16.5654 13.5066 16.624 13.5417C16.6826 13.5652 16.7294 13.5886 16.7411 13.6121C16.7763 13.6589 16.7997 13.7292 16.7997 13.8113C16.7997 13.823 16.7997 13.8464 16.7997 13.8582C16.8349 13.8816 16.8583 13.9167 16.8701 13.9636C16.8701 13.9871 16.8818 14.0222 16.8818 14.1042C16.8818 14.1511 16.8818 14.2214 16.8935 14.3152C16.8935 14.3621 16.9052 14.4206 16.9286 14.491C16.9521 14.573 16.9638 14.6316 16.9638 14.6667C16.9638 14.6902 16.9638 14.7136 16.9755 14.7136C16.9638 14.7371 16.9755 14.7488 16.9872 14.7605ZM16.6005 13.9988C16.6005 13.9871 16.6005 13.9753 16.5888 13.9519C16.5771 13.9285 16.5771 13.9167 16.5771 13.905C16.5771 13.8933 16.5771 13.8699 16.5888 13.8464C16.6005 13.823 16.6005 13.7996 16.6005 13.7878C16.6005 13.7644 16.5771 13.7292 16.5419 13.7058C16.5068 13.6824 16.4716 13.6707 16.4365 13.6707C16.3779 13.6707 16.3193 13.7292 16.2607 13.8347C16.2138 13.9285 16.1904 14.0105 16.1904 14.0808C16.1904 14.116 16.2138 14.1394 16.249 14.1746C16.2841 14.2097 16.3193 14.2214 16.3544 14.2214C16.4013 14.2214 16.4482 14.198 16.5185 14.1394C16.5771 14.0925 16.6005 14.0457 16.6005 13.9988Z"
        fill="currentColor"></path>
    <path
        d="M18.3701 14.3621C18.3701 14.4441 18.3115 14.491 18.206 14.491C18.1943 14.491 18.1943 14.491 18.1709 14.4792L18.1475 14.4675C18.0771 14.4206 18.0303 14.3855 18.0185 14.3738L17.9365 14.2566C17.8193 14.3269 17.7607 14.3621 17.749 14.3738C17.6787 14.4089 17.6084 14.4324 17.5381 14.4324C17.5264 14.4324 17.5146 14.4324 17.5029 14.4206C17.4912 14.4089 17.4795 14.4089 17.4678 14.4089C17.4678 14.4089 17.4561 14.4089 17.4443 14.4089C17.4326 14.4089 17.4209 14.4089 17.4209 14.4089C17.3271 14.4089 17.2451 14.3621 17.1748 14.2683C17.1162 14.1863 17.0811 14.0925 17.0811 13.9871C17.0811 13.7292 17.1865 13.5769 17.4092 13.5417C17.4561 13.5066 17.5264 13.4949 17.6436 13.4949C17.7256 13.4949 17.8076 13.5066 17.8779 13.53C17.9834 13.5652 18.042 13.6121 18.0537 13.6707C18.0654 13.7058 18.0654 13.741 18.0771 13.7996C18.0771 13.8582 18.0889 13.905 18.0889 13.9402C18.1006 13.9988 18.1123 14.0574 18.1475 14.1394C18.1826 14.2449 18.2178 14.3035 18.2412 14.3035H18.2529C18.2646 14.3035 18.2646 14.3035 18.2646 14.3035C18.2764 14.3035 18.2998 14.3152 18.3115 14.3386C18.3584 14.3269 18.3701 14.3386 18.3701 14.3621ZM17.8428 13.6824C17.8428 13.6824 17.8428 13.6707 17.8311 13.6589C17.7607 13.6472 17.6787 13.6355 17.5732 13.6355C17.5264 13.6355 17.4678 13.6707 17.4092 13.7292C17.3506 13.7878 17.3271 13.8464 17.3271 13.905C17.3271 14.1394 17.3975 14.2566 17.5498 14.2566C17.5732 14.2566 17.6084 14.2449 17.6553 14.2097C17.7021 14.1863 17.7256 14.1628 17.749 14.1394C17.7959 14.0925 17.8193 14.0222 17.8193 13.9402C17.8193 13.905 17.8193 13.8347 17.8193 13.7175C17.8311 13.7058 17.8428 13.6941 17.8428 13.6824Z"
        fill="currentColor"></path>
    <path
        d="M19.4838 13.4713C19.3783 13.483 19.2611 13.5299 19.1557 13.6237C19.0619 13.7057 18.9799 13.7994 18.9213 13.9049C18.8979 13.9401 18.8861 13.9869 18.8744 14.0455C18.8627 14.1276 18.851 14.1744 18.8393 14.1979C18.8275 14.2565 18.8158 14.2916 18.8158 14.3151C18.8041 14.3619 18.7807 14.3971 18.7338 14.3971C18.6986 14.3971 18.6635 14.3854 18.6166 14.3502C18.5697 14.3268 18.558 14.2916 18.558 14.2565C18.558 14.2447 18.558 14.1744 18.558 14.0455C18.558 13.9401 18.558 13.8697 18.558 13.8463C18.558 13.8346 18.558 13.7877 18.5697 13.7174C18.5697 13.6705 18.5932 13.6471 18.64 13.6471C18.6635 13.6471 18.6869 13.6588 18.7104 13.6705C18.7455 13.6822 18.7572 13.694 18.769 13.7057C18.8158 13.6588 18.8627 13.6002 18.933 13.5416L18.9564 13.5533C18.9564 13.5182 18.9682 13.5065 18.9916 13.483C18.9916 13.483 19.015 13.4596 19.0619 13.4362C19.1205 13.401 19.1439 13.3893 19.1674 13.3893H19.1791C19.1791 13.3893 19.1791 13.3893 19.1908 13.3893C19.2025 13.3893 19.2025 13.3893 19.2143 13.3776C19.226 13.3658 19.2377 13.3658 19.2377 13.3658C19.2377 13.3658 19.2494 13.3658 19.2494 13.3776C19.2494 13.3776 19.2494 13.3893 19.2611 13.3893H19.2729V13.3776H19.2846C19.3666 13.3776 19.4252 13.3893 19.4486 13.401C19.4604 13.4127 19.4721 13.4244 19.4838 13.4362C19.4721 13.4479 19.4721 13.4596 19.4838 13.4713Z"
        fill="currentColor"></path>
    <path
        d="M20.9599 13.5532C20.9599 13.6 20.9365 13.6352 20.8779 13.6352C20.8544 13.6352 20.8076 13.6235 20.7607 13.6118C20.7138 13.6 20.6669 13.5883 20.6435 13.5883C20.5029 13.5883 20.4208 13.6469 20.374 13.7641C20.3388 13.8578 20.3154 13.9164 20.3154 13.9399C20.3154 14.0453 20.3622 14.1274 20.456 14.1977C20.538 14.2563 20.6318 14.2914 20.749 14.2914C20.7607 14.2914 20.7607 14.2914 20.7724 14.2797C20.7841 14.2797 20.7841 14.268 20.7958 14.268C20.8076 14.268 20.831 14.2797 20.8544 14.2914C20.8779 14.3149 20.8896 14.3266 20.8896 14.3383C20.8896 14.3852 20.8544 14.3969 20.7958 14.3969C20.7841 14.3969 20.7841 14.3969 20.7607 14.4086C20.749 14.4203 20.7372 14.4203 20.7255 14.4203C20.6435 14.4203 20.5497 14.3969 20.4443 14.35C20.3388 14.3032 20.2568 14.2446 20.2216 14.1743C20.1982 14.1274 20.163 14.0688 20.1162 13.9868C20.1162 13.975 20.1162 13.9633 20.1044 13.9516C20.0927 13.9399 20.0927 13.9164 20.0927 13.9164C20.0927 13.7758 20.1279 13.6586 20.1865 13.5883C20.2568 13.4946 20.3622 13.4477 20.4911 13.4477C20.5029 13.4477 20.5263 13.4477 20.5615 13.436C20.5966 13.436 20.6201 13.4243 20.6318 13.4243C20.6786 13.4243 20.749 13.436 20.8193 13.4594C20.913 13.4828 20.9599 13.5063 20.9599 13.5532Z"
        fill="currentColor"></path>
    <path
        d="M22.2361 13.9048C22.2361 14.0338 22.1775 14.1509 22.0486 14.2564C21.9197 14.3619 21.7908 14.4205 21.6619 14.4205H21.5799C21.4627 14.4205 21.3455 14.3736 21.2517 14.2681C21.158 14.1744 21.1111 14.0572 21.1111 13.94C21.1111 13.94 21.1228 13.9048 21.1463 13.8345C21.1463 13.8111 21.1463 13.7994 21.1463 13.7994C21.1463 13.7525 21.1814 13.6822 21.24 13.5884C21.2986 13.4947 21.3572 13.4478 21.4041 13.4478C21.4158 13.4478 21.4275 13.4595 21.451 13.4713C21.4744 13.483 21.4861 13.4947 21.4978 13.4947C21.5095 13.4947 21.533 13.483 21.5681 13.4713C21.5916 13.4595 21.615 13.4478 21.6267 13.4478C21.7088 13.4478 21.7674 13.4595 21.7908 13.4713L21.826 13.4947C21.8377 13.4947 21.8377 13.4947 21.8494 13.483C21.8611 13.483 21.8728 13.4713 21.8728 13.4713C21.8845 13.4713 21.908 13.4947 21.9431 13.5181C22.1306 13.6236 22.2361 13.7525 22.2361 13.9048ZM21.99 13.8697C21.99 13.7994 21.9666 13.7291 21.908 13.6705C21.8494 13.6119 21.7908 13.5884 21.7088 13.5884C21.6619 13.5884 21.6267 13.6002 21.6033 13.6236L21.5447 13.6822C21.4978 13.7056 21.451 13.7173 21.3924 13.7408C21.3572 13.7642 21.3455 13.8111 21.3455 13.8931C21.3455 14.1275 21.4041 14.2564 21.533 14.2564C21.6267 14.2564 21.7322 14.2212 21.826 14.1392C21.9431 14.0572 21.99 13.9634 21.99 13.8697Z"
        fill="currentColor"></path>
    <path
        d="M23.3387 13.8936C23.3387 14.0225 23.3153 14.1279 23.2801 14.2217C23.2684 14.2568 23.2684 14.3037 23.245 14.3623C23.2332 14.4209 23.2098 14.456 23.1746 14.456C23.1629 14.456 23.1512 14.4443 23.1512 14.4326C23.1395 14.4209 23.1278 14.4092 23.1278 14.4092H23.1161C23.1161 14.4092 23.1161 14.4092 23.1043 14.4092C23.0926 14.4092 23.0926 14.3975 23.0809 14.374C23.0692 14.3506 23.0692 14.3389 23.0575 14.3389H23.0457C23.0809 14.1982 23.1043 14.0342 23.1043 13.8584C23.1043 13.7295 23.0809 13.6475 23.0457 13.624C22.9989 13.624 22.9403 13.6592 22.8582 13.7412C22.7996 13.8115 22.7528 13.8701 22.7293 13.917C22.7059 13.9639 22.6825 14.0342 22.659 14.1162C22.6239 14.2451 22.6122 14.3154 22.6122 14.3271C22.6004 14.374 22.577 14.3975 22.5301 14.3975C22.495 14.3975 22.4481 14.3857 22.4129 14.3506C22.3661 14.3271 22.3543 14.292 22.3543 14.2451C22.3543 13.8584 22.3661 13.624 22.3895 13.5537C22.4012 13.5186 22.4364 13.5068 22.495 13.5068C22.5301 13.5068 22.5536 13.5186 22.5887 13.5537C22.6122 13.5771 22.6356 13.6123 22.6356 13.6475C22.659 13.624 22.6942 13.5889 22.7411 13.5537C22.7879 13.5068 22.8348 13.4951 22.8582 13.4951H22.87H22.8817C22.8934 13.4951 22.8934 13.4834 22.9051 13.4717C22.9168 13.46 22.9286 13.46 22.9403 13.46C23.0106 13.46 23.0575 13.4717 23.0692 13.4834C23.0809 13.4951 23.0926 13.5068 23.1043 13.5068H23.1161H23.1278C23.1981 13.5068 23.245 13.5537 23.2918 13.6475C23.3153 13.7412 23.3387 13.8115 23.3387 13.8936Z"
        fill="currentColor"></path>
    <path
        d="M25.1081 13.4713C25.0026 13.483 24.8854 13.5299 24.78 13.6237C24.6862 13.7057 24.6042 13.7994 24.5456 13.9049C24.5222 13.9401 24.5104 13.9869 24.4987 14.0455C24.487 14.1276 24.4753 14.1744 24.4636 14.1979C24.4518 14.2565 24.4401 14.2916 24.4401 14.3151C24.4284 14.3619 24.405 14.3971 24.3581 14.3971C24.3229 14.3971 24.2878 14.3854 24.2409 14.3502C24.194 14.3268 24.1823 14.2916 24.1823 14.2565C24.1823 14.2447 24.1823 14.1744 24.1823 14.0455C24.1823 13.9401 24.1823 13.8697 24.1823 13.8463C24.1823 13.8346 24.1823 13.7877 24.194 13.7174C24.194 13.6705 24.2175 13.6471 24.2643 13.6471C24.2878 13.6471 24.3112 13.6588 24.3347 13.6705C24.3698 13.6822 24.3815 13.694 24.3932 13.7057C24.4401 13.6588 24.487 13.6002 24.5573 13.5416L24.5807 13.5533C24.5807 13.5182 24.5925 13.5065 24.6159 13.483C24.6159 13.483 24.6393 13.4596 24.6862 13.4362C24.7448 13.401 24.7682 13.3893 24.7917 13.3893H24.8034C24.8034 13.3893 24.8034 13.3893 24.8151 13.3893C24.8268 13.3893 24.8268 13.3893 24.8386 13.3776C24.8503 13.3658 24.862 13.3658 24.862 13.3658C24.862 13.3658 24.8737 13.3658 24.8737 13.3776C24.8737 13.3776 24.8737 13.3893 24.8854 13.3893H24.8972V13.3776H24.9089C24.9909 13.3776 25.0495 13.3893 25.0729 13.401C25.0846 13.4127 25.0964 13.4244 25.1081 13.4362C25.0846 13.4479 25.0964 13.4596 25.1081 13.4713Z"
        fill="currentColor"></path>
    <path
        d="M26.0922 13.7173C26.0922 13.8111 26.0218 13.8931 25.8929 13.9869C25.7758 14.0689 25.6586 14.1041 25.5648 14.1041C25.5531 14.1041 25.4828 14.0923 25.389 14.0806V14.0923C25.389 14.1275 25.4125 14.1627 25.4593 14.2095C25.5062 14.2564 25.5765 14.2798 25.6586 14.2916C25.7054 14.2916 25.7875 14.3033 25.8812 14.3267C25.975 14.3384 26.0218 14.3502 26.0218 14.3502V14.4205C25.9867 14.4205 25.9281 14.4205 25.8578 14.4322C25.7875 14.4439 25.7289 14.4439 25.6937 14.4439C25.5648 14.4439 25.4476 14.397 25.3304 14.3033C25.2015 14.1978 25.1429 14.0923 25.1429 13.9752C25.1429 13.8814 25.1781 13.7877 25.2484 13.6939C25.3187 13.6002 25.4008 13.5298 25.4828 13.4947C25.5648 13.4595 25.6468 13.4478 25.7406 13.4478C25.7406 13.4478 25.7523 13.4478 25.764 13.4595C25.7758 13.4595 25.7875 13.4713 25.7875 13.4713H25.7992C25.8109 13.4713 25.8109 13.4713 25.8226 13.4713C25.8343 13.4713 25.8578 13.483 25.9164 13.5181C25.9984 13.5533 26.0336 13.5884 26.0453 13.6002C26.0687 13.6119 26.0922 13.6588 26.0922 13.7173ZM25.8695 13.6939C25.8695 13.6588 25.8226 13.6353 25.7406 13.6353C25.6703 13.6353 25.6 13.6705 25.5297 13.7291C25.4593 13.7877 25.4125 13.858 25.389 13.9166C25.4008 13.9166 25.4242 13.9166 25.4359 13.9166C25.4476 13.9166 25.4711 13.9166 25.4945 13.9166C25.5179 13.9166 25.5414 13.9166 25.5531 13.9166C25.5883 13.9166 25.6468 13.8931 25.7289 13.8345C25.8343 13.7759 25.8695 13.7291 25.8695 13.6939Z"
        fill="currentColor"></path>
    <path
        d="M26.9718 13.483C26.9718 13.5299 26.9484 13.5533 26.9015 13.5533C26.878 13.5533 26.8429 13.5533 26.796 13.5416C26.7491 13.5299 26.714 13.5299 26.6905 13.5299C26.6202 13.5299 26.5616 13.5416 26.5265 13.5768C26.5265 13.6119 26.5265 13.6237 26.5265 13.6471C26.5265 13.7408 26.5616 13.8346 26.6202 13.9283C26.6554 13.9752 26.714 14.0455 26.796 14.1393C26.8546 14.2096 26.8898 14.2565 26.8898 14.2799C26.8898 14.3737 26.7491 14.4322 26.4679 14.4322C26.4445 14.4322 26.4093 14.4205 26.3624 14.3971C26.3156 14.3737 26.2804 14.3619 26.2687 14.3385V14.3033C26.3507 14.2916 26.4093 14.2799 26.4327 14.2799C26.4679 14.2799 26.503 14.2799 26.5499 14.2682C26.6085 14.2565 26.632 14.233 26.632 14.2096C26.632 14.1979 26.5968 14.151 26.5382 14.0807C26.4679 13.9987 26.421 13.9166 26.3741 13.8463C26.3156 13.7291 26.2804 13.6237 26.2804 13.5065C26.2804 13.4596 26.3038 13.4362 26.3624 13.4127C26.4093 13.401 26.4445 13.3893 26.4913 13.3776L26.5031 13.3893C26.5382 13.3776 26.6085 13.3658 26.714 13.3658C26.7491 13.3658 26.796 13.3776 26.8546 13.401C26.9366 13.4244 26.9718 13.4596 26.9718 13.483Z"
        fill="currentColor"></path>
    <path
        d="M28.2606 13.7175C28.2606 14.1042 28.0262 14.3386 27.5457 14.444C27.5223 14.6081 27.5106 14.7956 27.5106 14.9948C27.5106 15.0182 27.4988 15.0417 27.4637 15.0768C27.452 15.0768 27.4402 15.0768 27.4285 15.0768C27.3582 15.0768 27.2996 15.0534 27.241 14.9948V14.737C27.241 14.6667 27.2527 14.4557 27.2879 14.1042C27.2996 13.987 27.2996 13.8815 27.2996 13.7643C27.3231 13.5886 27.3582 13.4948 27.4285 13.4948C27.4402 13.4948 27.4637 13.5065 27.4871 13.5182C27.5106 13.53 27.534 13.5417 27.5457 13.5417C27.5574 13.53 27.5809 13.5182 27.6043 13.4831C27.6629 13.4245 27.7684 13.3893 27.9324 13.3893C27.9324 13.3893 27.9441 13.3893 27.9559 13.4011C27.9676 13.4128 27.9676 13.4128 27.9793 13.4128C27.991 13.4128 27.991 13.4128 28.0027 13.4011L28.0145 13.4128C28.0613 13.4245 28.1199 13.4714 28.1785 13.53C28.2371 13.6003 28.2606 13.6589 28.2606 13.7175ZM28.0262 13.7057C28.0262 13.6706 28.0145 13.6354 27.991 13.6003C27.9676 13.5651 27.9442 13.5417 27.909 13.5417C27.7449 13.5417 27.6395 13.6823 27.5926 13.9753L27.5574 14.2565C27.5692 14.2565 27.5809 14.2565 27.5809 14.2682L27.5926 14.28C27.6629 14.2214 27.7098 14.1979 27.7332 14.1979C27.7449 14.1979 27.7567 14.1862 27.7801 14.1511C27.8621 14.0573 27.9207 13.987 27.9441 13.9518C28.0027 13.8815 28.0262 13.7995 28.0262 13.7057Z"
        fill="currentColor"></path>
    <path
        d="M29.5739 13.9048C29.5739 14.0338 29.5153 14.1509 29.3864 14.2564C29.2575 14.3619 29.1286 14.4205 28.9997 14.4205H28.9177C28.8005 14.4205 28.6833 14.3736 28.5895 14.2681C28.4958 14.1744 28.4489 14.0572 28.4489 13.94C28.4489 13.94 28.4606 13.9048 28.4841 13.8345C28.4841 13.8111 28.4841 13.7994 28.4841 13.7994C28.4841 13.7525 28.5192 13.6822 28.5778 13.5884C28.6364 13.4947 28.695 13.4478 28.7419 13.4478C28.7536 13.4478 28.7653 13.4595 28.7888 13.4713C28.8122 13.483 28.8239 13.4947 28.8356 13.4947C28.8473 13.4947 28.8708 13.483 28.9059 13.4713C28.9294 13.4595 28.9528 13.4478 28.9645 13.4478C29.0466 13.4478 29.1052 13.4595 29.1286 13.4713L29.1638 13.4947C29.1755 13.4947 29.1755 13.4947 29.1872 13.483C29.1989 13.483 29.2106 13.4713 29.2106 13.4713C29.2223 13.4713 29.2458 13.4947 29.2809 13.5181C29.4802 13.6236 29.5739 13.7525 29.5739 13.9048ZM29.3395 13.8697C29.3395 13.7994 29.3161 13.7291 29.2575 13.6705C29.1989 13.6119 29.1403 13.5884 29.0583 13.5884C29.0114 13.5884 28.9763 13.6002 28.9528 13.6236L28.8942 13.6822C28.8473 13.7056 28.8005 13.7173 28.7419 13.7408C28.7067 13.7642 28.695 13.8111 28.695 13.8931C28.695 14.1275 28.7536 14.2564 28.8825 14.2564C28.9763 14.2564 29.0817 14.2212 29.1755 14.1392C29.2809 14.0572 29.3395 13.9634 29.3395 13.8697Z"
        fill="currentColor"></path>
    <path
        d="M30.675 13.8936C30.675 14.0225 30.6515 14.1279 30.6164 14.2217C30.6047 14.2568 30.6047 14.3037 30.5812 14.3623C30.5695 14.4209 30.5461 14.456 30.5109 14.456C30.4992 14.456 30.4875 14.4443 30.4875 14.4326C30.4758 14.4209 30.464 14.4092 30.464 14.4092H30.4523C30.4523 14.4092 30.4523 14.4092 30.4406 14.4092C30.4289 14.4092 30.4289 14.3975 30.4172 14.374C30.4055 14.3506 30.4055 14.3389 30.3937 14.3389H30.382C30.4172 14.1982 30.4406 14.0342 30.4406 13.8584C30.4406 13.7295 30.4172 13.6475 30.382 13.624C30.3351 13.624 30.2765 13.6592 30.1945 13.7412C30.1359 13.8115 30.089 13.8701 30.0656 13.917C30.0422 13.9639 30.0187 14.0342 29.9953 14.1162C29.9601 14.2451 29.9484 14.3154 29.9484 14.3271C29.9367 14.374 29.9133 14.3975 29.8664 14.3975C29.8312 14.3975 29.7844 14.3857 29.7492 14.3506C29.7141 14.3271 29.6906 14.292 29.6906 14.2451C29.6906 13.8584 29.7023 13.624 29.7258 13.5537C29.7375 13.5186 29.7726 13.5068 29.8312 13.5068C29.8664 13.5068 29.8898 13.5186 29.925 13.5537C29.9484 13.5771 29.9719 13.6123 29.9719 13.6475C29.9953 13.624 30.0305 13.5889 30.0773 13.5537C30.1242 13.5068 30.1711 13.4951 30.1945 13.4951H30.2062H30.218C30.2297 13.4951 30.2297 13.4834 30.2414 13.4717C30.2531 13.46 30.2648 13.46 30.2765 13.46C30.3469 13.46 30.3937 13.4717 30.4055 13.4834C30.4172 13.4951 30.4289 13.5068 30.4406 13.5068H30.4523H30.464C30.5344 13.5068 30.5812 13.5537 30.6281 13.6475C30.6633 13.7412 30.675 13.8115 30.675 13.8936Z"
        fill="currentColor"></path>
    <path
        d="M31.6006 13.483C31.6006 13.5299 31.5771 13.5533 31.5303 13.5533C31.5068 13.5533 31.4717 13.5533 31.4248 13.5416C31.3779 13.5299 31.3428 13.5299 31.3193 13.5299C31.249 13.5299 31.1904 13.5416 31.1553 13.5768C31.1553 13.6119 31.1553 13.6237 31.1553 13.6471C31.1553 13.7408 31.1904 13.8346 31.249 13.9283C31.2842 13.9752 31.3428 14.0455 31.4248 14.1393C31.4834 14.2096 31.5185 14.2565 31.5185 14.2799C31.5185 14.3737 31.3779 14.4322 31.0967 14.4322C31.0732 14.4322 31.0381 14.4205 30.9912 14.3971C30.9443 14.3737 30.9092 14.3619 30.8975 14.3385V14.3033C30.9795 14.2916 31.0381 14.2799 31.0615 14.2799C31.0967 14.2799 31.1318 14.2799 31.1787 14.2682C31.2373 14.2565 31.2607 14.233 31.2607 14.2096C31.2607 14.1979 31.2256 14.151 31.167 14.0807C31.0967 13.9987 31.0498 13.9166 31.0029 13.8463C30.9443 13.7291 30.9092 13.6237 30.9092 13.5065C30.9092 13.4596 30.9326 13.4362 30.9912 13.4127C31.0381 13.401 31.0732 13.3893 31.1201 13.3776L31.1318 13.3893C31.167 13.3776 31.2373 13.3658 31.3428 13.3658C31.3779 13.3658 31.4248 13.3776 31.4834 13.401C31.5654 13.4244 31.6006 13.4596 31.6006 13.483Z"
        fill="currentColor"></path>
    <path
        d="M32.9829 14.3621C32.9829 14.4441 32.9243 14.491 32.8188 14.491C32.8071 14.491 32.8071 14.491 32.7837 14.4792L32.7602 14.4675C32.6899 14.4206 32.643 14.3855 32.6313 14.3738L32.5493 14.2566C32.4321 14.3269 32.3735 14.3621 32.3618 14.3738C32.2915 14.4089 32.2212 14.4324 32.1508 14.4324C32.1391 14.4324 32.1274 14.4324 32.1157 14.4206C32.104 14.4089 32.0923 14.4089 32.0805 14.4089C32.0805 14.4089 32.0688 14.4089 32.0571 14.4089C32.0454 14.4089 32.0337 14.4089 32.0337 14.4089C31.9399 14.4089 31.8579 14.3621 31.7876 14.2683C31.729 14.1863 31.6938 14.0925 31.6938 13.9871C31.6938 13.7292 31.7993 13.5769 32.0219 13.5417C32.0688 13.5066 32.1391 13.4949 32.2563 13.4949C32.3383 13.4949 32.4204 13.5066 32.4907 13.53C32.5962 13.5652 32.6548 13.6121 32.6665 13.6707C32.6782 13.7058 32.6782 13.741 32.6899 13.7996C32.6899 13.8582 32.7016 13.905 32.7016 13.9402C32.7133 13.9988 32.7251 14.0574 32.7602 14.1394C32.7954 14.2449 32.8305 14.3035 32.854 14.3035H32.8657C32.8774 14.3035 32.8774 14.3035 32.8774 14.3035C32.8891 14.3035 32.9126 14.3152 32.9243 14.3386C32.9829 14.3269 32.9829 14.3386 32.9829 14.3621ZM32.4555 13.6824C32.4555 13.6824 32.4555 13.6707 32.4438 13.6589C32.3735 13.6472 32.2915 13.6355 32.186 13.6355C32.1391 13.6355 32.0805 13.6707 32.0219 13.7292C31.9633 13.7878 31.9399 13.8464 31.9399 13.905C31.9399 14.1394 32.0102 14.2566 32.1626 14.2566C32.186 14.2566 32.2212 14.2449 32.268 14.2097C32.3149 14.1863 32.3383 14.1628 32.3618 14.1394C32.4087 14.0925 32.4321 14.0222 32.4321 13.9402C32.4321 13.905 32.4321 13.8347 32.4321 13.7175C32.4555 13.7058 32.4555 13.6941 32.4555 13.6824Z"
        fill="currentColor"></path>
    <path
        d="M34.2719 13.7757C34.2719 13.7874 34.2602 13.8343 34.2368 13.928C34.2133 13.9515 34.2016 13.9983 34.1782 14.0687C34.1547 14.139 34.143 14.1858 34.1078 14.2093C34.0493 14.2562 33.9789 14.303 33.8969 14.3499C33.8032 14.3968 33.7211 14.4085 33.6508 14.4085C33.4985 14.4085 33.4282 14.3499 33.4282 14.2327V14.221C33.475 14.2444 33.5102 14.2562 33.5102 14.2562C33.5336 14.2562 33.5571 14.2562 33.6039 14.2562C33.6508 14.2562 33.6743 14.2562 33.6977 14.2562C33.7094 14.2562 33.7211 14.2562 33.7328 14.2444C33.85 14.1624 33.9321 14.1038 33.9672 14.0569C34.0141 13.9866 34.0375 13.8929 34.0375 13.7757C34.0375 13.7405 34.0141 13.7054 33.9789 13.6702C33.9438 13.6351 33.9086 13.6116 33.8618 13.6116C33.7563 13.6116 33.6625 13.7054 33.5688 13.9046C33.5571 13.928 33.5453 13.9632 33.5219 13.9983C33.4985 14.0335 33.475 14.0569 33.4399 14.0569C33.4164 14.0569 33.393 14.0452 33.3461 14.0101C33.2993 13.9866 33.2758 13.9632 33.2758 13.9398C33.2758 13.8108 33.2758 13.6468 33.2875 13.4593C33.2875 13.3538 33.311 13.2015 33.3461 13.014C33.3461 13.0023 33.3461 12.9788 33.3461 12.9671C33.3461 12.9554 33.3461 12.9437 33.3461 12.9202C33.3461 12.8968 33.3461 12.8851 33.3461 12.8734C33.3461 12.7562 33.3813 12.7093 33.4399 12.7093C33.475 12.7093 33.5102 12.721 33.5453 12.7327C33.5922 12.7444 33.6157 12.7679 33.6157 12.803C33.6157 12.8382 33.6039 12.8851 33.5922 12.9437C33.5688 13.014 33.5571 13.0608 33.5571 13.0843C33.5336 13.2366 33.5219 13.389 33.5219 13.5179L33.5336 13.5296C33.686 13.4827 33.8032 13.4476 33.8735 13.4476C33.9438 13.4476 34.0258 13.4827 34.1196 13.5648C34.2368 13.6351 34.2719 13.7054 34.2719 13.7757Z"
        fill="currentColor"></path>
    <path
        d="M34.7176 13.6823C34.7176 13.7057 34.7176 13.7292 34.7176 13.7643C34.7176 13.7995 34.7176 13.8229 34.7176 13.8464C34.7176 13.8932 34.7176 13.9401 34.7176 13.9987C34.7176 14.069 34.7176 14.1276 34.7176 14.1511C34.7176 14.2682 34.7059 14.3503 34.6825 14.3971C34.6707 14.3971 34.6707 14.3971 34.6473 14.4089C34.6356 14.4206 34.6239 14.4206 34.6122 14.4206C34.5887 14.4206 34.577 14.4206 34.577 14.4089L34.5536 14.3737L34.5418 14.3971C34.4715 14.2917 34.4481 14.1745 34.4481 14.0456V13.7878C34.4481 13.7057 34.4481 13.6589 34.4598 13.6354C34.4715 13.5768 34.5067 13.5417 34.5536 13.5417C34.6004 13.5417 34.6356 13.5534 34.6707 13.5768C34.7059 13.612 34.7176 13.6472 34.7176 13.6823ZM34.8348 12.9909C34.8348 13.0378 34.8114 13.0612 34.7528 13.0612C34.7176 13.0612 34.6707 13.0378 34.6004 12.9792C34.5301 12.9323 34.495 12.8854 34.495 12.8503C34.495 12.8386 34.495 12.8151 34.5067 12.8034C34.5418 12.8151 34.5887 12.8151 34.659 12.8268C34.7762 12.9089 34.8348 12.9675 34.8348 12.9909Z"
        fill="currentColor"></path>
    <path
        d="M35.3383 12.8971C35.3383 13.0377 35.3266 13.2369 35.3032 13.5182C35.2797 13.7877 35.268 13.9987 35.268 14.1393C35.268 14.3268 35.2328 14.4205 35.1743 14.4205C35.1743 14.4205 35.1274 14.3971 35.0336 14.3385C35.0219 14.2916 35.0102 14.233 35.0102 14.151C35.0102 14.0338 35.0219 13.858 35.0336 13.6237C35.0571 13.3893 35.0571 13.2135 35.0571 13.0963V12.8385C35.0805 12.8033 35.1157 12.7799 35.1625 12.7799C35.1977 12.7799 35.2328 12.7916 35.268 12.8151C35.3266 12.8385 35.3383 12.8619 35.3383 12.8971Z"
        fill="currentColor"></path>
    <path
        d="M35.8192 13.6823C35.8192 13.7057 35.8192 13.7292 35.8192 13.7643C35.8192 13.7995 35.8192 13.8229 35.8192 13.8464C35.8192 13.8932 35.8192 13.9401 35.8192 13.9987C35.8192 14.069 35.8192 14.1276 35.8192 14.1511C35.8192 14.2682 35.8075 14.3503 35.784 14.3971C35.7723 14.3971 35.7723 14.3971 35.7489 14.4089C35.7372 14.4206 35.7254 14.4206 35.7137 14.4206C35.6903 14.4206 35.6786 14.4206 35.6786 14.4089L35.6551 14.3737L35.6434 14.3971C35.5731 14.2917 35.5497 14.1745 35.5497 14.0456V13.7878C35.5497 13.7057 35.5497 13.6589 35.5614 13.6354C35.5731 13.5768 35.6082 13.5417 35.6551 13.5417C35.702 13.5417 35.7372 13.5534 35.7723 13.5768C35.8075 13.612 35.8192 13.6472 35.8192 13.6823ZM35.9364 12.9909C35.9364 13.0378 35.9129 13.0612 35.8543 13.0612C35.8192 13.0612 35.7723 13.0378 35.702 12.9792C35.6317 12.9323 35.5965 12.8854 35.5965 12.8503C35.5965 12.8386 35.5965 12.8151 35.6082 12.8034C35.6434 12.8151 35.6903 12.8151 35.7606 12.8268C35.8778 12.9089 35.9364 12.9675 35.9364 12.9909Z"
        fill="currentColor"></path>
    <path
        d="M37.3657 13.1898C37.3657 13.4124 37.2953 13.6468 37.1664 13.9163C37.1196 14.0101 37.0258 14.1155 36.9086 14.2327C36.768 14.3499 36.6508 14.4202 36.5571 14.4202H36.4164C36.4047 14.4202 36.393 14.4085 36.3578 14.3851C36.2641 14.3265 36.2172 14.2796 36.1938 14.2562C36.1469 14.1976 36.1118 14.139 36.1118 14.0569C36.1118 13.9866 36.1469 13.8812 36.2289 13.7523C36.311 13.6116 36.3813 13.5413 36.4516 13.5413C36.475 13.5179 36.5102 13.4944 36.5805 13.4593C36.6391 13.4241 36.686 13.4124 36.7211 13.4124H36.7328V13.4241H36.7446C36.7563 13.4241 36.7797 13.4241 36.8032 13.4124C36.8266 13.4124 36.85 13.4007 36.8618 13.4007C36.8969 13.4007 36.9438 13.4124 36.9907 13.4241C37.0375 13.4476 37.0727 13.471 37.0844 13.5062C37.1313 13.389 37.1664 13.2952 37.1782 13.2132C37.1899 13.1663 37.1899 13.0608 37.1899 12.9085C37.1899 12.8148 37.1899 12.7562 37.1782 12.7327C37.1899 12.7327 37.2133 12.7327 37.2485 12.721C37.2719 12.721 37.2953 12.7093 37.3188 12.7093C37.3657 12.7093 37.4008 12.7562 37.4125 12.8616C37.4008 12.8851 37.4008 12.9319 37.4008 13.0023C37.4008 13.0374 37.4008 13.0726 37.4008 13.096C37.3539 13.1546 37.3539 13.178 37.3657 13.1898C37.3657 13.2015 37.3657 13.2015 37.3657 13.1898ZM37.0258 13.6585C37.0258 13.6468 37.0258 13.6351 37.0141 13.6233C37.0024 13.6233 36.9907 13.6351 36.9789 13.6351C36.9672 13.6351 36.9438 13.6233 36.9086 13.6116C36.8735 13.5999 36.85 13.5882 36.8383 13.5882C36.8266 13.5882 36.7914 13.5999 36.7211 13.6233C36.6157 13.6585 36.5336 13.7171 36.4633 13.7991C36.3813 13.8929 36.3461 13.9866 36.3461 14.0804C36.3461 14.1272 36.3578 14.1624 36.3813 14.1976C36.4047 14.2327 36.4399 14.2562 36.475 14.2562C36.4868 14.2562 36.4868 14.2562 36.5102 14.2562C36.5219 14.2562 36.5336 14.2562 36.5453 14.2562C36.6157 14.2562 36.7094 14.1741 36.8383 14.0218C36.9555 13.846 37.0258 13.7288 37.0258 13.6585Z"
        fill="currentColor"></path>
    <path
        d="M38.7488 14.3621C38.7488 14.4441 38.6902 14.491 38.5848 14.491C38.5731 14.491 38.5731 14.491 38.5496 14.4792L38.5262 14.4675C38.4559 14.4206 38.409 14.3855 38.3973 14.3738L38.3152 14.2566C38.1981 14.3269 38.1395 14.3621 38.1277 14.3738C38.0574 14.4089 37.9871 14.4324 37.9168 14.4324C37.9051 14.4324 37.8934 14.4324 37.8817 14.4206C37.8699 14.4089 37.8582 14.4089 37.8465 14.4089C37.8465 14.4089 37.8348 14.4089 37.8231 14.4089C37.8113 14.4089 37.7996 14.4089 37.7996 14.4089C37.7059 14.4089 37.6238 14.3621 37.5535 14.2683C37.4949 14.1863 37.4598 14.0925 37.4598 13.9871C37.4598 13.7292 37.5652 13.5769 37.7879 13.5417C37.8348 13.5066 37.9051 13.4949 38.0223 13.4949C38.1043 13.4949 38.1863 13.5066 38.2566 13.53C38.3621 13.5652 38.4207 13.6121 38.4324 13.6707C38.4441 13.7058 38.4441 13.741 38.4559 13.7996C38.4559 13.8582 38.4676 13.905 38.4676 13.9402C38.4793 13.9988 38.491 14.0574 38.5262 14.1394C38.5613 14.2449 38.5965 14.3035 38.6199 14.3035H38.6316C38.6434 14.3035 38.6434 14.3035 38.6434 14.3035C38.6551 14.3035 38.6785 14.3152 38.6902 14.3386C38.7371 14.3269 38.7488 14.3386 38.7488 14.3621ZM38.2215 13.6824C38.2215 13.6824 38.2215 13.6707 38.2098 13.6589C38.1395 13.6472 38.0574 13.6355 37.952 13.6355C37.9051 13.6355 37.8465 13.6707 37.7879 13.7292C37.7293 13.7878 37.7059 13.8464 37.7059 13.905C37.7059 14.1394 37.7762 14.2566 37.9285 14.2566C37.952 14.2566 37.9871 14.2449 38.034 14.2097C38.0809 14.1863 38.1043 14.1628 38.1277 14.1394C38.1746 14.0925 38.1981 14.0222 38.1981 13.9402C38.1981 13.905 38.1981 13.8347 38.1981 13.7175C38.2215 13.7058 38.2215 13.6941 38.2215 13.6824Z"
        fill="currentColor"></path>
    <path
        d="M40.2021 13.1898C40.2021 13.4124 40.1318 13.6468 40.0029 13.9163C39.956 14.0101 39.8622 14.1155 39.7451 14.2327C39.6044 14.3499 39.4872 14.4202 39.3935 14.4202H39.2529C39.2411 14.4202 39.2294 14.4085 39.1943 14.3851C39.1005 14.3265 39.0537 14.2796 39.0302 14.2562C38.9833 14.1976 38.9482 14.139 38.9482 14.0569C38.9482 13.9866 38.9833 13.8812 39.0654 13.7523C39.1474 13.6116 39.2177 13.5413 39.288 13.5413C39.3115 13.5179 39.3466 13.4944 39.4169 13.4593C39.4755 13.4241 39.5224 13.4124 39.5576 13.4124H39.5693V13.4241H39.581C39.5927 13.4241 39.6161 13.4241 39.6396 13.4124C39.663 13.4124 39.6865 13.4007 39.6982 13.4007C39.7333 13.4007 39.7802 13.4124 39.8271 13.4241C39.874 13.4476 39.9091 13.471 39.9208 13.5062C39.9677 13.389 40.0029 13.2952 40.0146 13.2132C40.0263 13.1663 40.0263 13.0608 40.0263 12.9085C40.0263 12.8148 40.0263 12.7562 40.0146 12.7327C40.0263 12.7327 40.0497 12.7327 40.0849 12.721C40.1083 12.721 40.1318 12.7093 40.1552 12.7093C40.2021 12.7093 40.2372 12.7562 40.249 12.8616C40.2372 12.8851 40.2372 12.9319 40.2372 13.0023C40.2372 13.0374 40.2372 13.0726 40.2372 13.096C40.2021 13.1546 40.2021 13.178 40.2021 13.1898C40.2021 13.2015 40.2021 13.2015 40.2021 13.1898ZM39.8622 13.6585C39.8622 13.6468 39.8622 13.6351 39.8505 13.6233C39.8388 13.6233 39.8271 13.6351 39.8154 13.6351C39.8036 13.6351 39.7802 13.6233 39.7451 13.6116C39.7099 13.5999 39.6865 13.5882 39.6747 13.5882C39.663 13.5882 39.6279 13.5999 39.5576 13.6233C39.4521 13.6585 39.3701 13.7171 39.2997 13.7991C39.2177 13.8929 39.1826 13.9866 39.1826 14.0804C39.1826 14.1272 39.1943 14.1624 39.2177 14.1976C39.2412 14.2327 39.2763 14.2562 39.3115 14.2562C39.3232 14.2562 39.3232 14.2562 39.3466 14.2562C39.3583 14.2562 39.3701 14.2562 39.3818 14.2562C39.4521 14.2562 39.5458 14.1741 39.6747 14.0218C39.8036 13.846 39.8622 13.7288 39.8622 13.6585Z"
        fill="currentColor"></path>
</svg>
