<svg viewBox="0 0 96 57" height="18" fill="#fff">
    <g>
        <path class="st0" d="M40.5,35.8c0.2,0.7,0.3,1.7,0.3,2.9c2.4-0.6,3.8-1.9,3.4-3.6c-0.3-1.1-1.4-1.2-2.6-0.9
		c-0.6,0.1-1.2,0.4-1.7,0.6C40.2,35,40.4,35.3,40.5,35.8z"></path>
        <path class="st0" d="M26.9,30.7c0.2,0.8,0.8,1.2,1.7,1c1.3-0.3,2.3-1.8,2.9-3.9c-0.9,0.1-1.6,0.1-2.6,0.3
		C27.3,28.5,26.7,29.6,26.9,30.7z"></path>
        <path class="st0" d="M57.3,35.9c-0.1-0.3-0.3-0.5-0.7-0.4c-1.1,0.3-1.7,2.2-1.6,3.7C56.5,38.3,57.5,37,57.3,35.9z">
        </path>
        <path class="st0" d="M40.8,40.6c-0.2,1.7-0.4,3.4-0.9,4.8c0.4-0.1,0.8-0.1,1.2-0.2c2.5-0.6,4-2.1,3.6-3.8
		C44.4,40.1,43.3,39.8,40.8,40.6z"></path>
        <path class="st0" d="M79.8,10.4c-9.5-8.9-29-14.7-47.9-6C13,13.1,5.6,40.9,2.5,46.3L5.4,48c2-2.5,6.4-6.4,11.9-2.6
		c6,4.2,14.5,10.5,30.8,10.7c16.3,0.2,29.2-11.6,36.3-22.9c5.4-8.8,9.1-13.7,9.1-13.7S89.3,19.3,79.8,10.4z M41.4,47.3
		c-4.7,1.1-7.4-0.3-8-2.8c-0.2-1,0.2-1.7,1-1.9c0.6-0.1,0.9,0,0.9,0s0,0.4,0.1,0.8c0.2,1,0.9,1.7,2.1,2c0.9-2.1,1.2-6.5,0.7-9.5
		c-1.1,0.9-1.8,1.9-2,2.4c-0.4,0-0.8-0.3-1-0.9c-0.4-1.6,2.3-4.3,6.5-5.3c2.7-0.6,4.7,0.1,5.1,2.1c0.4,1.6-0.2,3.1-1.8,4.3
		c1.2,0.2,2,1,2.3,2.1C48,43.6,45.5,46.3,41.4,47.3z M67.7,40.9c-1.3,0.3-2.2-0.2-2.5-1.4c-0.4-1.6,0.8-4.5,0.6-5.4
		c-0.1-0.3-0.2-0.4-0.4-0.3c-1.6,0.4-2.8,5-2.3,7.7c0,0-0.3,0.2-0.7,0.3c-0.6,0.2-1.4,0-1.7-0.7c-0.8,1-2.2,2-3.7,2.3
		c-1.4,0.3-2.4-0.1-3.1-0.9c-0.6,1-1.5,2-2.8,2.3c-1.3,0.3-2.2-0.2-2.5-1.4c-0.5-2.1,0.6-4.7-0.1-7.8c0,0,0.5-0.3,0.9-0.4
		c0.7-0.2,1.5,0.1,1.8,1.1c0.4,1.9-0.6,4.5-0.3,5.6c0.1,0.4,0.3,0.5,0.6,0.4c0.6-0.1,1.2-0.8,1.5-1.6c0,0,0,0,0,0
		c-0.6-2.8,0.6-6.5,3.5-7.1c1.5-0.3,2.6,0.2,2.9,1.5c0.6,2.6-1.7,4.7-3.9,5.8c0.3,0.6,0.8,0.7,1.3,0.5c1.7-0.4,3.1-1.9,3.7-3
		c0.1-1.6,0.5-3.4,0-5.4c0,0,0.4-0.3,0.8-0.4c0.7-0.2,1.5,0.1,1.7,1.2c0.1,0.4,0.1,0.7,0.1,0.7c0-0.1,0.8-2.8,2.9-3.3
		c1.1-0.3,2,0.3,2.2,1.5c0.4,1.8-0.9,4.3-0.7,5.4c0.1,0.4,0.3,0.5,0.6,0.4c1-0.2,1.7-1.7,1.9-2.9c0.5-0.1,0.9,0.1,1.1,0.9
		C71.4,37.8,70,40.4,67.7,40.9z M49.7,30.2c0.8-0.2,1.4,0.2,1.6,1c0.2,0.8-0.2,1.7-1.2,1.9c-0.8,0.2-1.4-0.2-1.6-0.9
		C48.3,31.2,48.9,30.4,49.7,30.2z M71.4,19.4c-1.6,0.4-2.2-0.9-2.2-0.9s-0.5,1.5-2.5,2c-1,0.2-1.9-0.1-2.5-0.7
		c-0.5,0.9-1.5,1.8-2.7,2.5c-0.3,2.4-1.9,4.2-4.4,4.8c-1.6,0.4-2.9-0.3-3.1-1.4c-0.5-2.2,1.9-3.5,5.2-4.4c0-0.4-0.1-1.4-0.1-1.4
		s-0.6,1.4-2.3,1.8c-1,0.2-1.8,0.1-2.4-0.4c-0.8,1.3-2.3,2.6-4.2,3c-1.4,0.3-2.4-0.1-3.1-0.9c-0.6,0.9-1.5,1.7-2.7,2.1
		c-1.5,0.3-2.2-0.4-2.4-1.4c0,0.1-0.7,2.2-2.8,2.6c-1,0.2-1.8-0.1-2.2-1.1c-0.6,0.8-1.6,1.5-3,1.9c-0.7,3.1-2.4,5.7-5.3,6.3
		c-2.1,0.5-3.8-0.5-4.2-2.4c-0.6-2.4,0.8-4.7,4.1-5.4c1.6-0.4,2.4-0.2,3.4-0.2c0.5-3,0.3-6.6-0.3-9.3c0,0-1.1-0.2-2.9,0.2
		c-1.4,0.3-2.7,1.4-2.3,3.3c0.3,1.3,1.3,1.8,2.6,1.5c1-0.2,1.4-0.8,1.4-0.8s0.2,0.1,0.2,0.4c0.3,1.3-0.8,2.1-2,2.4
		c-2.7,0.6-4.3-0.9-4.8-2.8c-0.7-3.2,1.3-5.5,4.5-6.2c3-0.7,5.5,0,5.5,0c0.8,3.3,1.1,7.3,0.6,10.8c1.1-0.5,1.8-1.4,2-2.5
		c0,0,0.1,0,0.1,0c0.1-1.6,0.6-3.3,0.3-5.1c0,0,0.4-0.3,0.8-0.4c0.7-0.2,1.5,0.1,1.8,1.1c0.4,1.6-0.7,4.1-0.4,5.2
		c0.1,0.3,0.3,0.5,0.6,0.4c1.6-0.4,2.6-5,2.1-7.6c0,0,0.2-0.2,0.7-0.3c0.7-0.2,1.5,0.1,1.8,1.1c0.4,1.9-0.5,4.1-0.3,5.4
		c0.1,0.4,0.3,0.6,0.8,0.5c0.6-0.1,1.1-0.7,1.4-1.4c0,0,0-0.1,0-0.1c-0.6-2.8,0.6-6.5,3.5-7.1c1.5-0.3,2.6,0.2,2.9,1.5
		c0.6,2.6-1.7,4.7-3.9,5.8c0.3,0.6,0.8,0.7,1.3,0.5c1.6-0.4,2.8-1.6,3.5-2.6c0,0,0,0,0-0.1c-0.8-3.4,1.7-6.6,5.4-7.5
		c2.3-0.5,3.1,0.3,3.3,1.2c0.1,0.3,0,0.6,0,0.6s-0.9-0.5-2.9,0c-2.3,0.5-4,2.5-3.4,4.9c0.2,0.7,0.6,1,1.2,0.8
		c1.3-0.3,1.8-2.1,1.8-3.8c0-1,0.7-1.5,1.4-1.6c0.5-0.1,0.9,0,0.9,0c-0.2,1.4-0.1,3.6,0.2,6.1c0.9-0.7,1.5-1.4,1.9-2.2
		c-0.8-3.6,1.4-7.3,5.1-8.1c2.3-0.5,3.1,0.3,3.3,1.2c0.1,0.3-0.1,0.6-0.1,0.6s-0.9-0.5-2.9,0c-2.3,0.5-3.8,3.1-3.2,5.8
		c0.2,0.7,0.6,1,1.2,0.9c1.5-0.4,1.7-2.7,1.8-4.6c0-1.1,0.6-1.6,1.3-1.7c0.5-0.1,0.9,0,0.9,0c-0.2,2.7-0.2,3.6-0.1,4.2
		c0.2,0.8,0.5,0.9,1.1,0.8c1-0.2,1.7-1.7,1.9-2.9c0.5-0.3,0.9-0.1,1.1,0.7C75,16.3,73.7,18.8,71.4,19.4z"></path>
        <path class="st0"
            d="M50.5,16.8c-0.1-0.3-0.3-0.5-0.7-0.4c-1.1,0.3-1.7,2.2-1.6,3.7C49.7,19.2,50.8,17.9,50.5,16.8z"></path>
        <path class="st0" d="M56.3,25c0.1,0.3,0.4,0.3,0.9,0.2c1.1-0.3,1.9-1.4,2-2C57.6,23.6,56.1,24.4,56.3,25z"></path>
    </g>
</svg>
