<svg viewBox="0 0 76 16" fill="none" xmlns="http://www.w3.org/2000/svg">
  <path
    d="M6.35234 15.012C6.35234 15.012 7.49119 14.2319 7.61599 13.3427C7.35078 13.0931 7.16357 12.7655 6.78916 12.3754C6.07153 11.6266 5.3539 10.7218 4.74547 10.1757C4.13704 9.61412 3.1698 9.2397 3.41941 8.94329C3.66902 8.64688 4.51146 8.35046 6.04033 9.47371C7.55359 10.597 6.63315 9.83253 6.92956 10.0509C8.06841 9.55172 7.7408 9.00569 7.36638 7.72644C7.00757 6.49398 6.61755 5.21473 6.32114 4.24749C6.00912 3.28024 7.22598 2.95263 7.53799 3.95107C7.7564 4.6375 8.25562 5.83876 8.69244 7.10241C8.73924 7.24282 8.69244 7.07121 8.73924 7.21162C8.80165 7.38322 9.53488 7.32082 9.53488 7.14921C9.53488 6.8528 9.53488 6.54079 9.53488 6.54079C9.53488 6.18197 9.53488 3.32705 9.53488 2.70302C9.53488 1.92298 10.8921 1.82938 10.8921 2.68742C10.8921 3.59226 10.8921 6.18197 10.8921 7.00881C10.8921 7.04001 10.8921 7.21162 10.8921 7.24282C10.8921 7.38322 11.6098 7.55483 11.6722 7.39882C11.6722 7.38322 11.7346 7.19601 11.7346 7.16481C11.875 6.68119 12.5302 4.4971 12.7486 3.65466C12.9202 2.96823 14.2307 2.99943 13.9967 3.88867C13.7627 4.77791 13.2946 6.49398 13.0138 7.53923C12.9982 7.58603 12.9358 7.89805 12.9202 7.92925C12.889 8.02285 13.4819 8.25686 13.5131 8.19446C13.6223 8.05405 13.5287 8.17886 13.6847 7.96045C14.0903 7.41442 14.7923 6.32238 14.9795 6.08837C15.2447 5.76075 16.134 5.85436 15.6971 6.66559C15.2603 7.47683 14.0903 9.0993 13.8875 9.58292C13.6847 10.0665 13.2478 11.7826 12.9982 12.6875C12.7486 13.5923 11.9062 13.7483 11.563 14.1851C11.3446 14.4659 10.8921 15.5268 10.8609 15.5736C14.0279 14.9808 16.5864 12.391 16.9764 9.02129C17.46 4.87151 14.4959 1.09615 10.3461 0.612526C6.22753 0.113305 2.45217 3.07743 1.96855 7.24282C1.57853 10.5814 3.43501 13.6859 6.35234 15.012L0 3.88867L6.35234 15.012Z"
    fill="currentColor"></path>
  <path
    d="M21.3644 12.525H20.0228L21.5135 4.43799H23.2278L24.7185 12.525H23.3768L23.116 10.7362H21.588L21.3644 12.525ZM21.8116 9.54361H22.9296L22.3706 6.07775H22.3333L21.8116 9.54361Z"
    fill="currentColor"></path>
  <path
    d="M29.2285 6.52478V12.5248H28.0359V11.9285C27.5142 12.3758 27.2533 12.6366 26.508 12.6366C25.8372 12.6366 25.4645 12.1521 25.4645 11.3695V6.52478H26.7316V11.1832C26.7316 11.4813 26.9179 11.6304 27.1788 11.6304C27.4396 11.6304 27.7005 11.4441 27.9987 11.2577V6.52478H29.2285Z"
    fill="currentColor"></path>
  <path
    d="M29.937 7.53093V6.48744H30.6451V4.88495H31.8749V6.48744H32.6948V7.53093H31.8749V10.9968C31.8749 11.2949 32.024 11.4813 32.2849 11.4813H32.6948V12.562C32.5085 12.5993 32.3967 12.6366 32.0613 12.6366C31.1296 12.6366 30.6078 12.1893 30.6078 11.2949V7.5682H29.937V7.53093Z"
    fill="currentColor"></path>
  <path
    d="M33.4764 8.64931C33.4764 7.34495 33.9981 6.41327 35.4143 6.41327C36.8304 6.41327 37.3522 7.34495 37.3522 8.64931V10.4009C37.3522 11.7052 36.8304 12.6369 35.4143 12.6369C33.9981 12.6369 33.4764 11.7052 33.4764 10.4009V8.64931ZM36.1224 8.42571C36.1224 7.71763 35.8615 7.45675 35.4143 7.45675C34.9671 7.45675 34.7062 7.75489 34.7062 8.42571V10.6245C34.7062 11.3326 34.9671 11.5934 35.4143 11.5934C35.8615 11.5934 36.1224 11.2953 36.1224 10.6245V8.42571Z"
    fill="currentColor"></path>
  <path
    d="M38.5826 12.5242V4.47449H42.3093V5.66704H39.9987V7.75401H41.7876V8.94657H39.9987V11.3317H42.4957V12.5242H38.5826Z"
    fill="currentColor"></path>
  <path
    d="M44.3216 9.3571L43.0918 6.52478H44.3961L45.0297 8.20181L45.7005 6.52478H47.0048L45.7005 9.31983L47.0794 12.5248H45.775L45.0297 10.4751H44.9924L44.247 12.5248H42.9427L44.3216 9.3571Z"
    fill="currentColor"></path>
  <path
    d="M50.3962 8.57477V8.42571C50.3962 7.71763 50.1353 7.45675 49.6881 7.45675C49.2409 7.45675 48.98 7.75489 48.98 8.42571V10.6245C48.98 11.3326 49.2409 11.5934 49.6881 11.5934C50.1353 11.5934 50.3962 11.2953 50.3962 10.6245V10.2518H51.6633V10.4009C51.6633 11.7052 51.1415 12.6369 49.7254 12.6369C48.3092 12.6369 47.7875 11.7052 47.7875 10.4009V8.64931C47.7875 7.34495 48.3092 6.41327 49.7254 6.41327C51.1415 6.41327 51.6633 7.30769 51.6633 8.57477H50.3962Z"
    fill="currentColor"></path>
  <path d="M52.7815 12.5242V4.47449H54.0486V12.5615H52.7815V12.5242Z" fill="currentColor"></path>
  <path
    d="M59.0047 6.52478V12.5248H57.8122V11.9285C57.2904 12.3758 57.0296 12.6366 56.2842 12.6366C55.6134 12.6366 55.2407 12.1521 55.2407 11.3695V6.52478H56.5078V11.1832C56.5078 11.4813 56.6941 11.6304 56.955 11.6304C57.2159 11.6304 57.4768 11.4441 57.7749 11.2577V6.52478H59.0047Z"
    fill="currentColor"></path>
  <path
    d="M62.5081 8.16463C62.4336 7.68015 62.21 7.41928 61.8 7.41928C61.4646 7.41928 61.241 7.60562 61.241 7.90375C61.241 8.83544 63.5888 9.20811 63.5888 10.9969C63.5888 12.0777 62.8435 12.5994 61.8373 12.5994C60.7565 12.5994 60.123 11.9659 59.9366 10.9224L61.0174 10.6243C61.0919 11.1087 61.2783 11.556 61.8373 11.556C62.1727 11.556 62.3963 11.3696 62.3963 11.0342C62.3963 9.99073 60.0484 9.61805 60.0484 7.97829C60.0484 7.04661 60.7938 6.37579 61.7255 6.37579C62.6944 6.37579 63.3652 7.04661 63.5516 7.97829L62.5081 8.16463Z"
    fill="currentColor"></path>
  <path d="M64.5944 5.59251V4.47449H65.8615V5.62978H64.5944V5.59251ZM64.5944 12.5242V6.52419H65.8615V12.5242H64.5944Z"
    fill="currentColor"></path>
  <path
    d="M66.9797 8.6488C66.9797 7.34445 67.5014 6.41276 68.9176 6.41276C70.3337 6.41276 70.8555 7.34445 70.8555 8.6488V10.4004C70.8555 11.7047 70.3337 12.6364 68.9176 12.6364C67.5014 12.6364 66.9797 11.7047 66.9797 10.4004V8.6488ZM69.0666 5.81648H68.135L69.0294 4.21399H70.5201L69.0666 5.81648ZM69.6257 8.4252C69.6257 7.71712 69.3648 7.45625 68.9176 7.45625C68.4704 7.45625 68.2095 7.75439 68.2095 8.4252V10.624C68.2095 11.3321 68.4704 11.5929 68.9176 11.5929C69.3648 11.5929 69.6257 11.2948 69.6257 10.624V8.4252Z"
    fill="currentColor"></path>
  <path
    d="M72.0114 12.5251V6.52507H73.2039V7.12135C73.7257 6.67414 73.9865 6.41327 74.7319 6.41327C75.4027 6.41327 75.7754 6.89774 75.7754 7.68036V12.5251H74.5083V7.8667C74.5083 7.56856 74.3219 7.41949 74.0611 7.41949C73.8002 7.41949 73.5393 7.60582 73.2412 7.79216V12.5251H72.0114Z"
    fill="currentColor"></path>
</svg>
