<svg width="20" height="20" viewBox="0 0 20 20" fill="none" xmlns="http://www.w3.org/2000/svg">
  <path fill-rule="evenodd" clip-rule="evenodd" d="M7.04926 1.66699H12.9514C13.2725 1.66699 13.5783 1.78932 13.8077 2.01867L17.982 6.20828C18.2113 6.43763 18.3337 6.74344 18.3337 7.06455V12.9667C18.3337 13.2878 18.2113 13.5936 17.982 13.823L13.8077 17.982C13.5783 18.2113 13.2725 18.3337 12.9514 18.3337H7.04926C6.72815 18.3337 6.42234 18.2113 6.19299 17.982L2.01867 13.8077C1.78932 13.5783 1.66699 13.2725 1.66699 12.9514V7.04926C1.66699 6.72815 1.78932 6.42234 2.01867 6.19299L6.19299 2.01867C6.42234 1.78932 6.72815 1.66699 7.04926 1.66699ZM10.0012 17.7673C9.78712 17.7673 9.61892 17.5991 9.61892 17.385V11.0069C9.11015 11.8782 8.32129 12.5606 7.3701 12.9364C7.30894 12.967 7.26307 12.967 7.21719 12.967C7.06429 12.967 6.92667 12.8752 6.86551 12.7223C6.78906 12.5236 6.8808 12.3095 7.07958 12.233C7.95869 11.884 8.66291 11.2289 9.07209 10.3971H2.63063C2.41656 10.3971 2.24836 10.2289 2.24836 10.0148C2.24836 9.80074 2.41656 9.63255 2.63063 9.63255H8.74839C8.39737 9.42413 7.95848 9.33177 7.45811 9.22647L7.4581 9.22647L7.43111 9.22079L7.4046 9.21521C6.83195 9.0947 6.24537 8.97126 5.70328 8.65504C5.01521 8.2422 4.69411 7.40122 4.93876 6.63669C5.07637 6.19327 5.38218 5.82629 5.79502 5.61223C6.15607 5.42502 6.5639 5.36645 6.95713 5.44674L6.95774 5.44431C6.99192 5.45279 7.02591 5.46167 7.0597 5.47094C7.07067 5.47388 7.08162 5.47693 7.09256 5.48009C8.20226 5.79395 9.0936 6.5287 9.61892 7.47479V2.62969C9.61892 2.41563 9.78712 2.24743 10.0012 2.24743C10.2153 2.24743 10.3834 2.41563 10.3834 2.62969V7.45571C10.9298 6.47875 11.8631 5.72699 13.0282 5.42933L13.0325 5.44629C13.4244 5.36727 13.8306 5.42608 14.1904 5.61263C14.6032 5.82669 14.909 6.19367 15.0467 6.63709C15.2913 7.40162 14.9702 8.2426 14.2821 8.65544C13.7317 8.99183 13.1353 9.11415 12.5543 9.22119C12.0434 9.32155 11.5923 9.41103 11.2336 9.63255H17.3707C17.5848 9.63255 17.7529 9.80074 17.7529 10.0148C17.7529 10.2289 17.5848 10.3971 17.3707 10.3971H10.9449C11.3572 11.2282 12.0701 11.8827 12.9357 12.2316C13.1345 12.308 13.2263 12.5374 13.1498 12.7209C13.0887 12.8738 12.9357 12.9655 12.7828 12.9655C12.737 12.9655 12.6911 12.9502 12.6452 12.935L12.6452 12.935C11.6859 12.556 10.8917 11.8651 10.3834 10.9831V17.385C10.3834 17.5991 10.2153 17.7673 10.0012 17.7673ZM12.3914 8.47709C11.7965 8.59804 11.1511 8.72925 10.6293 9.12755C10.7774 7.76952 11.7237 6.59438 13.0814 6.19854L13.0895 6.22425C13.3341 6.1325 13.5941 6.16308 13.8387 6.28541C14.0834 6.40773 14.2515 6.6218 14.328 6.86645C14.4656 7.29458 14.2974 7.76859 13.8999 7.99795C13.4564 8.25789 12.9519 8.36492 12.4167 8.47195L12.3914 8.47709ZM9.35551 9.1319C9.20347 7.77673 8.25642 6.60548 6.89962 6.21208L6.89594 6.22385C6.65129 6.1474 6.37606 6.16269 6.14671 6.28501C5.91735 6.40733 5.74915 6.60611 5.65741 6.86605C5.5198 7.29418 5.70328 7.76819 6.08555 7.99755C6.52897 8.25749 7.03356 8.36452 7.56873 8.47155L7.58596 8.47506L7.58597 8.47506C8.18536 8.59694 8.83027 8.72808 9.35551 9.1319Z" fill="#0CD0CD"/>
</svg>
