<svg width="164" height="211" viewBox="0 0 164 211" fill="none" xmlns="http://www.w3.org/2000/svg">
<g filter="url(#filter0_d)">
<rect x="2" y="1" width="160" height="207" rx="16" fill="#F2F2F2"/>
</g>
<rect x="2" y="1" width="160" height="205" rx="16" fill="white"/>
<path fill-rule="evenodd" clip-rule="evenodd" d="M56.0199 75.5099C36.5859 75.9646 18.1115 76.6742 12.0645 76.916C10.9279 76.9615 10 76.0518 10 74.9144V19C10 13.4772 14.4771 9 20 9H144C149.523 9 154 13.4772 154 19V74.9011C154 76.0435 153.062 76.9553 151.921 76.9034C145.889 76.6291 127.575 75.8374 108.084 75.4039C107.996 75.4949 107.906 75.5846 107.815 75.6729L97.1967 85.9244C95.158 87.8931 92.3919 89 89.507 89H74.4921C71.6081 89 68.842 87.8931 66.8024 85.9244L56.1851 75.6729C56.1294 75.6191 56.0743 75.5648 56.0199 75.5099Z" fill="#FFF0D9"/>
<defs>
<filter id="filter0_d" x="0" y="0" width="164" height="211" filterUnits="userSpaceOnUse" color-interpolation-filters="sRGB">
<feFlood flood-opacity="0" result="BackgroundImageFix"/>
<feColorMatrix in="SourceAlpha" type="matrix" values="0 0 0 0 0 0 0 0 0 0 0 0 0 0 0 0 0 0 127 0"/>
<feOffset dy="1"/>
<feGaussianBlur stdDeviation="1"/>
<feColorMatrix type="matrix" values="0 0 0 0 0.666667 0 0 0 0 0.721569 0 0 0 0 0.721569 0 0 0 0.2 0"/>
<feBlend mode="normal" in2="BackgroundImageFix" result="effect1_dropShadow"/>
<feBlend mode="normal" in="SourceGraphic" in2="effect1_dropShadow" result="shape"/>
</filter>
</defs>
</svg>
