<svg width="8" height="10" viewBox="0 0 8 10" fill="none" xmlns="http://www.w3.org/2000/svg">
<path fill-rule="evenodd" clip-rule="evenodd" d="M6.54161 4H7.02772C7.56439 4 7.99995 4.4475 7.99995 5V9C7.99995 9.5525 7.56439 10 7.02772 10H1.19439C0.657237 10 0.222168 9.5525 0.222168 9V5C0.222168 4.4475 0.657237 4 1.19439 4H1.6805V2.5C1.6805 1.1215 2.77085 0 4.11106 0C5.45127 0 6.54161 1.1215 6.54161 2.5V4ZM4.11106 1.71875C3.5739 1.71875 3.13883 2.13828 3.13883 2.65625V4.0625H5.08328V2.65625C5.08328 2.13828 4.64772 1.71875 4.11106 1.71875Z" fill="#444F4F"/>
</svg>
