<svg viewBox="0 0 359 144" fill="none" xmlns="http://www.w3.org/2000/svg">
<mask id="mask0" mask-type="alpha" maskUnits="userSpaceOnUse" x="0" y="0" width="359" height="144">
<path d="M0 0H359V144H0V0Z" fill="white"/>
</mask>
<g mask="url(#mask0)">
<g opacity="0.3">
<path d="M33.5282 32.9368C33.9632 31.8595 33.443 30.6334 32.3664 30.1981C31.2898 29.7629 30.0644 30.2833 29.6295 31.3606C29.1945 32.4379 29.7146 33.664 30.7912 34.0992C31.8678 34.5345 33.0932 34.014 33.5282 32.9368Z" fill="#43029A"/>
<path d="M164.9 2.87616C165.259 3.98116 166.445 4.58588 167.549 4.22685C168.653 3.86781 169.258 2.68097 168.899 1.57597C168.54 0.470975 167.354 -0.133749 166.25 0.225287C165.145 0.584323 164.541 1.77116 164.9 2.87616Z" fill="#01C9C7"/>
<path d="M179.158 0.553611C179.738 1.55983 181.024 1.90458 182.03 1.32364C183.035 0.742701 183.38 -0.54394 182.799 -1.55016C182.219 -2.55637 180.933 -2.90113 179.927 -2.32019C178.922 -1.73925 178.577 -0.452604 179.158 0.553611Z" fill="#FFD036"/>
<path d="M204.38 -5.25158C204.851 -5.85441 205.564 -6.1464 206.343 -5.90148C207.39 -5.68952 207.999 -4.60628 207.788 -3.55838L205.3 7.23854C205.088 8.28644 204.005 8.89633 202.958 8.68437C201.911 8.47241 201.301 7.38917 201.513 6.34126L204.001 -4.45565C204.161 -4.81594 204.262 -5.10088 204.38 -5.25158Z" fill="#01C9C7"/>
<path d="M20.8469 3.1943C19.9075 3.87723 19.6992 5.19286 20.3817 6.13283C21.0642 7.07281 22.3791 7.28119 23.3185 6.59825C24.2578 5.91532 24.4661 4.59969 23.7836 3.65972C23.1011 2.71974 21.7863 2.51136 20.8469 3.1943Z" fill="#01C9C7"/>
<path d="M102.607 9.92281C103.762 10.0443 104.797 9.20598 104.918 8.05047C105.039 6.89496 104.202 5.85978 103.047 5.73834C101.892 5.61689 100.858 6.45516 100.736 7.61067C100.615 8.76618 101.453 9.80136 102.607 9.92281Z" fill="#01C9C7"/>
<path d="M40.3583 58.9837C40.5186 58.7459 40.7047 58.6408 40.9443 58.4565L50.9978 52.0926C51.8492 51.5137 53.0671 51.759 53.5922 52.6901C54.1707 53.5419 53.9256 54.7606 52.995 55.286L42.9415 61.6499C42.0901 62.2288 40.8722 61.9835 40.3471 61.0524C39.8736 60.3868 39.9308 59.618 40.3583 58.9837Z" fill="#FFD036"/>
<path d="M75.2164 36.6247C76.0517 37.4318 77.3827 37.4086 78.1893 36.5728C78.9959 35.737 78.9726 34.4052 78.1374 33.5981C77.3021 32.791 75.9711 32.8142 75.1645 33.65C74.3579 34.4858 74.3811 35.8176 75.2164 36.6247Z" fill="#01C9C7"/>
<path d="M102.392 44.4907C103.427 45.0182 104.693 44.6066 105.22 43.5714C105.747 42.5361 105.336 41.2693 104.301 40.7418C103.267 40.2143 102 40.626 101.473 41.6612C100.946 42.6964 101.358 43.9633 102.392 44.4907Z" fill="#43029A"/>
<path d="M118.106 24.3484C118.377 24.255 118.588 24.2832 118.891 24.2802L130.747 25.2519C131.775 25.3022 132.601 26.2315 132.46 27.2913C132.41 28.32 131.481 29.1457 130.422 29.0049L118.565 28.0333C117.537 27.9829 116.712 27.0536 116.852 25.9938C116.875 25.1771 117.383 24.5975 118.106 24.3484Z" fill="#FFD036"/>
<path d="M131.957 96.1036C132.215 95.9783 132.428 95.9808 132.728 95.9416L144.616 95.4822C145.642 95.4087 146.573 96.2322 146.561 97.3012C146.634 98.3285 145.811 99.2597 144.743 99.2472L132.855 99.7066C131.829 99.7801 130.898 98.9566 130.91 97.8876C130.834 97.0741 131.269 96.4377 131.957 96.1036Z" fill="#FFD036"/>
<path d="M174.512 63.4982C174.24 63.4087 174.088 63.2583 173.845 63.078L164.979 55.1373C164.189 54.4758 164.092 53.2366 164.844 52.4772C165.505 51.6879 166.743 51.5914 167.503 52.3437L176.37 60.2844C177.159 60.9459 177.256 62.1851 176.504 62.9446C175.994 63.5819 175.239 63.7366 174.512 63.4982Z" fill="#FFD036"/>
<path d="M266.038 45.1133C267.736 43.6875 267.957 41.1542 266.532 39.4551C265.107 37.7559 262.576 37.5343 260.877 38.96C259.179 40.3858 258.958 42.9191 260.383 44.6182C261.808 46.3174 264.339 46.539 266.038 45.1133Z" fill="#01C9C7"/>
<path d="M210.157 49.2892C211.241 49.7055 212.457 49.1638 212.873 48.079C213.29 46.9943 212.748 45.7775 211.664 45.3611C210.58 44.9447 209.364 45.4865 208.948 46.5712C208.532 47.6559 209.073 48.8728 210.157 49.2892Z" fill="#43029A"/>
<path d="M207.821 136.882C207.386 137.959 207.906 139.185 208.983 139.62C210.059 140.056 211.285 139.535 211.719 138.458C212.154 137.381 211.634 136.154 210.558 135.719C209.481 135.284 208.256 135.804 207.821 136.882Z" fill="#FF8B97"/>
<path d="M256.539 2.91299C257.187 0.791799 255.994 -1.45349 253.874 -2.102C251.754 -2.75051 249.51 -1.55667 248.862 0.564516C248.214 2.68571 249.407 4.931 251.527 5.57951C253.647 6.22802 255.891 5.03418 256.539 2.91299Z" fill="#FF8B97"/>
<path d="M296.465 14.3668C296.515 14.6493 296.454 14.8542 296.41 15.1533L293.596 26.7193C293.385 27.7274 292.339 28.3975 291.315 28.0927C290.307 27.8821 289.638 26.835 289.942 25.8103L292.756 14.2444C292.967 13.2362 294.013 12.5661 295.037 12.8709C295.84 13.0206 296.332 13.6134 296.465 14.3668Z" fill="#FFD036"/>
<path d="M311.076 4.3359C311.307 5.42073 312.372 6.11323 313.457 5.88264C314.541 5.65206 315.233 4.5857 315.002 3.50087C314.772 2.41605 313.706 1.72355 312.622 1.95414C311.538 2.18472 310.846 3.25108 311.076 4.3359Z" fill="#43029A"/>
<path d="M321.024 26.2219C320.52 25.2337 319.312 24.8408 318.324 25.3443C317.337 25.8478 316.944 27.057 317.447 28.0452C317.951 29.0334 319.159 29.4263 320.147 28.9228C321.134 28.4193 321.527 27.2101 321.024 26.2219Z" fill="#43029A"/>
<path d="M345.03 35.7559C345.919 36.5027 347.245 36.3866 347.992 35.4966C348.738 34.6066 348.622 33.2796 347.733 32.5328C346.843 31.786 345.517 31.9021 344.771 32.7921C344.024 33.6821 344.14 35.0091 345.03 35.7559Z" fill="#01C9C7"/>
<path d="M-2.63373 87.3445C-4.49285 88.5525 -5.02124 91.0399 -3.81391 92.9002C-2.60658 94.7605 -0.120726 95.2892 1.7384 94.0811C3.59752 92.873 4.12591 90.3856 2.91858 88.5254C1.71125 86.6651 -0.774604 86.1364 -2.63373 87.3445Z" fill="#FF8B97"/>
<path d="M26.5664 73.0422C25.9858 72.036 24.6999 71.6912 23.6943 72.2722C22.6887 72.8531 22.3442 74.1398 22.9248 75.146C23.5054 76.1522 24.7912 76.497 25.7968 75.916C26.8024 75.3351 27.1469 74.0484 26.5664 73.0422Z" fill="#01C9C7"/>
<path d="M52.2081 100.533C52.9717 101.324 54.2318 101.346 55.0225 100.582C55.8132 99.8176 55.8352 98.5568 55.0717 97.7656C54.3081 96.9744 53.048 96.9524 52.2573 97.7165C51.4666 98.4806 51.4446 99.7414 52.2081 100.533Z" fill="#43029A"/>
<path d="M71.7836 77.8874C72.9583 79.7685 75.4345 80.3405 77.3144 79.1651C79.1943 77.9897 79.766 75.5119 78.5913 73.6308C77.4166 71.7498 74.9404 71.1777 73.0605 72.3531C71.1806 73.5286 70.6089 76.0063 71.7836 77.8874Z" fill="#FF8B97"/>
<path d="M106.505 87.3767C105.823 86.4367 104.508 86.2284 103.569 86.9113C102.629 87.5942 102.421 88.9098 103.104 89.8498C103.786 90.7898 105.101 90.9981 106.04 90.3152C106.98 89.6323 107.188 88.3167 106.505 87.3767Z" fill="#01C9C7"/>
<path d="M135.921 57.3458C136.64 57.0841 137.399 57.2146 137.93 57.8354C138.706 58.5704 138.649 59.8123 137.915 60.5886L130.087 68.4258C129.352 69.2021 128.111 69.1453 127.335 68.4103C126.559 67.6752 126.616 66.4334 127.351 65.657L135.179 57.8199C135.505 57.5992 135.742 57.4112 135.921 57.3458Z" fill="#01C9C7"/>
<path d="M51.432 14.6885C51.9553 15.2459 52.1342 15.9954 51.7725 16.7277C51.4021 17.7303 50.2381 18.1668 49.2353 17.797L38.9499 13.6855C37.9471 13.3158 37.5109 12.1525 37.8813 11.15C38.2516 10.1474 39.4156 9.71088 40.4184 10.0806L50.7038 14.1921C51.0352 14.4055 51.3012 14.5491 51.432 14.6885Z" fill="#FF8B97"/>
<path d="M224.808 40.7421C224.043 40.7421 223.374 40.3596 223.088 39.5947C222.611 38.6385 223.089 37.4911 224.045 37.013L234.082 32.3277C235.038 31.8496 236.184 32.3277 236.662 33.2839C237.139 34.2401 236.661 35.3875 235.705 35.8656L225.668 40.5509C225.286 40.6465 224.999 40.7421 224.808 40.7421Z" fill="#FF8B97"/>
<path d="M169.298 130.639C169.247 132.116 170.402 133.356 171.879 133.408C173.356 133.46 174.595 132.303 174.647 130.826C174.698 129.348 173.543 128.108 172.066 128.056C170.589 128.005 169.35 129.161 169.298 130.639Z" fill="#43029A"/>
<path d="M239.397 101.23L239.306 101.2L231.938 98.2167C230.972 97.7907 230.521 96.7312 230.856 95.7343C231.281 94.7679 232.34 94.3173 233.337 94.6526L240.705 97.6359C241.671 98.0619 242.122 99.1214 241.787 100.118C241.392 100.994 240.303 101.535 239.397 101.23Z" fill="#01C9C7"/>
<path d="M226.178 113.565C225.092 113.737 224.351 114.757 224.523 115.843C224.695 116.929 225.715 117.67 226.801 117.498C227.887 117.326 228.628 116.306 228.456 115.22C228.284 114.134 227.264 113.393 226.178 113.565Z" fill="#01C9C7"/>
<path d="M232.516 68.0641C233.676 68.0844 234.634 67.1591 234.654 65.9974C234.675 64.8357 233.75 63.8775 232.589 63.8573C231.428 63.837 230.47 64.7623 230.45 65.924C230.43 67.0857 231.355 68.0439 232.516 68.0641Z" fill="#FF8B97"/>
<path d="M274.581 121.602L274.674 121.578L282.459 119.985C283.499 119.805 284.46 120.439 284.732 121.455C284.912 122.496 284.279 123.457 283.264 123.729L275.478 125.322C274.438 125.502 273.477 124.868 273.205 123.852C273.05 122.904 273.658 121.85 274.581 121.602Z" fill="#FFD036"/>
<path d="M285.042 72.6412C284.888 70.4285 282.97 68.7602 280.758 68.915C278.547 69.0697 276.88 70.9889 277.034 73.2016C277.189 75.4143 279.107 77.0826 281.318 76.9278C283.53 76.7731 285.197 74.8539 285.042 72.6412Z" fill="#FF8B97"/>
<path d="M302.217 66.8294C301.726 65.7764 300.475 65.3208 299.423 65.8119C298.371 66.3029 297.915 67.5546 298.406 68.6076C298.897 69.6606 300.148 70.1162 301.2 69.6252C302.252 69.1342 302.708 67.8825 302.217 66.8294Z" fill="#FFD036"/>
<path d="M319.43 66.736C318.286 66.9378 317.523 68.0289 317.724 69.1731C317.926 70.3173 319.016 71.0814 320.16 70.8796C321.303 70.6778 322.067 69.5867 321.865 68.4425C321.664 67.2983 320.573 66.5343 319.43 66.736Z" fill="#01C9C7"/>
<path d="M318.398 94.4806C319.148 94.3346 319.878 94.5824 320.305 95.2786C320.957 96.126 320.706 97.3437 319.86 97.9955L310.903 104.511C310.056 105.163 308.839 104.912 308.188 104.065C307.536 103.217 307.787 102 308.633 101.348L317.59 94.8326C317.947 94.6657 318.21 94.5171 318.398 94.4806Z" fill="#01C9C7"/>
<path d="M72.7749 102.787C72.7372 102.023 73.0861 101.336 73.836 101.012C74.7674 100.488 75.9372 100.909 76.4619 101.84L81.6378 111.631C82.1626 112.562 81.7418 113.731 80.8103 114.256C79.8789 114.78 78.7092 114.359 78.1844 113.428L73.0085 103.636C72.8941 103.259 72.7844 102.978 72.7749 102.787Z" fill="#01C9C7"/>
<path d="M26.5825 131.603C26.3513 130.142 24.9806 129.146 23.521 129.377C22.0614 129.608 21.0655 130.98 21.2967 132.44C21.5279 133.901 22.8985 134.897 24.3582 134.666C25.8178 134.435 26.8137 133.063 26.5825 131.603Z" fill="#43029A"/>
<path d="M27.9681 109.102C27.4958 110.164 27.9729 111.407 29.0336 111.88C30.0944 112.352 31.3372 111.875 31.8095 110.814C32.2818 109.752 31.8047 108.509 30.7439 108.036C29.6832 107.563 28.4404 108.041 27.9681 109.102Z" fill="#01C9C7"/>
<path d="M55.2667 126.502C56.1159 127.294 57.4463 127.248 58.2382 126.398C59.0301 125.548 58.9836 124.217 58.1344 123.425C57.2852 122.632 55.9548 122.679 55.1629 123.528C54.371 124.378 54.4174 125.709 55.2667 126.502Z" fill="#FF8B97"/>
<path d="M86.5956 142.396C85.4598 142.637 84.7348 143.754 84.9762 144.891C85.2176 146.027 86.3341 146.753 87.4699 146.511C88.6056 146.27 89.3307 145.153 89.0892 144.016C88.8478 142.88 87.7314 142.154 86.5956 142.396Z" fill="#FF8B97"/>
<path d="M191.327 84.7963C190.252 85.025 189.565 86.0824 189.793 87.158C190.022 88.2336 191.079 88.92 192.154 88.6913C193.23 88.4625 193.917 87.4052 193.688 86.3296C193.46 85.254 192.403 84.5675 191.327 84.7963Z" fill="#FF8B97"/>
<path d="M99.2436 118.87C98.6984 117.844 97.4254 117.455 96.4002 118C95.3749 118.545 94.9857 119.819 95.5308 120.845C96.076 121.871 97.349 122.26 98.3742 121.715C99.3995 121.17 99.7887 119.896 99.2436 118.87Z" fill="#FFD036"/>
<path d="M136.969 144.247C136.08 144.994 135.964 146.321 136.71 147.211C137.456 148.101 138.782 148.217 139.672 147.47C140.561 146.724 140.677 145.397 139.931 144.507C139.185 143.617 137.859 143.5 136.969 144.247Z" fill="#43029A"/>
<path d="M138.254 120.966C136.103 120.429 133.924 121.739 133.388 123.891C132.852 126.044 134.161 128.223 136.312 128.76C138.462 129.297 140.641 127.987 141.177 125.835C141.713 123.682 140.404 121.503 138.254 120.966Z" fill="#01C9C7"/>
<path d="M190.162 120.05C189.031 119.789 187.902 120.495 187.641 121.627C187.379 122.759 188.085 123.889 189.216 124.15C190.348 124.411 191.477 123.706 191.738 122.573C191.999 121.441 191.294 120.312 190.162 120.05Z" fill="#01C9C7"/>
<path d="M239.894 125.396C241.198 126.09 242.819 125.594 243.512 124.289C244.206 122.983 243.711 121.362 242.406 120.668C241.101 119.973 239.481 120.469 238.787 121.775C238.093 123.08 238.589 124.702 239.894 125.396Z" fill="#43029A"/>
<path d="M283.073 139.456C282.36 138.606 281.094 138.495 280.245 139.208C279.396 139.921 279.285 141.188 279.998 142.037C280.71 142.887 281.976 142.998 282.825 142.285C283.674 141.572 283.785 140.305 283.073 139.456Z" fill="#43029A"/>
<path d="M356.138 81.4767C354.059 82.1931 352.954 84.4596 353.669 86.5391C354.385 88.6185 356.651 89.7236 358.73 89.0072C360.809 88.2908 361.914 86.0243 361.199 83.9448C360.483 81.8654 358.218 80.7603 356.138 81.4767Z" fill="#43029A"/>
<path d="M334.787 108.89C333.64 109.072 332.857 110.15 333.039 111.297C333.221 112.445 334.298 113.228 335.444 113.046C336.591 112.864 337.374 111.787 337.192 110.639C337.01 109.491 335.933 108.708 334.787 108.89Z" fill="#01C9C7"/>
</g>
</g>
</svg>
