<svg width="48" height="48" viewBox="0 0 48 48" fill="none" xmlns="http://www.w3.org/2000/svg">
    <path d="M23.9999 44.6354C35.3967 44.6354 44.6356 35.3965 44.6356 23.9997C44.6356 12.6029 35.3967 3.36401 23.9999 3.36401C12.6032 3.36401 3.36426 12.6029 3.36426 23.9997C3.36426 35.3965 12.6032 44.6354 23.9999 44.6354Z" fill="white"/>
    <path d="M47.9759 23.9999C47.9759 37.2127 37.2127 47.9759 23.9999 47.9759C10.7871 47.9759 0.0239258 37.2127 0.0239258 23.9999C0.0239258 10.7871 10.7871 0.0239258 23.9999 0.0239258C37.2127 0.0239258 47.9759 10.7871 47.9759 23.9999Z" fill="#3B058E"/>
    <path d="M44.6351 23.9997C44.6351 35.431 35.3565 44.6354 23.9994 44.6354C23.3314 44.6354 22.6633 44.6354 21.9952 44.5611C20.288 44.4127 18.6549 44.0415 17.1704 43.5219C16.9477 43.4477 16.7992 43.3735 16.5765 43.2992C15.76 43.0023 15.0177 42.6312 14.2754 42.26C13.9043 42.0373 13.5331 41.8147 13.162 41.592C12.4939 41.1466 11.8259 40.7012 11.232 40.1816C10.8609 39.8847 10.564 39.5878 10.1928 39.2909C9.97014 39.0682 9.74745 38.8455 9.52477 38.697C8.11442 37.2867 6.92675 35.7279 5.96177 33.9464C5.07102 32.3876 4.47719 30.6803 4.03181 28.8988C3.95758 28.5277 3.88336 28.2307 3.80913 27.8596C3.58645 26.5977 3.43799 25.3358 3.43799 23.9997C3.43799 23.6285 3.43799 23.2574 3.43799 22.8863C3.51222 20.9563 3.88336 19.1748 4.47719 17.4675C6.5556 11.3065 11.3805 6.48163 17.5415 4.40322C19.2488 3.80939 21.1045 3.43824 22.9602 3.36401C23.3314 3.36401 23.7025 3.36401 24.0737 3.36401C24.1479 3.36401 24.2963 3.36401 24.3706 3.36401C25.9294 3.36401 27.4882 3.5867 28.9728 3.95785C29.5666 4.1063 30.1604 4.25476 30.7543 4.47745C32.9069 5.21974 34.9853 6.33318 36.7668 7.6693C37.4349 8.1889 38.1029 8.78273 38.771 9.4508C39.2906 9.9704 39.8102 10.49 40.2556 11.0838C40.7752 11.7519 41.2206 12.42 41.6659 13.088C41.8886 13.4592 42.1113 13.7561 42.2598 14.1272C42.7051 14.8695 43.0763 15.686 43.3732 16.5026C43.4474 16.7252 43.5217 16.8737 43.5959 17.0964C44.1155 18.6552 44.4866 20.2882 44.6351 21.9213C44.6351 22.6636 44.6351 23.3316 44.6351 23.9997Z" fill="white"/>
    <path d="M44.5617 21.9956C44.636 22.6637 44.636 23.3317 44.636 23.9998C44.636 35.4311 35.3573 44.6355 24.0003 44.6355C23.3322 44.6355 22.6642 44.6355 21.9961 44.5612L44.5617 21.9956Z" fill="#0CD0CD"/>
    <path d="M28.899 3.95785L3.95809 28.8988C3.88386 28.5277 3.80963 28.2307 3.7354 27.8596C3.51272 26.5977 3.36426 25.3358 3.36426 23.9997C3.36426 23.6285 3.36426 23.2574 3.36426 22.8863C3.43849 20.9563 3.80963 19.1748 4.40346 17.4675L17.4678 4.40322C19.175 3.80939 21.0308 3.43824 22.8865 3.36401C23.2576 3.36401 23.6288 3.36401 23.9999 3.36401C24.0742 3.36401 24.2226 3.36401 24.2968 3.36401C25.9299 3.36401 27.4145 3.5867 28.899 3.95785Z" fill="#0CD0CD"/>
    <path d="M43.2994 16.5767L16.577 43.2992C15.7605 43.0023 15.0182 42.6311 14.2759 42.26L42.186 14.2756C42.5572 14.9437 42.9283 15.7602 43.2994 16.5767Z" fill="#0CD0CD"/>
    <path d="M25.9298 22.7381C25.336 22.7381 24.8164 22.2185 24.8164 21.6246V20.0658C24.8164 19.472 25.336 18.9524 25.9298 18.9524C26.5237 18.9524 27.0433 19.472 27.0433 20.0658V21.6246C27.0433 22.2927 26.5979 22.7381 25.9298 22.7381Z" fill="#3B058E"/>
    <path d="M36.6929 26.4495C36.5445 26.7464 36.2476 26.9691 35.8764 27.0433L33.798 27.3402C32.9815 29.2702 31.2742 31.794 28.3793 33.1301C29.3443 33.5755 30.3093 34.1693 31.2 34.7631C31.7196 35.1343 31.7938 35.8023 31.4227 36.3219C31.2 36.6189 30.8289 36.7673 30.5319 36.7673C30.3093 36.7673 30.0866 36.6931 29.8639 36.5446C28.3051 35.4312 26.5978 34.6147 24.7421 34.0951C24.3709 34.0951 24.074 34.1693 23.7029 34.1693C21.6244 34.1693 20.2141 33.5755 19.0264 32.9816C17.2449 33.2786 15.6119 33.8724 14.0531 34.6889C13.9046 34.7631 13.6819 34.8374 13.5335 34.8374C13.1623 34.8374 12.7912 34.6147 12.5685 34.2435C12.2716 33.7239 12.4943 33.0559 13.0139 32.759C14.9438 31.7197 16.948 31.0517 19.1007 30.6805C19.1749 30.6805 19.1749 30.6805 19.2491 30.6805C19.3233 30.6805 19.3976 30.6805 19.3976 30.6805C19.546 30.6805 19.6945 30.7548 19.7687 30.829C20.8822 31.4971 21.9214 31.9424 23.6286 31.9424C29.7897 31.9424 31.7196 26.2268 31.8681 25.9299C32.0165 25.5587 32.3134 25.2618 32.7588 25.1876L34.0207 25.0391C33.13 22.9607 31.7938 19.9916 31.4969 19.472C29.7896 16.2801 26.8947 14.4244 23.6286 14.4244C21.2533 14.4244 19.2491 15.3151 17.4676 17.0966C17.1707 17.3935 16.8738 17.7647 16.5769 18.1358C15.4634 19.472 13.9789 21.1792 11.4551 21.4761C8.78282 21.7731 7.22401 20.5112 7.00133 20.3627C6.55595 19.9916 6.48173 19.2493 6.85287 18.8039C7.22402 18.3585 7.96631 18.2843 8.41169 18.6554C8.48591 18.7297 9.45089 19.472 11.1582 19.2493C12.7912 19.0266 13.8304 17.9131 14.8696 16.6513C15.1665 16.2801 15.5377 15.8347 15.9088 15.4636C18.1357 13.2367 20.6595 12.1975 23.6286 12.1975C27.7112 12.1975 31.3485 14.4986 33.4269 18.4327C33.8722 19.2493 36.3218 24.8164 36.6187 25.4845C36.9156 25.7814 36.8414 26.1526 36.6929 26.4495Z" fill="#3B058E"/>
    <path d="M11.3068 36.3216C11.1583 36.3216 11.0099 36.3216 10.8614 36.2474C10.713 36.1731 10.5645 36.0989 10.4903 36.0247C10.4161 35.9504 10.3418 35.802 10.2676 35.6535C10.1934 35.5051 10.1934 35.3566 10.1934 35.2082C10.1934 35.1339 10.1934 35.0597 10.1934 34.9855C10.1934 34.9112 10.1934 34.837 10.2676 34.7628C10.2676 34.6885 10.3418 34.6143 10.3418 34.6143C10.416 34.5401 10.4161 34.4659 10.4903 34.4659C10.5645 34.3916 10.5645 34.3916 10.6387 34.3174C10.713 34.3174 10.7872 34.2432 10.8614 34.2432C10.9357 34.2432 11.0099 34.1689 11.0841 34.1689C11.2326 34.1689 11.381 34.1689 11.5295 34.1689C11.6037 34.1689 11.6779 34.1689 11.7522 34.2432C11.8264 34.2432 11.9006 34.3174 11.9006 34.3174C11.9749 34.3916 12.0491 34.3916 12.0491 34.4659C12.1233 34.5401 12.1233 34.5401 12.1975 34.6143C12.1975 34.6885 12.2718 34.7628 12.2718 34.7628C12.2718 34.837 12.346 34.9112 12.346 34.9855C12.346 35.0597 12.346 35.1339 12.346 35.2082C12.346 35.3566 12.346 35.5051 12.2718 35.6535C12.1975 35.802 12.1233 35.8762 12.0491 36.0247C11.9749 36.0989 11.8264 36.1731 11.6779 36.2474C11.6037 36.2474 11.4553 36.3216 11.3068 36.3216Z" fill="#3B058E"/>
    <path d="M26.9693 40.5528C26.8209 39.959 27.192 39.3652 27.7858 39.2167C28.3797 39.0682 28.9735 39.4394 29.122 40.0332C29.2704 40.627 28.8993 41.2209 28.3054 41.3693C28.2312 41.3693 28.157 41.3693 28.0085 41.3693C27.5631 41.3693 27.0435 40.9982 26.9693 40.5528ZM18.6557 41.1467C18.0618 40.9982 17.7649 40.3301 17.9134 39.7363C18.0618 39.1425 18.7299 38.8456 19.3237 38.994C19.9176 39.1425 20.2145 39.8105 20.066 40.4044C19.9176 40.8497 19.4722 41.2209 19.0268 41.2209C18.8784 41.1467 18.7299 41.1467 18.6557 41.1467ZM35.0603 36.5445C34.6149 36.0991 34.6149 35.431 35.0603 34.9856C35.5057 34.5403 36.1737 34.5403 36.6191 34.9856C37.0645 35.431 37.0645 36.0991 36.6191 36.5445C36.3964 36.7671 36.0995 36.9156 35.8026 36.9156C35.5799 36.8414 35.283 36.6929 35.0603 36.5445ZM39.9594 28.8989C39.3656 28.7504 38.9944 28.1566 39.1429 27.5627C39.2913 26.9689 39.8852 26.5978 40.479 26.7462C41.0728 26.8947 41.444 27.4885 41.2955 28.0823C41.1471 28.6019 40.7017 28.9731 40.1821 28.9731C40.1821 28.8989 40.1079 28.8989 39.9594 28.8989ZM38.7717 19.1006C38.6233 18.5068 38.9202 17.913 39.514 17.6903C40.1079 17.4676 40.7017 17.8387 40.9244 18.4326C41.0728 19.0264 40.7759 19.6202 40.1821 19.8429C40.1079 19.9171 39.9594 19.9171 39.8852 19.9171C39.3656 19.8429 38.9944 19.546 38.7717 19.1006ZM34.0953 12.0489C33.6499 11.6777 33.5757 10.9354 33.9468 10.4901C34.318 10.0447 35.0603 9.97045 35.5057 10.4158C35.951 10.787 36.0253 11.5293 35.6541 11.9746C35.4314 12.2716 35.1345 12.3458 34.8376 12.3458C34.6149 12.2716 34.318 12.1973 34.0953 12.0489ZM16.5772 8.70856C16.3546 8.11472 16.6515 7.52089 17.1711 7.22398C17.7649 7.00129 18.3587 7.29821 18.6557 7.89204C18.8784 8.48587 18.5814 9.0797 18.0618 9.30239C17.9134 9.37662 17.7649 9.37662 17.6164 9.37662C17.1711 9.37662 16.7999 9.0797 16.5772 8.70856ZM26.4497 8.41164C25.8559 8.33741 25.4105 7.74358 25.559 7.14975C25.6332 6.55591 26.227 6.11054 26.8209 6.259C27.4147 6.33323 27.8601 6.92706 27.7116 7.52089C27.6374 8.0405 27.1178 8.41164 26.5982 8.41164C26.5982 8.41164 26.5239 8.41164 26.4497 8.41164Z" fill="#3B058E"/>
    <path d="M10.4162 14.8697C10.1193 14.8697 9.82233 14.7212 9.59965 14.5728C9.52542 14.4985 9.4512 14.3501 9.37697 14.2016C9.30274 14.0532 9.30273 13.9047 9.30273 13.7563C9.30273 13.682 9.30273 13.6078 9.30273 13.5336C9.30273 13.4593 9.30274 13.3851 9.37697 13.3109C9.37697 13.2367 9.45119 13.1624 9.45119 13.0882C9.45119 13.014 9.52542 12.9397 9.59965 12.9397C9.67387 12.8655 9.67388 12.8655 9.74811 12.7913C9.82234 12.7913 9.89656 12.7171 9.97079 12.7171C10.045 12.7171 10.1193 12.6428 10.1935 12.6428C10.3419 12.6428 10.4904 12.6428 10.6389 12.6428C10.7131 12.6428 10.7873 12.6428 10.8615 12.7171C10.9358 12.7171 11.01 12.7913 11.0842 12.7913C11.1585 12.8655 11.2327 12.8655 11.2327 12.9397C11.2327 13.014 11.3069 13.0882 11.3811 13.0882C11.4554 13.1624 11.4554 13.2367 11.4554 13.3109C11.4554 13.3851 11.5296 13.4593 11.5296 13.5336C11.5296 13.6078 11.5296 13.682 11.5296 13.7563C11.5296 13.9047 11.5296 14.0532 11.4554 14.2016C11.3811 14.3501 11.3069 14.4243 11.2327 14.5728C11.1585 14.647 11.01 14.7212 10.8615 14.7955C10.7131 14.8697 10.5646 14.8697 10.4162 14.8697Z" fill="#3B058E"/>
    <path d="M11.1581 26.1526C9.67349 26.1526 8.18891 25.7815 6.77856 25.0392C6.25896 24.7423 6.03627 24.0742 6.33318 23.5546C6.6301 23.035 7.29816 22.8123 7.81776 23.1092C11.2323 24.965 15.1664 23.4804 16.8737 21.105C17.2449 20.5854 17.9129 20.5112 18.4325 20.8824C18.9521 21.2535 19.0264 21.9216 18.6552 22.4412C17.1706 24.5938 14.2757 26.1526 11.1581 26.1526Z" fill="#3B058E"/>
    <path d="M11.6034 30.6806C10.193 30.6806 8.78266 30.3837 7.3723 29.6414C6.8527 29.3445 6.63002 28.6764 6.92694 28.1568C7.22385 27.6372 7.89191 27.4145 8.41152 27.7114C11.4549 29.3445 14.8694 28.0826 15.9829 27.0434C16.4283 26.598 17.1705 26.6722 17.5417 27.1176C17.9871 27.563 17.9128 28.3053 17.4675 28.6764C16.2798 29.7156 14.0529 30.6806 11.6034 30.6806Z" fill="#3B058E"/>
</svg>
