<svg width="42" height="47" viewBox="0 0 42 47" fill="none" xmlns="http://www.w3.org/2000/svg">
  <path d="M36.02 12.7V8c0-3.31-2.69-6-6-6h-18c-3.31 0-6 2.69-6 6v4.7c-2.42 1.15-4 3.6-4 6.3v10c0 2.27 1.54 4.25 3.75 4.83l2.25.13V41c0 2.21 1.79 4 4 4s4-1.79 4-4v-3h10v3c0 2.21 1.79 4 4 4s4-1.79 4-4v-7.05l2.05-.1.2-.03a4.993 4.993 0 0 0 3.75-4.83V19c0-2.7-1.58-5.15-4-6.3z" fill="var(--svg-icon-fill)" />
  <path d="M35 25H7v8h8v6h12v-6h8v-8z" fill="var(--svg-icon-stroke)"/>
  <path d="M38 11.54V8c0-4.41-3.59-8-8-8H12C7.59 0 4 3.59 4 8v3.54C1.54 13.19 0 15.97 0 19v10c0 3.52 2.61 6.44 6 6.93V41c0 3.31 2.69 6 6 6s6-2.69 6-6v-1h6v1c0 3.31 2.69 6 6 6s6-2.69 6-6v-5.07c3.39-.49 6-3.41 6-6.93V19c0-3.03-1.54-5.81-4-7.46zM39 29c0 1.86-1.28 3.41-3 3.86V21c0-.83-.67-1.5-1.5-1.5S33 20.17 33 21v20c0 1.66-1.34 3-3 3s-3-1.34-3-3v-4H15v4c0 1.66-1.34 3-3 3s-3-1.34-3-3V21c0-.83-.67-1.5-1.5-1.5S6 20.17 6 21v11.86c-1.72-.45-3-2-3-3.86V19c0-2.61 1.67-4.81 4-5.63V8c0-2.76 2.24-5 5-5h18c2.76 0 5 2.24 5 5v5.37c2.33.83 4 3.02 4 5.63v10z" fill="var(--svg-icon-stroke)"/>
  <path d="M13.02 12c-1.65 0-3-1.35-3-3 0-.55.45-1 1-1s1 .45 1 1 .45 1 1 1 1-.45 1-1 .45-1 1-1 1 .45 1 1c0 1.65-1.35 3-3 3zM29.02 12c-1.65 0-3-1.35-3-3 0-.55.45-1 1-1s1 .45 1 1 .45 1 1 1 1-.45 1-1 .45-1 1-1 1 .45 1 1c0 1.65-1.35 3-3 3zM27.02 17.5h-12c-.83 0-1.5-.67-1.5-1.5s.67-1.5 1.5-1.5h12c.83 0 1.5.67 1.5 1.5s-.67 1.5-1.5 1.5z" fill="var(--svg-icon-stroke)"/>
</svg>