<svg width="24" height="32" fill="none" xmlns="http://www.w3.org/2000/svg">
  <path
    fill-rule="evenodd"
    clip-rule="evenodd"
    d="M1.23 31.96c.225.11.448.11.672.11.56 0 1.119-.22 1.343-.656l1.119-1.092 1.119 1.201c.335.328.783.546 1.454.546.56 0 1.119-.218 1.455-.655l.895-.983 1.007 1.092c.671.765 2.126.765 2.797 0l1.007-.983.783.983c.336.437.895.655 1.455.655s1.119-.109 1.454-.546l1.12-1.092 1.006 1.092c.56.546 1.455.656 2.126.437.783-.218 1.23-.983 1.23-1.747V2.035c0-.764-.447-1.42-1.118-1.747a1.916 1.916 0 0 0-2.014.218l-1.119.874-1.343-.983c-.671-.546-1.79-.546-2.461.11l-1.007.873-1.343-.983c-.671-.437-1.678-.437-2.35.11l-1.23.982-.895-.765C7.72.178 6.713.178 5.93.615l-1.343.983L2.91.615a1.963 1.963 0 0 0-1.902 0C.336.943 0 1.598 0 2.253v27.96c0 .764.448 1.42 1.23 1.747zm8.84-3.932c-.224-.218-.448-.327-.783-.327-.336 0-.672.109-1.007.436l-1.455 1.639-1.678-1.748c-.224-.218-.448-.327-.783-.327-.336 0-.56.109-.784.327l-1.342 1.42V2.8L4.14 3.892c.336.218.895.218 1.23-.11l1.79-1.2 1.455 1.2a1.199 1.199 0 0 0 1.455 0l1.566-1.42 1.903 1.42c.447.219 1.007.219 1.454-.109l1.566-1.31 1.679 1.31c.335.328.895.328 1.342 0l1.455-1.092v26.867l-1.343-1.42c-.224-.218-.447-.327-.783-.327s-.56.109-.783.327l-1.678 1.748-1.343-1.639c-.112-.327-.448-.436-.783-.436-.336-.11-.672.109-.895.327l-1.679 1.748-1.678-1.748zm.447-7.535h2.014c.56 0 1.12.436 1.12 1.092 0 .655-.448 1.092-1.12 1.092H6.938c-.671 0-1.119-.437-1.119-1.092 0-.656.448-1.093 1.12-1.093H10.516zm5.93-5.461h-9.51c-.671 0-1.119.437-1.119 1.092s.448 1.092 1.12 1.092h9.51c.67 0 1.119-.437 1.119-1.092s-.56-1.092-1.12-1.092zM12.533 9.57h3.916c.559 0 1.119.437 1.119 1.092s-.448 1.092-1.12 1.092h-9.51c-.671 0-1.119-.437-1.119-1.092s.448-1.092 1.12-1.092h5.593z"
    fill="currentColor"
  />
</svg>
