<svg width="36" height="28" fill="none" xmlns="http://www.w3.org/2000/svg">
  <path
    d="M36 7.436C36 3.369 27.965 0 17.948 0 8.035 0 0 3.37 0 7.436V20.796c.209.697 2.296 7.087 17.74 7.203h.286c-.104 0 .159.002.34 0 15.338-.116 17.53-6.506 17.634-7.203V7.668v-.116-.116zm-25.46 4.298c.938-.697 3.547-1.626 7.408-1.626 3.86 0 6.365.93 7.409 1.626-.418.232-1.253.465-2.61.697-.834.116-1.773.233-2.712.233H17.948h-.105-2.086c-1.148 0-2.192-.117-3.13-.233-.94-.116-1.94-.627-2.088-.697zm2.295-9.062L14.4 8.016c-.94.117-1.774.349-2.609.581L6.365 4.182a31.454 31.454 0 0 1 6.47-1.51zm16.487 1.394L24 8.481c-.73-.232-1.67-.465-2.504-.58l1.46-5.229c2.61.232 4.696.813 6.366 1.394zm4.591 3.37c0 .929-2.087 2.672-6.052 3.834-.209-.698-.73-1.279-1.565-1.743l5.321-4.415c1.566.93 2.296 1.743 2.296 2.324zM20.765 2.44l-1.46 4.996-.066.232h-2.752l-1.565-5.344h3.13c.94 0 1.878 0 2.713.116zM4.07 5.344c.104 0 .104 0 0 0l5.426 4.299c-.626.465-1.148 1.046-1.253 1.627-4.07-1.162-6.156-2.905-6.156-3.834 0-.465.73-1.278 1.983-2.092zM20.974 25.56c-.626 0-2.322.116-2.948.116v-3.95h2.948v3.834zm-2.948.116c-.626 0-2.478 0-3-.116v-3.834h3v3.95zm15.783-5.46c-.313.696-2.087 4.182-10.748 5.111v-4.88c0-.696-.418-1.161-1.044-1.161h-8.034c-.627 0-1.044.465-1.044 1.162v4.88c-8.66-.93-10.539-4.532-10.852-5.113v-9.062c3.235 2.324 7.826 3.253 11.27 3.602 1.356.116 2.921.232 4.59.232h2.714c3.443-.232 9.287-.93 13.148-3.717V20.215z"
    fill="currentColor"
  />
</svg>
