<svg width="100%" height="100%" viewBox="0 0 80 80" fill="none" xmlns="http://www.w3.org/2000/svg">
<circle cx="40" cy="40" r="40" fill="#3C0098"/>
<path d="M40 2.58069L45.8387 16.3116L57.3897 6.86685L56.1785 21.7383L70.7956 18.7434L62.812 31.3486L77.1466 35.4896L64.2196 42.9408L74.9877 53.2691L60.0787 53.8594L64.8137 68.0088L51.3381 61.6029L48.9551 76.3321L40 64.3975L31.045 76.3321L28.662 61.6029L15.1864 68.0088L19.9214 53.8594L5.01234 53.2691L15.7805 42.9408L2.85352 35.4896L17.1881 31.3486L9.20452 18.7434L23.8216 21.7383L22.6104 6.86685L34.1614 16.3116L40 2.58069Z" fill="#FEC843"/>
<path d="M44.6938 20.9488L47.2206 26.2397L53.0102 25.3124L52.7887 31.1715L58.346 33.0409L55.427 38.126L59.4791 42.3639L54.5313 45.51L56.1497 51.1456L50.3066 51.632L49.1206 57.3741L43.7208 55.0894L40.0022 59.6227L36.2826 55.0902L30.8833 57.3761L29.6961 51.6342L23.8529 51.1491L25.4701 45.5132L20.5216 42.3681L24.5727 38.1293L21.6527 33.0449L27.2096 31.1743L26.9869 25.3152L32.7766 26.2413L35.3022 20.9498L39.9984 24.4604L44.6938 20.9488Z" fill="white"/>
</svg>
