<svg width="9" height="15" viewBox="0 0 9 15" fill="none" xmlns="http://www.w3.org/2000/svg">
<path d="M0 1C0 0.447716 0.447715 0 1 0H2.99999V2.99999H0V1Z" fill="#798291"/>
<path d="M6.00024 0H8.00024C8.55252 0 9.00024 0.447715 9.00024 1V2.99999H6.00024V0Z" fill="#798291"/>
<rect y="5.99951" width="2.99999" height="2.99999" fill="#798291"/>
<rect x="6.00024" y="5.99951" width="2.99999" height="2.99999" fill="#798291"/>
<rect x="3" y="2.99927" width="2.99999" height="2.99999" fill="#798291"/>
<rect x="3" y="8.99988" width="2.99999" height="2.99999" fill="#798291"/>
<path d="M0 12.0001H2.99999V15.0001H1C0.447716 15.0001 0 14.5524 0 14.0001V12.0001Z" fill="#798291"/>
<path d="M6.00024 12.0001H9.00024V14.0001C9.00024 14.5524 8.55252 15.0001 8.00024 15.0001H6.00024V12.0001Z" fill="#798291"/>
</svg>
