<svg viewBox="0 0 120 76" fill="none" xmlns="http://www.w3.org/2000/svg">
<path d="M61.3804 6.79652L58.7044 8.19648L59.2155 5.23105L57.0506 3.13094L60.0424 2.69812L61.3804 0L62.7184 2.69812L65.7103 3.13094L63.5453 5.23105L64.0561 8.19648L61.3804 6.79652Z" fill="white"/>
<path d="M91.8383 9.23881C92.2171 10.378 91.6228 11.8565 91.6228 11.8565C91.6228 11.8565 89.6806 10.9225 89.3589 9.80267C89.0375 8.68251 89.2814 6.16928 89.2814 6.16928C89.2814 6.16928 91.4595 8.09993 91.8383 9.23881Z" fill="white"/>
<path d="M94.5958 15.6803C94.5958 15.6803 95.4092 14.3093 95.2089 13.1261C95.0086 11.9428 93.1509 9.70513 93.1509 9.70513C93.1509 9.70513 92.5259 12.152 92.6724 13.3077C92.8189 14.4633 94.5958 15.6803 94.5958 15.6803Z" fill="white"/>
<path d="M97.4303 17.8376C97.1722 19.0096 95.9035 19.9797 95.9035 19.9797C95.9035 19.9797 94.7113 18.1906 95.009 17.0639C95.3059 15.9371 96.804 13.8994 96.804 13.8994C96.804 13.8994 97.6883 16.6655 97.4303 17.8376Z" fill="white"/>
<path d="M96.3587 20.3216C95.6764 21.268 96.1472 23.3632 96.1472 23.3632C96.1472 23.3632 97.6806 22.9084 98.3425 21.9058C99.0044 20.9029 99.1721 18.0047 99.1721 18.0047C99.1721 18.0047 97.0411 19.3751 96.3587 20.3216Z" fill="white"/>
<path d="M98.5326 25.9106C97.7159 26.793 96.1285 26.9933 96.1285 26.9933C96.1285 26.9933 96.0064 24.8502 96.8343 24.0266C97.6621 23.2033 99.9884 22.1961 99.9884 22.1961C99.9884 22.1961 99.3496 25.0285 98.5326 25.9106Z" fill="white"/>
<path d="M94.6354 30.7045C94.6354 30.7045 96.2325 30.8008 97.2 30.0849C98.1674 29.3689 99.3233 26.7037 99.3233 26.7037C99.3233 26.7037 96.8495 27.2636 95.8824 27.92C94.9152 28.5759 94.6354 30.7045 94.6354 30.7045Z" fill="white"/>
<path d="M94.9868 33.976C93.9028 34.5011 92.3513 34.1113 92.3513 34.1113C92.3513 34.1113 93.0235 32.0713 94.0962 31.6053C95.1689 31.1393 97.7041 31.0464 97.7041 31.0464C97.7041 31.0464 96.0707 33.4513 94.9868 33.976Z" fill="white"/>
<path d="M27.6549 45.5386C28.3581 45.4194 28.7709 45.3888 29.3797 45.3888C29.9022 45.3888 28.3652 47.9972 27.7161 49.0985C27.5839 49.323 27.4885 49.4849 27.4549 49.5493C27.0518 49.61 26.7407 49.6492 26.4371 49.6874C26.0791 49.7324 25.7311 49.7762 25.2557 49.8524C26.0401 48.449 26.8209 47.0481 27.6549 45.5386Z" fill="white"/>
<path d="M43.1666 47.255C43.1718 47.2363 43.177 47.2177 43.1832 47.199C43.4148 46.4112 43.6348 45.6671 43.8916 44.7986L43.8919 44.7977L43.898 44.7771C44.0246 44.3487 44.1603 43.8898 44.3108 43.3804C45.134 43.3124 45.5498 43.2822 46.377 43.2227C46.3292 43.4049 46.2833 43.5816 46.2389 43.7528L46.2387 43.7534L46.2378 43.7571C46.1869 43.9531 46.1379 44.1419 46.0899 44.3235L46.0771 44.3744C45.8782 45.1332 45.7063 45.7909 45.5342 46.4493C45.2833 47.4089 45.0321 48.37 44.6965 49.6478L44.4553 49.6659C43.6952 49.7227 43.2408 49.7567 42.4118 49.8229C42.5841 49.2389 42.7364 48.7197 42.8778 48.2374C42.9721 47.916 43.0616 47.611 43.1489 47.3142C43.1557 47.2944 43.1612 47.2747 43.1666 47.255Z" fill="white"/>
<path fill-rule="evenodd" clip-rule="evenodd" d="M107.994 51.6563L113.781 60.6662C114.38 61.6012 114.675 62.5187 114.675 63.3959V71.2032C114.675 72.2048 114.282 73.102 113.555 73.7388C113.052 74.1791 112.187 74.6415 110.88 74.6415C110.539 74.6415 110.169 74.6103 109.763 74.5394C104.961 73.7453 100.059 73.0219 95.2138 72.3917L93.9968 72.2314L92.6258 72.0919C86.4475 71.4623 80.1728 70.9792 73.9763 70.6554L73.7743 70.6449C72.8801 70.598 72.141 69.9346 72.0027 69.0538L71.9381 68.644C71.9227 68.6605 71.9079 68.6773 71.8932 68.6941C71.8715 68.7188 71.8498 68.7435 71.8262 68.7671C70.7277 69.8689 69.1092 70.483 67.3548 70.4492C63.0761 70.3671 60.9864 70.3671 56.708 70.4492C56.6628 70.4502 56.6173 70.4505 56.5724 70.4505C54.8807 70.4505 53.307 69.841 52.2369 68.7675C52.2141 68.7445 52.1928 68.7204 52.1716 68.6962C52.1561 68.6785 52.1406 68.6609 52.1244 68.6437L52.0561 69.0791C51.9185 69.9523 51.1814 70.6082 50.2941 70.6469L50.0664 70.6564C46.8469 70.7957 45.2779 70.8863 42.0699 71.1178L39.4355 71.3208C36.2249 71.5832 34.6588 71.7342 31.4571 72.0895L28.8293 72.394C25.6305 72.7802 24.0698 72.9913 20.8777 73.4705L18.2617 73.8764C15.0712 74.3867 13.5174 74.6583 10.3454 75.2606L6.5359 75.9837C5.97331 76.0904 5.45262 75.6599 5.4546 75.0901L5.47802 68.6847C5.47868 68.4857 5.53412 68.2906 5.63872 68.1209L8.13658 64.054L24.4189 38.6491C24.4869 38.5431 24.5958 38.4695 24.7198 38.4459L25.4339 38.3106C29.4961 37.5392 31.6079 37.196 35.7048 36.6413C36.831 36.4896 37.8764 36.7796 38.6488 37.459C38.7072 37.5103 38.7636 37.5635 38.8181 37.6186C38.991 37.7933 39.2692 37.816 39.4496 37.6495C40.5768 36.6088 41.9343 35.8949 43.2057 35.7727C46.1879 35.485 47.7345 35.3658 50.7273 35.1931C51.9175 35.1238 53.0457 35.532 53.899 36.3415C53.9577 36.3973 54.0145 36.4551 54.0693 36.5145C54.2412 36.7011 54.5395 36.6981 54.7186 36.5182C55.6838 35.5477 56.9456 34.9287 58.2618 34.9038C61.2556 34.846 62.8055 34.8463 65.8006 34.9034C66.5315 34.9175 67.2439 35.1192 67.8999 35.4571L67.9025 35.1445C67.9336 35.0666 67.9986 34.9888 68.1286 34.956L70.4789 35.0492C74.9002 35.2246 79.3135 35.5642 83.7094 36.0683L84.2495 36.1303C84.6917 36.1809 85.0698 36.4702 85.2325 36.8827C85.3388 37.1516 85.6601 37.2469 85.9093 37.0978C86.6085 36.6804 87.4582 36.5185 88.3593 36.6416C92.1599 37.1559 94.1189 37.4702 97.8868 38.1707L98.3471 38.256C98.6431 38.3112 98.9041 38.4869 99.0635 38.7408L105.424 48.84C105.449 48.88 105.481 48.9158 105.518 48.946C106.498 49.7487 107.376 50.6921 107.994 51.6563ZM20.5576 62.6859C23.7596 62.2038 25.3629 61.9907 28.5696 61.6022C29.6882 58.9868 30.2455 57.6818 31.3601 55.0664C32.1191 53.2957 31.1331 52.0241 29.2295 52.2845C31.1331 52.0241 33.3792 50.3388 34.1338 48.5684C35.0742 46.3701 35.6731 44.965 36.4219 43.2082C36.7107 42.5306 37.0218 41.8007 37.3834 40.9528C37.486 40.7141 37.5632 40.4836 37.6147 40.2619C37.6361 40.1719 37.6533 40.0826 37.6662 39.9972L37.6689 39.9793C37.6808 39.9005 37.6922 39.825 37.6962 39.7496C37.7605 38.8541 37.3705 38.2097 36.633 38.056C36.4443 38.0176 36.2301 38.0134 35.9942 38.0432C31.9174 38.5979 29.8855 38.9266 25.8345 39.6941C23.1852 43.8261 20.5371 47.9591 17.889 52.0922C15.2408 56.2254 12.5925 60.3586 9.94316 64.4908C13.1284 63.8849 14.7231 63.6077 17.9212 63.0957L19.5451 60.155C20.172 59.0197 20.7685 57.9393 21.599 56.4358C22.5635 56.2821 23.0479 56.2056 24.017 56.0601C23.3543 57.3284 22.8507 58.2936 22.3538 59.2458C21.8126 60.283 21.2795 61.3047 20.5576 62.6859ZM49.974 59.8488L51.9842 48.573C52.0911 47.8929 52.1978 47.2123 52.3045 46.5314L52.305 46.5282C52.6634 44.2426 53.0223 41.9533 53.3905 39.6645C53.5103 38.8879 53.1288 38.1753 52.7903 37.638C52.3874 36.9723 51.6885 36.5628 50.8527 36.6098C47.8731 36.7848 46.3856 36.8998 43.4106 37.1858C41.8974 37.3306 40.0231 38.9647 39.3246 40.7269C38.573 42.6328 37.8976 44.5378 37.2222 46.4424C35.8597 50.2851 34.4976 54.1265 32.5121 57.9717V57.9757C32.2876 58.7275 31.9682 59.4812 31.6492 60.234C31.4992 60.588 31.3493 60.9418 31.2093 61.2951C32.8598 61.1115 34.0929 60.9795 35.3273 60.8643C35.3359 60.8643 35.341 60.8633 35.3462 60.8623C35.3513 60.8613 35.3564 60.8603 35.365 60.8603C36.5225 60.7493 37.7051 60.6465 39.2487 60.5188C39.5088 59.6363 39.7031 58.982 39.8994 58.3212C40.0845 57.6977 40.2715 57.068 40.5171 56.2355C41.5202 56.1541 42.0237 56.1156 43.0268 56.0434C42.8427 56.7429 42.6959 57.3021 42.5586 57.8351C42.5071 58.0272 42.4596 58.2147 42.4124 58.4026C42.3225 58.7427 42.2324 59.0904 42.1322 59.477L42.1284 59.4918C42.0625 59.746 41.9923 60.0171 41.9148 60.3139C45.1383 60.0833 46.7502 59.9897 49.974 59.8488ZM56.6655 59.6436C60.9567 59.5625 63.1045 59.5608 67.3954 59.6416C69.586 59.6843 71.2494 58.2877 71.0392 56.5596C70.8839 55.2989 70.7676 54.3507 70.6516 53.4046L70.6468 53.3661C70.5308 52.42 70.4145 51.4717 70.2592 50.211C67.434 50.1171 66.0237 50.0872 63.1985 50.0744C63.2092 50.7059 63.2167 51.1785 63.2242 51.6511C63.2318 52.1236 63.2393 52.5962 63.25 53.2277C62.2769 53.2231 61.7882 53.2231 60.8108 53.2277C60.8473 51.1136 60.8752 49.5286 60.9031 47.9436C60.931 46.3586 60.9588 44.7736 60.9953 42.6595C61.8225 42.6553 62.2383 42.6553 63.0655 42.6595C63.0843 43.574 63.0938 44.1617 63.1057 44.8926C63.1103 45.1778 63.1153 45.4855 63.1213 45.8424C65.7706 45.8548 67.0912 45.8805 69.7359 45.9704C69.5761 44.6676 69.4578 43.6974 69.3385 42.7197L69.3373 42.7093C69.2234 41.7756 69.1085 40.8338 68.9558 39.5877C68.7417 37.86 67.2796 36.3536 65.7581 36.3237C63.9917 36.2901 62.2001 36.3383 60.4195 36.3863H60.4174C59.7103 36.4053 59.0044 36.4242 58.3031 36.438C56.7813 36.4679 55.3195 37.9168 55.1093 39.6448C55.0707 39.9563 55.0321 40.2617 54.9935 40.567C54.9549 40.8723 54.9163 41.1776 54.8777 41.4891C54.7856 42.2422 54.6935 42.9906 54.6013 43.7391L54.6011 43.7413C54.509 44.4889 54.4169 45.2366 54.325 45.9888C54.1085 47.7534 53.8919 49.5162 53.6753 51.279C53.4588 53.0409 53.2423 54.8028 53.0259 56.5665C52.8117 58.2945 54.4791 59.6863 56.6655 59.6436ZM82.6007 60.395C84.4399 60.5273 86.2788 60.681 88.1181 60.8429C89.6911 60.9838 91.2647 61.1332 92.8419 61.2951C92.2993 59.9211 91.9006 58.9061 91.4941 57.8712L91.3845 57.5921C91.1405 56.9739 90.8893 56.3393 90.5983 55.6038L90.2741 54.7846C89.71 54.7221 89.1863 54.6651 88.6931 54.6114L88.6923 54.6113L88.3666 54.5758C85.8116 54.3068 83.9941 54.1449 81.1732 53.94C80.9462 53.9229 80.7103 53.9058 80.4701 53.8891C80.2801 53.1505 80.171 52.7349 79.9993 52.0807L79.9991 52.0799L79.9174 51.7686C81.1732 51.8579 82.1549 51.9305 83.1022 52.0162C84.3027 52.1138 85.4473 52.2248 87.0332 52.387C86.9018 52.0243 86.7794 51.6865 86.6636 51.3668C86.3789 50.5811 86.1337 49.9045 85.8928 49.2344C85.6159 48.4622 85.3385 47.6954 85.0045 46.7719L84.9964 46.7495L84.6884 45.8979C82.112 45.6378 80.8218 45.5268 78.2411 45.3389C78.0181 44.4943 77.9065 44.0674 77.6881 43.2227C81.0231 43.4618 82.6865 43.6152 86.0132 43.9823L85.7661 43.3572L85.7609 43.3441C84.893 41.1487 84.3824 39.857 83.4451 37.4761C79.1284 36.9812 74.7517 36.6439 70.409 36.4692L71.4225 42.9125C72.3107 48.5591 73.1988 54.2053 74.0872 59.8492C74.4514 59.8663 74.82 59.8873 75.1846 59.9089C77.6624 60.0456 80.1315 60.2075 82.6007 60.395ZM95.4913 61.6025C100.395 62.2383 105.257 62.9552 110.135 63.7614C112.3 64.141 113.127 62.9424 111.948 61.1033C110.863 59.4096 110.033 58.1142 109.218 56.843C108.299 55.4081 107.399 54.0041 106.174 52.0928C105.016 50.2836 102.616 48.483 100.88 48.1379C100.866 48.1357 100.852 48.1327 100.838 48.1297C100.822 48.1263 100.806 48.1229 100.79 48.1208C98.7104 47.7536 97.643 47.5829 95.6024 47.2758L95.4484 47.2502C94.994 46.3754 94.7667 45.9402 94.308 45.0657C95.487 45.2407 96.4343 45.3898 97.3259 45.5353C98.6976 45.7612 99.9495 45.9829 101.746 46.3159C101.389 45.7485 101.07 45.241 100.773 44.7684C100.401 44.1783 100.064 43.6424 99.731 43.1117C99.4006 42.5873 99.0742 42.0689 98.7221 41.5096C98.3524 40.9224 97.9542 40.29 97.4932 39.5581C96.923 39.4511 96.3914 39.3532 95.8941 39.2636C93.1161 38.7601 91.2772 38.4784 88.0706 38.0432C86.5573 37.8386 85.9228 39.1825 86.6775 40.9532C87.3647 42.5652 87.8942 43.8026 88.4121 45.0129L88.9239 46.2092C89.3568 47.2289 89.8155 48.3083 90.3856 49.6436C90.6384 50.2324 91.0584 50.8169 91.5775 51.3374C92.6189 52.3827 94.0595 53.1932 95.3454 53.3682C95.3852 53.3742 95.424 53.3792 95.4624 53.3842C95.5066 53.3899 95.5507 53.3956 95.5942 53.4024C97.7974 53.7009 98.9807 53.876 101.253 54.2388C101.462 54.6191 101.627 54.917 101.786 55.204C101.994 55.58 102.191 55.9372 102.466 56.4358C98.9464 55.8726 97.0131 55.5954 93.7893 55.1987L93.6065 55.1764L93.2773 55.1365C93.09 55.1139 92.8979 55.0907 92.7004 55.0664C92.772 55.2325 92.8409 55.3946 92.9079 55.552C92.9613 55.6776 93.0134 55.8002 93.0647 55.9196C93.9566 57.9973 94.5053 59.286 95.4913 61.6025Z" fill="white"/>
<path d="M88.9135 10.3048C88.9135 10.3048 88.4902 8.7692 87.497 8.08876C86.5041 7.40865 83.5964 7.1791 83.5964 7.1791C83.5964 7.1791 84.9268 9.32879 85.863 10.0283C86.7987 10.7278 88.9135 10.3048 88.9135 10.3048Z" fill="white"/>
<path d="M89.8534 11.6207C90.9232 12.1737 91.5339 13.6456 91.5339 13.6456C91.5339 13.6456 89.4878 14.325 88.4725 13.7461C87.4568 13.1668 85.8697 11.197 85.8697 11.197C85.8697 11.197 88.7837 11.0673 89.8534 11.6207Z" fill="white"/>
<path d="M94.5741 18.2208C94.5741 18.2208 94.3939 16.6386 93.5185 15.8137C92.6428 14.9891 89.8057 14.3152 89.8057 14.3152C89.8057 14.3152 90.7867 16.6439 91.603 17.4786C92.4191 18.3138 94.5741 18.2208 94.5741 18.2208Z" fill="white"/>
<path d="M94.7563 20.4924C95.4297 21.4877 95.2585 23.0709 95.2585 23.0709C95.2585 23.0709 93.1352 22.6933 92.5217 21.7012C91.9083 20.7091 91.4619 18.2238 91.4619 18.2238C91.4619 18.2238 94.0828 19.4973 94.7563 20.4924Z" fill="white"/>
<path d="M95.5173 27.5053C95.5173 27.5053 95.8592 25.9497 95.2972 24.888C94.7353 23.8266 92.2675 22.2792 92.2675 22.2792C92.2675 22.2792 92.4427 24.798 92.9449 25.8498C93.4474 26.9023 95.5173 27.5053 95.5173 27.5053Z" fill="white"/>
<path d="M91.578 25.6042C91.578 25.6042 93.6624 27.635 93.9865 28.7906C94.3108 29.9463 93.6469 31.3952 93.6469 31.3952C93.6469 31.3952 91.7513 30.3709 91.4833 29.2373C91.2151 28.1033 91.578 25.6042 91.578 25.6042Z" fill="white"/>
<path d="M89.3775 28.6534C89.3775 28.6534 89.2802 31.0185 89.6395 32.0503C89.9989 33.0825 91.8655 33.8565 91.8655 33.8565C91.8655 33.8565 92.3449 32.4418 91.9312 31.3948C91.517 30.3482 89.3775 28.6534 89.3775 28.6534Z" fill="white"/>
<path d="M25.0109 31.0464C25.0109 31.0464 27.546 31.1393 28.6188 31.6053C29.6912 32.0713 30.3633 34.1113 30.3633 34.1113C30.3633 34.1113 28.8121 34.5011 27.7279 33.976C26.6439 33.4513 25.0109 31.0464 25.0109 31.0464Z" fill="white"/>
<path d="M25.5152 30.0849C26.4824 30.8008 28.0794 30.7045 28.0794 30.7045C28.0794 30.7045 27.7996 28.5759 26.8325 27.92C25.8653 27.2636 23.3916 26.7037 23.3916 26.7037C23.3916 26.7037 24.5478 29.3689 25.5152 30.0849Z" fill="white"/>
<path d="M25.8804 24.0266C26.7086 24.8502 26.5865 26.9933 26.5865 26.9933C26.5865 26.9933 24.9991 26.793 24.1821 25.9106C23.3651 25.0285 22.7262 22.1961 22.7262 22.1961C22.7262 22.1961 25.0529 23.2033 25.8804 24.0266Z" fill="white"/>
<path d="M26.5675 23.3632C26.5675 23.3632 27.038 21.268 26.3556 20.3216C25.6736 19.3751 23.5426 18.0047 23.5426 18.0047C23.5426 18.0047 23.7103 20.9029 24.3722 21.9058C25.0341 22.9084 26.5675 23.3632 26.5675 23.3632Z" fill="white"/>
<path d="M27.7058 17.0639C28.0031 18.1906 26.8113 19.9797 26.8113 19.9797C26.8113 19.9797 25.5426 19.0096 25.2845 17.8376C25.0265 16.6655 25.9108 13.8994 25.9108 13.8994C25.9108 13.8994 27.4085 15.9371 27.7058 17.0639Z" fill="white"/>
<path d="M30.0431 13.3077C30.1896 12.152 29.5643 9.70513 29.5643 9.70513C29.5643 9.70513 27.7066 11.9428 27.5063 13.1261C27.306 14.3093 28.1194 15.6803 28.1194 15.6803C28.1194 15.6803 29.8963 14.4633 30.0431 13.3077Z" fill="white"/>
<path d="M33.4334 6.16928C33.4334 6.16928 33.6773 8.68251 33.3556 9.80267C33.0342 10.9225 31.092 11.8565 31.092 11.8565C31.092 11.8565 30.4977 10.378 30.8765 9.23881C31.2553 8.09993 33.4334 6.16928 33.4334 6.16928Z" fill="white"/>
<path d="M33.8016 10.3048C33.8016 10.3048 35.9164 10.7278 36.8522 10.0283C37.7883 9.32879 39.1188 7.1791 39.1188 7.1791C39.1188 7.1791 36.2111 7.40865 35.2179 8.08876C34.225 8.7692 33.8016 10.3048 33.8016 10.3048Z" fill="white"/>
<path d="M31.1806 13.6456C31.1806 13.6456 31.7914 12.1737 32.8612 11.6207C33.9309 11.0673 36.8449 11.197 36.8449 11.197C36.8449 11.197 35.2577 13.1668 34.2424 13.7461C33.2268 14.325 31.1806 13.6456 31.1806 13.6456Z" fill="white"/>
<path d="M29.1962 15.8137C28.3208 16.6386 28.1406 18.2208 28.1406 18.2208C28.1406 18.2208 30.2957 18.3138 31.1117 17.4786C31.928 16.6439 32.909 14.3152 32.909 14.3152C32.909 14.3152 30.0719 14.9891 29.1962 15.8137Z" fill="white"/>
<path d="M27.4563 23.0709C27.4563 23.0709 27.285 21.4877 27.9585 20.4924C28.632 19.4973 31.2529 18.2238 31.2529 18.2238C31.2529 18.2238 30.8065 20.7091 30.193 21.7012C29.58 22.6933 27.4563 23.0709 27.4563 23.0709Z" fill="white"/>
<path d="M27.4173 24.888C26.8554 25.9497 27.1972 27.5053 27.1972 27.5053C27.1972 27.5053 29.2674 26.9023 29.7696 25.8498C30.2722 24.798 30.4471 22.2792 30.4471 22.2792C30.4471 22.2792 27.9792 23.8266 27.4173 24.888Z" fill="white"/>
<path d="M28.7286 28.7906C29.0527 27.635 31.1367 25.6042 31.1367 25.6042C31.1367 25.6042 31.4997 28.1033 31.2318 29.2373C30.9638 30.3709 29.0682 31.3952 29.0682 31.3952C29.0682 31.3952 28.4043 29.9463 28.7286 28.7906Z" fill="white"/>
<path d="M30.7841 31.3948C30.3703 32.4418 30.8494 33.8565 30.8494 33.8565C30.8494 33.8565 32.7164 33.0825 33.0757 32.0503C33.4347 31.0185 33.3374 28.6534 33.3374 28.6534C33.3374 28.6534 31.1975 30.3482 30.7841 31.3948Z" fill="white"/>
<path fill-rule="evenodd" clip-rule="evenodd" d="M39.2266 16.634H47.5887C48.8284 16.634 49.8737 17.6744 49.8737 18.9082V24.2065C49.8737 25.4403 48.8284 26.4807 47.5887 26.4807C48.8284 26.4807 49.8737 27.4967 49.8737 28.7305V33.2789H45.3037V28.7305H43.7967V33.2789H39.2266V16.634ZM43.7967 24.2065H45.3037V21.1823H43.7967V24.2065Z" fill="white"/>
<path d="M51.6239 33.2789H62.2711V28.7305H56.1937V27.2307H60.7393V22.6824H56.1937V21.1823H62.2711V16.634H51.6239V33.2789Z" fill="white"/>
<path d="M74.6678 33.2789H64.0207V16.634H74.6678V21.1823H68.5908V22.6824H73.1364V27.2307H68.5908V28.7305H74.6678V33.2789Z" fill="white"/>
<path d="M80.9879 16.634H76.4178V33.2789H85.5335V28.7305H80.9879V16.634Z" fill="white"/>
<path d="M52.0506 6.76861L50.1094 6.48783L49.2412 4.73714L48.3731 6.48783L46.4315 6.76861L47.8365 8.13146L47.5049 10.0555L49.2412 9.1472L50.9775 10.0555L50.6459 8.13146L52.0506 6.76861Z" fill="white"/>
<path d="M73.5197 4.73714L74.3878 6.48783L76.3294 6.76861L74.9244 8.13146L75.256 10.0555L73.5197 9.1472L71.7834 10.0555L72.115 8.13146L70.7103 6.76861L72.6515 6.48783L73.5197 4.73714Z" fill="white"/>
</svg>
