<svg viewBox="0 0 48 48" fill="none" xmlns="http://www.w3.org/2000/svg">
<path fill-rule="evenodd" clip-rule="evenodd" d="M11.4226 45.3638L2.63594 36.5768C0.947946 34.8893 0 32.6003 0 30.213V17.7863C0 15.3998 0.947946 13.1107 2.63594 11.4225L11.4226 2.6355C13.1106 0.948 15.3998 0 17.7866 0H30.2127C32.6002 0 34.8894 0.948 36.5766 2.6355L45.3641 11.4225C47.0513 13.1107 48 15.3998 48 17.7863V30.213C48 32.6003 47.0513 34.8893 45.3641 36.5768L36.5766 45.3638C34.8894 47.0513 32.6002 48 30.2127 48H17.7866C15.3998 48 13.1106 47.0513 11.4226 45.3638Z" fill="currentColor"/>
</svg>
