<svg width="11" height="11" viewBox="0 0 11 11" fill="none" xmlns="http://www.w3.org/2000/svg">
<path fill-rule="evenodd" clip-rule="evenodd" d="M5.6875 3.6H6.125C6.608 3.6 7 4.00275 7 4.5V8.1C7 8.59725 6.608 9 6.125 9H0.875C0.391562 9 0 8.59725 0 8.1V4.5C0 4.00275 0.391562 3.6 0.875 3.6H1.3125V2.25C1.3125 1.00935 2.29381 0 3.5 0C4.70619 0 5.6875 1.00935 5.6875 2.25V3.6ZM3.5 1.54688C3.01656 1.54688 2.625 1.92445 2.625 2.39062V3.65625H4.375V2.39062C4.375 1.92445 3.983 1.54688 3.5 1.54688Z" fill="#303838"/>
</svg>
