<svg viewBox="0 0 48 48" fill="none" xmlns="http://www.w3.org/2000/svg">
<path d="M21.4438 14.9073L21.1547 14.0761C21.1012 13.9231 21.1278 13.7476 21.225 13.6052L21.7407 12.88C21.9859 12.533 21.7417 12.0637 21.3269 12.0838L20.4482 12.1185C20.2821 12.1218 20.1299 12.0492 20.0285 11.9144L19.5127 11.2043C19.2683 10.8647 18.7459 10.9677 18.6249 11.3712L18.371 12.2247C18.322 12.3873 18.2025 12.5167 18.0445 12.5706L17.2066 12.8579C16.8071 12.9937 16.7295 13.5291 17.0746 13.7589L17.7975 14.2526C17.9309 14.3449 18.0134 14.4994 18.0135 14.6674L18.0075 15.5571C18.0049 15.9755 18.4806 16.212 18.8133 15.946L19.5121 15.3952C19.6474 15.2901 19.8156 15.2574 19.9722 15.3096L20.8072 15.5703C21.2062 15.6939 21.5827 15.3005 21.4438 14.9073Z" fill="currentColor"/>
<path d="M26.3979 14.9073L26.6871 14.0762C26.7406 13.9231 26.714 13.7476 26.6168 13.6052L26.101 12.88C25.8559 12.533 26.1001 12.0637 26.5149 12.0838L27.3935 12.1185C27.5597 12.1218 27.7119 12.0492 27.8133 11.9144L28.3291 11.2043C28.5735 10.8647 29.0959 10.9677 29.2169 11.3712L29.4707 12.2247C29.5198 12.3873 29.6393 12.5167 29.7973 12.5706L30.6352 12.8579C31.0346 12.9937 31.1123 13.5291 30.7671 13.7589L30.0442 14.2526C29.9109 14.3449 29.8283 14.4994 29.8283 14.6674L29.8343 15.5572C29.8369 15.9755 29.3612 16.212 29.0285 15.946L28.3297 15.3952C28.1943 15.2901 28.0261 15.2574 27.8696 15.3096L27.0346 15.5703C26.6356 15.6939 26.2591 15.3005 26.3979 14.9073Z" fill="currentColor"/>
<path d="M22.2629 26.3532C19.9157 23.9772 16.0785 23.9772 13.7314 26.3532C11.4229 28.6901 11.4229 32.4523 13.7314 34.7892C16.0785 37.1652 19.9157 37.1652 22.2629 34.7892L28.2658 28.7125C29.2334 27.733 30.7724 27.733 31.74 28.7125C32.7462 29.7312 32.7462 31.4113 31.74 32.4299C30.7724 33.4094 29.2334 33.4094 28.2658 32.4299C27.5954 31.7513 26.4859 31.7293 25.7876 32.3808C25.0894 33.0323 25.0667 34.1106 25.7371 34.7892C28.0843 37.1652 31.9215 37.1652 34.2686 34.7892C36.5771 32.4523 36.5771 28.6901 34.2686 26.3532C31.9215 23.9772 28.0843 23.9772 25.7371 26.3532L19.7342 32.4299C18.7666 33.4094 17.2276 33.4094 16.26 32.4299C15.2538 31.4113 15.2538 29.7312 16.26 28.7125C17.2276 27.733 18.7666 27.733 19.7342 28.7125C20.4046 29.3911 21.5141 29.4131 22.2124 28.7616C22.9106 28.1101 22.9333 27.0319 22.2629 26.3532Z" fill="currentColor"/>
</svg>
