<svg viewBox="0 0 48 48" fill="none" xmlns="http://www.w3.org/2000/svg">
<path fill-rule="evenodd" clip-rule="evenodd" d="M21.1937 34.1224C19.6653 34.341 18.2132 33.909 17.2251 32.9214L15.0771 30.7724C14.0807 29.7756 13.6603 28.3594 13.8766 26.8024C13.9933 25.9708 13.7936 25.2805 13.3474 24.8342C12.8841 24.3706 12.8843 23.6187 13.3473 23.1544L23.1604 13.3365C23.6088 12.8878 24.3914 12.8878 24.8398 13.3365C25.2843 13.7811 25.9701 13.9836 26.8058 13.8669C28.3413 13.6524 29.7877 14.0799 30.7733 15.067L32.922 17.2168C33.8981 18.1913 34.3284 19.6265 34.1271 21.1466C33.9259 22.6668 34.2628 22.7268 34.6892 23.1933C35.1156 23.6598 35.1034 24.3833 34.6518 24.8342M21.1937 34.1224C22.0283 34.0047 22.7158 34.2063 23.16 34.6515C23.3825 34.8753 23.6845 35 24.0001 35C24.3149 35 24.6166 34.8752 24.8398 34.6519L34.6518 24.8342M16.2277 27.1319C16.1129 27.9607 16.3128 28.6497 16.7559 29.093L18.9049 31.243C19.3481 31.6873 20.0269 31.8872 20.8617 31.7695C21.1195 31.7335 21.3756 31.716 21.6266 31.716H21.6516L23.8478 32.2832L32.2526 23.8734C31.7808 23.0053 31.6135 21.967 31.7684 20.8597C31.8842 20.0289 31.6843 19.3409 31.2412 18.8975L29.0922 16.7475C28.6477 16.3027 27.9619 16.1006 27.1363 16.2209L27.1343 16.2212C26.0379 16.3694 24.9922 16.1987 24.1236 15.733L15.7444 24.1162C16.2162 24.9859 16.3836 26.0234 16.2277 27.1319ZM28.1609 23.995C28.1609 26.294 26.2978 28.1582 23.9997 28.1582C21.7015 28.1582 19.8384 26.294 19.8384 23.995C19.8384 21.6959 21.7015 19.8318 23.9997 19.8318C26.2978 19.8318 28.1609 21.6959 28.1609 23.995Z" fill="currentColor"/>
</svg>
