<svg width="5" height="6" viewBox="0 0 5 6" fill="none" xmlns="http://www.w3.org/2000/svg">
<path d="M4.82285 3.40912L4.15687 2.83391C4.03401 2.72813 3.96935 2.56284 3.98229 2.39094L4.06635 1.505C4.10514 1.08187 3.65899 0.797572 3.30983 1.02236L2.56626 1.49178C2.42401 1.57773 2.25589 1.59095 2.10071 1.52484L1.29894 1.16782C0.917451 0.995917 0.516567 1.34633 0.613555 1.75624L0.820465 2.62235C0.85926 2.78763 0.820464 2.95953 0.710544 3.08515L0.128613 3.75291C-0.149421 4.07027 0.051023 4.57274 0.46484 4.59919L1.33774 4.6653C1.49938 4.67852 1.6481 4.77109 1.73215 4.91654L2.17183 5.69008C2.37874 6.05372 2.90895 6.02066 3.06413 5.62397L3.39389 4.79753C3.45855 4.63886 3.58787 4.52646 3.74951 4.4934L4.60301 4.30167C5.01037 4.20911 5.13968 3.68019 4.82285 3.40912Z" fill="#FFC930"/>
</svg>
