<svg width="19" height="19" viewBox="0 0 19 19" fill="none" xmlns="http://www.w3.org/2000/svg">
<path d="M14.0194 9.49999C14.0194 11.9853 12.0047 14 9.51941 14C7.03413 14 5.01941 11.9853 5.01941 9.49999C5.01941 7.01471 7.03413 4.99999 9.51941 4.99999C12.0047 4.99999 14.0194 7.01471 14.0194 9.49999Z" stroke="#F05E5E" stroke-width="1.4"/>
<path d="M9.2681 6.87722C9.59124 6.87089 9.84875 7.12083 9.84326 7.43546L9.80407 9.68338C9.79858 9.99802 9.53218 10.2582 9.20904 10.2645C8.8859 10.2709 8.62839 10.0209 8.63388 9.70628L8.67307 7.45836C8.67855 7.14373 8.94496 6.88354 9.2681 6.87722Z" fill="#F05E5E"/>
<path d="M8.69025 9.60623C8.7737 9.30217 9.09752 9.11253 9.41352 9.18266L11.8731 9.72852C12.1891 9.79865 12.3776 10.102 12.2941 10.4061C12.2107 10.7101 11.8869 10.8998 11.5709 10.8296L9.11132 10.2838C8.79532 10.2136 8.6068 9.91029 8.69025 9.60623Z" fill="#F05E5E"/>
</svg>
