<svg width="24" height="24" viewBox="0 0 24 24" fill="none" xmlns="http://www.w3.org/2000/svg">
<mask id="path-1-outside-1" maskUnits="userSpaceOnUse" x="0" y="0" width="24" height="24" fill="black">
<rect fill="white" width="24" height="24"/>
<path fill-rule="evenodd" clip-rule="evenodd" d="M22.704 11.2802C23.0987 11.675 23.0987 12.3141 22.704 12.7079L12.7137 22.7042C12.5239 22.894 12.2676 23 12.0001 23C11.7317 23 11.4753 22.894 11.2866 22.7042C10.779 22.1953 10.0099 21.9822 9.11473 22.1084C7.61198 22.3235 6.19906 21.8974 5.24332 20.9422L3.05631 18.7541C2.09249 17.7899 1.6777 16.4136 1.89065 14.8809C2.01579 13.9893 1.80486 13.2178 1.2952 12.7079C0.9016 12.3141 0.9016 11.675 1.2952 11.2802L11.2866 1.28398C11.6651 0.905339 12.3352 0.905339 12.7137 1.28398C13.2213 1.79187 13.9883 2.00593 14.8845 1.88073C16.3953 1.6697 17.8022 2.09176 18.7549 3.04594L20.9429 5.23501C21.8946 6.18516 22.3185 7.59775 22.1076 9.10829L22.704 11.2802ZM11.9057 20.656L20.6517 11.9048C20.139 11.0385 19.9472 9.97724 20.1077 8.8302C20.2318 7.93963 20.0209 7.17022 19.5143 6.66334L17.3263 4.47427C16.8186 3.96638 16.0516 3.75232 15.1645 3.88157C14.0291 4.03504 12.9583 3.84017 12.0914 3.3343L3.34538 12.0845C3.85807 12.9529 4.04982 14.0131 3.88834 15.1611C3.76522 16.0497 3.97615 16.8201 4.48278 17.327L6.6708 19.5161C7.17743 20.0239 7.93738 20.235 8.83257 20.1088C9.08589 20.0734 9.33719 20.0563 9.58344 20.0563L11.9057 20.656ZM11.9997 16.0338C14.2291 16.0338 16.0366 14.2254 16.0366 11.9949C16.0366 9.76442 14.2291 7.95601 11.9997 7.95601C9.77026 7.95601 7.96273 9.76442 7.96273 11.9949C7.96273 14.2254 9.77026 16.0338 11.9997 16.0338Z"/>
</mask>
<path fill-rule="evenodd" clip-rule="evenodd" d="M22.704 11.2802C23.0987 11.675 23.0987 12.3141 22.704 12.7079L12.7137 22.7042C12.5239 22.894 12.2676 23 12.0001 23C11.7317 23 11.4753 22.894 11.2866 22.7042C10.779 22.1953 10.0099 21.9822 9.11473 22.1084C7.61198 22.3235 6.19906 21.8974 5.24332 20.9422L3.05631 18.7541C2.09249 17.7899 1.6777 16.4136 1.89065 14.8809C2.01579 13.9893 1.80486 13.2178 1.2952 12.7079C0.9016 12.3141 0.9016 11.675 1.2952 11.2802L11.2866 1.28398C11.6651 0.905339 12.3352 0.905339 12.7137 1.28398C13.2213 1.79187 13.9883 2.00593 14.8845 1.88073C16.3953 1.6697 17.8022 2.09176 18.7549 3.04594L20.9429 5.23501C21.8946 6.18516 22.3185 7.59775 22.1076 9.10829L22.704 11.2802ZM11.9057 20.656L20.6517 11.9048C20.139 11.0385 19.9472 9.97724 20.1077 8.8302C20.2318 7.93963 20.0209 7.17022 19.5143 6.66334L17.3263 4.47427C16.8186 3.96638 16.0516 3.75232 15.1645 3.88157C14.0291 4.03504 12.9583 3.84017 12.0914 3.3343L3.34538 12.0845C3.85807 12.9529 4.04982 14.0131 3.88834 15.1611C3.76522 16.0497 3.97615 16.8201 4.48278 17.327L6.6708 19.5161C7.17743 20.0239 7.93738 20.235 8.83257 20.1088C9.08589 20.0734 9.33719 20.0563 9.58344 20.0563L11.9057 20.656ZM11.9997 16.0338C14.2291 16.0338 16.0366 14.2254 16.0366 11.9949C16.0366 9.76442 14.2291 7.95601 11.9997 7.95601C9.77026 7.95601 7.96273 9.76442 7.96273 11.9949C7.96273 14.2254 9.77026 16.0338 11.9997 16.0338Z" fill="#0D5629"/>
<path d="M22.704 12.7079L22.5628 12.5664L22.5626 12.5666L22.704 12.7079ZM22.704 11.2802L22.5112 11.3332L22.5252 11.3842L22.5626 11.4216L22.704 11.2802ZM12.7137 22.7042L12.8551 22.8455L12.8551 22.8455L12.7137 22.7042ZM11.2866 22.7042L11.4284 22.5631L11.4282 22.5629L11.2866 22.7042ZM9.11473 22.1084L9.08681 21.9104L9.0864 21.9104L9.11473 22.1084ZM5.24332 20.9422L5.10186 21.0836L5.10194 21.0837L5.24332 20.9422ZM3.05631 18.7541L3.19777 18.6127L3.05631 18.7541ZM1.89065 14.8809L1.69259 14.8531L1.69255 14.8533L1.89065 14.8809ZM1.2952 12.7079L1.15374 12.8493H1.15375L1.2952 12.7079ZM1.2952 11.2802L1.15374 11.1388L1.15356 11.139L1.2952 11.2802ZM11.2866 1.28398L11.4281 1.42537V1.42537L11.2866 1.28398ZM12.7137 1.28398L12.5722 1.42537V1.42537L12.7137 1.28398ZM14.8845 1.88073L14.8568 1.68265L14.8568 1.68265L14.8845 1.88073ZM18.7549 3.04594L18.6134 3.18725L18.6135 3.18733L18.7549 3.04594ZM20.9429 5.23501L20.8015 5.3764L20.8016 5.37655L20.9429 5.23501ZM22.1076 9.10829L21.9095 9.08063L21.9038 9.12148L21.9147 9.16126L22.1076 9.10829ZM20.6517 11.9048L20.7932 12.0462L20.9028 11.9364L20.8238 11.8029L20.6517 11.9048ZM11.9057 20.656L11.8557 20.8497L11.9663 20.8783L12.0471 20.7974L11.9057 20.656ZM20.1077 8.8302L20.3058 8.85791L20.3058 8.85781L20.1077 8.8302ZM19.5143 6.66334L19.6557 6.52196V6.52195L19.5143 6.66334ZM17.3263 4.47427L17.4677 4.33288V4.33288L17.3263 4.47427ZM15.1645 3.88157L15.1913 4.07978L15.1933 4.07948L15.1645 3.88157ZM12.0914 3.3343L12.1922 3.16156L12.059 3.08382L11.9499 3.19291L12.0914 3.3343ZM3.34538 12.0845L3.20392 11.9431L3.09436 12.0527L3.17316 12.1862L3.34538 12.0845ZM3.88834 15.1611L3.69029 15.1333L3.69024 15.1337L3.88834 15.1611ZM4.48278 17.327L4.34133 17.4684L4.48278 17.327ZM6.6708 19.5161L6.81239 19.3748L6.81225 19.3747L6.6708 19.5161ZM8.83257 20.1088L8.80494 19.9107L8.80465 19.9107L8.83257 20.1088ZM9.58344 20.0563L9.63346 19.8626L9.60885 19.8563H9.58344V20.0563ZM22.8453 12.8495C23.3183 12.3775 23.3181 11.6116 22.8455 11.1388L22.5626 11.4216C22.8792 11.7384 22.879 12.2508 22.5628 12.5664L22.8453 12.8495ZM12.8551 22.8455L22.8455 12.8493L22.5626 12.5666L12.5722 22.5628L12.8551 22.8455ZM12.0001 23.2C12.3206 23.2 12.6279 23.0729 12.8551 22.8455L12.5722 22.5628C12.42 22.7151 12.2145 22.8 12.0001 22.8V23.2ZM11.1448 22.8452C11.3713 23.073 11.6788 23.2 12.0001 23.2V22.8C11.7845 22.8 11.5793 22.7149 11.4284 22.5631L11.1448 22.8452ZM9.14265 22.3065C9.99264 22.1866 10.6927 22.392 11.145 22.8454L11.4282 22.5629C10.8652 21.9985 10.0272 21.7778 9.08681 21.9104L9.14265 22.3065ZM5.10194 21.0837C6.1081 22.0892 7.58675 22.5291 9.14307 22.3064L9.0864 21.9104C7.63722 22.1178 6.29002 21.7055 5.3847 20.8007L5.10194 21.0837ZM2.91486 18.8955L5.10186 21.0836L5.38477 20.8008L3.19777 18.6127L2.91486 18.8955ZM1.69255 14.8533C1.47229 16.4387 1.90039 17.8806 2.91486 18.8955L3.19777 18.6127C2.28459 17.6991 1.8831 16.3885 2.08874 14.9084L1.69255 14.8533ZM1.15375 12.8493C1.608 13.3038 1.81144 14.0063 1.69259 14.8531L2.08871 14.9087C2.22015 13.9722 2.00173 13.1319 1.43666 12.5666L1.15375 12.8493ZM1.15356 11.139C0.682245 11.6117 0.681985 12.3773 1.15374 12.8493L1.43666 12.5666C1.12121 12.251 1.12095 11.7382 1.43684 11.4214L1.15356 11.139ZM11.1451 1.1426L1.15374 11.1388L1.43666 11.4216L11.4281 1.42537L11.1451 1.1426ZM12.8551 1.1426C12.3985 0.685801 11.6017 0.685801 11.1451 1.1426L11.4281 1.42537C11.7284 1.12488 12.2718 1.12488 12.5722 1.42537L12.8551 1.1426ZM14.8568 1.68265C14.006 1.80153 13.3076 1.59532 12.8551 1.1426L12.5722 1.42537C13.135 1.98842 13.9707 2.21034 14.9122 2.0788L14.8568 1.68265ZM18.8964 2.90463C17.8929 1.89958 16.4203 1.46427 14.8568 1.68265L14.9122 2.0788C16.3704 1.87512 17.7115 2.28394 18.6134 3.18725L18.8964 2.90463ZM21.0844 5.09362L18.8964 2.90455L18.6135 3.18733L20.8015 5.3764L21.0844 5.09362ZM22.3057 9.13595C22.5239 7.57291 22.0869 6.09446 21.0842 5.09347L20.8016 5.37655C21.7024 6.27585 22.1131 7.62259 21.9095 9.08063L22.3057 9.13595ZM22.8969 11.2272L22.3004 9.05533L21.9147 9.16126L22.5112 11.3332L22.8969 11.2272ZM20.5102 11.7634L11.7642 20.5146L12.0471 20.7974L20.7932 12.0462L20.5102 11.7634ZM19.9096 8.80249C19.7438 9.98817 19.9408 11.0962 20.4796 12.0066L20.8238 11.8029C20.3372 10.9807 20.1507 9.9663 20.3058 8.85791L19.9096 8.80249ZM19.3728 6.80473C19.824 7.25615 20.0275 7.95669 19.9096 8.80259L20.3058 8.85781C20.4362 7.92257 20.2178 7.0843 19.6557 6.52196L19.3728 6.80473ZM17.1848 4.61566L19.3728 6.80473L19.6557 6.52195L17.4677 4.33288L17.1848 4.61566ZM15.1933 4.07948C16.034 3.957 16.7322 4.16279 17.1848 4.61566L17.4677 4.33288C16.9051 3.76998 16.0692 3.54764 15.1357 3.68366L15.1933 4.07948ZM11.9906 3.50704C12.9007 4.0381 14.0174 4.23845 15.1913 4.07976L15.1377 3.68337C14.0408 3.83164 13.0159 3.64224 12.1922 3.16156L11.9906 3.50704ZM3.48683 12.2259L12.2328 3.47569L11.9499 3.19291L3.20392 11.9431L3.48683 12.2259ZM4.0864 15.189C4.25333 14.0021 4.05625 12.8952 3.5176 11.9828L3.17316 12.1862C3.65988 13.0106 3.84631 14.024 3.69029 15.1333L4.0864 15.189ZM4.62424 17.1856C4.17301 16.7341 3.9695 16.0325 4.08645 15.1886L3.69024 15.1337C3.56093 16.0668 3.77928 16.9061 4.34133 17.4684L4.62424 17.1856ZM6.81225 19.3747L4.62424 17.1856L4.34133 17.4684L6.52934 19.6574L6.81225 19.3747ZM8.80465 19.9107C7.95469 20.0306 7.26369 19.8272 6.81239 19.3748L6.5292 19.6573C7.09117 20.2207 7.92008 20.4394 8.8605 20.3068L8.80465 19.9107ZM9.58344 19.8563C9.32792 19.8563 9.06738 19.8741 8.80494 19.9107L8.86021 20.3068C9.10439 20.2728 9.34646 20.2563 9.58344 20.2563V19.8563ZM11.9557 20.4624L9.63346 19.8626L9.53343 20.2499L11.8557 20.8497L11.9557 20.4624ZM15.8366 11.9949C15.8366 14.115 14.1185 15.8338 11.9997 15.8338V16.2338C14.3396 16.2338 16.2366 14.3357 16.2366 11.9949H15.8366ZM11.9997 8.15601C14.1185 8.15601 15.8366 9.87479 15.8366 11.9949H16.2366C16.2366 9.65405 14.3396 7.75601 11.9997 7.75601V8.15601ZM8.16273 11.9949C8.16273 9.87479 9.88081 8.15601 11.9997 8.15601V7.75601C9.65972 7.75601 7.76273 9.65405 7.76273 11.9949H8.16273ZM11.9997 15.8338C9.88081 15.8338 8.16273 14.115 8.16273 11.9949H7.76273C7.76273 14.3357 9.65972 16.2338 11.9997 16.2338V15.8338Z" fill="#0D5629" mask="url(#path-1-outside-1)"/>
</svg>
