<svg width="100%" height="100%" viewBox="0 0 80 80" fill="none" xmlns="http://www.w3.org/2000/svg">
<mask id="mask0" mask-type="alpha" maskUnits="userSpaceOnUse" x="0" y="0" width="80" height="80">
<circle cx="40" cy="40" r="40" fill="#4C00C2"/>
</mask>
<g mask="url(#mask0)">
<g clip-path="url(#clip0)">
<path d="M15.1284 -52.695C13.1446 -60.0886 18.1209 -67.5389 25.7105 -68.5381C33.3001 -69.5373 40.0351 -63.6288 40.0325 -55.9737L39.9997 39.9994L15.1284 -52.695Z" fill="#FF808C"/>
<path d="M64.8709 132.694C66.8547 140.087 61.8784 147.537 54.2888 148.537C46.6992 149.536 39.9641 143.627 39.9668 135.972L39.9996 39.9991L64.8709 132.694Z" fill="white"/>
<path d="M-8.01522 -43.0997C-11.845 -49.7278 -8.96656 -58.2123 -1.89419 -61.1418C5.17817 -64.0712 13.213 -60.1072 15.1917 -52.7123L39.9997 39.9991L-8.01522 -43.0997Z" fill="#FF808C"/>
<path d="M88.0146 123.098C91.8443 129.726 88.9659 138.21 81.8935 141.14C74.8212 144.069 66.7864 140.105 64.8076 132.71L39.9996 39.999L88.0146 123.098Z" fill="white"/>
<path d="M-27.8861 -27.8399C-33.3009 -33.251 -32.7164 -42.1914 -26.6432 -46.8515C-20.5701 -51.5116 -11.7831 -49.7622 -7.95781 -43.1314L40.0004 40.0001L-27.8861 -27.8399Z" fill="#FFCA30"/>
<path d="M107.886 107.84C113.301 113.251 112.717 122.191 106.644 126.851C100.57 131.511 91.7835 129.762 87.9582 123.131L40.0001 39.9997L107.886 107.84Z" fill="#0CD0CD"/>
<path d="M-43.1311 -7.95856C-49.7619 -11.7838 -51.5113 -20.5708 -46.8512 -26.644C-42.1911 -32.7172 -33.2507 -33.3016 -27.8396 -27.8868L40.0005 39.9996L-43.1311 -7.95856Z" fill="#FFCA30"/>
<path d="M123.132 87.9578C129.762 91.7831 131.512 100.57 126.852 106.643C122.192 112.716 113.251 113.301 107.84 107.886L40 39.9997L123.132 87.9578Z" fill="#0CD0CD"/>
<path d="M-52.7109 15.1915C-60.1058 13.2128 -64.0699 5.17798 -61.1404 -1.89438C-58.2109 -8.96675 -49.7265 -11.8452 -43.0983 -8.01541L40.0005 39.9995L-52.7109 15.1915Z" fill="white"/>
<path d="M132.711 64.8074C140.106 66.7861 144.07 74.8209 141.141 81.8933C138.211 88.9656 129.727 91.8441 123.099 88.0143L40 39.9993L132.711 64.8074Z" fill="#FF808C"/>
<path d="M-55.9728 40.0318C-63.6279 40.0344 -69.5364 33.2993 -68.5372 25.7097C-67.538 18.1201 -60.0877 13.1438 -52.6941 15.1276L40.0003 39.999L-55.9728 40.0318Z" fill="white"/>
<path d="M135.973 39.9665C143.628 39.9639 149.537 46.699 148.538 54.2886C147.538 61.8781 140.088 66.8545 132.695 64.8706L40.0001 39.9993L135.973 39.9665Z" fill="#FF808C"/>
<path d="M-52.6938 64.8711C-60.0873 66.8549 -67.5377 61.8785 -68.5369 54.289C-69.5361 46.6994 -63.6276 39.9643 -55.9725 39.9669L40.0007 39.9997L-52.6938 64.8711Z" fill="#0CD0CD"/>
<path d="M132.695 15.1285C140.088 13.1447 147.538 18.121 148.538 25.7106C149.537 33.3001 143.628 40.0352 135.973 40.0326L40 39.9998L132.695 15.1285Z" fill="#FFCA30"/>
<path d="M-43.0986 88.0142C-49.7267 91.844 -58.2112 88.9656 -61.1407 81.8932C-64.0701 74.8208 -60.1061 66.7861 -52.7112 64.8073L40.0002 39.9993L-43.0986 88.0142Z" fill="#0CD0CD"/>
<path d="M123.099 -8.01522C129.727 -11.845 138.212 -8.96656 141.141 -1.89419C144.07 5.17817 140.106 13.213 132.712 15.1917L40.0002 39.9997L123.099 -8.01522Z" fill="#FFCA30"/>
<path d="M-27.8394 107.885C-33.2505 113.3 -42.1909 112.716 -46.851 106.643C-51.5111 100.569 -49.7617 91.7825 -43.1309 87.9572L40.0006 39.999L-27.8394 107.885Z" fill="#FF808C"/>
<path d="M107.84 -27.8872C113.251 -33.302 122.192 -32.7175 126.852 -26.6443C131.512 -20.5712 129.763 -11.7842 123.132 -7.95891L40.0002 39.9993L107.84 -27.8872Z" fill="white"/>
<path d="M-7.95819 123.13C-11.7835 129.761 -20.5704 131.511 -26.6436 126.851C-32.7168 122.19 -33.3012 113.25 -27.8864 107.839L40 39.9989L-7.95819 123.13Z" fill="#FF808C"/>
<path d="M87.9583 -43.1323C91.7836 -49.7631 100.571 -51.5125 106.644 -46.8524C112.717 -42.1922 113.301 -33.2519 107.887 -27.8408L40.0001 39.9993L87.9583 -43.1323Z" fill="white"/>
<path d="M15.1924 132.71C13.2137 140.105 5.1789 144.069 -1.89347 141.139C-8.96584 138.21 -11.8443 129.726 -8.0145 123.097L40.0005 39.9986L15.1924 132.71Z" fill="#FFCA30"/>
<path d="M64.8083 -52.7123C66.787 -60.1072 74.8218 -64.0713 81.8942 -61.1418C88.9666 -58.2123 91.845 -49.7279 88.0152 -43.0997L40.0002 39.9991L64.8083 -52.7123Z" fill="#0CD0CD"/>
<path d="M40.0327 135.972C40.0353 143.627 33.3002 149.536 25.7106 148.536C18.1211 147.537 13.1447 140.087 15.1285 132.693L39.9999 39.9988L40.0327 135.972Z" fill="#FFCA30"/>
<path d="M39.9675 -55.9741C39.9648 -63.6292 46.6999 -69.5377 54.2895 -68.5385C61.8791 -67.5394 66.8554 -60.089 64.8716 -52.6955L40.0002 39.999L39.9675 -55.9741Z" fill="#0CD0CD"/>
</g>
</g>
<path d="M58.9229 44.8812C58.9229 55.1194 51.0381 63.7315 39.8942 63.7315C34.4834 63.7315 29.7509 61.923 26.3619 58.5984C22.9683 55.2693 21.0771 50.5716 21.0771 45.0932V40.003L35.861 37.4354V44.5278C35.861 46.292 36.4064 47.3306 37.0324 47.9329C37.679 48.5551 38.6356 48.9265 39.8237 48.9265C41.1088 48.9265 41.9779 48.4749 42.5489 47.8275C43.1464 47.15 43.5748 46.0734 43.5748 44.5985V15.3729H58.9229V44.8812Z" fill="#4C00C2"/>
<defs>
<clipPath id="clip0">
<rect width="133.333" height="133.333" fill="white" transform="translate(-26.6669 -26.6667)"/>
</clipPath>
</defs>
</svg>
