<svg width="28" height="16" viewBox="0 0 28 16" fill="none" xmlns="http://www.w3.org/2000/svg">
<path d="M4.22616 13.7991C3.63888 13.5598 2.25098 13.5121 2.25098 13.5121C2.25098 13.5121 3.14499 14.7472 3.73842 15.0167C4.33202 15.2864 5.18124 15.0862 5.18124 15.0862C5.18124 15.0862 4.81326 14.0385 4.22616 13.7991Z" fill="#E5EAED"/>
<path d="M2.5269 13.0182C3.05637 13.3858 3.9307 13.3364 3.9307 13.3364C3.9307 13.3364 3.77751 12.2432 3.24804 11.9063C2.71856 11.5692 1.36426 11.2816 1.36426 11.2816C1.36426 11.2816 1.99724 12.6505 2.5269 13.0182Z" fill="#E5EAED"/>
<path d="M3.11338 11.4301C3.11338 11.4301 3.18022 10.3294 2.7268 9.90643C2.27374 9.48359 1 8.96631 1 8.96631C1 8.96631 1.34973 10.421 1.79701 10.874C2.24429 11.3272 3.11338 11.4301 3.11338 11.4301Z" fill="#E5EAED"/>
<path d="M3.10325 9.56601C3.10325 9.56601 3.36085 8.48995 2.98727 8.00387C2.61388 7.51779 1.44727 6.81396 1.44727 6.81396C1.44727 6.81396 1.53903 8.3024 1.90141 8.81749C2.26379 9.33241 3.10325 9.56601 3.10325 9.56601Z" fill="#E5EAED"/>
<path d="M3.23668 7.82821C3.23668 7.82821 3.88918 6.90934 3.72642 6.33067C3.56365 5.75199 2.7437 4.70544 2.7437 4.70544C2.7437 4.70544 2.25957 6.12608 2.40083 6.72803C2.5421 7.32998 3.23668 7.82821 3.23668 7.82821Z" fill="#E5EAED"/>
<path d="M5.00579 4.40173C5.086 3.80821 4.74367 2.55151 4.74367 2.55151C4.74367 2.55151 3.72663 3.70077 3.61698 4.30846C3.50733 4.91614 3.95262 5.6203 3.95262 5.6203C3.95262 5.6203 4.9254 4.99524 5.00579 4.40173Z" fill="#E5EAED"/>
<path d="M6.8189 2.60118C6.99503 2.02587 6.86153 0.735107 6.86153 0.735107C6.86153 0.735107 5.66908 1.72667 5.4617 2.31158C5.25432 2.89667 5.57966 3.65598 5.57966 3.65598C5.57966 3.65598 6.64295 3.17631 6.8189 2.60118Z" fill="#E5EAED"/>
<path d="M7.06348 2.85959C7.06348 2.85959 8.22124 3.07683 8.73356 2.71758C9.24605 2.35833 9.97442 1.25427 9.97442 1.25427C9.97442 1.25427 8.38256 1.37217 7.83881 1.72146C7.29525 2.07093 7.06348 2.85959 7.06348 2.85959Z" fill="#E5EAED"/>
<path d="M6.54796 3.53527C5.96231 3.8193 5.62793 4.57524 5.62793 4.57524C5.62793 4.57524 6.74812 4.9242 7.30415 4.62685C7.86 4.32933 8.72891 3.3177 8.72891 3.3177C8.72891 3.3177 7.13362 3.25108 6.54796 3.53527Z" fill="#E5EAED"/>
<path d="M4.54175 5.68867C4.0625 6.11235 3.96387 6.92496 3.96387 6.92496C3.96387 6.92496 5.14367 6.97269 5.5904 6.54378C6.03732 6.11504 6.57438 4.91907 6.57438 4.91907C6.57438 4.91907 5.02119 5.26516 4.54175 5.68867Z" fill="#E5EAED"/>
<path d="M3.8647 8.09162C3.496 8.60284 3.58976 9.41595 3.58976 9.41595C3.58976 9.41595 4.7524 9.22199 5.08804 8.71247C5.42386 8.20294 5.66827 6.92651 5.66827 6.92651C5.66827 6.92651 4.2334 7.58058 3.8647 8.09162Z" fill="#E5EAED"/>
<path d="M3.56847 10.3491C3.26083 10.8944 3.44798 11.6933 3.44798 11.6933C3.44798 11.6933 4.58136 11.3837 4.8563 10.8431C5.13143 10.3029 5.22717 9.00928 5.22717 9.00928C5.22717 9.00928 3.87611 9.80401 3.56847 10.3491Z" fill="#E5EAED"/>
<path d="M5.60453 10.7168C5.60453 10.7168 4.46357 11.7598 4.28618 12.3533C4.1086 12.9468 4.47206 13.691 4.47206 13.691C4.47206 13.691 5.50987 13.1649 5.65656 12.5827C5.80324 12.0003 5.60453 10.7168 5.60453 10.7168Z" fill="#E5EAED"/>
<path d="M5.41151 13.6907C5.18498 14.2284 5.44728 14.955 5.44728 14.955C5.44728 14.955 6.46938 14.5574 6.6661 14.0273C6.86265 13.4974 6.80935 12.2827 6.80935 12.2827C6.80935 12.2827 5.63786 13.1532 5.41151 13.6907Z" fill="#E5EAED"/>
<path d="M23.7871 15.0862C23.7871 15.0862 24.6365 15.2864 25.2299 15.0167C25.8234 14.7472 26.7176 13.5121 26.7176 13.5121C26.7176 13.5121 25.3297 13.5598 24.7424 13.7991C24.1551 14.0385 23.7871 15.0862 23.7871 15.0862Z" fill="#E5EAED"/>
<path d="M25.0371 13.3364C25.0371 13.3364 25.9114 13.3858 26.4411 13.0182C26.9707 12.6505 27.6035 11.2816 27.6035 11.2816C27.6035 11.2816 26.2492 11.5692 25.7198 11.9063C25.1903 12.2432 25.0371 13.3364 25.0371 13.3364Z" fill="#E5EAED"/>
<path d="M25.855 11.4301C25.855 11.4301 26.7241 11.3272 27.1712 10.874C27.6185 10.421 27.9682 8.96631 27.9682 8.96631C27.9682 8.96631 26.6947 9.48359 26.2414 9.90643C25.7882 10.3294 25.855 11.4301 25.855 11.4301Z" fill="#E5EAED"/>
<path d="M25.9808 8.00387C25.6072 8.48995 25.865 9.56601 25.865 9.56601C25.865 9.56601 26.7045 9.33241 27.0668 8.81749C27.4292 8.3024 27.521 6.81396 27.521 6.81396C27.521 6.81396 26.3544 7.51779 25.9808 8.00387Z" fill="#E5EAED"/>
<path d="M25.7317 7.82821C25.7317 7.82821 26.4263 7.32998 26.5675 6.72803C26.7088 6.12608 26.2247 4.70544 26.2247 4.70544C26.2247 4.70544 25.4045 5.75199 25.2419 6.33067C25.079 6.90934 25.7317 7.82821 25.7317 7.82821Z" fill="#E5EAED"/>
<path d="M25.0153 5.6203C25.0153 5.6203 25.4606 4.91614 25.351 4.30846C25.2413 3.70077 24.2243 2.55151 24.2243 2.55151C24.2243 2.55151 23.8822 3.80821 23.9624 4.40173C24.0426 4.99524 25.0153 5.6203 25.0153 5.6203Z" fill="#E5EAED"/>
<path d="M23.389 3.65598C23.389 3.65598 23.7143 2.89667 23.5069 2.31158C23.2995 1.72667 22.1071 0.735107 22.1071 0.735107C22.1071 0.735107 21.9736 2.02587 22.1495 2.60118C22.3257 3.17631 23.389 3.65598 23.389 3.65598Z" fill="#E5EAED"/>
<path d="M21.9051 2.85959C21.9051 2.85959 21.6733 2.07093 21.1296 1.72146C20.586 1.37217 18.9941 1.25427 18.9941 1.25427C18.9941 1.25427 19.7225 2.35833 20.235 2.71758C20.7473 3.07683 21.9051 2.85959 21.9051 2.85959Z" fill="#E5EAED"/>
<path d="M23.3393 4.57524C23.3393 4.57524 23.0049 3.8193 22.4192 3.53527C21.8336 3.25108 20.2383 3.3177 20.2383 3.3177C20.2383 3.3177 21.1072 4.32933 21.6632 4.62685C22.2191 4.9242 23.3393 4.57524 23.3393 4.57524Z" fill="#E5EAED"/>
<path d="M25.0041 6.92496C25.0041 6.92496 24.9055 6.11235 24.4262 5.68867C23.9468 5.26516 22.3936 4.91907 22.3936 4.91907C22.3936 4.91907 22.9306 6.11504 23.3775 6.54378C23.8243 6.97269 25.0041 6.92496 25.0041 6.92496Z" fill="#E5EAED"/>
<path d="M25.3783 9.41595C25.3783 9.41595 25.4721 8.60284 25.1034 8.09162C24.7347 7.58058 23.2998 6.92651 23.2998 6.92651C23.2998 6.92651 23.5442 8.20294 23.88 8.71247C24.2159 9.22199 25.3783 9.41595 25.3783 9.41595Z" fill="#E5EAED"/>
<path d="M25.5204 11.6933C25.5204 11.6933 25.7075 10.8944 25.3999 10.3491C25.0923 9.80401 23.7412 9.00928 23.7412 9.00928C23.7412 9.00928 23.8371 10.3029 24.1121 10.8431C24.3872 11.3837 25.5204 11.6933 25.5204 11.6933Z" fill="#E5EAED"/>
<path d="M24.6823 12.3533C24.5049 11.7598 23.3638 10.7168 23.3638 10.7168C23.3638 10.7168 23.165 12.0003 23.3119 12.5827C23.4586 13.1649 24.4964 13.691 24.4964 13.691C24.4964 13.691 24.8599 12.9468 24.6823 12.3533Z" fill="#E5EAED"/>
<path d="M22.1589 12.2827C22.1589 12.2827 22.1056 13.4974 22.3024 14.0273C22.4991 14.5574 23.521 14.955 23.521 14.955C23.521 14.955 23.7835 14.2284 23.5569 13.6907C23.3302 13.1532 22.1589 12.2827 22.1589 12.2827Z" fill="#E5EAED"/>
<path d="M12.5652 7.19995H7.85449V16H10.429V13.5953H11.2779V16H13.8524V13.5953C13.8524 12.943 13.2635 12.4058 12.5652 12.4058C13.2635 12.4058 13.8524 11.8558 13.8524 11.2035V8.40228C13.8524 7.74998 13.2635 7.19995 12.5652 7.19995ZM11.2779 11.2035H10.429V9.60461H11.2779V11.2035Z" fill="white"/>
<path d="M19.4197 7.19995H14.709V16H17.2835V13.5953H18.1324V16H20.7069V13.5953C20.7069 12.943 20.118 12.4058 19.4197 12.4058C20.118 12.4058 20.7069 11.8558 20.7069 11.2035V8.40228C20.7069 7.74998 20.118 7.19995 19.4197 7.19995ZM18.1324 11.2035H17.2835V9.60461H18.1324V11.2035Z" fill="white"/>
<path d="M17.2802 2.13903L15.2081 1.84338L14.2814 0L13.3547 1.84338L11.2822 2.13903L12.782 3.57404L12.428 5.6L14.2814 4.64356L16.1347 5.6L15.7808 3.57404L17.2802 2.13903Z" fill="#FFCA30"/>
</svg>
