<svg width="40" height="40" viewBox="0 0 40 40" fill="none" xmlns="http://www.w3.org/2000/svg">
<circle cx="20" cy="20" r="20" fill="#1A212C"/>
<g mask="url(#mask0)">
<path d="M10.2262 24.7991C9.63888 24.5598 8.25098 24.5121 8.25098 24.5121C8.25098 24.5121 9.14499 25.7472 9.73842 26.0167C10.332 26.2864 11.1812 26.0862 11.1812 26.0862C11.1812 26.0862 10.8133 25.0385 10.2262 24.7991Z" fill="#E5EAED"/>
<path d="M8.5269 24.0182C9.05637 24.3858 9.9307 24.3364 9.9307 24.3364C9.9307 24.3364 9.77751 23.2432 9.24804 22.9063C8.71856 22.5692 7.36426 22.2816 7.36426 22.2816C7.36426 22.2816 7.99724 23.6505 8.5269 24.0182Z" fill="#E5EAED"/>
<path d="M9.11338 22.4301C9.11338 22.4301 9.18022 21.3294 8.7268 20.9064C8.27374 20.4836 7 19.9663 7 19.9663C7 19.9663 7.34973 21.421 7.79701 21.874C8.24429 22.3272 9.11338 22.4301 9.11338 22.4301Z" fill="#E5EAED"/>
<path d="M9.10325 20.566C9.10325 20.566 9.36085 19.4899 8.98727 19.0039C8.61388 18.5178 7.44727 17.814 7.44727 17.814C7.44727 17.814 7.53903 19.3024 7.90141 19.8175C8.26379 20.3324 9.10325 20.566 9.10325 20.566Z" fill="#E5EAED"/>
<path d="M9.23668 18.8282C9.23668 18.8282 9.88918 17.9093 9.72642 17.3307C9.56365 16.752 8.7437 15.7054 8.7437 15.7054C8.7437 15.7054 8.25957 17.1261 8.40083 17.728C8.5421 18.33 9.23668 18.8282 9.23668 18.8282Z" fill="#E5EAED"/>
<path d="M11.0058 15.4017C11.086 14.8082 10.7437 13.5515 10.7437 13.5515C10.7437 13.5515 9.72663 14.7008 9.61698 15.3085C9.50733 15.9161 9.95262 16.6203 9.95262 16.6203C9.95262 16.6203 10.9254 15.9952 11.0058 15.4017Z" fill="#E5EAED"/>
<path d="M12.8189 13.6012C12.995 13.0259 12.8615 11.7351 12.8615 11.7351C12.8615 11.7351 11.6691 12.7267 11.4617 13.3116C11.2543 13.8967 11.5797 14.656 11.5797 14.656C11.5797 14.656 12.6429 14.1763 12.8189 13.6012Z" fill="#E5EAED"/>
<path d="M13.0635 13.8596C13.0635 13.8596 14.2212 14.0768 14.7336 13.7176C15.2461 13.3583 15.9744 12.2543 15.9744 12.2543C15.9744 12.2543 14.3826 12.3722 13.8388 12.7215C13.2952 13.0709 13.0635 13.8596 13.0635 13.8596Z" fill="#E5EAED"/>
<path d="M12.548 14.5353C11.9623 14.8193 11.6279 15.5752 11.6279 15.5752C11.6279 15.5752 12.7481 15.9242 13.3042 15.6268C13.86 15.3293 14.7289 14.3177 14.7289 14.3177C14.7289 14.3177 13.1336 14.2511 12.548 14.5353Z" fill="#E5EAED"/>
<path d="M10.5418 16.6887C10.0625 17.1123 9.96387 17.925 9.96387 17.925C9.96387 17.925 11.1437 17.9727 11.5904 17.5438C12.0373 17.115 12.5744 15.9191 12.5744 15.9191C12.5744 15.9191 11.0212 16.2652 10.5418 16.6887Z" fill="#E5EAED"/>
<path d="M9.8647 19.0916C9.496 19.6028 9.58976 20.416 9.58976 20.416C9.58976 20.416 10.7524 20.222 11.088 19.7125C11.4239 19.2029 11.6683 17.9265 11.6683 17.9265C11.6683 17.9265 10.2334 18.5806 9.8647 19.0916Z" fill="#E5EAED"/>
<path d="M9.56847 21.3491C9.26083 21.8944 9.44798 22.6933 9.44798 22.6933C9.44798 22.6933 10.5814 22.3837 10.8563 21.8431C11.1314 21.3029 11.2272 20.0093 11.2272 20.0093C11.2272 20.0093 9.87611 20.804 9.56847 21.3491Z" fill="#E5EAED"/>
<path d="M11.6045 21.7168C11.6045 21.7168 10.4636 22.7598 10.2862 23.3533C10.1086 23.9468 10.4721 24.691 10.4721 24.691C10.4721 24.691 11.5099 24.1649 11.6566 23.5827C11.8032 23.0003 11.6045 21.7168 11.6045 21.7168Z" fill="#E5EAED"/>
<path d="M11.4115 24.6907C11.185 25.2284 11.4473 25.955 11.4473 25.955C11.4473 25.955 12.4694 25.5574 12.6661 25.0273C12.8626 24.4974 12.8094 23.2827 12.8094 23.2827C12.8094 23.2827 11.6379 24.1532 11.4115 24.6907Z" fill="#E5EAED"/>
<path d="M29.7871 26.0862C29.7871 26.0862 30.6365 26.2864 31.2299 26.0167C31.8234 25.7472 32.7176 24.5121 32.7176 24.5121C32.7176 24.5121 31.3297 24.5598 30.7424 24.7991C30.1551 25.0385 29.7871 26.0862 29.7871 26.0862Z" fill="#E5EAED"/>
<path d="M31.0371 24.3364C31.0371 24.3364 31.9114 24.3858 32.4411 24.0182C32.9707 23.6505 33.6035 22.2816 33.6035 22.2816C33.6035 22.2816 32.2492 22.5692 31.7198 22.9063C31.1903 23.2432 31.0371 24.3364 31.0371 24.3364Z" fill="#E5EAED"/>
<path d="M31.855 22.4301C31.855 22.4301 32.7241 22.3272 33.1712 21.874C33.6185 21.421 33.9682 19.9663 33.9682 19.9663C33.9682 19.9663 32.6947 20.4836 32.2414 20.9064C31.7882 21.3294 31.855 22.4301 31.855 22.4301Z" fill="#E5EAED"/>
<path d="M31.9808 19.0039C31.6072 19.4899 31.865 20.566 31.865 20.566C31.865 20.566 32.7045 20.3324 33.0668 19.8175C33.4292 19.3024 33.521 17.814 33.521 17.814C33.521 17.814 32.3544 18.5178 31.9808 19.0039Z" fill="#E5EAED"/>
<path d="M31.7317 18.8282C31.7317 18.8282 32.4263 18.33 32.5675 17.728C32.7088 17.1261 32.2247 15.7054 32.2247 15.7054C32.2247 15.7054 31.4045 16.752 31.2419 17.3307C31.079 17.9093 31.7317 18.8282 31.7317 18.8282Z" fill="#E5EAED"/>
<path d="M31.0153 16.6203C31.0153 16.6203 31.4606 15.9161 31.351 15.3085C31.2413 14.7008 30.2243 13.5515 30.2243 13.5515C30.2243 13.5515 29.8822 14.8082 29.9624 15.4017C30.0426 15.9952 31.0153 16.6203 31.0153 16.6203Z" fill="#E5EAED"/>
<path d="M29.389 14.656C29.389 14.656 29.7143 13.8967 29.5069 13.3116C29.2995 12.7267 28.1071 11.7351 28.1071 11.7351C28.1071 11.7351 27.9736 13.0259 28.1495 13.6012C28.3257 14.1763 29.389 14.656 29.389 14.656Z" fill="#E5EAED"/>
<path d="M27.9051 13.8596C27.9051 13.8596 27.6733 13.0709 27.1296 12.7215C26.586 12.3722 24.9941 12.2543 24.9941 12.2543C24.9941 12.2543 25.7225 13.3583 26.235 13.7176C26.7473 14.0768 27.9051 13.8596 27.9051 13.8596Z" fill="#E5EAED"/>
<path d="M29.3393 15.5752C29.3393 15.5752 29.0049 14.8193 28.4192 14.5353C27.8336 14.2511 26.2383 14.3177 26.2383 14.3177C26.2383 14.3177 27.1072 15.3293 27.6632 15.6268C28.2191 15.9242 29.3393 15.5752 29.3393 15.5752Z" fill="#E5EAED"/>
<path d="M31.0041 17.925C31.0041 17.925 30.9055 17.1123 30.4262 16.6887C29.9468 16.2652 28.3936 15.9191 28.3936 15.9191C28.3936 15.9191 28.9306 17.115 29.3775 17.5438C29.8243 17.9727 31.0041 17.925 31.0041 17.925Z" fill="#E5EAED"/>
<path d="M31.3783 20.416C31.3783 20.416 31.4721 19.6028 31.1034 19.0916C30.7347 18.5806 29.2998 17.9265 29.2998 17.9265C29.2998 17.9265 29.5442 19.2029 29.88 19.7125C30.2159 20.222 31.3783 20.416 31.3783 20.416Z" fill="#E5EAED"/>
<path d="M31.5204 22.6933C31.5204 22.6933 31.7075 21.8944 31.3999 21.3491C31.0923 20.804 29.7412 20.0093 29.7412 20.0093C29.7412 20.0093 29.8371 21.3029 30.1121 21.8431C30.3872 22.3837 31.5204 22.6933 31.5204 22.6933Z" fill="#E5EAED"/>
<path d="M30.6823 23.3533C30.5049 22.7598 29.3638 21.7168 29.3638 21.7168C29.3638 21.7168 29.165 23.0003 29.3119 23.5827C29.4586 24.1649 30.4964 24.691 30.4964 24.691C30.4964 24.691 30.8599 23.9468 30.6823 23.3533Z" fill="#E5EAED"/>
<path d="M28.1589 23.2827C28.1589 23.2827 28.1056 24.4974 28.3024 25.0273C28.4991 25.5574 29.521 25.955 29.521 25.955C29.521 25.955 29.7835 25.2284 29.5569 24.6907C29.3302 24.1532 28.1589 23.2827 28.1589 23.2827Z" fill="#E5EAED"/>
<path d="M18.5652 18.2H13.8545V27H16.429V24.5953H17.2779V27H19.8524V24.5953C19.8524 23.943 19.2635 23.4058 18.5652 23.4058C19.2635 23.4058 19.8524 22.8558 19.8524 22.2035V19.4023C19.8524 18.75 19.2635 18.2 18.5652 18.2ZM17.2779 22.2035H16.429V20.6046H17.2779V22.2035Z" fill="white"/>
<path d="M25.4197 18.2H20.709V27H23.2835V24.5953H24.1324V27H26.7069V24.5953C26.7069 23.943 26.118 23.4058 25.4197 23.4058C26.118 23.4058 26.7069 22.8558 26.7069 22.2035V19.4023C26.7069 18.75 26.118 18.2 25.4197 18.2ZM24.1324 22.2035H23.2835V20.6046H24.1324V22.2035Z" fill="white"/>
<path d="M23.2802 13.139L21.2081 12.8434L20.2814 11L19.3547 12.8434L17.2822 13.139L18.782 14.574L18.428 16.6L20.2814 15.6436L22.1347 16.6L21.7808 14.574L23.2802 13.139Z" fill="#FFCA30"/>
</g>
</svg>
