<svg width="40" height="39" viewBox="0 0 40 39" fill="none" xmlns="http://www.w3.org/2000/svg">
<path d="M16.5455 2.32278C15.9732 2.40982 15.4398 2.00925 15.3541 1.42808C15.2684 0.846911 15.6629 0.30522 16.2351 0.21818C18.8134 -0.173953 21.3986 -0.0342115 23.871 0.610821C26.2763 1.23841 28.5391 2.33565 30.534 3.8338C30.9993 4.18321 31.0975 4.84949 30.7535 5.32198C30.4094 5.79447 29.7533 5.89425 29.288 5.54484C27.5094 4.20911 25.4924 3.23107 23.3495 2.67196C21.1476 2.09748 18.8452 1.97302 16.5455 2.32278ZM2.37559 15.1426C2.22838 15.6754 1.6462 15.996 1.07525 15.8586C0.504302 15.7212 0.160787 15.1779 0.307991 14.6451C0.327366 14.575 0.346984 14.5055 0.366842 14.4365C0.519923 13.9051 1.10561 13.5902 1.67501 13.733C2.24442 13.8759 2.58191 14.4225 2.42883 14.9539C2.41089 15.0161 2.39314 15.079 2.37559 15.1426Z" fill="#4C00C2"/>
<path d="M19.0411 32.417C24.3546 32.417 29.0794 29.225 31.1141 24.4145C31.714 22.9961 32.0599 21.477 32.13 19.9109C32.1388 19.7124 32.1432 19.5137 32.1432 19.3149C32.1432 12.0787 26.2772 6.21273 19.0411 6.21273C11.805 6.21273 5.93897 12.0787 5.93897 19.3149C5.93897 26.551 11.805 32.417 19.0411 32.417ZM19.0411 34.5203C10.6433 34.5203 3.83562 27.7126 3.83562 19.3149C3.83562 10.9171 10.6433 4.10938 19.0411 4.10938C27.4389 4.10938 34.2466 10.9171 34.2466 19.3149C34.2466 19.5449 34.2415 19.7747 34.2312 20.0046C34.1499 21.8217 33.7481 23.5863 33.0513 25.2338C30.6902 30.816 25.2071 34.5203 19.0411 34.5203ZM7.0825 31.6269C7.50175 32.0377 7.50224 32.7042 7.08361 33.1156C6.66498 33.527 5.98575 33.5275 5.5665 33.1167C4.46401 32.0364 3.49479 30.8314 2.68091 29.5255C1.3175 27.3376 0.407338 24.8947 0.011978 22.3044C-0.0757751 21.7294 0.32808 21.1935 0.914013 21.1074C1.49995 21.0213 2.04608 21.4176 2.13383 21.9926C2.48647 24.303 3.29706 26.4786 4.51132 28.4271C5.2363 29.5904 6.0999 30.6642 7.0825 31.6269ZM21.8107 36.552C22.3829 36.4638 22.9163 36.8694 23.002 37.4579C23.0877 38.0463 22.6933 38.5948 22.1211 38.683C19.5428 39.0801 16.9577 38.9386 14.4858 38.2853C13.9254 38.1372 13.5878 37.55 13.7319 36.9737C13.8759 36.3974 14.4469 36.0502 15.0073 36.1983C17.2088 36.7801 19.511 36.9061 21.8107 36.552ZM32.3555 30.775C32.7425 30.337 33.4215 30.287 33.872 30.6633C34.3225 31.0396 34.3739 31.6997 33.9869 32.1378C32.6446 33.6568 31.0666 34.9649 29.3077 36.0105C28.801 36.3117 28.1391 36.1565 27.8293 35.6639C27.5195 35.1712 27.6791 34.5276 28.1858 34.2264C29.7526 33.2949 31.1589 32.1292 32.3555 30.775ZM36.2782 16.8192C36.1901 16.247 36.5957 15.7136 37.1841 15.6279C37.7726 15.5422 38.3211 15.9366 38.4092 16.5089C38.8063 19.087 38.6648 21.6721 38.0115 24.1441C37.8634 24.7045 37.2762 25.0421 36.6999 24.8981C36.1236 24.7541 35.7765 24.183 35.9246 23.6226C36.5064 21.4211 36.6324 19.1188 36.2782 16.8192ZM5.45262 9.16502C5.10843 9.62915 4.45209 9.72716 3.98665 9.38394C3.52121 9.04072 3.42292 8.38624 3.76711 7.92211C4.32731 7.16673 4.94193 6.4531 5.60595 5.78737C6.01417 5.37809 6.67782 5.37631 7.08826 5.78337C7.49869 6.19044 7.50048 6.85222 7.09226 7.26149C6.50025 7.85503 5.9522 8.49137 5.45262 9.16502Z" fill="#4C00C2"/>
<path fill-rule="evenodd" clip-rule="evenodd" d="M18.2192 21.096C17.5383 21.096 16.9863 20.5435 16.9863 19.8619V12.1931C16.9863 11.5115 17.5383 10.959 18.2192 10.959C18.9001 10.959 19.4521 11.5115 19.4521 12.1931V19.8619C19.4521 20.5435 18.9001 21.096 18.2192 21.096Z" fill="#4C00C2"/>
<path fill-rule="evenodd" clip-rule="evenodd" d="M16.9863 20.0965C16.9863 19.3931 17.5388 18.8229 18.2204 18.9139H25.8893C26.5708 18.8229 27.1233 19.3931 27.1233 20.0965C27.1233 20.7999 26.5708 21.3701 25.8893 21.3701H18.2204C17.5388 21.3701 16.9863 20.7999 16.9863 20.0965Z" fill="#4C00C2"/>
<path fill-rule="evenodd" clip-rule="evenodd" d="M39.1783 33.9729H27.1235L27.2994 25.9767L30.2033 24.3252L31.0833 21.3701L34.8668 21.6309L35.5707 24.4992L39.1783 25.629V33.9729Z" fill="white"/>
<path fill-rule="evenodd" clip-rule="evenodd" d="M37.122 24.2952H36.0924V23.6774C36.0924 21.8001 34.5636 20.2734 32.6845 20.2734C30.8054 20.2734 29.2761 21.8001 29.2761 23.6774V24.2952H28.6309C27.0448 24.2952 25.7534 25.5847 25.7534 27.1692V32.4679C25.7534 34.0524 27.0448 35.3419 28.6309 35.3419H37.122C38.7092 35.3419 40 34.0524 40 32.4679V27.1692C40 25.5847 38.7092 24.2952 37.122 24.2952ZM30.7858 23.6774C30.7858 22.6322 31.6378 21.7817 32.6845 21.7817C33.7312 21.7817 34.5827 22.6322 34.5827 23.6774V24.2952H30.7858V23.6774ZM38.4903 32.4679C38.4903 33.221 37.8763 33.8338 37.122 33.8338H28.6309C27.8766 33.8338 27.2632 33.221 27.2632 32.4679V27.1692C27.2632 26.4162 27.8766 25.8033 28.6309 25.8033H37.122C37.8763 25.8033 38.4903 26.4162 38.4903 27.1692V32.4679Z" fill="#0CD0CD"/>
<path fill-rule="evenodd" clip-rule="evenodd" d="M33.0141 27.123C31.7302 27.123 30.6851 28.1982 30.6851 29.5189C30.6851 30.5376 31.3092 31.4046 32.1832 31.7504V32.6025H33.6812V31.8024C34.6389 31.5053 35.3426 30.5997 35.3426 29.5189C35.3426 28.1982 34.298 27.123 33.0141 27.123ZM33.0141 30.3731C32.5556 30.3731 32.1832 29.9897 32.1832 29.5189C32.1832 29.0482 32.5556 28.6648 33.0141 28.6648C33.4719 28.6648 33.8445 29.0482 33.8445 29.5189C33.8445 29.9897 33.4719 30.3731 33.0141 30.3731Z" fill="#0CD0CD"/>
</svg>
