<svg width="33" height="36" viewBox="0 0 33 36" fill="none" xmlns="http://www.w3.org/2000/svg">
<path d="M26.8085 19.1489H5.36169V25.2766H11.4894V29.8723H20.6808V25.2766H26.8085V19.1489Z" fill="currentColor"/>
<path d="M29.1064 8.83915V6.12766C29.1064 2.74979 26.3566 0 22.9787 0H9.19149C5.81362 0 3.06383 2.74979 3.06383 6.12766V8.83915C1.17957 10.103 0 12.2323 0 14.5532V22.2128C0 24.9089 1.99915 27.1455 4.59574 27.5209V31.4043C4.59574 33.9396 6.65617 36 9.19149 36C11.7268 36 13.7872 33.9396 13.7872 31.4043V30.6383H18.383V31.4043C18.383 33.9396 20.4434 36 22.9787 36C25.514 36 27.5745 33.9396 27.5745 31.4043V27.5209C30.1711 27.1455 32.1702 24.9089 32.1702 22.2128V14.5532C32.1702 12.2323 30.9906 10.103 29.1064 8.83915ZM29.8723 22.2128C29.8723 23.6374 28.8919 24.8247 27.5745 25.1694V16.0851C27.5745 15.4494 27.0613 14.9362 26.4255 14.9362C25.7898 14.9362 25.2766 15.4494 25.2766 16.0851V25.2766V26.234V31.4043C25.2766 32.6757 24.2502 33.7021 22.9787 33.7021C21.7072 33.7021 20.6809 32.6757 20.6809 31.4043V28.3404C18.8119 28.3404 13.3583 28.3404 11.4894 28.3404V31.4043C11.4894 32.6757 10.463 33.7021 9.19149 33.7021C7.92 33.7021 6.89362 32.6757 6.89362 31.4043V26.234V25.2766V16.0851C6.89362 15.4494 6.38043 14.9362 5.74468 14.9362C5.10894 14.9362 4.59574 15.4494 4.59574 16.0851V25.1694C3.2783 24.8247 2.29787 23.6374 2.29787 22.2128C2.29787 21.4315 2.29787 15.503 2.29787 14.5532C2.29787 12.554 3.57702 10.8689 5.3617 10.2409V6.12766C5.3617 4.01362 7.07745 2.29787 9.19149 2.29787C11.3055 2.29787 20.8647 2.29787 22.9787 2.29787C25.0928 2.29787 26.8085 4.01362 26.8085 6.12766V10.2409C28.5932 10.8766 29.8723 12.554 29.8723 14.5532C29.8723 15.503 29.8723 21.4315 29.8723 22.2128Z" fill="currentColor"/>
<path d="M9.9728 9.19152C8.70897 9.19152 7.67493 8.15747 7.67493 6.89364C7.67493 6.47237 8.01961 6.12769 8.44088 6.12769C8.86216 6.12769 9.20684 6.47237 9.20684 6.89364C9.20684 7.31492 9.55152 7.6596 9.9728 7.6596C10.3941 7.6596 10.7388 7.31492 10.7388 6.89364C10.7388 6.47237 11.0834 6.12769 11.5047 6.12769C11.926 6.12769 12.2707 6.47237 12.2707 6.89364C12.2707 8.15747 11.2366 9.19152 9.9728 9.19152Z" fill="currentColor"/>
<path d="M22.2282 9.19152C20.9643 9.19152 19.9303 8.15747 19.9303 6.89364C19.9303 6.47237 20.275 6.12769 20.6963 6.12769C21.1175 6.12769 21.4622 6.47237 21.4622 6.89364C21.4622 7.31492 21.8069 7.6596 22.2282 7.6596C22.6494 7.6596 22.9941 7.31492 22.9941 6.89364C22.9941 6.47237 23.3388 6.12769 23.7601 6.12769C24.1814 6.12769 24.526 6.47237 24.526 6.89364C24.526 8.15747 23.492 9.19152 22.2282 9.19152Z" fill="currentColor"/>
<path d="M20.6963 13.4043H11.5048C10.869 13.4043 10.3558 12.8911 10.3558 12.2554C10.3558 11.6196 10.869 11.1064 11.5048 11.1064H20.6963C21.332 11.1064 21.8452 11.6196 21.8452 12.2554C21.8452 12.8911 21.332 13.4043 20.6963 13.4043Z" fill="#373B39"/>
</svg>
