<svg width="48" height="48" viewBox="0 0 48 48" fill="none" xmlns="http://www.w3.org/2000/svg">
<circle cx="24" cy="24" r="24" fill="white"/>
<path fill-rule="evenodd" clip-rule="evenodd" d="M37.892 28.5711H34.9877C35.2079 28.0057 35.75 27.6028 36.3867 27.6028C36.6925 27.6028 36.9407 27.3546 36.9407 27.0488V15.6299C36.9407 15.3241 36.6925 15.0759 36.3867 15.0759C35.7504 15.0759 35.2079 14.6734 34.9877 14.108H37.892V28.5711ZM24.5538 29.0343V28.4962C26.6305 28.0892 28.1908 25.2839 28.1908 21.7698C28.1908 18.3015 26.6703 15.5265 24.6347 15.063C24.8577 14.5042 25.3977 14.108 26.0292 14.108H33.8381C34.0537 15.1121 34.8348 15.9069 35.8327 16.1244V26.5543C34.8348 26.7718 34.0537 27.567 33.8381 28.5711H26.0292C25.4819 28.5711 24.9744 28.7436 24.5538 29.0343ZM21.9106 32.6351H14.2218C14.0061 31.6309 13.2246 30.8358 12.2271 30.6183V20.1884C13.2246 19.9709 14.0061 19.1757 14.2218 18.1715H21.9106C22.4845 18.1715 23.0145 17.9821 23.4458 17.6652V18.1656C21.3862 18.5959 19.8417 21.3887 19.8417 24.8843C19.8417 28.3174 21.3319 31.0714 23.3369 31.5759C23.1415 32.1879 22.5798 32.6351 21.9106 32.6351ZM10.108 18.1715H13.0717C12.852 18.737 12.3095 19.1399 11.6731 19.1399C11.367 19.1399 11.1191 19.3881 11.1191 19.6939V31.1128C11.1191 31.4186 11.367 31.6668 11.6731 31.6668C12.3095 31.6668 12.852 32.0697 13.0717 32.6351H10.108V18.1715ZM24.5538 16.1879C25.969 16.664 27.0829 19.0236 27.0829 21.7698C27.0829 24.5157 25.969 26.8756 24.5538 27.3517V16.1879ZM20.9496 24.8843C20.9496 22.1591 22.0465 19.8132 23.4458 19.312V30.4561C22.0465 29.955 20.9496 27.6091 20.9496 24.8843ZM38.446 13H26.0292C24.7451 13 23.6763 13.9373 23.458 15.1672C23.4577 15.1694 23.4573 15.1712 23.4569 15.1731C23.4399 15.2695 23.4266 15.3673 23.4207 15.4674C23.4174 15.4914 23.4159 15.5162 23.4159 15.5416C23.4159 16.3807 22.7404 17.0636 21.9106 17.0636H9.55398C9.24781 17.0636 9 17.3118 9 17.6176V33.1891C9 33.4949 9.24781 33.7431 9.55398 33.7431H21.9106C23.297 33.7431 24.4349 32.6506 24.5187 31.276C24.522 31.2517 24.5239 31.2265 24.5239 31.2014C24.5239 30.3623 25.199 29.6791 26.0292 29.6791H38.446C38.7522 29.6791 39 29.4309 39 29.1251V13.554C39 13.2482 38.7522 13 38.446 13Z" fill="#4C00C2"/>
<path fill-rule="evenodd" clip-rule="evenodd" d="M32.5692 32.3763C34.8194 32.3763 36.2874 31.5638 36.4134 30.9566C35.5174 31.5268 34.1524 31.8784 32.5692 31.8784C32.5433 31.8784 32.5182 31.8769 32.4923 31.8766L32.489 31.8784L32.4853 31.8766C30.9383 31.864 29.605 31.5165 28.7253 30.9566C28.8512 31.5638 30.3193 32.3763 32.5692 32.3763ZM32.5692 30.7706C34.8168 30.7706 36.2845 29.9599 36.413 29.3531C35.517 29.9223 34.1539 30.2731 32.5725 30.2731C30.9874 30.2731 29.6209 29.9204 28.7249 29.3491C28.8472 29.9562 30.3163 30.7706 32.5692 30.7706ZM28.7291 32.5644C29.6251 33.1332 30.9879 33.484 32.5693 33.484C34.1551 33.484 35.5216 33.1317 36.4176 32.5596C36.2979 33.1672 34.8284 33.9837 32.5726 33.9837C30.3231 33.9837 28.855 33.1712 28.7291 32.5644ZM32.5726 26.1592C34.9266 26.1592 36.429 27.0492 36.429 27.6619C36.429 28.275 34.9266 29.1654 32.5726 29.1654C30.2186 29.1654 28.7166 28.275 28.7166 27.6619C28.7166 27.0492 30.2186 26.1592 32.5726 26.1592Z" fill="white"/>
<path fill-rule="evenodd" clip-rule="evenodd" d="M32.5728 29.1651C30.2188 29.1651 28.7167 28.2747 28.7167 27.662C28.7167 27.0493 30.2188 26.1589 32.5728 26.1589C34.9268 26.1589 36.4292 27.0493 36.4292 27.662C36.4292 28.2747 34.9268 29.1651 32.5728 29.1651ZM32.5728 33.9836C30.3233 33.9836 28.8552 33.1711 28.7293 32.5643C29.6253 33.133 30.988 33.4839 32.5695 33.4839C34.1553 33.4839 35.5218 33.1312 36.4177 32.5595C36.2981 33.167 34.8286 33.9836 32.5728 33.9836ZM32.4856 31.8762L32.4893 31.8785L32.4926 31.8766C32.5185 31.8766 32.5432 31.8785 32.5695 31.8785C34.1527 31.8785 35.5177 31.5265 36.4133 30.9567C36.2877 31.5634 34.8193 32.3759 32.5695 32.3759C30.3196 32.3759 28.8515 31.5634 28.7256 30.9567C29.6053 31.5165 30.9386 31.8641 32.4856 31.8762ZM28.7252 29.3486C29.6212 29.9203 30.9873 30.273 32.5728 30.273C34.1542 30.273 35.5174 29.9222 36.4129 29.3531C36.2848 29.9599 34.8171 30.7705 32.5695 30.7705C30.3166 30.7705 28.8475 29.9558 28.7252 29.3486ZM37.5372 32.4808V30.6763L37.5338 30.6782V29.0691H37.5335L37.5327 27.7646L37.5275 27.7669C37.5301 27.7318 37.5372 27.6974 37.5372 27.662C37.5372 26.174 35.4051 25.0524 32.5772 25.0513C29.7494 25.0524 27.6177 26.174 27.6177 27.662C27.6177 27.7912 27.5829 27.8943 27.614 28.0173V29.0691V29.2678V30.8732C27.614 30.8868 27.6173 30.8998 27.6177 30.9134V32.4808C27.6177 33.9684 29.7497 35.09 32.5772 35.0915C35.4051 35.09 37.5372 33.9684 37.5372 32.4808Z" fill="#0CD0CD"/>
</svg>
