<svg width="32" height="32" viewBox="0 0 32 32" fill="none" xmlns="http://www.w3.org/2000/svg">
<path d="M15.9992 26.7999C9.99922 26.7999 5.19922 21.9999 5.19922 15.9999C5.19922 9.99989 9.99922 5.19989 15.9992 5.19989C21.9992 5.19989 26.7992 9.99989 26.7992 15.9999C26.7992 21.9999 21.9992 26.7999 15.9992 26.7999ZM15.9992 7.86656C11.4659 7.86656 7.86589 11.5999 7.86589 15.9999C7.86589 20.5332 11.4659 24.1332 15.9992 24.1332C20.5326 24.1332 24.1326 20.5332 24.1326 15.9999C24.1326 11.5999 20.5326 7.86656 15.9992 7.86656Z" fill="#3B038E"/>
<path d="M9.06576 23.7331C8.66576 23.7331 8.39909 23.5998 8.13242 23.3331C7.59909 22.7998 7.59909 21.9998 8.13242 21.4664L21.4658 8.13309C21.9991 7.59976 22.7991 7.59976 23.3324 8.13309C23.8658 8.66643 23.8658 9.46643 23.3324 9.99976L9.99909 23.3331C9.73242 23.5998 9.46576 23.7331 9.06576 23.7331Z" fill="#3B038E"/>
</svg>
