<svg width="900" height="900" viewBox="0 0 900 900" fill="none">
  <path d="M386.153 263.655C392.802 273.879 394.653 294.858 384.429 301.508C374.205 308.158 355.778 297.96 349.128 287.736C345.94 282.826 344.831 276.851 346.047 271.124C347.262 265.398 350.701 260.388 355.609 257.196C360.516 254.004 366.49 252.892 372.217 254.103C377.945 255.314 382.957 258.75 386.153 263.655V263.655Z" fill="#EE888E"/>
  <path d="M593.234 101.193C587.313 94.1893 573.948 93.7051 564.507 104.509C550.353 120.708 544.758 140.853 540.331 161.236C538.397 170.141 541.46 176.004 547.094 178.342C552.658 180.65 558.755 178.059 564.247 170.492C574.583 156.252 585.884 142.678 594.457 127.208C596.201 124.174 597.464 120.889 598.203 117.468C599.458 111.261 597.958 105.956 593.234 101.193Z" fill="#EE888E"/>
  <path d="M194.968 152.621C206.285 155.094 215.792 162.278 223.514 170.647C229.685 177.335 242.029 188.188 238.689 198.627C237.123 203.524 231.79 208.246 226.471 207.836C222.037 207.494 218.086 204.527 214.122 202.738C202.874 197.663 191.847 194.807 180.207 191.198C168.388 187.533 160.717 176.785 165.061 164.441C169.402 152.108 183.354 150.083 194.968 152.621Z" fill="#0CD0CD"/>
  <path d="M838.431 449.916C828.675 443.67 816.871 442.037 805.494 442.504C796.401 442.877 779.997 441.836 774.985 451.582C772.633 456.155 773.071 463.265 777.125 466.733C780.504 469.623 785.396 470.315 789.466 471.85C801.011 476.206 810.832 481.976 821.62 487.645C832.574 493.403 845.596 491.216 851.243 479.412C856.885 467.617 848.442 456.326 838.431 449.916Z" fill="#0CD0CD"/>
  <path d="M566.219 285.962C563.67 290.126 549.557 305.657 545.393 303.107C541.228 300.558 548.589 280.894 551.139 276.73C553.688 272.565 560.026 270.559 564.191 273.109C568.355 275.658 568.768 281.797 566.219 285.962Z" fill="#EE888E"/>
  <path d="M437.997 651.63C438.93 646.837 439.017 625.852 434.225 624.919C429.432 623.985 421.575 643.456 420.641 648.249C419.707 653.041 423.025 658.802 427.818 659.736C432.611 660.67 437.063 656.423 437.997 651.63Z" fill="#FFC930"/>
  <path d="M331.821 273.085C335.472 278.555 346.487 304.584 341.018 308.235C335.548 311.886 315.665 291.777 312.014 286.308C308.362 280.838 309.491 271.955 314.96 268.304C320.43 264.653 328.169 267.616 331.821 273.085Z" fill="white"/>
  <path d="M342.74 63.5245C346.313 69.0451 356.96 95.2269 351.439 98.8005C345.919 102.374 326.322 81.9863 322.748 76.4657C319.174 70.9451 320.428 62.0793 325.948 58.5057C331.469 54.9321 339.166 58.0039 342.74 63.5245Z" fill="white"/>
  <path d="M518.565 183.87C516.584 190.141 503.176 215.022 496.905 213.041C490.634 211.06 493.875 182.967 495.857 176.696C497.838 170.425 505.472 165.746 511.743 167.727C518.013 169.709 520.546 177.599 518.565 183.87Z" fill="white"/>
  <path d="M121.937 589.987C128.562 579.811 139.134 573.159 150.204 568.696C159.051 565.13 174.272 557.058 183.265 564.207C187.484 567.561 190.134 574.541 187.757 579.603C185.776 583.822 181.401 586.594 178.176 589.816C169.026 598.958 162.133 608.707 154.273 618.777C146.293 629.003 132.909 632.532 122.422 623.692C111.944 614.859 115.138 600.429 121.937 589.987Z" fill="white"/>
  <path d="M471.097 304.523C470.978 307.256 468.276 318.698 465.543 318.578C462.811 318.459 461.082 306.824 461.201 304.091C461.32 301.358 463.882 298.655 466.615 298.775C469.348 298.894 471.217 301.791 471.097 304.523Z" fill="white"/>
  <path d="M375.58 309.94C378.342 309.94 380.58 307.701 380.58 304.94C380.58 302.178 378.342 299.94 375.58 299.94C372.819 299.94 370.58 302.178 370.58 304.94C370.58 307.701 372.819 309.94 375.58 309.94Z" fill="#0CD0CD"/>
  <path d="M50.4131 270.875C53.1745 270.875 55.4131 268.636 55.4131 265.875C55.4131 263.113 53.1745 260.875 50.4131 260.875C47.6517 260.875 45.4131 263.113 45.4131 265.875C45.4131 268.636 47.6517 270.875 50.4131 270.875Z" fill="#0CD0CD"/>
  <path d="M422.694 326.912C425.456 326.912 427.694 324.673 427.694 321.912C427.694 319.15 425.456 316.912 422.694 316.912C419.933 316.912 417.694 319.15 417.694 321.912C417.694 324.673 419.933 326.912 422.694 326.912Z" fill="white"/>
  <path d="M104.31 292.684C107.071 292.684 109.31 290.445 109.31 287.684C109.31 284.922 107.071 282.684 104.31 282.684C101.548 282.684 99.3096 284.922 99.3096 287.684C99.3096 290.445 101.548 292.684 104.31 292.684Z" fill="white"/>
  <path d="M488.893 340.152C491.654 340.152 493.893 337.913 493.893 335.152C493.893 332.39 491.654 330.152 488.893 330.152C486.131 330.152 483.893 332.39 483.893 335.152C483.893 337.913 486.131 340.152 488.893 340.152Z" fill="white"/>
  <path d="M516.811 561.104C519.572 561.104 521.811 558.866 521.811 556.104C521.811 553.343 519.572 551.104 516.811 551.104C514.049 551.104 511.811 553.343 511.811 556.104C511.811 558.866 514.049 561.104 516.811 561.104Z" fill="white"/>
  <path d="M427.694 607.833C430.456 607.833 432.694 605.595 432.694 602.833C432.694 600.072 430.456 597.833 427.694 597.833C424.933 597.833 422.694 600.072 422.694 602.833C422.694 605.595 424.933 607.833 427.694 607.833Z" fill="white"/>
  <path d="M349.453 582.068C352.215 582.068 354.453 579.829 354.453 577.068C354.453 574.306 352.215 572.068 349.453 572.068C346.692 572.068 344.453 574.306 344.453 577.068C344.453 579.829 346.692 582.068 349.453 582.068Z" fill="white"/>
  <path d="M198.418 767.696C201.179 767.696 203.418 765.457 203.418 762.696C203.418 759.934 201.179 757.696 198.418 757.696C195.657 757.696 193.418 759.934 193.418 762.696C193.418 765.457 195.657 767.696 198.418 767.696Z" fill="white"/>
  <path d="M281.682 592.068C284.443 592.068 286.682 589.829 286.682 587.068C286.682 584.306 284.443 582.068 281.682 582.068C278.92 582.068 276.682 584.306 276.682 587.068C276.682 589.829 278.92 592.068 281.682 592.068Z" fill="white"/>
  <path d="M618.404 592.068C621.166 592.068 623.404 589.829 623.404 587.068C623.404 584.306 621.166 582.068 618.404 582.068C615.643 582.068 613.404 584.306 613.404 587.068C613.404 589.829 615.643 592.068 618.404 592.068Z" fill="white"/>
  <path d="M165.948 664.866C168.71 664.866 170.948 662.627 170.948 659.866C170.948 657.105 168.71 654.866 165.948 654.866C163.187 654.866 160.948 657.105 160.948 659.866C160.948 662.627 163.187 664.866 165.948 664.866Z" fill="white"/>
  <path d="M711.046 690.41C713.807 690.41 716.046 688.172 716.046 685.41C716.046 682.649 713.807 680.41 711.046 680.41C708.284 680.41 706.046 682.649 706.046 685.41C706.046 688.172 708.284 690.41 711.046 690.41Z" fill="white"/>
  <path d="M639.231 787.595C641.993 787.595 644.231 785.357 644.231 782.595C644.231 779.834 641.993 777.595 639.231 777.595C636.47 777.595 634.231 779.834 634.231 782.595C634.231 785.357 636.47 787.595 639.231 787.595Z" fill="#EE888E"/>
  <path d="M786.516 630.752C792.782 630.752 797.861 625.673 797.861 619.407C797.861 613.141 792.782 608.062 786.516 608.062C780.25 608.062 775.171 613.141 775.171 619.407C775.171 625.673 780.25 630.752 786.516 630.752Z" fill="#0CD0CD"/>
  <path d="M312.363 688.475C318.629 688.475 323.708 683.396 323.708 677.13C323.708 670.864 318.629 665.785 312.363 665.785C306.097 665.785 301.018 670.864 301.018 677.13C301.018 683.396 306.097 688.475 312.363 688.475Z" fill="#0CD0CD"/>
  <path d="M669.753 708.101C676.019 708.101 681.099 703.021 681.099 696.755C681.099 690.49 676.019 685.41 669.753 685.41C663.488 685.41 658.408 690.49 658.408 696.755C658.408 703.021 663.488 708.101 669.753 708.101Z" fill="white"/>
  <path d="M427 486C429.761 486 432 483.761 432 481C432 478.239 429.761 476 427 476C424.239 476 422 478.239 422 481C422 483.761 424.239 486 427 486Z" fill="white"/>
  <path d="M613.404 331.912C616.166 331.912 618.404 329.673 618.404 326.912C618.404 324.15 616.166 321.912 613.404 321.912C610.643 321.912 608.404 324.15 608.404 326.912C608.404 329.673 610.643 331.912 613.404 331.912Z" fill="white"/>
  <path d="M526.514 319.675C528.04 319.675 529.277 318.438 529.277 316.912C529.277 315.385 528.04 314.148 526.514 314.148C524.987 314.148 523.75 315.385 523.75 316.912C523.75 318.438 524.987 319.675 526.514 319.675Z" fill="white"/>
  <path d="M567.807 355.357C569.333 355.357 570.57 354.12 570.57 352.593C570.57 351.067 569.333 349.83 567.807 349.83C566.28 349.83 565.043 351.067 565.043 352.593C565.043 354.12 566.28 355.357 567.807 355.357Z" fill="#FEC931"/>
  <path d="M267 302C269.761 302 272 299.761 272 297C272 294.239 269.761 292 267 292C264.239 292 262 294.239 262 297C262 299.761 264.239 302 267 302Z" fill="white"/>
  <path d="M299.422 319.148C302.183 319.148 304.422 316.91 304.422 314.148C304.422 311.387 302.183 309.148 299.422 309.148C296.66 309.148 294.422 311.387 294.422 314.148C294.422 316.91 296.66 319.148 299.422 319.148Z" fill="#EE888E"/>
  <path d="M269.016 400.199C271.777 400.199 274.016 397.961 274.016 395.199C274.016 392.438 271.777 390.199 269.016 390.199C266.254 390.199 264.016 392.438 264.016 395.199C264.016 397.961 266.254 400.199 269.016 400.199Z" fill="white"/>
  <path d="M21.7471 540.049C24.5085 540.049 26.7471 537.81 26.7471 535.049C26.7471 532.287 24.5085 530.049 21.7471 530.049C18.9856 530.049 16.7471 532.287 16.7471 535.049C16.7471 537.81 18.9856 540.049 21.7471 540.049Z" fill="white"/>
  <path d="M625.565 712.046C627.664 722.766 623.531 732.11 615.629 735.898C607.073 740 596.974 737.574 589.93 729.585C585.126 724.045 581.061 717.905 577.835 711.32C572.494 700.601 567.977 689.491 564.323 678.085C563.495 675.554 562.894 672.955 562.525 670.318C561.177 660.275 568.847 653.558 578.637 656.243C580.9 656.803 583.039 657.781 584.942 659.127C602.421 672.429 616.906 688.151 624.662 709.176C625.121 710.42 625.46 711.707 625.565 712.046Z" fill="#FEC931"/>
  <path d="M388.183 694.786C379.03 695.361 369.43 686.05 370.693 671.758C372.586 650.33 383.252 632.348 394.899 615.045C399.987 607.485 406.339 605.636 411.926 608.085C417.444 610.503 419.793 616.697 418.134 625.898C415.01 643.214 413.036 660.766 407.805 677.661C406.823 681.02 405.326 684.206 403.368 687.107C399.758 692.309 394.891 694.898 388.183 694.786Z" fill="#EE888E"/>
  <path d="M876.003 371.673C887.256 383.638 879.515 399.799 865.032 402.181C861.928 402.745 858.785 403.067 855.631 403.144C843.324 403.226 831.043 402.016 818.988 399.532C812.916 398.284 807.54 395.382 806.254 388.472C804.946 381.445 808.857 376.805 814.104 372.974C820.029 368.646 827.014 366.979 833.909 365.115C848.825 361.612 863.199 361.622 876.003 371.673Z" fill="#FEC931"/>
  <path d="M493.21 601.001C493.784 600.462 494.428 600.002 495.124 599.633C501.006 596.504 505.906 598.535 510.199 603.122C517.858 611.306 521.449 621.842 526.139 631.722C530.297 640.479 533.806 649.431 533.468 659.388C533.434 660.385 533.481 661.388 533.392 662.379C532.757 669.458 528.7 675.394 523.609 676.74C518.068 678.205 512.71 675.519 508.195 669.037C505.549 665.396 503.457 661.383 501.987 657.13C497.401 642.899 493.591 628.444 490.387 613.839C489.419 609.43 489.901 604.114 493.21 601.001Z" fill="white"/>
  <path d="M350.571 535.564C346.769 537.531 341.555 536.356 338.451 533.548C334.808 530.252 334.603 525.114 336.204 520.741C339.201 512.551 344.624 505.902 351.173 500.311C355.892 496.283 362.514 499.008 362.598 505.155C362.73 514.793 360.17 530.231 350.782 535.451C350.712 535.49 350.642 535.528 350.571 535.564Z" fill="white"/>
  <path d="M323.938 220.257C325.923 223.922 327.136 227.956 327.502 232.108C327.843 236.572 326.544 240.478 322.382 242.645C318.41 244.712 314.555 243.741 311.295 240.886C304.018 234.515 295.78 229.506 287.866 224.028C282.578 220.547 278.034 216.05 274.497 210.798C270.564 204.701 270.178 197.899 273.728 193.048C277.917 187.324 283.743 186.35 290.203 187.829C298.618 189.755 305.271 194.614 310.941 200.889C316.15 206.711 320.524 213.229 323.938 220.257Z" fill="#FEC931"/>
  <path d="M543.452 204.999C552.28 203.734 559.35 210.094 558.524 219.054C557.632 228.732 552.44 236.635 546.281 243.654C541.243 249.396 535.91 254.863 531.347 261.025C528.712 264.582 525.187 266.916 520.584 265.409C516.056 263.928 513.981 259.968 514.193 255.639C514.998 239.214 518.579 223.676 530.813 211.513C534.18 207.99 538.629 205.696 543.452 204.999Z" fill="#FEC931"/>
  <path d="M420.968 145.035C420.62 138.435 419.437 131.783 421.785 125.305C424.433 117.996 429.337 114.392 436.67 114.245C439.869 114.18 443.003 115.153 445.602 117.02C448.201 118.886 450.125 121.544 451.087 124.596C455.455 139.457 453.88 154.034 445.169 166.963C439.59 175.244 428.977 173.573 424.742 164.497C424.12 163.138 423.616 161.728 423.236 160.283C421.898 155.304 421.138 150.188 420.968 145.035Z" fill="#EE888E"/>
  <path d="M664.465 609.254C661.666 605.013 660.128 599.975 658.127 594.394C656.421 589.637 656.081 584.757 660.381 581.07C664.917 577.182 669.768 578.618 674.276 581.259C681.266 585.354 688.725 588.83 693.841 595.543C699.021 602.34 699.912 609.744 696.039 614.862C690.591 622.06 680.638 620.999 673.458 617.262C669.807 615.432 666.705 612.669 664.465 609.254Z" fill="#FEC931"/>
  <path d="M291.822 540.587C284.529 543.766 277.972 542.526 274.581 538.377C272.727 536.185 271.687 533.418 271.639 530.547C271.591 527.676 272.538 524.877 274.318 522.624C281.305 513.758 291.247 509.944 302.072 508.993C303.339 508.869 304.617 509.078 305.779 509.599C306.941 510.119 307.948 510.933 308.7 511.961C309.452 512.989 309.923 514.194 310.068 515.459C310.212 516.724 310.025 518.005 309.524 519.176C305.421 528.474 298.354 535.469 291.822 540.587Z" fill="#EE888E"/>
  <path d="M491.19 723.571C491.252 718.254 491.795 712.953 492.812 707.734C493.019 706.313 493.656 704.991 494.639 703.944C495.621 702.898 496.901 702.179 498.306 701.883C501.503 701.26 504.162 702.643 505.951 705.411C508.928 710.018 511.684 714.781 513.23 720.058C515.236 726.909 510.885 734.128 504.26 735.42C498.346 736.573 492.174 731.376 491.19 723.571Z" fill="#EE888E"/>
  <path d="M383.912 575.712C386.733 571.224 390.129 565.539 393.837 560.066C395.32 557.878 397.54 555.876 400.564 557.109C403.618 558.355 403.556 561.33 403.245 563.955C402.506 570.201 401.791 576.473 400.533 582.625C399.294 588.687 393.884 591.973 388.768 590.377C383.319 588.676 380.995 582.855 383.912 575.712Z" fill="#FEC931"/>
  <path d="M231.179 479.158C234.529 478.912 238.105 478.447 239.767 482.32C241.395 486.114 239.328 488.976 236.752 491.571C233.059 495.294 228.847 498.159 223.648 499.241C218.133 500.388 212.61 497.321 211.308 492.558C209.961 487.635 213.128 482.735 218.908 480.974C222.897 479.759 227.053 479.529 231.179 479.158Z" fill="#0CD0CD"/>
  <path d="M284.591 605.964C288.91 604.177 293.432 602.002 297.318 606.394C301.125 610.696 299.643 615.379 297.373 619.933C294.118 626.464 289.803 632.088 283.405 635.787C276.619 639.71 267.984 638.067 264.184 632.342C260.256 626.425 262.302 618.569 269.17 613.72C273.91 610.372 279.302 608.255 284.591 605.964Z" fill="#FEC931"/>
  <path d="M359.756 643.58C360.471 645.27 361.61 646.748 363.062 647.871C364.515 648.993 366.232 649.722 368.048 649.986C372.318 650.544 375.853 648.521 378.277 645.01C381.046 640.979 382.172 636.044 381.426 631.212C380.527 624.574 374.438 621.812 368.803 625.343C364.546 628.011 360.216 632.534 359.133 637.696C358.73 639.674 358.947 641.729 359.756 643.58Z" fill="#EE888E"/>
  <path d="M286.564 573.65C290.452 570.696 304.489 555.097 301.535 551.209C298.581 547.321 279.754 556.617 275.866 559.571C271.978 562.525 270.618 569.033 273.572 572.92C276.526 576.808 282.676 576.604 286.564 573.65Z" fill="#FF808B"/>
  <path d="M236.311 452.842C241.168 452.345 262.076 454.151 262.573 459.009C263.071 463.866 242.97 469.935 238.113 470.432C233.256 470.93 227.818 467.106 227.32 462.248C226.822 457.391 231.454 453.34 236.311 452.842Z" fill="white"/>
  <path d="M250.247 341.725C256.055 344.809 283.057 353.159 286.142 347.351C289.226 341.543 267.224 323.776 261.416 320.692C255.608 317.607 246.883 319.621 243.799 325.429C240.715 331.237 244.439 338.64 250.247 341.725Z" fill="white"/>
  <path d="M192.518 263.047C204.72 269.526 218.248 267.535 230.778 273.956C236.725 277.003 246.611 281.872 252.281 274.658C265.647 257.654 223.313 229.906 213.02 224.439C202.358 218.777 186.344 222.473 180.682 233.134C175.021 243.795 181.856 257.385 192.518 263.047Z" fill="white"/>
  <path d="M75.4915 552.441C75.9549 552.394 76.4143 552.334 76.8699 552.261C80.4912 551.703 83.9706 550.451 87.1169 548.573C91.1943 546.081 92.2554 542.462 95.0028 538.739C97.0953 535.904 100.436 534.016 102.716 531.311C113.029 519.075 89.5879 520.574 83.3829 522.306C74.9357 524.663 57.7349 532.849 60.0561 543.749C61.6264 551.122 68.8789 553.115 75.4915 552.441Z" fill="white"/>
  <path d="M240.53 319.657C243.601 322.477 246.061 325.896 247.759 329.703C249.534 333.813 249.578 337.929 246.348 341.332C243.265 344.581 239.304 344.917 235.292 343.279C226.337 339.624 216.918 337.569 207.652 334.967C201.518 333.397 195.757 330.624 190.704 326.81C185 322.326 182.421 316.019 184.198 310.277C186.295 303.501 191.487 300.684 198.077 299.979C206.66 299.06 214.533 301.489 221.937 305.576C228.757 309.385 235.015 314.124 240.53 319.657Z" fill="#FEC931"/>
  <path d="M224.336 593.405C225.323 602.269 233.25 607.52 241.718 604.477C250.864 601.189 257.214 594.183 262.468 586.462C266.764 580.146 270.721 573.615 275.544 567.653C278.327 564.212 279.704 560.214 277.093 556.135C274.525 552.123 270.172 551.106 266.033 552.396C250.333 557.288 236.187 564.647 227.476 579.538C224.909 583.679 223.803 588.562 224.336 593.405Z" fill="#FEC931"/>
  <path d="M142.565 476.152C135.963 476.468 129.226 475.958 123.016 478.943C116.009 482.311 112.915 487.552 113.504 494.862C113.76 498.052 115.043 501.072 117.161 503.471C119.278 505.87 122.116 507.518 125.249 508.169C140.474 511.025 154.819 507.996 166.809 498.032C174.489 491.651 171.762 481.259 162.307 477.955C160.893 477.472 159.439 477.113 157.963 476.879C152.875 476.048 147.709 475.804 142.565 476.152Z" fill="#EE888E"/>
  <path d="M155.891 278.207C147.02 277.783 137.968 278.468 129.623 274.457C120.209 269.932 116.051 262.89 116.843 253.067C117.499 244.923 123.534 236.893 132.623 235.188C153.081 231.351 172.355 235.42 188.467 248.808C198.785 257.382 195.122 271.346 182.418 275.785C180.517 276.433 178.564 276.917 176.581 277.23C169.744 278.348 162.802 278.675 155.891 278.207Z" fill="#EE888E"/>
  <path d="M240.787 369.169C236.334 369.118 233.839 371.883 232.372 375.331C230.686 379.293 231.683 383.242 234.412 386.522C237.549 390.273 241.999 392.686 246.854 393.268C253.489 394.188 257.788 389.066 255.903 382.689C254.852 378.638 252.733 374.943 249.765 371.992C247.234 369.61 244.231 368.323 240.787 369.169Z" fill="#EE888E"/>
  <path d="M443.86 715.75C443.834 708.455 445.55 701.259 448.867 694.76C449.219 693.986 449.806 693.343 450.545 692.923C451.284 692.502 452.137 692.325 452.983 692.417C455.134 692.699 455.469 694.579 455.508 696.193C455.658 702.319 455.93 708.47 455.528 714.57C455.304 717.968 453.397 721.161 449.365 721.225C446.122 721.276 444.188 719.204 443.86 715.75Z" fill="white"/>
  <path d="M395.534 342.061C398.296 342.061 400.534 339.822 400.534 337.061C400.534 334.299 398.296 332.061 395.534 332.061C392.773 332.061 390.534 334.299 390.534 337.061C390.534 339.822 392.773 342.061 395.534 342.061Z" fill="white"/>
  <path d="M403.387 67.0515C406.148 67.0515 408.387 64.8129 408.387 62.0515C408.387 59.2901 406.148 57.0515 403.387 57.0515C400.625 57.0515 398.387 59.2901 398.387 62.0515C398.387 64.8129 400.625 67.0515 403.387 67.0515Z" fill="white"/>
  <path d="M489.337 305.641C492.098 305.641 494.337 303.402 494.337 300.641C494.337 297.879 492.098 295.641 489.337 295.641C486.575 295.641 484.337 297.879 484.337 300.641C484.337 303.402 486.575 305.641 489.337 305.641Z" fill="white"/>
  <path d="M588.972 695.955C591.733 695.955 593.972 693.716 593.972 690.955C593.972 688.193 591.733 685.955 588.972 685.955C586.21 685.955 583.972 688.193 583.972 690.955C583.972 693.716 586.21 695.955 588.972 695.955Z" fill="#0CD0CD"/>
  <path d="M424.188 220.034C426.949 220.034 429.188 217.796 429.188 215.034C429.188 212.273 426.949 210.034 424.188 210.034C421.426 210.034 419.188 212.273 419.188 215.034C419.188 217.796 421.426 220.034 424.188 220.034Z" fill="white"/>
  <path d="M304.991 169.887C304.111 158.999 309.267 150.179 317.545 147.302C326.507 144.187 336.27 147.733 342.371 156.463C346.522 162.507 349.872 169.065 352.337 175.971C356.441 187.222 359.681 198.77 362.029 210.514C362.568 213.121 362.874 215.772 362.943 218.434C363.154 228.565 354.778 234.378 345.352 230.609C343.166 229.799 341.151 228.587 339.411 227.035C323.537 211.853 310.911 194.603 305.566 172.84C305.25 171.553 305.058 170.235 304.991 169.887Z" fill="#FEC931"/>
  <path d="M653.623 521.231C649.852 519.455 645.756 518.471 641.59 518.339C637.114 518.25 633.287 519.766 631.358 524.044C629.517 528.127 630.705 531.92 633.738 535.015C640.509 541.921 645.974 549.864 651.888 557.457C655.662 562.541 660.408 566.825 665.851 570.06C672.159 573.643 678.972 573.646 683.616 569.828C689.095 565.324 689.739 559.453 687.899 553.085C685.503 544.793 680.276 538.424 673.692 533.116C667.586 528.243 660.831 524.243 653.623 521.231Z" fill="white"/>
  <path d="M568.965 551.388C567.534 546.938 565.733 542.255 570.426 538.738C575.023 535.292 579.57 537.15 583.925 539.781C590.171 543.555 595.426 548.312 598.593 554.989C601.953 562.071 599.615 570.545 593.601 573.868C587.385 577.302 579.721 574.626 575.444 567.387C572.492 562.391 570.819 556.845 568.965 551.388Z" fill="#0CD0CD"/>
  <path d="M718.243 537.854C727.55 539.032 737.628 536.647 741.743 527.304C754.442 498.469 702.351 484.029 683.879 478.425C679.582 477.121 675.116 475.839 670.666 476.434C664.217 477.296 660.299 482.868 660.626 489.191C661.08 497.944 668.235 500.321 674.199 505.031C680.269 509.751 685.916 514.989 691.079 520.686C698.003 528.443 705.987 535.851 716.853 537.651C717.314 537.728 717.777 537.795 718.243 537.854Z" fill="white"/>
  <path d="M455.174 272.578C456.117 275.839 457.803 278.8 460.836 280.065C464.369 281.537 468.581 280.014 471.335 277.356C474.088 274.697 475.698 271.101 477.243 267.599C482.386 255.943 486.267 242.963 493.384 232.416C496.641 227.59 500.242 222.155 498.169 215.985C495.977 209.461 488.103 207 481.966 206.117C478.544 205.505 475.017 206.041 471.931 207.64C463.458 212.472 458.864 222.557 456.954 231.73C455.859 236.991 455.409 242.594 454.584 247.972C453.551 254.704 453.462 261.548 454.319 268.305C454.494 269.749 454.78 271.178 455.174 272.578Z" fill="white"/>
  <path d="M440.044 726.475C439.38 721.199 438.241 715.994 436.64 710.923C436.274 709.536 435.49 708.294 434.396 707.365C433.301 706.437 431.948 705.867 430.519 705.733C427.272 705.475 424.786 707.15 423.322 710.103C420.886 715.018 418.687 720.061 417.749 725.48C416.531 732.513 421.671 739.194 428.399 739.728C434.406 740.204 439.95 734.341 440.044 726.475Z" fill="#EE888E"/>
  <path d="M427.224 252.319C427.716 257.597 428.481 264.174 428.869 270.775C429.024 273.413 428.48 276.353 425.33 277.214C422.149 278.083 420.387 275.685 419.036 273.413C415.823 268.007 412.573 262.595 409.827 256.947C407.122 251.383 409.415 245.484 414.446 243.637C419.805 241.671 425.191 244.876 427.224 252.319Z" fill="#FEC931"/>
  <path d="M818.422 298.169C813.122 298.264 806.505 298.536 799.895 298.428C797.253 298.386 794.361 297.623 793.738 294.417C793.109 291.18 795.633 289.603 798 288.426C803.631 285.626 809.271 282.79 815.108 280.475C820.859 278.193 826.57 280.922 828.035 286.077C829.595 291.568 825.996 296.699 818.422 298.169Z" fill="#FEC931"/>
  <path d="M485.962 186.623C485.168 193.875 482.653 200.832 478.628 206.917C478.191 207.646 477.535 208.219 476.754 208.554C475.972 208.889 475.105 208.969 474.275 208.783C472.169 208.261 472.048 206.356 472.19 204.747C472.729 198.643 473.149 192.501 474.235 186.484C474.839 183.133 477.093 180.175 481.106 180.564C484.335 180.877 486.024 183.153 485.962 186.623Z" fill="#EE888E"/>
  <path d="M278.793 218.291C280.899 218.291 282.607 216.584 282.607 214.477C282.607 212.37 280.899 210.663 278.793 210.663C276.686 210.663 274.979 212.37 274.979 214.477C274.979 216.584 276.686 218.291 278.793 218.291Z" fill="white"/>
  <path d="M286.564 137.643C288.671 137.643 290.379 135.935 290.379 133.828C290.379 131.722 288.671 130.014 286.564 130.014C284.458 130.014 282.75 131.722 282.75 133.828C282.75 135.935 284.458 137.643 286.564 137.643Z" fill="white"/>
  <path d="M212.288 122.588C204.4 119.901 196.912 122.065 193.237 127.65C189.258 133.696 190.054 141.58 195.37 147.724C199.065 151.925 203.288 155.628 207.935 158.743C215.489 163.882 223.424 168.437 231.671 172.37C233.499 173.256 235.402 173.978 237.357 174.527C244.811 176.577 250.676 171.469 249.652 163.793C249.461 162.025 248.941 160.308 248.119 158.73C239.859 144.152 229.461 131.588 214.364 123.566C213.472 123.091 212.533 122.703 212.288 122.588Z" fill="white"/>
  <path d="M331.997 198.917C327.332 196.193 320.685 197.348 316.592 200.698C311.789 204.63 311.2 211.105 312.936 216.73C316.187 227.262 322.594 236.002 330.488 243.476C336.176 248.862 344.697 245.839 345.198 238.082C345.984 225.917 343.751 206.259 332.256 199.073C332.17 199.02 332.084 198.968 331.997 198.917Z" fill="white"/>
  <path d="M302.669 139.917C304.991 143.27 308.039 145.78 311.31 148.745C314.167 151.334 317.509 152.995 321.361 151.038C325.424 148.972 325.825 145.134 325.276 141.186C324.426 135.065 324.149 128.793 320.907 123.23C317.624 117.597 312.663 114.812 307.926 116.052C306.316 116.493 304.831 117.304 303.589 118.419C302.348 119.534 301.383 120.924 300.772 122.477C299.311 125.953 299.681 129.417 299.788 133.092C299.789 133.45 299.817 133.807 299.872 134.16C299.959 134.58 300.087 134.99 300.254 135.385C300.879 136.985 301.689 138.506 302.669 139.917Z" fill="white"/>
  <path d="M154.513 184.764C158.487 185.575 162.527 186.026 166.582 186.11C167.675 186.185 168.764 185.923 169.703 185.359C170.641 184.796 171.384 183.957 171.831 182.958C172.294 181.9 172.409 180.722 172.157 179.595C171.906 178.467 171.303 177.449 170.434 176.688C167.579 173.634 164.296 171.01 160.688 168.898C159.573 168.287 158.344 167.911 157.078 167.793C155.812 167.675 154.536 167.818 153.327 168.212C152.118 168.606 151.003 169.244 150.05 170.086C149.097 170.928 148.327 171.956 147.787 173.107C145.973 177.33 148.852 182.771 154.513 184.764Z" fill="white"/>
  <path d="M148.779 209.096C154.077 210.8 158.891 213.745 162.822 217.686C163.3 218.124 163.627 218.702 163.758 219.338C163.889 219.973 163.815 220.633 163.549 221.225C162.836 222.719 161.394 222.518 160.214 222.165C155.735 220.826 151.209 219.571 146.879 217.838C144.467 216.873 142.601 214.736 143.507 211.796C144.236 209.431 146.196 208.518 148.779 209.096Z" fill="white"/>
  <path d="M674.759 231.213C663.182 231.618 652.542 236.984 643.446 243.834C636.176 249.309 622.088 257.775 623.503 268.643C624.168 273.742 628.568 279.343 633.875 279.892C638.298 280.35 642.717 278.139 646.937 277.089C658.912 274.111 670.272 273.276 682.371 271.81C694.655 270.321 704.127 261.121 702.064 248.199C700.003 235.288 686.639 230.797 674.759 231.213Z" fill="#0CD0CD"/>
  <path d="M387.824 176.455C396.284 184.368 400.779 195.404 403.135 206.545C405.017 215.448 410.074 231.087 401.866 238.35C398.015 241.757 391.017 243.088 386.656 240.015C383.021 237.454 381.143 232.883 378.651 229.319C371.582 219.206 363.566 211.112 355.41 202.057C347.127 192.862 346.033 179.704 356.079 171.318C366.116 162.94 379.141 168.335 387.824 176.455Z" fill="#0CD0CD"/>
  <path d="M565.438 302.112C560.747 306.721 544.647 329.951 549.256 334.642C553.865 339.334 577.436 323.71 582.127 319.101C586.819 314.493 587.528 305.567 582.92 300.876C578.311 296.184 570.13 297.504 565.438 302.112Z" fill="white"/>
  <path d="M653.597 320.034C647.246 320.094 641.339 322.886 636.257 326.513C632.196 329.412 624.355 333.854 624.978 339.831C625.271 342.636 627.604 345.767 630.505 346.143C632.923 346.456 635.376 345.306 637.704 344.79C644.31 343.325 650.548 343.027 657.2 342.393C663.955 341.75 669.275 336.84 668.326 329.728C667.377 322.622 660.115 319.973 653.597 320.034Z" fill="#0CD0CD"/>
  <path d="M516.095 329.358C518.856 329.358 521.095 327.119 521.095 324.358C521.095 321.596 518.856 319.358 516.095 319.358C513.333 319.358 511.095 321.596 511.095 324.358C511.095 327.119 513.333 329.358 516.095 329.358Z" fill="#0CD0CD"/>
  <path d="M799.82 195.526C802.582 195.526 804.82 193.287 804.82 190.526C804.82 187.764 802.582 185.526 799.82 185.526C797.059 185.526 794.82 187.764 794.82 190.526C794.82 193.287 797.059 195.526 799.82 195.526Z" fill="white"/>
  <path d="M352.998 148.287C355.759 148.287 357.998 146.048 357.998 143.287C357.998 140.525 355.759 138.287 352.998 138.287C350.237 138.287 347.998 140.525 347.998 143.287C347.998 146.048 350.237 148.287 352.998 148.287Z" fill="#EE888E"/>
  <path d="M785.172 367.87C787.933 367.87 790.172 365.632 790.172 362.87C790.172 360.109 787.933 357.87 785.172 357.87C782.41 357.87 780.172 360.109 780.172 362.87C780.172 365.632 782.41 367.87 785.172 367.87Z" fill="white"/>
  <path d="M844.299 327.809C847.06 327.809 849.299 325.57 849.299 322.809C849.299 320.047 847.06 317.809 844.299 317.809C841.537 317.809 839.299 320.047 839.299 322.809C839.299 325.57 841.537 327.809 844.299 327.809Z" fill="#0CD0CD"/>
  <path d="M706.045 490.595C708.806 490.595 711.045 488.356 711.045 485.595C711.045 482.833 708.806 480.595 706.045 480.595C703.283 480.595 701.045 482.833 701.045 485.595C701.045 488.356 703.283 490.595 706.045 490.595Z" fill="#0CD0CD"/>
  <path d="M466.749 485.966C465.464 488.41 466.404 491.433 468.848 492.718C471.293 494.003 474.316 493.063 475.6 490.618C476.885 488.174 475.945 485.151 473.501 483.866C471.057 482.581 468.033 483.521 466.749 485.966Z" fill="#0CD0CD"/>
  <path d="M270.553 413.292C268.209 414.751 267.49 417.834 268.949 420.179C270.408 422.524 273.491 423.242 275.836 421.783C278.18 420.325 278.899 417.241 277.44 414.897C275.981 412.552 272.898 411.833 270.553 413.292Z" fill="#0CD0CD"/>
  <path d="M500.16 276.979C502.922 276.979 505.16 274.74 505.16 271.979C505.16 269.218 502.922 266.979 500.16 266.979C497.399 266.979 495.16 269.218 495.16 271.979C495.16 274.74 497.399 276.979 500.16 276.979Z" fill="white"/>
  <path d="M800.175 271.978C802.936 271.978 805.175 269.739 805.175 266.978C805.175 264.217 802.936 261.978 800.175 261.978C797.413 261.978 795.175 264.217 795.175 266.978C795.175 269.739 797.413 271.978 800.175 271.978Z" fill="#EE888E"/>
  <path d="M599 51C601.761 51 604 48.7614 604 46C604 43.2386 601.761 41 599 41C596.239 41 594 43.2386 594 46C594 48.7614 596.239 51 599 51Z" fill="#EE888E"/>
  <path d="M583.945 252.007C581.253 255.19 579.242 258.891 578.035 262.881C576.79 267.181 577.263 271.27 580.896 274.241C584.362 277.077 588.333 276.913 592.108 274.784C600.533 270.033 609.62 266.812 618.486 263.067C624.374 260.739 629.741 257.264 634.276 252.846C639.371 247.681 641.138 241.101 638.653 235.627C635.722 229.168 630.218 227.025 623.591 227.153C614.961 227.32 607.456 230.718 600.623 235.703C594.335 240.338 588.722 245.825 583.945 252.007Z" fill="#FEC931"/>
  <path d="M607.103 311.339C602.51 312.202 597.638 313.404 594.735 308.309C591.891 303.317 594.302 299.037 597.458 295.045C601.983 289.321 607.36 284.701 614.38 282.394C621.826 279.946 629.941 283.324 632.486 289.706C635.117 296.303 631.504 303.573 623.787 306.911C618.461 309.215 612.75 310.182 607.103 311.339Z" fill="#FEC931"/>
  <path d="M541.64 280.202C541.287 278.4 540.476 276.72 539.284 275.324C538.093 273.928 536.561 272.862 534.838 272.231C530.773 270.809 526.899 272.065 523.806 275.004C520.269 278.381 518.155 282.98 517.894 287.863C517.413 294.544 522.806 298.496 529.045 296.196C533.759 294.458 538.925 290.918 541.043 286.088C541.844 284.234 542.052 282.179 541.64 280.202Z" fill="#EE888E"/>
  <path d="M437.997 651.63C438.93 646.837 439.017 625.852 434.225 624.919C429.432 623.985 421.575 643.456 420.641 648.249C419.707 653.041 423.025 658.802 427.818 659.736C432.611 660.67 437.063 656.423 437.997 651.63Z" fill="#FFC930"/>
  <path d="M230.316 611.718C233.442 606.189 238.744 602.371 244.377 599.679C248.88 597.528 256.562 592.817 261.491 596.255C263.803 597.868 265.414 601.426 264.339 604.146C263.442 606.414 261.249 608.004 259.67 609.791C255.192 614.863 251.912 620.177 248.138 625.692C244.306 631.291 237.434 633.571 231.67 629.298C225.911 625.029 227.107 617.391 230.316 611.718Z" fill="#0CD0CD"/>
  <path d="M295.617 616.404C297.166 611.994 299.091 607.361 294.494 603.72C289.99 600.153 285.395 601.889 280.971 604.404C274.628 608.01 269.248 612.626 265.904 619.216C262.357 626.206 264.469 634.739 270.392 638.22C276.514 641.819 284.247 639.348 288.715 632.226C291.799 627.31 293.619 621.811 295.617 616.404Z" fill="#FEC931"/>
  <path d="M359.756 643.58C360.471 645.27 361.61 646.748 363.062 647.871C364.515 648.993 366.232 649.722 368.048 649.986C372.318 650.544 375.853 648.521 378.277 645.01C381.046 640.979 382.172 636.044 381.426 631.212C380.527 624.574 374.438 621.812 368.803 625.343C364.546 628.011 360.216 632.534 359.133 637.696C358.73 639.674 358.947 641.729 359.756 643.58Z" fill="white"/>
  <path d="M588.972 695.955C591.733 695.955 593.972 693.716 593.972 690.955C593.972 688.193 591.733 685.955 588.972 685.955C586.21 685.955 583.972 688.193 583.972 690.955C583.972 693.716 586.21 695.955 588.972 695.955Z" fill="#0CD0CD"/>
  <path d="M440.044 726.475C439.38 721.199 438.241 715.994 436.64 710.923C436.274 709.536 435.49 708.294 434.396 707.365C433.301 706.437 431.948 705.867 430.519 705.733C427.272 705.475 424.786 707.15 423.322 710.103C420.886 715.018 418.687 720.061 417.749 725.48C416.531 732.513 421.671 739.194 428.399 739.728C434.406 740.204 439.95 734.341 440.044 726.475Z" fill="#EE888E"/>
  <path d="M276.454 646.855C276.35 646.351 276.148 645.872 275.86 645.445C271.655 639.233 259.333 648.811 255.74 651.879C247.626 658.81 239.884 667.282 236.36 677.546C236.112 678.266 235.807 678.968 235.601 679.699C234.128 684.916 235.404 690.251 238.667 692.596C243.167 695.83 248.482 694.212 252.701 691.356C257.364 688.2 258.41 684.772 260.698 679.7C263.572 673.327 266.699 667.077 270.079 660.948C271.789 657.847 277.385 651.233 276.454 646.855Z" fill="white"/>
  <path d="M582.063 582.947C577.979 577.792 556.59 559.316 551.436 563.4C546.281 567.484 559.313 592.582 563.397 597.736C567.481 602.891 576.281 604.545 581.435 600.461C586.59 596.377 586.147 588.101 582.063 582.947Z" fill="white"/>
  <path d="M600.735 608.066C598.098 604.207 595.039 600.23 598.537 595.523C601.964 590.912 606.853 591.399 611.776 592.684C618.837 594.526 625.229 597.592 630.164 603.091C635.399 608.925 635.568 617.714 630.748 622.61C625.765 627.671 617.656 627.285 611.497 621.562C607.246 617.611 604.065 612.771 600.735 608.066Z" fill="#FEC931"/>
  <path d="M541.784 619.721C541.432 621.522 540.623 623.203 539.432 624.6C538.242 625.997 536.711 627.064 534.988 627.697C530.925 629.122 527.05 627.87 523.954 624.933C520.415 621.559 518.297 616.962 518.032 612.08C517.545 605.399 522.934 601.442 529.176 603.737C533.891 605.471 539.059 609.006 541.182 613.834C541.984 615.688 542.194 617.743 541.784 619.721Z" fill="#EE888E"/>
  <path d="M796.801 139.093C791.225 142.581 764.881 152.818 761.393 147.243C757.906 141.667 778.597 122.39 784.172 118.902C789.748 115.415 798.593 116.807 802.08 122.382C805.567 127.958 802.376 135.606 796.801 139.093Z" fill="white"/>
  <path d="M703.855 320.737C690.587 324.587 677.751 319.875 664.174 323.602C657.729 325.37 647.058 328.117 642.98 319.897C633.368 300.522 680.478 282.005 691.671 278.755C703.264 275.391 718.186 282.279 721.551 293.872C724.916 305.465 715.448 317.372 703.855 320.737Z" fill="white"/>
  <path d="M694.581 348.252C690.999 350.385 687.893 353.229 685.453 356.61C682.876 360.27 681.992 364.29 684.459 368.282C686.813 372.091 690.622 373.229 694.884 372.446C704.396 370.696 714.037 370.609 723.639 369.954C729.964 369.669 736.17 368.132 741.896 365.43C748.395 362.205 752.208 356.559 751.641 350.574C750.972 343.513 746.466 339.695 740.159 337.659C731.944 335.007 723.741 335.776 715.658 338.265C708.203 340.601 701.11 343.962 694.581 348.252Z" fill="#FEC931"/>
  <path d="M741.886 343.545C750.724 342.676 759.8 342.906 767.933 338.481C777.108 333.489 780.907 326.248 779.623 316.477C778.559 308.376 772.129 300.659 762.965 299.412C742.341 296.606 723.295 301.638 707.875 315.818C698 324.899 702.36 338.662 715.271 342.457C717.202 343.009 719.177 343.394 721.173 343.608C728.057 344.38 735.007 344.359 741.886 343.545Z" fill="#EE888E"/>
  <path d="M629.318 259.384C631.425 259.384 633.133 257.677 633.133 255.57C633.133 253.463 631.425 251.756 629.318 251.756C627.212 251.756 625.504 253.463 625.504 255.57C625.504 257.677 627.212 259.384 629.318 259.384Z" fill="white"/>
  <path d="M466.148 156.15C468.255 156.15 469.963 154.442 469.963 152.336C469.963 150.229 468.255 148.521 466.148 148.521C464.042 148.521 462.334 150.229 462.334 152.336C462.334 154.442 464.042 156.15 466.148 156.15Z" fill="#0CD0CD"/>
  <path d="M511.094 96.1299C513.2 96.1299 514.908 94.4222 514.908 92.3156C514.908 90.209 513.2 88.5012 511.094 88.5012C508.987 88.5012 507.279 90.209 507.279 92.3156C507.279 94.4222 508.987 96.1299 511.094 96.1299Z" fill="white"/>
  <path d="M713.188 179.201C721.459 178.182 728.347 181.83 730.804 188.047C733.464 194.779 731.075 202.333 724.616 207.263C720.141 210.62 715.25 213.383 710.065 215.483C701.621 218.97 692.923 221.809 684.047 223.975C682.077 224.469 680.066 224.787 678.039 224.925C670.324 225.41 665.626 219.211 668.197 211.907C668.745 210.214 669.604 208.64 670.731 207.263C681.795 194.679 694.539 184.503 710.956 179.734C711.927 179.452 712.925 179.263 713.188 179.201Z" fill="white"/>
  <path d="M681.056 260.305C680.579 260.113 680.143 259.829 679.774 259.47C674.408 254.229 686.02 243.803 689.677 240.812C697.938 234.056 707.649 227.94 718.376 226.293C719.128 226.177 719.873 226.001 720.629 225.928C726.025 225.404 731.048 227.607 732.777 231.234C735.161 236.237 732.626 241.18 729.067 244.825C725.133 248.854 721.574 249.276 716.177 250.627C709.395 252.325 702.689 254.293 696.058 256.531C692.702 257.664 685.2 261.998 681.056 260.305Z" fill="white"/>
  <path d="M580.413 229.472C585.537 227.758 591.808 230.246 595.13 234.362C599.029 239.192 598.283 245.651 595.435 250.802C590.101 260.448 582.044 267.695 572.791 273.4C566.123 277.511 558.398 272.811 559.492 265.114C561.207 253.046 567.408 234.258 580.129 229.572C580.223 229.537 580.318 229.504 580.413 229.472Z" fill="white"/>
  <path d="M621.174 177.705C618.216 180.513 614.72 182.348 610.911 184.582C607.586 186.533 603.975 187.477 600.605 184.774C597.049 181.922 597.44 178.083 598.783 174.33C600.866 168.512 602.418 162.429 606.728 157.645C611.093 152.802 616.518 151.088 620.902 153.27C622.387 154.03 623.675 155.127 624.663 156.472C625.651 157.818 626.311 159.375 626.592 161.021C627.313 164.721 626.243 168.037 625.388 171.613C625.313 171.963 625.213 172.306 625.087 172.641C624.916 173.034 624.707 173.409 624.463 173.762C623.525 175.201 622.421 176.524 621.174 177.705Z" fill="white"/>
  <path d="M757.047 251.866C752.991 251.849 748.944 251.465 744.957 250.719C743.872 250.569 742.86 250.09 742.056 249.347C741.252 248.603 740.696 247.631 740.463 246.561C740.225 245.431 740.354 244.254 740.83 243.202C741.306 242.15 742.105 241.277 743.111 240.709C746.53 238.303 750.279 236.404 754.243 235.073C755.459 234.703 756.738 234.586 758.002 234.729C759.265 234.872 760.486 235.273 761.588 235.905C762.691 236.538 763.652 237.39 764.413 238.409C765.174 239.428 765.718 240.591 766.012 241.828C766.925 246.333 762.996 251.071 757.047 251.866Z" fill="white"/>
  <path d="M714.08 128.094C710.288 129.535 706.373 130.63 702.384 131.365C701.318 131.615 700.201 131.531 699.183 131.126C698.166 130.72 697.298 130.012 696.696 129.098C696.069 128.128 695.767 126.984 695.833 125.831C695.9 124.678 696.332 123.576 697.067 122.685C699.394 119.212 702.212 116.094 705.433 113.429C706.435 112.646 707.587 112.078 708.818 111.758C710.048 111.438 711.331 111.373 712.587 111.568C713.844 111.762 715.047 112.212 716.123 112.89C717.199 113.568 718.125 114.458 718.843 115.507C721.313 119.384 719.346 125.217 714.08 128.094Z" fill="white"/>
  <path d="M757.69 276.856C752.156 277.443 746.841 279.342 742.189 282.397C741.632 282.728 741.193 283.227 740.935 283.823C740.678 284.418 740.614 285.079 740.754 285.713C741.147 287.321 742.6 287.418 743.827 287.314C748.485 286.919 753.172 286.615 757.765 285.803C760.323 285.35 762.586 283.639 762.299 280.576C762.069 278.112 760.337 276.818 757.69 276.856Z" fill="white"/>
  <path d="M317.164 613.035C315.497 615.868 313.05 617.964 309.467 617.492C307.77 617.269 304.565 616.436 304.565 614.1C303.254 610.413 304.998 607.695 307.418 605.21C309.037 603.547 310.624 601.843 312.35 600.297C314.257 598.589 316.47 597.052 319.034 598.73C321.48 600.331 320.469 602.819 320 605.063C319.475 607.852 318.518 610.541 317.164 613.035Z" fill="#EE888E"/>
  <path d="M761.125 415.495C763.886 415.495 766.125 413.257 766.125 410.495C766.125 407.734 763.886 405.495 761.125 405.495C758.364 405.495 756.125 407.734 756.125 410.495C756.125 413.257 758.364 415.495 761.125 415.495Z" fill="white"/>
  <path d="M687 405C689.761 405 692 402.761 692 400C692 397.239 689.761 395 687 395C684.239 395 682 397.239 682 400C682 402.761 684.239 405 687 405Z" fill="#EE888E"/>
  <path d="M551.377 508.93C550.092 511.374 551.032 514.397 553.476 515.682C555.921 516.967 558.944 516.027 560.229 513.582C561.513 511.138 560.573 508.115 558.129 506.83C555.684 505.545 552.661 506.486 551.377 508.93Z" fill="#EE888E"/>
  <path d="M331.939 475.911C329.594 477.369 328.876 480.453 330.335 482.797C331.793 485.142 334.877 485.86 337.221 484.402C339.566 482.943 340.284 479.86 338.826 477.515C337.367 475.17 334.284 474.452 331.939 475.911Z" fill="#EE888E"/>
  <path d="M652 377C654.761 377 657 374.761 657 372C657 369.239 654.761 367 652 367C649.239 367 647 369.239 647 372C647 374.761 649.239 377 652 377Z" fill="white"/>
  <path d="M592.445 490.976C591.16 493.421 592.1 496.444 594.545 497.729C596.989 499.013 600.012 498.073 601.297 495.629C602.582 493.185 601.642 490.162 599.197 488.877C596.753 487.592 593.73 488.532 592.445 490.976Z" fill="white"/>
  <path d="M376.447 481.198C374.102 482.657 373.384 485.74 374.842 488.085C376.301 490.429 379.384 491.148 381.729 489.689C384.074 488.23 384.792 485.147 383.333 482.802C381.875 480.458 378.792 479.739 376.447 481.198Z" fill="white"/>
  <path d="M724.499 440.859C732.203 442.848 736.604 447.864 736.718 453.222C736.828 456.091 735.942 458.911 734.211 461.202C732.48 463.492 730.01 465.114 727.22 465.792C716.254 468.471 706.073 465.349 696.961 459.429C695.887 458.745 695.009 457.793 694.414 456.668C693.82 455.542 693.528 454.28 693.569 453.008C693.61 451.735 693.981 450.495 694.647 449.409C695.313 448.324 696.249 447.43 697.365 446.816C706.325 442.02 716.202 440.866 724.499 440.859Z" fill="white"/>
  <path d="M647.553 488.836C644.763 486.966 641.661 485.129 642.737 481.054C643.792 477.063 647.184 476.083 650.812 475.625C656.014 474.968 661.097 475.306 665.859 477.658C670.91 480.152 673.369 485.97 671.461 490.524C669.488 495.231 663.975 497.139 658.338 494.966C654.447 493.465 651.031 491.085 647.553 488.836Z" fill="#FEC931"/>
  <path d="M748.579 417.686C743.699 417.852 723.23 422.479 723.397 427.359C723.563 432.239 744.301 435.524 749.181 435.358C754.061 435.192 758.93 430.665 758.763 425.785C758.597 420.905 753.459 417.52 748.579 417.686Z" fill="#FF808B"/>
  <path d="M712.221 546.678C708.67 543.326 690.984 532.031 687.632 535.581C684.28 539.132 696.532 556.183 700.083 559.535C703.633 562.887 710.276 563.164 713.627 559.614C716.979 556.063 715.771 550.029 712.221 546.678Z" fill="white"/>
  <path d="M789.9 502.091C783.99 499.206 756.719 491.781 753.834 497.691C750.95 503.601 773.543 520.608 779.453 523.492C785.363 526.377 794.014 524.068 796.899 518.158C799.784 512.248 795.81 504.976 789.9 502.091Z" fill="white"/>
  <path d="M809.25 427.854C814.987 434.684 813.32 444.045 805.275 448.076C796.586 452.429 787.133 452.194 777.919 450.671C770.383 449.425 762.924 447.784 755.282 447.163C750.87 446.805 747.026 445.043 745.875 440.34C744.742 435.712 747.008 431.859 750.796 429.753C765.169 421.762 780.255 416.596 797.045 420.562C801.814 421.56 806.111 424.128 809.25 427.854Z" fill="#FEC931"/>
  <path d="M802.364 583.571C807.758 587.39 812.751 591.943 819.482 593.418C827.075 595.082 832.741 592.86 836.781 586.739C838.545 584.069 839.395 580.9 839.205 577.706C839.016 574.511 837.796 571.465 835.729 569.022C825.497 557.392 812.332 550.94 796.748 551.4C786.768 551.695 782.513 561.56 787.925 569.988C788.741 571.239 789.664 572.418 790.683 573.511C794.179 577.301 798.098 580.676 802.364 583.571Z" fill="#EE888E"/>
  <path d="M64.5504 384.205C75.3796 380.093 87.2674 380.915 98.3073 383.705C107.131 385.934 123.399 388.278 126.306 398.846C127.67 403.803 125.784 410.672 121.105 413.235C117.205 415.372 112.275 415.046 107.977 415.714C95.7844 417.609 84.9886 421.243 73.2674 424.58C61.3657 427.969 49.0688 423.159 45.9621 410.447C42.8582 397.747 53.4371 388.426 64.5504 384.205Z" fill="#0CD0CD"/>
  <path d="M251.356 542.685C254.118 542.685 256.356 540.446 256.356 537.685C256.356 534.924 254.118 532.685 251.356 532.685C248.595 532.685 246.356 534.924 246.356 537.685C246.356 540.446 248.595 542.685 251.356 542.685Z" fill="white"/>
  <path d="M287.428 392.142C290.189 392.142 292.428 389.903 292.428 387.142C292.428 384.38 290.189 382.142 287.428 382.142C284.666 382.142 282.428 384.38 282.428 387.142C282.428 389.903 284.666 392.142 287.428 392.142Z" fill="white"/>
  <path d="M45.1182 373.632C47.8796 373.632 50.1182 371.393 50.1182 368.632C50.1182 365.87 47.8796 363.632 45.1182 363.632C42.3567 363.632 40.1182 365.87 40.1182 368.632C40.1182 371.393 42.3567 373.632 45.1182 373.632Z" fill="#EE888E"/>
  <path d="M237.423 482.457C233.547 488.385 234.62 497.163 238.736 502.743C243.566 509.291 252.004 510.49 259.483 508.589C273.486 505.029 285.352 497.219 295.659 487.379C303.086 480.289 299.691 468.933 289.568 467.764C273.695 465.931 247.811 467.554 237.644 482.129C237.569 482.237 237.495 482.346 237.423 482.457Z" fill="white"/>
  <path d="M199.959 545.566C204.187 542.335 207.941 538.526 211.111 534.252C214.013 530.115 215.631 525.498 212.458 520.806C209.111 515.857 204.053 515.96 199.007 517.315C191.183 519.417 183.071 520.799 176.363 525.92C169.57 531.107 166.754 538.012 169.137 543.972C175.173 559.063 189.295 553.838 199.959 545.566Z" fill="#FEC931"/>
  <path d="M193.652 421.657C196.414 421.657 198.652 419.418 198.652 416.657C198.652 413.895 196.414 411.657 193.652 411.657C190.891 411.657 188.652 413.895 188.652 416.657C188.652 419.418 190.891 421.657 193.652 421.657Z" fill="#0CD0CD"/>
  <path d="M160.38 334.67C163.141 334.67 165.38 332.432 165.38 329.67C165.38 326.909 163.141 324.67 160.38 324.67C157.618 324.67 155.38 326.909 155.38 329.67C155.38 332.432 157.618 334.67 160.38 334.67Z" fill="white"/>
  <path d="M187.677 368.634C179.721 368.517 174.151 372.192 172.625 377.329C171.761 380.067 171.87 383.02 172.934 385.687C173.998 388.354 175.952 390.571 178.464 391.962C188.331 397.444 198.975 397.124 209.328 393.823C210.545 393.447 211.643 392.761 212.514 391.832C213.385 390.904 213.999 389.764 214.296 388.526C214.593 387.288 214.563 385.993 214.208 384.77C213.853 383.548 213.186 382.438 212.272 381.552C204.898 374.558 195.678 370.834 187.677 368.634Z" fill="white"/>
  <path d="M249.207 435.242C252.393 434.176 255.87 433.224 255.909 429.01C255.946 424.882 252.934 423.04 249.557 421.639C244.713 419.631 239.721 418.614 234.507 419.623C228.977 420.694 225.067 425.655 225.704 430.552C226.362 435.613 231.175 438.91 237.186 438.304C241.336 437.885 245.258 436.492 249.207 435.242Z" fill="#FEC931"/>
  <path d="M170.579 339.921C175.241 341.371 193.759 351.243 192.309 355.906C190.859 360.568 169.99 358.256 165.328 356.806C160.665 355.356 157.166 349.703 158.616 345.041C160.066 340.378 165.916 338.471 170.579 339.921Z" fill="#FF808B"/>
  <path d="M171.552 473.936C175.862 471.641 195.904 465.422 198.198 469.733C200.493 474.043 184.17 487.25 179.86 489.544C175.55 491.838 169.07 490.35 166.776 486.04C164.482 481.73 167.241 476.23 171.552 473.936Z" fill="white"/>
  <path d="M108.419 410.404C114.881 409.184 143.145 409.23 144.365 415.692C145.585 422.154 119.3 432.585 112.838 433.805C106.376 435.025 98.6425 430.512 97.4224 424.05C96.2022 417.587 101.957 411.624 108.419 410.404Z" fill="white"/>
  <path d="M104.279 337.912C96.9418 342.982 96.075 352.451 102.769 358.465C109.998 364.96 119.177 367.231 128.466 368.198C136.063 368.988 143.69 369.377 151.225 370.798C155.575 371.618 159.748 370.935 162.102 366.703C164.417 362.54 163.25 358.224 160.153 355.192C148.404 343.686 135.219 334.717 117.978 334.105C113.115 333.806 108.292 335.147 104.279 337.912Z" fill="#FEC931"/>
  <path d="M74.8631 485.692C68.6513 487.95 62.6331 491.021 55.7516 490.665C47.9884 490.263 43.111 486.623 40.8322 479.651C39.8374 476.61 39.8548 473.329 40.882 470.298C41.9091 467.268 43.8906 464.652 46.5295 462.843C59.4718 454.331 73.8741 451.587 88.7818 456.149C98.3291 459.071 99.8256 469.711 92.379 476.408C91.2605 477.4 90.0587 478.293 88.7869 479.078C84.4144 481.809 79.7425 484.028 74.8631 485.692Z" fill="#EE888E"/>
  <path d="M749.04 367.92C750.414 367.756 751.788 367.593 753.162 367.43C754.023 367.613 754.883 368.065 755.75 367.451L755.68 367.434C757.942 369.511 761.085 371.122 759.756 375.104C758.517 378.816 755.468 379.883 752.031 380.349C749.732 380.661 747.432 381.026 745.12 381.18C742.566 381.35 739.876 381.197 738.89 378.296C737.949 375.527 740.281 374.19 742.033 372.71C743.758 371.255 746.398 370.937 747.304 368.467L747.25 368.49C748.06 368.969 748.599 368.597 749.04 367.92Z" fill="#EE888E"/>
  <path d="M737.85 608.905C730.274 603.158 723.383 588.255 729.13 580.68C734.876 573.104 751.085 575.726 758.66 581.472C762.294 584.233 764.684 588.324 765.303 592.846C765.922 597.368 764.72 601.95 761.961 605.587C759.203 609.223 755.114 611.615 750.592 612.237C746.071 612.859 741.488 611.66 737.85 608.905V608.905Z" fill="#EE888E"/>
  <path d="M432.44 570.897C435.221 559.022 449.088 543.17 460.963 545.951C472.838 548.732 478.224 569.092 475.443 580.967C474.783 583.792 473.573 586.46 471.882 588.817C470.191 591.174 468.052 593.174 465.587 594.705C463.123 596.235 460.381 597.264 457.518 597.735C454.656 598.205 451.728 598.106 448.904 597.445C446.079 596.783 443.413 595.572 441.056 593.88C438.7 592.187 436.7 590.047 435.171 587.582C433.643 585.116 432.614 582.374 432.146 579.511C431.677 576.648 431.777 573.721 432.44 570.897Z" fill="white"/>
</svg>
