<svg width="48" height="48" viewBox="0 0 48 48" fill="none" xmlns="http://www.w3.org/2000/svg">
<rect x="14" y="9" width="21" height="30" rx="3" fill="white"/>
<path d="M14.5 39.25L14.5 32.25C14.5 33.7688 15.4812 35 17 35H31.75C33.2688 35 34 33.7688 34 32.25V39.25H14.5Z" fill="#0CD0CD"/>
<path fill-rule="evenodd" clip-rule="evenodd" d="M24.426 13.5C24.9358 13.5 25.3491 13.9214 25.3491 14.4412V16.3235H29.9645C30.2541 16.3235 30.527 16.4622 30.7014 16.6979C30.8758 16.9337 30.9316 17.2393 30.852 17.5233L29.0059 24.1115C28.8927 24.5156 28.5305 24.7941 28.1183 24.7941H25.3491V30.2647C25.3491 30.7845 24.9358 31.2059 24.426 31.2059C23.9162 31.2059 23.5029 30.7845 23.5029 30.2647V24.7941H20.7337C20.3216 24.7941 19.9594 24.5156 19.8462 24.1115L18 17.5233C17.9204 17.2393 17.9762 16.9337 18.1506 16.6979C18.3251 16.4622 18.5979 16.3235 18.8876 16.3235H23.5029V14.4412C23.5029 13.9214 23.9162 13.5 24.426 13.5ZM23.5029 18.2059H20.1113L21.43 22.9118H23.5029V18.2059ZM25.3491 22.9118H27.4221L28.7407 18.2059H25.3491V22.9118Z" fill="#32007E"/>
<path fill-rule="evenodd" clip-rule="evenodd" d="M12 12.25C12 9.35051 14.3505 7 17.25 7H31.25C34.1495 7 36.5 9.35051 36.5 12.25V36.25C36.5 39.1495 34.1495 41.5 31.25 41.5H17.25C14.3505 41.5 12 39.1495 12 36.25V12.25ZM17.25 9.5C15.7312 9.5 14.5 10.7312 14.5 12.25V36.25C14.5 37.7688 15.7312 39 17.25 39H31.25C32.7688 39 34 37.7688 34 36.25V12.25C34 10.7312 32.7688 9.5 31.25 9.5H17.25Z" fill="#32007E"/>
</svg>
