<svg width="48" height="48" viewBox="0 0 48 48" fill="none" xmlns="http://www.w3.org/2000/svg">
<path d="M35.2604 14.8398C35.2047 14.8398 35.2047 14.8398 35.1491 14.8398C30.0273 5.5983 20.062 5.988 19.0043 6.04367C18.1135 6.09934 17.3341 6.54472 16.7774 7.21278C16.2207 7.88084 15.9423 8.71592 16.0536 9.60667C16.2207 11.3882 17.7795 12.7243 19.6166 12.6129C19.6166 13.782 19.5053 14.8398 19.2269 15.7862C18.1135 15.3409 16.8887 15.0068 15.6639 14.8955C8.20393 14.0604 1.5233 19.4606 0.688224 26.9206C-0.146853 34.3806 5.25331 41.0612 12.6577 41.8963C16.8887 42.3417 21.0641 40.8385 23.959 37.7766C26.1302 40.0591 29.0808 41.5623 32.3098 41.8963C32.8109 41.952 33.3119 41.952 33.8129 41.952C36.8749 41.952 39.8255 40.8942 42.2751 39.0014C45.1143 36.7188 46.8958 33.4899 47.2855 29.9269C47.3412 29.4258 47.3969 28.9248 47.3969 28.4237C47.3412 21.5204 42.1637 15.6192 35.2604 14.8398ZM26.0746 14.3388C26.7983 14.8398 27.4664 15.3965 28.0231 16.0646C27.1323 16.51 26.2416 17.011 25.4622 17.6234C25.7405 16.6213 25.9632 15.5079 26.0746 14.3388Z" fill="#3B058E"/>
<path d="M25.0726 29.5375C24.9612 30.5396 24.7385 31.486 24.3488 32.3768C23.8478 33.6572 23.1241 34.7707 22.2333 35.7171C19.9508 38.278 16.4991 39.6698 12.8248 39.2801C6.75657 38.612 2.35849 33.1562 3.02655 27.0323C3.69461 20.9641 9.15045 16.566 15.2743 17.2341C21.3982 18.0135 25.7963 23.4693 25.0726 29.5375Z" fill="#01C9C7"/>
<path d="M24.5154 32.5439C24.0143 33.8244 23.2906 34.9378 22.2885 35.7729C19.5606 30.15 23.1236 25.752 23.1236 25.752L24.5154 32.5439Z" fill="#3B058E"/>
<path d="M33.7569 39.3917C39.8755 39.3917 44.8356 34.4317 44.8356 28.3131C44.8356 22.1945 39.8755 17.2344 33.7569 17.2344C27.6383 17.2344 22.6782 22.1945 22.6782 28.3131C22.6782 34.4317 27.6383 39.3917 33.7569 39.3917Z" fill="#01C9C7"/>
<path d="M29.0025 26.6158C30.1123 24.352 29.893 21.9683 28.5126 21.2915C27.1323 20.6148 25.1135 21.9014 24.0037 24.1652C22.8939 26.429 23.1132 28.8128 24.4935 29.4895C25.8739 30.1662 27.8926 28.8796 29.0025 26.6158Z" fill="white"/>
<path d="M10.548 26.879C11.7796 24.3667 11.5248 21.7157 9.97878 20.9577C8.43276 20.1998 6.18101 21.6219 4.94935 24.1342C3.71769 26.6465 3.97253 29.2975 5.51855 30.0555C7.06457 30.8134 9.31632 29.3913 10.548 26.879Z" fill="white"/>
<path d="M21.4535 23.3577C21.7318 24.1371 21.6205 25.0279 20.7297 25.4733C20.006 25.863 19.0596 25.7516 18.2802 25.4176C16.3873 24.7495 14.8285 23.135 14.2162 21.1865C14.0491 20.7412 13.9935 20.2958 14.1048 19.8504C14.2161 19.405 14.6615 19.071 15.1069 19.1267C15.6079 19.1823 15.8306 19.7391 15.9976 20.1844C16.1647 20.6298 16.276 21.1865 16.7214 21.4092C17.7791 22.0773 19.1709 21.2422 20.2287 21.8546C20.8411 22.1886 21.2865 22.7453 21.4535 23.3577Z" fill="#3B058E"/>
<path d="M36.5965 20.4626C37.8213 20.4069 38.8234 21.7431 38.3224 22.9122C37.877 23.9699 36.5409 24.4153 35.4831 24.471C33.6459 24.5823 31.6418 23.8029 30.584 22.2441C30.417 21.9658 30.25 21.6874 30.25 21.409C30.1943 20.908 30.751 20.1286 31.2521 20.6853C31.3634 20.7967 31.4191 20.908 31.4747 21.075C31.9201 21.7987 32.9779 22.1884 33.7573 21.9658C34.147 21.8544 34.5367 21.4647 34.815 21.242C35.3161 20.7967 35.9285 20.4626 36.5965 20.4626C36.5409 20.4626 36.5409 20.4626 36.5965 20.4626Z" fill="#3B058E"/>
<path d="M34.4809 23.2464C34.4253 23.2464 34.3696 23.2464 34.3139 23.2464C33.9242 23.2464 33.5345 22.968 33.4789 22.5783C31.9757 14.3389 27.1323 11.4996 23.5136 10.5532C24.6827 19.7391 18.5031 23.3021 18.2248 23.4691C18.1134 23.5247 17.9464 23.5804 17.8351 23.5804C17.5567 23.5804 17.2784 23.4134 17.1113 23.135C16.8887 22.7453 17 22.2443 17.4454 22.0216C17.6681 21.9103 22.0105 19.2937 22.0105 12.8358C22.0105 12.0564 21.9548 11.1656 21.7878 10.2192C20.4517 10.0522 19.5052 10.1078 19.3382 10.1078C18.8928 10.1635 18.4475 9.82949 18.4475 9.38411C18.3918 8.93874 18.7258 8.49336 19.1712 8.49336C19.2825 8.49336 32.4211 7.4356 35.0933 22.3556C35.2047 22.7453 34.9263 23.1907 34.4809 23.2464Z" fill="white"/>
</svg>
