<svg width="48" height="48" viewBox="0 0 48 48" fill="none" xmlns="http://www.w3.org/2000/svg">
<path d="M41.982 24.0001C41.982 33.9096 33.9096 41.982 24.0001 41.982C14.0905 41.982 6.01807 33.9096 6.01807 24.0001C6.01807 14.0905 14.0905 6.01807 24.0001 6.01807C33.9096 6.01807 41.982 14.0905 41.982 24.0001Z" fill="#3B058E"/>
<path d="M39.477 23.9997C39.477 27.173 38.5305 30.0679 36.9161 32.5175C36.582 33.0185 36.248 33.4639 35.8583 33.9093C33.6871 36.4702 30.7365 38.363 27.3405 39.0868C27.0065 39.1424 26.6725 39.1981 26.3384 39.2538C26.0601 39.3095 25.8374 39.3095 25.559 39.3651C25.058 39.4208 24.5013 39.4208 24.0002 39.4208C21.161 39.4208 18.4887 38.6414 16.1505 37.3053C15.8721 37.1383 15.5938 36.9712 15.3154 36.8042C15.1484 36.6929 14.9257 36.5815 14.7587 36.4145C13.1442 35.2454 11.8081 33.7423 10.7503 32.0164C10.3606 31.3484 9.97092 30.6247 9.69256 29.9009C9.58122 29.6782 9.52554 29.4555 9.4142 29.2329C9.24719 28.8432 9.13583 28.4535 9.02449 28.0081C8.69046 26.7276 8.46777 25.3358 8.46777 23.944C8.46777 21.8285 8.91315 19.7687 9.69256 17.9315C9.8039 17.7088 9.91525 17.4304 10.0266 17.2078C10.1379 16.9294 10.3049 16.7067 10.4163 16.4283C13.0885 11.6962 18.099 8.46729 23.9445 8.46729C26.8395 8.46729 29.5117 9.24669 31.7943 10.5828C32.1283 10.8055 32.4623 10.9725 32.7964 11.1952C32.9634 11.3065 33.1304 11.4736 33.3531 11.5849C36.081 13.6448 38.0852 16.5954 38.9759 19.9913C39.0316 20.214 39.0873 20.4924 39.1429 20.7151C39.1986 20.9934 39.2543 21.3275 39.31 21.6615C39.4213 22.4966 39.477 23.2203 39.477 23.9997Z" fill="white"/>
<path d="M32.5736 17.542L25.1136 18.7111L22.8867 25.002C22.8867 25.002 27.1178 31.1816 27.4518 31.1816C27.7858 31.1816 33.5757 29.6228 33.5757 29.6228L35.8026 20.2699L32.5736 17.542Z" fill="#0CD0CD"/>
<path d="M15.7051 25.7258L12.4761 29.8455L10.7503 32.0724C10.1936 31.1816 9.74823 30.2909 9.4142 29.2888C8.80181 27.6186 8.46777 25.8371 8.46777 24C8.46777 21.5504 9.0245 19.2679 10.0266 17.2637L13.0885 18.6555L15.7051 25.7258Z" fill="#0CD0CD"/>
<path d="M26.3384 39.3095C25.559 39.4209 24.7796 39.4766 23.9446 39.4766C20.7156 39.4766 17.765 38.4745 15.2598 36.8043L15.8165 35.9692H15.8722L24.0002 36.0249L26.3384 39.3095Z" fill="#0CD0CD"/>
<path d="M34.5221 28.8991L36.3036 22.6081L39.3099 21.7174C39.1429 19.4349 37.9181 16.7069 36.9717 15.2595C35.5799 13.0326 31.7385 10.3604 31.7385 10.4717L31.2375 16.874L25.893 17.8204L20.4371 13.812V11.1954C20.4371 10.7501 20.0474 10.3604 19.6021 10.3604C19.1567 10.3604 18.767 10.7501 18.767 11.1954V13.9233L13.3668 17.8204L10.3606 16.4286C10.1935 16.7069 10.0822 16.9853 9.91517 17.2637C9.80382 17.4863 9.74815 17.709 9.63681 17.9317L12.8101 19.3792L14.87 25.6701L12.3091 28.8991L9.02441 28.064C9.02441 28.4537 9.30279 29.9011 11.1956 32.8518C13.0885 35.9137 15.8164 37.2498 16.0947 37.4168L16.7628 36.1921C16.9298 35.858 16.9298 35.4683 16.7628 35.19L13.6452 29.9011L16.1504 26.7279H23.1651L25.9487 30.6249L23.5548 35.2456H18.6C18.1546 35.2456 17.7649 35.6353 17.7649 36.0807C17.7649 36.5261 18.1546 36.9158 18.6 36.9158H23.6661L25.6146 39.3654C26.0043 39.5324 26.6724 39.421 26.6724 39.421C26.6724 39.421 33.52 38.753 36.5263 33.4085C36.5263 33.4085 36.916 32.8518 36.9717 32.462L34.5221 28.8991ZM27.2291 29.6785L24.3342 25.6144L26.3383 19.4905L31.7385 18.5441L34.7448 22.1628L33.019 28.3423L27.2291 29.6785Z" fill="#3B058E"/>
</svg>
