<svg xmlns="http://www.w3.org/2000/svg" viewBox="0 0 63.99197 51.85582"><defs><style>.cls-1{fill:none;stroke:#fff;stroke-linecap:round;stroke-linejoin:round;stroke-width:2px;}</style></defs><title>Asset 4</title><g id="Layer_2" data-name="Layer 2"><g id="Layer_1-2" data-name="Layer 1"><path class="cls-1" d="M31.15339,50.70168a15.04531,15.04531,0,0,0,12.8107-4.25914L57.7916,32.615"/><path class="cls-1" d="M21.19182,16.60594a5.50831,5.50831,0,0,1,8.19377-7.28511A5.50589,5.50589,0,0,1,38.97567,4.87"/><path class="cls-1" d="M16.53643,24.54558c-.22263.57828-.56318,1.45516-.71378,1.96664A19.0978,19.0978,0,0,0,30.48751,50.66105"/><path class="cls-1" d="M24.19955,34.14985A17.08258,17.08258,0,0,0,19.902,27.57906"/><line class="cls-1" x1="29.38559" y1="9.32083" x2="32.79361" y2="12.72886"/><line class="cls-1" x1="38.97567" y1="4.86996" x2="40.91828" y2="6.81258"/><line class="cls-1" x1="21.24857" y1="29.01675" x2="20.17665" y2="31.4998"/><path class="cls-1" d="M39.107,4.98311a5.25344,5.25344,0,0,1,4.81979-3.951"/><path class="cls-1" d="M43.92678,1.03214A18.41714,18.41714,0,0,1,57.5256,6.48707a18.66335,18.66335,0,0,1,0,26.394"/><path class="cls-1" d="M9.4407,4.85482a4.94445,4.94445,0,0,0-6.9925,6.99251"/><line class="cls-1" x1="9.4407" y1="4.85482" x2="24.84177" y2="20.25589"/><line class="cls-1" x1="2.4482" y1="11.84733" x2="19.90197" y2="27.57906"/></g></g></svg>