<svg width="101" height="64" viewBox="0 0 101 64" fill="none" xmlns="http://www.w3.org/2000/svg">
<path d="M51.4425 5.72339L49.1997 6.9023L49.628 4.40509L47.8136 2.63658L50.3211 2.2721L51.4425 0L52.5638 2.2721L55.0713 2.63658L53.2569 4.40509L53.685 6.9023L51.4425 5.72339Z" fill="#3B038E"/>
<path d="M76.9691 7.78005C77.2865 8.73939 76.7885 9.9844 76.7885 9.9844C76.7885 9.9844 75.1608 9.1979 74.8911 8.25488C74.6218 7.31159 74.8261 5.19518 74.8261 5.19518C74.8261 5.19518 76.6516 6.82099 76.9691 7.78005Z" fill="#3B038E"/>
<path d="M79.2801 13.2045C79.2801 13.2045 79.9618 12.0499 79.794 11.0535C79.6261 10.0571 78.0691 8.17274 78.0691 8.17274C78.0691 8.17274 77.5454 10.2333 77.6682 11.2064C77.7909 12.1796 79.2801 13.2045 79.2801 13.2045Z" fill="#3B038E"/>
<path d="M81.6557 15.0211C81.4394 16.0081 80.3761 16.825 80.3761 16.825C80.3761 16.825 79.3769 15.3184 79.6264 14.3696C79.8753 13.4208 81.1308 11.7048 81.1308 11.7048C81.1308 11.7048 81.8719 14.0341 81.6557 15.0211Z" fill="#3B038E"/>
<path d="M80.7576 17.1129C80.1857 17.9099 80.5804 19.6743 80.5804 19.6743C80.5804 19.6743 81.8655 19.2913 82.4202 18.447C82.975 17.6024 83.1154 15.1619 83.1154 15.1619C83.1154 15.1619 81.3295 16.3159 80.7576 17.1129Z" fill="#3B038E"/>
<path d="M82.5795 21.8194C81.8951 22.5625 80.5646 22.7312 80.5646 22.7312C80.5646 22.7312 80.4623 20.9265 81.1562 20.2329C81.85 19.5396 83.7997 18.6914 83.7997 18.6914C83.7997 18.6914 83.2643 21.0766 82.5795 21.8194Z" fill="#3B038E"/>
<path d="M79.3133 25.8565C79.3133 25.8565 80.6518 25.9375 81.4626 25.3346C82.2735 24.7317 83.2422 22.4873 83.2422 22.4873C83.2422 22.4873 81.169 22.9588 80.3584 23.5116C79.5478 24.0639 79.3133 25.8565 79.3133 25.8565Z" fill="#3B038E"/>
<path d="M79.6078 28.6114C78.6994 29.0536 77.399 28.7253 77.399 28.7253C77.399 28.7253 77.9624 27.0074 78.8614 26.615C79.7605 26.2226 81.8852 26.1443 81.8852 26.1443C81.8852 26.1443 80.5163 28.1695 79.6078 28.6114Z" fill="#3B038E"/>
<path d="M23.1773 38.3483C23.7666 38.2479 24.1126 38.2222 24.6228 38.2222C25.0607 38.2222 23.7725 40.4187 23.2286 41.3461C23.1178 41.5351 23.0378 41.6715 23.0097 41.7257C22.6718 41.7769 22.4111 41.8098 22.1566 41.842C21.8566 41.8799 21.565 41.9168 21.1665 41.981C21.8239 40.7991 22.4783 39.6195 23.1773 38.3483Z" fill="#3B038E"/>
<path d="M36.1776 39.7937C36.1819 39.778 36.1862 39.7623 36.1915 39.7465C36.3856 39.0831 36.57 38.4565 36.7852 37.7252L36.7854 37.7244L36.7905 37.7071C36.8967 37.3463 37.0104 36.9598 37.1365 36.5308C37.8264 36.4736 38.1749 36.4481 38.8682 36.3981C38.8281 36.5515 38.7897 36.7003 38.7524 36.8444L38.7523 36.845L38.7515 36.8481C38.7088 37.0131 38.6677 37.1721 38.6276 37.3251L38.6168 37.3679C38.4501 38.0069 38.306 38.5608 38.1618 39.1152C37.9516 39.9233 37.741 40.7326 37.4597 41.8087L37.2576 41.8239C36.6206 41.8717 36.2397 41.9004 35.5449 41.9561C35.6893 41.4644 35.817 41.0271 35.9355 40.621C36.0145 40.3503 36.0895 40.0935 36.1627 39.8436C36.1684 39.8268 36.173 39.8102 36.1776 39.7937Z" fill="#3B038E"/>
<path fill-rule="evenodd" clip-rule="evenodd" d="M90.5092 43.5001L95.3595 51.0874C95.8609 51.8747 96.1084 52.6473 96.1084 53.386V59.9606C96.1084 60.8041 95.7788 61.5596 95.1698 62.0958C94.7483 62.4666 94.023 62.856 92.9276 62.856C92.6424 62.856 92.3316 62.8298 91.992 62.77C87.9672 62.1013 83.8588 61.4921 79.798 60.9614L78.7781 60.8265L77.6291 60.7089C72.451 60.1788 67.1922 59.772 61.999 59.4993L61.8298 59.4905C61.0803 59.4509 60.4608 58.8923 60.345 58.1506L60.2908 57.8055C60.2779 57.8194 60.2655 57.8335 60.2531 57.8477C60.235 57.8685 60.2168 57.8893 60.197 57.9092C59.2764 58.837 57.9199 59.3541 56.4496 59.3256C52.8636 59.2565 51.1122 59.2565 47.5265 59.3256C47.4887 59.3265 47.4505 59.3267 47.4129 59.3267C45.995 59.3267 44.6762 58.8135 43.7794 57.9095C43.7602 57.8901 43.7424 57.8698 43.7246 57.8494C43.7116 57.8346 43.6986 57.8197 43.6851 57.8052L43.6278 58.1719C43.5125 58.9072 42.8947 59.4595 42.1511 59.4921L41.9602 59.5001C39.262 59.6174 37.947 59.6937 35.2584 59.8887L33.0505 60.0596C30.3597 60.2806 29.0472 60.4078 26.3639 60.707L24.1615 60.9633C21.4807 61.2886 20.1726 61.4664 17.4973 61.8699L15.3049 62.2117C12.6309 62.6414 11.3287 62.8701 8.67025 63.3773L5.47753 63.9863C5.00602 64.0761 4.56963 63.7136 4.57129 63.2338L4.59093 57.8398C4.59148 57.6722 4.63794 57.5079 4.72561 57.3649L6.81906 53.9402L20.4652 32.5466C20.5222 32.4573 20.6134 32.3954 20.7174 32.3755L21.3158 32.2615C24.7204 31.6119 26.4903 31.3229 29.9239 30.8558C30.8677 30.7281 31.7438 30.9723 32.3912 31.5444C32.4402 31.5876 32.4874 31.6324 32.5331 31.6788C32.678 31.826 32.9111 31.845 33.0624 31.7048C34.0071 30.8285 35.1448 30.2273 36.2103 30.1244C38.7097 29.8821 40.0059 29.7817 42.5142 29.6363C43.5117 29.5779 44.4572 29.9217 45.1723 30.6034C45.2215 30.6504 45.2691 30.699 45.315 30.7491C45.4591 30.9062 45.7091 30.9037 45.8592 30.7521C46.6681 29.9349 47.7257 29.4137 48.8288 29.3926C51.3379 29.344 52.6368 29.3442 55.147 29.3924C55.7596 29.4043 56.3566 29.5741 56.9064 29.8586L56.9086 29.5953C56.9346 29.5298 56.9891 29.4643 57.0981 29.4366L59.0679 29.5151C62.7733 29.6628 66.4721 29.9488 70.1563 30.3733L70.609 30.4255C70.9795 30.4681 71.2965 30.7118 71.4328 31.0591C71.5218 31.2856 71.7912 31.3658 72 31.2402C72.586 30.8887 73.2981 30.7524 74.0533 30.8561C77.2386 31.2892 78.8804 31.5538 82.0383 32.1437L82.4241 32.2156C82.6722 32.2621 82.8909 32.41 83.0245 32.6238L88.3552 41.1284C88.3765 41.1621 88.4027 41.1923 88.4337 41.2177C89.2553 41.8936 89.9912 42.6881 90.5092 43.5001ZM17.2291 52.7881C19.9127 52.3821 21.2564 52.2027 23.9439 51.8755C24.8813 49.6731 25.3484 48.5741 26.2826 46.3717C26.9187 44.8806 26.0923 43.8098 24.4969 44.0291C26.0923 43.8098 27.9748 42.3906 28.6072 40.8997C29.3953 39.0485 29.8973 37.8652 30.5248 36.3858C30.7669 35.8153 31.0276 35.2006 31.3307 34.4866C31.4167 34.2856 31.4814 34.0914 31.5245 33.9048C31.5425 33.829 31.5569 33.7538 31.5677 33.6819L31.5699 33.6668C31.5799 33.6004 31.5895 33.5369 31.5928 33.4733C31.6468 32.7192 31.3199 32.1766 30.7018 32.0472C30.5436 32.0148 30.3641 32.0112 30.1664 32.0364C26.7497 32.5035 25.0467 32.7803 21.6516 33.4266C19.4312 36.9062 17.2119 40.3866 14.9925 43.8671C12.773 47.3477 10.5536 50.8283 8.33314 54.308C11.0026 53.7978 12.3392 53.5644 15.0195 53.1332L16.3805 50.6568C16.9058 49.7008 17.4058 48.791 18.1018 47.5249C18.9102 47.3955 19.3161 47.331 20.1284 47.2085C19.573 48.2766 19.1509 49.0894 18.7344 49.8912C18.2809 50.7646 17.834 51.625 17.2291 52.7881ZM41.8828 50.399L43.5675 40.9036C43.6571 40.3308 43.7465 39.7577 43.836 39.1843L43.8364 39.1816C44.1367 37.2569 44.4376 35.3291 44.7462 33.4017C44.8465 32.7477 44.5269 32.1476 44.2431 31.6952C43.9055 31.1346 43.3197 30.7897 42.6192 30.8293C40.122 30.9767 38.8754 31.0735 36.382 31.3144C35.1138 31.4363 33.543 32.8124 32.9576 34.2963C32.3277 35.9013 31.7616 37.5055 31.1956 39.1094C30.0537 42.3453 28.9121 45.5802 27.248 48.8183V48.8216C27.0599 49.4548 26.7922 50.0894 26.5249 50.7234C26.3992 51.0215 26.2735 51.3194 26.1562 51.6169C27.5395 51.4623 28.5729 51.3512 29.6075 51.2541C29.6147 51.2541 29.619 51.2533 29.6233 51.2524C29.6276 51.2516 29.6318 51.2508 29.639 51.2508C30.6092 51.1573 31.6003 51.0708 32.894 50.9632C33.1119 50.2201 33.2748 49.6691 33.4393 49.1126C33.5945 48.5875 33.7512 48.0572 33.957 47.3562C34.7977 47.2876 35.2197 47.2553 36.0604 47.1944C35.9061 47.7835 35.783 48.2544 35.668 48.7033C35.6249 48.865 35.585 49.0229 35.5455 49.1811C35.4701 49.4675 35.3946 49.7603 35.3106 50.0859L35.3074 50.0984C35.2522 50.3124 35.1934 50.5407 35.1285 50.7906C37.83 50.5965 39.181 50.5177 41.8828 50.399ZM47.4909 50.2262C51.0873 50.1579 52.8874 50.1565 56.4836 50.2245C58.3196 50.2605 59.7136 49.0843 59.5375 47.6292C59.4073 46.5675 59.3098 45.769 59.2126 44.9723L59.2086 44.9399C59.1114 44.1431 59.0139 43.3446 58.8837 42.283C56.5159 42.2039 55.334 42.1787 52.9662 42.1679C52.9752 42.6997 52.9815 43.0977 52.9878 43.4956C52.9941 43.8936 53.0003 44.2915 53.0093 44.8233C52.1938 44.8194 51.7842 44.8194 50.9651 44.8233C50.9957 43.043 51.019 41.7083 51.0424 40.3735C51.0658 39.0388 51.0891 37.7041 51.1197 35.9238C51.813 35.9202 52.1614 35.9202 52.8547 35.9238C52.8705 36.6939 52.8784 37.1888 52.8884 37.8043C52.8923 38.0445 52.8964 38.3036 52.9015 38.6041C55.1219 38.6146 56.2286 38.6362 58.4451 38.7119C58.3113 37.6148 58.2121 36.7978 58.1121 35.9745L58.1111 35.9657C58.0156 35.1794 57.9193 34.3864 57.7914 33.337C57.6119 31.8821 56.3865 30.6136 55.1114 30.5884C53.631 30.5601 52.1294 30.6007 50.6371 30.6411H50.6353C50.0428 30.6571 49.4512 30.673 48.8634 30.6847C47.5879 30.7098 46.3628 31.9299 46.1867 33.3851C46.1543 33.6474 46.122 33.9045 46.0896 34.1617C46.0573 34.4188 46.0249 34.6759 45.9925 34.9382C45.9154 35.5724 45.8382 36.2026 45.7609 36.8329L45.7607 36.8347C45.6836 37.4643 45.6064 38.094 45.5293 38.7274C45.3479 40.2134 45.1663 41.6979 44.9848 43.1824C44.8034 44.666 44.6219 46.1497 44.4406 47.635C44.2611 49.0901 45.6585 50.2621 47.4909 50.2262ZM69.2271 50.8589C70.7685 50.9704 72.3097 51.0998 73.8512 51.2361C75.1695 51.3548 76.4883 51.4806 77.8102 51.6169C77.3554 50.4599 77.0213 49.6052 76.6806 48.7336L76.5887 48.4986C76.3842 47.9781 76.1738 47.4436 75.9298 46.8243L75.6581 46.1344C75.1854 46.0818 74.7464 46.0337 74.3331 45.9885L74.3324 45.9884L74.0594 45.9585C71.9181 45.7321 70.3949 45.5957 68.0307 45.4231C67.8405 45.4088 67.6427 45.3944 67.4414 45.3803C67.2822 44.7584 67.1908 44.4083 67.0468 43.8574L67.0467 43.8568L66.9782 43.5946C68.0307 43.6698 68.8535 43.731 69.6474 43.8031C70.6535 43.8853 71.6128 43.9787 72.9419 44.1154C72.8318 43.8099 72.7293 43.5255 72.6322 43.2562C72.3935 42.5946 72.188 42.0249 71.9862 41.4605C71.7541 40.8102 71.5216 40.1646 71.2417 39.3869L71.2349 39.368L70.9768 38.6508C68.8175 38.4318 67.7362 38.3383 65.5733 38.1801C65.3864 37.4689 65.2929 37.1094 65.1099 36.3981C67.9049 36.5994 69.299 36.7286 72.0871 37.0377L71.88 36.5113L71.8757 36.5003C71.1483 34.6516 70.7203 33.5638 69.9347 31.5588C66.317 31.1421 62.6489 30.8581 59.0093 30.7109L59.8587 36.1368C60.6031 40.8919 61.3474 45.6465 62.0919 50.3993C62.3972 50.4137 62.7061 50.4314 63.0117 50.4496C65.0883 50.5647 67.1577 50.701 69.2271 50.8589ZM80.0306 51.8758C84.1406 52.4112 88.215 53.0149 92.3034 53.6938C94.1178 54.0135 94.8111 53.0041 93.8233 51.4554C92.9135 50.0291 92.2178 48.9383 91.5351 47.8677C90.7645 46.6595 90.0105 45.4771 88.9837 43.8676C88.0136 42.3441 86.0018 40.8278 84.5469 40.5371C84.535 40.5353 84.5232 40.5328 84.5114 40.5303C84.498 40.5274 84.4845 40.5245 84.4711 40.5228C82.7286 40.2136 81.8339 40.0698 80.1238 39.8112L79.9946 39.7896C79.6138 39.0529 79.4233 38.6865 79.0389 37.9501C80.027 38.0975 80.821 38.223 81.5682 38.3455C82.7178 38.5358 83.767 38.7225 85.2725 39.0029C84.9736 38.5251 84.7061 38.0977 84.4568 37.6997C84.1457 37.2027 83.8631 36.7515 83.5839 36.3046C83.307 35.863 83.0335 35.4264 82.7384 34.9555C82.4285 34.4609 82.0948 33.9284 81.7084 33.3121C81.2305 33.222 80.785 33.1396 80.3683 33.0641C78.04 32.6401 76.4988 32.4028 73.8114 32.0364C72.5431 31.8641 72.0113 32.9958 72.6438 34.4869C73.2198 35.8444 73.6635 36.8864 74.0976 37.9056L74.5265 38.913C74.8893 39.7717 75.2737 40.6807 75.7516 41.8051C75.9634 42.301 76.3155 42.7932 76.7505 43.2315C77.6233 44.1118 78.8307 44.7943 79.9084 44.9417C79.9417 44.9467 79.9742 44.9509 80.0064 44.9551C80.0434 44.9599 80.0804 44.9647 80.1169 44.9704C81.9634 45.2218 82.9551 45.3692 84.8591 45.6748C85.0349 45.995 85.173 46.2459 85.3059 46.4876C85.4802 46.8042 85.6457 47.105 85.8759 47.5249C82.9263 47.0506 81.306 46.8172 78.6042 46.4832L78.451 46.4643L78.1751 46.4308C78.0181 46.4117 77.8572 46.3922 77.6916 46.3717C77.7516 46.5115 77.8093 46.648 77.8655 46.7806C77.9102 46.8864 77.9539 46.9897 77.9969 47.0902C78.7444 48.8399 79.2043 49.925 80.0306 51.8758Z" fill="#3B038E"/>
<path d="M74.5178 8.67771C74.5178 8.67771 74.163 7.38459 73.3306 6.81159C72.4985 6.23886 70.0616 6.04555 70.0616 6.04555C70.0616 6.04555 71.1766 7.85582 71.9612 8.44486C72.7454 9.03391 74.5178 8.67771 74.5178 8.67771Z" fill="#3B038E"/>
<path d="M75.3055 9.78583C76.2021 10.2515 76.714 11.491 76.714 11.491C76.714 11.491 74.9991 12.0632 74.1482 11.5756C73.297 11.0878 71.9668 9.42909 71.9668 9.42909C71.9668 9.42909 74.409 9.31986 75.3055 9.78583Z" fill="#3B038E"/>
<path d="M79.2619 15.3438C79.2619 15.3438 79.1109 14.0115 78.3773 13.3168C77.6433 12.6224 75.2656 12.0549 75.2656 12.0549C75.2656 12.0549 76.0877 14.0159 76.7719 14.7189C77.4558 15.4221 79.2619 15.3438 79.2619 15.3438Z" fill="#3B038E"/>
<path d="M79.4146 17.2567C79.979 18.0949 79.8355 19.4282 79.8355 19.4282C79.8355 19.4282 78.056 19.1101 77.5419 18.2747C77.0278 17.4392 76.6536 15.3463 76.6536 15.3463C76.6536 15.3463 78.8502 16.4188 79.4146 17.2567Z" fill="#3B038E"/>
<path d="M80.0524 23.1623C80.0524 23.1623 80.3389 21.8523 79.868 20.9583C79.397 20.0645 77.3288 18.7614 77.3288 18.7614C77.3288 18.7614 77.4756 20.8825 77.8965 21.7683C78.3177 22.6546 80.0524 23.1623 80.0524 23.1623Z" fill="#3B038E"/>
<path d="M76.7509 21.5614C76.7509 21.5614 78.4979 23.2716 78.7694 24.2447C79.0413 25.2179 78.4849 26.438 78.4849 26.438C78.4849 26.438 76.8961 25.5755 76.6716 24.6208C76.4467 23.6659 76.7509 21.5614 76.7509 21.5614Z" fill="#3B038E"/>
<path d="M74.9067 24.1291C74.9067 24.1291 74.8251 26.1208 75.1263 26.9897C75.4274 27.8589 76.9919 28.5107 76.9919 28.5107C76.9919 28.5107 77.3937 27.3194 77.0469 26.4377C76.6998 25.5564 74.9067 24.1291 74.9067 24.1291Z" fill="#3B038E"/>
<path d="M20.9613 26.1443C20.9613 26.1443 23.086 26.2226 23.9851 26.615C24.8839 27.0074 25.4472 28.7253 25.4472 28.7253C25.4472 28.7253 24.1471 29.0536 23.2384 28.6114C22.33 28.1695 20.9613 26.1443 20.9613 26.1443Z" fill="#3B038E"/>
<path d="M21.384 25.3346C22.1946 25.9375 23.5331 25.8565 23.5331 25.8565C23.5331 25.8565 23.2985 24.0639 22.488 23.5116C21.6774 22.9588 19.6042 22.4873 19.6042 22.4873C19.6042 22.4873 20.5732 24.7317 21.384 25.3346Z" fill="#3B038E"/>
<path d="M21.6901 20.2329C22.3842 20.9265 22.2819 22.7312 22.2819 22.7312C22.2819 22.7312 20.9514 22.5625 20.2667 21.8194C19.582 21.0766 19.0466 18.6914 19.0466 18.6914C19.0466 18.6914 20.9965 19.5396 21.6901 20.2329Z" fill="#3B038E"/>
<path d="M22.2659 19.6743C22.2659 19.6743 22.6602 17.9099 22.0883 17.1129C21.5167 16.3159 19.7308 15.1619 19.7308 15.1619C19.7308 15.1619 19.8713 17.6024 20.426 18.447C20.9808 19.2913 22.2659 19.6743 22.2659 19.6743Z" fill="#3B038E"/>
<path d="M23.22 14.3696C23.4691 15.3184 22.4702 16.825 22.4702 16.825C22.4702 16.825 21.4069 16.0081 21.1907 15.0211C20.9744 14.0341 21.7156 11.7048 21.7156 11.7048C21.7156 11.7048 22.9708 13.4208 23.22 14.3696Z" fill="#3B038E"/>
<path d="M25.1788 11.2064C25.3016 10.2333 24.7775 8.17274 24.7775 8.17274C24.7775 8.17274 23.2206 10.0571 23.0527 11.0535C22.8849 12.0499 23.5665 13.2045 23.5665 13.2045C23.5665 13.2045 25.0557 12.1796 25.1788 11.2064Z" fill="#3B038E"/>
<path d="M28.0202 5.19518C28.0202 5.19518 28.2246 7.31159 27.955 8.25488C27.6856 9.1979 26.0579 9.9844 26.0579 9.9844C26.0579 9.9844 25.5598 8.73939 25.8773 7.78005C26.1947 6.82099 28.0202 5.19518 28.0202 5.19518Z" fill="#3B038E"/>
<path d="M28.3288 8.67771C28.3288 8.67771 30.1012 9.03391 30.8855 8.44486C31.67 7.85582 32.7851 6.04555 32.7851 6.04555C32.7851 6.04555 30.3482 6.23886 29.5158 6.81159C28.6836 7.38459 28.3288 8.67771 28.3288 8.67771Z" fill="#3B038E"/>
<path d="M26.1322 11.491C26.1322 11.491 26.644 10.2515 27.5406 9.78583C28.4372 9.31986 30.8793 9.42909 30.8793 9.42909C30.8793 9.42909 29.5492 11.0878 28.6982 11.5756C27.847 12.0632 26.1322 11.491 26.1322 11.491Z" fill="#3B038E"/>
<path d="M24.469 13.3168C23.7353 14.0115 23.5844 15.3438 23.5844 15.3438C23.5844 15.3438 25.3905 15.4221 26.0744 14.7189C26.7585 14.0159 27.5807 12.0549 27.5807 12.0549C27.5807 12.0549 25.203 12.6224 24.469 13.3168Z" fill="#3B038E"/>
<path d="M23.0108 19.4282C23.0108 19.4282 22.8673 18.0949 23.4317 17.2567C23.9961 16.4188 26.1927 15.3463 26.1927 15.3463C26.1927 15.3463 25.8186 17.4392 25.3045 18.2747C24.7906 19.1101 23.0108 19.4282 23.0108 19.4282Z" fill="#3B038E"/>
<path d="M22.9781 20.9583C22.5072 21.8523 22.7937 23.1623 22.7937 23.1623C22.7937 23.1623 24.5287 22.6546 24.9496 21.7683C25.3708 20.8825 25.5174 18.7614 25.5174 18.7614C25.5174 18.7614 23.4491 20.0645 22.9781 20.9583Z" fill="#3B038E"/>
<path d="M24.0771 24.2447C24.3487 23.2716 26.0954 21.5614 26.0954 21.5614C26.0954 21.5614 26.3996 23.6659 26.175 24.6208C25.9505 25.5755 24.3617 26.438 24.3617 26.438C24.3617 26.438 23.8053 25.2179 24.0771 24.2447Z" fill="#3B038E"/>
<path d="M25.7998 26.4377C25.453 27.3194 25.8546 28.5107 25.8546 28.5107C25.8546 28.5107 27.4193 27.8589 27.7204 26.9897C28.0213 26.1208 27.9397 24.1291 27.9397 24.1291C27.9397 24.1291 26.1463 25.5564 25.7998 26.4377Z" fill="#3B038E"/>
<path fill-rule="evenodd" clip-rule="evenodd" d="M32.8755 14.0076H39.8837C40.9227 14.0076 41.7988 14.8837 41.7988 15.9227V20.3844C41.7988 21.4234 40.9227 22.2995 39.8837 22.2995C40.9227 22.2995 41.7988 23.1552 41.7988 24.1941V28.0243H37.9686V24.1941H36.7056V28.0243H32.8755V14.0076ZM36.7056 20.3844H37.9686V17.8377H36.7056V20.3844Z" fill="#3B038E"/>
<path d="M43.2656 28.0243H52.1889V24.1941H47.0955V22.9312H50.9052V19.101H47.0955V17.8377H52.1889V14.0076H43.2656V28.0243Z" fill="#3B038E"/>
<path d="M62.5786 28.0243H53.6553V14.0076H62.5786V17.8377H57.4854V19.101H61.2951V22.9312H57.4854V24.1941H62.5786V28.0243Z" fill="#3B038E"/>
<path d="M67.8754 14.0076H64.0452V28.0243H71.6851V24.1941H67.8754V14.0076Z" fill="#3B038E"/>
<path d="M43.6232 5.69988L41.9963 5.46344L41.2687 3.98917L40.5411 5.46344L38.9139 5.69988L40.0914 6.84755L39.8135 8.46783L41.2687 7.7029L42.7238 8.46783L42.4459 6.84755L43.6232 5.69988Z" fill="#3B038E"/>
<path d="M61.6163 3.98917L62.3439 5.46344L63.9711 5.69988L62.7936 6.84755L63.0715 8.46783L61.6163 7.7029L60.1611 8.46783L60.4391 6.84755L59.2618 5.69988L60.8887 5.46344L61.6163 3.98917Z" fill="#3B038E"/>
</svg>
