<svg width="88" height="62" viewBox="0 0 88 62" fill="none" xmlns="http://www.w3.org/2000/svg">
<g clip-path="url(#clip0)">
<path fill-rule="evenodd" clip-rule="evenodd" d="M45.06 0L46.1381 2.17963L48.5486 2.52902L46.8043 4.22582L47.2161 6.6214L45.06 5.4902L42.9039 6.6214L43.3157 4.22582L41.5714 2.52902L43.982 2.17963L45.06 0ZM67.6027 7.91891C67.8618 8.8237 69.4267 9.57813 69.4267 9.57813C69.4267 9.57813 69.9055 8.38378 69.6004 7.46356C69.2952 6.54334 67.5401 4.98389 67.5401 4.98389C67.5401 4.98389 67.3436 7.01411 67.6027 7.91891ZM70.2721 10.7507C70.3902 11.6843 71.8219 12.6675 71.8219 12.6675C71.8219 12.6675 72.4772 11.5597 72.3159 10.6039C72.1546 9.64806 70.6577 7.84033 70.6577 7.84033C70.6577 7.84033 70.154 9.8171 70.2721 10.7507ZM72.1548 13.785C71.9152 14.6951 72.8757 16.1404 72.8757 16.1404C72.8757 16.1404 73.898 15.3568 74.1059 14.4099C74.3138 13.4631 73.6011 11.2285 73.6011 11.2285C73.6011 11.2285 72.3944 12.8748 72.1548 13.785ZM73.2426 16.4166C72.6928 17.1812 73.0721 18.8736 73.0721 18.8736C73.0721 18.8736 74.3075 18.5063 74.8408 17.6962C75.3741 16.8861 75.509 14.5449 75.509 14.5449C75.509 14.5449 73.7923 15.6521 73.2426 16.4166ZM73.6256 19.4096C72.9585 20.0747 73.0569 21.8061 73.0569 21.8061C73.0569 21.8061 74.3357 21.6443 74.994 20.9315C75.6522 20.2187 76.167 17.9307 76.167 17.9307C76.167 17.9307 74.2927 18.7444 73.6256 19.4096ZM72.8586 22.5547C72.0794 23.0846 71.8539 24.8042 71.8539 24.8042C71.8539 24.8042 73.1406 24.8821 73.9201 24.3036C74.6995 23.7252 75.631 21.5723 75.631 21.5723C75.631 21.5723 73.6378 22.0247 72.8586 22.5547ZM70.0135 27.5562C70.0135 27.5562 70.555 25.9083 71.4193 25.5319C72.2836 25.1554 74.3262 25.0801 74.3262 25.0801C74.3262 25.0801 73.0104 27.0231 72.1369 27.4471C71.2635 27.8711 70.0135 27.5562 70.0135 27.5562ZM64.7856 8.10098C65.5397 8.66605 67.2436 8.32436 67.2436 8.32436C67.2436 8.32436 66.9024 7.08388 66.1023 6.53427C65.3021 5.98467 62.9595 5.79932 62.9595 5.79932C62.9595 5.79932 64.0315 7.53591 64.7856 8.10098ZM66.8884 11.1044C67.7066 11.5723 69.3552 11.0233 69.3552 11.0233C69.3552 11.0233 68.8632 9.83435 68.0012 9.38751C67.1392 8.94067 64.7915 9.04531 64.7915 9.04531C64.7915 9.04531 66.0702 10.6366 66.8884 11.1044ZM69.4105 14.12C70.0681 14.7945 71.8044 14.7196 71.8044 14.7196C71.8044 14.7196 71.6594 13.4414 70.9539 12.775C70.2485 12.1087 67.9626 11.5645 67.9626 11.5645C67.9626 11.5645 68.753 13.4455 69.4105 14.12ZM70.1509 17.531C70.6451 18.3324 72.3559 18.6374 72.3559 18.6374C72.3559 18.6374 72.4939 17.3585 71.9513 16.5546C71.4086 15.7507 69.2969 14.7217 69.2969 14.7217C69.2969 14.7217 69.6567 16.7295 70.1509 17.531ZM70.4918 20.8828C70.8966 21.7327 72.5645 22.2199 72.5645 22.2199C72.5645 22.2199 72.8399 20.9633 72.3872 20.1057C71.9345 19.2481 69.9462 17.998 69.9462 17.998C69.9462 17.998 70.0871 20.0329 70.4918 20.8828ZM69.314 23.6188C69.5299 24.5348 71.0573 25.3622 71.0573 25.3622C71.0573 25.3622 71.5921 24.1918 71.3309 23.2582C71.0698 22.3246 69.3905 20.6841 69.3905 20.6841C69.3905 20.6841 69.098 22.7028 69.314 23.6188ZM67.8286 25.8913C68.1181 26.7249 69.6222 27.3502 69.6222 27.3502C69.6222 27.3502 70.0084 26.2074 69.675 25.3617C69.3416 24.5161 67.6176 23.147 67.6176 23.147C67.6176 23.147 67.5391 25.0577 67.8286 25.8913ZM18.6636 25.5319C19.5279 25.9083 20.0694 27.5562 20.0694 27.5562C20.0694 27.5562 18.8195 27.8711 17.946 27.4471C17.0725 27.0231 15.7567 25.0801 15.7567 25.0801C15.7567 25.0801 17.7994 25.1554 18.6636 25.5319ZM17.2242 22.5547C18.0035 23.0846 18.229 24.8042 18.229 24.8042C18.229 24.8042 16.9422 24.8821 16.1628 24.3036C15.3834 23.7252 14.4519 21.5723 14.4519 21.5723C14.4519 21.5723 16.445 22.0247 17.2242 22.5547ZM16.4574 19.4096C17.1245 20.0747 17.0261 21.8061 17.0261 21.8061C17.0261 21.8061 15.7473 21.6443 15.089 20.9315C14.4308 20.2187 13.916 17.9307 13.916 17.9307C13.916 17.9307 15.7903 18.7444 16.4574 19.4096ZM16.8403 16.4166C17.3901 17.1812 17.0108 18.8736 17.0108 18.8736C17.0108 18.8736 15.7753 18.5063 15.242 17.6962C14.7088 16.8861 14.5739 14.5449 14.5739 14.5449C14.5739 14.5449 16.2905 15.6521 16.8403 16.4166ZM17.9281 13.785C18.1677 14.6951 17.2072 16.1404 17.2072 16.1404C17.2072 16.1404 16.185 15.3568 15.9771 14.4099C15.7692 13.4631 16.4818 11.2285 16.4818 11.2285C16.4818 11.2285 17.6885 12.8748 17.9281 13.785ZM19.8108 10.7507C19.6927 11.6843 18.261 12.6675 18.261 12.6675C18.261 12.6675 17.6057 11.5597 17.767 10.6039C17.9283 9.64806 19.4252 7.84033 19.4252 7.84033C19.4252 7.84033 19.9289 9.8171 19.8108 10.7507ZM22.4803 7.91891C22.2212 8.82371 20.6563 9.57813 20.6563 9.57813C20.6563 9.57813 20.1775 8.38378 20.4827 7.46356C20.7878 6.54334 22.5429 4.98389 22.5429 4.98389C22.5429 4.98389 22.7394 7.0141 22.4803 7.91891ZM25.2973 8.10098C24.5433 8.66605 22.8394 8.32436 22.8394 8.32436C22.8394 8.32436 23.1806 7.08388 23.9807 6.53427C24.7808 5.98467 27.1235 5.79932 27.1235 5.79932C27.1235 5.79932 26.0514 7.53591 25.2973 8.10098ZM23.1946 11.1044C22.3764 11.5723 20.7278 11.0233 20.7278 11.0233C20.7278 11.0233 21.2198 9.83435 22.0818 9.38751C22.9438 8.94067 25.2915 9.04531 25.2915 9.04531C25.2915 9.04531 24.0128 10.6366 23.1946 11.1044ZM20.6725 14.12C20.0149 14.7945 18.2786 14.7196 18.2786 14.7196C18.2786 14.7196 18.4236 13.4414 19.1291 12.775C19.8345 12.1087 22.1204 11.5645 22.1204 11.5645C22.1204 11.5645 21.33 13.4455 20.6725 14.12ZM19.932 17.531C19.4379 18.3324 17.727 18.6374 17.727 18.6374C17.727 18.6374 17.589 17.3585 18.1317 16.5546C18.6743 15.7507 20.786 14.7217 20.786 14.7217C20.786 14.7217 20.4262 16.7295 19.932 17.531ZM19.5911 20.8828C19.1863 21.7327 17.5183 22.2199 17.5183 22.2199C17.5183 22.2199 17.243 20.9633 17.6957 20.1057C18.1484 19.2481 20.1367 17.998 20.1367 17.998C20.1367 17.998 19.9958 20.0329 19.5911 20.8828ZM20.7689 23.6188C20.553 24.5348 19.0256 25.3622 19.0256 25.3622C19.0256 25.3622 18.4907 24.1918 18.7519 23.2582C19.0131 22.3246 20.6923 20.6841 20.6923 20.6841C20.6923 20.6841 20.9848 22.7028 20.7689 23.6188ZM22.2544 25.8913C21.9648 26.7249 20.4607 27.3502 20.4607 27.3502C20.4607 27.3502 20.0746 26.2074 20.408 25.3617C20.7414 24.5161 22.4653 23.147 22.4653 23.147C22.4653 23.147 22.5439 25.0577 22.2544 25.8913ZM82.6172 41.7299L87.2802 49.0084C87.727 49.6594 87.9769 50.4248 88 51.2135V57.5204C88.0067 57.9066 87.9295 58.2897 87.7737 58.6433C87.618 58.9968 87.3874 59.3126 87.0977 59.5688C86.4936 60.0685 85.7261 60.3281 84.942 60.298C84.6405 60.2967 84.3396 60.2691 84.0428 60.2156C80.1733 59.5742 76.2239 58.9896 72.3199 58.4805L71.3394 58.3511L70.2348 58.2384C65.2569 57.73 60.2014 57.3397 55.2087 57.078L55.046 57.0695C54.6964 57.0511 54.3638 56.9134 54.1039 56.6794C53.844 56.4455 53.6726 56.1294 53.6185 55.7843L53.5665 55.453C53.5539 55.4665 53.5419 55.4802 53.5299 55.494C53.5125 55.5139 53.4952 55.5337 53.4763 55.5526C52.9985 56.0095 52.433 56.3654 51.8139 56.5989C51.1949 56.8324 50.5349 56.9387 49.8736 56.9114C46.4264 56.8451 44.7426 56.8451 41.2954 56.9114C41.259 56.9121 41.2222 56.9124 41.1861 56.9124C39.8874 56.9385 38.6312 56.4496 37.6931 55.553C37.6878 55.5477 37.6826 55.5423 37.6775 55.5368L37.663 55.5209L37.6482 55.5043L37.6392 55.494C37.6271 55.4801 37.615 55.4663 37.6024 55.4527L37.5472 55.8047C37.4935 56.1469 37.3227 56.46 37.0639 56.6908C36.8052 56.9216 36.4743 57.0559 36.1275 57.0709L35.9442 57.0788C33.3503 57.1913 32.0861 57.2645 29.5014 57.4516L27.3788 57.6155C24.792 57.8276 23.5302 57.9496 20.9505 58.2367L18.8333 58.4825C16.256 58.7944 14.9985 58.965 12.4266 59.3521L10.3188 59.6799C7.74825 60.0922 6.49618 60.3117 3.94047 60.7982L0.871227 61.3823C0.764911 61.4026 0.655426 61.3991 0.550619 61.3721C0.445813 61.3452 0.34828 61.2954 0.265012 61.2264C0.181744 61.1574 0.114803 61.0709 0.0689871 60.973C0.0231708 60.8752 -0.000386095 60.7685 4.78595e-06 60.6605L0.018833 55.486C0.0194176 55.3252 0.0641671 55.1677 0.148216 55.0305L2.16089 51.7453L15.2796 31.2222C15.3067 31.1798 15.3423 31.1434 15.384 31.1151C15.4257 31.0869 15.4728 31.0675 15.5223 31.0581L16.0974 30.9486C19.3706 30.3256 21.0719 30.0484 24.3731 29.6002C24.7928 29.5315 25.2225 29.5549 25.6321 29.669C26.0418 29.783 26.4216 29.9849 26.745 30.2606C26.7921 30.3022 26.8376 30.3452 26.8814 30.3897C26.9462 30.4592 27.0357 30.5007 27.1307 30.5054C27.2258 30.51 27.3189 30.4774 27.3901 30.4145C28.2984 29.5738 29.3922 28.9973 30.4165 28.8985C32.8194 28.6662 34.0654 28.57 36.4768 28.4303C36.9439 28.3999 37.4122 28.4667 37.8521 28.6264C38.292 28.7861 38.6938 29.0353 39.0321 29.3581C39.0794 29.4032 39.1251 29.4497 39.1693 29.4978C39.203 29.5331 39.2435 29.5613 39.2883 29.5806C39.3332 29.6 39.3815 29.6101 39.4304 29.6104C39.4792 29.6106 39.5276 29.6011 39.5727 29.5822C39.6178 29.5634 39.6586 29.5357 39.6926 29.5007C40.4389 28.7132 41.4625 28.2457 42.5475 28.1965C44.9595 28.1499 46.2082 28.1501 48.6216 28.1964C49.2123 28.2138 49.7911 28.3668 50.313 28.6435L50.3152 28.391C50.3304 28.3525 50.355 28.3185 50.3868 28.2919C50.4185 28.2654 50.4564 28.2471 50.497 28.2389L52.3909 28.3141C55.9557 28.4559 59.509 28.7302 63.0507 29.1373L63.4859 29.1873C63.6608 29.2074 63.8269 29.2746 63.9664 29.3817C64.106 29.4888 64.2137 29.6317 64.278 29.7952C64.2986 29.8457 64.33 29.8911 64.3701 29.9281C64.4101 29.9652 64.4578 29.993 64.5099 30.0095C64.5619 30.0261 64.6169 30.0311 64.6711 30.0241C64.7252 30.0172 64.7772 29.9984 64.8233 29.9691C65.4195 29.624 66.1164 29.4938 66.7973 29.6004C69.8593 30.0159 71.4379 30.2699 74.4736 30.8357L74.8446 30.9047C74.9627 30.9267 75.0749 30.9728 75.1743 31.0402C75.2737 31.1076 75.358 31.1948 75.4219 31.2963L80.5464 39.4548C80.5668 39.4872 80.5923 39.516 80.6219 39.5403C81.3955 40.1638 82.0685 40.9023 82.6172 41.7299ZM35.2793 3.82666L35.9788 5.24093L37.5428 5.46775L36.411 6.56844L36.6782 8.12305L35.2793 7.38899L33.8803 8.12305L34.1475 6.56844L33.0157 5.46775L34.5798 5.24093L35.2793 3.82666ZM54.8408 3.82666L55.5403 5.24093L57.1043 5.46775L55.9726 6.56844L56.2398 8.12305L54.8408 7.38899L53.4418 8.12305L53.709 6.56844L52.5773 5.46775L54.1413 5.24093L54.8408 3.82666ZM34.3007 26.8837H27.5632V23.2095H32.4596V21.9978H29.4041C28.9178 21.9917 28.453 21.7962 28.1091 21.4529C27.7652 21.1097 27.5693 20.6459 27.5632 20.1606V15.2745C27.5693 14.7891 27.7652 14.3254 28.1091 13.9822C28.453 13.639 28.9178 13.4435 29.4041 13.4375H35.652V17.1117H31.2453V18.3234H34.3007C34.7871 18.3294 35.2519 18.525 35.5958 18.8682C35.9397 19.2115 36.1356 19.6752 36.1416 20.1606V25.0464C36.1356 25.5318 35.9397 25.9956 35.5958 26.3388C35.2519 26.682 34.7871 26.8776 34.3007 26.8837ZM37.3553 26.8837V13.4375H41.0374V23.2095H44.6999V26.8837H37.3553ZM52.6512 26.8837H47.7546C47.2682 26.8776 46.8035 26.682 46.4595 26.3388C46.1156 25.9956 45.9197 25.5318 45.9137 25.0464V15.2745C45.9197 14.7891 46.1156 14.3254 46.4596 13.9822C46.8035 13.639 47.2682 13.4435 47.7546 13.4375H52.6512C53.1376 13.4435 53.6023 13.639 53.9462 13.9822C54.2902 14.3254 54.4861 14.7891 54.4921 15.2745V25.0465C54.4861 25.5318 54.2902 25.9956 53.9463 26.3388C53.6023 26.682 53.1376 26.8776 52.6512 26.8837ZM50.8101 17.1117H49.5958V23.2095H50.8101V17.1117ZM61.8363 17.1117V26.8837H58.1542V17.1117H55.7061V13.4375H64.2845V17.1117H61.8363ZM52.5279 43.1262L52.5287 43.1332L52.5297 43.1412C52.6232 43.9058 52.7169 44.672 52.8422 45.6908C53.0114 47.0867 51.6714 48.2151 49.9063 48.1806C46.4489 48.1152 44.7185 48.1166 41.2611 48.1821C39.4996 48.2166 38.156 47.0924 38.3287 45.6966C38.6775 42.8501 39.0264 40.0017 39.3752 37.1514C39.4489 36.5481 39.5225 35.9485 39.5962 35.3489L39.598 35.334C39.6723 34.7294 39.7466 34.1248 39.8208 33.5165C39.8519 33.2648 39.883 33.0181 39.9141 32.7714C39.9452 32.5247 39.9763 32.278 40.0073 32.0265C40.1766 30.6306 41.3544 29.4601 42.5805 29.4359L42.771 29.4321C43.7269 29.4128 47.1858 29.343 48.587 29.3438C49.8133 29.3444 50.9909 30.5845 51.1636 31.9804C51.2767 32.9059 51.364 33.6236 51.4487 34.3196L51.4514 34.3417L51.4516 34.3432C51.5547 35.1912 51.6544 36.0099 51.7922 37.1364C49.6611 37.064 48.5973 37.0434 46.4628 37.033L46.4504 36.2835C46.4406 35.6848 46.4329 35.2079 46.4178 34.4619C45.7512 34.4584 45.4162 34.4584 44.7496 34.4619C44.721 36.1243 44.699 37.3818 44.6771 38.6285L44.6764 38.6676C44.6536 39.9691 44.6309 41.2633 44.6011 42.999C45.3885 42.9956 45.7823 42.9956 46.5664 42.999C46.5578 42.4889 46.5517 42.1072 46.5457 41.7255C46.5396 41.3438 46.5336 40.9621 46.5249 40.452C48.8011 40.4623 49.9375 40.4865 52.2136 40.5623C52.3397 41.5875 52.4338 42.3568 52.5279 43.1262ZM38.3137 30.3808C38.1184 30.1086 37.856 29.8913 37.5518 29.75C37.2477 29.6087 36.9121 29.5482 36.5776 29.5743C34.177 29.7156 32.9785 29.8086 30.5815 30.0395C29.3623 30.1567 27.8523 31.4768 27.2894 32.9002C25.4622 37.5462 21.1033 48.6234 20.751 49.5161C22.0808 49.3679 23.0741 49.261 24.0688 49.168C24.0727 49.168 24.0757 49.1677 24.0783 49.1673L24.0839 49.1663L24.0889 49.1653C24.0917 49.1648 24.0949 49.1645 24.0991 49.1645C25.0317 49.0749 25.9846 48.9922 27.2281 48.8888C27.4316 48.1968 27.5852 47.6784 27.7387 47.1602L27.7421 47.1489L27.7426 47.1472C27.895 46.6324 28.0481 46.1159 28.2503 45.4285C29.0585 45.363 29.4642 45.3319 30.2724 45.2734C30.1795 45.6269 29.9144 46.6495 29.6899 47.515L29.6891 47.5181L29.6888 47.5191C29.5549 48.0355 29.4356 48.4955 29.3763 48.7234C31.9737 48.5373 33.2722 48.4614 35.8696 48.3477C35.8696 48.3477 38.4427 33.1621 38.6223 32.042C38.7192 31.4693 38.6099 30.8808 38.3137 30.3808ZM31.3068 35.044C31.959 34.9897 32.2938 34.9655 32.9386 34.9188L32.9716 34.9164C32.9343 35.0592 32.8984 35.1977 32.8636 35.3321L32.8632 35.3334C32.8209 35.4967 32.7799 35.6547 32.7402 35.8057L32.7299 35.847C32.5677 36.4674 32.4278 37.0042 32.2874 37.5427L32.2859 37.5487C32.0861 38.3151 31.885 39.0865 31.6177 40.107L31.5482 40.1122L31.5458 40.1124C30.8571 40.164 30.4881 40.1916 29.7767 40.2483C29.9183 39.7678 30.043 39.3414 30.1588 38.9455L30.1602 38.9406C30.2333 38.6909 30.3028 38.4531 30.3708 38.2217L30.3738 38.2125L30.3778 38.1991L30.3846 38.1752L30.389 38.1596C30.3919 38.1493 30.395 38.139 30.3984 38.1286C30.5824 37.5011 30.7573 36.9078 30.9606 36.2185L31.3068 35.044ZM24.6062 30.733C24.7772 30.7084 24.951 30.7119 25.1209 30.7433C25.7149 30.8674 26.0293 31.3878 25.9774 32.1116C25.9742 32.1739 25.9647 32.2362 25.9548 32.3014L25.9532 32.3115C25.9429 32.3804 25.9291 32.4528 25.9118 32.5252C25.8664 32.7165 25.804 32.9033 25.7253 33.0835L24.9686 34.8635C24.357 36.3024 23.8724 37.4423 23.1073 39.2356C22.4993 40.666 20.6895 42.0273 19.1559 42.2376C20.6895 42.0274 21.4839 43.0544 20.8725 44.4848C19.9745 46.5975 19.5255 47.6521 18.6241 49.7649C16.0404 50.0785 14.7487 50.2508 12.1686 50.6403C12.7266 49.5697 13.1447 48.7664 13.5628 47.963L13.5635 47.9616C13.981 47.1593 14.3987 46.3568 14.9559 45.2878C14.1753 45.405 13.785 45.467 13.0078 45.5911L10.0444 50.9712C7.46778 51.3848 6.18292 51.6088 3.61658 52.0982C7.88333 45.4199 12.1513 38.7428 16.4204 32.0668C19.6843 31.4464 21.3215 31.181 24.6062 30.733ZM19.484 36.6671C19.484 36.6671 18.3645 36.7295 17.887 36.7882C17.2204 37.9979 16.075 40.0558 15.9541 40.2729C16.3374 40.2114 16.6178 40.176 16.9064 40.1396C17.1508 40.1087 17.4014 40.0771 17.726 40.0281C18.0617 39.3815 18.4441 38.6564 18.7665 38.0449L18.767 38.044C19.154 37.31 19.4545 36.7401 19.484 36.6671ZM68.3401 44.257C67.8808 44.2058 67.4545 44.1593 67.0533 44.1155L67.0484 44.1149L67.0474 44.1148L66.8031 44.0882C64.7445 43.871 63.28 43.74 61.0074 43.5746C60.8243 43.5608 60.6343 43.547 60.4409 43.5333C60.284 42.9224 60.1956 42.5849 60.0513 42.0339L59.9953 41.8203C61.0074 41.8927 61.7984 41.9513 62.5617 42.0202C63.5287 42.0995 64.451 42.1891 65.7289 42.3201L65.5022 41.693C65.2418 40.9727 65.0238 40.3697 64.8101 39.773C64.5747 39.1157 64.3392 38.4628 64.0501 37.6616L63.8396 37.0779C61.7638 36.8676 60.7241 36.778 58.6448 36.6264C58.4652 35.9439 58.3754 35.5993 58.1993 34.9169C60.8865 35.1099 62.2265 35.2339 64.9069 35.5303C64.0779 33.4279 63.6635 32.3767 62.8379 30.2743C59.3598 29.8745 55.8334 29.6023 52.3345 29.4609C53.3223 35.7578 54.3102 42.0535 55.298 48.3481C55.5915 48.3619 55.8886 48.3791 56.1821 48.3964C58.1785 48.5066 60.1703 48.6376 62.1575 48.7893C63.6393 48.8961 65.121 49.0202 66.6028 49.1512C67.8704 49.2649 69.1391 49.3867 70.409 49.5165C69.9948 48.4651 69.6848 47.674 69.375 46.8831L69.3741 46.8807L69.2347 46.5249C69.0119 45.9591 68.7819 45.3763 68.5061 44.6774L68.3401 44.257ZM85.8034 49.3612C84.865 47.8932 84.1635 46.7957 83.4602 45.6951L83.4481 45.6763C82.76 44.5996 82.0688 43.5181 81.1508 42.082C80.2183 40.6207 78.2841 39.1662 76.8852 38.8871C76.8731 38.8853 76.861 38.8828 76.8489 38.8802C76.8424 38.8788 76.8359 38.8774 76.8294 38.8761C76.8238 38.875 76.8182 38.8741 76.8126 38.8733C75.1375 38.5769 74.2775 38.439 72.6334 38.1909L72.509 38.1702C72.143 37.4636 71.9599 37.1121 71.5903 36.4055C72.5401 36.5468 73.3034 36.6675 74.0219 36.7847C75.1271 36.9673 76.1357 37.1465 77.5829 37.4154C77.2807 36.9332 77.0118 36.5046 76.7616 36.106C76.4771 35.6525 76.2169 35.2378 75.9596 34.827C75.6868 34.3929 75.4175 33.964 75.1258 33.4994C74.8338 33.0344 74.5194 32.5336 74.1566 31.956C73.6973 31.8699 73.269 31.7906 72.8683 31.7182C70.6301 31.3115 69.1483 31.0841 66.5648 30.7325C65.3455 30.5671 64.8344 31.6527 65.4423 33.0831C65.9854 34.3603 66.4062 35.3464 66.8157 36.3063L66.8218 36.3206L67.2521 37.3292C67.601 38.153 67.9706 39.0249 68.43 40.1037C68.6623 40.6152 68.9879 41.0792 69.3902 41.472C70.2295 42.3164 71.39 42.9712 72.4261 43.1125C72.4583 43.1174 72.4897 43.1214 72.5207 43.1254C72.5563 43.1301 72.5914 43.1346 72.6265 43.1401C74.4018 43.3814 75.3552 43.5227 77.1857 43.8157C77.3773 44.1643 77.5224 44.4273 77.6665 44.6888C77.816 44.9598 77.9645 45.2292 78.1632 45.5906C75.3275 45.1357 73.7698 44.9117 71.1724 44.5911C71.0366 44.5744 70.8983 44.5577 70.7568 44.5405L70.7522 44.54C70.6037 44.522 70.4516 44.5036 70.2951 44.4843C70.3482 44.608 70.3996 44.729 70.4495 44.8469C70.497 44.9588 70.5433 45.0678 70.5887 45.1736C71.3071 46.8521 71.7492 47.893 72.5436 49.7644C76.4949 50.278 80.4117 50.857 84.3423 51.5084C86.0865 51.8151 86.7532 50.8466 85.8034 49.3612Z" fill="#3B038E"/>
</g>
<defs>
<clipPath id="clip0">
<rect width="88" height="61.3953" fill="white"/>
</clipPath>
</defs>
</svg>
