<svg width="100%" height="100%" viewBox="0 0 2169 2169" fill="none" xmlns="http://www.w3.org/2000/svg">
<mask id="mask0" mask-type="alpha" maskUnits="userSpaceOnUse" x="0" y="0" width="2169" height="2169">
<path fill-rule="evenodd" clip-rule="evenodd" d="M1084.08 2168.86C1682.8 2168.86 2168.16 1683.5 2168.16 1084.78H1084.08V0.702148C485.36 0.702148 0 486.062 0 1084.78C0 1683.5 485.36 2168.86 1084.08 2168.86Z" fill="#C4C4C4"/>
</mask>
<g mask="url(#mask0)">
<path d="M105.52 -570.246L1084.08 -567.355V1084.78L-121.418 -271.1L105.52 -570.246Z" fill="white"/>
<path d="M686.586 -391.011L903.402 -391.01L1084.08 1084.78L594.076 -286.94L686.586 -391.011Z" fill="#FF808C"/>
<path d="M-180.681 -9.41477L310.769 -44.1055L1084.12 1084.79L-270.298 797.141L-180.681 -9.41477Z" fill="#01C9C7"/>
<path d="M-310.77 516.726L-27.4626 493.599L1084.12 1084.8L-270.298 797.144L-310.77 516.726Z" fill="white"/>
<path d="M1042.16 2540.34L784.874 2306.18L1084.12 1084.8L1519.16 2236.8L1042.16 2540.34Z" fill="#4C00C2"/>
<path d="M816.676 2369.78L669.241 2291.73L1084.12 1084.8L909.184 2291.73L816.676 2369.78Z" fill="white"/>
<path d="M1484.47 2470.96L1354.38 2254.15L1084.12 1084.79L1519.16 2236.8L1484.47 2470.96Z" fill="#FF808C"/>
<path d="M1507.6 2476.74L1507.6 2294.62L1084.12 1084.8L2097.33 1988.18L1507.6 2476.74Z" fill="#01C9C7"/>
<path d="M2238.99 1918.8L2123.35 2046L1084.12 1084.8L2380.64 1248.12L2238.99 1918.8Z" fill="#FEC52E"/>
<path d="M-203.807 2019.98L-88.1715 802.924L1084.12 1084.8L761.747 2450.73L-203.807 2019.98Z" fill="#FEC52E"/>
<path d="M394.606 -136.615L663.458 -174.196L1084.12 1084.8L328.115 -0.742244L394.606 -136.615Z" fill="#FEC52E"/>
<path d="M2559.87 1542.99L2412.44 1612.37L1084.08 1084.78L2559.87 1291.48L2559.87 1542.99Z" fill="#4C00C2"/>
<path d="M2739.11 1305.94L2470.26 1305.94L1084.08 1084.79L2714.22 1084.96L2739.11 1305.94Z" fill="white"/>
<path d="M-316.552 1224.99L-41.9188 1311.72L1084.12 1084.8L-117.08 1493.84L-316.552 1224.99Z" fill="#4C00C2"/>
<path d="M-131.533 1603.7L-4.33472 1447.59L1084.13 1084.8L-4.3347 1693.31L-131.533 1603.7Z" fill="#01C9C7"/>
</g>
</svg>
