<svg width="100%" height="100%" viewBox="0 0 108 108" fill="none" xmlns="http://www.w3.org/2000/svg">
<circle cx="54" cy="54" r="53.3333" fill="#4C00C2"/>
<path d="M54 4.10754L61.7849 22.4154L77.1862 9.82243L75.5713 29.651L95.0607 25.6579L84.416 42.4648L103.529 47.9861L86.2927 57.9211L100.65 71.6921L80.7716 72.4791L87.0848 91.3451L69.1174 82.8038L65.9401 102.443L54 86.5299L42.06 102.443L38.8826 82.8038L20.9152 91.3451L27.2284 72.4791L7.34974 71.6921L21.7073 57.9211L4.47132 47.9861L23.584 42.4648L12.9393 25.6579L32.4287 29.651L30.8138 9.82243L46.2151 22.4154L54 4.10754Z" fill="#FEC843"/>
<path d="M60.2585 28.5984L63.6276 35.653L71.347 34.4166L71.0517 42.2288L78.4614 44.7213L74.5695 51.5014L79.9722 57.152L73.3751 61.3468L75.533 68.8609L67.7422 69.5094L66.1609 77.1656L58.9611 74.1192L54.003 80.1636L49.0436 74.1203L41.8444 77.1682L40.2616 69.5123L32.4706 68.8655L34.6269 61.351L28.0289 57.1576L33.4304 51.5059L29.5369 44.7266L36.9462 42.2324L36.6492 34.4203L44.3689 35.6551L47.7364 28.5998L53.998 33.2806L60.2585 28.5984Z" fill="white"/>
</svg>
