<svg width="100%" height="100%" viewBox="0 0 160 160" fill="none" xmlns="http://www.w3.org/2000/svg">
<circle cx="80" cy="80" r="64" transform="rotate(-180 80 80)" fill="#4C00C2"/>
<mask id="mask0" mask-type="alpha" maskUnits="userSpaceOnUse" x="49" y="36" width="69" height="89">
<path fill-rule="evenodd" clip-rule="evenodd" d="M49.0597 70.5476L49.0597 124.083L76.9052 124.083L76.9052 71.0604C76.9052 68.3846 77.6823 66.4313 78.7665 65.2021C79.8024 64.0276 81.3792 63.2082 83.7107 63.2082C85.8662 63.2082 87.6018 63.8822 88.7749 65.011C89.9105 66.1036 90.9 67.988 90.9 71.1886L90.9 84.0562L117.722 79.3978L117.722 70.163C117.722 60.2236 114.291 51.7008 108.134 45.6609C101.985 39.6292 93.3995 36.3482 83.5827 36.3482C63.3649 36.3482 49.0597 51.9728 49.0597 70.5476ZM83.7107 59.3936C89.5965 59.3936 94.7146 63.1116 94.7146 71.1886L94.7146 79.522L113.907 76.1886L113.907 76.1839L94.7149 79.5172L94.7149 71.1838C94.7149 63.1069 89.5969 59.3889 83.7111 59.3889C77.4953 59.3889 73.6246 63.6407 73.1422 69.7402C73.6263 63.6432 77.4966 59.3936 83.7107 59.3936ZM52.9762 67.9885C52.9088 68.8316 52.8746 69.6836 52.8746 70.5428L52.8746 120.264L73.0907 120.264L73.0907 120.269L52.8742 120.269L52.8742 70.5476C52.8742 69.6867 52.9086 68.8332 52.9762 67.9885Z" fill="black"/>
</mask>
<g mask="url(#mask0)">
<g clip-path="url(#clip0)">
<path d="M85.0867 202.021C85.2221 211.754 76.761 219.382 67.0943 218.243C57.4276 217.103 50.9722 207.716 53.3669 198.282L83.39 80.0009L85.0867 202.021Z" fill="#FF808C"/>
<path d="M81.6934 -42.0189C81.5581 -51.7515 90.0192 -59.3798 99.6859 -58.2403C109.353 -57.1008 115.808 -47.7142 113.413 -38.2798L83.3901 80.0015L81.6934 -42.0189Z" fill="white"/>
<path d="M116.61 197.425C119.26 206.791 113.061 216.349 103.429 217.75C93.7968 219.151 85.132 211.756 85.0033 202.023L83.3899 80.0014L116.61 197.425Z" fill="#FF808C"/>
<path d="M50.1699 -37.4218C47.5202 -46.7878 53.7187 -56.346 63.3509 -57.7473C72.9831 -59.1486 81.6479 -51.7526 81.7766 -42.0198L83.39 80.0015L50.1699 -37.4218Z" fill="white"/>
<path d="M145.869 184.824C150.852 193.185 147.339 204.022 138.398 207.868C129.456 211.715 119.172 206.814 116.529 197.446L83.3893 79.9998L145.869 184.824Z" fill="#FFCA30"/>
<path d="M20.9101 -24.8239C15.9266 -33.185 19.44 -44.0218 28.3813 -47.8683C37.3226 -51.7148 47.6064 -46.8135 50.2498 -37.4457L83.3895 80.0004L20.9101 -24.8239Z" fill="#0CD0CD"/>
<path d="M170.87 165.082C177.848 171.868 177.259 183.245 169.618 189.275C161.977 195.304 150.775 193.232 145.797 184.867L83.3891 80.0004L170.87 165.082Z" fill="#FFCA30"/>
<path d="M-4.09143 -5.08137C-11.0692 -11.8677 -10.4803 -23.2446 -2.83916 -29.2742C4.80196 -35.3039 16.004 -33.2312 20.9818 -24.8667L83.3897 80.0003L-4.09143 -5.08137Z" fill="#0CD0CD"/>
<path d="M189.91 139.541C198.407 144.29 200.782 155.432 194.962 163.234C189.142 171.036 177.785 171.933 170.812 165.142L83.3893 80.0004L189.91 139.541Z" fill="white"/>
<path d="M-23.131 20.4602C-31.6274 15.711 -34.0032 4.56937 -28.183 -3.23246C-22.3628 -11.0343 -11.0061 -11.9315 -4.033 -5.14044L83.39 80.0009L-23.131 20.4602Z" fill="#FF808C"/>
<path d="M201.691 109.944C211.127 112.332 216.305 122.479 212.703 131.521C209.1 140.564 198.363 144.37 189.87 139.615L83.3893 80.0014L201.691 109.944Z" fill="white"/>
<path d="M-34.9115 50.0589C-44.3476 47.6706 -49.526 37.5235 -45.9234 28.4811C-42.3209 19.4388 -31.5833 15.6328 -23.0902 20.3877L83.3901 80.0011L-34.9115 50.0589Z" fill="#FF808C"/>
<path d="M205.409 78.3034C215.142 78.1681 222.77 86.6292 221.631 96.2959C220.491 105.963 211.105 112.418 201.67 110.023L83.3892 80.0001L205.409 78.3034Z" fill="#0CD0CD"/>
<path d="M-38.6304 81.6971C-48.3631 81.8324 -55.9913 73.3713 -54.8518 63.7046C-53.7124 54.038 -44.3257 47.5826 -34.8913 49.9773L83.39 80.0004L-38.6304 81.6971Z" fill="#FF808C"/>
<path d="M200.813 46.781C210.179 44.1312 219.737 50.3297 221.138 59.9619C222.54 69.5941 215.144 78.259 205.411 78.3877L83.3894 80.001L200.813 46.781Z" fill="#0CD0CD"/>
<path d="M-34.0335 113.22C-43.3995 115.87 -52.9577 109.672 -54.359 100.039C-55.7602 90.4072 -48.3643 81.7424 -38.6315 81.6137L83.3898 80.0003L-34.0335 113.22Z" fill="#FF808C"/>
<path d="M188.213 17.5215C196.574 12.538 207.411 16.0513 211.257 24.9927C215.104 33.934 210.203 44.2178 200.835 46.8612L83.3888 80.001L188.213 17.5215Z" fill="#FF808C"/>
<path d="M-21.4349 142.48C-29.796 147.464 -40.6328 143.95 -44.4793 135.009C-48.3258 126.068 -43.4245 115.784 -34.0567 113.141L83.3894 80.0008L-21.4349 142.48Z" fill="white"/>
<path d="M168.471 -7.47975C175.258 -14.4575 186.635 -13.8686 192.664 -6.22747C198.694 1.41364 196.621 12.6156 188.257 17.5934L83.3898 80.0013L168.471 -7.47975Z" fill="#FF808C"/>
<path d="M-1.69179 167.482C-8.47812 174.46 -19.855 173.871 -25.8846 166.23C-31.9143 158.588 -29.8416 147.386 -21.4771 142.409L83.3898 80.0007L-1.69179 167.482Z" fill="white"/>
<path d="M142.93 -26.5196C147.679 -35.016 158.82 -37.3917 166.622 -31.5715C174.424 -25.7514 175.321 -14.3946 168.53 -7.42153L83.3889 80.0015L142.93 -26.5196Z" fill="#FFCA30"/>
<path d="M23.8486 186.522C19.0995 195.018 7.95786 197.394 0.156023 191.574C-7.64581 185.754 -8.54305 174.397 -1.75195 167.424L83.3894 80.0011L23.8486 186.522Z" fill="#0CD0CD"/>
<path d="M113.332 -38.3C115.72 -47.7361 125.867 -52.9146 134.91 -49.312C143.952 -45.7094 147.758 -34.9718 143.003 -26.4787L83.3896 80.0017L113.332 -38.3Z" fill="#FFCA30"/>
<path d="M53.4471 198.303C51.0588 207.739 40.9117 212.917 31.8693 209.315C22.8269 205.712 19.0209 194.975 23.7759 186.481L83.3894 80.0012L53.4471 198.303Z" fill="#0CD0CD"/>
</g>
</g>
<mask id="mask1" mask-type="alpha" maskUnits="userSpaceOnUse" x="16" y="16" width="100%" height="100%">
<circle cx="80" cy="80" r="64" transform="rotate(-180 80 80)" fill="#4C00C2"/>
</mask>
<g mask="url(#mask1)">
<g clip-path="url(#clip1)">
<path d="M-37.0389 60.2645C-46.6446 58.6914 -52.6714 49.024 -49.8548 39.7068C-47.0383 30.3896 -36.6653 25.6798 -27.7969 29.6914L83.3891 79.9858L-37.0389 60.2645Z" fill="#FF808C"/>
<path d="M203.817 99.7073C213.422 101.28 219.449 110.948 216.633 120.265C213.816 129.582 203.443 134.292 194.575 130.28L83.3886 79.9859L203.817 99.7073Z" fill="white"/>
<path d="M-38.0402 92.1051C-47.7256 93.0718 -56.0492 85.2937 -55.7401 75.565C-55.431 65.8363 -46.6305 58.6022 -37.0259 60.1818L83.3886 79.9854L-38.0402 92.1051Z" fill="#FF808C"/>
<path d="M204.817 67.8656C214.503 66.8989 222.826 74.6771 222.517 84.4058C222.208 94.1345 213.407 101.369 203.803 99.7889L83.3883 79.9854L204.817 67.8656Z" fill="white"/>
<path d="M-30.7643 123.12C-39.8696 126.561 -49.9226 121.202 -52.142 111.725C-54.3614 102.247 -47.7331 92.9822 -38.047 92.0221L83.39 79.9853L-30.7643 123.12Z" fill="#FFCA30"/>
<path d="M197.544 36.8506C206.649 33.4101 216.702 38.7689 218.921 48.2461C221.141 57.7233 214.512 66.9886 204.826 67.9487L83.3892 79.9853L197.544 36.8506Z" fill="#0CD0CD"/>
<path d="M-15.7112 151.195C-23.6157 156.875 -34.7132 154.301 -39.3098 145.721C-43.9065 137.141 -39.9021 126.476 -30.7945 123.042L83.3894 79.9848L-15.7112 151.195Z" fill="#FFCA30"/>
<path d="M182.49 8.77507C190.395 3.09514 201.492 5.66943 206.089 14.2493C210.685 22.8291 206.681 33.4943 197.573 36.9286L83.3894 79.9855L182.49 8.77507Z" fill="#0CD0CD"/>
<path d="M6.09634 174.418C-0.0687684 181.95 -11.4544 182.336 -18.115 175.238C-24.7757 168.14 -23.6681 156.802 -15.7597 151.128L83.3895 79.9851L6.09634 174.418Z" fill="white"/>
<path d="M160.682 -14.4474C166.847 -21.9796 178.233 -22.3653 184.893 -15.2675C191.554 -8.16971 190.446 3.16845 182.538 8.84297L83.3889 79.9856L160.682 -14.4474Z" fill="#FF808C"/>
<path d="M33.1702 191.205C29.1647 200.076 18.2669 203.396 9.99611 198.264C1.72537 193.132 -0.139261 181.893 6.03099 174.365L83.3886 79.9849L33.1702 191.205Z" fill="white"/>
<path d="M133.607 -31.2346C137.613 -40.1058 148.511 -43.4251 156.781 -38.2931C165.052 -33.1611 166.917 -21.9226 160.747 -14.3946L83.389 79.9856L133.607 -31.2346Z" fill="#FF808C"/>
<path d="M63.6685 200.413C62.0954 210.019 52.428 216.045 43.1108 213.229C33.7936 210.412 29.0838 200.039 33.0954 191.171L83.3898 79.9849L63.6685 200.413Z" fill="#0CD0CD"/>
<path d="M103.111 -40.4424C104.684 -50.0481 114.351 -56.0749 123.668 -53.2583C132.986 -50.4418 137.695 -40.0688 133.684 -31.2004L83.3894 79.9856L103.111 -40.4424Z" fill="#FF808C"/>
<path d="M95.5086 201.414C96.4753 211.099 88.6971 219.423 78.9684 219.114C69.2397 218.805 62.0057 210.004 63.5853 200.4L83.3889 79.9852L95.5086 201.414Z" fill="#0CD0CD"/>
<path d="M71.2698 -41.4431C70.3031 -51.1285 78.0812 -59.4521 87.8099 -59.143C97.5386 -58.8339 104.773 -50.0334 103.193 -40.4288L83.3895 79.9856L71.2698 -41.4431Z" fill="#FF808C"/>
<path d="M126.524 194.139C129.964 203.244 124.606 213.297 115.128 215.517C105.651 217.736 96.3859 211.108 95.4258 201.421L83.3891 79.9845L126.524 194.139Z" fill="#FF808C"/>
<path d="M40.2544 -34.1693C36.8138 -43.2746 42.1726 -53.3276 51.6498 -55.547C61.127 -57.7664 70.3923 -51.1381 71.3524 -41.452L83.3892 79.985L40.2544 -34.1693Z" fill="white"/>
<path d="M154.599 179.086C160.279 186.99 157.704 198.088 149.124 202.685C140.545 207.281 129.879 203.277 126.445 194.169L83.3883 79.9854L154.599 179.086Z" fill="#FF808C"/>
<path d="M12.1785 -19.1151C6.49858 -27.0196 9.07287 -38.117 17.6527 -42.7137C26.2326 -47.3103 36.8977 -43.3059 40.332 -34.1983L83.3889 79.9854L12.1785 -19.1151Z" fill="white"/>
<path d="M177.821 157.278C185.354 163.443 185.739 174.829 178.642 181.489C171.544 188.15 160.206 187.042 154.531 179.134L83.3883 79.9846L177.821 157.278Z" fill="#FFCA30"/>
<path d="M-11.0443 2.69192C-18.5766 -3.47319 -18.9622 -14.8588 -11.8644 -21.5195C-4.76663 -28.1801 6.57152 -27.0725 12.246 -19.1641L83.3886 79.9851L-11.0443 2.69192Z" fill="#0CD0CD"/>
<path d="M194.609 130.204C203.48 134.209 206.799 145.107 201.667 153.378C196.535 161.649 185.297 163.513 177.768 157.343L83.3882 79.9854L194.609 130.204Z" fill="#FFCA30"/>
<path d="M-27.8314 29.7667C-36.7027 25.7612 -40.022 14.8633 -34.89 6.5926C-29.7579 -1.67815 -18.5194 -3.54279 -10.9914 2.62746L83.3887 79.9851L-27.8314 29.7667Z" fill="#0CD0CD"/>
</g>
</g>
<defs>
<clipPath id="clip0">
<rect width="169.536" height="169.536" fill="white" transform="translate(144.733 182.997) rotate(-165.777)"/>
</clipPath>
<clipPath id="clip1">
<rect width="169.536" height="169.536" fill="white" transform="translate(-28.7666 122.322) rotate(-65.6802)"/>
</clipPath>
</defs>
</svg>
