<svg xmlns="http://www.w3.org/2000/svg" width="50" height="52" viewBox="0 0 50 52" fill="none">
    <path fill="#fff" fill-rule="evenodd" d="M9.13 18.25l2.506-7.81 5.728-1.67 19.09.696 3.819 4.044-.546 4.74 3.683 4.691L44.26 37l-5.896 5.299-1.045 6.26-4.683 1.81-4.524-5.288-7.083-.582-2.714 5.313-4.77-.557L10.83 44.5l-1.103-4.843-2.447-1.67-2.4-11.269 2.4-6.592 1.85-1.875z" clip-rule="evenodd"/>
    <path fill="#3B038E" fill-rule="evenodd" d="M33.59 10.75c2.637 0 4.774 2.099 4.774 4.688v5.031c2.219.775 3.818 2.835 3.818 5.28v9.376c0 2.07-1.71 3.75-3.818 3.75-.033 0-.063-.009-.096-.01-.233 1.143-.9 2.124-1.813 2.801v3.771c0 1.553-1.282 2.813-2.864 2.813-1.581 0-2.864-1.26-2.864-2.813v-2.812H19.273v2.812c0 1.553-1.282 2.813-2.863 2.813-1.582 0-2.864-1.26-2.864-2.813v-3.771c-.913-.677-1.58-1.658-1.814-2.8-.033 0-.063.009-.096.009-2.108 0-3.817-1.68-3.817-3.75V25.75c0-2.446 1.598-4.506 3.817-5.28v-5.032c0-2.59 2.137-4.688 4.774-4.688h17.18zm0-3.75H16.41c-4.738 0-8.592 3.785-8.592 8.438v2.837C5.461 20.015 4 22.767 4 25.75v9.375c0 3.217 2.074 5.968 4.977 7.03.221.373.472.73.75 1.066v2.216c0 3.62 2.998 6.563 6.682 6.563 3.36 0 6.15-2.45 6.614-5.625h3.954C27.442 49.551 30.231 52 33.591 52c3.684 0 6.682-2.944 6.682-6.563v-2.216c.278-.337.529-.692.75-1.065C43.926 41.093 46 38.342 46 35.125V25.75c0-2.983-1.461-5.736-3.818-7.475v-2.837C42.182 10.785 38.327 7 33.59 7z" clip-rule="evenodd"/>
    <path fill="#1A212C" fill-rule="evenodd" d="M19.273 16.375c0 1.035-.854 1.875-1.909 1.875-1.055 0-1.909-.84-1.909-1.875 0-1.035.854-1.875 1.909-1.875 1.055 0 1.909.84 1.909 1.875zM34.545 16.375c0 1.035-.855 1.875-1.909 1.875s-1.909-.84-1.909-1.875c0-1.035.855-1.875 1.909-1.875s1.91.84 1.91 1.875z" clip-rule="evenodd"/>
    <path fill="#3B038E" fill-rule="evenodd" d="M25.287 8.607l-14.44 8.128V20H4.382c-4.212 0-5.692-5.601-2.01-7.673h.001L23.302.543h.001l.002-.002a4.1 4.1 0 0 1 4.069.027l20.312 11.785C51.311 14.458 49.817 20 45.628 20h-6.476v-3.349L25.287 8.607z" clip-rule="evenodd"/>
    <path fill="#0CD0CD" d="M4.332 15.813L25.267 4.028a.1.1 0 0 1 .1 0l20.312 11.786c.088.05.052.186-.05.186H4.38c-.102 0-.138-.137-.049-.187z"/>
    <path fill="#3B038E" fill-rule="evenodd" d="M11.636 44.5c-1.054 0-1.909-.84-1.909-1.875v-15c0-1.035.855-1.875 1.909-1.875s1.91.84 1.91 1.875v15c0 1.036-.856 1.875-1.91 1.875zM38.364 44.5c-1.054 0-1.909-.84-1.909-1.875v-15c0-1.035.855-1.875 1.909-1.875 1.055 0 1.909.84 1.909 1.875v15c0 1.036-.855 1.875-1.909 1.875z" clip-rule="evenodd"/>
    <path fill="#1A212C" d="M25.25 24.5a2.25 2.25 0 1 0 0-4.5 2.25 2.25 0 0 0 0 4.5z"/>
    <path fill="#D3D8E1" d="M17.015 23.108v17.088c0 .611.888.685.993.082l2.598-14.976a2 2 0 0 1 1.97-1.658h5.174a2 2 0 0 1 1.975 1.685l2.296 14.427c.097.609.994.539.994-.077V23.108c0-3.762-3.06-4.095-7.757-4.095-4.698 0-8.243.14-8.243 4.095z"/>
</svg>