<svg xmlns="http://www.w3.org/2000/svg" viewBox="0 0 46 50" fill="none">
    <path fill="#fff" d="M35.938 15.345v-2.59c-.02-5.054-3.341-7.292-6.594-7.292H16.677c-5.125-.095-6.989 3.404-6.989 7.14v2.742a5.26 5.26 0 0 0-2.699 1.828A5.01 5.01 0 0 0 5.94 20.2v9.105c.011.797.292 1.568.799 2.195a3.76 3.76 0 0 0 2.006 1.277v-9.56c0-.363.149-.71.412-.966.264-.256.622-.4.995-.4s.73.144.994.4.412.603.412.965v17.755c0 .724.296 1.42.824 1.931.527.513 1.242.8 1.988.8s1.462-.287 1.99-.8a2.692 2.692 0 0 0 .823-1.93V38.24h11.256v2.731c0 .724.296 1.42.824 1.931.527.513 1.243.8 1.989.8.745 0 1.46-.287 1.988-.8a2.692 2.692 0 0 0 .824-1.93V23.216c0-.362.148-.71.412-.965.264-.256.621-.4.994-.4s.731.144.995.4c.263.256.412.603.412.965v9.56a3.76 3.76 0 0 0 2.015-1.281 3.576 3.576 0 0 0 .797-2.209v-9.104a5.01 5.01 0 0 0-1.057-3.018 5.26 5.26 0 0 0-2.693-1.82z"/>
    <path fill="#3B058F" d="M38.944 13.688v-1.863c0-6.362-4.385-9.094-9.047-9.094H16.09c-6.672 0-9.047 5.088-9.047 9.094v1.857a7.812 7.812 0 0 0-2.74 2.786 7.537 7.537 0 0 0-1.01 3.727V29.3a6.267 6.267 0 0 0 1.604 4.167A6.619 6.619 0 0 0 8.92 35.6v5.372c0 1.45.593 2.839 1.647 3.863a5.71 5.71 0 0 0 3.978 1.6 5.71 5.71 0 0 0 3.977-1.6 5.384 5.384 0 0 0 1.648-3.863h5.625c0 1.45.593 2.839 1.648 3.863a5.71 5.71 0 0 0 3.977 1.6 5.71 5.71 0 0 0 3.977-1.6 5.384 5.384 0 0 0 1.648-3.863v-5.39a6.619 6.619 0 0 0 4.02-2.133 6.267 6.267 0 0 0 1.605-4.168v-9.104a7.537 7.537 0 0 0-1.005-3.71 7.81 7.81 0 0 0-2.72-2.78zm.937 6.677v8.923a3.576 3.576 0 0 1-.796 2.208 3.76 3.76 0 0 1-2.016 1.282v-9.56c0-.363-.148-.71-.412-.966a1.428 1.428 0 0 0-.994-.4c-.373 0-.731.144-.995.4a1.346 1.346 0 0 0-.412.966v17.754c0 .725-.296 1.42-.823 1.932-.528.512-1.243.8-1.99.8a2.855 2.855 0 0 1-1.988-.8 2.692 2.692 0 0 1-.824-1.932v-2.731H17.375v2.731c0 .725-.296 1.42-.824 1.932-.527.512-1.242.8-1.988.8a2.855 2.855 0 0 1-1.989-.8 2.692 2.692 0 0 1-.824-1.932V23.218c0-.363-.148-.71-.412-.966a1.428 1.428 0 0 0-.994-.4c-.373 0-.73.144-.994.4a1.346 1.346 0 0 0-.412.966v9.56a3.76 3.76 0 0 1-2.016-1.282 3.576 3.576 0 0 1-.797-2.208v-9.105a5.01 5.01 0 0 1 1.051-3.029 5.26 5.26 0 0 1 2.7-1.827v-2.724c0-4.513 2.637-7.14 6.215-7.14h13.818c2.33 0 6.197 1.85 6.216 7.14v2.742a5.26 5.26 0 0 1 2.7 1.828 5.01 5.01 0 0 1 1.05 3.028l.006.164z"/>
    <path fill="#fff" d="M36.334 21.519v-9.936C36.334 7.975 33.54 5 30.05 5H15.95c-3.444 0-6.283 2.926-6.283 6.583v9.936"/>
    <path fill="currentColor" d="M11.75 26.481v6.297h5.625v5.463h11.25v-5.463h5.625V26.48h-22.5z"/>
    <path fill="#3B058F" d="M14.45 12.177a.875.875 0 0 0 .608-.243.817.817 0 0 0 .251-.587c0-.22.09-.432.252-.587a.875.875 0 0 1 .608-.244c.227 0 .446.088.607.244a.816.816 0 0 1 .252.587c0 .22.09.431.252.587.16.155.38.243.607.243a.875.875 0 0 0 .608-.243.816.816 0 0 0 .252-.587c0-.66-.272-1.294-.756-1.762a2.625 2.625 0 0 0-1.822-.729c-.684 0-1.34.262-1.823.73a2.449 2.449 0 0 0-.755 1.76c0 .22.09.432.252.588.16.155.38.243.607.243zM29.877 8.861a2.624 2.624 0 0 0-1.82.732 2.449 2.449 0 0 0-.752 1.759c0 .22.09.431.252.587.16.156.38.243.607.243a.875.875 0 0 0 .608-.243.816.816 0 0 0 .252-.587c0-.22.09-.431.251-.587a.875.875 0 0 1 .608-.243c.228 0 .446.087.607.243a.816.816 0 0 1 .252.587c0 .22.09.431.252.587.16.156.38.243.607.243a.875.875 0 0 0 .608-.243.816.816 0 0 0 .252-.587c0-.328-.067-.652-.197-.954a2.486 2.486 0 0 0-.56-.81 2.585 2.585 0 0 0-.839-.539 2.657 2.657 0 0 0-.988-.188zM14.37 17.102a24.348 24.348 0 0 0 8.639 1.738 24.349 24.349 0 0 0 8.627-1.738c.166-.055.318-.143.447-.258a1.21 1.21 0 0 0 .027-1.812 1.33 1.33 0 0 0-1.46-.227 21.686 21.686 0 0 1-7.636 1.528 21.685 21.685 0 0 1-7.653-1.55 1.326 1.326 0 0 0-1.46.228 1.21 1.21 0 0 0 .027 1.812c.13.114.282.202.448.257l-.006.023z"/>
</svg>