<svg width="42" height="48" viewBox="0 0 42 48" fill="none" xmlns="http://www.w3.org/2000/svg">
    <path opacity="0.2" d="M38 43.2778C38 46 30.3888 48 21 48C11.6112 48 4 46 4 43.2778C4 40.5556 11.6112 39 21 39C30.3888 39 38 40.5556 38 43.2778Z" fill="#20605E"/>
    <path d="M5.13032 11.2498L7.63587 3.43998L13.3637 1.77051L32.4545 2.46612L36.2724 6.51013L35.7273 11.2498L39.4103 15.941L40.2602 29.9996L34.3635 35.299L33.3192 41.5595L28.6362 43.3681L24.1118 38.0815L17.0291 37.4988L14.3151 42.8116L9.54478 42.2552L6.83015 37.4994L5.72696 32.6557L3.27977 30.9862L0.880737 19.7173L3.27977 13.1246L5.13032 11.2498Z" fill="white"/>
    <path d="M15.2725 30H26.7271V37.4998H15.2725V30Z" fill="currentColor"/>
    <path d="M7.63654 24.375H34.3636V31.8748H7.63654V24.375Z" fill="currentColor"/>
    <path d="M29.5909 3.75021C32.2267 3.75021 34.364 5.84873 34.364 8.43752V13.4693C36.5829 14.2445 38.1818 16.3041 38.1818 18.7498C38.1818 19.9135 38.1818 27.1679 38.1818 28.125C38.1818 30.1957 36.4724 31.8747 34.364 31.8747C34.3311 31.8747 34.3011 31.8663 34.2682 31.8658C34.0348 33.0082 33.3679 33.9888 32.4545 34.666V38.4373C32.4545 39.9905 31.1729 41.2498 29.5909 41.2498C28.0095 41.2498 26.7272 39.9905 26.7272 38.4373V35.6248C24.4024 35.6248 17.598 35.6248 15.2732 35.6248V38.4373C15.2732 39.9905 13.991 41.2498 12.4096 41.2498C10.8276 41.2498 9.5459 39.9905 9.5459 38.4373V34.666C8.63253 33.9888 7.96563 33.0082 7.73162 31.8658C7.69932 31.8663 7.66929 31.8747 7.63642 31.8747C5.5275 31.8747 3.8186 30.1957 3.8186 28.125C3.8186 27.1679 3.8186 19.9135 3.8186 18.7498C3.8186 16.3041 5.41701 14.2445 7.63642 13.4693V8.43752C7.63642 5.84873 9.77311 3.75021 12.4096 3.75021C15.0449 3.75021 26.955 3.75021 29.5909 3.75021ZM29.5907 0H12.4093C7.67247 0 3.81839 3.78524 3.81839 8.4375V11.275C1.46129 13.0141 0 15.767 0 18.7498V28.125C0 31.3421 2.07379 34.0934 4.97711 35.1557C5.19808 35.528 5.44909 35.8841 5.7273 36.2208V38.4373C5.7273 42.0562 8.72467 45 12.4093 45C15.7693 45 18.5582 42.5509 19.0228 39.375H22.9772C23.4418 42.5509 26.2307 45 29.5907 45C33.2753 45 36.2727 42.0562 36.2727 38.4373V36.2208C36.5509 35.8841 36.8019 35.5285 37.0229 35.1557C39.9262 34.0934 42 31.3421 42 28.125V18.7498C42 15.767 40.5387 13.0141 38.1816 11.275V8.4375C38.1816 3.78524 34.3275 0 29.5907 0Z" fill="#303838"/>
    <path d="M15.2729 9.37481C15.2729 10.4104 14.4185 11.2502 13.364 11.2502C12.3095 11.2502 11.4551 10.4104 11.4551 9.37481C11.4551 8.33974 12.3095 7.5 13.364 7.5C14.4185 7.5 15.2729 8.33974 15.2729 9.37481Z" fill="#303838"/>
    <path d="M30.5453 9.37481C30.5453 10.4104 29.6903 11.2502 28.6358 11.2502C27.5819 11.2502 26.7269 10.4104 26.7269 9.37481C26.7269 8.33974 27.5819 7.5 28.6358 7.5C29.6903 7.5 30.5453 8.33974 30.5453 9.37481Z" fill="#303838"/>
    <path d="M20.9998 18.7579C17.5169 18.7579 14.0362 18.0823 10.7227 16.7317C9.74809 16.3343 9.28687 15.237 9.69143 14.2809C10.096 13.3254 11.2139 12.873 12.1862 13.2675C17.8688 15.5859 24.1287 15.5859 29.8135 13.2675C30.7914 12.873 31.9043 13.326 32.3088 14.2809C32.7122 15.2375 32.251 16.3343 31.277 16.7317C27.9629 18.0823 24.4805 18.7579 20.9998 18.7579Z" fill="#303838"/>
    <path d="M7.6359 37.4988C6.58201 37.4988 5.72699 36.6597 5.72699 35.624V20.6238C5.72699 19.5888 6.58201 18.749 7.6359 18.749C8.69036 18.749 9.54538 19.5888 9.54538 20.6238V35.624C9.54538 36.6597 8.69036 37.4988 7.6359 37.4988Z" fill="#303838"/>
    <path d="M34.364 37.4988C33.3096 37.4988 32.4551 36.6597 32.4551 35.624V20.6238C32.4551 19.5888 33.3096 18.749 34.364 18.749C35.4185 18.749 36.273 19.5888 36.273 20.6238V35.624C36.273 36.6597 35.4185 37.4988 34.364 37.4988Z" fill="#303838"/>
</svg>
