<svg width="107" height="66" viewBox="0 0 107 66" fill="currentColor" xmlns="http://www.w3.org/2000/svg">
<path fill-rule="evenodd" clip-rule="evenodd" d="M3.76514 55.8635C6.16505 52.8962 11.2025 48.3186 17.6774 52.7986C24.745 57.6919 34.6035 65.0975 53.6488 65.3303C72.6923 65.5678 87.7594 51.8162 95.9901 38.5843C102.371 28.3261 106.667 22.6367 106.667 22.6367C106.667 22.6367 101.74 22.4033 90.6772 12.0046C79.6148 1.61122 56.852 -5.14055 34.781 5.02884C12.7095 15.1965 4.10251 47.6137 0.5 53.8739L3.76514 55.8635ZM46.9068 16.9086C46.1324 13.6932 43.4783 12.4174 39.3791 13.3993C33.7241 14.7533 30.5752 18.7647 31.3608 22.0312C31.5973 23.009 32.2372 23.4581 33.0394 23.2694C33.7265 23.1048 34.0031 22.7491 34.0031 22.7491C33.5737 21.0647 34.2656 19.1134 35.976 17.6665C36.8389 21.8513 37.063 29.5226 33.6976 30.3275C32.6448 30.5785 31.9117 30.1517 31.681 29.1916C31.4457 28.2115 31.9606 27.4384 33.0588 27.1739C33.0588 27.1739 32.5693 25.9357 31.0576 26.2978C29.5224 26.6647 28.4826 28.0763 28.9874 30.1741C29.5595 32.5475 31.7949 33.4853 34.1275 32.9256C37.2435 32.183 38.679 29.4985 39.2441 26.5136C44.9203 25.2513 47.9295 21.1558 46.9068 16.9086ZM39.5307 23.8889C39.6209 21.5466 39.3249 19.3043 39.0058 17.982C38.7917 17.0907 38.3045 16.6774 37.7171 16.5487C38.301 16.2641 38.9486 16.0348 39.6811 15.862C41.9707 15.3152 43.4258 16.0266 43.877 17.8997C44.5859 20.8423 42.731 23.0982 39.5307 23.8889ZM52.8408 28.2336C54.9977 27.718 56.7565 26.3358 57.7662 24.96C58.4976 26.0536 59.653 26.6268 61.2083 26.2534C63.6347 25.6732 64.2275 23.8218 64.2275 23.8218C64.2275 23.8218 64.9276 25.4133 66.9406 24.9312C68.6256 24.5291 69.8678 23.2109 70.5053 21.8863C71.0916 22.322 71.8342 22.4354 72.6434 22.242C74.8416 21.7176 76.0347 19.4288 76.0347 19.4288C76.0347 19.4288 76.0884 21.055 76.1279 21.6265C72.1821 22.8352 69.2084 24.4644 69.8459 27.1089C70.1644 28.4335 71.7315 29.216 73.6779 28.7516C76.677 28.0337 78.703 25.789 78.7985 22.8687C81.7865 21.4066 83.2669 18.4951 82.8387 16.7155C82.6246 15.8218 82.0047 15.5596 81.5523 15.5996C81.2964 17.3487 80.4848 19.1084 78.6293 20.4488C78.3397 17.2329 79.3429 13.857 78.8569 11.848C78.5626 10.6146 77.6042 10.3659 76.69 10.5834C76.1863 10.7057 75.8808 10.9461 75.8808 10.9461C76.516 13.9769 75.3612 19.2506 73.1654 19.7757C72.7525 19.8756 72.5071 19.6663 72.4139 19.2794C72.0972 17.9554 73.3859 15.1616 72.933 13.2902C72.6434 12.0791 71.7315 11.8151 70.8173 12.035C70.3361 12.1508 69.8052 12.4706 69.8052 12.4706C70.4157 14.9929 69.2013 17.3216 69.4107 19.5887C69.012 20.7287 68.28 21.8152 67.4042 22.0245C66.7619 22.1779 66.3301 21.9886 66.0977 21.0332C65.9285 20.3242 65.968 19.1801 66.1715 15.8977C66.1715 15.8977 65.7103 15.7907 65.068 15.9441C64.2228 16.1464 63.5186 16.7484 63.4714 18.0642C63.4153 20.3442 63.1771 23.2756 61.2997 23.7242C60.5884 23.8953 60.0853 23.509 59.8777 22.6424C59.1021 19.4241 60.8562 16.2528 63.7191 15.5684C66.1001 14.9993 67.2479 15.5437 67.2479 15.5437C67.2479 15.5437 67.393 15.144 67.3086 14.7818C67.0479 13.7082 66.0464 12.6682 63.2773 13.3302C59.0685 14.3373 56.4468 18.3041 56.9346 22.3772C56.1389 23.6689 54.75 25.2669 52.7269 25.749C51.9478 25.9354 51.4034 25.6826 51.0065 24.6425C53.2648 23.0645 57.0107 17.8949 55.8806 13.195C55.4683 11.4812 54.3902 10.6281 52.5571 11.0661C48.3235 12.0791 46.9734 20.1531 48.0498 24.6243C48.7039 27.3399 50.2321 28.858 52.8408 28.2336ZM73.6667 26.4868C73.0692 26.6291 72.6947 26.5756 72.6121 26.2311C72.4251 25.4533 74.1792 24.5043 76.1102 23.9711C75.9498 24.7089 75.0155 26.1623 73.6667 26.4868ZM52.6621 13.915C53.0289 13.8285 53.2819 14.0796 53.381 14.4929C53.9354 16.7976 52.3725 20.4533 50.5877 21.9913C50.3866 19.1446 51.1504 14.2777 52.6621 13.915ZM39.5384 37.2784C38.0267 37.6388 37.9235 39.014 37.9235 39.014C39.0223 38.7523 39.9153 39.5519 40.2509 40.9459C41.1851 44.8256 39.4806 48.8018 36.229 49.5796C34.2591 50.0506 32.8412 49.184 32.2573 46.7635C31.2865 42.7238 33.0989 37.5853 36.7864 36.7058C39.0972 36.1519 40.2385 36.7722 40.2385 36.7722C40.2385 36.7722 40.3523 36.3342 40.2585 35.9432C39.9731 34.7586 38.8117 33.6585 36.0196 34.33C30.456 35.6581 27.9523 42.6527 29.1549 47.653C29.9954 51.1418 32.3699 53.1572 36.6265 52.1401C41.894 50.8795 44.2751 44.8792 43.0725 39.8835C42.5664 37.7811 41.0725 36.9121 39.5384 37.2784ZM80.9773 35.7166C80.7207 37.4657 79.9091 39.2283 78.0524 40.5658C77.7623 37.3546 78.7655 33.9763 78.2813 31.968C77.9852 30.7339 77.0285 30.4811 76.1126 30.6986C75.6083 30.8209 75.3034 31.0632 75.3034 31.0632C75.9362 34.0945 74.7861 39.3706 72.5879 39.8944C72.1751 39.9944 71.9327 39.7839 71.8389 39.397C71.5216 38.0748 72.8085 35.281 72.3585 33.4078C72.0659 32.199 71.1547 31.9362 70.2382 32.152C69.7586 32.2678 69.2302 32.59 69.2302 32.59C69.8365 35.1122 68.6233 37.4392 68.8332 39.7034C68.4363 40.8463 67.7008 41.9304 66.825 42.1415C66.185 42.2949 65.7521 42.108 65.5203 41.1526C65.3511 40.4436 65.3912 39.2971 65.5941 36.017C65.5941 36.017 65.1322 35.91 64.4905 36.0635C63.643 36.2634 62.9411 36.8678 62.8945 38.1836C62.8409 40.4635 62.6002 43.3973 60.7229 43.8435C60.0116 44.0123 59.5073 43.6284 59.3003 42.7594C58.5241 39.5417 60.2788 36.3698 63.1399 35.6831C65.5203 35.1163 66.671 35.6608 66.671 35.6608C66.671 35.6608 66.8179 35.2639 66.7288 34.9012C66.4723 33.8276 65.4696 32.7876 62.6981 33.4478C58.3796 34.4808 55.7332 38.6327 56.4002 42.81C55.8311 43.9394 54.8549 45.1752 53.2595 45.5574C52.251 45.7978 51.5656 45.3575 51.0413 44.3927C53.4972 43.228 55.3828 41.2084 54.7747 38.6768C54.4781 37.4439 53.5603 36.6502 52.1147 36.6838C52.1147 36.6838 53.118 34.9188 52.6143 32.8211C52.2734 31.4053 51.1203 30.741 49.5396 31.119C44.2067 32.3942 44.4904 44.7331 45.2435 47.8597C45.5561 49.1596 46.455 49.4753 47.2335 49.2889C47.736 49.1708 48.1265 48.8821 48.1265 48.8821C47.8976 47.8285 47.8339 46.1529 48.0569 44.8683C48.9398 46.9284 50.7552 48.7375 53.3657 48.1107C55.1799 47.6774 56.5471 46.5286 57.3451 45.3022C58.0806 46.2482 59.18 46.7197 60.6291 46.3752C63.0567 45.7931 63.6501 43.937 63.6501 43.937C63.6501 43.937 64.3472 45.5327 66.3632 45.0529C68.0488 44.6502 69.2927 43.3303 69.9256 42.0057C70.5142 42.4396 71.2544 42.553 72.0659 42.3596C74.2641 41.8346 75.4567 39.5458 75.4567 39.5458C75.4567 39.5458 75.5104 41.1749 75.5511 41.7458C71.6047 42.9546 68.6327 44.5814 69.2703 47.2282C69.587 48.5528 71.1547 49.3354 73.1005 48.8709C76.1014 48.1531 78.1256 45.9083 78.2241 42.9881C81.2108 41.5236 82.6918 38.6104 82.263 36.8296C82.0472 35.9412 81.4273 35.6772 80.9773 35.7166ZM47.5792 40.3723C47.6606 38.4968 48.4497 34.2303 49.5709 33.961C49.8234 33.8987 50.028 34.0433 50.0935 34.3167C50.5942 36.3921 48.5164 38.5321 47.5792 40.3723ZM48.3695 43.1509C48.8555 41.4459 49.7921 39.7009 51.0513 39.3993C51.6453 39.2565 51.9384 39.4746 52.028 39.8414C52.3235 41.0726 50.5978 42.5483 48.3695 43.1509ZM73.0875 46.6033C72.4941 46.7462 72.1173 46.6927 72.0353 46.3499C71.8477 45.5727 73.6047 44.6232 75.5352 44.0876C75.3724 44.8254 74.4381 46.2794 73.0875 46.6033Z" fill="#3C0098"/>
</svg>
