<svg width="28" height="28" viewBox="0 0 28 28" fill="none" xmlns="http://www.w3.org/2000/svg">
<path d="M18.4526 6.90552H9.54509C7.35003 6.90552 5.60034 8.68701 5.60034 10.8503V18.1671V18.2944V18.5807C5.60034 19.9486 6.71378 21.0939 8.11352 21.0939H19.8841C21.2521 21.0939 22.3973 19.9804 22.3973 18.5807V18.2944V18.1989V10.8821C22.3973 8.68701 20.6158 6.90552 18.4526 6.90552Z" fill="#3B058E"/>
<path d="M23.829 10.8504V18.5808C23.829 20.7441 22.0794 22.5256 19.8843 22.5256H8.11369C5.91863 22.5256 4.16895 20.7759 4.16895 18.6127V10.8504C4.16895 7.89187 6.58669 5.47412 9.54525 5.47412H18.4527C21.4113 5.47412 23.829 7.89187 23.829 10.8504Z" fill="#3C0098"/>
<path d="M22.3978 18.3262V10.8503C22.3978 8.68701 20.6481 6.90552 18.4531 6.90552H9.54557C7.35051 6.90552 5.60083 8.68701 5.60083 10.8503V18.3262H22.3978Z" fill="white"/>
<path d="M19.5661 14.2544L19.5343 14.2862C17.8483 14.9861 15.9395 15.3679 14.0944 15.3679H13.999C10.6905 15.3679 8.4636 14.2862 8.36816 14.2226C8.11366 14.0954 8.01822 13.8091 8.14547 13.5546C8.27272 13.3001 8.55904 13.2046 8.81354 13.3319C8.84535 13.3319 10.9768 14.3817 13.999 14.3817C14.0308 14.3817 14.0626 14.3817 14.0944 14.3817C15.8123 14.3817 17.5938 14.0317 19.1208 13.3637C19.2162 13.3319 19.248 13.3001 19.3116 13.3001C19.5661 13.2364 19.8525 13.4273 19.8843 13.6818C19.9161 13.9363 19.7888 14.1908 19.5661 14.2544Z" fill="#3C0098"/>
<path d="M9.70432 11.8366C10.1611 11.8366 10.5314 11.4663 10.5314 11.0095C10.5314 10.5527 10.1611 10.1824 9.70432 10.1824C9.24751 10.1824 8.8772 10.5527 8.8772 11.0095C8.8772 11.4663 9.24751 11.8366 9.70432 11.8366Z" fill="#3C0098"/>
<path d="M18.3254 11.8366C18.7822 11.8366 19.1525 11.4663 19.1525 11.0095C19.1525 10.5527 18.7822 10.1824 18.3254 10.1824C17.8686 10.1824 17.4983 10.5527 17.4983 11.0095C17.4983 11.4663 17.8686 11.8366 18.3254 11.8366Z" fill="#3C0098"/>
<path d="M8.3044 21.094H19.6614C21.1566 21.094 22.3655 19.8852 22.3655 18.39V18.1991H5.60034V18.39C5.60034 19.8852 6.80922 21.094 8.3044 21.094Z" fill="#0CD0CD"/>
</svg>
