<svg width="64" height="64" viewBox="0 0 64 64" fill="none" xmlns="http://www.w3.org/2000/svg">
<g id="Group">
<circle id="Ellipse" cx="32" cy="32" r="32" fill="#EEF6F6"/>
<g id="Icons / colorful / add-money">
<g id="Group 25">
<g id="Group 3">
<mask id="mask0" mask-type="alpha" maskUnits="userSpaceOnUse" x="4" y="21" width="55" height="31">
<path id="Clip 2" fill-rule="evenodd" clip-rule="evenodd" d="M4.74365 37.7203L18.5205 51.1627C38.3 51.1627 38.3 35.247 58.077 35.247L44.3001 21.8047C24.5231 21.8047 24.5231 37.7203 4.74365 37.7203Z" fill="white"/>
</mask>
<g mask="url(#mask0)">
<path id="Fill 1" fill-rule="evenodd" clip-rule="evenodd" d="M0.915314 54.9051H61.9091V18.0596H0.915314V54.9051Z" fill="#E5EAED"/>
</g>
</g>
<g id="Group 6">
<mask id="mask1" mask-type="alpha" maskUnits="userSpaceOnUse" x="9" y="23" width="45" height="27">
<path id="Clip 5" fill-rule="evenodd" clip-rule="evenodd" d="M25.906 31.3999C30.5255 27.6815 34.8926 24.1638 43.4116 23.9365L53.1727 33.4598C45.6385 34.5502 41.2144 38.1066 36.9166 41.5663C32.2996 45.2823 27.9275 48.8025 19.411 49.0297L9.6499 39.504C17.1841 38.4161 21.6057 34.8596 25.906 31.3999ZM13.4717 40.6088L20.1672 47.1414C27.496 46.7401 31.3114 43.6696 35.7057 40.135C39.3182 37.2289 43.3364 33.9916 49.3465 32.3549L42.656 25.8271C35.3247 26.2236 31.5093 29.2941 27.115 32.8311C23.505 35.7372 19.4843 38.9721 13.4717 40.6088Z" fill="white"/>
</mask>
<g mask="url(#mask1)">
<path id="Fill 4" fill-rule="evenodd" clip-rule="evenodd" d="M5.81808 52.7727H56.9988V20.1943H5.81808V52.7727Z" fill="#D3D8E1"/>
</g>
</g>
<g id="Group 9">
<mask id="mask2" mask-type="alpha" maskUnits="userSpaceOnUse" x="24" y="29" width="15" height="15">
<path id="Clip 8" fill-rule="evenodd" clip-rule="evenodd" d="M27.4169 31.1654C28.7135 30.2781 30.2178 29.8066 31.7692 29.8066C34.0282 29.8066 36.124 30.8438 37.376 32.5797C39.5682 35.6236 38.67 39.9392 35.3718 42.2021C34.0728 43.0918 32.5709 43.5633 31.017 43.5633C28.7605 43.5633 26.6648 42.5261 25.4128 40.7902C24.3439 39.3057 23.9703 37.4828 24.3562 35.655C24.7422 33.8514 25.8284 32.2558 27.4169 31.1654ZM26.9697 39.7215C27.8778 40.9811 29.3549 41.7064 31.0177 41.7064C32.1756 41.7064 33.3039 41.3535 34.2763 40.6838C36.7184 39.0107 37.4087 35.8532 35.8203 33.6483C34.9122 32.3862 33.435 31.6634 31.7698 31.6634C30.6143 31.6634 29.4861 32.0163 28.5137 32.6836C27.3211 33.5032 26.507 34.6927 26.2225 36.0321C25.9404 37.3522 26.2076 38.6626 26.9697 39.7215Z" fill="white"/>
</mask>
<g mask="url(#mask2)">
<path id="Fill 7" fill-rule="evenodd" clip-rule="evenodd" d="M20.3785 47.3058H42.4047V26.0664H20.3785V47.3058Z" fill="#D3D8E1"/>
</g>
</g>
<g id="Group 12">
<mask id="mask3" mask-type="alpha" maskUnits="userSpaceOnUse" x="4" y="14" width="55" height="31">
<path id="Clip 11" fill-rule="evenodd" clip-rule="evenodd" d="M4.74524 30.5826L18.5221 44.0274C38.3016 44.0274 38.3016 28.1118 58.0786 28.1118L44.3017 14.667C24.5247 14.667 24.5247 30.5826 4.74524 30.5826Z" fill="white"/>
</mask>
<g mask="url(#mask3)">
<path id="Fill 10" fill-rule="evenodd" clip-rule="evenodd" d="M0.916779 47.7704H61.9105V10.9248H0.916779V47.7704Z" fill="#EFF2F4"/>
</g>
</g>
<g id="Group 15">
<mask id="mask4" mask-type="alpha" maskUnits="userSpaceOnUse" x="9" y="16" width="45" height="26">
<path id="Clip 14" fill-rule="evenodd" clip-rule="evenodd" d="M25.906 24.2632C30.5255 20.5448 34.8926 17.0295 43.4116 16.7998L53.1727 26.3255C45.6385 27.4135 41.2144 30.9723 36.9166 34.432C32.2996 38.148 27.9275 41.6657 19.411 41.893L9.6499 32.3697C17.1841 31.2818 21.6057 27.7229 25.906 24.2632ZM13.4717 33.4746L20.1672 40.0047C27.496 39.6058 31.3114 36.5354 35.7057 33.0007C39.3182 30.0946 43.3364 26.8574 49.3465 25.2206L42.656 18.6904C35.3247 19.0893 31.5093 22.1598 27.115 25.6969C23.505 28.6029 19.4843 31.8354 13.4717 33.4746Z" fill="white"/>
</mask>
<g mask="url(#mask4)">
<path id="Fill 13" fill-rule="evenodd" clip-rule="evenodd" d="M5.81808 45.636H56.9988V13.0576H5.81808V45.636Z" fill="#E5EAED"/>
</g>
</g>
<g id="Group 18">
<mask id="mask5" mask-type="alpha" maskUnits="userSpaceOnUse" x="24" y="22" width="15" height="15">
<path id="Clip 17" fill-rule="evenodd" clip-rule="evenodd" d="M27.4169 24.0306C28.7135 23.1409 30.2178 22.6719 31.7692 22.6719C34.0282 22.6719 36.124 23.7091 37.376 25.445C39.5682 28.4864 38.67 32.8044 35.3718 35.0674C34.0728 35.9571 32.5709 36.4261 31.017 36.4261C28.7605 36.4261 26.6648 35.3913 25.4128 33.653C24.3439 32.171 23.9703 30.348 24.3562 28.5203C24.7422 26.7167 25.8284 25.121 27.4169 24.0306ZM26.9697 32.5869C27.8778 33.8466 29.3549 34.5719 31.0177 34.5719C32.1756 34.5719 33.3039 34.2165 34.2763 33.5492C36.7184 31.8761 37.4087 28.7186 35.8203 26.5137C34.9122 25.2517 33.435 24.5288 31.7698 24.5288C30.6143 24.5288 29.4861 24.8818 28.5137 25.549C27.3211 26.3686 26.507 27.5557 26.2225 28.8975C25.9404 30.2176 26.2076 31.528 26.9697 32.5869Z" fill="white"/>
</mask>
<g mask="url(#mask5)">
<path id="Fill 16" fill-rule="evenodd" clip-rule="evenodd" d="M20.3785 40.1691H42.4047V18.9297H20.3785V40.1691Z" fill="#E5EAED"/>
</g>
</g>
</g>
</g>
<g id="Group 21">
<mask id="mask6" mask-type="alpha" maskUnits="userSpaceOnUse" x="0" y="0" width="22" height="22">
<path id="Clip 20" fill-rule="evenodd" clip-rule="evenodd" d="M0 10.668C0 16.5572 4.77467 21.3333 10.6653 21.3333C16.5587 21.3333 21.3333 16.5572 21.3333 10.668C21.3333 4.77616 16.5587 0 10.6653 0C4.77467 0 0 4.77616 0 10.668Z" fill="white"/>
</mask>
<g mask="url(#mask6)">
<path id="Fill 19" fill-rule="evenodd" clip-rule="evenodd" d="M-4.18402 25.5146H25.5178V-4.17969H-4.18402V25.5146Z" fill="#DD3337"/>
</g>
</g>
<g id="Group 24">
<mask id="mask7" mask-type="alpha" maskUnits="userSpaceOnUse" x="3" y="3" width="16" height="16">
<path id="Clip 23" fill-rule="evenodd" clip-rule="evenodd" d="M6.72865 7.06069C6.20212 7.58722 6.21461 8.416 6.76611 8.927L8.62626 10.6656L6.76625 12.4041C6.20233 12.9276 6.20236 13.7813 6.76477 14.3063C7.32717 14.8313 8.24008 14.8313 8.80244 14.3064L10.6671 12.5663L12.5288 14.3065C13.0912 14.8315 14.0041 14.8316 14.5665 14.3066C14.8485 14.0433 14.9902 13.699 14.9887 13.3547C14.9886 13.012 14.8484 12.6662 14.5664 12.4029L12.7047 10.6658L14.5663 8.92575C14.8483 8.6656 14.9885 8.31976 14.9884 7.97391C14.99 7.63274 14.8482 7.28845 14.5662 7.02516C14.0038 6.50014 13.0925 6.49855 12.5285 7.02508L10.6654 8.76358L8.80216 7.02494C8.24131 6.49836 7.32685 6.49988 6.76448 7.02486L6.72865 7.06069Z" fill="white"/>
</mask>
<g mask="url(#mask7)">
<path id="Fill 22" fill-rule="evenodd" clip-rule="evenodd" d="M10.6678 23.0283L23.032 10.6641L10.6668 -1.70112L-1.69742 10.6631L10.6678 23.0283Z" fill="white"/>
</g>
</g>
</g>
</svg>
