<svg width="64" height="64" viewBox="0 0 64 64" fill="none" xmlns="http://www.w3.org/2000/svg">
<g id="Group">
<circle id="Ellipse" cx="32" cy="32" r="32" fill="#EEF6F6"/>
<g id="Icons / colorful / add-money">
<g id="Group 25">
<g id="Group 3">
<mask id="mask0" mask-type="alpha" maskUnits="userSpaceOnUse" x="4" y="21" width="55" height="31">
<path id="Clip 2" fill-rule="evenodd" clip-rule="evenodd" d="M4.74371 37.7203L18.5206 51.1627C38.3 51.1627 38.3 35.247 58.077 35.247L44.3002 21.8047C24.5232 21.8047 24.5232 37.7203 4.74371 37.7203Z" fill="white"/>
</mask>
<g mask="url(#mask0)">
<path id="Fill 1" fill-rule="evenodd" clip-rule="evenodd" d="M0.915344 54.9051H61.9091V18.0596H0.915344V54.9051Z" fill="#1AAA52"/>
</g>
</g>
<g id="Group 6">
<mask id="mask1" mask-type="alpha" maskUnits="userSpaceOnUse" x="9" y="23" width="45" height="27">
<path id="Clip 5" fill-rule="evenodd" clip-rule="evenodd" d="M25.9061 31.3999C30.5256 27.6815 34.8927 24.1638 43.4117 23.9365L53.1727 33.4598C45.6385 34.5502 41.2145 38.1066 36.9166 41.5663C32.2996 45.2823 27.9275 48.8025 19.411 49.0297L9.64996 39.504C17.1842 38.4161 21.6057 34.8596 25.9061 31.3999ZM13.4718 40.6088L20.1672 47.1414C27.4961 46.7401 31.3114 43.6696 35.7058 40.135C39.3182 37.2289 43.3365 33.9916 49.3465 32.3549L42.6561 25.8271C35.3247 26.2236 31.5094 29.2941 27.115 32.8311C23.505 35.7372 19.4843 38.9721 13.4718 40.6088Z" fill="white"/>
</mask>
<g mask="url(#mask1)">
<path id="Fill 4" fill-rule="evenodd" clip-rule="evenodd" d="M5.81818 52.7727H56.9989V20.1943H5.81818V52.7727Z" fill="#12813D"/>
</g>
</g>
<g id="Group 9">
<mask id="mask2" mask-type="alpha" maskUnits="userSpaceOnUse" x="24" y="29" width="15" height="15">
<path id="Clip 8" fill-rule="evenodd" clip-rule="evenodd" d="M27.417 31.1654C28.7135 30.2781 30.2179 29.8066 31.7693 29.8066C34.0283 29.8066 36.124 30.8438 37.376 32.5797C39.5682 35.6236 38.6701 39.9392 35.3718 42.2021C34.0728 43.0918 32.5709 43.5633 31.0171 43.5633C28.7605 43.5633 26.6648 42.5261 25.4128 40.7902C24.3439 39.3057 23.9703 37.4828 24.3563 35.655C24.7423 33.8514 25.8285 32.2558 27.417 31.1654ZM26.9698 39.7215C27.8778 40.9811 29.355 41.7064 31.0177 41.7064C32.1757 41.7064 33.304 41.3535 34.2764 40.6838C36.7185 39.0107 37.4088 35.8532 35.8203 33.6483C34.9123 32.3862 33.4351 31.6634 31.7699 31.6634C30.6144 31.6634 29.4861 32.0163 28.5137 32.6836C27.3211 33.5032 26.5071 34.6927 26.2225 36.0321C25.9405 37.3522 26.2077 38.6626 26.9698 39.7215Z" fill="white"/>
</mask>
<g mask="url(#mask2)">
<path id="Fill 7" fill-rule="evenodd" clip-rule="evenodd" d="M20.3786 47.3058H42.4047V26.0664H20.3786V47.3058Z" fill="#12813D"/>
</g>
</g>
<g id="Group 12">
<mask id="mask3" mask-type="alpha" maskUnits="userSpaceOnUse" x="4" y="14" width="55" height="31">
<path id="Clip 11" fill-rule="evenodd" clip-rule="evenodd" d="M4.7453 30.5826L18.5222 44.0274C38.3016 44.0274 38.3016 28.1118 58.0786 28.1118L44.3018 14.667C24.5248 14.667 24.5248 30.5826 4.7453 30.5826Z" fill="white"/>
</mask>
<g mask="url(#mask3)">
<path id="Fill 10" fill-rule="evenodd" clip-rule="evenodd" d="M0.91687 47.7704H61.9106V10.9248H0.91687V47.7704Z" fill="#47BC73"/>
</g>
</g>
<g id="Group 15">
<mask id="mask4" mask-type="alpha" maskUnits="userSpaceOnUse" x="9" y="16" width="45" height="26">
<path id="Clip 14" fill-rule="evenodd" clip-rule="evenodd" d="M25.9061 24.2632C30.5256 20.5448 34.8927 17.0295 43.4117 16.7998L53.1727 26.3255C45.6385 27.4135 41.2145 30.9723 36.9166 34.432C32.2996 38.148 27.9275 41.6657 19.411 41.893L9.64996 32.3697C17.1842 31.2818 21.6057 27.7229 25.9061 24.2632ZM13.4718 33.4746L20.1672 40.0047C27.4961 39.6058 31.3114 36.5354 35.7058 33.0007C39.3182 30.0946 43.3365 26.8574 49.3465 25.2206L42.6561 18.6904C35.3247 19.0893 31.5094 22.1598 27.115 25.6969C23.505 28.6029 19.4843 31.8354 13.4718 33.4746Z" fill="white"/>
</mask>
<g mask="url(#mask4)">
<path id="Fill 13" fill-rule="evenodd" clip-rule="evenodd" d="M5.81818 45.636H56.9989V13.0576H5.81818V45.636Z" fill="#1AAA52"/>
</g>
</g>
<g id="Group 18">
<mask id="mask5" mask-type="alpha" maskUnits="userSpaceOnUse" x="24" y="22" width="15" height="15">
<path id="Clip 17" fill-rule="evenodd" clip-rule="evenodd" d="M27.417 24.0306C28.7135 23.1409 30.2179 22.6719 31.7693 22.6719C34.0283 22.6719 36.124 23.7091 37.376 25.445C39.5682 28.4864 38.6701 32.8044 35.3718 35.0674C34.0728 35.9571 32.5709 36.4261 31.0171 36.4261C28.7605 36.4261 26.6648 35.3913 25.4128 33.653C24.3439 32.171 23.9703 30.348 24.3563 28.5203C24.7423 26.7167 25.8285 25.121 27.417 24.0306ZM26.9698 32.5869C27.8778 33.8466 29.355 34.5719 31.0177 34.5719C32.1757 34.5719 33.304 34.2165 34.2764 33.5492C36.7185 31.8761 37.4088 28.7186 35.8203 26.5137C34.9123 25.2517 33.4351 24.5288 31.7699 24.5288C30.6144 24.5288 29.4861 24.8818 28.5137 25.549C27.3211 26.3686 26.5071 27.5557 26.2225 28.8975C25.9405 30.2176 26.2077 31.528 26.9698 32.5869Z" fill="white"/>
</mask>
<g mask="url(#mask5)">
<path id="Fill 16" fill-rule="evenodd" clip-rule="evenodd" d="M20.3786 40.1691H42.4047V18.9297H20.3786V40.1691Z" fill="#1AAA52"/>
</g>
</g>
</g>
</g>
<g id="Group 21">
<mask id="mask6" mask-type="alpha" maskUnits="userSpaceOnUse" x="0" y="0" width="22" height="22">
<path id="Clip 20" fill-rule="evenodd" clip-rule="evenodd" d="M0 10.668C0 16.5572 4.77467 21.3333 10.6653 21.3333C16.5587 21.3333 21.3333 16.5572 21.3333 10.668C21.3333 4.77616 16.5587 0 10.6653 0C4.77467 0 0 4.77616 0 10.668Z" fill="white"/>
</mask>
<g mask="url(#mask6)">
<path id="Fill 19" fill-rule="evenodd" clip-rule="evenodd" d="M-4.18402 25.5146H25.5178V-4.17969H-4.18402V25.5146Z" fill="#19AC51"/>
</g>
</g>
<g id="Check">
<g id="Icons/Navigation/Check">
<path id="Vector" fill-rule="evenodd" clip-rule="evenodd" d="M15.6409 7.17466C14.9873 6.49777 13.9279 6.49777 13.2744 7.17466L9.43674 11.1484L8.10955 9.7747C7.456 9.09782 6.39659 9.09782 5.74303 9.7747C5.08948 10.4516 5.08948 11.5488 5.74303 12.2257L8.25348 14.8258C8.58068 15.1647 9.00829 15.3337 9.43674 15.3337C9.86519 15.3337 10.2928 15.1647 10.62 14.8258L15.6409 9.62566C16.2944 8.94877 16.2944 7.85154 15.6409 7.17466Z" fill="white"/>
</g>
</g>
</g>
</svg>
