<svg width="48" height="48" viewBox="0 0 48 48" fill="none" xmlns="http://www.w3.org/2000/svg">
<path d="M24.209 9.14051C23.7255 8.03573 22.4379 7.5321 21.3331 8.01562L5.12544 15.1091C4.02066 15.5926 3.51703 16.8802 4.00055 17.9849L12.9363 38.4021C13.4199 39.5069 14.7074 40.0105 15.8122 39.527L32.0199 32.4336C33.1247 31.9501 33.6283 30.6625 33.1448 29.5577L24.209 9.14051Z" fill="white"/>
<path fill-rule="evenodd" clip-rule="evenodd" d="M20.0987 7.04984L5.25358 13.547C2.97681 14.5434 1.9389 17.1969 2.93535 19.4737L11.1199 38.1745C12.1164 40.4512 14.7699 41.4891 17.0466 40.4927L31.8918 33.9956C34.1686 32.9991 35.2065 30.3456 34.21 28.0689L26.0254 9.36807C25.029 7.0913 22.3755 6.05339 20.0987 7.04984ZM21.1011 9.3401C22.113 8.89723 23.2923 9.35853 23.7352 10.3704L31.9198 29.0712C32.3626 30.0831 31.9013 31.2624 30.8894 31.7053L16.0443 38.2024C15.0324 38.6453 13.8531 38.184 13.4102 37.1721L5.22561 18.4713C4.78274 17.4594 5.24404 16.2801 6.25594 15.8372L21.1011 9.3401Z" fill="#3B058E"/>
<path fill-rule="evenodd" clip-rule="evenodd" d="M8.14293 19.7961C10.1208 19.9617 11.4166 21.4765 11.4166 21.4765L11.416 21.4749L11.4168 21.4764C11.4168 21.4764 11.1591 19.4997 12.3602 17.9196L12.3474 17.9189C12.6538 17.4882 12.7376 16.934 12.519 16.4427C12.1787 15.678 11.2348 15.3554 10.4107 15.7221C9.85483 15.9695 9.49542 16.4673 9.42478 16.9998C8.98192 16.6957 8.37152 16.6295 7.81563 16.8768C6.99151 17.2435 6.59925 18.1607 6.93949 18.9253C7.15808 19.4166 7.62586 19.7254 8.15095 19.7862L8.14293 19.7961Z" fill="#3B058E"/>
<path d="M43.3148 15.3228C43.8032 14.2177 43.3033 12.9258 42.1982 12.4374L25.3384 4.98555C24.2333 4.4971 22.9414 4.99701 22.453 6.10215L13.0805 27.3076C12.592 28.4127 13.0919 29.7046 14.1971 30.193L31.0568 37.6448C32.162 38.1333 33.4538 37.6333 33.9423 36.5282L43.3148 15.3228Z" fill="white"/>
<path fill-rule="evenodd" clip-rule="evenodd" d="M42.0071 10.9128L26.5943 4.10049C24.3212 3.09579 21.6639 4.12407 20.6592 6.39721L12.0911 25.7827C11.0864 28.0559 12.1147 30.7131 14.3878 31.7178L29.8007 38.5301C32.0738 39.5348 34.731 38.5065 35.7357 36.2334L44.3039 16.8478C45.3086 14.5747 44.2803 11.9175 42.0071 10.9128ZM40.9965 13.1994C42.0068 13.6459 42.4638 14.8269 42.0173 15.8372L33.4491 35.2227C33.0026 36.233 31.8216 36.69 30.8113 36.2435L15.3985 29.4312C14.3882 28.9847 13.9312 27.8037 14.3777 26.7934L22.9458 7.40787C23.3924 6.39758 24.5734 5.94057 25.5837 6.3871L40.9965 13.1994Z" fill="#3B058E"/>
<path d="M23.2476 11.1578C23.303 11.0346 23.3776 10.9348 23.47 10.8282C24.9519 9.04998 28.0198 8.48932 28.0321 8.49487C28.0445 8.50041 29.6594 11.1684 29.3235 13.4624C29.305 13.6023 29.2798 13.7243 29.2243 13.8475C28.8885 14.6596 27.9359 15.0311 27.0992 14.6842C26.4775 14.4192 26.0905 13.8302 26.0893 13.2073C25.9697 13.5308 25.9435 14.3352 25.9706 15.1026C25.9758 15.2495 25.828 15.3545 25.692 15.2988L25.1218 15.0654L24.5684 14.836C24.4275 14.7776 24.4007 14.5885 24.5164 14.4891C25.0985 13.989 25.6569 13.3864 25.8182 13.0852C25.3511 13.4975 24.6536 13.5985 24.043 13.3089C23.2161 12.9071 22.8748 11.9533 23.2476 11.1578Z" fill="#3B058E"/>
<path d="M17.9377 30.8739C17.9377 37.6451 23.4267 43.1341 30.1978 43.1341C36.9689 43.1341 42.458 37.6451 42.458 30.8739C42.458 24.1028 36.9689 18.6138 30.1978 18.6138C23.4267 18.6138 17.9377 24.1028 17.9377 30.8739Z" fill="#0CD0CD"/>
<path fill-rule="evenodd" clip-rule="evenodd" d="M16.6058 30.8741C16.6058 38.3807 22.6911 44.466 30.1977 44.466C37.7043 44.466 43.7896 38.3807 43.7896 30.8741C43.7896 23.3675 37.7043 17.2822 30.1977 17.2822C22.6911 17.2822 16.6058 23.3675 16.6058 30.8741ZM31.0277 37.5597V41.9354C34.4909 41.6792 37.5117 39.8328 39.3627 37.1236L35.5725 34.9354C34.5001 36.3524 32.8802 37.3321 31.0277 37.5597ZM29.3677 37.5597V41.9354C25.9044 41.6792 22.8835 39.8327 21.0326 37.1235L24.8228 34.9352C25.8952 36.3523 27.5151 37.332 29.3677 37.5597ZM23.9917 33.4982L20.2014 35.6866C19.4993 34.2309 19.1058 32.5985 19.1058 30.8741C19.1058 29.1495 19.4994 27.5168 20.2017 26.061L23.9919 28.2493C23.6503 29.0559 23.4614 29.9429 23.4614 30.874C23.4614 31.8049 23.6503 32.6917 23.9917 33.4982ZM24.8231 26.8124L21.033 24.6242C22.8839 21.9152 25.9046 20.069 29.3677 19.8128V24.1883C27.5153 24.416 25.8955 25.3956 24.8231 26.8124ZM31.0277 24.1883V19.8128C34.4907 20.069 37.5113 21.9152 39.3623 24.624L35.5722 26.8122C34.4998 25.3954 32.88 24.4159 31.0277 24.1883ZM36.4035 28.2491L40.1936 26.0608C40.8959 27.5167 41.2896 29.1494 41.2896 30.8741C41.2896 32.5985 40.896 34.231 40.1939 35.6867L36.4037 33.4985C36.7452 32.6919 36.9341 31.805 36.9341 30.874C36.9341 29.9428 36.7451 29.0558 36.4035 28.2491ZM25.1214 30.874C25.1214 33.6776 27.3942 35.9503 30.1978 35.9503C33.0013 35.9503 35.2741 33.6776 35.2741 30.874C35.2741 28.0704 33.0013 25.7977 30.1978 25.7977C27.3942 25.7977 25.1214 28.0704 25.1214 30.874Z" fill="#3B058E"/>
</svg>
