<svg width="24" height="24" viewBox="0 0 24 24" fill="none" xmlns="http://www.w3.org/2000/svg">
    <path d="M18.101 4.49989C18.101 3.96469 18.5232 3.53617 19.0505 3.53617C19.5778 3.53617 20 3.96469 20 4.49989V8.25084C20 8.78604 19.5778 9.21456 19.0505 9.21456H15.3559C14.8277 9.21456 14.4064 8.78513 14.4064 8.24993C14.4064 7.71473 14.8286 7.2862 15.3559 7.2862H16.7979C16.6946 7.22292 16.5975 7.15331 16.5174 7.07285C15.2508 5.78727 13.456 5.03691 11.6622 5.03691H11.134C9.33924 5.14449 7.65047 6.00154 6.3839 7.39469C6.17281 7.60895 5.85661 7.71563 5.64462 7.71563V7.71382C5.43529 7.71382 5.22595 7.60803 5.01661 7.50223L5.01134 7.49956C4.58915 7.17862 4.58915 6.53584 4.90534 6.10731C6.489 4.28563 8.60085 3.21432 11.0289 3.00006H11.5571C13.9842 3.00006 16.2021 3.96379 17.8908 5.67879C17.9772 5.76739 18.0414 5.87497 18.101 5.98436V4.49989ZM12.8678 18.9632C14.6625 18.8556 16.3513 17.9995 17.6188 16.6063C17.935 16.1778 18.5683 16.1778 18.9913 16.4988C19.4135 16.8206 19.4135 17.4634 19.0964 17.8919C17.5128 19.7136 15.4018 20.7849 12.9738 20.9992H12.4465L12.4447 21.0001C10.0167 21.0001 7.79972 20.0363 6.11095 18.3213C6.02367 18.2327 5.95954 18.1252 5.90075 18.0149V19.6069C6.00585 20.143 5.47767 20.5706 4.95037 20.5706L4.94948 20.5715C4.42219 20.5715 4 20.143 4 19.6078V15.8569C4 15.3208 4.42219 14.8931 4.94948 14.8931H8.64499C9.17228 14.8931 9.59447 15.3217 9.59447 15.8569C9.59447 16.3921 9.17228 16.8206 8.64499 16.8206H7.36149C7.3714 16.8289 7.38136 16.8372 7.3913 16.8454C7.42335 16.8719 7.45518 16.8983 7.48441 16.9273C8.75009 18.2128 10.5448 18.9632 12.3396 18.9632H12.8678Z" />
</svg>
