<svg width="82" height="80" viewBox="0 0 82 80" fill="none" xmlns="http://www.w3.org/2000/svg">
  <circle cx="40" cy="40" r="40" fill="white"/>
  <g clip-path="url(#clip0)">
  <path d="M76.82 55.1936C79.1607 55.1936 81.0582 53.2587 81.0582 50.8719C81.0582 48.4852 79.1607 46.5503 76.82 46.5503C74.4793 46.5503 72.5818 48.4852 72.5818 50.8719C72.5818 53.2587 74.4793 55.1936 76.82 55.1936Z" fill="#3B058E" stroke="#3B058F" stroke-width="2" stroke-miterlimit="10" stroke-linecap="round" stroke-linejoin="round"/>
  <path d="M81.0582 15.9146C81.0582 16.2027 81.0582 16.3948 80.9641 16.6829L76.82 40.7881L72.676 16.6829C72.5818 16.3948 72.5818 16.2027 72.5818 15.9146C72.5818 13.5137 74.4654 11.593 76.82 11.593C79.1746 11.593 81.0582 13.5137 81.0582 15.9146Z" fill="#3B058E" stroke="#3B058F" stroke-width="2" stroke-miterlimit="10" stroke-linecap="round" stroke-linejoin="round"/>
  <path d="M39.7119 68.6387C27.1855 68.6387 17.0138 58.2668 17.0138 45.4939V40.1159H17.108L17.0138 37.1387C17.0138 36.8506 17.0138 36.5625 17.0138 36.2744C17.0138 25.3262 24.5484 15.8186 35.0027 13.6098H35.2853H35.3794C35.662 13.5137 35.9445 13.5137 36.2271 13.4177C37.3573 13.2256 38.4875 13.1296 39.7119 13.1296C40.9362 13.1296 42.0664 13.2256 43.1966 13.4177C43.4792 13.4177 43.7617 13.5137 44.0443 13.6098H44.1384H44.421C53.5567 15.5305 60.7146 23.1174 62.2216 32.529C62.4099 33.7774 62.5041 35.0259 62.5041 36.2744C62.5041 36.5625 62.5041 36.8506 62.5041 37.1387L62.4099 40.1159H62.5041V45.4939C62.4099 58.2668 52.2382 68.6387 39.7119 68.6387Z" fill="#3B058E"/>
  <path d="M39.7119 16.0107C40.7479 16.0107 41.6897 16.1067 42.7258 16.2027C42.9141 16.2027 43.1025 16.2988 43.1967 16.2988L43.2909 16.3948L43.7618 16.4909C51.7673 18.2195 57.8892 24.846 59.2078 33.0091C59.3961 34.0655 59.4903 35.122 59.4903 36.2744C59.4903 36.5625 59.4903 36.7546 59.4903 37.0427L59.3019 42.997H59.4903V45.4939C59.4903 56.6341 50.5429 65.7576 39.6177 65.7576C28.7867 65.7576 19.8393 56.6341 19.8393 45.4939V42.997H20.1219L19.8393 37.0427C19.8393 36.7546 19.8393 36.5625 19.8393 36.2744C19.8393 26.7668 26.4321 18.4116 35.5679 16.4909L36.0388 16.3948H36.133C36.3213 16.3948 36.4155 16.2988 36.6039 16.2988C37.6399 16.1067 38.6759 16.0107 39.7119 16.0107ZM39.7119 10.2485C38.3933 10.2485 37.0748 10.3445 35.8504 10.5366C35.4737 10.6326 35.0028 10.6326 34.626 10.7287C22.9474 13.2256 14.1884 23.6936 14.1884 36.2744C14.1884 36.5625 14.1884 36.9466 14.1884 37.2348V45.4939C14.1884 59.8994 25.5845 71.5198 39.7119 71.5198C53.8393 71.5198 65.2355 59.8994 65.2355 45.4939V37.2348C65.2355 36.9466 65.2355 36.5625 65.2355 36.2744C65.2355 34.8338 65.1413 33.4893 64.9529 32.1448C63.2576 21.4848 55.2521 12.9375 44.892 10.8247C44.5152 10.7287 44.0443 10.6326 43.6676 10.6326C42.349 10.3445 41.0305 10.2485 39.7119 10.2485Z" fill="#3B058E"/>
  <path d="M65.518 31.7607V35.7942C65.518 50.1037 54.2161 61.7241 40.1828 61.8201C40.0887 61.8201 40.0887 61.8201 39.9945 61.8201C27.4682 61.8201 17.108 52.6006 14.9418 40.404C14.9418 40.2119 14.8477 40.1158 14.8477 39.9238V36.9466C14.8477 36.6585 14.8477 36.2744 14.8477 35.9863C14.8477 23.4055 23.6067 12.9375 35.1911 10.5366C35.5679 10.4405 36.0388 10.3445 36.4155 10.3445C37.7341 10.0564 39.0526 9.96036 40.3712 9.96036C41.6898 9.96036 43.0083 10.0564 44.2327 10.2485C44.6094 10.3445 45.0803 10.3445 45.4571 10.4405C55.8172 12.6494 63.9169 21.1006 65.518 31.7607Z" fill="#FFC930"/>
  <path d="M65.8005 36.8506V45.1098C65.8005 59.4192 54.4044 71.0396 40.3711 71.0396C26.3379 71.0396 14.9418 59.4192 14.9418 45.1098V36.8506" stroke="#3B058E" stroke-width="2" stroke-miterlimit="10" stroke-linecap="round"/>
  <path d="M65.8005 35.8902C65.8005 40.9802 64.2936 45.782 61.8448 49.8155C57.324 57.0183 49.4127 61.8201 40.3711 61.8201C40.277 61.8201 40.277 61.8201 40.1828 61.8201C26.2437 61.7241 14.9418 50.1997 14.9418 35.8902C14.9418 23.4055 23.6066 12.9375 35.1911 10.5366C35.5678 10.4405 36.0387 10.3445 36.4155 10.3445C37.734 10.0564 39.0526 9.96036 40.3711 9.96036C41.6897 9.96036 43.0083 10.0564 44.2326 10.2485C44.6094 10.3445 45.0803 10.3445 45.457 10.4405C55.9113 12.6494 64.011 21.2927 65.518 32.2408C65.7063 33.4893 65.8005 34.6418 65.8005 35.8902Z" stroke="#3B058E" stroke-width="2" stroke-miterlimit="10" stroke-linecap="round"/>
  <path d="M19.9335 30.1281C19.9335 30.1281 21.5346 31.5686 24.4542 31.1845C27.939 30.8003 29.4459 27.8232 31.2354 25.9985C33.2132 23.9817 36.0387 22.157 39.9944 22.157C44.8919 22.157 48.8476 25.1341 51.108 29.4558C51.6731 30.5122 55.0637 38.3872 55.0637 38.3872L51.6731 38.8674C50.8254 41.6524 47.3407 47.5107 39.9944 47.5107C37.5457 47.5107 35.9446 46.8384 34.4376 45.8781" stroke="#3B058E" stroke-width="2" stroke-miterlimit="10" stroke-linecap="round" stroke-linejoin="round"/>
  <path d="M42.6316 30.8964V32.9131" stroke="#3B058E" stroke-width="2" stroke-miterlimit="10" stroke-linecap="round" stroke-linejoin="round"/>
  <path d="M41.5013 47.6067C44.0443 48.279 46.3989 49.4314 48.3767 50.968" stroke="#3B058E" stroke-width="2" stroke-miterlimit="10" stroke-linecap="round" stroke-linejoin="round"/>
  <path d="M27.0914 48.471C29.2576 47.2226 31.7064 46.3582 34.2493 45.9741" stroke="#3B058E" stroke-width="2" stroke-miterlimit="10" stroke-linecap="round" stroke-linejoin="round"/>
  <path d="M25.9612 52.1204C29.7285 55.4817 34.626 57.4985 39.9944 57.4985C51.6731 57.4985 61.1856 47.7988 61.1856 35.8902C61.1856 23.8857 51.6731 14.282 39.9944 14.282C32.8365 14.282 26.4321 17.8354 22.6648 23.4055" stroke="#3B058E" stroke-width="2" stroke-miterlimit="10" stroke-linecap="round" stroke-dasharray="0.1 8"/>
  <path d="M32.4598 33.0092C29.9169 36.6585 24.1717 38.7714 19.1801 35.9863" stroke="#3B058E" stroke-width="2" stroke-miterlimit="10" stroke-linecap="round" stroke-linejoin="round"/>
  <path d="M31.047 40.8842C29.1634 42.7089 24.2659 44.3415 19.9335 41.9406" stroke="#3B058E" stroke-width="2" stroke-miterlimit="10" stroke-linecap="round" stroke-linejoin="round"/>
  <path d="M18.9917 53.2729V55.9619" stroke="#FFC930" stroke-width="2" stroke-miterlimit="10" stroke-linecap="round"/>
  <path d="M22.759 56.9222V61.2439" stroke="#FFC930" stroke-width="2" stroke-miterlimit="10" stroke-linecap="round"/>
  <path d="M29.8228 61.8201V67.2942" stroke="#FFC930" stroke-width="2" stroke-miterlimit="10" stroke-linecap="round"/>
  <path d="M42.4432 64.0289V69.503" stroke="#FFC930" stroke-width="2" stroke-miterlimit="10" stroke-linecap="round"/>
  <path d="M55.5347 61.2439V63.1646" stroke="#FFC930" stroke-width="2" stroke-miterlimit="10" stroke-linecap="round"/>
  </g>
  <defs>
  <clipPath id="clip0">
  <rect width="68" height="63" fill="white" transform="translate(14 9)"/>
  </clipPath>
  </defs>
</svg>