<svg width="32" height="32" viewBox="0 0 32 32" fill="none" xmlns="http://www.w3.org/2000/svg">
<path d="M15.8 27.4C9.66664 27.4 4.59998 22.3333 4.59998 16.2C4.59998 10.0667 9.66664 5 15.8 5C16.4666 5 17.1333 5 17.8 5.13333C18.4666 5.26667 19 5.93333 18.8666 6.73333C18.7333 7.4 18.0666 7.93333 17.2666 7.8C16.7333 7.66667 16.3333 7.66667 15.8 7.66667C11.1333 7.66667 7.26664 11.5333 7.26664 16.2C7.26664 20.8667 11.1333 24.7333 15.8 24.7333C20.4666 24.7333 24.3333 20.8667 24.3333 16.2C24.3333 15.8 24.3333 15.4 24.2 15C24.0666 14.3333 24.6 13.5333 25.2666 13.5333C25.9333 13.4 26.7333 13.9333 26.7333 14.6C26.8666 15.1333 26.8666 15.6667 26.8666 16.2C27 22.3333 21.9333 27.4 15.8 27.4Z" fill="#FFFFFF"/>
<path d="M15.8 22.6001C12.3333 22.6001 9.53333 19.8001 9.53333 16.3334C9.53333 12.8668 12.3333 10.0668 15.8 10.0668C18.2 10.0668 20.3333 11.4001 21.4 13.4001C21.8 14.0668 21.5333 14.8668 20.8667 15.2668C20.2 15.6668 19.4 15.4001 19 14.7334C18.3333 13.5334 17.1333 12.7334 15.8 12.7334C13.8 12.7334 12.2 14.3334 12.2 16.3334C12.2 18.3334 13.8 19.9334 15.8 19.9334C17.2667 19.9334 18.6 19.0001 19.1333 17.6668C19.4 17.0001 20.2 16.6001 20.8667 16.8668C21.5333 17.1334 21.9333 17.9334 21.6667 18.6001C20.7333 21.0001 18.3333 22.6001 15.8 22.6001Z" fill="#FFFFFF"/>
<path d="M16.4667 16.2001H9.26668C8.46668 16.2001 7.93335 15.6668 7.93335 14.8668C7.93335 14.0668 8.46668 13.5334 9.26668 13.5334H16.4667C17.2667 13.5334 17.8 14.0668 17.8 14.8668C17.8 15.6668 17.2667 16.2001 16.4667 16.2001Z" fill="#FFFFFF"/>
<path d="M15.1333 19.5335H9.53328C8.73328 19.5335 8.19995 19.0002 8.19995 18.2002C8.19995 17.4002 8.73328 16.8668 9.53328 16.8668H15.1333C15.9333 16.8668 16.4666 17.4002 16.4666 18.2002C16.4666 19.0002 15.8 19.5335 15.1333 19.5335Z" fill="#FFFFFF"/>
<path d="M23.4 4.59998C21.2667 4.59998 19.5333 6.33331 19.5333 8.59998C19.5333 10.7333 21.2667 12.4666 23.4 12.4666C25.5333 12.4666 27.4 10.7333 27.4 8.59998C27.4 6.33331 25.5333 4.59998 23.4 4.59998ZM25.2667 9.93331H21.6667C21 9.93331 20.3333 9.39998 20.3333 8.59998C20.3333 7.79998 21 7.26664 21.6667 7.26664H25.2667C25.9333 7.26664 26.6 7.79998 26.6 8.59998C26.6 9.26664 25.9333 9.93331 25.2667 9.93331Z" fill="#FFFFFF"/>
</svg>
