<svg preserveAspectRatio="true" viewBox="0 0 667 351" fill="none" xmlns="http://www.w3.org/2000/svg">
<g clip-path="url(#clip0)">
<path d="M667.8 351.501H324L424 180C458.9 165 525.1 133.501 597.1 173.5C669.1 213.5 645 191 668.2 186.8L667.8 351.501Z" fill="#EE868C"/>
<path d="M331.5 351.5H0V160.7C0 161.5 28 192.2 73.6 186.9C102.9 183.5 133.4 163.6 162.7 160.7C210.7 156 237.6 178.1 250.1 190.9C223.6 200.8 285.1 222.8 291.5 226.6C297.5 230.2 302.1 235.3 306.4 240.8C307.9 242.8 336 319.5 331.5 351.5Z" fill="#F7F6F6"/>
<path d="M354 351.002H313C313 351.002 314.5 292.501 279.721 242.501C271.802 230.189 249.374 201.761 206.3 192C175.2 185 154.1 190.7 154.1 190.7C177.603 152.647 258.056 153.815 296 163.002C317.9 168.402 341.5 166.802 361.6 157.702C417 132.621 531 151.001 547 224C522.116 225.077 488 226.501 437 250.001C400.15 266.981 358.5 319.502 354 351.002Z" fill="#5FCCCB"/>
<path d="M366.629 195.572C368.082 193.386 374.205 176.101 355.771 175.98C343.482 175.9 339.232 180.479 327.655 180.295C309.931 180.014 306.947 176.96 302.61 178.81C291.951 183.362 296.388 192.129 302.765 196.988C312.559 204.349 322.153 206.689 331.813 208.208C350.469 211.137 362.803 201.386 366.629 195.572Z" fill="#4DA3A3"/>
<path d="M546 351.001C458.5 255.501 314.5 235.502 239 270.501L242.49 350.999L546 351.001Z" fill="#F7F6F6"/>
<path d="M253 351C279.5 316.001 373 253.501 500.5 306.5L553 350.999L253 351Z" fill="#EE868C"/>
<path d="M230.5 359.999L-54.9995 358.499C-56.5 298.999 -46.7398 248.64 -46.5369 247.499C-36.7038 192.222 85.8501 198.147 113.322 245.499C114.352 247.275 238 305.999 230.5 359.999Z" fill="#F6CA51"/>
<path d="M328.9 269.9C329.5 266 331.4 262.7 333 259.2C340.3 242.9 350.1 228.1 365.5 218.7C390.5 203.5 419 198.3 447.4 205.8C457.4 209 458.6 233.3 447.4 242.4C424.9 260.8 371.3 268 370.7 270C356.8 269.9 342.8 269.9 328.9 269.9Z" fill="#F7F6F6"/>
<path d="M667.2 176.8V351.499L198 350.999C206 234.999 359.321 216.507 403.4 232.5C409 234.5 414.4 233.9 419.2 230.3C430.8 221.6 436 208.1 448.8 196.8C464.6 182.9 482.9 179.4 503.8 182.1C514 183.4 523.9 186.5 533.2 191C536.7 192.7 573.9 213.5 573 215.7C583.3 190.2 600.7 159 633.5 163.4C645.9 165.1 657.1 169.4 667.2 176.8Z" fill="#F6CA51"/>
<path d="M344 350.999H-7V249.38C-6.3 249.28 -5.7 249.28 -5.3 249.28C7.9 252.28 21 250.88 34 247.38C40.1 245.68 45.9 243.18 51.5 240.28C63.5 234.28 75.9 229.48 88.9 226.28C98.3 223.98 107.8 222.88 117.4 222.18C136.9 220.88 154.4 226.68 170.8 236.48C182.3 243.28 192.9 251.48 203.7 259.18C213.3 266.08 228.5 281.999 260 286.999C291.5 291.999 334.5 311.999 344 350.999Z" fill="#EE868C"/>
<path d="M367 351.4C388 297 450.74 324 461.148 289.5C466.533 271.651 475.213 261.45 477.1 259.2C501.9 230.5 546.1 230.3 572.1 251.8C572.4 252 576 255 576 255C576 255 578 253.006 578.8 252C593.6 233.4 612.9 221.7 635.4 214.9C643.6 212.4 652 210.8 660.6 211.7C662.7 211.9 664.9 212.3 667 212.6C667 231.6 667 332.4 667 351.4C602.5 351.5 431.6 351.4 367 351.4Z" fill="#340986"/>
</g>
<defs>
<clipPath id="clip0">
<rect width="667" height="351" fill="white"/>
</clipPath>
</defs>
</svg>
