<svg viewBox="0 0 667 248" preserveAspectRatio="true" fill="none" xmlns="http://www.w3.org/2000/svg">
<g clip-path="url(#clip0)">
<g clip-path="url(#clip1)">
<path d="M667.8 248.3H374.6L411.4 170C446.3 155 512.5 123.5 584.5 163.5C656.5 203.5 645 191 668.2 186.8L667.8 248.3Z" fill="#EE868C"/>
<path d="M310 247.4L0 247.7V160.7C0 161.5 28 192.2 73.6 186.9C102.9 183.5 133.4 163.6 162.7 160.7C210.7 156 237.6 178.1 250.1 190.9C223.6 200.8 285.1 222.8 291.5 226.6C297.5 230.2 302.1 235.3 306.4 240.8C307.9 242.8 309.8 244.7 310 247.4Z" fill="#F7F6F6"/>
<path d="M388.5 248.3H283.1C283.1 248.3 261.9 204.6 206.3 192C175.2 185 154.1 190.7 154.1 190.7C168.8 166.9 203.3 157.5 242.9 158.6C252.7 158.9 262.1 162.2 271.6 164.5C293.5 169.9 317.1 168.3 337.2 159.2C356.8 150.3 383.6 141.3 405.6 142.6C415.9 143.2 471.6 136.5 508.1 189.6C482.7 190.7 417.1 201.7 388.5 248.3Z" fill="#5FCCCB"/>
<path d="M366.629 195.572C368.082 193.386 374.205 176.101 355.771 175.98C343.482 175.9 339.232 180.479 327.655 180.295C309.931 180.014 306.947 176.96 302.61 178.81C291.951 183.362 296.388 192.129 302.765 196.988C312.559 204.349 322.153 206.689 331.813 208.208C350.469 211.137 362.803 201.386 366.629 195.572Z" fill="#4DA3A3"/>
</g>
<g clip-path="url(#clip2)">
<path d="M-47 251H116C94.7851 197.638 -41.6109 189.828 -47 251Z" fill="#F6CA51"/>
<path d="M328.9 269.9C329.5 266 331.4 262.7 333 259.2C340.3 242.9 350.1 228.1 365.5 218.7C390.5 203.5 419 198.3 447.4 205.8C457.4 209 458.6 233.3 447.4 242.4C424.9 260.8 371.3 268 370.7 270C356.8 269.9 342.8 269.9 328.9 269.9Z" fill="#F7F6F6"/>
<path d="M667.2 176.8V256.6C665.1 256.3 472.5 265.9 471.7 269.9H361.7C362.5 266.9 364.3 264.4 365.5 261.7C368.9 254.1 372.7 246.7 378.3 240.4C386.8 231 392.1 228.4 403.4 232.5C409 234.5 414.4 233.9 419.2 230.3C430.8 221.6 436 208.1 448.8 196.8C464.6 182.9 482.9 179.4 503.8 182.1C514 183.4 523.9 186.5 533.2 191C536.7 192.7 573.9 213.5 573 215.7C583.3 190.2 600.7 159 633.5 163.4C645.9 165.1 657.1 169.4 667.2 176.8Z" fill="#F6CA51"/>
<path d="M237.1 275.78H-7V249.38C-6.3 249.28 -5.7 249.28 -5.3 249.28C7.9 252.28 21 250.88 34 247.38C40.1 245.68 45.9 243.18 51.5 240.28C63.5 234.28 75.9 229.48 88.9 226.28C98.3 223.98 107.8 222.88 117.4 222.18C136.9 220.88 154.4 226.68 170.8 236.48C182.3 243.28 192.9 251.48 203.7 259.18C213.3 266.08 223.7 271.38 235 274.88C235.8 275.08 236.6 275.18 237.1 275.78Z" fill="#EE868C"/>
<path d="M471.6 269.8C472.5 265.8 474.6 262.4 477.2 259.3C502 230.6 546.2 230.4 572.2 251.9C572.5 252.1 572.8 252.4 573.1 252.6C576.3 255.5 576.3 255.4 578.9 252.1C593.7 233.5 613 221.8 635.5 215C643.7 212.5 652.1 210.9 660.7 211.8C662.8 212 665 212.4 667.1 212.7C667.1 231.1 667.1 249.5 667.1 267.9C667.1 269.4 666.8 269.7 665.3 269.7C600.8 269.8 536.2 269.8 471.6 269.8Z" fill="#340986"/>
</g>
</g>
<defs>
<clipPath id="clip0">
<rect width="667" height="247.627" fill="white"/>
</clipPath>
<clipPath id="clip1">
<rect width="668.2" height="135.3" fill="white" transform="translate(0 113)"/>
</clipPath>
<clipPath id="clip2">
<rect width="668.2" height="106.9" fill="white" transform="translate(-1 163)"/>
</clipPath>
</defs>
</svg>
