<svg
  viewBox="0 0 90 87"
  fill="none"
  xmlns="http://www.w3.org/2000/svg"
>
  <g clip-path="url(#clip0)">
    <path d="M90 34.6774H0V54.2053H90V34.6774Z" fill="#955A04" />
    <path
      d="M44.9783 87.0438C69.8191 87.0438 89.9566 71.9887 89.9566 53.4172C89.9566 34.8458 69.8191 19.7906 44.9783 19.7906C20.1375 19.7906 0 34.8458 0 53.4172C0 71.9887 20.1375 87.0438 44.9783 87.0438Z"
      fill="#955A04"
    />
    <path
      d="M65.4264 63.7942C43.2846 72.2446 16.1934 65.6331 4.90543 49.0387C-6.38256 32.4444 2.43076 12.1283 24.5726 3.67789C46.7144 -4.77254 73.8056 1.79515 85.0936 18.3895C96.3381 35.0277 87.5682 55.3437 65.4264 63.7942Z"
      fill="#955A04"
    />
    <path
      d="M63.6037 60.6858C43.4155 68.4357 18.6688 62.3934 8.33594 47.2439C-1.95349 32.0945 6.07834 13.5298 26.2665 5.77992C46.498 -1.92617 71.2448 4.11611 81.5776 19.2656C91.867 34.4151 83.8352 52.9797 63.6037 60.6858Z"
      fill="#FFC930"
    />
    <path
      fill-rule="evenodd"
      clip-rule="evenodd"
      d="M78.278 20.0099L78.3214 20.0537L78.3648 20.0975C78.9292 20.9294 78.4951 21.8926 77.4097 22.3305C76.3243 22.7245 75.0218 22.418 74.4574 21.5861L74.414 21.5424L74.3706 21.4986C73.8062 20.6667 74.2404 19.7034 75.3257 19.2656C76.3677 18.8715 77.7136 19.2218 78.278 20.0099ZM78.5385 24.6948C79.7107 24.4759 80.9263 25.0013 81.2302 25.877L81.2736 26.0084C81.5775 26.8841 80.8395 27.8035 79.6673 28.0225C78.4951 28.2414 77.2794 27.716 76.9755 26.8403L76.9321 26.7527C76.6716 25.8332 77.3663 24.9138 78.5385 24.6948ZM73.4589 17.2077C72.5037 17.7769 71.1145 17.6893 70.3764 16.9888L70.2896 16.9012C69.5081 16.2006 69.6383 15.1498 70.5501 14.5806C71.4618 14.0114 72.8511 14.099 73.6325 14.7995L73.7194 14.8871C74.5009 15.5876 74.3706 16.5947 73.4589 17.2077ZM80.1448 30.5182C81.3605 30.4744 82.359 31.2187 82.4024 32.1382V32.2696C82.4459 33.1891 81.4473 33.9334 80.2317 33.9334C79.016 33.9334 78.0175 33.2328 77.9741 32.3134V32.2258C77.9307 31.3063 78.9292 30.5182 80.1448 30.5182ZM68.1188 12.8292C67.3807 13.5736 65.9914 13.7049 65.0363 13.1357L64.9061 13.0481C63.9509 12.4789 63.7338 11.4719 64.4719 10.7276C65.21 9.98322 66.5993 9.85186 67.5544 10.4211L67.6846 10.5086C68.6398 11.0778 68.8569 12.1287 68.1188 12.8292ZM79.9278 36.4291C81.1 36.6042 81.8815 37.4799 81.6644 38.3556L81.621 38.487C81.3605 39.3627 80.1883 39.9319 79.016 39.7567C77.8438 39.5816 77.0624 38.7059 77.3229 37.7864L77.3663 37.6989C77.5833 36.8232 78.7121 36.254 79.9278 36.4291ZM61.6065 9.4578C61.0855 10.2897 59.7831 10.64 58.6977 10.2897L58.5674 10.2459C57.4386 9.85186 56.9611 8.8886 57.482 8.05669C58.003 7.22479 59.3055 6.87451 60.3909 7.22479L60.5211 7.26857C61.6065 7.66263 62.0841 8.62589 61.6065 9.4578ZM77.9741 42.1649C79.1029 42.559 79.5804 43.5222 79.0595 44.3541L78.9726 44.4855C78.4516 45.3174 77.1492 45.6677 76.0638 45.3174C74.9784 44.9233 74.4574 43.9601 74.9784 43.1282L75.0218 43.0406C75.5428 42.1649 76.8453 41.8146 77.9741 42.1649ZM54.2693 7.26857C54.0088 8.14426 52.8366 8.71346 51.6644 8.53832L51.5341 8.49454C50.3619 8.3194 49.5804 7.44371 49.7975 6.56802C50.058 5.69233 51.1868 5.07934 52.4024 5.29826L52.5761 5.34205C53.7483 5.51719 54.4864 6.39288 54.2693 7.26857ZM74.3706 47.4628C75.3257 48.032 75.5428 49.0391 74.8048 49.7834L74.7179 49.871C73.9799 50.6153 72.5906 50.7467 71.6354 50.1775C70.6803 49.6083 70.4632 48.6012 71.2013 47.8569L71.2881 47.7693C72.0262 47.025 73.4155 46.8936 74.3706 47.4628ZM46.4545 6.39288C46.498 7.31236 45.4994 8.05669 44.2838 8.05669H44.1535C42.9379 8.10048 41.9394 7.35614 41.8959 6.43666C41.8525 5.51719 42.8077 4.77285 44.0233 4.72906H44.1969C45.4126 4.72906 46.4111 5.4734 46.4545 6.39288ZM69.291 51.9726C70.0725 52.6732 69.9422 53.724 69.0305 54.2932L68.9003 54.3808C67.9451 54.95 66.5558 54.8624 65.8178 54.1619C65.0363 53.4613 65.1666 52.4105 66.1217 51.8413L66.2519 51.7537C67.1202 51.1845 68.5095 51.2721 69.291 51.9726ZM38.553 6.78694C38.8569 7.66263 38.1188 8.58211 36.9466 8.80103L36.8163 8.84482C35.6441 9.06374 34.4285 8.53832 34.1246 7.66263C33.8207 6.78694 34.5153 5.86746 35.731 5.64854L35.9046 5.60476C37.0768 5.34205 38.249 5.91125 38.553 6.78694ZM30.9987 8.49454C31.5631 9.32645 31.1289 10.2897 30.0435 10.7276L29.9567 10.7713L29.8699 10.8151C28.7845 11.2092 27.482 10.9027 26.9176 10.1146C26.3532 9.28266 26.7874 8.3194 27.8728 7.88156L27.9596 7.83777L28.0464 7.79399C29.1318 7.35614 30.4343 7.70642 30.9987 8.49454ZM62.9958 55.563C63.5602 56.3949 63.126 57.3581 62.0406 57.796L61.9538 57.8398L61.867 57.8836C60.7816 58.2776 59.4791 57.9711 58.9147 57.1392C58.3503 56.3073 58.7845 55.3441 59.8699 54.9062L59.9567 54.8624L60.0435 54.8186C61.0855 54.4246 62.4314 54.7749 62.9958 55.563ZM55.7888 58.0149C56.0928 58.8906 55.3981 59.8101 54.1825 60.029L54.0088 60.0728C52.8366 60.2917 51.621 59.7663 51.3605 58.8906C51.0566 58.0149 51.7946 57.0954 52.9668 56.8765L53.0971 56.8327C54.2693 56.57 55.4849 57.1392 55.7888 58.0149ZM24.1391 11.4281C24.9205 12.1287 24.7903 13.1795 23.8352 13.7487L23.7049 13.8363C22.7932 14.4055 21.4039 14.3179 20.6224 13.6173C19.8409 12.9168 19.9712 11.866 20.8829 11.2968L21.0132 11.2092C21.9683 10.64 23.3576 10.7276 24.1391 11.4281ZM18.3214 15.4563C19.2765 16.0255 19.4936 17.0325 18.7556 17.7769L18.6687 17.8644C17.9307 18.6088 16.5414 18.7401 15.5862 18.1709C14.6311 17.6017 14.414 16.5947 15.1521 15.8504L15.2389 15.7628C15.977 15.0622 17.3229 14.8871 18.3214 15.4563ZM48.0175 59.1971C48.0609 60.1166 47.1058 60.8609 45.8901 60.9047H45.7165C44.5009 60.9047 43.5023 60.2041 43.4589 59.2847C43.4155 58.3652 44.414 57.6209 45.6297 57.6209H45.7599C46.9755 57.5333 48.0175 58.2776 48.0175 59.1971ZM40.1159 59.022C39.8554 59.8977 38.7266 60.5106 37.511 60.2917L37.3373 60.2479C36.1651 60.0728 35.3836 59.1971 35.6441 58.2776C35.9046 57.4019 37.0768 56.8327 38.249 57.0079H38.3793C39.5949 57.2706 40.3764 58.1463 40.1159 59.022ZM13.8496 20.3602C14.935 20.7542 15.456 21.7175 14.935 22.5494L14.8916 22.637C14.3706 23.4689 13.0682 23.8191 11.9828 23.4689C10.854 23.0748 10.3764 22.1115 10.8974 21.2796L10.9842 21.1483C11.4184 20.3164 12.7208 19.9661 13.8496 20.3602ZM32.4748 57.5771C31.9538 58.409 30.6514 58.7593 29.566 58.409L29.4357 58.3652C28.3503 57.9711 27.8294 57.0079 28.3503 56.176C28.8713 55.3441 30.1738 54.9938 31.2592 55.3441L31.3894 55.3878C32.4748 55.7381 32.9958 56.7452 32.4748 57.5771ZM10.8974 25.8332C12.0696 26.0084 12.8511 26.8841 12.5906 27.8035V27.8911C12.3301 28.7668 11.2013 29.3798 9.98566 29.1609C8.81345 28.9857 8.03197 28.11 8.24905 27.2343L8.29246 27.103C8.55295 26.2273 9.72517 25.6581 10.8974 25.8332ZM9.68175 31.7004C10.8974 31.7004 11.8959 32.4009 11.9394 33.3204V33.408C11.9828 34.3275 11.0276 35.0718 9.812 35.1156C8.59637 35.1594 7.59782 34.415 7.5544 33.4955V33.3642C7.51099 32.4885 8.46612 31.7004 9.68175 31.7004ZM25.4415 54.8624C24.7035 55.6068 23.3142 55.7381 22.359 55.1689L22.2288 55.0813C21.2736 54.5121 21.0566 53.5051 21.7946 52.7608C22.5327 52.0164 23.922 51.8851 24.8771 52.4543L25.0074 52.5418C25.9625 53.111 26.1796 54.1181 25.4415 54.8624ZM19.3634 51.0532C18.4517 51.6224 17.0624 51.5348 16.2809 50.8342L16.1941 50.7467C15.4126 50.0461 15.5428 48.9953 16.498 48.4261C17.4531 47.8569 18.8424 47.9445 19.5805 48.645L19.6673 48.7326C20.4488 49.4331 20.3185 50.484 19.3634 51.0532ZM10.2462 37.6113C11.4184 37.3924 12.634 37.9178 12.9379 38.7935L12.9813 38.8811C13.2852 39.7567 12.5906 40.6762 11.375 40.8951C10.2027 41.1141 8.98711 40.5886 8.6832 39.713L8.63979 39.5816C8.33588 38.7497 9.07394 37.8302 10.2462 37.6113ZM12.5472 43.3033C13.6325 42.9092 14.935 43.2157 15.4994 44.0476L15.5428 44.0914L15.5862 44.1352C16.1506 44.9671 15.7165 45.9304 14.6311 46.3682C13.5457 46.7623 12.2433 46.4558 11.6789 45.6677L11.6354 45.6239L11.592 45.5801C11.0276 44.7044 11.4618 43.6974 12.5472 43.3033Z"
      fill="#955A04"
    />
    <path
      fill-rule="evenodd"
      clip-rule="evenodd"
      d="M63.951 24.6949C64.3418 25.3079 64.2549 26.0084 63.6471 26.5338L56.7875 32.401L62.8222 38.7935C63.3432 39.3627 63.3432 40.0633 62.8656 40.6325C62.3881 41.2017 61.4763 41.4644 60.608 41.333L50.3186 39.8444L45.9336 46.9375C45.5429 47.5504 44.718 47.9445 43.8063 47.9007C42.8946 47.8569 42.1131 47.4191 41.8526 46.7623L38.5096 39.3627L28.1334 40.0633C27.2216 40.1071 26.3967 39.7568 25.9626 39.1876C25.5718 38.5746 25.6587 37.874 26.2665 37.3486L33.1261 31.4815L27.1348 25.0889C26.6138 24.5197 26.6138 23.8192 27.0914 23.25C27.569 22.6808 28.4807 22.4181 29.349 22.5494L39.595 24.0819L43.98 16.9888C44.3707 16.3758 45.1956 15.9817 46.1073 16.0255C47.019 16.0693 47.8005 16.5072 48.061 17.1639L51.404 24.5635L61.7803 23.863C62.692 23.7316 63.5603 24.0819 63.951 24.6949ZM56.7007 27.4533L50.0581 27.8912C49.0596 27.9787 48.1044 27.4971 47.7571 26.7965L45.6297 22.0678L42.8512 26.6214C42.417 27.322 41.4185 27.716 40.4199 27.5409L33.9076 26.5776L37.7281 30.6496C38.336 31.2626 38.2491 32.0945 37.5979 32.7075L33.213 36.4729L39.8555 36.0351C40.8541 35.9475 41.8092 36.4292 42.1565 37.1297L44.2839 41.8584L47.0624 37.3048C47.4966 36.6043 48.4952 36.2102 49.4937 36.3854L56.006 37.3486L52.1855 33.2767C51.5776 32.6637 51.6645 31.8318 52.3157 31.2188L56.7007 27.4533Z"
      fill="#955A04"
    />
    <path
      fill-rule="evenodd"
      clip-rule="evenodd"
      d="M72.8077 27.6284C72.417 28.5041 71.2013 28.9858 70.0291 28.6793L61.3026 26.5338C60.1304 26.2711 59.5226 25.3078 59.8699 24.4759L62.6919 17.9082C63.0827 17.0326 64.2983 16.5509 65.4705 16.8574C66.6427 17.1201 67.2505 18.0834 66.9032 18.9153L64.7324 23.9067L71.375 25.5268C72.5472 25.8333 73.1984 26.7527 72.8077 27.6284Z"
      fill="#955A04"
    />
    <path
      fill-rule="evenodd"
      clip-rule="evenodd"
      d="M24.3995 46.1493C25.5717 46.412 26.7874 45.9742 27.1781 45.0985L30.0001 38.5308C30.3908 37.6551 29.7396 36.7356 28.5674 36.4729L19.8409 34.3275C18.6687 34.0648 17.4531 34.5026 17.0623 35.3783C16.6716 36.254 17.3228 37.1735 18.495 37.4362L25.1376 39.0562L22.9668 44.0477C22.6195 44.9234 23.2707 45.8428 24.3995 46.1493Z"
      fill="#955A04"
    />
    <path
      fill-rule="evenodd"
      clip-rule="evenodd"
      d="M54.3996 11.4719C55.2245 12.1287 55.1377 13.1795 54.226 13.7925L47.4098 18.3898C46.498 19.0028 45.1088 18.959 44.2839 18.2585L38.1623 13.1795C37.3374 12.5227 37.4242 11.4719 38.336 10.8589C39.2477 10.2459 40.637 10.2897 41.4619 10.9903L46.1507 14.8871L51.3171 11.3843C52.2289 10.7275 53.6182 10.8151 54.3996 11.4719Z"
      fill="#955A04"
    />
    <path
      fill-rule="evenodd"
      clip-rule="evenodd"
      d="M51.5776 52.1478C52.4893 51.5348 52.5328 50.484 51.7513 49.8272L45.5863 44.7044C44.7614 44.0477 43.3721 43.9601 42.4604 44.5731L35.6442 49.1704C34.7325 49.7834 34.6891 50.8343 35.4705 51.491C36.2954 52.1478 37.6847 52.2354 38.5964 51.6224L43.7629 48.1196L48.4517 52.0164C49.2766 52.717 50.6659 52.7608 51.5776 52.1478Z"
      fill="#955A04"
    />
    <path
      fill-rule="evenodd"
      clip-rule="evenodd"
      d="M26.5703 15.3687C27.7426 15.1936 28.9148 15.7628 29.1753 16.6384L31.0855 23.3813C31.346 24.257 30.5646 25.1327 29.3923 25.3516L20.4054 26.7527C19.2331 26.9278 18.0609 26.3586 17.8004 25.4829C17.5399 24.6072 18.3214 23.7316 19.4936 23.5126L26.3098 22.418L24.8771 17.2952C24.6166 16.4195 25.3547 15.5438 26.5703 15.3687Z"
      fill="#955A04"
    />
    <path
      fill-rule="evenodd"
      clip-rule="evenodd"
      d="M72.113 37.5238C71.8525 36.6481 70.6803 36.0789 69.5081 36.254L60.5211 37.6989C59.3489 37.874 58.5674 38.7497 58.8279 39.6692L60.7382 46.412C60.9987 47.2877 62.1709 47.8569 63.3431 47.6818C64.5153 47.5066 65.2968 46.631 65.0363 45.7115L63.6036 40.5887L70.4198 39.4941C71.6354 39.3189 72.3735 38.4432 72.113 37.5238Z"
      fill="#955A04"
    />
    <path
      fill-rule="evenodd"
      clip-rule="evenodd"
      d="M42.9814 28.5479C45.1521 27.716 47.8005 28.3728 48.8858 29.9928C49.9712 31.6128 49.1463 33.6269 46.9756 34.415C44.8048 35.2469 42.1565 34.5902 41.0711 32.9701C39.9857 31.3501 40.8106 29.3798 42.9814 28.5479Z"
      fill="#955A04"
    />
    <path
      fill-rule="evenodd"
      clip-rule="evenodd"
      d="M41.8526 26.9279C40.7672 27.3219 39.4647 27.0155 38.9003 26.2273L35.4705 21.1483C34.9061 20.3164 35.3403 19.3531 36.4257 18.9153C37.511 18.5212 38.8135 18.8277 39.3779 19.6159L42.8077 24.6949C43.3721 25.5268 42.938 26.49 41.8526 26.9279Z"
      fill="#955A04"
    />
    <path
      fill-rule="evenodd"
      clip-rule="evenodd"
      d="M53.4878 44.0476C52.4024 44.4417 51.1 44.1352 50.5356 43.3471L47.1058 38.2681C46.5414 37.4362 46.9755 36.4729 48.0609 36.0351C49.1463 35.641 50.4488 35.9475 51.0132 36.7356L54.443 41.8146C55.0074 42.6465 54.5732 43.6098 53.4878 44.0476Z"
      fill="#955A04"
    />
    <path
      fill-rule="evenodd"
      clip-rule="evenodd"
      d="M41.1578 35.8599C42.1564 36.3415 42.4603 37.3924 41.809 38.1367L37.6846 42.9092C37.0334 43.6536 35.6441 43.8725 34.6455 43.3909C33.647 42.9092 33.343 41.8584 33.9943 41.1141L38.1187 36.3415C38.8134 35.5972 40.1593 35.3783 41.1578 35.8599Z"
      fill="#955A04"
    />
    <path
      fill-rule="evenodd"
      clip-rule="evenodd"
      d="M55.181 19.6596C56.1796 20.1412 56.4835 21.1921 55.8322 21.9364L51.7078 26.7089C51.0565 27.4533 49.6673 27.6722 48.6687 27.1906C47.6701 26.7089 47.3662 25.6581 48.0175 24.9138L52.1419 20.1412C52.8366 19.3531 54.1824 19.1342 55.181 19.6596Z"
      fill="#955A04"
    />
    <path
      fill-rule="evenodd"
      clip-rule="evenodd"
      d="M38.0754 31.2188C38.0319 32.1382 36.99 32.8388 35.7743 32.795L28.2201 32.4885C27.0044 32.4447 26.0927 31.6566 26.1361 30.7371C26.1795 29.8176 27.2215 29.1171 28.4371 29.1609L35.9914 29.4674C37.2071 29.5549 38.1622 30.3431 38.0754 31.2188Z"
      fill="#955A04"
    />
    <path
      fill-rule="evenodd"
      clip-rule="evenodd"
      d="M63.7339 32.2258C63.6905 33.1453 62.6485 33.8458 61.4329 33.802L53.8786 33.4955C52.663 33.4517 51.7513 32.6636 51.7947 31.7441C51.8381 30.8247 52.8801 30.1241 54.0957 30.1679L61.65 30.4744C62.8656 30.562 63.7773 31.3063 63.7339 32.2258Z"
      fill="#955A04"
    />
    <path
      fill-rule="evenodd"
      clip-rule="evenodd"
      d="M29.3053 66.684C30.2644 66.684 31.042 67.4681 31.042 68.4353V78.7247C31.042 79.692 30.2644 80.4761 29.3053 80.4761C28.3462 80.4761 27.5687 79.692 27.5687 78.7247V68.4353C27.5687 67.4681 28.3462 66.684 29.3053 66.684Z"
      fill="#FFC930"
    />
    <path
      fill-rule="evenodd"
      clip-rule="evenodd"
      d="M53.1838 67.5596C54.1429 67.5596 54.9204 68.3438 54.9204 69.311V81.1329C54.9204 82.1001 54.1429 82.8842 53.1838 82.8842C52.2247 82.8842 51.4471 82.1001 51.4471 81.1329V69.311C51.4471 68.3438 52.2247 67.5596 53.1838 67.5596Z"
      fill="#FFC930"
    />
    <path
      fill-rule="evenodd"
      clip-rule="evenodd"
      d="M78.5818 61.5174C79.5409 61.5174 80.3185 62.3015 80.3185 63.2688V68.304C80.3185 69.2713 79.5409 70.0554 78.5818 70.0554C77.6227 70.0554 76.8452 69.2713 76.8452 68.304V63.2688C76.8452 62.3015 77.6227 61.5174 78.5818 61.5174Z"
      fill="#FFC930"
    />
    <path
      fill-rule="evenodd"
      clip-rule="evenodd"
      d="M14.4139 60.2038C15.373 60.2038 16.1505 60.9879 16.1505 61.9552V70.4494C16.1505 71.4166 15.373 72.2008 14.4139 72.2008C13.4548 72.2008 12.6772 71.4166 12.6772 70.4494V61.9552C12.6772 60.9879 13.4548 60.2038 14.4139 60.2038Z"
      fill="#FFC930"
    />
    <path
      fill-rule="evenodd"
      clip-rule="evenodd"
      d="M6.55571 54.4243C7.51481 54.4243 8.29232 55.2084 8.29232 56.1756V60.9044C8.29232 61.8716 7.51481 62.6558 6.55571 62.6558C5.5966 62.6558 4.81909 61.8716 4.81909 60.9044V56.1756C4.81909 55.2084 5.5966 54.4243 6.55571 54.4243Z"
      fill="#FFC930"
    />
  </g>
  <defs>
    <clipPath id="clip0">
      <rect width="90" height="87" fill="white" />
    </clipPath>
  </defs>
</svg>