<svg
  width="25"
  height="23"
  viewBox="0 0 25 23"
  fill="none"
  xmlns="http://www.w3.org/2000/svg"
>
  <g clip-path="url(#clip0)">
    <path d="M25 9.1676L0 9.1676L0 14.3302L25 14.3302V9.1676Z" fill="#955A04" />
    <path
      d="M12.494 23.0116C19.3942 23.0116 24.9879 19.0315 24.9879 14.1218C24.9879 9.21208 19.3942 5.23199 12.494 5.23199C5.59374 5.23199 0 9.21208 0 14.1218C0 19.0315 5.59374 23.0116 12.494 23.0116Z"
      fill="#955A04"
    />
    <path
      d="M18.174 16.8651C12.0235 19.0991 4.49813 17.3513 1.36257 12.9643C-1.77298 8.57724 0.675163 3.20633 6.82567 0.97231C12.9762 -1.26171 20.5015 0.474575 23.6371 4.86159C26.7605 9.26018 24.3245 14.6311 18.174 16.8651Z"
      fill="#955A04"
    />
    <path
      d="M17.6675 16.0434C12.0597 18.0922 5.18557 16.4948 2.31534 12.4898C-0.54284 8.48472 1.68823 3.57682 7.29604 1.52801C12.9159 -0.509237 19.79 1.08815 22.6602 5.09318C25.5184 9.09821 23.2874 14.0061 17.6675 16.0434Z"
      fill="#FFC930"
    />
    <path
      fill-rule="evenodd"
      clip-rule="evenodd"
      d="M21.7437 5.28994L21.7558 5.30152L21.7679 5.31309C21.9246 5.53302 21.804 5.78768 21.5025 5.90343C21.201 6.00761 20.8392 5.92658 20.6825 5.70665L20.6704 5.69507L20.6584 5.6835C20.5016 5.46357 20.6222 5.20891 20.9237 5.09316C21.2131 4.98899 21.587 5.08159 21.7437 5.28994ZM21.8161 6.52849C22.1417 6.47062 22.4794 6.60952 22.5638 6.84102L22.5759 6.87575C22.6603 7.10725 22.4553 7.35033 22.1297 7.40821C21.804 7.46609 21.4664 7.32718 21.3819 7.09568L21.3699 7.07253C21.2975 6.82945 21.4905 6.58637 21.8161 6.52849ZM20.4051 4.54913C20.1398 4.6996 19.7539 4.67645 19.5488 4.49125L19.5247 4.4681C19.3077 4.2829 19.3438 4.00509 19.5971 3.85461C19.8503 3.70413 20.2363 3.72728 20.4533 3.91249L20.4775 3.93564C20.6945 4.12084 20.6584 4.38707 20.4051 4.54913ZM22.2623 8.068C22.6 8.05642 22.8774 8.2532 22.8894 8.49628V8.53101C22.9015 8.77409 22.6241 8.97087 22.2864 8.97087C21.9488 8.97087 21.6714 8.78566 21.6593 8.54258V8.51943C21.6473 8.27635 21.9246 8.068 22.2623 8.068ZM18.9217 3.3916C18.7167 3.58838 18.3308 3.62311 18.0655 3.47263L18.0293 3.44948C17.764 3.299 17.7037 3.03277 17.9087 2.83599C18.1137 2.63921 18.4996 2.60449 18.765 2.75496L18.8011 2.77811C19.0665 2.92859 19.1268 3.2064 18.9217 3.3916ZM22.202 9.63065C22.5276 9.67696 22.7447 9.90846 22.6844 10.14L22.6723 10.1747C22.6 10.4062 22.2744 10.5567 21.9488 10.5104C21.6231 10.4641 21.4061 10.2326 21.4784 9.98949L21.4905 9.96634C21.5508 9.73483 21.8643 9.58435 22.202 9.63065ZM17.1128 2.50031C16.968 2.72024 16.6063 2.81284 16.3048 2.72024L16.2686 2.70866C15.955 2.60449 15.8224 2.34983 15.9671 2.1299C16.1118 1.90997 16.4736 1.81737 16.7751 1.90997L16.8113 1.92155C17.1128 2.02572 17.2454 2.28038 17.1128 2.50031ZM21.6593 11.147C21.9729 11.2512 22.1055 11.5058 21.9608 11.7258L21.9367 11.7605C21.792 11.9804 21.4302 12.073 21.1287 11.9804C20.8272 11.8763 20.6825 11.6216 20.8272 11.4017L20.8392 11.3785C20.984 11.147 21.3458 11.0544 21.6593 11.147ZM15.0747 1.92155C15.0023 2.15305 14.6767 2.30353 14.3511 2.25723L14.3149 2.24565C13.9893 2.19935 13.7722 1.96785 13.8325 1.73634C13.9049 1.50484 14.2184 1.34279 14.5561 1.40066L14.6043 1.41224C14.9299 1.45854 15.135 1.69004 15.0747 1.92155ZM20.6584 12.5476C20.9237 12.6981 20.984 12.9643 20.7789 13.1611L20.7548 13.1843C20.5498 13.381 20.1639 13.4158 19.8986 13.2653C19.6333 13.1148 19.573 12.8486 19.778 12.6518L19.8021 12.6286C20.0071 12.4319 20.393 12.3971 20.6584 12.5476ZM12.9039 1.69004C12.916 1.93312 12.6386 2.1299 12.3009 2.1299H12.2647C11.927 2.14148 11.6497 1.9447 11.6376 1.70162C11.6256 1.45854 11.8909 1.26176 12.2285 1.25018H12.2768C12.6145 1.25018 12.8918 1.44696 12.9039 1.69004ZM19.2474 13.7399C19.4644 13.9251 19.4283 14.2029 19.175 14.3534L19.1388 14.3765C18.8735 14.527 18.4876 14.5038 18.2826 14.3186C18.0655 14.1334 18.1017 13.8556 18.367 13.7051L18.4032 13.682C18.6444 13.5315 19.0303 13.5547 19.2474 13.7399ZM10.709 1.79422C10.7934 2.02572 10.5884 2.2688 10.2628 2.32668L10.2266 2.33826C9.901 2.39613 9.56332 2.25723 9.4789 2.02572C9.39448 1.79422 9.58744 1.55114 9.92512 1.49326L9.97336 1.48169C10.299 1.41224 10.6246 1.56271 10.709 1.79422ZM8.6106 2.24565C8.76737 2.46558 8.64678 2.72024 8.34528 2.83599L8.32116 2.84757L8.29704 2.85914C7.99555 2.96332 7.63375 2.88229 7.47697 2.67394C7.3202 2.45401 7.44079 2.19935 7.74229 2.0836L7.76641 2.07202L7.79053 2.06045C8.09202 1.9447 8.45382 2.0373 8.6106 2.24565ZM17.4987 14.689C17.6555 14.909 17.5349 15.1636 17.2334 15.2794L17.2092 15.2909L17.1851 15.3025C16.8836 15.4067 16.5218 15.3257 16.3651 15.1057C16.2083 14.8858 16.3289 14.6312 16.6304 14.5154L16.6545 14.5038L16.6786 14.4923C16.968 14.3881 17.3419 14.4807 17.4987 14.689ZM15.4968 15.3372C15.5812 15.5688 15.3882 15.8118 15.0505 15.8697L15.0023 15.8813C14.6767 15.9392 14.339 15.8003 14.2667 15.5688C14.1822 15.3372 14.3872 15.0942 14.7129 15.0363L14.749 15.0247C15.0747 14.9553 15.4123 15.1057 15.4968 15.3372ZM6.70515 3.02119C6.92222 3.2064 6.88604 3.4842 6.62073 3.63468L6.58455 3.65783C6.33129 3.80831 5.94538 3.78516 5.7283 3.59996C5.51122 3.41475 5.5474 3.13695 5.80066 2.98647L5.83684 2.96332C6.10215 2.81284 6.48807 2.83599 6.70515 3.02119ZM5.08913 4.08612C5.35445 4.23659 5.41475 4.50282 5.20973 4.6996L5.18561 4.72275C4.98059 4.91953 4.59468 4.95426 4.32936 4.80378C4.06405 4.6533 4.00375 4.38707 4.20876 4.19029L4.23288 4.16714C4.4379 3.98194 4.81175 3.93564 5.08913 4.08612ZM13.338 15.6498C13.3501 15.8929 13.0848 16.0896 12.7471 16.1012H12.6989C12.3612 16.1012 12.0838 15.916 12.0718 15.6729C12.0597 15.4298 12.3371 15.2331 12.6748 15.2331H12.7109C13.0486 15.2099 13.338 15.4067 13.338 15.6498ZM11.1432 15.6035C11.0708 15.835 10.7572 15.997 10.4196 15.9392L10.3713 15.9276C10.0457 15.8813 9.82864 15.6498 9.901 15.4067C9.97336 15.1752 10.299 15.0247 10.6246 15.071H10.6608C10.9984 15.1405 11.2155 15.372 11.1432 15.6035ZM3.84697 5.38254C4.14846 5.48672 4.29318 5.74138 4.14846 5.96131L4.1364 5.98446C3.99169 6.20438 3.62989 6.29699 3.3284 6.20438C3.01484 6.10021 2.88218 5.84555 3.0269 5.62562L3.05102 5.5909C3.17162 5.37097 3.53341 5.27837 3.84697 5.38254ZM9.02063 15.2215C8.87591 15.4414 8.51412 15.534 8.21262 15.4414L8.17644 15.4298C7.87495 15.3257 7.73023 15.071 7.87495 14.8511C8.01967 14.6312 8.38146 14.5386 8.68296 14.6312L8.71914 14.6427C9.02063 14.7353 9.16535 15.0016 9.02063 15.2215ZM3.0269 6.82945C3.35252 6.87575 3.56959 7.10725 3.49723 7.35033V7.37348C3.42488 7.60499 3.11132 7.76704 2.77365 7.70917C2.44803 7.66286 2.23095 7.43136 2.29125 7.19986L2.30331 7.16513C2.37567 6.93363 2.70129 6.78315 3.0269 6.82945ZM2.68923 8.38053C3.0269 8.38053 3.30428 8.56573 3.31634 8.80881V8.83196C3.3284 9.07504 3.06308 9.27182 2.72541 9.2834C2.38773 9.29497 2.11036 9.09819 2.0983 8.85511V8.82039C2.08624 8.58888 2.35155 8.38053 2.68923 8.38053ZM7.06694 14.5038C6.86192 14.7006 6.47601 14.7353 6.21069 14.5849L6.17451 14.5617C5.9092 14.4112 5.8489 14.145 6.05392 13.9482C6.25893 13.7514 6.64485 13.7167 6.91016 13.8672L6.94634 13.8903C7.21166 14.0408 7.27196 14.3071 7.06694 14.5038ZM5.37857 13.4968C5.12531 13.6473 4.7394 13.6241 4.52232 13.4389L4.4982 13.4158C4.28112 13.2306 4.3173 12.9527 4.58262 12.8023C4.84793 12.6518 5.23385 12.6749 5.43886 12.8601L5.46298 12.8833C5.68006 13.0685 5.64388 13.3463 5.37857 13.4968ZM2.846 9.94319C3.17162 9.88531 3.50929 10.0242 3.59371 10.2557L3.60577 10.2789C3.69019 10.5104 3.49723 10.7535 3.15956 10.8113C2.83394 10.8692 2.49627 10.7303 2.41185 10.4988L2.39979 10.4641C2.31537 10.2441 2.52039 10.0011 2.846 9.94319ZM3.48517 11.448C3.78667 11.3438 4.14846 11.4248 4.30524 11.6447L4.3173 11.6563L4.32936 11.6679C4.48614 11.8878 4.36554 12.1425 4.06405 12.2582C3.76255 12.3624 3.40076 12.2814 3.24398 12.073L3.23192 12.0615L3.21986 12.0499C3.06308 11.8184 3.18368 11.5521 3.48517 11.448Z"
      fill="#955A04"
    />
    <path
      fill-rule="evenodd"
      clip-rule="evenodd"
      d="M17.7641 6.52849C17.8727 6.69054 17.8486 6.87575 17.6797 7.01465L15.7743 8.56573L17.4506 10.2557C17.5953 10.4062 17.5953 10.5914 17.4626 10.7419C17.33 10.8924 17.0767 10.9618 16.8355 10.9271L13.9774 10.5335L12.7593 12.4087C12.6508 12.5708 12.4216 12.6749 12.1684 12.6634C11.9151 12.6518 11.698 12.536 11.6257 12.3624L10.6971 10.4062L7.81479 10.5914C7.56153 10.603 7.33239 10.5104 7.2118 10.3599C7.10326 10.1978 7.12738 10.0126 7.29621 9.87373L9.20167 8.32265L7.53741 6.63267C7.39269 6.48219 7.39269 6.29699 7.52535 6.14651C7.65801 5.99603 7.91127 5.92658 8.15246 5.9613L10.9986 6.36644L12.2166 4.49125C12.3252 4.3292 12.5543 4.22502 12.8076 4.23659C13.0608 4.24817 13.2779 4.36392 13.3502 4.53755L14.2789 6.49376L17.1611 6.30856C17.4144 6.27384 17.6556 6.36644 17.7641 6.52849ZM15.7501 7.25773L13.905 7.37348C13.6276 7.39663 13.3623 7.26931 13.2658 7.0841L12.6749 5.83398L11.9031 7.0378C11.7825 7.22301 11.5051 7.32718 11.2277 7.28088L9.41874 7.02623L10.48 8.10272C10.6488 8.26478 10.6247 8.48471 10.4438 8.64676L9.22579 9.64223L11.0709 9.52648C11.3483 9.50333 11.6136 9.63065 11.7101 9.81586L12.301 11.066L13.0729 9.86216C13.1935 9.67696 13.4708 9.57278 13.7482 9.61908L15.5572 9.87373L14.4959 8.79724C14.3271 8.63518 14.3512 8.41526 14.5321 8.2532L15.7501 7.25773Z"
      fill="#955A04"
    />
    <path
      fill-rule="evenodd"
      clip-rule="evenodd"
      d="M20.2243 7.30404C20.1158 7.53554 19.7781 7.66287 19.4525 7.58184L17.0285 7.01466C16.7029 6.94521 16.534 6.69055 16.6305 6.47062L17.4144 4.73433C17.5229 4.50283 17.8606 4.3755 18.1862 4.45653C18.5118 4.52598 18.6807 4.78064 18.5842 5.00056L17.9812 6.32014L19.8264 6.74843C20.152 6.82945 20.3329 7.07253 20.2243 7.30404Z"
      fill="#955A04"
    />
    <path
      fill-rule="evenodd"
      clip-rule="evenodd"
      d="M6.77767 12.2004C7.10329 12.2698 7.44096 12.1541 7.5495 11.9226L8.33339 10.1863C8.44193 9.95479 8.26103 9.71171 7.93541 9.64226L5.51139 9.07507C5.18578 9.00562 4.8481 9.12137 4.73956 9.35288C4.63102 9.58438 4.81192 9.82746 5.13754 9.89691L6.98269 10.3252L6.3797 11.6448C6.28322 11.8763 6.46412 12.1194 6.77767 12.2004Z"
      fill="#955A04"
    />
    <path
      fill-rule="evenodd"
      clip-rule="evenodd"
      d="M15.111 3.03281C15.3402 3.20644 15.3161 3.48425 15.0628 3.6463L13.1694 4.8617C12.9161 5.02376 12.5302 5.01218 12.3011 4.82698L10.6007 3.48425C10.3715 3.31062 10.3956 3.03281 10.6489 2.87076C10.9022 2.70871 11.2881 2.72028 11.5172 2.90549L12.8197 3.93568L14.2548 3.00966C14.508 2.83604 14.894 2.85919 15.111 3.03281Z"
      fill="#955A04"
    />
    <path
      fill-rule="evenodd"
      clip-rule="evenodd"
      d="M14.3271 13.7862C14.5804 13.6241 14.5924 13.3463 14.3754 13.1727L12.6629 11.8184C12.4337 11.6447 12.0478 11.6216 11.7946 11.7836L9.90117 12.999C9.64791 13.1611 9.63585 13.4389 9.85293 13.6125C10.0821 13.7862 10.468 13.8093 10.7212 13.6473L12.1564 12.7212L13.4588 13.7514C13.688 13.9366 14.0739 13.9482 14.3271 13.7862Z"
      fill="#955A04"
    />
    <path
      fill-rule="evenodd"
      clip-rule="evenodd"
      d="M7.38069 4.063C7.70631 4.0167 8.03192 4.16717 8.10428 4.39868L8.63491 6.18126C8.70727 6.41277 8.49019 6.64427 8.16458 6.70215L5.6682 7.07256C5.34258 7.11886 5.01697 6.96838 4.94461 6.73688C4.87225 6.50537 5.08933 6.27387 5.41494 6.21599L7.30833 5.92661L6.91036 4.57231C6.838 4.3408 7.04302 4.1093 7.38069 4.063Z"
      fill="#955A04"
    />
    <path
      fill-rule="evenodd"
      clip-rule="evenodd"
      d="M20.0314 9.92004C19.959 9.68853 19.6334 9.53806 19.3078 9.58436L16.8114 9.96634C16.4858 10.0126 16.2687 10.2441 16.3411 10.4872L16.8717 12.2698C16.9441 12.5013 17.2697 12.6518 17.5953 12.6055C17.9209 12.5592 18.138 12.3277 18.0656 12.0846L17.6677 10.7303L19.5611 10.4409C19.8987 10.3946 20.1038 10.1631 20.0314 9.92004Z"
      fill="#955A04"
    />
    <path
      fill-rule="evenodd"
      clip-rule="evenodd"
      d="M11.9393 7.54712C12.5423 7.32719 13.278 7.50081 13.5795 7.9291C13.8809 8.35738 13.6518 8.88984 13.0488 9.0982C12.4458 9.31813 11.7102 9.1445 11.4087 8.71622C11.1072 8.28793 11.3363 7.76705 11.9393 7.54712Z"
      fill="#955A04"
    />
    <path
      fill-rule="evenodd"
      clip-rule="evenodd"
      d="M11.6255 7.11886C11.324 7.22304 10.9623 7.14201 10.8055 6.93366L9.85275 5.59093C9.69597 5.371 9.81657 5.11634 10.1181 5.00059C10.4196 4.89641 10.7814 4.97744 10.9381 5.1858L11.8909 6.52852C12.0476 6.74845 11.927 7.00311 11.6255 7.11886Z"
      fill="#955A04"
    />
    <path
      fill-rule="evenodd"
      clip-rule="evenodd"
      d="M14.8577 11.6448C14.5562 11.749 14.1944 11.668 14.0377 11.4596L13.0849 10.1169C12.9282 9.89694 13.0487 9.64228 13.3502 9.52653C13.6517 9.42235 14.0135 9.50338 14.1703 9.71174L15.123 11.0545C15.2798 11.2744 15.1592 11.529 14.8577 11.6448Z"
      fill="#955A04"
    />
    <path
      fill-rule="evenodd"
      clip-rule="evenodd"
      d="M11.4326 9.4802C11.71 9.60753 11.7944 9.88534 11.6135 10.0821L10.4678 11.3438C10.2869 11.5406 9.90103 11.5985 9.62366 11.4711C9.34628 11.3438 9.26186 11.066 9.44276 10.8692L10.5884 9.60753C10.7814 9.41075 11.1553 9.35288 11.4326 9.4802Z"
      fill="#955A04"
    />
    <path
      fill-rule="evenodd"
      clip-rule="evenodd"
      d="M15.3281 5.19735C15.6055 5.32468 15.6899 5.60249 15.509 5.79927L14.3634 7.06097C14.1825 7.25775 13.7965 7.31562 13.5192 7.1883C13.2418 7.06097 13.1574 6.78316 13.3383 6.58638L14.484 5.32468C14.6769 5.11633 15.0508 5.05845 15.3281 5.19735Z"
      fill="#955A04"
    />
    <path
      fill-rule="evenodd"
      clip-rule="evenodd"
      d="M10.5764 8.25323C10.5643 8.49631 10.2749 8.68151 9.93722 8.66994L7.83881 8.58891C7.50113 8.57733 7.24787 8.36898 7.25993 8.1259C7.27199 7.88282 7.56143 7.69762 7.89911 7.70919L9.99751 7.79022C10.3352 7.81337 10.6005 8.02172 10.5764 8.25323Z"
      fill="#955A04"
    />
    <path
      fill-rule="evenodd"
      clip-rule="evenodd"
      d="M17.7038 8.51947C17.6918 8.76255 17.4023 8.94775 17.0647 8.93617L14.9662 8.85515C14.6286 8.84357 14.3753 8.63522 14.3874 8.39214C14.3994 8.14906 14.6889 7.96385 15.0265 7.97543L17.125 8.05646C17.4626 8.07961 17.7159 8.27639 17.7038 8.51947Z"
      fill="#955A04"
    />
    <path
      fill-rule="evenodd"
      clip-rule="evenodd"
      d="M8.14035 17.6291C8.40677 17.6291 8.62274 17.8364 8.62274 18.0921V20.8123C8.62274 21.068 8.40677 21.2753 8.14035 21.2753C7.87393 21.2753 7.65796 21.068 7.65796 20.8123V18.0921C7.65796 17.8364 7.87393 17.6291 8.14035 17.6291Z"
      fill="#FFC930"
    />
    <path
      fill-rule="evenodd"
      clip-rule="evenodd"
      d="M14.7734 17.8606C15.0398 17.8606 15.2558 18.0679 15.2558 18.3236V21.4489C15.2558 21.7046 15.0398 21.9119 14.7734 21.9119C14.507 21.9119 14.291 21.7046 14.291 21.4489V18.3236C14.291 18.0679 14.507 17.8606 14.7734 17.8606Z"
      fill="#FFC930"
    />
    <path
      fill-rule="evenodd"
      clip-rule="evenodd"
      d="M21.8283 16.2632C22.0948 16.2632 22.3107 16.4705 22.3107 16.7262V18.0573C22.3107 18.3131 22.0948 18.5204 21.8283 18.5204C21.5619 18.5204 21.3459 18.3131 21.3459 18.0573V16.7262C21.3459 16.4705 21.5619 16.2632 21.8283 16.2632Z"
      fill="#FFC930"
    />
    <path
      fill-rule="evenodd"
      clip-rule="evenodd"
      d="M4.00388 15.916C4.2703 15.916 4.48627 16.1233 4.48627 16.379V18.6246C4.48627 18.8803 4.2703 19.0876 4.00388 19.0876C3.73746 19.0876 3.52148 18.8803 3.52148 18.6246V16.379C3.52148 16.1233 3.73746 15.916 4.00388 15.916Z"
      fill="#FFC930"
    />
    <path
      fill-rule="evenodd"
      clip-rule="evenodd"
      d="M1.82102 14.3881C2.08743 14.3881 2.30341 14.5954 2.30341 14.8511V16.1012C2.30341 16.3569 2.08743 16.5642 1.82102 16.5642C1.5546 16.5642 1.33862 16.3569 1.33862 16.1012V14.8511C1.33862 14.5954 1.5546 14.3881 1.82102 14.3881Z"
      fill="#FFC930"
    />
    <g clip-path="url(#clip1)">
      <path
        d="M23.8785 8.73931C23.8785 13.1823 18.7761 16.7841 12.482 16.7841C6.18785 16.7841 1.08545 13.1823 1.08545 8.73931C1.08545 4.2963 6.18785 0.694519 12.482 0.694519C18.7761 0.694519 23.8785 4.2963 23.8785 8.73931Z"
        fill="#FFC930"
      />
      <path
        fill-rule="evenodd"
        clip-rule="evenodd"
        d="M12.4591 1.41286L12.482 1.41284L12.5049 1.41286C12.8421 1.41337 13.1149 1.60674 13.1141 1.84476C13.1134 2.08278 12.8395 2.27531 12.5023 2.2748L12.482 2.27478L12.4617 2.2748C12.1245 2.27531 11.8506 2.08278 11.8499 1.84476C11.8491 1.60674 12.1219 1.41337 12.4591 1.41286ZM14.0401 1.91735C14.1141 1.68514 14.4408 1.53925 14.7697 1.5915L14.8143 1.59865C15.1429 1.65193 15.3482 1.88318 15.2727 2.11516C15.1972 2.34714 14.8696 2.492 14.541 2.43872L14.5017 2.43242C14.1727 2.38017 13.966 2.14956 14.0401 1.91735ZM10.9239 1.91735C10.998 2.14956 10.7913 2.38017 10.4623 2.43242L10.423 2.43872C10.0944 2.492 9.76682 2.34714 9.69134 2.11516C9.61586 1.88318 9.82108 1.65193 10.1497 1.59865L10.1943 1.5915C10.5232 1.53925 10.8499 1.68514 10.9239 1.91735ZM16.1514 2.33224C16.2973 2.11764 16.6619 2.02712 16.966 2.13007L17.0071 2.14409C17.3105 2.24799 17.4371 2.50581 17.2899 2.71996C17.1427 2.9341 16.7775 3.02348 16.4741 2.91958L16.4378 2.90722C16.1338 2.80427 16.0056 2.54684 16.1514 2.33224ZM8.8126 2.33224C8.95844 2.54684 8.83021 2.80427 8.5262 2.90722L8.48991 2.91958C8.18654 3.02348 7.8213 2.9341 7.67411 2.71996C7.52693 2.50581 7.65354 2.24799 7.9569 2.14409L7.99806 2.13007C8.30207 2.02712 8.66675 2.11764 8.8126 2.33224ZM18.078 3.07033C18.2878 2.88401 18.6719 2.85303 18.9358 3.00115L18.9715 3.02126C19.2345 3.17018 19.2767 3.44143 19.0657 3.6271C18.8548 3.81277 18.4705 3.84256 18.2075 3.69363L18.176 3.67588C17.912 3.52776 17.8682 3.25665 18.078 3.07033ZM6.88604 3.07033C7.09586 3.25665 7.05198 3.52777 6.78803 3.67588L6.75654 3.69363C6.49351 3.84256 6.10925 3.81277 5.89828 3.6271C5.6873 3.44143 5.7295 3.17018 5.99253 3.02126L6.0282 3.00115C6.29215 2.85304 6.67622 2.88401 6.88604 3.07033ZM19.7242 4.0919C19.9872 3.94298 20.3715 3.97276 20.5825 4.15844L20.6109 4.18362C20.8208 4.36994 20.7769 4.64105 20.5129 4.78916C20.249 4.93728 19.8649 4.9063 19.6551 4.71998L19.6299 4.69775C19.419 4.51208 19.4612 4.24083 19.7242 4.0919ZM5.23982 4.0919C5.50285 4.24083 5.54504 4.51208 5.33407 4.69775L5.30892 4.71998C5.0991 4.9063 4.71503 4.93728 4.45108 4.78916C4.18713 4.64105 4.14325 4.36994 4.35307 4.18362L4.38156 4.15844C4.59254 3.97276 4.97679 3.94298 5.23982 4.0919ZM21.0093 5.34546C21.3127 5.24157 21.6779 5.33094 21.8251 5.54509L21.8449 5.57414C21.9908 5.78874 21.8626 6.04617 21.5585 6.14912C21.2545 6.25207 20.8898 6.16155 20.744 5.94695L20.7265 5.92133C20.5793 5.70719 20.7059 5.44936 21.0093 5.34546ZM3.95473 5.34546C4.2581 5.44936 4.38471 5.70719 4.23752 5.92133L4.22001 5.94695C4.07417 6.16155 3.70949 6.25207 3.40548 6.14912C3.10146 6.04617 2.97324 5.78874 3.11908 5.57414L3.13894 5.54509C3.28612 5.33094 3.65136 5.24157 3.95473 5.34546ZM21.8661 6.76942C22.1947 6.71614 22.5223 6.861 22.5978 7.09298L22.6079 7.12445C22.6819 7.35666 22.4752 7.58726 22.1463 7.63952C21.8173 7.69177 21.4906 7.54588 21.4166 7.31367L21.4077 7.28593C21.3322 7.05395 21.5374 6.8227 21.8661 6.76942ZM3.09796 6.76942C3.42659 6.8227 3.6318 7.05395 3.55633 7.28593L3.54739 7.31367C3.47337 7.54588 3.14669 7.69177 2.81773 7.63952C2.48877 7.58727 2.2821 7.35666 2.35612 7.12445L2.36625 7.09299C2.44173 6.86101 2.76933 6.71614 3.09796 6.76942ZM2.7149 8.29313C3.05209 8.29364 3.32484 8.48701 3.32411 8.72503L3.32408 8.73935L3.32411 8.75367C3.32484 8.99169 3.05209 9.18506 2.7149 9.18558C2.37772 9.18609 2.10378 8.99356 2.10305 8.75554L2.10303 8.73935L2.10305 8.72316C2.10378 8.48514 2.37772 8.29261 2.7149 8.29313ZM22.2491 8.29313C22.5863 8.29261 22.8602 8.48514 22.861 8.72316L22.861 8.73935L22.861 8.75554C22.8602 8.99356 22.5863 9.18609 22.2491 9.18558C21.9119 9.18506 21.6392 8.99169 21.6399 8.75367L21.6399 8.73935L21.6399 8.72503C21.6392 8.48701 21.9119 8.29364 22.2491 8.29313ZM22.1463 9.83918C22.4752 9.89144 22.6819 10.122 22.6079 10.3543L22.5978 10.3857C22.5223 10.6177 22.1947 10.7626 21.8661 10.7093C21.5374 10.656 21.3322 10.4248 21.4077 10.1928L21.4166 10.165C21.4906 9.93282 21.8173 9.78693 22.1463 9.83918ZM2.81773 9.83919C3.14669 9.78693 3.47337 9.93282 3.54739 10.165L3.55633 10.1928C3.6318 10.4248 3.42659 10.656 3.09796 10.7093C2.76933 10.7626 2.44173 10.6177 2.36626 10.3857L2.35612 10.3543C2.2821 10.122 2.48877 9.89144 2.81773 9.83919ZM3.40548 11.3296C3.70949 11.2266 4.07417 11.3171 4.22001 11.5318L4.23752 11.5574C4.38471 11.7715 4.2581 12.0293 3.95473 12.1332C3.65136 12.2371 3.28612 12.1478 3.13894 11.9336L3.11908 11.9046C2.97324 11.69 3.10146 11.4325 3.40548 11.3296ZM21.5585 11.3296C21.8626 11.4325 21.9908 11.69 21.8449 11.9046L21.8251 11.9336C21.6779 12.1478 21.3127 12.2371 21.0093 12.1332C20.7059 12.0293 20.5793 11.7715 20.7265 11.5574L20.744 11.5317C20.8898 11.3171 21.2545 11.2266 21.5585 11.3296ZM20.5129 12.6895C20.7769 12.8376 20.8208 13.1088 20.6109 13.2951L20.5825 13.3203C20.3715 13.5059 19.9872 13.5357 19.7242 13.3868C19.4612 13.2379 19.419 12.9666 19.6299 12.781L19.6551 12.7587C19.8649 12.5724 20.249 12.5414 20.5129 12.6895ZM4.45108 12.6895C4.71503 12.5414 5.0991 12.5724 5.30892 12.7587L5.33407 12.781C5.54504 12.9666 5.50285 13.2379 5.23982 13.3868C4.97679 13.5357 4.59254 13.5059 4.38156 13.3203L4.35308 13.2951C4.14325 13.1088 4.18713 12.8377 4.45108 12.6895ZM19.0657 13.8516C19.2767 14.0373 19.2345 14.3085 18.9715 14.4574L18.9358 14.4776C18.6719 14.6257 18.2878 14.5947 18.078 14.4084C17.8682 14.222 17.912 13.9509 18.176 13.8028L18.2075 13.7851C18.4705 13.6361 18.8548 13.6659 19.0657 13.8516ZM5.89828 13.8516C6.10925 13.6659 6.49351 13.6361 6.75654 13.7851L6.78803 13.8028C7.05198 13.9509 7.09586 14.222 6.88604 14.4084C6.67622 14.5947 6.29215 14.6257 6.0282 14.4776L5.99253 14.4574C5.7295 14.3085 5.6873 14.0373 5.89828 13.8516ZM7.67411 14.7587C7.8213 14.5446 8.18654 14.4552 8.48991 14.5591L8.5262 14.5715C8.83021 14.6744 8.95844 14.9319 8.8126 15.1465C8.66676 15.3611 8.30208 15.4516 7.99806 15.3486L7.9569 15.3346C7.65354 15.2307 7.52693 14.9729 7.67411 14.7587ZM17.2899 14.7587C17.4371 14.9729 17.3105 15.2307 17.0071 15.3346L16.966 15.3486C16.6619 15.4516 16.2973 15.3611 16.1514 15.1465C16.0056 14.9319 16.1338 14.6744 16.4378 14.5715L16.4741 14.5591C16.7775 14.4552 17.1427 14.5446 17.2899 14.7587ZM15.2727 15.3635C15.3482 15.5955 15.1429 15.8268 14.8143 15.88L14.7697 15.8872C14.4408 15.9395 14.1141 15.7936 14.0401 15.5614C13.966 15.3291 14.1727 15.0985 14.5017 15.0463L14.541 15.04C14.8696 14.9867 15.1972 15.1316 15.2727 15.3635ZM9.69134 15.3635C9.76682 15.1316 10.0944 14.9867 10.423 15.04L10.4623 15.0463C10.7913 15.0985 10.998 15.3291 10.9239 15.5614C10.8499 15.7936 10.5232 15.9395 10.1943 15.8872L10.1497 15.88C9.82108 15.8268 9.61586 15.5955 9.69134 15.3635ZM11.8499 15.6339C11.8506 15.3959 12.1245 15.2034 12.4617 15.2039L12.482 15.2039L12.5023 15.2039C12.8395 15.2034 13.1134 15.3959 13.1141 15.6339C13.1149 15.872 12.8421 16.0653 12.5049 16.0658L12.482 16.0659L12.4591 16.0658C12.1219 16.0653 11.8491 15.872 11.8499 15.6339Z"
        fill="#955A04"
      />
      <path
        fill-rule="evenodd"
        clip-rule="evenodd"
        d="M13.9836 5.45478C14.222 5.62308 14.222 5.89596 13.9836 6.06426L12.9136 6.81953C12.6752 6.98783 12.2887 6.98783 12.0502 6.81953L10.9803 6.06426C10.7419 5.89596 10.7419 5.62308 10.9803 5.45478C11.2187 5.28647 11.6053 5.28647 11.8437 5.45478L12.4819 5.9053L13.1202 5.45478C13.3586 5.28647 13.7451 5.28647 13.9836 5.45478Z"
        fill="#955A04"
      />
      <path
        fill-rule="evenodd"
        clip-rule="evenodd"
        d="M13.9836 12.0238C14.222 11.8555 14.222 11.5826 13.9836 11.4143L12.9136 10.6591C12.6752 10.4907 12.2887 10.4907 12.0502 10.6591L10.9803 11.4143C10.7419 11.5826 10.7419 11.8555 10.9803 12.0238C11.2187 12.1921 11.6053 12.1921 11.8437 12.0238L12.4819 11.5733L13.1202 12.0238C13.3586 12.1921 13.7451 12.1921 13.9836 12.0238Z"
        fill="#955A04"
      />
      <path
        fill-rule="evenodd"
        clip-rule="evenodd"
        d="M9.20337 6.17903C9.52907 6.11742 9.86385 6.25386 9.95112 6.48377L10.3427 7.51548C10.43 7.74538 10.2367 7.9817 9.91103 8.04331L8.44948 8.31975C8.12378 8.38135 7.78901 8.24492 7.70174 8.01501C7.61447 7.7851 7.80775 7.54878 8.13345 7.48718L9.00527 7.32228L8.77167 6.70686C8.6844 6.47695 8.87768 6.24063 9.20337 6.17903Z"
        fill="#955A04"
      />
      <path
        fill-rule="evenodd"
        clip-rule="evenodd"
        d="M17.2629 9.46357C17.1756 9.23366 16.8408 9.09722 16.5151 9.15882L15.0536 9.43527C14.7279 9.49687 14.5346 9.73319 14.6219 9.9631L15.0135 10.9948C15.1008 11.2247 15.4355 11.3612 15.7612 11.2995C16.0869 11.2379 16.2802 11.0016 16.1929 10.7717L15.9593 10.1563L16.8312 9.9914C17.1569 9.92979 17.3501 9.69348 17.2629 9.46357Z"
        fill="#955A04"
      />
      <path
        fill-rule="evenodd"
        clip-rule="evenodd"
        d="M7.70174 9.46351C7.78901 9.2336 8.12378 9.09716 8.44948 9.15876L9.91103 9.43521C10.2367 9.49681 10.43 9.73313 10.3427 9.96304L9.95112 10.9947C9.86385 11.2247 9.52907 11.3611 9.20337 11.2995C8.87768 11.2379 8.6844 11.0016 8.77167 10.7717L9.00527 10.1562L8.13345 9.99134C7.80775 9.92973 7.61447 9.69341 7.70174 9.46351Z"
        fill="#955A04"
      />
      <path
        fill-rule="evenodd"
        clip-rule="evenodd"
        d="M15.7607 6.17903C15.435 6.11742 15.1003 6.25386 15.013 6.48377L14.6214 7.51548C14.5341 7.74539 14.7274 7.9817 15.0531 8.04331L16.5146 8.31975C16.8403 8.38135 17.1751 8.24492 17.2624 8.01501C17.3496 7.7851 17.1564 7.54878 16.8307 7.48718L15.9588 7.32228L16.1924 6.70686C16.2797 6.47695 16.0864 6.24063 15.7607 6.17903Z"
        fill="#955A04"
      />
      <path
        fill-rule="evenodd"
        clip-rule="evenodd"
        d="M12.4818 6.07935C12.8189 6.07935 13.0923 6.2723 13.0923 6.51032L13.0923 10.9664C13.0923 11.2044 12.8189 11.3974 12.4818 11.3974C12.1446 11.3974 11.8712 11.2044 11.8712 10.9664L11.8712 6.51032C11.8712 6.2723 12.1446 6.07935 12.4818 6.07935Z"
        fill="#955A04"
      />
      <path
        fill-rule="evenodd"
        clip-rule="evenodd"
        d="M9.21964 7.40882C9.38823 7.20268 9.76162 7.13206 10.0536 7.25107L15.5205 9.47912C15.8126 9.59813 15.9126 9.8617 15.744 10.0678C15.5754 10.274 15.202 10.3446 14.91 10.2256L9.44311 7.99753C9.1511 7.87852 9.05105 7.61495 9.21964 7.40882Z"
        fill="#955A04"
      />
      <path
        fill-rule="evenodd"
        clip-rule="evenodd"
        d="M9.21957 10.0677C9.05098 9.86156 9.15103 9.59798 9.44304 9.47897L14.9099 7.25093C15.202 7.13192 15.5754 7.20255 15.7439 7.40868C15.9125 7.61481 15.8125 7.87839 15.5205 7.9974L10.0536 10.2254C9.76156 10.3444 9.38816 10.2738 9.21957 10.0677Z"
        fill="#955A04"
      />
    </g>
  </g>
  <defs>
    <clipPath id="clip0">
      <rect width="25" height="23" fill="white" />
    </clipPath>
    <clipPath id="clip1">
      <rect
        width="22.7931"
        height="16.0896"
        fill="white"
        transform="translate(1.08545 0.694519)"
      />
    </clipPath>
  </defs>
</svg>