<svg
  width="54"
  height="52"
  viewBox="0 0 54 52"
  fill="none"
  xmlns="http://www.w3.org/2000/svg"
>
  <g clip-path="url(#clip0)">
    <path d="M54 20.7267H0L0 32.3986H54V20.7267Z" fill="#955A04" />
    <path
      d="M26.987 52.0261C41.8915 52.0261 53.9739 43.0277 53.9739 31.9275C53.9739 20.8273 41.8915 11.8289 26.987 11.8289C12.0825 11.8289 0 20.8273 0 31.9275C0 43.0277 12.0825 52.0261 26.987 52.0261Z"
      fill="#955A04"
    />
    <path
      d="M39.2557 38.1298C25.9706 43.1807 9.71593 39.229 2.94314 29.3105C-3.82966 19.392 1.45833 7.2491 14.7434 2.19827C28.0285 -2.85256 44.2832 1.07296 51.056 10.9914C57.8028 20.9361 52.5408 33.079 39.2557 38.1298Z"
      fill="#955A04"
    />
    <path
      d="M38.1621 36.2719C26.0492 40.9041 11.2012 37.2926 5.00147 28.2377C-1.17219 19.1829 3.64691 8.08674 15.7598 3.45463C27.8987 -1.15131 42.7468 2.46016 48.9465 11.515C55.1201 20.5699 50.301 31.666 38.1621 36.2719Z"
      fill="#FFC930"
    />
    <path
      fill-rule="evenodd"
      clip-rule="evenodd"
      d="M46.9667 11.9599L46.9928 11.9861L47.0188 12.0122C47.3575 12.5095 47.097 13.0852 46.4458 13.3469C45.7945 13.5825 45.013 13.3993 44.6744 12.902L44.6484 12.8759L44.6223 12.8497C44.2837 12.3525 44.5442 11.7767 45.1954 11.515C45.8206 11.2795 46.6281 11.4888 46.9667 11.9599ZM47.123 14.7601C47.8264 14.6293 48.5557 14.9433 48.7381 15.4667L48.7641 15.5452C48.9465 16.0686 48.5036 16.6182 47.8003 16.749C47.097 16.8799 46.3676 16.5658 46.1853 16.0424L46.1592 15.9901C46.0029 15.4405 46.4197 14.891 47.123 14.7601ZM44.0753 10.285C43.5022 10.6252 42.6686 10.5729 42.2258 10.1542L42.1737 10.1018C41.7048 9.68311 41.7829 9.05502 42.33 8.71481C42.877 8.3746 43.7106 8.42694 44.1795 8.84566L44.2316 8.898C44.7005 9.31672 44.6223 9.91864 44.0753 10.285ZM48.0869 18.2407C48.8162 18.2146 49.4154 18.6595 49.4414 19.209V19.2875C49.4675 19.8371 48.8683 20.282 48.139 20.282C47.4096 20.282 46.8104 19.8633 46.7844 19.3137V19.2614C46.7583 18.7118 47.3575 18.2407 48.0869 18.2407ZM40.8712 7.66801C40.4284 8.1129 39.5948 8.19141 39.0217 7.8512L38.9436 7.79886C38.3705 7.45865 38.2403 6.85673 38.6831 6.41184C39.1259 5.96695 39.9595 5.88844 40.5326 6.22865L40.6107 6.28099C41.1838 6.6212 41.3141 7.24929 40.8712 7.66801ZM47.9566 21.7737C48.6599 21.8784 49.1288 22.4018 48.9986 22.9252L48.9725 23.0037C48.8162 23.5271 48.1129 23.8673 47.4096 23.7626C46.7062 23.6579 46.2374 23.1345 46.3937 22.585L46.4197 22.5326C46.5499 22.0092 47.2272 21.669 47.9566 21.7737ZM36.9638 5.65291C36.6513 6.15014 35.8698 6.3595 35.2185 6.15014L35.1404 6.12397C34.4631 5.88844 34.1766 5.3127 34.4892 4.81547C34.8018 4.31823 35.5832 4.10887 36.2345 4.31823L36.3126 4.3444C36.9638 4.57994 37.2504 5.15568 36.9638 5.65291ZM46.7844 25.202C47.4617 25.4375 47.7482 26.0133 47.4356 26.5105L47.3835 26.589C47.0709 27.0862 46.2895 27.2956 45.6382 27.0862C44.987 26.8507 44.6744 26.275 44.987 25.7777L45.013 25.7254C45.3256 25.202 46.1071 24.9926 46.7844 25.202ZM32.5615 4.3444C32.4052 4.86781 31.7019 5.20802 30.9986 5.10334L30.9204 5.07717C30.2171 4.97249 29.7482 4.44908 29.8785 3.92568C30.0348 3.40228 30.712 3.0359 31.4414 3.16675L31.5456 3.19292C32.2489 3.2976 32.6918 3.821 32.5615 4.3444ZM44.6223 28.3686C45.1954 28.7088 45.3256 29.3107 44.8828 29.7556L44.8307 29.8079C44.3879 30.2528 43.5543 30.3313 42.9812 29.9911C42.4081 29.6509 42.2779 29.049 42.7207 28.6041L42.7728 28.5518C43.2157 28.1069 44.0492 28.0283 44.6223 28.3686ZM27.8727 3.821C27.8987 4.37057 27.2996 4.81547 26.5702 4.81547H26.4921C25.7627 4.84164 25.1636 4.39674 25.1375 3.84717C25.1115 3.2976 25.6845 2.85271 26.4139 2.82654H26.5181C27.2475 2.82654 27.8466 3.27143 27.8727 3.821ZM41.5746 31.0641C42.0434 31.4828 41.9653 32.1109 41.4183 32.4511L41.3401 32.5034C40.767 32.8436 39.9335 32.7913 39.4906 32.3726C39.0217 31.9539 39.0999 31.3258 39.673 30.9856L39.7511 30.9332C40.2721 30.593 41.1057 30.6454 41.5746 31.0641ZM23.1317 4.05653C23.3141 4.57994 22.8712 5.12951 22.1679 5.26036L22.0898 5.28653C21.3864 5.41738 20.657 5.10334 20.4747 4.57994C20.2924 4.05653 20.7091 3.50696 21.4385 3.37611L21.5427 3.34994C22.246 3.19292 22.9494 3.53313 23.1317 4.05653ZM18.5992 5.07717C18.9378 5.5744 18.6773 6.15014 18.0261 6.41184L17.974 6.43801L17.9219 6.46418C17.2707 6.69971 16.4892 6.51652 16.1505 6.04546C15.8119 5.54823 16.0724 4.97249 16.7236 4.71079L16.7757 4.68462L16.8278 4.65845C17.479 4.39674 18.2605 4.60611 18.5992 5.07717ZM37.7974 33.21C38.1361 33.7073 37.8756 34.283 37.2243 34.5447L37.1722 34.5709L37.1201 34.597C36.4689 34.8326 35.6874 34.6494 35.3488 34.1522C35.0102 33.6549 35.2706 33.0792 35.9219 32.8175L35.974 32.7913L36.0261 32.7651C36.6513 32.5296 37.4588 32.739 37.7974 33.21ZM33.4733 34.6756C33.6556 35.199 33.2388 35.7485 32.5094 35.8794L32.4052 35.9055C31.7019 36.0364 30.9725 35.7224 30.8162 35.199C30.6339 34.6756 31.0767 34.126 31.7801 33.9951L31.8582 33.969C32.5615 33.8119 33.2909 34.1522 33.4733 34.6756ZM14.4834 6.83056C14.9523 7.24929 14.8741 7.87737 14.301 8.21758L14.2229 8.26992C13.6759 8.61013 12.8423 8.55779 12.3734 8.13907C11.9045 7.72035 11.9827 7.09227 12.5297 6.75205L12.6078 6.69971C13.1809 6.3595 14.0145 6.41184 14.4834 6.83056ZM10.9928 9.23821C11.5659 9.57842 11.6961 10.1803 11.2533 10.6252L11.2012 10.6776C10.7584 11.1225 9.92478 11.201 9.35169 10.8608C8.77861 10.5205 8.64837 9.91864 9.0912 9.47374L9.1433 9.4214C9.58614 9.00268 10.3937 8.898 10.9928 9.23821ZM28.8104 35.3821C28.8365 35.9317 28.2634 36.3766 27.534 36.4028H27.4298C26.7005 36.4028 26.1013 35.9841 26.0753 35.4345C26.0492 34.8849 26.6484 34.44 27.3777 34.44H27.4559C28.1853 34.3877 28.8104 34.8326 28.8104 35.3821ZM24.0695 35.2775C23.9132 35.8009 23.2359 36.1673 22.5065 36.0364L22.4023 36.0102C21.699 35.9056 21.2301 35.3821 21.3864 34.8326C21.5427 34.3092 22.246 33.969 22.9494 34.0736H23.0275C23.7569 34.2307 24.2258 34.7541 24.0695 35.2775ZM8.30973 12.1693C8.96096 12.4048 9.27355 12.9805 8.96096 13.4778L8.93491 13.5301C8.62232 14.0273 7.84084 14.2367 7.18961 14.0273C6.51233 13.7918 6.22579 13.2161 6.53838 12.7188L6.59048 12.6403C6.85097 12.1431 7.63245 11.9337 8.30973 12.1693ZM19.4848 34.4139C19.1722 34.9111 18.3908 35.1204 17.7395 34.9111L17.6614 34.8849C17.0102 34.6494 16.6976 34.0736 17.0102 33.5764C17.3228 33.0792 18.1042 32.8698 18.7555 33.0792L18.8336 33.1053C19.4848 33.3147 19.7974 33.9166 19.4848 34.4139ZM6.53838 15.4405C7.24171 15.5452 7.71059 16.0686 7.5543 16.6182V16.6705C7.398 17.1939 6.72073 17.5603 5.99135 17.4295C5.28802 17.3248 4.81913 16.8014 4.94938 16.278L4.97543 16.1995C5.13172 15.6761 5.83505 15.3358 6.53838 15.4405ZM5.809 18.9473C6.53838 18.9473 7.13751 19.366 7.16356 19.9156V19.968C7.18961 20.5175 6.61653 20.9624 5.88715 20.9886C5.15777 21.0148 4.55864 20.5699 4.53259 20.0203V19.9418C4.50654 19.4184 5.07963 18.9473 5.809 18.9473ZM15.2649 32.7913C14.822 33.2362 13.9885 33.3147 13.4154 32.9745L13.3372 32.9222C12.7641 32.5819 12.6339 31.98 13.0767 31.5351C13.5196 31.0903 14.3531 31.0117 14.9262 31.352L15.0044 31.4043C15.5775 31.7445 15.7077 32.3464 15.2649 32.7913ZM11.618 30.5145C11.0709 30.8547 10.2374 30.8024 9.76848 30.3837L9.71638 30.3313C9.2475 29.9126 9.32564 29.2845 9.89873 28.9443C10.4718 28.6041 11.3054 28.6564 11.7482 29.0752L11.8003 29.1275C12.2692 29.5462 12.1911 30.1743 11.618 30.5145ZM6.14764 22.4803C6.85097 22.3494 7.58035 22.6635 7.76269 23.1869L7.78874 23.2392C7.97109 23.7626 7.5543 24.3122 6.82492 24.443C6.12159 24.5739 5.39222 24.2599 5.20987 23.7365L5.18382 23.6579C5.00148 23.1607 5.44431 22.6111 6.14764 22.4803ZM7.52825 25.8824C8.17948 25.6469 8.96096 25.8301 9.2996 26.3273L9.32564 26.3535L9.35169 26.3796C9.69033 26.8769 9.42984 27.4526 8.77861 27.7143C8.12738 27.9498 7.34591 27.7666 7.00727 27.2956L6.98122 27.2694L6.95517 27.2432C6.61653 26.7198 6.87702 26.1179 7.52825 25.8824Z"
      fill="#955A04"
    />
    <path
      fill-rule="evenodd"
      clip-rule="evenodd"
      d="M38.3705 14.7601C38.6049 15.1265 38.5528 15.5452 38.1881 15.8593L34.0724 19.3661L37.6932 23.1869C38.0058 23.5271 38.0058 23.9458 37.7193 24.2861C37.4327 24.6263 36.8857 24.7833 36.3647 24.7048L30.191 23.815L27.5601 28.0546C27.3256 28.4209 26.8307 28.6565 26.2837 28.6303C25.7366 28.6041 25.2677 28.3424 25.1114 27.9499L23.1057 23.5271L16.8799 23.9458C16.3329 23.972 15.8379 23.7627 15.5774 23.4224C15.343 23.0561 15.3951 22.6373 15.7598 22.3233L19.8756 18.8165L16.2808 14.9957C15.9682 14.6555 15.9682 14.2367 16.2547 13.8965C16.5413 13.5563 17.0883 13.3993 17.6093 13.4778L23.7569 14.3938L26.3879 10.1542C26.6223 9.78782 27.1172 9.55229 27.6643 9.57846C28.2113 9.60463 28.6802 9.86633 28.8365 10.2589L30.8423 14.6816L37.068 14.2629C37.6151 14.1844 38.136 14.3938 38.3705 14.7601ZM34.0203 16.4089L30.0347 16.6706C29.4356 16.7229 28.8625 16.435 28.6541 16.0163L27.3777 13.1899L25.7106 15.9116C25.4501 16.3303 24.8509 16.5659 24.2518 16.4612L20.3444 15.8855L22.6368 18.3193C23.0015 18.6857 22.9494 19.1829 22.5586 19.5493L19.9276 21.7999L23.9132 21.5382C24.5123 21.4859 25.0854 21.7737 25.2938 22.1924L26.5702 25.0188L28.2373 22.2971C28.4978 21.8784 29.097 21.6429 29.6961 21.7476L33.6035 22.3233L31.3112 19.8895C30.9465 19.5231 30.9986 19.0259 31.3893 18.6595L34.0203 16.4089Z"
      fill="#955A04"
    />
    <path
      fill-rule="evenodd"
      clip-rule="evenodd"
      d="M43.6845 16.5135C43.4501 17.0369 42.7207 17.3248 42.0174 17.1416L36.7815 15.8593C36.0782 15.7023 35.7135 15.1265 35.9219 14.6293L37.6151 10.7038C37.8495 10.1804 38.5789 9.8925 39.2822 10.0757C39.9855 10.2327 40.3502 10.8085 40.1418 11.3057L38.8394 14.2891L42.8249 15.2574C43.5282 15.4406 43.919 15.9901 43.6845 16.5135Z"
      fill="#955A04"
    />
    <path
      fill-rule="evenodd"
      clip-rule="evenodd"
      d="M14.6397 27.5835C15.343 27.7405 16.0724 27.4788 16.3068 26.9554L18 23.0299C18.2345 22.5065 17.8437 21.9569 17.1404 21.7999L11.9045 20.5175C11.2012 20.3605 10.4718 20.6222 10.2373 21.1456C10.0029 21.669 10.3936 22.2186 11.097 22.3756L15.0825 23.3439L13.78 26.3273C13.5716 26.8507 13.9624 27.4003 14.6397 27.5835Z"
      fill="#955A04"
    />
    <path
      fill-rule="evenodd"
      clip-rule="evenodd"
      d="M32.6396 6.8568C33.1346 7.24935 33.0825 7.87743 32.5354 8.24381L28.4457 10.9917C27.8987 11.3581 27.0651 11.3319 26.5702 10.9132L22.8972 7.87743C22.4023 7.48488 22.4544 6.8568 23.0014 6.49041C23.5485 6.12403 24.382 6.1502 24.877 6.56893L27.6903 8.89806L30.7901 6.80446C31.3372 6.4119 32.1707 6.46424 32.6396 6.8568Z"
      fill="#955A04"
    />
    <path
      fill-rule="evenodd"
      clip-rule="evenodd"
      d="M30.9464 31.1688C31.4934 30.8024 31.5194 30.1743 31.0506 29.7818L27.3516 26.7199C26.8566 26.3273 26.0231 26.275 25.476 26.6414L21.3863 29.3892C20.8393 29.7556 20.8132 30.3837 21.2821 30.7763C21.777 31.1688 22.6106 31.2211 23.1576 30.8548L26.2575 28.7612L29.0708 31.0903C29.5657 31.509 30.3993 31.5352 30.9464 31.1688Z"
      fill="#955A04"
    />
    <path
      fill-rule="evenodd"
      clip-rule="evenodd"
      d="M15.9422 9.18592C16.6455 9.08123 17.3489 9.42145 17.5052 9.94485L18.6513 13.975C18.8076 14.4984 18.3387 15.0218 17.6354 15.1527L12.2432 15.9901C11.5399 16.0948 10.8366 15.7546 10.6803 15.2312C10.524 14.7078 10.9929 14.1844 11.6962 14.0536L15.7859 13.3993L14.9263 10.3374C14.77 9.814 15.2128 9.2906 15.9422 9.18592Z"
      fill="#955A04"
    />
    <path
      fill-rule="evenodd"
      clip-rule="evenodd"
      d="M43.2678 22.428C43.1115 21.9046 42.4081 21.5644 41.7048 21.6691L36.3126 22.5327C35.6093 22.6374 35.1404 23.1608 35.2967 23.7103L36.4429 27.7405C36.5992 28.2639 37.3025 28.6041 38.0058 28.4995C38.7092 28.3948 39.178 27.8714 39.0218 27.3218L38.1621 24.2599L42.2519 23.6057C42.9812 23.501 43.4241 22.9776 43.2678 22.428Z"
      fill="#955A04"
    />
    <path
      fill-rule="evenodd"
      clip-rule="evenodd"
      d="M25.7887 17.0631C27.0911 16.5659 28.6801 16.9584 29.3314 17.9267C29.9826 18.895 29.4876 20.0988 28.1852 20.5699C26.8827 21.0671 25.2937 20.6746 24.6425 19.7063C23.9913 18.738 24.4862 17.5603 25.7887 17.0631Z"
      fill="#955A04"
    />
    <path
      fill-rule="evenodd"
      clip-rule="evenodd"
      d="M25.1114 16.0948C24.4602 16.3303 23.6787 16.1471 23.3401 15.6761L21.2822 12.6403C20.9435 12.1431 21.204 11.5674 21.8553 11.3057C22.5065 11.0701 23.288 11.2533 23.6266 11.7244L25.6845 14.7601C26.0231 15.2574 25.7627 15.8331 25.1114 16.0948Z"
      fill="#955A04"
    />
    <path
      fill-rule="evenodd"
      clip-rule="evenodd"
      d="M32.0926 26.3273C31.4414 26.5629 30.6599 26.3797 30.3213 25.9086L28.2634 22.8729C27.9247 22.3757 28.1852 21.7999 28.8365 21.5382C29.4877 21.3027 30.2692 21.4859 30.6078 21.9569L32.6657 24.9927C33.0043 25.4899 32.7439 26.0656 32.0926 26.3273Z"
      fill="#955A04"
    />
    <path
      fill-rule="evenodd"
      clip-rule="evenodd"
      d="M24.6945 21.4335C25.2937 21.7214 25.476 22.3495 25.0853 22.7943L22.6106 25.6469C22.2199 26.0918 21.3863 26.2226 20.7872 25.9348C20.188 25.6469 20.0057 25.0188 20.3964 24.5739L22.8711 21.7214C23.2879 21.2765 24.0954 21.1456 24.6945 21.4335Z"
      fill="#955A04"
    />
    <path
      fill-rule="evenodd"
      clip-rule="evenodd"
      d="M33.1086 11.7506C33.7077 12.0385 33.8901 12.6665 33.4993 13.1114L31.0247 15.964C30.6339 16.4089 29.8004 16.5397 29.2012 16.2518C28.6021 15.964 28.4197 15.3359 28.8105 14.891L31.2852 12.0385C31.7019 11.5674 32.5095 11.4365 33.1086 11.7506Z"
      fill="#955A04"
    />
    <path
      fill-rule="evenodd"
      clip-rule="evenodd"
      d="M22.8451 18.6595C22.819 19.2091 22.1939 19.6278 21.4645 19.6016L16.9319 19.4184C16.2025 19.3923 15.6555 18.9212 15.6816 18.3716C15.7076 17.8221 16.3328 17.4033 17.0622 17.4295L21.5947 17.6127C22.3241 17.665 22.8972 18.1361 22.8451 18.6595Z"
      fill="#955A04"
    />
    <path
      fill-rule="evenodd"
      clip-rule="evenodd"
      d="M38.2401 19.2614C38.2141 19.811 37.5889 20.2297 36.8595 20.2036L32.3269 20.0204C31.5976 19.9942 31.0505 19.5231 31.0766 18.9736C31.1026 18.424 31.7278 18.0053 32.4572 18.0314L36.9897 18.2146C37.7191 18.267 38.2662 18.7119 38.2401 19.2614Z"
      fill="#955A04"
    />
    <path
      fill-rule="evenodd"
      clip-rule="evenodd"
      d="M17.5832 39.8571C18.1587 39.8571 18.6252 40.3257 18.6252 40.9039V47.0538C18.6252 47.632 18.1587 48.1006 17.5832 48.1006C17.0078 48.1006 16.5413 47.632 16.5413 47.0538V40.9039C16.5413 40.3257 17.0078 39.8571 17.5832 39.8571Z"
      fill="#FFC930"
    />
    <path
      fill-rule="evenodd"
      clip-rule="evenodd"
      d="M31.9104 40.3805C32.4858 40.3805 32.9523 40.8492 32.9523 41.4273V48.4932C32.9523 49.0714 32.4858 49.54 31.9104 49.54C31.3349 49.54 30.8684 49.0714 30.8684 48.4932V41.4273C30.8684 40.8492 31.3349 40.3805 31.9104 40.3805Z"
      fill="#FFC930"
    />
    <path
      fill-rule="evenodd"
      clip-rule="evenodd"
      d="M47.1491 36.769C47.7246 36.769 48.1911 37.2377 48.1911 37.8158V40.8253C48.1911 41.4035 47.7246 41.8722 47.1491 41.8722C46.5737 41.8722 46.1072 41.4035 46.1072 40.8253V37.8158C46.1072 37.2377 46.5737 36.769 47.1491 36.769Z"
      fill="#FFC930"
    />
    <path
      fill-rule="evenodd"
      clip-rule="evenodd"
      d="M8.64841 35.9839C9.22388 35.9839 9.69038 36.4526 9.69038 37.0307V42.1077C9.69038 42.6858 9.22388 43.1545 8.64841 43.1545C8.07295 43.1545 7.60645 42.6858 7.60645 42.1077V37.0307C7.60645 36.4526 8.07295 35.9839 8.64841 35.9839Z"
      fill="#FFC930"
    />
    <path
      fill-rule="evenodd"
      clip-rule="evenodd"
      d="M3.93333 32.5294C4.50879 32.5294 4.97529 32.9981 4.97529 33.5762V36.4026C4.97529 36.9807 4.50879 37.4494 3.93333 37.4494C3.35786 37.4494 2.89136 36.9807 2.89136 36.4026V33.5762C2.89136 32.9981 3.35786 32.5294 3.93333 32.5294Z"
      fill="#FFC930"
    />
    <g clip-path="url(#clip1)">
      <path
        d="M51.5775 19.7584C51.5775 29.8035 40.5563 37.9466 26.961 37.9466C13.3657 37.9466 2.34448 29.8035 2.34448 19.7584C2.34448 9.71334 13.3657 1.57019 26.961 1.57019C40.5563 1.57019 51.5775 9.71334 51.5775 19.7584Z"
        fill="#FFC930"
      />
      <path
        fill-rule="evenodd"
        clip-rule="evenodd"
        d="M26.9115 3.19419L26.9611 3.19415L27.0106 3.19419C27.7389 3.19536 28.3281 3.63254 28.3265 4.17067C28.3249 4.7088 27.7332 5.14409 27.0049 5.14293L26.9611 5.14289L26.9173 5.14293C26.1889 5.14409 25.5972 4.7088 25.5957 4.17067C25.5941 3.63254 26.1832 3.19536 26.9115 3.19419ZM30.3265 4.33478C30.4864 3.80977 31.192 3.47994 31.9026 3.59808L31.9988 3.61425C32.7087 3.73471 33.1519 4.25753 32.9889 4.782C32.8259 5.30648 32.1183 5.634 31.4084 5.51354L31.3236 5.49928C30.613 5.38114 30.1666 4.85978 30.3265 4.33478ZM23.5957 4.33478C23.7555 4.85978 23.3091 5.38114 22.5986 5.49928L22.5137 5.51354C21.8039 5.634 21.0963 5.30648 20.9332 4.78201C20.7702 4.25753 21.2135 3.73471 21.9233 3.61425L22.0196 3.59808C22.7301 3.47994 23.4358 3.80977 23.5957 4.33478ZM34.887 5.27279C35.202 4.7876 35.9897 4.58296 36.6464 4.81572L36.7353 4.84741C37.3906 5.08231 37.664 5.66521 37.3461 6.14937C37.0282 6.63352 36.2393 6.83559 35.584 6.60069L35.5056 6.57274C34.8489 6.33999 34.572 5.75798 34.887 5.27279ZM19.0351 5.27279C19.3502 5.75798 19.0732 6.33999 18.4165 6.57274L18.3381 6.60069C17.6829 6.83559 16.8939 6.63352 16.576 6.14937C16.2581 5.66521 16.5316 5.08231 17.1869 4.84741L17.2758 4.81572C17.9324 4.58296 18.7201 4.7876 19.0351 5.27279ZM39.0484 6.94152C39.5016 6.52027 40.3312 6.45024 40.9013 6.7851L40.9784 6.83057C41.5465 7.16727 41.6376 7.78052 41.1819 8.2003C40.7262 8.62008 39.8962 8.68742 39.3281 8.35072L39.2601 8.31058C38.6899 7.97572 38.5952 7.36277 39.0484 6.94152ZM14.8738 6.94152C15.327 7.36277 15.2322 7.97572 14.6621 8.31058L14.5941 8.35072C14.0259 8.68742 13.1959 8.62008 12.7402 8.2003C12.2845 7.78052 12.3757 7.16727 12.9438 6.83057L13.0209 6.78511C13.591 6.45024 14.4206 6.52027 14.8738 6.94152ZM42.6042 9.25116C43.1723 8.91446 44.0023 8.9818 44.458 9.40158L44.5196 9.45852C44.9728 9.87976 44.878 10.4927 44.3079 10.8276C43.7377 11.1624 42.9082 11.0924 42.4549 10.6712L42.4006 10.6209C41.9449 10.2011 42.0361 9.58787 42.6042 9.25116ZM11.3179 9.25116C11.8861 9.58787 11.9772 10.2011 11.5215 10.6209L11.4672 10.6712C11.014 11.0924 10.1844 11.1624 9.61428 10.8276C9.04415 10.4927 8.94937 9.87977 9.40258 9.45852L9.46411 9.40158C9.91982 8.9818 10.7498 8.91446 11.3179 9.25116ZM45.38 12.0853C46.0353 11.8504 46.8242 12.0525 47.1421 12.5366L47.185 12.6023C47.5 13.0875 47.2231 13.6695 46.5664 13.9023C45.9097 14.135 45.122 13.9304 44.807 13.4452L44.7692 13.3873C44.4512 12.9031 44.7247 12.3202 45.38 12.0853ZM8.54216 12.0853C9.19743 12.3202 9.47091 12.9031 9.15299 13.3873L9.11517 13.4452C8.80015 13.9304 8.01244 14.135 7.35577 13.9023C6.6991 13.6695 6.42214 13.0875 6.73716 12.6023L6.78004 12.5366C7.09796 12.0525 7.88689 11.8504 8.54216 12.0853ZM47.2306 15.3047C47.9405 15.1842 48.6481 15.5117 48.8111 16.0362L48.833 16.1073C48.9929 16.6324 48.5465 17.1537 47.8359 17.2719C47.1254 17.39 46.4197 17.0602 46.2598 16.5352L46.2405 16.4724C46.0775 15.948 46.5208 15.4251 47.2306 15.3047ZM6.69153 15.3047C7.40137 15.4251 7.84464 15.948 7.6816 16.4724L7.66231 16.5352C7.50242 17.0602 6.79679 17.39 6.08624 17.2719C5.37568 17.1537 4.92928 16.6324 5.08916 16.1074L5.11105 16.0362C5.27409 15.5117 5.98169 15.1842 6.69153 15.3047ZM5.86413 18.7496C6.59245 18.7507 7.18159 19.1879 7.18001 19.7261L7.17996 19.7584L7.18001 19.7908C7.18159 20.3289 6.59245 20.7661 5.86413 20.7673C5.13581 20.7685 4.54411 20.3332 4.54253 19.795L4.54248 19.7584L4.54253 19.7218C4.54411 19.1837 5.13581 18.7484 5.86413 18.7496ZM48.058 18.7496C48.7863 18.7484 49.378 19.1837 49.3796 19.7218L49.3797 19.7584L49.3796 19.795C49.378 20.3332 48.7863 20.7685 48.058 20.7673C47.3297 20.7661 46.7406 20.3289 46.7421 19.7908L46.7422 19.7584L46.7421 19.7261C46.7406 19.1879 47.3297 18.7507 48.058 18.7496ZM47.8359 22.245C48.5465 22.3631 48.9929 22.8845 48.833 23.4095L48.8111 23.4807C48.6481 24.0051 47.9405 24.3326 47.2306 24.2122C46.5208 24.0917 46.0775 23.5689 46.2406 23.0444L46.2598 22.9817C46.4197 22.4567 47.1254 22.1269 47.8359 22.245ZM6.08624 22.245C6.79679 22.1269 7.50242 22.4567 7.66231 22.9817L7.68161 23.0444C7.84464 23.5689 7.40137 24.0917 6.69153 24.2122C5.98169 24.3326 5.27409 24.0051 5.11105 23.4807L5.08916 23.4095C4.92928 22.8845 5.37568 22.3631 6.08624 22.245ZM7.35577 25.6146C8.01244 25.3819 8.80015 25.5865 9.11517 26.0717L9.15299 26.1296C9.47091 26.6138 9.19743 27.1967 8.54216 27.4316C7.88689 27.6665 7.09796 27.4644 6.78005 26.9802L6.73716 26.9146C6.42214 26.4294 6.6991 25.8474 7.35577 25.6146ZM46.5664 25.6146C47.2231 25.8474 47.5 26.4294 47.185 26.9146L47.1421 26.9802C46.8242 27.4644 46.0353 27.6665 45.38 27.4316C44.7247 27.1967 44.4512 26.6138 44.7692 26.1296L44.807 26.0717C45.122 25.5865 45.9097 25.3819 46.5664 25.6146ZM44.3079 28.6893C44.878 29.0242 44.9728 29.6371 44.5196 30.0583L44.458 30.1153C44.0023 30.5351 43.1723 30.6024 42.6042 30.2657C42.0361 29.929 41.9449 29.3158 42.4006 28.896L42.4549 28.8457C42.9082 28.4245 43.7377 28.3544 44.3079 28.6893ZM9.61428 28.6893C10.1844 28.3544 11.014 28.4245 11.4672 28.8457L11.5215 28.896C11.9772 29.3158 11.8861 29.929 11.318 30.2657C10.7498 30.6024 9.91982 30.5351 9.46411 30.1153L9.40258 30.0584C8.94937 29.6371 9.04415 29.0242 9.61428 28.6893ZM41.1819 31.3166C41.6376 31.7363 41.5465 32.3496 40.9784 32.6863L40.9013 32.7318C40.3312 33.0666 39.5016 32.9966 39.0484 32.5753C38.5952 32.1541 38.6899 31.5411 39.2601 31.2063L39.3281 31.1661C39.8962 30.8294 40.7262 30.8968 41.1819 31.3166ZM12.7402 31.3166C13.1959 30.8968 14.0259 30.8294 14.5941 31.1662L14.6621 31.2063C15.2322 31.5412 15.327 32.1541 14.8738 32.5753C14.4206 32.9966 13.591 33.0666 13.0209 32.7318L12.9438 32.6863C12.3757 32.3496 12.2845 31.7363 12.7402 31.3166ZM16.576 33.3675C16.8939 32.8833 17.6829 32.6813 18.3381 32.9162L18.4165 32.9441C19.0732 33.1769 19.3502 33.7589 19.0351 34.2441C18.7201 34.7293 17.9324 34.9339 17.2758 34.7011L17.1869 34.6695C16.5316 34.4346 16.2581 33.8517 16.576 33.3675ZM37.3461 33.3675C37.664 33.8517 37.3906 34.4346 36.7353 34.6695L36.6464 34.7011C35.9897 34.9339 35.202 34.7293 34.887 34.2441C34.572 33.7589 34.8489 33.1769 35.5056 32.9441L35.584 32.9162C36.2393 32.6813 37.0282 32.8833 37.3461 33.3675ZM32.9889 34.7349C33.152 35.2593 32.7087 35.7822 31.9988 35.9026L31.9026 35.9188C31.192 36.0369 30.4864 35.7071 30.3265 35.1821C30.1666 34.6571 30.613 34.1357 31.3236 34.0176L31.4084 34.0033C32.1183 33.8829 32.8259 34.2104 32.9889 34.7349ZM20.9332 34.7349C21.0963 34.2104 21.8039 33.8829 22.5137 34.0033L22.5986 34.0176C23.3091 34.1357 23.7556 34.6571 23.5957 35.1821C23.4358 35.7071 22.7301 36.0369 22.0196 35.9188L21.9233 35.9026C21.2135 35.7822 20.7702 35.2593 20.9332 34.7349ZM25.5957 35.3462C25.5972 34.8081 26.1889 34.3728 26.9173 34.3739L26.9611 34.374L27.0049 34.3739C27.7332 34.3728 28.3249 34.8081 28.3265 35.3462C28.3281 35.8843 27.7389 36.3215 27.0106 36.3227L26.9611 36.3227L26.9115 36.3227C26.1832 36.3215 25.5941 35.8843 25.5957 35.3462Z"
        fill="#955A04"
      />
      <path
        fill-rule="evenodd"
        clip-rule="evenodd"
        d="M26.9618 11.9166C27.5014 11.9166 27.9865 12.1594 28.1866 12.5297L29.9948 15.8767L34.8219 15.3602C35.3559 15.3031 35.8831 15.4921 36.1529 15.8373C36.4227 16.1826 36.3806 16.6145 36.0466 16.9276L33.0277 19.7581L36.0466 22.5886C36.3806 22.9018 36.4227 23.3336 36.1529 23.6789C35.8831 24.0242 35.3559 24.2132 34.8219 24.156L29.9948 23.6395L28.1866 26.9865C27.9865 27.3568 27.5014 27.5997 26.9618 27.5997C26.4222 27.5997 25.9371 27.3568 25.737 26.9865L23.9289 23.6395L19.1017 24.156C18.5677 24.2132 18.0405 24.0242 17.7707 23.6789C17.5009 23.3336 17.543 22.9018 17.877 22.5886L20.8959 19.7581L17.877 16.9276C17.543 16.6145 17.5009 16.1826 17.7707 15.8373C18.0405 15.4921 18.5677 15.3031 19.1017 15.3602L23.9289 15.8767L25.737 12.5297C25.9371 12.1594 26.4222 11.9166 26.9618 11.9166ZM26.9618 15.5192L25.9931 17.3123C25.7672 17.7306 25.1826 17.9799 24.5794 17.9154L21.9934 17.6387L23.6107 19.155C23.988 19.5088 23.988 20.0075 23.6107 20.3612L21.9934 21.8776L24.5794 21.6009C25.1826 21.5363 25.7672 21.7857 25.9931 22.204L26.9618 23.997L27.9305 22.204C28.1565 21.7857 28.741 21.5363 29.3443 21.6009L31.9302 21.8776L30.3129 20.3612C29.9356 20.0075 29.9356 19.5088 30.3129 19.155L31.9302 17.6387L29.3443 17.9154C28.741 17.9799 28.1565 17.7306 27.9305 17.3123L26.9618 15.5192Z"
        fill="#955A04"
      />
      <path
        fill-rule="evenodd"
        clip-rule="evenodd"
        d="M31.0504 9.8709C31.5654 10.2514 31.5654 10.8684 31.0504 11.2489L27.8949 13.5803C27.3799 13.9608 26.5449 13.9608 26.0299 13.5803L22.8744 11.2489C22.3594 10.8684 22.3594 10.2514 22.8744 9.8709C23.3894 9.49039 24.2244 9.49039 24.7394 9.8709L26.9624 11.5134L29.1854 9.8709C29.7004 9.49039 30.5354 9.49039 31.0504 9.8709Z"
        fill="#955A04"
      />
      <path
        fill-rule="evenodd"
        clip-rule="evenodd"
        d="M31.0504 29.6458C31.5654 29.2652 31.5654 28.6483 31.0504 28.2678L27.8949 25.9363C27.3799 25.5558 26.5449 25.5558 26.0299 25.9363L22.8744 28.2678C22.3594 28.6483 22.3594 29.2652 22.8744 29.6458C23.3894 30.0263 24.2244 30.0263 24.7394 29.6458L26.9624 28.0033L29.1854 29.6458C29.7004 30.0263 30.5354 30.0263 31.0504 29.6458Z"
        fill="#955A04"
      />
      <path
        fill-rule="evenodd"
        clip-rule="evenodd"
        d="M17.4165 12.199C18.12 12.0597 18.8431 12.3682 19.0316 12.888L20.1866 16.0728C20.3751 16.5926 19.9576 17.1269 19.2541 17.2662L14.9437 18.1195C14.2402 18.2588 13.5171 17.9504 13.3286 17.4306C13.1401 16.9108 13.5576 16.3765 14.2611 16.2372L17.2977 15.636L16.484 13.3924C16.2955 12.8726 16.713 12.3383 17.4165 12.199Z"
        fill="#955A04"
      />
      <path
        fill-rule="evenodd"
        clip-rule="evenodd"
        d="M40.595 22.0863C40.4065 21.5666 39.6834 21.2581 38.9799 21.3974L34.6694 22.2507C33.9659 22.39 33.5485 22.9243 33.737 23.4441L34.8919 26.6289C35.0804 27.1487 35.8036 27.4572 36.5071 27.3179C37.2106 27.1786 37.628 26.6443 37.4395 26.1245L36.6259 23.8809L39.6625 23.2797C40.366 23.1404 40.7835 22.6061 40.595 22.0863Z"
        fill="#955A04"
      />
      <path
        fill-rule="evenodd"
        clip-rule="evenodd"
        d="M13.3286 22.0863C13.5171 21.5665 14.2402 21.2581 14.9437 21.3974L19.2541 22.2507C19.9576 22.39 20.3751 22.9243 20.1866 23.4441L19.0316 26.6289C18.8431 27.1487 18.12 27.4572 17.4165 27.3179C16.713 27.1786 16.2955 26.6443 16.484 26.1245L17.2977 23.8809L14.2611 23.2797C13.5576 23.1404 13.1401 22.6061 13.3286 22.0863Z"
        fill="#955A04"
      />
      <path
        fill-rule="evenodd"
        clip-rule="evenodd"
        d="M36.5071 12.1988C35.8036 12.0595 35.0804 12.368 34.8919 12.8878L33.737 16.0726C33.5485 16.5924 33.9659 17.1267 34.6694 17.266L38.9799 18.1194C39.6834 18.2586 40.4065 17.9502 40.595 17.4304C40.7835 16.9106 40.366 16.3763 39.6625 16.237L36.6259 15.6358L37.4395 13.3922C37.6281 12.8724 37.2106 12.3381 36.5071 12.1988Z"
        fill="#955A04"
      />
    </g>
  </g>
  <defs>
    <clipPath id="clip0">
      <rect width="54" height="52" fill="white" />
    </clipPath>
    <clipPath id="clip1">
      <rect
        width="49.233"
        height="36.3765"
        fill="white"
        transform="translate(2.34448 1.57019)"
      />
    </clipPath>
  </defs>
</svg>