<svg width="120" height="105" viewBox="0 0 120 105" fill="none" xmlns="http://www.w3.org/2000/svg">
<rect x="105" y="53" width="48" height="90" rx="7.875" transform="rotate(90 105 53)" fill="#4C00C2"/>
<path d="M27.0741 61.474V75.3906H32.6878C35.3181 75.3906 37.0454 73.7222 37.0454 71.4453C37.0454 69.6394 35.8284 68.4814 34.5722 68.1869C35.7106 67.814 36.6135 66.6363 36.6135 65.2034C36.6135 63.0639 35.0236 61.474 32.2756 61.474H27.0741ZM30.0969 67.0485V64.0453H31.7457C32.9626 64.0453 33.5711 64.6342 33.5711 65.5371C33.5711 66.4793 32.8645 67.0485 31.7849 67.0485H30.0969ZM30.0969 72.8585V69.6002H32.0401C33.2571 69.6002 33.9637 70.2676 33.9637 71.2294C33.9637 72.2304 33.2374 72.8585 32.0401 72.8585H30.0969Z" fill="#FFC930"/>
<path d="M42.1662 68.4225C42.1662 65.5175 44.2468 64.2024 46.1901 64.2024C48.1137 64.2024 50.1943 65.5175 50.1943 68.4225C50.1943 71.3275 48.1137 72.623 46.1901 72.623C44.2468 72.623 42.1662 71.3275 42.1662 68.4225ZM38.9471 68.4421C38.9471 72.8389 42.2644 75.685 46.1901 75.685C50.0961 75.685 53.4133 72.8389 53.4133 68.4421C53.4133 64.0257 50.0961 61.1796 46.1901 61.1796C42.2644 61.1796 38.9471 64.0257 38.9471 68.4421Z" fill="#FFC930"/>
<path d="M68.2779 75.3906V61.474H65.1766V69.9339L59.9554 61.474H56.1868V75.3906H59.2684V66.2437L64.9999 75.3906H68.2779Z" fill="#FFC930"/>
<path d="M77.2335 75.7046C80.2956 75.7046 82.7491 73.8596 82.7491 70.3657V61.474H79.6478V70.1105C79.6478 71.7986 78.7057 72.6426 77.2335 72.6426C75.7614 72.6426 74.8192 71.7986 74.8192 70.1105V61.474H71.7179V70.3657C71.7179 73.8596 74.1715 75.7046 77.2335 75.7046Z" fill="#FFC930"/>
<path d="M95.7982 64.8894C95.5038 63.2602 94.1887 61.1796 90.7144 61.1796C88.0449 61.1796 85.7288 63.0246 85.7288 65.6549C85.7288 67.7159 87.1617 69.2861 89.5171 69.7376L91.4211 70.0909C92.3436 70.2676 92.9128 70.7779 92.9128 71.4845C92.9128 72.3482 92.1669 72.937 90.95 72.937C89.046 72.937 88.1823 71.8182 88.0646 70.5424L85.2184 71.2294C85.4147 73.1922 87.0635 75.685 90.9107 75.685C94.2279 75.685 96.0534 73.467 96.0534 71.2882C96.0534 69.3058 94.6794 67.5981 92.0295 67.1074L90.1648 66.7541C89.203 66.5774 88.7908 66.0867 88.7908 65.4193C88.7908 64.6538 89.5367 63.9276 90.6948 63.9276C92.3828 63.9276 92.9128 65.0268 93.011 65.6745L95.7982 64.8894Z" fill="#FFC930"/>
<path d="M33.6961 93.6172H37.1115L34.285 87.9838C35.9927 87.3753 37.033 85.9424 37.033 84.0581C37.033 81.5849 35.2664 79.7006 32.5184 79.7006H27.0028V93.6172H30.1041V88.4352H31.2033L33.6961 93.6172ZM30.1041 85.7658V82.3897H31.9296C33.2054 82.3897 33.8924 83.0374 33.8924 84.0777C33.8924 85.0591 33.2054 85.7658 31.9296 85.7658H30.1041Z" fill="#FFC930"/>
<path d="M41.6466 86.649C41.6466 83.744 43.7272 82.4289 45.6704 82.4289C47.594 82.4289 49.6746 83.744 49.6746 86.649C49.6746 89.5541 47.594 90.8495 45.6704 90.8495C43.7272 90.8495 41.6466 89.5541 41.6466 86.649ZM38.4275 86.6687C38.4275 91.0655 41.7447 93.9116 45.6704 93.9116C49.5765 93.9116 52.8937 91.0655 52.8937 86.6687C52.8937 82.2523 49.5765 79.4061 45.6704 79.4061C41.7447 79.4061 38.4275 82.2523 38.4275 86.6687Z" fill="#FFC930"/>
<path d="M60.5016 93.9312C63.5636 93.9312 66.0172 92.0861 66.0172 88.5923V79.7006H62.9159V88.3371C62.9159 90.0251 61.9737 90.8692 60.5016 90.8692C59.0294 90.8692 58.0873 90.0251 58.0873 88.3371V79.7006H54.986V88.5923C54.986 92.0861 57.4395 93.9312 60.5016 93.9312Z" fill="#FFC930"/>
<path d="M81.0154 93.6172V79.7006H77.9141V88.1604L72.6929 79.7006H68.9242V93.6172H72.0059V84.4703L77.7374 93.6172H81.0154Z" fill="#FFC930"/>
<path d="M87.1111 90.6925V82.6252H88.9169C91.0564 82.6252 92.8033 83.8814 92.8033 86.6687C92.8033 89.4559 91.0564 90.6925 88.9169 90.6925H87.1111ZM89.0347 93.6172C93.2352 93.6172 96.042 90.9673 96.042 86.6687C96.042 82.37 93.2352 79.7006 89.0543 79.7006H84.0098V93.6172H89.0347Z" fill="#FFC930"/>
<path d="M109.826 32.888C109.803 34.6662 109.735 36.1936 109.281 37.6527C109.008 38.5418 108.622 39.3397 107.94 40.0008C106.395 41.4599 104.032 41.0723 103.418 39.0433C102.623 36.376 101.464 33.8683 100.419 31.3149C99.4189 28.8984 100.282 26.4818 102.236 25.4787C104.236 24.4528 106.667 25.1139 108.167 27.0973C108.803 27.918 109.258 28.83 109.417 29.8787C109.599 30.9729 109.712 32.0672 109.826 32.888Z" fill="#12D0CC"/>
<path d="M106.448 60.324C106.676 60.2784 106.903 60.21 107.107 60.1416C110.766 59.0246 114.538 55.5137 114.129 51.3645C113.97 49.6091 112.629 47.6257 111.107 47.1925C109.221 46.6454 107.471 47.2609 106.358 49.0847C104.903 51.4329 104.676 54.237 103.495 56.6764C103.313 57.0639 103.108 57.4287 103.04 57.8391C102.858 58.7054 103.313 59.5489 104.04 60.0277C104.744 60.5064 105.63 60.4836 106.448 60.324Z" fill="#F7F5F5"/>
<path d="M112.62 17.4354C112.679 18.44 112.595 19.4393 112.141 20.3099C111.346 21.8749 109.527 22.2922 108.385 20.9889C106.911 19.2841 105.243 17.803 103.739 16.1548C102.976 15.3339 102.514 14.3292 102.263 13.2384C101.649 10.5911 103.535 8.22906 106.265 8.32786C108.011 8.38384 109.588 9.15488 110.662 10.5495C111.695 11.885 111.958 13.6614 112.291 15.2744C112.441 15.9433 112.567 16.6907 112.62 17.4354Z" fill="#14D0CD"/>
<path d="M8.85327 56.7761C8.65917 55.7887 8.60811 54.7871 8.94064 53.8632C9.51659 52.2053 11.2632 51.5464 12.5706 52.6838C14.2607 54.1742 16.1135 55.4167 17.8264 56.8469C18.6932 57.5574 19.2864 58.4906 19.6816 59.5376C20.6474 62.0778 19.0973 64.6727 16.3793 64.943C14.6419 65.1231 12.9749 64.5719 11.7223 63.3349C10.5184 62.151 10.0183 60.4263 9.4706 58.873C9.23201 58.2304 9.00688 57.5068 8.85327 56.7761Z" fill="#14D0CD"/>
<path d="M5.32375 37.8773C5.5737 37.4897 5.8691 37.1706 6.25538 36.897C7.55057 36.0307 9.00482 36.555 9.27749 38.1053C9.43655 39.04 9.80011 39.8151 10.2773 40.5902C10.9362 41.6617 11.3452 42.8472 11.4361 44.1239C11.5498 45.6285 11.118 46.9052 9.70922 47.6575C8.39131 48.3642 6.5735 48.1591 5.3692 47.1104C3.80134 45.7653 3.09693 43.7819 3.32416 41.7301C3.41505 40.8866 3.96039 40.1799 4.39212 39.4503C4.68752 38.9716 4.96019 38.3788 5.32375 37.8773Z" fill="#FECA36"/>
<path d="M10.3678 24.7911C10.3451 25.6574 10.1179 26.8885 9.18623 27.846C8.2546 28.7807 7.09575 29.0543 5.846 28.6895C4.36903 28.2563 3.48285 27.1849 3.21018 25.703C2.5285 22.1921 4.61898 20.3911 7.52748 19.6388C8.27732 19.4564 9.02717 19.7072 9.32256 20.4823C9.82246 21.7362 10.3905 22.9901 10.3678 24.7911Z" fill="#14D0CD"/>
<path d="M111.57 37.8153C111.661 36.6754 111.456 35.5583 111.229 34.4412C111.116 33.9169 111.025 33.3925 111.002 32.8682C110.957 31.4091 111.684 30.3604 112.843 30.0869C114.16 29.7677 115.387 30.3377 116.046 31.6371C116.887 33.3014 116.615 35.034 116.365 36.7666C116.205 37.8609 115.887 38.9096 115.297 39.8671C114.751 40.7334 114.001 41.463 112.888 41.2122C111.706 40.9386 111.57 39.8899 111.57 38.864C111.57 38.4992 111.57 38.1573 111.57 37.8153Z" fill="#FECA36"/>
<path d="M94.76 5.00159C96.5778 4.956 97.714 5.89071 98.4638 7.48655C98.8274 8.28447 99.1909 9.08239 99.3273 9.94871C99.4863 10.9062 99.2818 11.7953 98.3956 12.3197C97.4867 12.8668 96.646 12.5476 95.8734 11.9549C95.1236 11.385 94.4873 10.6782 93.6466 10.2223C91.3971 7.82851 92.465 5.70832 94.76 5.00159Z" fill="#FE838D"/>
<path d="M113.48 23.5778C112.367 23.2587 111.594 22.5064 110.89 21.6628C109.913 20.4774 109.731 19.1551 110.39 18.1064C111.072 17.0349 112.026 16.7841 113.799 17.1717C114.98 18.0836 115.571 19.3147 115.571 20.7965C115.594 22.4152 115.026 23.1447 113.48 23.5778Z" fill="#FE838D"/>
<path d="M5.18788 37.9699C5.55145 38.6539 5.68778 39.4746 5.43783 40.2041C5.05155 41.4352 3.55186 41.8455 2.46117 41.4352C1.37048 41.0248 0.938754 40.0217 1.00692 38.9046C1.05237 37.9015 1.39321 37.0352 2.34756 36.6021C3.34735 36.1461 4.07448 36.6933 4.73343 37.3772C4.91521 37.5368 5.07427 37.7419 5.18788 37.9699Z" fill="#FE838D"/>
<path d="M17.8555 14.2774C17.1284 14.2318 16.583 13.8442 16.2422 13.2287C15.8332 12.4764 15.9695 11.724 16.4467 11.1085C17.2874 10.0142 18.5372 9.69504 19.8551 9.64945C20.4004 9.62665 20.764 9.99141 20.8549 10.5614C21.0594 11.7696 19.4233 14.0494 18.1963 14.2546C18.0827 14.2546 17.9691 14.2546 17.8555 14.2774Z" fill="#FE838D"/>
<path d="M118.574 40.2028C118.483 40.9551 118.21 41.6846 117.347 41.6846C116.415 41.6846 116.279 40.8411 116.233 40.1116C116.188 39.3593 116.574 38.8349 117.347 38.8121C118.165 38.8121 118.505 39.4049 118.574 40.2028Z" fill="#FE838D"/>
<path d="M13.1132 52.055C12.9996 52.6021 12.6815 52.9669 12.0907 53.0125C11.3863 53.0581 11.0227 52.6705 11 52.0322C11 51.4394 11.3863 51.0747 11.9771 51.0063C12.6815 50.9379 12.9314 51.4394 13.1132 52.055Z" fill="#FECA36"/>
<path d="M29.249 38.8007C29.7414 38.7559 30.2312 38.6863 30.7165 38.5922C32.0507 38.3959 33.5352 38.221 34.8588 38.5426C35.5952 38.7166 36.2701 39.088 36.8107 39.6168C37.3514 40.1457 37.7372 40.812 37.9267 41.5438C38.1112 42.1668 38.1365 42.8262 38.0002 43.4615C37.8638 44.0968 37.5702 44.6879 37.1462 45.1806C36.995 45.3506 36.4984 45.7465 36.634 45.9635C36.7524 46.153 37.368 46.168 38.0038 47.3331C38.6911 48.6649 38.8515 50.2063 38.4532 51.6509C37.8881 53.8058 36.3612 54.9122 34.3165 55.4782C34.1839 55.5149 34.0493 55.5468 33.9133 55.5748C33.4775 55.6647 26.9929 56.3346 26.3888 56.3003C26.0809 56.2923 25.7798 56.2085 25.5122 56.0565C24.4862 55.4349 24.4227 54.3443 24.6095 53.2329C24.7791 52.2239 25.7811 39.9095 26.1863 39.2659C26.4227 38.8905 27.1369 38.3293 27.5887 38.3708C27.8777 38.4274 28.1582 38.5213 28.423 38.6501C28.6801 38.7724 28.9651 38.8244 29.249 38.8007ZM28.485 53.0094C29.2825 52.956 30.4289 52.8537 31.1593 52.7696C31.9504 52.6785 32.7444 52.6145 33.51 52.4537C34.3162 52.2845 34.6723 51.855 34.9973 51.1418C35.331 50.4099 35.4845 48.5733 33.5136 48.7149C32.2678 48.8044 29.5471 49.1202 28.8455 49.1994C28.7924 49.2054 28.7434 49.2305 28.7076 49.2701C28.6718 49.3097 28.6517 49.361 28.6512 49.4143C28.6444 49.6202 28.2981 52.6277 28.3057 52.8203C28.3036 52.8448 28.3068 52.8695 28.3149 52.8927C28.323 52.9159 28.336 52.9371 28.3529 52.955C28.3699 52.9729 28.3904 52.9869 28.4131 52.9963C28.4359 53.0057 28.4604 53.0102 28.485 53.0094ZM28.9635 45.5063C28.9729 45.5802 29.0079 45.6484 29.0624 45.6991C29.1169 45.7498 29.1875 45.7798 29.2619 45.784C29.6212 45.7712 32.8375 45.485 33.258 45.3273C34.121 45.0037 34.4472 44.601 34.5341 43.6606C34.5503 43.2404 34.4367 42.8254 34.2086 42.472C33.9805 42.1185 33.6491 41.8438 33.2593 41.685C32.7926 41.5194 32.2929 41.4686 31.8024 41.537C30.7988 41.6009 30.6047 41.6207 29.5416 41.7453C29.4817 41.7529 29.4263 41.7814 29.3854 41.8258C29.3445 41.8702 29.3207 41.9277 29.3182 41.988C29.272 42.7854 29.049 44.1974 28.9635 45.5064V45.5063Z" fill="white"/>
<path d="M100.548 48.0472C100.287 48.218 100.052 48.3728 99.8165 48.5263C97.6887 49.9109 95.3343 49.5359 94.1631 48.3983C93.6227 47.8848 93.2087 47.2534 92.9535 46.5534C92.6982 45.8534 92.6086 45.1039 92.6917 44.3636C92.7814 43.5734 93.2488 39.745 96.5569 38.2673C97.2245 37.9464 97.9589 37.7887 98.6996 37.8073C99.4402 37.826 100.166 38.0204 100.816 38.3744C100.893 38.4141 100.977 38.4389 101.141 38.5034C101.173 38.2355 101.205 38.0055 101.228 37.7747C101.349 36.56 101.469 35.3452 101.588 34.1304C101.694 33.0633 101.701 32.2091 102.954 31.9254C103.487 31.8048 105.229 31.3847 105.539 32.8571C105.884 34.4935 104.689 34.1051 104.544 35.7334C104.449 36.7974 103.698 44.6336 103.511 46.5923C103.456 47.1637 103.724 47.332 103.676 47.9042C103.667 48.1475 103.6 48.3851 103.479 48.5968C103.359 48.8085 103.189 48.988 102.984 49.12C102.779 49.252 102.546 49.3327 102.303 49.3551C102.06 49.3775 101.816 49.341 101.59 49.2488C100.843 48.959 100.652 48.2572 100.548 48.0472ZM95.6161 43.3865C95.5596 43.7922 95.6046 44.2055 95.7473 44.5895C95.8899 44.9735 96.1257 45.3162 96.4334 45.5868C96.9539 46.0143 97.8799 46.3896 98.3948 45.7554C98.5632 45.5144 98.6954 45.2501 98.7873 44.9709C98.88 44.6905 99.0497 44.4419 99.2772 44.2533C99.5534 44.1023 99.8548 44.0027 100.167 43.9595C101.519 43.6109 100.824 41.0916 99.819 40.6015C97.5446 39.4919 95.7909 41.5456 95.6161 43.3865Z" fill="white"/>
<path d="M63.3211 33.2429C63.3462 32.949 63.2687 32.6554 63.1018 32.4121C62.8982 32.1222 63.0002 32.1756 62.7546 31.9189C61.7719 30.936 60.6522 30.1 59.4301 29.437C58.9711 29.1756 58.5036 28.9298 58.0277 28.6995C58.2386 28.528 58.4071 28.3833 58.5814 28.248C59.8264 27.3074 60.4504 26.7773 61.6864 25.8273C61.9948 25.6037 62.2718 25.3397 62.51 25.0424C62.7102 24.7774 62.8133 24.4517 62.8021 24.1199C62.7908 23.788 62.6658 23.4701 62.448 23.2193C62.2161 22.9745 61.9099 22.813 61.5769 22.7595C61.2438 22.7061 60.9024 22.7638 60.6055 22.9237C60.3851 23.0386 60.1754 23.1729 59.9787 23.3248C58.8724 24.1479 58.3988 24.5761 57.2957 25.3993C57.1414 25.5134 56.9757 25.6059 56.7309 25.7615C56.7454 25.4852 56.7478 25.3193 56.763 25.1506C56.9137 23.6629 57.1405 22.1734 57.2912 20.6858C57.3583 20.0078 57.5211 19.5358 57.4753 18.84C57.411 17.8641 56.271 17.4626 55.6885 17.4404C55.4352 17.4073 55.1777 17.4316 54.9351 17.5117C54.6925 17.5917 54.4711 17.7253 54.2874 17.9026C53.6575 18.6089 54.072 19.5717 54.0388 20.1891C53.9944 21.0148 52.2777 36.5538 52.2146 37.155C52.1921 37.3719 52.1964 37.5908 52.2277 37.8066C52.2794 38.1457 52.448 38.4562 52.7044 38.6843C52.9608 38.9125 53.2889 39.0441 53.6321 39.0565C53.9724 39.0683 54.3078 38.9719 54.5899 38.7812C54.872 38.5906 55.0863 38.3155 55.202 37.9955C55.2942 37.7019 55.3525 37.3988 55.3756 37.092C55.5806 35.1105 56.0595 31.509 56.1106 31.3163C57.8933 31.6883 59.5876 32.8777 60.8865 34.096C61.0358 34.2559 61.2254 34.3726 61.4355 34.434C61.709 34.5209 62.0016 34.5281 62.2791 34.4549C62.5566 34.3817 62.8074 34.231 63.0023 34.0206C63.1891 33.8021 63.3009 33.5295 63.3211 33.2429Z" fill="white"/>
<path d="M76.4882 25.5331C76.0986 23.9329 75.2605 22.6374 73.6107 22.2186C72.0827 21.8303 70.3137 22.1307 68.8003 22.698C68.6503 22.7734 68.4821 22.8051 68.3149 22.7896C68.1477 22.774 67.9882 22.7118 67.8547 22.6101C67.6632 22.4786 67.4445 22.3922 67.2148 22.3573C66.9852 22.3224 66.7506 22.3398 66.5287 22.4084C66.3068 22.477 66.1033 22.5949 65.9335 22.7533C65.7637 22.9116 65.632 23.1063 65.5483 23.3228C65.413 23.6597 65.3296 24.0151 65.3011 24.377C65.1404 26.001 64.2759 34.4558 64.1188 36.612C63.9474 37.8467 65.1423 38.3301 65.7347 38.3419C67.6022 38.3791 67.3459 36.91 67.4592 35.5365C67.5379 34.6177 67.6419 33.6989 67.7456 32.6941C68.3251 32.8899 68.788 33.0891 69.2725 33.2052C71.3355 33.7064 73.2706 33.4335 74.7861 31.794C76.4521 29.9913 77.0516 27.8552 76.4882 25.5331ZM73.5917 28.1085C72.7869 30.6259 70.6103 30.8622 69.3612 29.8807C68.2623 29.0187 67.6873 27.677 68.0325 26.6801C68.6515 24.8784 70.2087 24.6441 71.4207 24.7777C71.8009 24.8152 72.1677 24.9375 72.4942 25.1356C72.8206 25.3338 73.0983 25.6027 73.3068 25.9225C73.5152 26.2422 73.649 26.6047 73.6983 26.9831C73.7476 27.3615 73.7112 27.7461 73.5917 28.1085Z" fill="white"/>
<path d="M83.9922 42.6539C84.0898 41.7278 84.4481 39.8307 83.4557 39.3314C82.4441 38.8206 81.3134 39.8503 81.0638 40.7927C80.9567 40.7183 80.1449 39.3983 77.1296 39.8995C76.5239 40.0001 76.0229 40.4361 75.3857 40.4747C75.1277 40.4897 74.8708 40.461 74.6135 40.4915C73.7702 40.5895 73.4296 41.3835 73.2608 42.1167C73.212 42.4778 73.1902 42.842 73.1957 43.2064C73.1413 43.7849 72.7885 44.2464 72.6078 44.7871C71.8386 47.1016 72.7697 49.5193 74.8833 50.5995C77.1225 51.7439 79.713 51.4535 81.2827 50.3445C81.4951 50.4904 81.6564 50.6075 81.8233 50.7119C82.4171 51.0863 83.0318 51.167 83.626 50.738C84.2083 50.3189 84.6684 48.9051 84.5122 48.2211C84.4186 47.8144 84.014 47.8473 83.7866 47.496C83.5844 47.1271 83.52 46.6985 83.6048 46.2865C83.7329 45.0757 83.862 43.8648 83.9922 42.6539ZM80.6659 46.4964C79.8616 48.0497 78.1743 48.7718 76.9002 48.1111C75.623 47.4506 75.2381 45.6593 76.0424 44.1061C76.8468 42.5559 78.5341 41.8338 79.8082 42.4944C81.0854 43.1549 81.4703 44.9462 80.6659 46.4964Z" fill="white"/>
<path d="M39.2064 33.7648C39.051 33.4988 38.8442 33.2665 38.5979 33.0813C38.229 32.7373 38.0083 32.2636 37.9823 31.7602C38.0401 31.0569 38.0978 30.3536 38.1774 29.6532C38.31 28.4705 38.5017 27.2904 38.5875 26.1048C38.6189 25.663 38.7009 25.3421 38.5239 24.9264C38.4421 24.6884 38.2785 24.4871 38.0622 24.3581C37.846 24.2291 37.5909 24.1808 37.3424 24.2217C36.7448 24.2628 36.0389 24.3918 35.8337 24.9312C35.7418 25.1775 35.6968 25.439 35.6178 25.7412C34.2462 25.0098 33.5414 24.837 32.1379 24.9548C30.8744 25.0593 29.5169 25.5532 28.9205 26.7483C28.8719 26.858 28.7981 26.9547 28.7049 27.0304C28.6118 27.1062 28.502 27.1588 28.3846 27.184C28.1146 27.2554 27.8684 27.397 27.6711 27.5944C27.4738 27.7918 27.3325 28.038 27.2615 28.3078C27.1211 28.7473 27.0213 29.202 26.9214 29.6568C26.8301 30.0932 26.889 30.5476 27.0885 30.9465C27.1963 31.1845 27.2592 31.4403 27.2739 31.7011C27.4165 34.0299 28.9231 35.4199 31.0985 36.224C32.2283 36.6429 35.0147 36.5909 36.4189 35.1138C36.6006 35.3271 36.8314 35.4932 37.0914 35.5978C38.8476 36.5664 39.8864 34.9206 39.2064 33.7648ZM32.8626 33.5814C31.3089 33.5913 30.0423 32.2277 30.0315 30.5389C30.0206 28.847 31.2697 27.4704 32.8234 27.4605C34.374 27.4506 35.6406 28.811 35.6514 30.503C35.6623 32.1918 34.4132 33.5715 32.8626 33.5814H32.8626Z" fill="white"/>
<path d="M83.1889 32.6818C79.8497 32.6995 77.7621 30.1751 77.7565 26.8898C77.754 26.4244 77.3996 26.1707 77.3888 25.6831C77.3989 25.3416 77.4598 25.0035 77.5695 24.6799L78.0103 23.13C78.2192 22.3957 78.5928 22.5144 79.2018 22.3864C79.7078 22.2801 79.9853 21.9961 80.4001 21.6679C81.4576 20.848 82.739 20.3673 84.0754 20.2894C87.6554 20.066 90.2192 23.1202 89.9949 26.6415C89.7734 30.1192 86.5766 32.6638 83.1889 32.6818ZM86.9806 26.2784C87.0708 24.4957 85.7851 23.1959 83.9694 23.2441C83.2765 23.2633 82.6074 23.5014 82.0584 23.9242C81.7712 24.1218 81.5304 24.3794 81.3525 24.6791C81.1487 25.1279 81.4013 25.4041 81.4462 25.8777C81.4877 26.2005 81.4079 26.5271 81.2223 26.7946C81.1375 26.8894 81.0578 26.9887 80.9834 27.0919C80.7184 27.5326 81.5547 28.4058 81.863 28.6607C82.4002 29.0986 83.0763 29.3306 83.7696 29.3148C84.5879 29.3011 85.3714 28.9819 85.9657 28.4198C86.5601 27.8578 86.9222 27.0938 86.9806 26.2784V26.2784Z" fill="white"/>
<path d="M49.4342 30.6408C49.3483 30.7423 49.2677 30.8498 49.183 30.9475C48.8039 31.3851 48.4892 31.8698 47.9772 32.171C47.5128 32.4427 46.985 32.5874 46.4468 32.5906C45.9693 32.5915 45.4984 32.4786 45.0734 32.2612C44.6483 32.0438 44.2814 31.7282 44.003 31.3406C43.6852 30.9263 43.4873 30.4329 43.4307 29.914C43.4739 29.5896 43.5594 29.2723 43.6849 28.97C43.8143 28.7548 43.9622 28.5513 44.1268 28.3617C44.2744 28.2292 44.4692 28.2157 44.5562 28.0081C44.7594 27.5226 44.4311 27.2412 44.9829 26.9461C45.43 26.7102 45.929 26.5895 46.4346 26.5948C46.7589 26.5963 47.0812 26.6454 47.3912 26.7405C47.8339 26.8777 48.1964 27.189 48.6884 27.2041C48.9182 27.2214 49.1486 27.1788 49.3571 27.0806C49.5656 26.9824 49.745 26.8319 49.8778 26.6438C50.0758 26.326 50.1594 25.9502 50.1146 25.5785C50.075 25.3794 49.9999 25.189 49.8929 25.0163C49.8335 24.892 49.0169 23.4197 46.4237 23.4385C45.5709 23.4448 44.7288 23.6287 43.9512 23.9786C43.1736 24.3285 42.4777 24.8367 41.9079 25.4706C41.3382 26.1045 40.9071 26.8502 40.6423 27.66C40.3775 28.4698 40.2848 29.3259 40.3701 30.1735C40.4554 31.0212 40.7169 31.8417 41.1378 32.5826C41.5587 33.3236 42.1297 33.9686 42.8144 34.4765C43.4991 34.9844 44.2824 35.344 45.1142 35.5323C45.9459 35.7205 46.8078 35.7333 47.6448 35.5698C48.7128 35.3587 49.7041 34.8639 50.5142 34.1375C51.0564 33.6897 51.5222 33.157 51.8933 32.5601C52.0536 32.2881 52.1398 31.9788 52.1434 31.6631C52.117 31.4426 52.0471 31.2294 51.9376 31.0361C51.8281 30.8428 51.6813 30.6731 51.5056 30.5369C51.0651 30.2551 50.5345 30.1491 50.0194 30.24C49.783 30.3002 49.5756 30.4422 49.4342 30.6408Z" fill="white"/>
<path d="M66.6888 43.7893C66.3955 43.7908 63.0886 44.0396 62.5389 44.091C62.3645 44.0925 62.1916 44.059 62.0304 43.9926C61.8692 43.9261 61.723 43.828 61.6004 43.7041C61.4779 43.5802 61.3815 43.4329 61.317 43.2711C61.2524 43.1093 61.2211 42.9361 61.2247 42.762C61.1797 41.7668 61.9196 41.3451 62.5862 41.2459C63.4429 41.1186 64.322 41.0856 65.1846 41.0177C65.6076 40.9844 66.0307 40.9518 66.4539 40.92C66.792 40.8946 67.242 40.9605 67.5214 40.7426C67.6531 40.6399 67.7612 40.5083 67.8989 40.4139C68.1429 40.2726 68.4191 40.1962 68.7011 40.1921C69.048 40.1619 69.3959 40.1471 69.7446 40.1478C69.9493 40.1348 70.1543 40.1679 70.3444 40.2448C70.6621 40.399 70.6209 40.7589 70.8707 40.9775C71.1104 41.2312 71.282 41.5414 71.3694 41.8792C71.4569 42.2169 71.4574 42.5713 71.3709 42.9093C71.2801 43.1909 71.1478 43.4575 70.9782 43.7001C70.5288 44.3635 66.4893 48.829 66.1861 49.1761C66.6853 49.3396 67.1928 49.4769 67.7064 49.5874C68.0692 49.6967 68.447 49.7481 68.8258 49.7397C69.1941 49.6948 69.5666 49.6964 69.9345 49.7445C70.2506 49.8108 70.5406 49.9677 70.7689 50.196C70.9087 50.3359 70.942 50.4059 71.1386 50.4576C71.2455 50.4858 71.3528 50.5124 71.4588 50.5436C71.6822 50.6176 71.8868 50.7392 72.0587 50.8998C72.2305 51.0605 72.3654 51.2564 72.4541 51.4742C72.5428 51.692 72.5831 51.9264 72.5724 52.1613C72.5616 52.3961 72.5 52.6258 72.3917 52.8346C72.0572 53.5897 70.9136 54.0907 70.0173 53.824C68.4062 53.3446 62.8434 51.6239 62.4144 51.4216C61.7083 51.0886 61.3346 50.0061 62.1187 49.0602C62.4485 48.6624 66.5876 43.8983 66.6888 43.7893Z" fill="white"/>
<path d="M55.5684 44.5964C55.5684 44.5964 52.732 44.8273 51.5836 44.8789C51.4138 44.8753 51.2465 44.8376 51.0917 44.7678C50.9369 44.6981 50.7979 44.5979 50.6828 44.4731C50.5677 44.3484 50.4791 44.2017 50.4222 44.0419C50.3653 43.8821 50.3412 43.7125 50.3516 43.5432C50.3371 43.3669 50.3584 43.1895 50.4143 43.0217C50.4701 42.8538 50.5593 42.699 50.6765 42.5664C50.7937 42.4338 50.9365 42.3262 51.0963 42.2501C51.2561 42.174 51.4297 42.1309 51.6066 42.1234C52.23 42.0515 58.1611 41.5812 58.6449 41.5452C59.6304 41.4719 61.0601 42.8891 59.6947 44.4509C58.9467 45.3064 55.3031 49.3126 55.0841 49.6148C55.3124 49.7385 58.4098 50.7824 59.6695 51.2446C60.0355 51.3846 60.3457 51.6399 60.5532 51.9719C60.7607 52.3039 60.8542 52.6945 60.8194 53.0844C60.7846 53.4742 60.6234 53.8421 60.3604 54.1322C60.0973 54.4223 59.7468 54.6188 59.3618 54.6918C58.6853 54.8751 57.9659 54.6867 57.309 54.4421C55.3407 53.709 53.3979 52.9649 51.4491 52.1555C51.146 52.0589 50.8732 51.8853 50.6575 51.6517C50.5412 51.4766 50.4714 51.2749 50.4547 51.0654C50.4379 50.856 50.4748 50.6457 50.5617 50.4544C50.9435 49.4973 55.3364 44.8131 55.5684 44.5964Z" fill="white"/>
<path d="M39.7466 53.0361C39.9248 51.1205 40.5769 43.6884 40.8327 41.0018C40.8746 40.5615 40.9057 40.1177 40.9885 39.6844C41.0306 39.2915 41.2242 38.9304 41.5281 38.6776C41.8321 38.4247 42.2226 38.2999 42.6171 38.3295C43.0115 38.3591 43.379 38.5409 43.6416 38.8363C43.9043 39.1318 44.0416 39.5177 44.0245 39.9125C44.0309 40.1336 44.0213 40.3549 43.9956 40.5746C43.575 45.0677 43.3501 47.9185 42.9264 52.4113C42.8953 52.7416 42.8639 53.0727 42.8111 53.4C42.6562 54.361 42.0076 54.9339 41.1583 54.8737C40.3147 54.8139 39.7523 54.1361 39.7446 53.1695C39.744 53.1031 39.7466 53.0368 39.7466 53.0361Z" fill="white"/>
<path d="M89.495 39.376C90.2795 38.4529 92.6489 37.066 93.0436 39.723C93.0868 39.9677 93.065 40.2194 92.9805 40.4531C92.896 40.6868 92.7516 40.8942 92.5619 41.0549C92.1703 41.3007 91.7511 41.4996 91.313 41.6474C90.8026 41.8777 90.364 42.2416 90.0438 42.7005C89.7236 43.1595 89.5336 43.6964 89.494 44.2545C89.4487 45.0428 89.3815 45.8246 89.319 46.613C89.2471 47.5197 89.2283 48.5555 89.2035 48.8363C89.1814 49.2285 89.0229 49.6007 88.7553 49.8886C88.4878 50.1765 88.128 50.362 87.7381 50.4131C86.2858 50.688 85.4657 49.5457 85.5919 48.3238C85.6718 47.5505 86.3554 40.4823 86.4239 40.0645C86.4662 39.783 86.609 39.5264 86.826 39.3419C87.043 39.1574 87.3195 39.0577 87.6045 39.0611C87.8832 39.0378 88.1625 39.0994 88.4056 39.2379C88.6486 39.3763 88.8439 39.585 88.9659 39.8365C88.9753 39.855 88.9897 39.8705 89.0074 39.8814C89.025 39.8923 89.0454 39.8981 89.0661 39.8983C89.0869 39.8985 89.1073 39.893 89.1252 39.8824C89.1431 39.8719 89.1577 39.8566 89.1675 39.8383C89.2628 39.6748 89.3724 39.5201 89.495 39.376Z" fill="white"/>
<path d="M45.6175 43.4714C45.8259 42.6321 46.4565 42.1401 47.2488 42.2101C48.0606 42.2818 48.6393 42.9497 48.6353 43.8681C48.6333 44.3298 48.0319 50.6913 47.9101 52.1884C47.89 52.541 47.8364 52.891 47.75 53.2335C47.6643 53.5814 47.4567 53.8871 47.1647 54.0951C46.8727 54.3031 46.5158 54.3997 46.1587 54.3673C45.8015 54.335 45.4678 54.1758 45.2181 53.9187C44.9683 53.6616 44.8192 53.3236 44.7976 52.966C44.7775 52.7241 44.7792 52.4809 44.8027 52.2394C44.8609 51.4241 45.6077 43.5107 45.6175 43.4714Z" fill="white"/>
<path d="M47.4727 41.0165C46.996 41.0162 46.5379 40.8313 46.1947 40.5008C45.8515 40.1703 45.6499 39.7198 45.6321 39.2439C45.6289 39.0078 45.6725 38.7735 45.7605 38.5543C45.8485 38.3352 45.9792 38.1358 46.1449 37.9674C46.3106 37.7991 46.5081 37.6653 46.726 37.5738C46.9438 37.4822 47.1777 37.4347 47.414 37.4341C47.8909 37.4324 48.3497 37.6163 48.6932 37.9468C49.0367 38.2773 49.2379 38.7284 49.2541 39.2045C49.257 39.4405 49.2131 39.6747 49.125 39.8938C49.0369 40.1128 48.9063 40.3122 48.7407 40.4806C48.5752 40.649 48.3779 40.7831 48.1603 40.875C47.9427 40.967 47.709 41.0151 47.4727 41.0165Z" fill="white"/>
<path d="M17.6745 45.8568C15.7945 45.7789 14.4964 45.0237 14.1799 44.722C11.8597 42.5088 12.3068 39.4662 12.607 38.2607L12.6366 38.1398C12.8086 37.4379 13.0439 36.4765 13.8583 36.0182C14.073 35.8976 14.3175 35.8403 14.5634 35.8527C15.2333 35.8806 15.4691 36.2104 15.8031 36.683C16.1072 37.1134 16.5956 37.2095 16.9185 37.6124C17.1006 37.8739 17.1813 38.1927 17.1456 38.5092C17.1118 39.1001 16.8836 39.6633 16.4965 40.1112C16.2809 40.3125 16.0962 40.5445 15.9483 40.7995C15.5432 41.7076 16.7612 42.3874 17.4835 42.4174C18.6287 42.4649 19.9466 41.607 20.0833 40.2541C20.0915 40.1734 20.2611 38.3658 20.4802 36.034C20.8824 31.7518 21.4331 25.8871 21.4857 25.3646C21.5166 25.0541 21.845 23.5772 21.3887 23.1289C21.3206 23.0606 21.2391 23.0071 21.1494 22.9717C21.0596 22.9362 20.9635 22.9197 20.8671 22.923L20.8355 22.9242C20.8355 22.9242 17.648 23.3606 16.6906 23.4806C16.5546 23.4976 16.4035 23.5236 16.2441 23.5512C15.9843 23.6024 15.7215 23.6368 15.4573 23.6541C15.2957 23.6765 15.131 23.651 14.9837 23.5809C14.6065 23.334 14.5417 22.3195 14.7824 21.8183C14.8727 21.6333 15.0068 21.4731 15.1732 21.3516C15.3395 21.2301 15.533 21.1509 15.7368 21.121C16.4114 21.0262 17.0861 20.9269 17.7609 20.8274C19.2377 20.6099 22.9492 20.146 23.2962 20.1151C24.8997 19.9724 26.558 19.8247 28.0157 18.9379C28.2053 18.8227 28.3891 18.6968 28.5727 18.5709C28.8669 18.3523 29.183 18.1648 29.5159 18.0113C29.6867 17.9404 29.8685 17.8997 30.0532 17.8911C30.2562 17.8724 30.4587 17.9315 30.6197 18.0564C30.882 18.2968 31.1938 18.4769 31.5333 18.5839C31.8727 18.6909 32.2315 18.7224 32.5844 18.676C32.9275 18.6244 33.278 18.6857 33.5832 18.8505C33.6793 18.9053 33.7625 18.9803 33.827 19.0702C33.8915 19.1601 33.9358 19.2629 33.9568 19.3714C34.1067 20.0361 33.6952 21.0601 33.2492 21.7305C33.1226 21.9206 32.6382 22.1384 31.8741 22.1667C31.3096 22.1876 29.8307 21.7745 29.3308 21.793C29.0215 21.8045 27.2887 21.984 27.0002 22.0338C26.873 22.0558 26.7467 22.0777 26.6219 22.095C26.2083 22.1523 25.2694 22.3696 25.1369 23.3458C25.0458 24.0153 24.8347 24.7676 24.7723 25.4188C24.7251 25.9117 24.6762 26.4215 24.6085 26.9139C24.455 28.0331 23.6313 37.1154 23.5293 38.1282C23.4997 38.4232 23.4737 38.7313 23.4471 39.0481C23.2676 41.18 22.9913 43.2584 21.4193 44.6483C20.4533 45.5024 18.8796 45.9068 17.6745 45.8568Z" fill="white"/>
<path d="M101.37 21.3539C101.374 22.0027 100.817 22.7979 100.206 22.9291C100.127 22.946 97.0422 23.2621 96.1479 23.3733C96.084 23.3809 96.0246 23.41 95.9795 23.4558C95.9344 23.5017 95.9063 23.5615 95.8998 23.6255C95.8315 24.2662 95.6498 26.0567 95.603 27.0163C95.6003 27.0691 95.6121 27.1216 95.6373 27.168C95.6625 27.2145 95.7 27.2531 95.7457 27.2796C95.7914 27.3062 95.8436 27.3196 95.8964 27.3184C95.9493 27.3173 96.0008 27.3016 96.0453 27.2731C96.6614 26.8779 97.7143 26.1985 97.8819 26.0636C98.0727 25.91 99.0976 25.4016 99.7265 26.1342C100.548 27.0914 100.052 27.9051 99.6244 28.3306C98.2656 29.6829 95.5329 31.4487 94.8114 31.6474C93.1431 32.1071 92.2739 30.7873 92.345 29.8264C92.4146 28.8854 92.699 25.9458 92.8792 24.079C92.8833 24.0367 92.8778 23.994 92.8633 23.954C92.8487 23.914 92.8254 23.8778 92.7951 23.8479C92.7648 23.818 92.7282 23.7953 92.6879 23.7813C92.6477 23.7674 92.6049 23.7626 92.5625 23.7672C92.1112 23.8145 91.4316 23.9041 91.3807 23.9078C90.9647 23.9169 90.5615 23.7633 90.2572 23.4797C89.9529 23.1961 89.7715 22.805 89.7517 22.3897C89.7521 22.0825 89.8274 21.7799 89.9712 21.5083C90.0995 21.3202 90.2666 21.1616 90.4613 21.0432C90.656 20.9249 90.8737 20.8495 91.1 20.822C91.3133 20.7955 91.5304 20.7871 91.7446 20.769C92.1539 20.7345 92.5637 20.701 92.9718 20.6541C93.0375 20.6471 93.0987 20.6175 93.1449 20.5704C93.1912 20.5233 93.2197 20.4617 93.2255 20.3959C93.2935 19.6297 93.4881 17.3701 93.4944 17.3105C93.611 16.2159 94.1731 15.7667 95.0262 15.7615C95.2228 15.7485 95.4201 15.7755 95.6059 15.8411C95.7917 15.9066 95.9623 16.0092 96.1072 16.1426C96.2521 16.2761 96.3683 16.4376 96.4487 16.6173C96.5291 16.797 96.5721 16.9912 96.5751 17.1881C96.5761 17.3509 96.4139 19.1014 96.3271 19.9844C96.3228 20.0266 96.328 20.0692 96.3422 20.1091C96.3565 20.1491 96.3796 20.1853 96.4096 20.2153C96.4397 20.2452 96.4761 20.268 96.5162 20.2821C96.5562 20.2962 96.5989 20.3012 96.6412 20.2967C97.5869 20.1986 99.9685 20.0158 100.013 20.0155C100.371 20.0134 100.714 20.1533 100.969 20.4042C101.223 20.6552 101.367 20.9968 101.37 21.3539Z" fill="white"/>
<path fill-rule="evenodd" clip-rule="evenodd" d="M52.2695 11.3885C52.2695 11.5506 52.1688 11.5931 52.1688 11.8957C52.1688 12.3496 52.4611 12.8307 53.3999 12.8307C54.0082 12.8307 54.485 12.5511 54.485 12.0479C54.485 11.3691 53.7841 11.1381 53.089 10.7525C52.4031 10.3723 51.7228 9.84224 51.7228 8.58499C51.7228 7.12374 53.0631 6.24377 54.9224 6.24352C55.6842 6.24377 56.2112 6.36953 56.7894 6.73266C57.1858 5.88348 58.1702 5.27928 59.2838 5.27928C61.0079 5.27928 61.7625 6.35857 61.7625 7.2531C61.7625 8.5173 60.3764 10.6523 60.3764 11.8063C60.3764 12.0687 60.588 12.2128 60.8026 12.2133C62.0704 12.2128 63.4373 8.96226 63.5092 6.65526C63.5119 6.47763 63.6367 6.32894 63.8048 6.28778C63.9201 6.25866 64.0659 6.24276 64.236 6.24276C64.9445 6.24276 65.6994 6.6264 65.6915 7.6328C65.6772 9.43676 64.3931 11.0473 64.3931 11.9238C64.3931 12.1514 64.5966 12.3961 64.9915 12.3961C66.3192 12.3961 67.3452 9.33301 67.3452 6.92067C67.3452 6.67108 67.6081 6.47345 68.2198 6.47345C69.0254 6.47345 69.5843 6.93397 69.5354 8.15157C69.6014 8.05434 70.6539 6.24352 72.2657 6.24352C73.3194 6.24352 73.7634 6.89582 73.7634 7.72986C73.7634 7.72986 74.4471 6.24352 76.2635 6.24352C77.3162 6.24352 77.892 6.86963 77.8922 7.89243C77.8922 9.4996 76.4115 11.2474 76.4115 12.0427C76.4115 12.3029 76.5936 12.4005 76.807 12.4005C77.3527 12.4005 78.1469 11.9086 78.4305 11.1491C78.6484 10.5662 79.3087 8.88788 80.6541 8.88788C81.1157 8.88788 81.2228 9.07748 81.2228 9.26231C81.2228 9.65439 80.7993 9.76911 80.7993 11.1682C80.7993 12.2215 81.1295 12.6778 81.6553 12.6778C82.3913 12.6778 83.5081 11.156 83.5081 9.2639C83.5081 8.45278 83.0401 7.68777 81.8613 7.68777C80.9838 7.68777 80.7629 7.95318 80.4075 7.95318C80.2911 7.95318 80.05 7.87403 80.05 7.60075C80.05 7.05697 81.4236 6.24352 82.987 6.24352C85.2732 6.24352 85.9001 8.22997 85.9001 9.36882C85.9001 12.2675 83.4254 14.5714 81.2875 14.5714C79.9184 14.5714 79.2071 13.9306 78.8405 13.2171C78.84 13.2174 78.8395 13.2186 78.8389 13.2192C78.2026 13.896 77.0577 14.5714 75.7639 14.5714C74.58 14.5714 73.9051 14.0397 73.9051 12.9843C73.9051 11.6362 75.3268 9.4832 75.3268 8.83374C75.3268 8.67175 75.2935 8.59042 75.1453 8.59042C73.9087 8.59042 72.3123 11.8286 72.0718 13.9445C72.0604 14.044 71.9655 14.5714 71.312 14.5714C70.5717 14.5714 69.8495 14.1208 69.8495 13.13C69.8495 11.7664 71.3287 9.46705 71.3283 8.83332C71.3287 8.68757 71.2792 8.59042 71.1148 8.59042C70.3921 8.59042 69.5944 9.72903 69.0116 11.0971C68.6119 12.0352 68.316 13.0815 68.2094 13.9425C68.188 14.1154 68.0526 14.5714 67.4467 14.5714C66.7052 14.5714 66.2708 14.1745 66.0537 13.6766C65.5136 14.1359 64.8443 14.5714 64.1115 14.5714C62.7623 14.5714 62.2776 13.9381 62.2279 13.256C62.2279 13.256 61.4909 14.5714 59.7142 14.5714C58.845 14.5714 58.0063 13.8653 58.0063 12.3715C58.0063 10.694 58.9825 9.44756 59.3459 7.92272C59.4551 7.41032 59.0312 7.11747 58.5556 7.11747C57.9465 7.11747 57.6462 7.53474 57.6462 8.21248C57.6462 8.93934 57.2341 9.51692 56.2588 9.51692C56.0956 9.51692 55.9017 9.39384 55.9017 9.16424C55.9017 9.07036 55.9327 8.97331 55.9327 8.73133C55.9327 8.13065 55.4403 7.78918 54.8303 7.78918C54.2715 7.78918 54.0082 8.06572 54.0082 8.48843C54.0082 9.20926 54.7592 9.45751 55.4944 9.81872C56.2002 10.1654 56.8912 10.6155 56.8912 11.686C56.8912 13.5371 55.2487 14.5714 53.2092 14.5714C52.1698 14.5714 51.4121 14.3455 50.9786 13.8485C50.5894 14.2065 49.98 14.5714 49.1077 14.5714C47.6103 14.5714 47.5571 13.2907 47.5571 13.2907C47.5571 13.2907 46.8527 14.5714 44.7306 14.5714C42.9924 14.5714 42.6214 13.2154 42.6214 13.2154C41.7532 13.9776 40.4491 14.5714 38.6611 14.5714C35.7375 14.5714 34.2273 12.8003 34.2273 10.0805C34.2273 7.17763 36.7654 2.42859 40.7421 2.42859C42.8758 2.42859 43.9695 3.67028 43.9695 5.0573C43.9695 6.33338 42.9566 7.72785 41.2651 7.72785C40.3693 7.72785 40.1239 7.42371 40.1239 7.21126C40.1239 6.80947 41.1463 6.5618 41.1463 5.43249C41.1463 4.84545 40.7704 4.4265 40.2458 4.4265C38.7828 4.4265 36.8305 7.33987 36.8305 9.69138C36.8305 11.5957 37.7099 12.6129 39.4119 12.6129C40.4371 12.6129 41.8833 11.8655 42.2522 10.793C42.8145 9.15713 44.1473 6.24276 47.8165 6.24276C49.6553 6.24276 50.2979 7.26858 50.2979 7.73555C50.2979 7.86482 50.1977 8.08789 49.9404 8.08789C49.6855 8.08789 49.3199 7.77806 48.2372 7.77806C45.7418 7.77806 44.6538 9.7809 44.6538 11.2307C44.6538 12.0795 44.9682 12.4884 45.4894 12.4884C46.5475 12.4884 46.7061 11.5596 47.1279 10.2104C47.3614 9.46396 47.9062 8.8883 48.7708 8.8883C49.6276 8.8883 49.622 9.26222 49.6212 9.32188C49.6202 9.42187 49.5778 9.55273 49.4755 9.75639C49.1725 10.3612 49.0336 11.1983 49.0336 11.5705C49.0336 11.9288 49.1763 12.4783 49.819 12.4783C50.6933 12.4783 50.7066 11.0356 51.912 11.0356C52.1602 11.0356 52.2695 11.2388 52.2695 11.3885Z" fill="#0CD0CD"/>
</svg>
