<svg xmlns="http://www.w3.org/2000/svg" viewBox="0 0 48 48" fill="none">
    <path fill="#3B058E" d="M31.794 11.585H16.206c-3.842 0-6.904 3.118-6.904 6.903v13.528c0 2.394 1.949 4.399 4.399 4.399h20.598c2.394 0 4.398-1.949 4.398-4.398V18.544c0-3.841-3.117-6.959-6.903-6.959z"/>
    <path fill="#3B058E" d="M41.203 18.489v13.528c0 3.785-3.062 6.903-6.904 6.903H13.701c-3.842 0-6.904-3.062-6.904-6.848V18.49c0-5.178 4.231-9.409 9.409-9.409h15.588c5.177 0 9.409 4.231 9.409 9.409z"/>
    <path fill="#fff" d="M38.698 31.571V18.488c0-3.785-3.062-6.903-6.904-6.903H16.206c-3.841 0-6.903 3.118-6.903 6.903v13.083h29.395z"/>
    <path fill="#3B058E" d="M33.742 24.446l-.055.055a25.247 25.247 0 0 1-9.52 1.893H24c-5.79 0-9.687-1.893-9.854-2.004a.85.85 0 0 1-.39-1.17.85.85 0 0 1 1.17-.389c.055 0 3.785 1.837 9.074 1.837h.167c3.006 0 6.124-.612 8.796-1.781.167-.056.223-.112.334-.112.445-.11.946.223 1.002.669.056.445-.167.89-.557 1.002zM16.484 20.215a1.447 1.447 0 1 0 0-2.895 1.447 1.447 0 0 0 0 2.895zM31.571 20.215a1.447 1.447 0 1 0 0-2.895 1.447 1.447 0 0 0 0 2.895z"/>
    <path fill="#0CD0CD" d="M14.034 36.415H33.91a4.728 4.728 0 0 0 4.732-4.732v-.334H9.302v.334a4.728 4.728 0 0 0 4.732 4.732z"/>
</svg>