<svg xmlns="http://www.w3.org/2000/svg" viewBox="0 0 48 49" fill="none">
    <path fill="#fff" d="M24 39.587c8.548 0 15.477-6.93 15.477-15.477S32.547 8.634 24 8.634 8.523 15.563 8.523 24.11c0 8.548 6.93 15.477 15.477 15.477z"/>
    <path fill="#3B058E" d="M41.982 24.11c0 9.91-8.072 17.982-17.982 17.982S6.018 34.02 6.018 24.11 14.091 6.128 24 6.128c9.91 0 17.982 8.073 17.982 17.982z"/>
    <path fill="#fff" d="M39.477 24.11c0 8.574-6.96 15.477-15.477 15.477-.501 0-1.002 0-1.503-.056a14.917 14.917 0 0 1-3.62-.779c-.166-.056-.277-.111-.444-.167-.613-.223-1.17-.501-1.726-.78l-.835-.5c-.501-.334-1.002-.669-1.448-1.058-.278-.223-.5-.446-.78-.668-.166-.167-.333-.334-.5-.446a15.307 15.307 0 0 1-2.672-3.563c-.669-1.169-1.114-2.45-1.448-3.785-.056-.279-.111-.501-.167-.78a16.462 16.462 0 0 1-.278-2.895v-.835c.055-1.447.334-2.783.779-4.064a15.592 15.592 0 0 1 9.798-9.798 14.214 14.214 0 0 1 4.064-.78h1.058c1.17 0 2.338.168 3.452.446.445.111.89.223 1.336.39a16.68 16.68 0 0 1 4.51 2.394c.5.39 1.001.835 1.502 1.336.39.39.78.779 1.114 1.224.39.502.724 1.002 1.058 1.504.167.278.334.5.445.779.334.557.612 1.17.835 1.782.056.166.111.278.167.445.39 1.169.668 2.394.78 3.619v1.558z"/>
    <path fill="#0CD0CD" d="M39.421 22.607c.056.501.056 1.002.056 1.503 0 8.574-6.959 15.477-15.477 15.477-.5 0-1.002 0-1.503-.056l16.924-16.924zM27.674 9.079L8.97 27.785c-.056-.279-.112-.501-.167-.78a16.462 16.462 0 0 1-.279-2.895v-.835c.056-1.447.334-2.783.78-4.064L19.1 9.413a14.214 14.214 0 0 1 4.064-.78h1.058c1.225 0 2.338.168 3.451.446zM38.475 18.543L18.433 38.585c-.613-.223-1.17-.501-1.726-.78L37.64 16.817c.278.501.556 1.114.835 1.726z"/>
    <path fill="#3B058E" d="M25.447 23.164a.856.856 0 0 1-.835-.835v-1.17c0-.445.39-.834.835-.834.446 0 .835.39.835.835v1.169c0 .5-.334.835-.835.835z"/>
    <path fill="#3B058E" d="M33.52 25.948a.862.862 0 0 1-.612.445l-1.56.223c-.612 1.447-1.892 3.34-4.063 4.342.723.334 1.447.78 2.115 1.225.39.278.446.78.167 1.169a.87.87 0 0 1-.668.334.898.898 0 0 1-.5-.167 12.233 12.233 0 0 0-3.842-1.837c-.279 0-.501.055-.78.055-1.558 0-2.616-.445-3.507-.89-1.336.222-2.56.668-3.73 1.28a1.032 1.032 0 0 1-.39.111c-.278 0-.556-.167-.723-.445-.223-.39-.056-.89.334-1.113 1.447-.78 2.95-1.28 4.565-1.56h.222c.112 0 .223.056.279.112.835.501 1.614.835 2.895.835 4.62 0 6.068-4.287 6.18-4.51a.862.862 0 0 1 .667-.556l.947-.111c-.668-1.559-1.67-3.786-1.893-4.176-1.28-2.393-3.452-3.785-5.901-3.785-1.782 0-3.285.668-4.621 2.004a9.688 9.688 0 0 0-.668.78c-.835 1.001-1.949 2.282-3.841 2.505-2.005.222-3.174-.724-3.34-.836-.335-.278-.39-.835-.112-1.169.278-.334.835-.39 1.169-.111.056.056.78.612 2.06.445 1.225-.167 2.004-1.002 2.784-1.948.222-.279.5-.613.779-.89 1.67-1.671 3.563-2.45 5.79-2.45 3.062 0 5.79 1.725 7.348 4.676.334.612 2.172 4.788 2.394 5.289.223.223.167.5.056.724zM14.48 33.352c-.111 0-.223 0-.334-.056-.111-.056-.223-.111-.278-.167-.056-.056-.112-.167-.167-.278-.056-.112-.056-.223-.056-.334v-.167c0-.056 0-.112.056-.167 0-.056.055-.112.055-.112.056-.055.056-.111.112-.111l.111-.111c.056 0 .111-.056.167-.056.056 0 .111-.056.167-.056h.334c.056 0 .111 0 .167.056.056 0 .111.056.111.056.056.055.112.055.112.111l.111.111c0 .056.056.112.056.112 0 .055.055.111.055.167v.167c0 .111 0 .222-.055.334-.056.111-.112.167-.167.278-.056.056-.167.111-.279.167-.055 0-.167.056-.278.056zM26.227 36.525a.83.83 0 1 1 1.614-.39.83.83 0 0 1-.612 1.003h-.223c-.334 0-.724-.279-.78-.613zm-6.235.446c-.446-.112-.668-.613-.557-1.058.111-.446.612-.668 1.058-.557.445.111.668.612.556 1.058-.111.334-.445.612-.779.612-.111-.056-.223-.056-.278-.056zm12.303-3.452a.807.807 0 0 1 0-1.17.807.807 0 0 1 1.17 0 .807.807 0 0 1 0 1.17.894.894 0 0 1-.613.278 2.599 2.599 0 0 1-.557-.278zm3.674-5.734a.83.83 0 1 1 .39-1.615.83.83 0 0 1 .612 1.002c-.11.39-.445.668-.835.668 0-.055-.055-.055-.167-.055zm-.89-7.349a.882.882 0 0 1 .556-1.058c.446-.167.891.112 1.058.557a.882.882 0 0 1-.557 1.058c-.055.055-.167.055-.222.055a1.07 1.07 0 0 1-.835-.612zm-3.508-5.289c-.334-.278-.39-.835-.111-1.169.278-.334.835-.39 1.17-.056.333.279.389.835.11 1.17-.167.222-.39.278-.612.278-.167-.056-.39-.111-.557-.223zm-13.138-2.505c-.167-.445.055-.89.445-1.114.446-.167.89.056 1.114.502a.823.823 0 0 1-.446 1.057c-.111.056-.222.056-.334.056-.334 0-.612-.223-.78-.501zm7.404-.223c-.445-.055-.78-.5-.668-.946.056-.446.501-.78.947-.668.445.056.779.5.668.946-.056.39-.446.668-.835.668h-.112zM13.812 17.263c-.223 0-.445-.111-.612-.223-.056-.055-.112-.167-.167-.278-.056-.111-.056-.223-.056-.334v-.167c0-.056 0-.111.056-.167 0-.056.055-.112.055-.167a.12.12 0 0 1 .112-.111l.111-.112c.056 0 .111-.056.167-.056.056 0 .111-.055.167-.055h.334c.056 0 .112 0 .167.055.056 0 .111.056.167.056.056.056.111.056.111.111a.12.12 0 0 0 .112.112c.056.056.056.111.056.167 0 .055.055.111.055.167v.167c0 .111 0 .223-.056.334-.055.111-.11.167-.166.278-.056.056-.168.112-.279.167-.111.056-.223.056-.334.056z"/>
    <path fill="#3B058E" d="M14.369 25.725a7.02 7.02 0 0 1-3.285-.835c-.39-.223-.557-.724-.334-1.114.223-.39.724-.556 1.114-.334 2.56 1.392 5.511.279 6.791-1.503.279-.39.78-.445 1.17-.167.39.279.445.78.167 1.17-1.114 1.614-3.285 2.783-5.623 2.783zM14.703 29.121a6.677 6.677 0 0 1-3.173-.78c-.39-.222-.557-.723-.335-1.113.223-.39.724-.556 1.114-.334 2.282 1.225 4.843.279 5.678-.5.334-.335.891-.28 1.17.055.334.334.278.89-.056 1.169-.89.78-2.561 1.503-4.398 1.503z"/>
</svg>