<svg xmlns="http://www.w3.org/2000/svg" viewBox="0 0 48 49" fill="none">
    <path fill="#3B058E" d="M35.26 15.006h-.11c-5.123-9.242-15.088-8.852-16.146-8.797-.89.056-1.67.501-2.227 1.17-.556.668-.835 1.503-.723 2.393.167 1.782 1.726 3.118 3.563 3.007 0 1.169-.112 2.227-.39 3.173-1.114-.445-2.338-.78-3.563-.89-7.46-.836-14.14 4.564-14.976 12.024-.835 7.46 4.565 14.141 11.97 14.976 4.23.446 8.406-1.058 11.301-4.12a13.461 13.461 0 0 0 8.35 4.12c.502.056 1.003.056 1.504.056 3.062 0 6.012-1.058 8.462-2.95 2.84-2.283 4.62-5.512 5.01-9.075.056-.501.112-1.003.112-1.503-.056-6.904-5.233-12.805-12.137-13.584zm-9.185-.502c.723.502 1.391 1.058 1.948 1.726-.89.446-1.781.947-2.56 1.56.277-1.003.5-2.116.612-3.285z"/>
    <path fill="#01C9C7" d="M25.072 29.703c-.111 1.002-.334 1.949-.723 2.84a10.354 10.354 0 0 1-2.116 3.34c-2.282 2.56-5.734 3.953-9.409 3.563-6.068-.668-10.466-6.124-9.798-12.248.668-6.068 6.124-10.466 12.248-9.798 6.124.78 10.522 6.235 9.798 12.303z"/>
    <path fill="#3B058E" d="M24.515 32.71c-.5 1.28-1.225 2.394-2.227 3.229-2.728-5.623.835-10.021.835-10.021l1.392 6.792z"/>
    <path fill="#01C9C7" d="M33.757 39.557c6.119 0 11.079-4.96 11.079-11.078 0-6.119-4.96-11.08-11.08-11.08-6.118 0-11.078 4.961-11.078 11.08 0 6.118 4.96 11.078 11.079 11.078z"/>
    <path fill="#fff" d="M29.002 26.782c1.11-2.264.89-4.648-.49-5.325-1.38-.676-3.399.61-4.509 2.874-1.11 2.264-.89 4.648.49 5.324 1.38.677 3.4-.61 4.51-2.873zM10.548 27.044c1.232-2.512.977-5.163-.57-5.92-1.545-.759-3.797.664-5.029 3.176-1.231 2.512-.976 5.163.57 5.921 1.546.758 3.797-.664 5.029-3.177z"/>
    <path fill="#3B058E" d="M21.454 23.523c.278.78.167 1.67-.724 2.116-.724.39-1.67.278-2.45-.056-1.892-.668-3.451-2.282-4.064-4.23-.167-.446-.222-.891-.111-1.337.111-.445.557-.78 1.002-.724.501.056.724.613.89 1.058.168.446.28 1.002.725 1.225 1.057.668 2.45-.167 3.507.445.612.334 1.058.891 1.225 1.503zM36.596 20.629c1.225-.056 2.227 1.28 1.726 2.45-.445 1.057-1.781 1.502-2.839 1.558-1.837.111-3.841-.668-4.899-2.227-.167-.278-.334-.557-.334-.835-.056-.501.501-1.28 1.002-.724a.897.897 0 0 1 .223.39c.445.724 1.503 1.114 2.282.89.39-.11.78-.5 1.058-.723.501-.445 1.114-.78 1.782-.78-.056 0-.056 0 0 0z"/>
    <path fill="#fff" d="M34.48 23.412h-.166c-.39 0-.78-.278-.835-.668-1.503-8.24-6.347-11.079-9.966-12.025 1.17 9.186-5.01 12.749-5.289 12.916a1.031 1.031 0 0 1-.39.111c-.277 0-.556-.167-.723-.445-.223-.39-.111-.89.334-1.114.223-.111 4.565-2.728 4.565-9.186 0-.779-.055-1.67-.223-2.616-1.336-.167-2.282-.111-2.449-.111-.445.055-.89-.279-.89-.724-.056-.445.278-.89.723-.89.111 0 13.25-1.059 15.922 13.861.111.39-.167.835-.612.891z"/>
</svg>