<svg viewBox="0 0 16 16" fill="none" xmlns="http://www.w3.org/2000/svg">
<path d="M8.00006 2.51172C11.0263 2.51172 13.4884 4.97376 13.4884 8.00006C13.4884 11.0264 11.0263 13.4884 8.00006 13.4884C4.97379 13.4884 2.51172 11.0264 2.51172 8.00006C2.51172 4.97376 4.97376 2.51172 8.00006 2.51172Z" fill="white"/>
<path d="M8.00007 2.51172C4.9738 2.51172 2.51172 4.97376 2.51172 8.00007C2.51172 8.00298 2.51181 8.00587 2.51184 8.00878H3.75967C3.75967 5.67063 5.66198 3.76842 8.0001 3.76842C10.3382 3.76842 12.2405 5.67063 12.2405 8.00878H13.4883C13.4883 8.00587 13.4884 8.00298 13.4884 8.00007C13.4884 4.9738 11.0263 2.51172 8.00007 2.51172Z" fill="#C0D2EA"/>
<path d="M12.2401 8.0083C12.2401 10.3465 10.3378 12.2487 7.9997 12.2487C5.66158 12.2487 3.75927 10.3465 3.75927 8.0083H2.51147C2.51621 11.0306 4.97631 13.4879 7.9997 13.4879C11.0231 13.4879 13.4832 11.0306 13.4879 8.0083H12.2401Z" fill="#96B4DC"/>
<path d="M8 2.51165C11.0263 2.51165 13.4883 4.9737 13.4883 8C13.4883 11.0263 11.0263 13.4883 8 13.4883C4.97373 13.4883 2.51165 11.0263 2.51165 8C2.51165 4.9737 4.9737 2.51165 8 2.51165ZM8 0C3.58172 0 0 3.58172 0 8C0 12.4183 3.58172 16 8 16C12.4183 16 16 12.4183 16 8C16 3.58172 12.4183 0 8 0Z" fill="#14143C"/>
<path d="M5.96576 8.97921H6.26175H6.26197C6.26944 8.8339 6.32064 8.5688 6.23855 8.41727C6.1461 8.24669 5.93488 8.08789 5.73898 7.90197C5.66147 7.82175 5.48135 7.69613 5.48135 7.47283C5.48135 7.17684 5.70066 7.09744 5.8499 7.09205C5.90255 7.08998 5.9556 7.09722 6.00659 7.11278C6.02961 7.01513 6.07044 6.91419 6.13221 6.83168C6.04494 6.8012 5.94918 6.78587 5.85714 6.78775C5.57253 6.79377 5.1731 6.98882 5.1731 7.47283C5.1731 7.79271 5.37561 7.98322 5.55968 8.16751C5.76699 8.37497 5.9351 8.5719 5.96576 8.97921Z" fill="#14143C"/>
<path d="M10.034 9.21387H5.96484V9.50409H10.034V9.21387Z" fill="#14143C"/>
<path d="M10.034 9.73877H5.96484V10.0292H10.034V9.73877Z" fill="#14143C"/>
<path d="M6.82175 8.97945H7.14179C7.17061 8.73486 7.26534 8.52341 7.20645 8.34307C7.13972 8.1389 6.87274 7.92228 6.71561 7.74962C6.58688 7.60841 6.50626 7.48342 6.50626 7.30744C6.50626 7.11239 6.66173 6.93372 6.89617 6.93372C7.16211 6.93372 7.31881 7.18226 7.64239 7.18226V6.8879C7.45274 6.86965 7.26804 6.6377 6.89617 6.6377C6.69779 6.6377 6.51827 6.70982 6.3908 6.84124C6.26913 6.96664 6.20215 7.13641 6.20215 7.31945C6.20215 7.59866 6.33834 7.77076 6.47039 7.9372C6.64082 8.15198 6.83172 8.40525 6.82175 8.97945Z" fill="#14143C"/>
<path d="M10.1483 7.09208C10.2976 7.09748 10.5169 7.17687 10.5169 7.47286C10.5169 7.69616 10.3367 7.82178 10.2592 7.902C10.0633 8.08795 9.8521 8.24672 9.75966 8.4173C9.67756 8.56883 9.72877 8.83396 9.73624 8.97924H9.73645H10.0324C10.0631 8.57193 10.2312 8.375 10.4385 8.16751C10.6226 7.98322 10.8251 7.79271 10.8251 7.47283C10.8251 6.98882 10.4257 6.79377 10.1411 6.78775C10.049 6.78587 9.95326 6.8012 9.86599 6.83168C9.92777 6.91419 9.9686 7.01513 9.99162 7.11278C10.0426 7.09729 10.0957 7.09001 10.1483 7.09208Z" fill="#14143C"/>
<path d="M8.35645 7.18226C8.68003 7.18226 8.83673 6.93372 9.10267 6.93372C9.33711 6.93372 9.49258 7.11239 9.49258 7.30744C9.49258 7.48342 9.41196 7.60841 9.28323 7.74962C9.1261 7.92231 8.85912 8.1389 8.79239 8.34307C8.73353 8.52341 8.82826 8.73483 8.85704 8.97945H9.17712C9.16718 8.40525 9.35808 8.15198 9.52845 7.9372C9.6605 7.77076 9.79669 7.59866 9.79669 7.31945C9.79669 7.13641 9.72974 6.96664 9.60804 6.84124C9.48057 6.70982 9.30104 6.6377 9.10267 6.6377C8.7308 6.6377 8.5461 6.86965 8.35645 6.8879V7.18226Z" fill="#14143C"/>
<path d="M7.8434 6.65015V7.52262C7.8434 7.52199 7.84321 7.52159 7.84321 7.52159C7.84321 8.07738 7.69702 8.21378 7.69702 8.40011C7.69702 8.63207 7.79182 8.70896 7.84299 8.96537C7.84321 8.96515 7.84321 8.96497 7.8434 8.96475V8.96537H8.15651V8.96456C8.15673 8.96497 8.15673 8.96519 8.15692 8.96537C8.20812 8.70896 8.30286 8.63207 8.30286 8.40011C8.30286 8.21378 8.15673 8.07738 8.15673 7.52159C8.15673 7.52159 8.15673 7.5224 8.15651 7.52366V6.65015H7.8434Z" fill="#14143C"/>
<path d="M7.86291 5.67233C7.69787 5.72921 7.57846 5.88418 7.57846 6.06866C7.57846 6.30124 7.76714 6.48967 7.99972 6.48967C8.23199 6.48967 8.42061 6.30124 8.42061 6.06866C8.42061 5.88418 8.3012 5.72912 8.13613 5.67223V5.36492H8.44344V5.09192H8.13613V4.77417H7.86291V5.09192H7.55566V5.36492H7.86291V5.67233ZM7.99972 5.90657C8.08906 5.90657 8.1615 5.97932 8.1615 6.06866C8.1615 6.158 8.08906 6.23056 7.99972 6.23056C7.9102 6.23056 7.83764 6.158 7.83764 6.06866C7.83764 5.97932 7.9102 5.90657 7.99972 5.90657Z" fill="#14143C"/>
<path d="M4.00899 3.07772L3.62451 2.59123L3.4553 2.72497L3.35718 2.60083L3.83815 2.2207L3.93627 2.34485L3.76797 2.47784L4.15245 2.96436L4.00899 3.07772Z" fill="white"/>
<path d="M4.43118 2.76228L4.00098 2.11352L4.15341 2.01245L4.58358 2.66122L4.43118 2.76228Z" fill="white"/>
<path d="M4.73589 2.56203L4.35815 1.88147L4.51805 1.79272L4.81899 2.3349L5.09369 2.18244L5.17048 2.32083L4.73589 2.56203Z" fill="white"/>
<path d="M5.2858 2.26704L4.97729 1.55248L5.14519 1.47998L5.39097 2.04925L5.67937 1.92473L5.74209 2.07001L5.2858 2.26704Z" fill="white"/>
<path d="M6.32724 1.88216L6.22445 1.71609L6.00563 1.78213L6.01193 1.97736L5.82902 2.03259L5.82178 1.22182L6.06976 1.14697L6.51012 1.82697L6.32724 1.88216ZM5.99396 1.3339L5.98496 1.33659L5.99785 1.63879L6.1527 1.59204L5.99396 1.3339Z" fill="white"/>
<path d="M6.86552 1.7627L6.62171 1.80441L6.49048 1.03711L6.74586 0.993425C7.00701 0.948772 7.13884 1.03802 7.18327 1.29801C7.23228 1.58462 7.1463 1.71466 6.86552 1.7627ZM6.77828 1.14846L6.69738 1.16229L6.77524 1.61758L6.86075 1.60296C7.02369 1.57509 7.02711 1.46985 7.00359 1.33234C6.97951 1.19136 6.932 1.12215 6.77828 1.14846Z" fill="white"/>
<path d="M7.39848 1.68433L7.35718 0.907211L7.90375 0.878174L7.91215 1.03619L7.54818 1.05553L7.55589 1.20066L7.85082 1.18498L7.85884 1.33594L7.56392 1.35162L7.5727 1.51665L7.9437 1.49693L7.9521 1.65494L7.39848 1.68433Z" fill="white"/>
<path d="M8.09668 1.6578L8.13575 0.880371L8.31838 0.889528L8.28727 1.50891L8.60104 1.52468L8.59311 1.68276L8.09668 1.6578Z" fill="white"/>
<path d="M9.05683 1.43485L8.94306 1.39653C8.84049 1.36235 8.7747 1.29132 8.79593 1.15821C8.82127 0.999631 8.96125 0.932964 9.13024 0.959932C9.25523 0.979876 9.34347 1.02955 9.39409 1.10647L9.2463 1.19208C9.20588 1.14052 9.1377 1.12133 9.09603 1.11468C9.02544 1.10343 8.98364 1.13475 8.97737 1.17411C8.97091 1.21462 9.00057 1.24429 9.06295 1.26254L9.13786 1.28399C9.27747 1.32406 9.35966 1.39653 9.33491 1.55163C9.30889 1.71485 9.15207 1.77527 8.99001 1.7494C8.85109 1.72723 8.74789 1.6823 8.69678 1.59343L8.8461 1.50569C8.87919 1.55131 8.94219 1.58038 9.01628 1.5922C9.09038 1.60403 9.13723 1.5854 9.14557 1.53331C9.15464 1.47659 9.12676 1.45787 9.05683 1.43485Z" fill="white"/>
<path d="M9.4248 1.81642L9.63039 1.06567L10.1584 1.21023L10.1166 1.36289L9.76498 1.26662L9.72656 1.40682L10.0115 1.48484L9.97156 1.63068L9.68664 1.55266L9.64299 1.71209L10.0014 1.81021L9.95962 1.96286L9.4248 1.81642Z" fill="white"/>
<path d="M10.3457 2.10421L10.6637 1.3938L11.1858 1.62754L11.1212 1.77198L10.766 1.61296L10.7028 1.75417L10.9884 1.88204L10.9247 2.02435L10.6391 1.89644L10.5126 2.17888L10.3457 2.10421Z" fill="white"/>
<path d="M11.3588 2.62288L11.3765 2.30622L11.2747 2.24577L11.1311 2.4876L10.9739 2.39422L11.3713 1.7251L11.6363 1.88255C11.8228 1.99327 11.8494 2.11137 11.7746 2.2373C11.7225 2.32498 11.6435 2.36392 11.5504 2.35768L11.5402 2.73059L11.3588 2.62288ZM11.5455 2.01259L11.4477 1.95451L11.3508 2.11776L11.4435 2.17283C11.5342 2.2267 11.5779 2.20359 11.6072 2.1542C11.6389 2.10083 11.6291 2.06226 11.5455 2.01259Z" fill="white"/>
<path d="M12.0176 3.09696L12.0939 2.91716L11.9136 2.77664L11.7579 2.89448L11.6072 2.77702L12.265 2.30298L12.4693 2.46225L12.1683 3.21443L12.0176 3.09696ZM12.2729 2.50828L12.2655 2.50251L12.0262 2.68749L12.1537 2.78693L12.2729 2.50828Z" fill="white"/>
<path d="M1.37754 10.6085C1.34512 10.528 1.32844 10.4134 1.32593 10.3728L1.50931 10.2989L1.52132 10.3288C1.44537 10.394 1.39394 10.4944 1.43361 10.5928C1.47864 10.7047 1.58473 10.7572 1.70103 10.7104C1.92019 10.6221 1.81047 10.169 2.04754 10.0735C2.2011 10.0116 2.32901 10.0797 2.39746 10.2497C2.43171 10.3347 2.44776 10.4477 2.45174 10.4877L2.29072 10.5526L2.27871 10.5228C2.33942 10.4411 2.38191 10.3616 2.34227 10.2632C2.30085 10.1604 2.22973 10.1301 2.14324 10.1649C1.94942 10.243 2.05739 10.709 1.80392 10.811C1.61013 10.8891 1.44782 10.7829 1.37754 10.6085Z" fill="white"/>
<path d="M2.14138 11.395L2.0649 11.2609L1.89177 11.3597C1.86944 11.3724 1.85624 11.3948 1.86041 11.4183L1.87948 11.5296L1.85994 11.5407L1.66235 11.1945L1.68192 11.1833L1.75307 11.2464C1.7712 11.2619 1.79713 11.2619 1.81946 11.2492L2.28998 10.9807C2.31231 10.968 2.3241 10.9464 2.31993 10.9229L2.30325 10.8288L2.32282 10.8176L2.53633 11.1919C2.62558 11.3482 2.66258 11.4715 2.51178 11.5575C2.33163 11.6602 2.22821 11.5471 2.14138 11.395ZM2.47747 11.1958L2.40419 11.0673L2.1082 11.2362L2.18309 11.3675C2.22369 11.4387 2.28026 11.5378 2.43527 11.4494C2.54552 11.3864 2.54041 11.3061 2.47747 11.1958Z" fill="white"/>
<path d="M2.19189 12.0654L2.20999 12.052L2.28813 12.1061C2.30798 12.1194 2.33373 12.1163 2.35439 12.101L2.78961 11.7784C2.81028 11.7631 2.8194 11.7403 2.81247 11.7174L2.78469 11.6259L2.80278 11.6125L3.03066 11.9199L3.01257 11.9333L2.93314 11.8802C2.91326 11.8669 2.88883 11.869 2.86816 11.8843L2.43294 12.207C2.41228 12.2223 2.40187 12.246 2.4088 12.2689L2.43787 12.3594L2.41977 12.3728L2.19189 12.0654Z" fill="white"/>
<path d="M3.02877 13.0615L2.57593 12.5736L2.59242 12.5582L2.67605 12.6034C2.69725 12.6145 2.7225 12.6086 2.74137 12.5911L3.13855 12.2224C3.1574 12.2049 3.16398 12.1813 3.15455 12.1593L3.11685 12.0715L3.13335 12.0562L3.39368 12.3366L3.37719 12.3519L3.29236 12.3078C3.27117 12.2968 3.24708 12.3016 3.22824 12.3191L2.79101 12.7249L2.91463 12.858C2.97697 12.9252 2.99892 12.9465 3.08132 12.9336L3.18779 12.916L3.20748 12.9372L3.02877 13.0615Z" fill="white"/>
<path d="M3.74978 13.6796L3.23633 13.2563L3.25066 13.239L3.33953 13.2726C3.36201 13.2808 3.38625 13.2716 3.40259 13.2517L3.74718 12.8338C3.76355 12.8139 3.76691 12.7896 3.75468 12.7691L3.7057 12.687L3.72003 12.6697L4.0152 12.913L4.00087 12.9304L3.91097 12.898C3.88848 12.8898 3.86528 12.8978 3.84891 12.9177L3.46957 13.3778L3.60971 13.4933C3.68039 13.5516 3.70497 13.5698 3.78491 13.5461L3.88807 13.5145L3.9104 13.5329L3.74978 13.6796Z" fill="white"/>
<path d="M4.63201 14.2454L4.03223 13.8828L4.04389 13.8636L4.13671 13.884C4.16014 13.8888 4.18278 13.8761 4.19607 13.8541L4.47635 13.3906C4.48965 13.3686 4.48946 13.344 4.47437 13.3255L4.41398 13.2514L4.42561 13.2322L4.99652 13.5773L4.89755 13.741L4.87278 13.726L4.87199 13.6279C4.87134 13.573 4.8513 13.5534 4.77977 13.5101L4.61746 13.412L4.46026 13.672L4.60332 13.7585C4.61843 13.7676 4.66221 13.7884 4.69093 13.772L4.76108 13.7336L4.78309 13.747L4.65669 13.956L4.63468 13.9427L4.62913 13.868C4.62646 13.8382 4.60172 13.8139 4.57974 13.8006L4.4353 13.7133L4.28061 13.9691L4.47184 14.0847C4.55023 14.1322 4.56566 14.1377 4.64876 14.109L4.73483 14.0784L4.75961 14.0934L4.63201 14.2454Z" fill="white"/>
<path d="M5.64419 14.6877L5.65218 14.6667L5.75134 14.6683C5.77674 14.6693 5.79317 14.6532 5.80233 14.6292L5.98759 14.1424L6.00719 14.1L6.00267 14.0983C5.99659 14.1097 5.9811 14.1279 5.97257 14.1367L5.46984 14.6351L5.42176 14.6168L5.37253 13.9101C5.37203 13.8978 5.37344 13.876 5.37539 13.8664L5.37237 13.8653L5.36052 13.9055L5.17469 14.3938C5.16554 14.4178 5.16864 14.4414 5.1883 14.4574L5.26309 14.5186L5.2551 14.5396L4.96362 14.4287L4.97162 14.4076L5.07077 14.4092C5.09467 14.4097 5.11113 14.3936 5.12026 14.3696L5.30837 13.8753C5.31866 13.8482 5.32368 13.826 5.30307 13.8079L5.22609 13.739L5.23409 13.718L5.49401 13.8169L5.53528 14.4949L6.01835 14.0165L6.27376 14.1137L6.26577 14.1347L6.16812 14.1337C6.13557 14.1333 6.12111 14.1622 6.10568 14.2028L5.92556 14.6761C5.91641 14.7001 5.92008 14.7222 5.93917 14.7397L6.0128 14.8039L6.0048 14.8249L5.64419 14.6877Z" fill="white"/>
<path d="M7.08896 14.3187C7.065 14.3238 7.03734 14.356 7.01906 14.3737L6.74 14.6577L6.70068 14.8564C6.69569 14.8817 6.70394 14.9063 6.72605 14.9188L6.80372 14.9653L6.79936 14.9874L6.42874 14.9141L6.4331 14.892L6.5242 14.8789C6.54941 14.8757 6.56641 14.8561 6.57139 14.8309L6.61009 14.6353L6.46553 14.2642C6.45825 14.2431 6.44207 14.2088 6.42344 14.1953L6.36377 14.149L6.36813 14.127L6.71667 14.1959L6.71231 14.218L6.63856 14.2263C6.61837 14.2289 6.6099 14.2387 6.60708 14.2529C6.60457 14.2655 6.60463 14.2819 6.61128 14.298L6.72605 14.6042L6.72762 14.6045L6.94214 14.3651C6.95503 14.3496 6.96478 14.3335 6.9676 14.3193C6.97039 14.3051 6.96597 14.2944 6.95114 14.2866L6.88582 14.2523L6.89018 14.2302L7.16302 14.2842L7.15867 14.3063L7.08896 14.3187Z" fill="white"/>
<path d="M8.19231 14.388C8.16801 14.3954 8.15456 14.4159 8.1538 14.4416L8.13559 15.0924L8.05688 15.0902L7.55258 14.4361L7.53774 14.9663C7.53702 14.992 7.54925 15.0149 7.57312 15.0236L7.66224 15.0566L7.66161 15.0791L7.34668 15.0703L7.34731 15.0478L7.43815 15.0198C7.46085 15.0124 7.47434 14.9903 7.47506 14.9646L7.49021 14.4231C7.49093 14.3974 7.47867 14.3761 7.45637 14.3675L7.36728 14.3328L7.36794 14.3103L7.62182 14.3174L8.07826 14.8995L8.09112 14.4399C8.09184 14.4143 8.07958 14.393 8.05568 14.3843L7.96663 14.3497L7.96726 14.3271L8.28218 14.336L8.28153 14.3585L8.19231 14.388Z" fill="white"/>
<path d="M8.98827 15.0178L8.61925 15.0718L8.61599 15.0495L8.70062 15.0063C8.72173 14.9951 8.73123 14.9709 8.72747 14.9455L8.64913 14.4095C8.64543 14.384 8.62966 14.3653 8.60624 14.3605L8.51254 14.3417L8.50928 14.3195L8.87507 14.266C9.1884 14.2202 9.35667 14.3044 9.39552 14.57C9.43412 14.8341 9.27931 14.9753 8.98827 15.0178ZM8.81869 14.3246L8.77099 14.3316L8.86657 14.9853L8.94133 14.9744C9.2133 14.9346 9.29743 14.8102 9.26513 14.5891C9.22882 14.341 9.10339 14.283 8.81869 14.3246Z" fill="white"/>
<path d="M9.73024 14.8757L9.72419 14.8541L9.80271 14.8004C9.82221 14.7867 9.82855 14.7615 9.82165 14.7367L9.67602 14.2149C9.66909 14.1901 9.65112 14.1735 9.62726 14.1718L9.5319 14.165L9.52588 14.1434L9.8944 14.0405L9.90042 14.0622L9.82237 14.1174C9.80286 14.1311 9.79609 14.1547 9.80299 14.1795L9.94862 14.7013C9.95555 14.7261 9.97399 14.7443 9.99779 14.746L10.0927 14.7512L10.0988 14.7729L9.73024 14.8757Z" fill="white"/>
<path d="M10.9375 14.1135C10.9217 14.134 10.921 14.1448 10.9278 14.1611L11.031 14.4089L11.0087 14.4182L10.935 14.421C10.9133 14.4649 10.8433 14.5185 10.7498 14.5574C10.5584 14.6372 10.3421 14.6071 10.229 14.3356C10.1172 14.0671 10.2739 13.8833 10.4683 13.8023C10.5573 13.7652 10.6937 13.7415 10.7342 13.7385L10.8047 13.9077L10.775 13.9201C10.6798 13.8378 10.6137 13.8044 10.4698 13.8644C10.3214 13.9263 10.2674 14.0515 10.3601 14.2741C10.4602 14.5144 10.5887 14.5636 10.7564 14.4938C10.8157 14.4691 10.8752 14.4321 10.8981 14.4034L10.8165 14.2075C10.8097 14.1912 10.7845 14.1808 10.7591 14.1827L10.6992 14.185L10.6893 14.1613L10.9638 14.0469L10.9737 14.0707L10.9375 14.1135Z" fill="white"/>
<path d="M11.856 13.9472L11.8439 13.9282L11.9036 13.8542C11.9183 13.8354 11.9171 13.8095 11.9033 13.7878L11.7682 13.5746L11.4327 13.7872L11.5679 14.0004C11.5817 14.0221 11.6046 14.0342 11.6279 14.029L11.7203 14.0066L11.7323 14.0256L11.4092 14.2304L11.3971 14.2114L11.4568 14.1374C11.4715 14.1186 11.4703 14.0927 11.4565 14.071L11.1664 13.6133C11.1527 13.5916 11.1306 13.5808 11.1073 13.5861L11.014 13.6072L11.002 13.5882L11.3252 13.3833L11.3372 13.4023L11.2784 13.4776C11.2637 13.4965 11.264 13.521 11.2777 13.5427L11.4069 13.7464L11.7423 13.5338L11.6132 13.3301C11.5994 13.3084 11.5773 13.2977 11.554 13.3029L11.4607 13.324L11.4487 13.305L11.7719 13.1001L11.7839 13.1191L11.7251 13.1945C11.7104 13.2133 11.7107 13.2379 11.7245 13.2596L12.0146 13.7172C12.0283 13.7389 12.0513 13.751 12.0746 13.7458L12.167 13.7234L12.179 13.7424L11.856 13.9472Z" fill="white"/>
<path d="M12.9783 13.0559L12.4557 13.5231L12.4407 13.5063L12.4875 13.4235C12.4989 13.4025 12.4935 13.3771 12.4764 13.358L12.1153 12.9541C12.0982 12.9349 12.0747 12.9279 12.0525 12.9369L11.964 12.9729L11.949 12.9561L12.4464 12.5115L12.5738 12.6541L12.5523 12.6734L12.4582 12.6453C12.4055 12.6299 12.3809 12.6433 12.3186 12.699L12.1771 12.8254L12.3796 13.052L12.5043 12.9405C12.5175 12.9288 12.5502 12.893 12.5429 12.8607L12.5268 12.7824L12.5459 12.7653L12.7088 12.9474L12.6896 12.9646L12.6166 12.948C12.5873 12.9418 12.5568 12.9583 12.5376 12.9754L12.4117 13.0879L12.611 13.3109L12.7775 13.1619C12.8459 13.1009 12.8557 13.0878 12.8527 12.9999L12.8487 12.9086L12.8703 12.8893L12.9783 13.0559Z" fill="white"/>
<path d="M13.4675 12.5096L13.2319 12.7986L13.2145 12.7844L13.2477 12.6954C13.2557 12.6728 13.2463 12.6487 13.2264 12.6324L12.8065 12.2902C12.7865 12.274 12.7622 12.2707 12.7418 12.2831L12.66 12.3326L12.6426 12.3183L12.8761 12.0318C13.0761 11.7863 13.2571 11.7347 13.4651 11.9043C13.672 12.0728 13.6533 12.2815 13.4675 12.5096ZM12.8741 12.1131L12.8436 12.1504L13.3558 12.5678L13.4035 12.5092C13.5771 12.2962 13.5551 12.1476 13.3819 12.0065C13.1875 11.8481 13.0559 11.8901 12.8741 12.1131Z" fill="white"/>
<path d="M14.2898 11.2873L13.9347 11.8916L13.9153 11.8802L13.9346 11.7871C13.939 11.7636 13.9261 11.7411 13.904 11.7281L13.4368 11.4537C13.4146 11.4406 13.3901 11.4412 13.3718 11.4565L13.2985 11.5178L13.2791 11.5064L13.617 10.9312L13.782 11.0281L13.7673 11.053L13.6691 11.055C13.6143 11.0564 13.5949 11.0767 13.5526 11.1487L13.4565 11.3123L13.7184 11.4662L13.8031 11.322C13.8121 11.3068 13.8324 11.2628 13.8156 11.2342L13.7763 11.1646L13.7893 11.1424L14 11.2662L13.987 11.2884L13.9123 11.2948C13.8826 11.2979 13.8585 11.3229 13.8455 11.3451L13.76 11.4906L14.0178 11.6421L14.131 11.4494C14.1774 11.3704 14.1828 11.3549 14.1531 11.2722L14.1214 11.1865L14.1361 11.1615L14.2898 11.2873Z" fill="white"/>
<path d="M14.0942 9.93761C14.0931 9.96304 14.1079 9.98252 14.1319 9.99177L14.7397 10.2253L14.7114 10.2988L13.9268 10.557L14.422 10.7472C14.446 10.7565 14.4716 10.7525 14.4878 10.7329L14.5486 10.6598L14.5696 10.6679L14.4566 10.962L14.4356 10.9539L14.4393 10.859C14.4399 10.8351 14.4235 10.815 14.3995 10.8058L13.8938 10.6115C13.8698 10.6022 13.8457 10.6068 13.8301 10.6249L13.7678 10.6974L13.7468 10.6893L13.8379 10.4522L14.5386 10.2151L14.1095 10.0503C14.0854 10.041 14.0613 10.0455 14.0452 10.0651L13.9829 10.1376L13.9618 10.1296L14.0749 9.83545L14.0959 9.84354L14.0942 9.93761Z" fill="white"/>
</svg>
