
<?xml version="1.0" encoding="UTF-8"?>
<svg xmlns="http://www.w3.org/2000/svg" xmlns:xlink="http://www.w3.org/1999/xlink" width="76pt" height="14pt" viewBox="0 0 76 14" version="1.1">
    <g id="surface1">
        <path fill="currentColor" d="M 17.808594 11.667969 L 16.710938 11.667969 L 17.925781 5.070312 L 19.328125 5.070312 L 20.542969 11.667969 L 19.445312 11.667969 L 19.246094 10.207031 L 18.007812 10.207031 Z M 18.171875 9.21875 L 19.082031 9.21875 L 18.636719 6.386719 L 18.617188 6.386719 Z M 18.171875 9.21875 "/>
        <path fill="currentColor" d="M 24.207031 6.75 L 24.207031 11.667969 L 23.238281 11.667969 L 23.238281 11.175781 C 22.808594 11.542969 22.589844 11.761719 22 11.761719 C 21.460938 11.761719 21.140625 11.367188 21.140625 10.726562 L 21.140625 6.75 L 22.164062 6.75 L 22.164062 10.5625 C 22.164062 10.808594 22.308594 10.917969 22.527344 10.917969 C 22.746094 10.917969 22.945312 10.78125 23.183594 10.609375 L 23.183594 6.75 Z M 24.207031 6.75 "/>
        <path fill="currentColor" d="M 24.789062 7.589844 L 24.789062 6.75 L 25.355469 6.75 L 25.355469 5.425781 L 26.375 5.425781 L 26.375 6.75 L 27.058594 6.75 L 27.058594 7.589844 L 26.375 7.589844 L 26.375 10.425781 C 26.375 10.679688 26.484375 10.828125 26.722656 10.828125 L 27.058594 10.828125 L 27.058594 11.703125 C 26.921875 11.742188 26.804688 11.761719 26.546875 11.761719 C 25.78125 11.761719 25.355469 11.402344 25.355469 10.652344 L 25.355469 7.589844 Z M 24.789062 7.589844 "/>
        <path fill="currentColor" d="M 27.671875 8.488281 C 27.671875 7.410156 28.089844 6.660156 29.257812 6.660156 C 30.425781 6.660156 30.84375 7.410156 30.84375 8.488281 L 30.84375 9.933594 C 30.84375 11.011719 30.425781 11.761719 29.257812 11.761719 C 28.089844 11.761719 27.671875 11.011719 27.671875 9.933594 Z M 29.820312 8.304688 C 29.820312 7.738281 29.621094 7.5 29.257812 7.5 C 28.890625 7.5 28.691406 7.738281 28.691406 8.304688 L 28.691406 10.117188 C 28.691406 10.683594 28.890625 10.921875 29.257812 10.921875 C 29.621094 10.921875 29.820312 10.683594 29.820312 10.117188 Z M 29.820312 8.304688 "/>
        <path fill="currentColor" d="M 31.828125 11.667969 L 31.828125 5.070312 L 33.449219 5.070312 C 34.84375 5.070312 35.492188 5.609375 35.492188 7.015625 C 35.492188 8.425781 34.84375 8.964844 33.449219 8.964844 L 32.957031 8.964844 L 32.957031 11.667969 Z M 32.957031 8.03125 L 33.394531 8.03125 C 34.132812 8.03125 34.359375 7.800781 34.359375 7.015625 C 34.359375 6.230469 34.132812 6 33.394531 6 L 32.957031 6 Z M 32.957031 8.03125 "/>
        <path fill="currentColor" d="M 36.332031 11.667969 L 36.332031 6.75 L 37.304688 6.75 L 37.304688 7.328125 L 37.324219 7.328125 C 37.570312 6.90625 38 6.660156 38.480469 6.660156 L 38.691406 6.660156 L 38.691406 7.730469 C 38.507812 7.683594 38.335938 7.628906 38.035156 7.628906 C 37.6875 7.628906 37.351562 7.847656 37.351562 8.285156 L 37.351562 11.671875 Z M 36.332031 11.667969 "/>
        <path fill="currentColor" d="M 39.3125 8.488281 C 39.3125 7.410156 39.730469 6.660156 40.898438 6.660156 C 42.066406 6.660156 42.484375 7.410156 42.484375 8.488281 L 42.484375 9.933594 C 42.484375 11.011719 42.066406 11.761719 40.898438 11.761719 C 39.730469 11.761719 39.3125 11.011719 39.3125 9.933594 Z M 41.464844 8.304688 C 41.464844 7.738281 41.261719 7.5 40.898438 7.5 C 40.535156 7.5 40.332031 7.738281 40.332031 8.304688 L 40.332031 10.117188 C 40.332031 10.683594 40.535156 10.921875 40.898438 10.921875 C 41.261719 10.921875 41.464844 10.683594 41.464844 10.117188 Z M 41.464844 8.304688 "/>
        <path fill="currentColor" d="M 43.414062 11.667969 L 43.414062 5.070312 L 44.433594 5.070312 L 44.433594 7.207031 C 44.808594 6.878906 45.027344 6.660156 45.621094 6.660156 C 46.15625 6.660156 46.476562 7.050781 46.476562 7.691406 L 46.476562 11.667969 L 45.457031 11.667969 L 45.457031 7.859375 C 45.457031 7.609375 45.308594 7.5 45.089844 7.5 C 44.871094 7.5 44.671875 7.636719 44.433594 7.8125 L 44.433594 11.667969 Z M 43.414062 11.667969 "/>
        <path fill="currentColor" d="M 47.472656 6 L 47.472656 5.070312 L 48.492188 5.070312 L 48.492188 6 Z M 47.472656 11.667969 L 47.472656 6.75 L 48.492188 6.75 L 48.492188 11.667969 Z M 47.472656 11.667969 "/>
        <path fill="currentColor" d="M 49.484375 11.667969 L 49.484375 5.070312 L 50.507812 5.070312 L 50.507812 7.171875 C 50.90625 6.84375 51.117188 6.660156 51.566406 6.660156 C 52.203125 6.660156 52.605469 7.136719 52.605469 8.03125 L 52.605469 10.390625 C 52.605469 11.285156 52.203125 11.761719 51.566406 11.761719 C 51.054688 11.761719 50.808594 11.585938 50.46875 11.15625 L 50.453125 11.15625 L 50.453125 11.667969 Z M 50.507812 10.664062 C 50.707031 10.808594 50.890625 10.917969 51.089844 10.917969 C 51.363281 10.917969 51.582031 10.773438 51.582031 10.125 L 51.582031 8.296875 C 51.582031 7.648438 51.363281 7.5 51.089844 7.5 C 50.890625 7.5 50.707031 7.609375 50.507812 7.757812 Z M 50.507812 10.664062 "/>
        <path fill="currentColor" d="M 53.542969 6 L 53.542969 5.070312 L 54.5625 5.070312 L 54.5625 6 Z M 53.542969 11.667969 L 53.542969 6.75 L 54.5625 6.75 L 54.5625 11.667969 Z M 53.542969 11.667969 "/>
        <path fill="currentColor" d="M 57.652344 8.433594 L 57.652344 8.304688 C 57.652344 7.738281 57.453125 7.5 57.089844 7.5 C 56.722656 7.5 56.523438 7.738281 56.523438 8.304688 L 56.523438 10.117188 C 56.523438 10.683594 56.722656 10.921875 57.089844 10.921875 C 57.453125 10.921875 57.652344 10.683594 57.652344 10.117188 L 57.652344 9.804688 L 58.675781 9.804688 L 58.675781 9.933594 C 58.675781 11.011719 58.253906 11.761719 57.089844 11.761719 C 55.921875 11.761719 55.5 11.011719 55.5 9.933594 L 55.5 8.488281 C 55.5 7.410156 55.921875 6.660156 57.089844 6.660156 C 58.238281 6.660156 58.65625 7.382812 58.675781 8.433594 Z M 57.652344 8.433594 "/>
        <path fill="currentColor" d="M 59.613281 6 L 59.613281 5.070312 L 60.632812 5.070312 L 60.632812 6 Z M 59.613281 11.667969 L 59.613281 6.75 L 60.632812 6.75 L 60.632812 11.667969 Z M 59.613281 11.667969 "/>
        <path fill="currentColor" d="M 61.574219 8.488281 C 61.574219 7.410156 61.992188 6.660156 63.160156 6.660156 C 64.324219 6.660156 64.746094 7.410156 64.746094 8.488281 L 64.746094 9.933594 C 64.746094 11.011719 64.324219 11.761719 63.160156 11.761719 C 61.992188 11.761719 61.574219 11.011719 61.574219 9.933594 Z M 63.269531 6.164062 L 62.511719 6.164062 L 63.230469 4.847656 L 64.460938 4.847656 Z M 63.722656 8.304688 C 63.722656 7.738281 63.523438 7.5 63.160156 7.5 C 62.792969 7.5 62.59375 7.738281 62.59375 8.304688 L 62.59375 10.113281 C 62.59375 10.683594 62.792969 10.917969 63.160156 10.917969 C 63.523438 10.917969 63.722656 10.683594 63.722656 10.113281 Z M 63.722656 8.304688 "/>
        <path fill="currentColor" d="M 65.675781 11.671875 L 65.675781 6.75 L 66.640625 6.75 L 66.640625 7.246094 C 67.070312 6.878906 67.289062 6.660156 67.882812 6.660156 C 68.421875 6.660156 68.738281 7.054688 68.738281 7.691406 L 68.738281 11.671875 L 67.71875 11.671875 L 67.71875 7.859375 C 67.71875 7.609375 67.570312 7.5 67.351562 7.5 C 67.132812 7.5 66.933594 7.636719 66.695312 7.8125 L 66.695312 11.671875 Z M 65.675781 11.671875 "/>
        <path fill="currentColor" d="M 11.390625 4.0625 C 10.335938 2.707031 8.820312 1.847656 7.128906 1.644531 C 5.4375 1.441406 3.765625 1.921875 2.429688 2.992188 C 1.089844 4.058594 0.242188 5.59375 0.0429688 7.308594 C -0.273438 10.042969 1.152344 12.585938 3.425781 13.792969 L 3.703125 13.601562 C 3.710938 13.59375 4.484375 13.058594 4.628906 12.453125 C 4.542969 12.359375 4.460938 12.257812 4.378906 12.148438 C 4.28125 12.023438 4.167969 11.875 4.023438 11.722656 C 3.78125 11.46875 3.539062 11.191406 3.304688 10.925781 C 2.964844 10.539062 2.644531 10.171875 2.355469 9.90625 C 2.1875 9.746094 1.96875 9.597656 1.78125 9.472656 C 1.449219 9.25 1.210938 9.089844 1.179688 8.867188 C 1.167969 8.773438 1.195312 8.683594 1.257812 8.605469 C 1.332031 8.519531 2.023438 7.78125 3.664062 9.007812 C 3.949219 9.222656 4.117188 9.347656 4.21875 9.417969 C 4.238281 9.417969 4.261719 9.421875 4.285156 9.429688 C 4.851562 9.15625 4.78125 8.917969 4.539062 8.125 C 4.507812 8.019531 4.472656 7.90625 4.4375 7.785156 C 4.109375 6.644531 3.804688 5.625 3.582031 4.914062 C 3.484375 4.609375 3.53125 4.316406 3.710938 4.121094 C 3.867188 3.945312 4.113281 3.871094 4.347656 3.921875 C 4.628906 3.988281 4.847656 4.214844 4.953125 4.546875 C 5.035156 4.8125 5.167969 5.171875 5.324219 5.585938 C 5.503906 6.0625 5.703125 6.597656 5.890625 7.160156 L 5.902344 7.1875 C 5.902344 7.1875 5.902344 7.191406 5.902344 7.191406 C 5.972656 7.207031 6.113281 7.195312 6.191406 7.175781 L 6.195312 3.582031 C 6.195312 3.117188 6.59375 2.863281 6.972656 2.863281 C 7.160156 2.863281 7.332031 2.925781 7.460938 3.035156 C 7.566406 3.125 7.695312 3.289062 7.695312 3.566406 C 7.695312 4.019531 7.695312 4.984375 7.695312 5.824219 L 7.699219 7.144531 L 7.699219 7.183594 C 7.699219 7.207031 7.699219 7.230469 7.695312 7.253906 C 7.769531 7.289062 7.898438 7.316406 7.976562 7.320312 C 7.980469 7.308594 7.980469 7.296875 7.984375 7.285156 C 7.996094 7.25 8.003906 7.21875 8.007812 7.207031 L 8.039062 7.101562 C 8.195312 6.570312 8.671875 4.957031 8.839844 4.304688 C 8.902344 4.058594 9.101562 3.867188 9.367188 3.792969 C 9.640625 3.714844 9.929688 3.78125 10.101562 3.953125 C 10.191406 4.046875 10.332031 4.25 10.238281 4.597656 C 10.054688 5.296875 9.707031 6.625 9.476562 7.496094 L 9.441406 7.625 C 9.4375 7.640625 9.425781 7.699219 9.414062 7.757812 C 9.40625 7.785156 9.402344 7.8125 9.398438 7.835938 C 9.449219 7.863281 9.523438 7.894531 9.582031 7.910156 C 9.589844 7.902344 9.601562 7.882812 9.636719 7.835938 L 9.652344 7.8125 C 9.820312 7.578125 10.0625 7.21875 10.269531 6.902344 C 10.46875 6.609375 10.636719 6.355469 10.710938 6.253906 C 10.894531 6.019531 11.289062 5.960938 11.539062 6.125 C 11.632812 6.1875 11.910156 6.425781 11.632812 6.949219 C 11.460938 7.273438 11.15625 7.742188 10.863281 8.195312 C 10.558594 8.664062 10.246094 9.148438 10.171875 9.339844 C 10.0625 9.605469 9.851562 10.402344 9.664062 11.101562 C 9.585938 11.394531 9.511719 11.667969 9.453125 11.886719 C 9.296875 12.4375 8.914062 12.695312 8.605469 12.902344 C 8.457031 13.003906 8.328125 13.089844 8.25 13.191406 C 8.128906 13.351562 7.859375 13.945312 7.703125 14.304688 L 7.664062 14.398438 C 8.628906 14.199219 9.539062 13.773438 10.332031 13.140625 C 11.671875 12.070312 12.519531 10.535156 12.71875 8.820312 C 12.917969 7.109375 12.445312 5.417969 11.390625 4.0625 Z M 11.390625 4.0625 "/>
    </g>
</svg>
