<svg fill="none" xmlns="http://www.w3.org/2000/svg">
    <path d="M50.933.15H3.15a3 3 0 0 0-3 3v9.7a3 3 0 0 0 3 3h47.783a3 3 0 0 0 3-3v-9.7a3 3 0 0 0-3-3z" fill="#fff" />
    <path
        d="M50.783.3a3 3 0 0 1 3 3v9.4a3 3 0 0 1-3 3H3.3a3 3 0 0 1-3-3V3.3a3 3 0 0 1 3-3h47.483zm3.33 2.7a3 3 0 0 0-3-3H3a3 3 0 0 0-3 3v10a3 3 0 0 0 3 3h48.112a3 3 0 0 0 3-3V3z"
        fill="#020203" />
    <path
        d="M9.558 14.322a6.327 6.327 0 0 1-4.374-1.858A6.127 6.127 0 0 1 3.416 8.03c.03-3.386 2.816-6.172 6.232-6.172h.06c1.648.03 3.206.689 4.374 1.857A6.127 6.127 0 0 1 15.85 8.15c-.03 3.386-2.816 6.172-6.232 6.172h-.06z"
        fill="#fff" />
    <path
        d="M9.618 1.708v.3h.06c1.618.03 3.146.659 4.284 1.827A6.121 6.121 0 0 1 15.7 8.15c-.03 3.326-2.756 6.022-6.082 6.022h-.06c-1.618-.03-3.146-.659-4.285-1.827A6.121 6.121 0 0 1 3.536 8.03c.03-3.326 2.756-6.022 6.082-6.022v-.3zm0 0C6.142 1.708 3.296 4.524 3.236 8c-.03 3.506 2.786 6.412 6.292 6.442h.06c3.476 0 6.322-2.816 6.382-6.292.03-3.506-2.787-6.412-6.292-6.442h-.06z"
        fill="#020203" />
    <path d="M14.142 8c-.659-5.573-8.33-5.693-9.108 0" stroke="url(#paint0_linear)" stroke-width="1.77"
        stroke-miterlimit="10" stroke-linecap="round" />
    <path d="M8.3 8.18l2.636-4.734-.539 5.393c-.18.57-.809.899-1.378.719a1.112 1.112 0 0 1-.72-1.378z" fill="#1E1E1C" />
    <path
        d="M22.921 9.139c0 .21-.06.42-.15.599-.09.18-.24.36-.419.51-.18.149-.42.269-.66.359-.239.09-.568.12-.928.12-.39 0-.719-.03-1.019-.12-.3-.06-.629-.18-.928-.33v-.899h.06c.27.21.569.39.928.51.36.12.69.18.99.18.448 0 .778-.09 1.018-.24s.36-.39.36-.66c0-.24-.06-.419-.18-.509-.12-.09-.3-.21-.54-.27a3.18 3.18 0 0 0-.57-.12c-.209-.03-.418-.06-.658-.12-.48-.09-.81-.269-1.049-.509-.24-.24-.33-.569-.33-.928 0-.45.18-.81.57-1.079.39-.27.839-.42 1.438-.42.36 0 .72.03 1.019.12.3.06.599.15.839.27v.839h-.06c-.21-.18-.48-.3-.81-.42-.329-.12-.658-.18-1.018-.18-.39 0-.69.09-.899.24-.24.15-.33.36-.33.6 0 .21.06.39.18.509.12.12.33.21.6.3.15.03.36.06.659.12.27.06.51.09.719.15.39.09.689.269.899.479.15.24.27.539.27.899zM25.258 10.757c0 .479-.12.809-.36 1.048-.239.24-.568.36-.958.36-.09 0-.21 0-.39-.03-.15-.03-.299-.03-.389-.06v-.63h.03c.06.03.15.06.27.09.12.03.21.06.33.06.18 0 .299-.03.419-.06a.81.81 0 0 0 .24-.21c.06-.09.09-.209.09-.329.03-.12.03-.3.03-.48V7.252h-.84v-.57h1.498v4.076h.03zm.06-4.735h-.749v-.689h.75v.69zM29.753 10.667h-.69v-.42c-.06.03-.15.09-.239.18-.09.09-.21.12-.3.18-.12.06-.24.09-.39.15-.149.03-.329.06-.509.06-.36 0-.659-.12-.898-.36a1.36 1.36 0 0 1-.36-.959c0-.3.06-.54.18-.72.12-.179.3-.329.54-.448.239-.12.538-.18.868-.21.33-.03.72-.06 1.109-.09v-.09a.83.83 0 0 0-.09-.39.468.468 0 0 0-.24-.24c-.09-.06-.21-.09-.33-.12-.12-.029-.27-.029-.419-.029-.18 0-.36.03-.6.06-.209.06-.449.12-.658.21h-.03v-.69c.12-.03.33-.09.569-.12.24-.03.48-.06.719-.06.27 0 .54.03.72.06.209.06.389.12.539.24.15.12.27.24.33.42.059.18.119.39.119.659v2.727h.06zm-.69-.99V8.57c-.209 0-.449.03-.718.06-.27.03-.48.06-.66.09-.18.06-.36.15-.479.27-.12.12-.18.27-.18.48 0 .239.06.389.21.508.15.12.36.18.63.18.239 0 .449-.06.658-.15.21-.09.39-.21.54-.33zm-1.258-3.655h-.719v-.689h.72v.69zm1.498 0h-.719v-.689h.72v.69zM31.79 10.667h-.659V5.124h.66v5.543zM36.614 6.682l-1.618 3.985h-.659L32.75 6.682h.72l1.228 3.176 1.228-3.176h.69zM39.64 10.637c-.12.03-.27.06-.419.09-.15.03-.27.03-.39.03-.419 0-.719-.12-.928-.33-.21-.21-.33-.57-.33-1.049V7.251h-.45v-.57h.45V5.544h.66v1.139h1.378v.569h-1.379v2.308c0 .119.03.239.09.329a.7.7 0 0 0 .21.21c.09.03.24.06.42.06.12 0 .21-.03.329-.06.12-.03.21-.06.27-.09h.03v.629h.06zM43.865 8.749H40.93c0 .24.03.45.12.63.06.179.18.329.3.449s.269.21.449.27c.18.06.36.09.57.09.269 0 .538-.06.808-.15.27-.12.48-.21.6-.33h.03v.719c-.24.09-.45.18-.69.24-.24.06-.48.09-.749.09-.66 0-1.168-.18-1.558-.54-.36-.36-.57-.869-.57-1.528 0-.66.18-1.168.54-1.558.36-.39.81-.57 1.408-.57.54 0 .96.15 1.229.48.3.3.45.75.45 1.348v.36zm-.659-.51c0-.359-.09-.629-.27-.808-.18-.18-.45-.3-.809-.3-.36 0-.659.12-.869.33-.21.21-.33.479-.36.779h2.308zM47.79 9.498c0 .36-.15.66-.45.899-.299.24-.718.36-1.228.36-.3 0-.569-.03-.809-.12-.24-.06-.449-.15-.629-.24v-.75h.03c.21.15.45.3.72.39.269.09.509.15.748.15.3 0 .54-.06.69-.15.18-.09.24-.24.24-.449 0-.15-.06-.27-.15-.36-.09-.09-.27-.15-.51-.21a3.11 3.11 0 0 0-.36-.09c-.15-.03-.3-.06-.419-.09-.36-.089-.6-.239-.75-.419-.149-.18-.209-.39-.209-.659 0-.15.03-.33.09-.45.06-.149.18-.269.3-.389s.3-.21.509-.27c.21-.06.45-.09.69-.09.239 0 .479.03.718.09.24.06.45.12.6.21v.72h-.03a3.1 3.1 0 0 0-.63-.33c-.24-.09-.48-.12-.719-.12-.24 0-.45.06-.629.15-.18.09-.24.24-.24.42 0 .15.06.299.15.359.09.09.27.15.48.21.12.03.27.06.419.09.15.03.27.06.39.09.3.06.539.18.719.359.18.18.27.42.27.69zM50.906 10.637c-.12.03-.27.06-.419.09-.15.03-.27.03-.39.03-.419 0-.719-.12-.928-.33-.21-.21-.33-.57-.33-1.049V7.251h-.45v-.57h.45V5.544h.66v1.139h1.377v.569h-1.378v2.308c0 .119.03.239.09.329a.7.7 0 0 0 .21.21c.09.03.24.06.42.06.12 0 .209-.03.329-.06.12-.03.21-.06.27-.09h.03v.629h.06z"
        fill="#020203" />
    <defs>
        <linearGradient id="paint0_linear" x1="15.164" y1="5.894" x2="4.014" y2="5.894" gradientUnits="userSpaceOnUse">
            <stop stop-color="#E41913" />
            <stop offset=".097" stop-color="#EA6516" />
            <stop offset=".215" stop-color="#F3A518" />
            <stop offset=".312" stop-color="#F9CD1A" />
            <stop offset=".384" stop-color="#FDE31A" />
            <stop offset=".423" stop-color="#FEEB1A" />
            <stop offset=".623" stop-color="#DFDE20" />
            <stop offset="1" stop-color="#009245" />
        </linearGradient>
    </defs>
</svg>