<svg fill="none" xmlns="http://www.w3.org/2000/svg">
    <path d="M52.251.15H3.15a3 3 0 0 0-3 3v9.7a3 3 0 0 0 3 3H52.25a3 3 0 0 0 3-3v-9.7a3 3 0 0 0-3-3z" fill="#fff" />
    <path
        d="M52.101.3a3 3 0 0 1 3 3v9.4a3 3 0 0 1-3 3H3.3a3 3 0 0 1-3-3V3.3a3 3 0 0 1 3-3H52.1zm3.3 2.7a3 3 0 0 0-3-3H3a3 3 0 0 0-3 3v10a3 3 0 0 0 3 3h49.4a3 3 0 0 0 3-3V3z"
        fill="#020203" />
    <path
        d="M15.97 8.03c0 3.506-2.846 6.352-6.382 6.352-3.506 0-6.382-2.846-6.382-6.382.03-3.506 2.876-6.352 6.382-6.352A6.368 6.368 0 0 1 15.97 8.03z"
        fill="#E20D18" />
    <path
        d="M23.101 9.139c0 .21-.06.42-.15.599-.09.21-.24.36-.39.51-.179.15-.419.269-.658.359-.24.09-.57.12-.93.12-.389 0-.718-.03-1.018-.12-.3-.06-.63-.18-.929-.33v-.899h.06c.27.21.57.39.929.51.36.12.69.18.989.18.45 0 .779-.09 1.018-.24.24-.15.36-.39.36-.66 0-.239-.06-.419-.18-.509-.12-.09-.3-.21-.539-.27-.18-.06-.36-.09-.57-.12-.21-.03-.419-.06-.659-.119-.479-.09-.809-.27-1.048-.51-.24-.24-.33-.569-.33-.928 0-.45.18-.81.57-1.079.389-.27.838-.42 1.438-.42.36 0 .719.03 1.018.12.3.06.6.15.84.27v.84h-.06c-.21-.18-.48-.3-.81-.42-.33-.12-.659-.18-1.018-.18-.39 0-.69.09-.9.24-.239.15-.329.36-.329.599 0 .21.06.39.18.51.12.119.33.209.6.299.15.03.359.06.659.12.27.06.509.09.719.15.39.09.689.27.898.479.12.21.24.51.24.899zM27.745 8.63c0 .329-.06.629-.15.898-.09.27-.21.48-.389.69-.15.18-.33.299-.57.419-.239.12-.449.15-.688.15-.21 0-.39-.03-.57-.06-.18-.06-.33-.12-.509-.21v1.678h-.66V6.682h.66v.42c.18-.15.39-.27.6-.39.209-.09.449-.15.718-.15.48 0 .84.18 1.109.54.33.359.45.868.45 1.527zm-.689 0c0-.48-.09-.84-.24-1.08-.18-.239-.419-.359-.748-.359-.18 0-.39.03-.57.12-.21.09-.39.18-.57.33v2.247c.18.09.36.15.48.18.15.03.3.06.48.06.36 0 .659-.12.869-.39.18-.24.3-.6.3-1.109zM32.21 8.72h-2.937c0 .239.03.449.12.628.06.18.18.33.3.45s.27.21.45.27c.18.06.359.09.569.09.27 0 .539-.06.809-.15.27-.12.479-.21.599-.33h.03v.72c-.24.089-.45.179-.69.239-.239.06-.479.09-.748.09-.66 0-1.169-.18-1.558-.54-.39-.36-.57-.868-.57-1.528 0-.659.18-1.168.54-1.558.36-.39.809-.569 1.408-.569.54 0 .959.15 1.228.48.3.299.45.748.45 1.348v.36zm-.66-.51c0-.36-.09-.63-.27-.81-.179-.179-.449-.299-.808-.299-.36 0-.66.12-.869.33-.21.21-.33.48-.36.779h2.308zM33.948 10.667h-.66V5.094h.66v5.573zM38.861 8.63c0 .329-.06.629-.15.898-.09.27-.21.48-.389.69-.15.18-.33.299-.57.419-.239.12-.449.15-.688.15-.21 0-.39-.03-.57-.06-.18-.06-.33-.12-.509-.21v1.678h-.63V6.682h.66v.42c.18-.15.39-.27.6-.39.209-.09.449-.15.718-.15.48 0 .84.18 1.109.54.3.359.42.868.42 1.527zm-.689 0c0-.48-.09-.84-.24-1.08-.15-.239-.419-.359-.748-.359-.18 0-.39.03-.57.12-.21.09-.39.18-.569.33v2.247c.18.09.36.15.48.18.15.03.299.06.479.06.36 0 .659-.12.869-.39.21-.24.3-.6.3-1.109zM43.086 10.667h-.659v-.42c-.06.03-.15.09-.24.18-.09.06-.21.12-.3.18-.12.06-.24.09-.389.15-.15.03-.33.06-.51.06-.359 0-.658-.12-.898-.36a1.22 1.22 0 0 1-.36-.899c0-.3.06-.54.18-.719.12-.18.3-.33.54-.45.24-.12.539-.18.868-.21.33-.03.72-.06 1.109-.089V8a.83.83 0 0 0-.09-.39.613.613 0 0 0-.24-.24c-.09-.059-.21-.089-.33-.119-.12-.03-.269-.03-.419-.03-.18 0-.36.03-.599.06-.24.03-.45.12-.66.21h-.03V6.8c.12-.03.33-.09.57-.12.24-.03.48-.06.72-.06.269 0 .539.03.718.06.21.06.39.12.54.24.15.12.27.24.33.42s.12.39.12.66v2.666h.03zm-.689-.989V8.569c-.21 0-.45.03-.72.06-.269.03-.508.06-.658.09-.18.06-.36.15-.48.27-.12.12-.18.27-.18.48 0 .239.06.389.21.509s.36.18.63.18c.24 0 .449-.06.659-.15.21-.09.39-.21.539-.33zM47.73 10.667h-.659v-.45c-.24.18-.45.33-.659.42-.21.09-.45.15-.69.15-.419 0-.748-.12-.988-.39s-.36-.63-.36-1.139V6.682h.66v2.277c0 .21 0 .39.03.51.03.149.06.269.12.359.06.09.15.18.24.24s.239.06.449.06c.18 0 .36-.06.569-.15.21-.09.39-.21.57-.36V6.652h.658v4.015h.06zM51.985 9.498c0 .36-.15.66-.45.9-.299.239-.718.359-1.228.359-.3 0-.57-.03-.809-.12a3.06 3.06 0 0 1-.629-.24v-.749h.03c.21.15.45.3.719.39.27.09.51.15.75.15.299 0 .538-.06.688-.15.18-.09.24-.24.24-.45 0-.15-.06-.27-.15-.36-.09-.09-.27-.15-.51-.21-.09-.03-.209-.06-.359-.09-.15-.029-.3-.059-.42-.089-.359-.09-.599-.24-.748-.42-.15-.18-.21-.389-.21-.659 0-.15.03-.33.09-.449.06-.15.18-.27.3-.39s.3-.21.509-.27c.21-.06.45-.09.689-.09.24 0 .48.03.719.09.24.06.45.12.6.21v.72h-.03a3.1 3.1 0 0 0-.63-.33c-.24-.09-.48-.12-.719-.12-.24 0-.45.06-.63.15-.179.09-.239.24-.239.42 0 .15.06.3.15.359.09.09.27.15.48.21.12.03.269.06.419.09.15.03.27.06.39.09.299.06.539.18.718.36.18.179.27.419.27.688z"
        fill="#020203" />
    <path
        d="M8.6 11.236H6.741c-.15 0-.27-.12-.27-.27V5.064c0-.15.12-.27.27-.27h1.857c.15 0 .27.12.27.27v5.902c0 .15-.12.27-.27.27zM12.434 11.266h-1.857c-.15 0-.27-.12-.27-.27V5.064c0-.15.12-.27.27-.27h1.857c.15 0 .27.12.27.27v5.902c0 .18-.12.3-.27.3z"
        fill="#fff" />
</svg>