<svg fill="none"
    xmlns="http://www.w3.org/2000/svg">
    <path d="M62.618.15H3.15a3 3 0 0 0-3 3v9.7a3 3 0 0 0 3 3h59.468a3 3 0 0 0 3-3v-9.7a3 3 0 0 0-3-3z" fill="#fff" />
    <path
        d="M62.468.3a3 3 0 0 1 3 3v9.4a3 3 0 0 1-3 3H3.3a3 3 0 0 1-3-3V3.3a3 3 0 0 1 3-3h59.168zm3.33 2.7a3 3 0 0 0-3-3H3a3 3 0 0 0-3 3v10a3 3 0 0 0 3 3h59.798a3 3 0 0 0 3-3V3z"
        fill="#020203" />
    <path
        d="M23.43 9.168c0 .21-.06.42-.15.6-.089.21-.239.36-.419.51-.18.149-.42.269-.659.359-.24.09-.57.12-.929.12-.39 0-.719-.03-1.018-.12-.3-.06-.63-.18-.93-.33v-.869h.06c.27.21.57.39.93.51.36.12.689.18.988.18.45 0 .78-.09 1.02-.24.239-.15.359-.39.359-.66 0-.24-.06-.42-.18-.509-.12-.09-.3-.21-.54-.27-.18-.06-.359-.09-.569-.12-.21-.03-.42-.06-.659-.12-.48-.09-.809-.269-1.049-.509-.24-.24-.33-.569-.33-.929 0-.449.18-.809.57-1.078.39-.27.839-.42 1.438-.42.36 0 .72.03 1.019.12.3.06.6.15.839.27v.839h-.06c-.21-.18-.48-.3-.809-.42-.33-.12-.66-.18-1.019-.18-.39 0-.689.09-.899.24-.21.15-.33.36-.33.6 0 .21.06.389.18.509s.33.21.6.3c.15.03.36.06.659.12.27.06.51.09.72.15.389.089.688.269.898.479.18.18.27.479.27.868zM28.045 8.63c0 .329-.06.628-.15.898s-.21.48-.39.69c-.15.179-.329.299-.539.419-.21.09-.45.15-.689.15-.21 0-.39-.03-.57-.06-.179-.06-.329-.12-.509-.21v1.678h-.659V6.682h.66v.42c.18-.15.389-.27.599-.39.21-.09.45-.15.719-.15.48 0 .839.18 1.108.54.3.389.42.898.42 1.527zm-.69.03c0-.48-.09-.84-.239-1.08-.15-.24-.42-.36-.749-.36-.18 0-.39.03-.57.12-.209.09-.389.18-.569.33v2.248c.18.09.36.15.48.18.15.03.3.06.48.06.359 0 .658-.12.868-.39.21-.24.3-.63.3-1.109zM32.45 8.749h-2.937c0 .24.03.45.12.63.06.179.18.329.3.449s.27.21.449.27c.18.06.36.09.57.09.269 0 .539-.06.808-.15.27-.12.48-.21.6-.33h.03v.719c-.24.09-.45.18-.69.24-.24.06-.479.09-.749.09-.659 0-1.168-.18-1.558-.54-.36-.36-.569-.869-.569-1.528 0-.66.18-1.168.54-1.558.359-.39.808-.57 1.407-.57.54 0 .96.15 1.229.48.3.3.45.75.45 1.348v.36zm-.63-.51c0-.359-.09-.629-.27-.808-.18-.18-.449-.3-.808-.3-.36 0-.66.12-.87.33-.21.21-.329.479-.359.779h2.307zM34.187 10.667h-.659V5.124h.66v5.543zM38.772 10.217c0 .69-.15 1.169-.45 1.498-.3.33-.779.48-1.408.48-.21 0-.42 0-.63-.03-.21-.03-.389-.06-.599-.12v-.69h.03c.12.03.27.09.51.15s.48.09.719.09c.24 0 .42-.03.57-.09.149-.06.269-.12.359-.24.09-.09.15-.209.18-.329.03-.12.06-.27.06-.45v-.359c-.21.15-.39.27-.57.36-.18.09-.42.12-.69.12-.479 0-.838-.18-1.138-.51-.27-.33-.42-.839-.42-1.438 0-.33.06-.63.15-.899.09-.24.24-.45.39-.629.15-.18.33-.3.57-.39.21-.09.449-.15.659-.15.24 0 .42.03.569.06.15.03.33.12.48.21l.03-.18h.629v3.536zm-.66-.63V7.432a1.73 1.73 0 0 0-.509-.18c-.15-.03-.3-.06-.45-.06-.359 0-.659.12-.868.36-.21.24-.33.599-.33 1.078 0 .45.09.78.24 1.019.15.24.42.36.779.36.21 0 .39-.03.599-.12.21-.09.36-.18.54-.3zM42.607 7.43h-.03c-.09-.03-.21-.03-.3-.06-.09 0-.21-.03-.33-.03-.21 0-.419.06-.599.15s-.39.21-.569.36v2.817h-.63V6.682h.66v.599c.27-.21.51-.36.69-.45.209-.09.419-.12.628-.12h.24c.06 0 .12.03.24.03v.69zM46.382 10.667h-.66v-.42c-.06.03-.149.09-.239.18s-.21.12-.3.18c-.12.06-.24.09-.389.15-.15.03-.33.06-.51.06-.359 0-.659-.12-.898-.36a1.22 1.22 0 0 1-.36-.899c0-.3.06-.54.18-.72.12-.179.3-.329.54-.449.239-.12.539-.18.868-.21.33-.03.72-.06 1.109-.09V8a.83.83 0 0 0-.09-.389c-.06-.09-.12-.18-.24-.24-.09-.06-.21-.09-.33-.12-.12-.06-.269-.06-.419-.06-.18 0-.36.03-.6.06-.209.06-.448.12-.658.21h-.03v-.689c.12-.03.33-.06.57-.12.239-.03.478-.06.718-.06.27 0 .54.03.72.06.209.06.389.12.539.24.15.12.27.24.33.42.09.18.119.39.119.659v2.697h.03zm-.66-.99V8.57c-.209 0-.449.03-.718.06-.27.03-.51.06-.66.09-.18.06-.359.15-.479.27-.12.12-.18.27-.18.48 0 .239.06.389.21.508.15.12.36.18.63.18.239 0 .449-.06.659-.15.18-.09.359-.18.539-.33zm-1.258-3.655h-.719v-.689h.72v.69zm1.469 0h-.72v-.689h.72v.69zM51.026 10.667h-.659V8.389c0-.18 0-.36-.03-.509-.03-.15-.06-.3-.12-.39a.478.478 0 0 0-.27-.21c-.12-.06-.27-.06-.449-.06-.18 0-.36.06-.57.15-.209.09-.389.21-.569.36v2.967H47.7V6.682h.66v.45c.21-.18.419-.3.659-.42.21-.09.45-.15.689-.15.42 0 .749.12.989.39.24.269.33.628.33 1.108v2.607zM55.221 9.528c0 .36-.15.66-.45.899-.3.24-.719.36-1.228.36-.3 0-.57-.03-.809-.12a3.06 3.06 0 0 1-.63-.24v-.75h.03c.21.15.45.3.72.39.27.09.51.15.749.15.3 0 .54-.06.69-.15.179-.09.239-.24.239-.45 0-.149-.06-.269-.15-.359-.09-.09-.27-.15-.51-.21-.09-.03-.21-.06-.359-.09-.15-.03-.3-.06-.42-.09-.359-.09-.599-.239-.748-.419-.15-.18-.21-.39-.21-.659 0-.15.03-.33.09-.45.06-.15.18-.269.3-.389s.299-.21.509-.27c.21-.06.45-.09.689-.09.24 0 .48.03.719.09.24.06.45.12.6.21v.72h-.03c-.18-.12-.39-.24-.63-.33-.24-.09-.48-.12-.72-.12-.239 0-.448.06-.628.15s-.24.24-.24.42c0 .15.06.299.15.359.09.09.27.15.48.21.12.03.269.06.419.09.15.03.27.06.39.09.299.06.539.18.718.359.18.15.27.39.27.689zM59.536 8.749h-2.937c0 .24.03.45.12.63.09.179.18.329.3.449s.27.21.45.27c.179.06.359.09.568.09.27 0 .54-.06.81-.15.27-.12.479-.21.599-.33h.03v.719c-.24.09-.45.18-.69.24-.24.06-.479.09-.749.09-.659 0-1.168-.18-1.558-.54-.36-.36-.569-.869-.569-1.528 0-.66.18-1.168.54-1.558.359-.39.808-.57 1.408-.57.539 0 .959.15 1.228.48.27.33.45.75.45 1.348v.36zm-.66-.51c0-.359-.09-.629-.27-.808-.18-.18-.449-.3-.808-.3-.36 0-.66.12-.87.33-.209.21-.329.479-.359.779h2.307zM63.071 7.43h-.03c-.09-.03-.21-.03-.3-.06-.09 0-.21-.03-.33-.03-.209 0-.419.06-.598.15-.18.09-.39.21-.57.36v2.817h-.659V6.682h.66v.599c.27-.21.509-.36.688-.45.21-.09.42-.12.63-.12h.24c.06 0 .12.03.24.03v.69h.03z"
        fill="#020203" />
    <path
        d="M9.738 14.172A6.087 6.087 0 0 1 3.655 8.09a6.087 6.087 0 0 1 6.083-6.083A6.087 6.087 0 0 1 15.82 8.09a6.087 6.087 0 0 1-6.082 6.082z"
        fill="#fff" />
    <path
        d="M9.738 2.307A5.786 5.786 0 0 1 15.52 8.09a5.786 5.786 0 0 1-5.783 5.783A5.786 5.786 0 0 1 3.955 8.09a5.767 5.767 0 0 1 5.783-5.783zm0-.6c-3.506 0-6.382 2.847-6.382 6.383 0 3.505 2.846 6.382 6.382 6.382 3.505 0 6.382-2.846 6.382-6.382-.03-3.536-2.877-6.382-6.382-6.382z"
        fill="#009739" />
    <path d="M8 4.285l2.307 3.655M7.58 9.978l2.757-1.918" stroke="#009739" stroke-width="3.871" stroke-miterlimit="10"
        stroke-linecap="round" />
    <path d="M14.562 14.712a3.865 3.865 0 1 0 0-7.73 3.865 3.865 0 0 0 0 7.73z" fill="#009739" />
    <path
        d="M12.374 8.929h.81v1.618l1.258-1.618h1.019l-1.438 1.828 1.498 2.007h-.99l-1.348-1.798v1.798h-.809V8.929zM16.51 10.247v.36a.85.85 0 0 1 .269-.3c.09-.06.18-.12.27-.12h.15v.81c-.06 0-.12-.03-.18-.03-.15 0-.27.06-.36.15-.09.12-.12.269-.12.449v1.108h-.749v-2.487h.72v.06z"
        fill="#fff" />
    <path d="M4.794 8.09h.72" stroke="#009739" stroke-width="1.935" stroke-miterlimit="10" stroke-linecap="round" />
</svg>