<svg viewBox="0 0 31 16" fill="none" xmlns="http://www.w3.org/2000/svg">
<g clip-path="url(#clip0)">
<path d="M1.09961 4.03224C0.395781 3.52679 0.0219878 2.94285 0.0219878 2.12275C0.0219878 0.718923 1.05563 0 2.15524 0C3.46384 0 4.20054 0.887257 4.20054 2.19035V2.45986H2.80399V2.14543C2.80399 1.7187 2.55102 1.34801 2.12215 1.34801C1.74836 1.34801 1.50649 1.6064 1.50649 1.96575C1.50649 2.4712 1.71527 2.62842 2.19922 3.01023L3.21087 3.79653C3.87051 4.31331 4.28849 4.84122 4.28849 5.63864C4.28849 7.00911 3.28794 7.81765 2.11127 7.81765C0.923706 7.81742 0 6.97509 0 5.75072V5.34645H1.39655V5.64976C1.39655 6.09895 1.68239 6.45852 2.13325 6.45852C2.47417 6.45852 2.77112 6.14409 2.77112 5.71714C2.77112 5.34645 2.59522 5.13297 2.18833 4.82988L1.09961 4.03224Z" fill="#798291"/>
<path d="M6.75316 7.72699C5.62046 7.72699 5.1807 7.23289 5.1807 6.08701V3.38032H4.49886V2.11104H5.1807V0.774368H6.59924V2.11104H7.435V3.3801H6.59924V5.87354C6.59924 6.26669 6.6983 6.44636 7.09408 6.44636H7.44588V7.72677L6.75316 7.72699Z" fill="#798291"/>
<path d="M10.605 4.02108C10.605 3.61681 10.3192 3.3135 9.93427 3.3135C9.54938 3.3135 9.26354 3.61681 9.26354 4.02108V5.81828C9.26354 6.22255 9.5496 6.52586 9.93427 6.52586C10.3192 6.52586 10.605 6.22255 10.605 5.81828V4.02108ZM12.0236 5.76202C12.0236 7.04242 11.1769 7.81738 9.93427 7.81738C8.70274 7.81738 7.845 7.04242 7.845 5.76202V4.08846C7.845 2.80805 8.70274 2.02175 9.93427 2.02175C11.1769 2.02175 12.0236 2.80805 12.0236 4.08846V5.76202Z" fill="#798291"/>
<path d="M15.3817 4.18946C15.3817 3.65044 15.1727 3.31333 14.7218 3.31333C14.271 3.31333 14.0291 3.65022 14.0291 4.18946V5.69446C14.0291 6.21125 14.227 6.52569 14.6998 6.52569C15.1176 6.52569 15.3817 6.23371 15.3817 5.77318V4.18946ZM12.6214 8V2.11164H13.9629V2.50479C14.1168 2.29131 14.5237 2.0218 15.1176 2.0218C16.2283 2.0218 16.8 2.8081 16.8 4.05471V5.79564C16.8 6.97509 16.1293 7.81743 15.0405 7.81743C14.5457 7.81743 14.2159 7.60396 14.0289 7.36825V7.99978L12.6214 8Z" fill="#798291"/>
<path d="M17.2 6.79469C17.2 6.36503 17.5652 6 17.9946 6C18.4349 6 18.7999 6.36503 18.7999 6.79469C18.7999 7.23497 18.4349 7.6 17.9946 7.6C17.565 7.6 17.2 7.23497 17.2 6.79469Z" fill="#798291"/>
<path d="M10.5932 10.1471C10.5406 9.79969 10.3307 9.57194 9.96321 9.57194C9.61671 9.57194 9.41738 9.7565 9.41738 10.0062C9.41738 10.8961 12 10.299 12 12.2527C12 13.4247 11.0447 13.9999 9.97381 13.9999C8.96591 13.9999 8.04199 13.5549 8 12.2093H9.34379C9.38578 12.6326 9.6377 12.8386 10.0368 12.8386C10.3623 12.8386 10.6352 12.6433 10.6352 12.3612C10.6352 11.4605 8.06298 12.0464 8.06298 10.1147C8.06298 9.04017 8.82935 8.3999 10.0578 8.3999C10.9291 8.3999 11.8323 8.75807 11.8846 10.1471H10.5932Z" fill="#D3D8E1"/>
<path d="M18.7999 8.3999H17.2V13.9999H18.7999V8.3999Z" fill="#D3D8E1"/>
<path d="M20.8001 6.3999H19.6001V13.9999H20.8001V6.3999Z" fill="#D3D8E1"/>
<path d="M22.8001 6.3999H21.6001V13.9999H22.8001V6.3999Z" fill="#D3D8E1"/>
<path d="M26.249 10.386C26.249 9.93032 25.9958 9.648 25.6052 9.648C25.2358 9.648 24.9614 9.9084 24.9614 10.386V10.6247H26.249V10.386ZM24.9614 11.5583V12.0357C24.9614 12.4807 25.1831 12.6977 25.637 12.6977C26.133 12.6977 26.2912 12.4373 26.3019 12.1332H27.6001C27.5683 13.3704 26.7875 13.9999 25.6159 13.9999C24.4234 13.9999 23.6001 13.2402 23.6001 12.0681V10.4077C23.6001 9.14889 24.476 8.3999 25.637 8.3999C26.7768 8.3999 27.6001 9.15963 27.6001 10.3968V11.5581H24.9614V11.5583Z" fill="#D3D8E1"/>
<path d="M30.1418 14C29.0658 14 28.6478 13.5167 28.6478 12.3959V9.74857H28V8.50732H28.6478V7.19995H29.9956V8.50732H30.7897V9.74857H29.9956V12.1873C29.9956 12.5719 30.0897 12.7476 30.4657 12.7476H30.8V14H30.1418Z" fill="#D3D8E1"/>
<path d="M15.3062 10.5197C15.3062 9.99261 15.0863 9.66298 14.6116 9.66298C14.1368 9.66298 13.8822 9.99261 13.8822 10.5197V11.9913C13.8822 12.4966 14.0905 12.804 14.5884 12.804C15.0283 12.804 15.3062 12.5186 15.3062 12.068V10.5197ZM12.3999 15.9999V8.48775H13.8799V8.87217C14.0419 8.66343 14.403 8.3999 15.0283 8.3999C16.1979 8.3999 16.7999 9.16875 16.7999 10.3877V12.09C16.7999 13.2433 16.0936 14.0669 14.9472 14.0669C14.4261 14.0669 14.0788 13.8584 13.8819 13.6277V15.9999H12.3999Z" fill="#D3D8E1"/>
</g>
<defs>
<clipPath id="clip0">
<path d="M0 0H30.8V16H0V0Z" fill="white"/>
</clipPath>
</defs>
</svg>
